<?xml version="1.0" standalone="no"?>
<!DOCTYPE svg PUBLIC "-//W3C//DTD SVG 1.1//EN" "http://www.w3.org/Graphics/SVG/1.1/DTD/svg11.dtd" >
<svg xmlns="http://www.w3.org/2000/svg">
<metadata></metadata>
<defs>
<font id="quatie_norm_thin_italnormThIt" horiz-adv-x="912" >
<font-face units-per-em="2048" ascent="1629" descent="-419" />
<missing-glyph horiz-adv-x="400" />
<glyph unicode="&#xfb01;" horiz-adv-x="1027" d="M26 37q2 10 4 15t6.5 8t11.5 3h9q26 0 37 0.5t29 1.5t24.5 1.5t18 4t14 5.5t9.5 9.5t8.5 12l5.5 16.5t5.5 20.5t5.5 25.5l136 639h-143q-18 0 -12 16l6 34q6 17 19 17h143l30 141q68 315 355 315q68 0 129 -16t84 -33q13 -8 16 -19t-1 -35l-36 -163q-3 -11 -7.5 -15 t-14.5 -4h-34q-9 0 -11 2t0 15l23 162q-24 15 -69 25t-93 10q-103 0 -169 -61.5t-96 -200.5l-26 -123h430q17 0 23 -7t3 -23l-78 -365h-2l-26 -121h2l-26 -128q-11 -49 -12 -82t7.5 -49t20 -22t29.5 -6q46 0 57 43q3 16 4 19.5t5 9t8 5.5h15h24q16 0 19.5 -4t-0.5 -22 q-14 -68 -48.5 -94.5t-89.5 -26.5q-35 0 -61.5 9.5t-47 32.5t-24.5 61.5t6 95.5l28 132h-2l94 430h1q4 32 -17.5 38.5t-121.5 6.5h-233l-136 -639q-15 -72 6.5 -84.5t163.5 -12.5q22 0 23.5 -9t-5.5 -28q-2 -10 -3 -13t-3.5 -7t-7.5 -5t-14 -1h-413q-20 0 -21 11t6 26z" />
<glyph unicode="&#xfb02;" horiz-adv-x="1051" d="M13 37q5 26 24 26q41 0 60.5 0.5t42 1.5t31.5 6.5t19.5 10t14.5 18t8 25t9 35.5l135 639h-143q-19 0 -13 16l6 34q6 17 20 17h142l31 147q32 150 127.5 229.5t248.5 79.5q56 0 106 -12t125 -48q9 -5 10.5 -10t-0.5 -14l-216 -1016q-9 -40 -11 -69t1 -46t11.5 -27 t18.5 -13.5t24 -3.5q49 0 60 43q1 3 1 8q4 19 7.5 22.5t19.5 3.5h26q16 0 19 -4t-1 -22q-14 -68 -48 -94.5t-89 -26.5q-35 0 -61.5 9.5t-47 32.5t-24.5 61.5t6 95.5l130 607h-407l-142 -659q-4 -20 -5 -31.5t4 -21t12 -13.5t27.5 -7t40.5 -3.5t61 -0.5q22 0 23.5 -9 t-5.5 -28q-2 -10 -3 -13t-3.5 -7t-7.5 -5t-14 -1h-396q-20 0 -21 11t6 26zM449 866h407l73 340q-44 24 -80 33.5t-88 9.5q-53 0 -92 -8.5t-71 -28.5t-55 -53.5t-41 -81.5t-33 -116z" />
<glyph unicode="&#xfb03;" horiz-adv-x="1517" d="M13 37q3 15 8 20.5t16 5.5h10q29 0 41.5 0.5t32.5 1.5t27 1.5t20 4t16.5 6t11 9t9 11.5t6 16.5t6.5 20.5t5 26l135 639h-143q-19 0 -13 16l6 34q6 17 20 17h144l14 67q15 72 42.5 126.5t62 88.5t79.5 55.5t90 30t99 8.5q117 0 205 -47q96 127 275 127q68 0 128.5 -16 t83.5 -33q13 -8 16 -19t-1 -35l-35 -163q-3 -11 -7.5 -15t-14.5 -4h-34q-7 0 -9 0.5t-3.5 4.5t-0.5 12l24 162q-17 10 -43 18t-57 12.5t-62 4.5q-69 0 -120 -25t-88.5 -84t-57.5 -153l-26 -123h432q17 0 23 -7t3 -23l-78 -365h-2l-32 -147h-2l-20 -102q-11 -49 -12.5 -82 t7 -49t20 -22t30.5 -6q46 0 57 43q5 25 9 29.5t21 4.5h26q15 0 19 -4.5t0 -21.5q-14 -68 -48.5 -94.5t-91.5 -26.5q-34 0 -60 9.5t-46.5 32.5t-24.5 61.5t6 95.5l34 158h2l87 404h2q4 32 -18 38.5t-123 6.5h-233l-136 -639v-1q-15 -71 6.5 -83.5t164.5 -12.5q22 0 24 -9 t-5 -28q-2 -10 -3 -13t-3.5 -7t-7.5 -5t-14 -1h-415q-19 0 -19.5 11t6.5 26q3 15 7.5 20.5t14.5 5.5h1h1h1h1h1h1h1h2q96 1 116 11q21 10 31 51q3 9 8 34v1l19 86h1l118 553h-404l-136 -639v-1q-15 -71 2 -83.5t132 -12.5q22 0 23.5 -9t-5.5 -28q-2 -10 -3 -13t-3.5 -7 t-7.5 -5t-14 -1h-396q-20 0 -21 11t6 26zM449 866h404l30 141q18 79 39 121q-41 24 -80 32.5t-97 8.5q-116 0 -184.5 -52.5t-96.5 -183.5z" />
<glyph unicode="&#xfb04;" horiz-adv-x="1532" d="M11 37q3 15 8 20.5t16 5.5h10q28 0 40.5 0.5t32.5 1.5t27 1.5t19.5 4t16 6t11 9t9 11.5t6 16.5t6.5 20.5t5 26l136 639h-144q-7 0 -11.5 4t-1.5 12l6 34q6 17 20 17h144l15 67q14 67 40 118.5t58.5 83.5t74.5 52t85 28t94 8q127 0 214 -48q101 147 307 147q38 0 69 -4.5 t71.5 -18t92.5 -37.5q9 -5 10 -10t-1 -14l-216 -1016q-9 -40 -11 -69t1.5 -46t12 -27t18.5 -13.5t24 -3.5q46 0 57 43q5 25 9 29.5t21 4.5h26q16 0 19.5 -4t-0.5 -22q-10 -47 -30.5 -74.5t-46 -37t-61.5 -9.5q-35 0 -61.5 9.5t-47 32.5t-24.5 61.5t6 95.5l131 607h-408 l-141 -659q-4 -20 -5 -31.5t4 -21t11.5 -13.5t27 -7t40.5 -3.5t61 -0.5q22 0 24 -9t-5 -28q-2 -10 -3 -13t-3.5 -7t-7.5 -5t-14 -1h-397q-19 0 -20 10.5t5 26.5q3 14 8.5 20t16.5 6q41 0 60.5 1t41.5 1.5t31 6t19 10t14 18t7.5 24.5t8.5 36l136 639h-402l-136 -639v-1 q-15 -71 2 -83.5t132 -12.5q21 0 22.5 -9t-5.5 -28q0 -1 -1 -3q-2 -15 -6 -19t-19 -4h-397q-20 0 -21 11t6 26zM447 866h402l32 147q11 55 29 93q-49 24 -90.5 34.5t-98.5 10.5q-108 0 -171 -48.5t-88 -169.5zM929 866h408l72 340q-30 16 -53 25t-51 13.5t-63 4.5 q-53 0 -92 -8.5t-71 -28.5t-55 -53.5t-41 -81.5t-33 -116z" />
<glyph horiz-adv-x="2048" />
<glyph horiz-adv-x="2048" />
<glyph unicode="&#xd;" horiz-adv-x="2048" />
<glyph unicode=" "  horiz-adv-x="400" />
<glyph unicode="&#x09;" horiz-adv-x="400" />
<glyph unicode="&#xa0;" horiz-adv-x="400" />
<glyph unicode="!" horiz-adv-x="482" d="M119 54q5 27 27 46t51 19q26 0 41 -19.5t10 -45.5q-6 -31 -29 -48t-50 -17q-30 0 -43.5 16.5t-6.5 48.5zM195 276l220 1061q4 15 13 15h60q10 0 11 -4.5t-2 -12.5l-229 -1061q-3 -12 -6.5 -14.5t-15.5 -2.5h-43q-11 0 -8 19z" />
<glyph unicode="&#x22;" horiz-adv-x="573" d="M281 877l88 415q3 11 9 11h65q8 0 6 -11l-88 -415q-3 -11 -17 -11h-54q-8 0 -9.5 2t0.5 9zM452 877l88 415q3 11 9 11h65q8 0 6 -11l-88 -415q-3 -11 -16 -11h-54q-8 0 -10 2t0 9z" />
<glyph unicode="#" horiz-adv-x="1383" d="M136 432l17 80h298l132 311h-298l18 80h317l168 410h80l-168 -410h317l167 410h80l-166 -410h302l-19 -80h-322l-130 -311h311l-17 -80h-329l-179 -432h-80l180 432h-318l-179 -432h-76l177 432h-283zM531 512h318l130 311h-318z" />
<glyph unicode="$" horiz-adv-x="1064" d="M82 76l52 246q3 13 9.5 17.5t22.5 4.5h18q21 0 15 -22l-35 -233q123 -35 294 -35q45 0 87 5t96 23.5t96.5 48.5t79 84.5t52.5 127.5q16 80 3.5 136t-63.5 93.5t-87 53.5t-118 44q-42 14 -63 22t-58.5 23.5t-56.5 30t-46 36t-38.5 47t-22 58.5t-9 74.5t11.5 90.5 q54 270 400 270q94 0 189 -13.5t139 -31.5q15 -7 18.5 -14.5t-1.5 -28.5l-54 -255q-1 -9 -2.5 -13.5t-6 -6.5t-5.5 -2h-10h-26q-14 0 -17 3t0 16l37 242q-139 33 -257 33q-283 0 -329 -216q-14 -68 -1 -117.5t47 -78t81.5 -51.5t101.5 -37.5t107.5 -36t100 -47.5t78 -71.5 t41.5 -108t-9 -157.5q-15 -73 -46 -131t-72.5 -94.5t-86.5 -62t-97.5 -38.5t-95.5 -18t-88 -5q-96 0 -212.5 15.5t-150.5 31.5q-13 6 -15.5 17.5t2.5 30.5zM380 -315l48 233q5 17 17 17h52q8 0 8 -13l-53 -235q-4 -17 -9 -17h-61q-5 0 -2 15zM743 1396l48 233q1 2 2 6 q4 9 9 9h58q10 0 6 -17l-51 -234q0 -13 -13 -13h-50q-14 0 -9 16z" />
<glyph unicode="%" horiz-adv-x="1848" d="M231 931q17 80 51 148.5t86 124.5t128.5 88t168.5 32q74 0 130 -21t87.5 -58t49.5 -87t16 -107.5t-13 -119.5q-18 -81 -52.5 -150t-87 -125.5t-129.5 -89t-169 -32.5q-74 0 -129.5 21.5t-87.5 58.5t-48 88t-15.5 108t14.5 121zM315 931q-32 -150 21 -237t176 -87 q125 0 216 87t123 237t-19 235t-184 85q-125 0 -213 -85t-120 -235zM385 4l1171 1301q17 21 34 21h52q17 0 18 -5t-14 -21l-1168 -1302q-13 -18 -39 -18h-48q-8 0 -11.5 1t-3.5 6.5t9 16.5zM1061 378q17 80 51 148.5t86 124.5t128.5 88t168.5 32q74 0 130 -21t88 -58t50 -87 t16.5 -107.5t-12.5 -119.5q-18 -81 -53 -150t-88 -125.5t-130 -89t-169 -32.5q-74 0 -129.5 21.5t-87.5 58.5t-48 88t-15.5 108t14.5 121zM1145 378q-32 -150 22 -237t177 -87q125 0 216 87t123 237t-19 235t-184 85q-126 0 -215 -85.5t-120 -234.5z" />
<glyph unicode="&#x26;" horiz-adv-x="1342" d="M158 341q18 86 58.5 153.5t91 106.5t97.5 60t92 28q-56 12 -92.5 45t-49 74.5t-15 90t9.5 91.5q69 332 425 332q90 0 191 -39q17 -5 20 -15.5t-3 -31.5l-50 -236q-5 -17 -8 -20t-16 -3h-23q-10 0 -12 3t-1 16l32 223q-19 11 -61.5 19.5t-80.5 8.5q-141 0 -221 -55 t-112 -203q-29 -136 40 -198.5t206 -62.5h285l65 205q6 28 30 28h9q23 0 17 -28l-43 -205h220q21 0 16 -24l-7 -34q-3 -15 -8 -18.5t-20 -3.5h-220l-74 -356q-22 -93 -17.5 -146.5t25.5 -73.5t64 -20q89 0 108 89q3 14 8.5 19.5t19.5 5.5h23q17 0 19.5 -8t-1.5 -26 q-15 -66 -69 -108.5t-130 -42.5q-112 0 -138 90q-167 -90 -381 -90q-53 0 -95.5 4.5t-81.5 16t-67 29.5t-49 46t-31 65t-9 87t14 112zM244 344q-33 -157 26 -222.5t225 -65.5q179 0 350 82q0 57 21 154l13 65h2l59 291h-283q-158 0 -269.5 -76.5t-143.5 -227.5z" />
<glyph unicode="'" horiz-adv-x="404" d="M281 877l88 415q3 11 9 11h65q8 0 6 -11l-88 -415q-3 -11 -17 -11h-54q-8 0 -9.5 2t0.5 9z" />
<glyph unicode="(" horiz-adv-x="556" d="M164 557q45 209 171.5 421.5t308.5 369.5q3 1 8.5 6t8 7t6.5 0l26 -24q7 -7 -21 -28q-81 -70 -152.5 -167t-122.5 -200.5t-86.5 -203t-55.5 -191.5q-24 -128 -26 -260.5t29.5 -272.5t91.5 -247q1 -2 4 -6t3.5 -6t-1.5 -6l-30 -25q-2 0 -2.5 -0.5t-2.5 2t-2.5 4t-2.5 4.5 l-1 3q-121 163 -160 389t9 431z" />
<glyph unicode=")" horiz-adv-x="556" d="M-39 -251q-1 2 -1.5 3.5t1.5 3.5t4 3.5t5 4t4 3.5q156 160 269.5 375t154.5 405q27 125 31 257.5t-26 272.5t-98 232q-19 22 -9 28l37 24q5 2 6.5 0.5t4 -7t4.5 -6.5q116 -157 153.5 -373.5t-8.5 -417.5q-46 -216 -176.5 -436.5t-318.5 -383.5q-3 -2 -7 -6l-6.5 -6.5 t-4.5 -0.5z" />
<glyph unicode="*" horiz-adv-x="765" d="M296 1084l30 70q3 8 15 6l188 -50l7 180q0 13 8 13h91q5 0 7 -2t1.5 -4t-1 -5t-0.5 -4l-70 -178l210 48q9 3 9 -6l4 -67q1 -6 -3.5 -8.5t-9.5 -2.5l-197 -16l100 -138q9 -17 0 -23l-72 -42q-7 -4 -8.5 -3t-4.5 8l-66 171l-136 -167q-7 -7 -8 -7.5t-10 1.5l-47 38 q-3 2 4 13l153 149l-181 16q-11 1 -13 3t0 7z" />
<glyph unicode="+" horiz-adv-x="1146" d="M149 439l17 80h417l85 403h79l-86 -403h406l-17 -80h-406l-85 -402h-79l86 402h-417z" />
<glyph unicode="," horiz-adv-x="379" d="M-39 -201l160 318q5 12 8.5 16.5t10 8t18.5 3.5h30q13 0 17 -5t2 -12.5t-10 -21.5l-169 -307q-10 -19 -34 -19h-22q-12 0 -14.5 4.5t3.5 14.5z" />
<glyph unicode="-" horiz-adv-x="943" d="M199 527l8 39q3 15 18 15h607q15 0 11 -17l-7 -33q-3 -19 -22 -19h-604q-16 0 -11 15z" />
<glyph unicode="." horiz-adv-x="433" d="M97 54q5 27 27 46t51 19q25 0 40 -19.5t10 -45.5q-6 -31 -28.5 -48t-49.5 -17q-30 0 -43.5 16.5t-6.5 48.5z" />
<glyph unicode="/" horiz-adv-x="817" d="M-26 -106l916 1473q9 16 20 16h60q18 0 4 -20l-913 -1471q-7 -11 -26 -11h-57q-11 0 -4 13z" />
<glyph unicode="0" horiz-adv-x="1212" d="M209 652q32 146 86 267t127.5 212t170.5 141t208 50q120 0 204 -50.5t122.5 -140t45 -212.5t-27.5 -267q-42 -197 -122 -346t-202.5 -237t-269.5 -88q-121 0 -204.5 50.5t-122 140t-44 212.5t28.5 268zM296 655q-59 -281 6.5 -442t244.5 -161q180 0 316 161.5t195 441.5 q60 278 -8 437t-248 159q-179 0 -312.5 -158t-193.5 -438z" />
<glyph unicode="1" horiz-adv-x="778" d="M63 37q2 11 4 15t7 7.5t14 3.5q174 0 207 10t46 68l216 1019q2 9 0.5 14t-9 3.5t-23.5 -10.5l-220 -130q-13 -9 -21 -7t-5 16l8 38q5 20 33 37l276 167q26 15 46 15h11q16 0 10 -16l-242 -1146q-10 -45 -3 -57q13 -18 99 -20q32 -1 112 -1q22 0 24 -9t-5 -28 q-3 -16 -7.5 -21t-20.5 -5h-540q-9 0 -14.5 1.5t-6.5 6t-1 7t2 11t3 11.5z" />
<glyph unicode="2" horiz-adv-x="1100" d="M54 17l6 24q9 29 14 32q789 424 889 893q9 44 10.5 81t-3 64.5t-16.5 49t-25.5 35.5t-34 24.5t-38.5 16t-43.5 8.5t-43.5 3.5t-43 0.5q-157 0 -298 -48l-69 -240q-5 -13 -8 -16t-14 -3h-26q-13 0 -15 4t2 18l54 254q4 22 9.5 29t20.5 12q151 63 337 63q49 0 90 -4.5 t81 -15.5t69 -29.5t53.5 -45.5t35 -63.5t13 -85t-12.5 -108.5q-28 -135 -105.5 -264t-192 -241t-251 -208.5t-298.5 -180.5h601q21 0 28 25l51 193q3 17 8.5 23.5t20.5 6.5h26q22 0 14 -28l-58 -276q-3 -14 -7.5 -17t-15.5 -3h-798q-20 0 -17 17z" />
<glyph unicode="3" horiz-adv-x="1044" d="M65 67q3 11 7.5 17t8 7.5t10.5 1.5q3 0 35.5 -7t71.5 -14.5t101.5 -13.5t123.5 -6q347 0 419 330q17 67 10 116t-25 81.5t-55.5 52t-81.5 27.5t-102 8h-121q-23 0 -15 26l4 24q6 17 11 22l505 484h-512q-15 0 -20.5 -8.5t-13.5 -34.5l-39 -160q-3 -13 -8.5 -17.5 t-19.5 -4.5h-24q-12 0 -16 3.5t-1 15.5l56 266q3 14 7 17t16 3h681q13 0 15 -6.5t-2 -21.5l-4 -22q-2 -9 -3.5 -13.5t-5.5 -9.5t-6 -7t-11.5 -10.5t-16.5 -15.5l-476 -460h22q207 0 289.5 -87t40.5 -283q-83 -386 -499 -386q-224 0 -341 41q-17 6 -19 16.5t4 28.5z" />
<glyph unicode="4" horiz-adv-x="1159" d="M89 352l417 935q5 11 9 13.5t16 2.5h48q22 0 13 -16l-391 -881h505l188 884q3 13 15 13h54q14 0 11 -15l-188 -882h260q14 0 17 -3.5t0 -17.5l-7 -41q-2 -7 -5 -10t-5.5 -3.5t-12.5 -0.5h-264l-41 -194q-11 -51 13.5 -61t161.5 -10q18 0 21 -5t-1 -19l-3 -21 q-3 -13 -7 -16.5t-19 -3.5h-507q-14 0 -17 4t1 15l3 24q5 16 13 19q4 1 11 1q65 0 98.5 0.5t65 3.5t43 6t22.5 13t14 19t7 29l41 196h-585q-14 0 -16.5 4.5t1.5 17.5z" />
<glyph unicode="5" horiz-adv-x="1042" d="M65 86q4 18 11 23.5t15 2.5q12 -5 53 -17.5t124 -27.5t155 -15q346 0 415 333q14 65 13.5 117t-12.5 89t-39.5 64t-62 43.5t-85 26t-102.5 13t-122 3.5h-130q-21 0 -13 26l177 508q7 19 11.5 23.5t16.5 4.5h564q10 0 13 -0.5t5 -5t-1 -14.5l-54 -257q-4 -18 -11 -23 t-21 -5h-22q-16 0 -19 7.5t2 22.5l26 152q6 22 2.5 32.5t-21.5 10.5h-428l-147 -408h74q78 0 138.5 -5t118 -18.5t97.5 -35t71.5 -56t46 -80.5t15 -109t-16.5 -142q-81 -388 -499 -388q-110 0 -204.5 18.5t-138.5 37.5q-6 3 -10 5.5t-6 5.5t-3 5.5t-1 7t0.5 7t2 9t2.5 9.5z " />
<glyph unicode="6" horiz-adv-x="1104" d="M175 514q28 133 82 252.5t135.5 221.5t184 176t234 116t278.5 42h23q11 0 15 -3.5t3 -13.5l-9 -35q-3 -14 -7.5 -17.5t-16.5 -3.5h-23q-152 0 -282.5 -49t-226.5 -135.5t-164.5 -197.5t-110.5 -243q162 177 365 177q93 0 163 -22.5t111 -62.5t64.5 -95t23 -120.5 t-14.5 -139.5q-40 -179 -170 -279.5t-318 -100.5q-225 0 -309.5 136.5t-29.5 396.5zM255 490q-87 -436 257 -436q156 0 263.5 84t142.5 244q19 75 12 139t-35.5 110.5t-89.5 72.5t-150 26q-242 0 -400 -240z" />
<glyph unicode="7" horiz-adv-x="938" d="M140 17l843 1206h-599l-56 -195q-5 -17 -10.5 -23.5t-19.5 -6.5h-19q-13 0 -16 4t1 24l54 257q3 14 7 17t16 3h730q14 0 16 -6.5t-2 -21.5l-5 -26q-5 -22 -22 -46l-823 -1186q-9 -17 -28 -17h-56q-22 0 -11 17z" />
<glyph unicode="8" horiz-adv-x="1115" d="M145 415q30 123 119 213t239 119q-53 23 -86.5 63.5t-44 87t-10 90t11.5 83.5q34 122 137 185.5t234 63.5q66 0 119.5 -16.5t87.5 -45t57 -64.5t31.5 -77t8 -81t-11.5 -77q-24 -82 -86 -140t-152 -84q58 -18 100 -49t65.5 -69t34 -84.5t9 -93t-13.5 -96.5 q-18 -71 -52.5 -132t-91 -114.5t-145 -84.5t-199.5 -31q-82 0 -147.5 17t-108.5 48t-71.5 71.5t-40 90t-9.5 101t16 106.5zM223 393q-10 -51 -10.5 -100t19 -93t52.5 -77t90 -52t132 -19q87 0 159 26t120.5 70.5t79 96.5t45.5 111q10 51 10.5 100.5t-19 94t-52 78 t-89.5 53.5t-131 20q-163 0 -268 -87t-138 -222zM454 1046q-32 -115 23 -191.5t193 -76.5q117 0 189.5 55t95.5 139q10 36 10.5 73t-12 74.5t-38 66.5t-73 47t-110.5 18q-116 0 -185.5 -57.5t-92.5 -147.5z" />
<glyph unicode="9" horiz-adv-x="1081" d="M149 0l6 32q7 22 24 22h20q269 0 455 165.5t275 452.5q-160 -169 -387 -169q-72 0 -128.5 16.5t-92.5 46t-59.5 69t-32 87t-7 97.5t13.5 104q38 181 167.5 290t311.5 109q95 0 164.5 -25.5t111 -72t61.5 -113.5t18.5 -146t-22.5 -174q-38 -175 -112 -320.5t-181 -256 t-254 -172t-319 -61.5h-20q-19 0 -13 19zM318 901q-31 -147 29.5 -237.5t212.5 -90.5q129 0 228.5 57t177.5 176q45 211 -17.5 328t-235.5 117q-146 0 -252.5 -90t-142.5 -260z" />
<glyph unicode=":" horiz-adv-x="435" d="M95 47q5 27 27 46t51 19q25 0 40 -19.5t10 -45.5q-6 -31 -28.5 -48.5t-49.5 -17.5q-30 0 -43.5 17t-6.5 49zM240 732q5 27 27 46t51 19q26 0 41 -19.5t10 -45.5q-6 -31 -28 -48t-49 -17q-30 0 -44.5 17t-7.5 48z" />
<glyph unicode=";" horiz-adv-x="545" d="M26 -201l160 318q5 12 8.5 16.5t10 8t18.5 3.5h30q13 0 17.5 -5t2 -12.5t-9.5 -21.5l-170 -307q-10 -19 -33 -19h-23q-12 0 -14.5 4.5t3.5 14.5zM320 819q5 27 27 46t51 19q26 0 41 -19.5t10 -45.5q-6 -31 -28 -48t-49 -17q-30 0 -44.5 17t-7.5 48z" />
<glyph unicode="&#x3c;" horiz-adv-x="1007" d="M128 432l19 89l851 401l-19 -84l-735 -361l583 -358l-19 -89z" />
<glyph unicode="=" horiz-adv-x="1109" d="M158 281l17 80h780l-17 -80h-780zM210 518l17 80h778l-16 -80h-779z" />
<glyph unicode="&#x3e;" horiz-adv-x="1007" d="M76 30l19 89l735 358l-582 361l18 84l680 -401l-19 -89z" />
<glyph unicode="?" horiz-adv-x="835" d="M244 54q5 27 26 46t47 19q25 0 40 -19.5t10 -45.5q-6 -31 -28.5 -48t-49.5 -17t-39.5 16.5t-5.5 48.5zM248 979l54 255q5 21 10.5 28.5t20.5 14.5q46 19 132.5 32t169.5 13q325 0 259 -307q-20 -92 -52.5 -155.5t-69.5 -96t-78.5 -55.5l-83 -46t-79 -55t-69.5 -94 t-51 -152l-35 -162q-3 -18 -17 -18h-50q-11 0 -7 14l31 153q22 105 56.5 177.5t72.5 110t79.5 62.5t82.5 46t77 49.5t67 84.5t49 139q8 49 7 85.5t-16 62.5t-33.5 43t-46.5 26.5t-53.5 13t-54.5 3.5q-78 0 -120.5 -6.5t-125.5 -28.5l-63 -240q-3 -13 -6.5 -16t-15.5 -3h-26 q-14 0 -15.5 5t0.5 17z" />
<glyph unicode="@" horiz-adv-x="1508" d="M188 596q28 133 90.5 247.5t143.5 194.5t177 137.5t194 85t192 27.5q138 0 246 -42.5t171.5 -118t88 -180t-4.5 -228.5q-44 -198 -156 -325.5t-265 -127.5q-61 0 -96 27t-40 72q-40 -38 -112 -69.5t-141 -31.5q-114 0 -172.5 78.5t-30.5 216.5q17 78 58 152t102 137 t148.5 101t186.5 38q69 0 115.5 -21.5t66.5 -56.5t26 -80.5t-7 -93.5q-13 -59 -64 -158.5t-85 -148.5q-25 -39 -6 -64t68 -25q111 0 197.5 113t122.5 276q46 216 -72.5 352t-348.5 136q-76 0 -160 -24.5t-171 -76.5t-161.5 -125.5t-133.5 -180t-85 -230.5 q-30 -140 -9.5 -249t82.5 -184t160 -114t225 -39q212 0 423 104q18 10 20 0l11 -45q2 -3 0.5 -6t-1 -4t-2.5 -3.5t-4.5 -3t-5 -2.5t-5.5 -3q-199 -110 -453 -110q-141 0 -252.5 43.5t-184.5 129t-97 212t11 291.5zM557 555q-23 -103 11.5 -160.5t124.5 -57.5 q64 0 125.5 34.5t106.5 85t81.5 108t56 101.5t24.5 69q41 181 -151 181q-89 0 -171.5 -53.5t-135.5 -135t-72 -172.5z" />
<glyph unicode="A" horiz-adv-x="1334" d="M-9 22l3 15q4 18 8.5 22t14.5 4q82 0 112.5 5t43.5 19t22 54l17 86q53 246 121 443.5t151 344.5t184.5 227t212.5 80q106 0 172.5 -79.5t89.5 -225t8 -345.5t-67 -445l-21 -102q-8 -44 15 -53t125 -9q20 0 21.5 -9t-5.5 -28q-3 -16 -7.5 -21t-18.5 -5h-396q-15 0 -17.5 3 t0.5 19q1 4 2.5 11.5t3 11.5t3.5 9t6.5 7t10.5 2q82 0 114 5.5t44.5 19.5t20.5 53l17 86q7 33 18 92t15 76h-702q-17 -62 -41 -168l-15 -72q-6 -26 -8 -38t2 -25t9.5 -17t26 -7.5t41 -3.5t63.5 -1q22 0 24 -9t-5 -28q-3 -17 -7 -21.5t-21 -4.5h-395q-15 0 -17 3t1 19z M350 467h696q56 359 9.5 570.5t-189.5 211.5q-146 0 -281.5 -209t-234.5 -573z" />
<glyph unicode="B" horiz-adv-x="1197" d="M58 37q3 16 6.5 21t15.5 5q51 0 76.5 1.5t46 4.5t29 14t13 21.5t10.5 36.5l220 1038q10 45 -11 53t-133 8q-13 0 -16 3.5t0 16.5l5 23q3 14 7 17t17 3h445q174 0 250 -83.5t41 -251.5q-22 -103 -78.5 -168t-130.5 -96q144 -21 196 -109t18 -252q-14 -65 -38.5 -115 t-68 -94t-105 -72.5t-151.5 -45t-206 -16.5h-445q-6 0 -10 1t-5.5 3t-2.5 4t-0.5 6.5t1 6.5l2 8t2.5 8zM322 73h222q96 0 168.5 13.5t122 36.5t83.5 60.5t53 79.5t31 98q16 61 10.5 114t-30 92.5t-85 62t-154.5 22.5h-298zM460 724h283q90 0 161.5 79t93.5 184 q23 105 -26 174.5t-177 69.5h-227z" />
<glyph unicode="C" horiz-adv-x="1225" d="M201 639q73 340 256 511.5t453 171.5q219 0 360 -37q18 -5 21.5 -12t-1.5 -33l-59 -277q-3 -15 -8 -19t-17 -4h-31q-15 0 -18.5 4t-0.5 15l41 262q-117 28 -283 28q-239 0 -401.5 -154.5t-227.5 -459.5q-65 -302 30.5 -438t354.5 -136q157 0 382 45q14 4 19.5 0.5 t2.5 -17.5l-5 -20q-4 -22 -11 -28t-30 -11q-219 -43 -358 -43q-304 0 -423 154t-46 498z" />
<glyph unicode="D" horiz-adv-x="1357" d="M58 37q3 16 6.5 21t15.5 5q51 0 76.5 1.5t46 4.5t29 14t13 21.5t10.5 36.5l220 1038q10 45 -11 53t-133 8q-13 0 -16 3.5t0 16.5l5 23q3 14 7 17t17 3h390q356 0 490 -174.5t66 -497.5q-137 -631 -810 -631h-409q-6 0 -10 1t-5.5 3t-2.5 4t-0.5 6.5t1 6.5l2 8t2.5 8z M324 73h162q307 0 482 140.5t237 432.5q20 105 21.5 195t-28 162.5t-86.5 124t-153.5 79t-228.5 27.5h-160z" />
<glyph unicode="E" horiz-adv-x="1061" d="M138 372q16 68 46 121t65 86t81 56.5t86 35t87 18.5q-25 5 -50 17.5t-54.5 37.5t-46.5 62t-25 91.5t8 124.5q61 300 423 300q214 0 326 -41q7 -2 11.5 -4t7.5 -4.5t4.5 -4t1.5 -6t-0.5 -6t-2 -9t-2.5 -11.5l-50 -236q-5 -17 -8.5 -20t-17.5 -3h-24q-11 0 -13.5 3t-1.5 16 l29 223q-90 28 -257 28q-144 0 -231.5 -50t-114.5 -177q-33 -155 43 -225.5t236 -70.5h138q5 0 8.5 -1.5t5.5 -4t2.5 -5.5t0 -8t-1 -8t-2 -9.5t-2.5 -9.5q-4 -16 -9.5 -21t-16.5 -5h-137q-397 0 -460 -296q-33 -157 46.5 -228.5t279.5 -71.5q166 0 361 46q12 3 14 0t-1 -16 l-8 -39q-3 -11 -10 -15.5t-23 -9.5q-48 -16 -141.5 -28.5t-190.5 -12.5q-57 0 -104 4t-92 12.5t-79.5 23.5t-63.5 36.5t-47.5 51.5t-28.5 68t-8.5 87t14.5 108z" />
<glyph unicode="F" horiz-adv-x="1033" d="M54 37q0 1 1 3q2 9 3.5 13t5.5 7t12 3q111 0 137.5 9t37.5 56l220 1034q3 15 4.5 23t1 18t-3 14t-10 9.5t-17.5 7t-28 3.5t-38.5 2.5t-51.5 0.5q-6 0 -9.5 2.5t-4 7.5t0 9t2.5 11.5t3 10.5q3 14 7 18t17 4h786q8 0 11 -0.5t6.5 -2t2.5 -6t-1 -11.5l-62 -285 q-2 -11 -7.5 -16t-18.5 -5h-20q-14 0 -19.5 5.5t-3.5 15.5l36 216q1 14 -3 18t-16 4l-469 -2l-112 -527h358q16 0 21.5 -4t2.5 -18l-6 -22q-1 -6 -2 -9.5t-2.5 -7.5t-3.5 -6l-4 -4t-5 -3t-7 -1.5t-9 -0.5h-358l-108 -503q-7 -41 14 -52q23 -13 146 -13h36q8 0 13 -1 t7.5 -2.5t3 -5t-0.5 -6.5t-2 -10t-2 -12q-2 -10 -3 -13t-3.5 -7t-7.5 -5t-14 -1h-449q-20 0 -21 11t6 26z" />
<glyph unicode="G" horiz-adv-x="1333" d="M201 655q71 326 262.5 496.5t480.5 170.5q121 0 228.5 -21t160.5 -50q21 -11 24.5 -23.5t-3.5 -41.5l-53 -244q-3 -13 -8 -16.5t-18 -3.5h-24q-7 0 -9.5 0.5t-4.5 4t-1 11.5l36 252q-124 61 -324 61q-263 0 -431.5 -158.5t-231.5 -459.5q-62 -291 41 -435t391 -144 q187 0 326 45l87 413h-281q-19 0 -22 13.5t3 31.5q6 28 34 28h333q28 0 22 -28l-100 -471q-2 -14 -5 -21t-13 -16.5t-27 -16.5q-47 -20 -151 -35.5t-214 -15.5q-651 0 -508 674z" />
<glyph unicode="H" horiz-adv-x="1349" d="M52 37q3 11 4 15t5.5 7.5t12.5 3.5h54t39.5 2t30.5 3t20 7.5t15.5 11t9 18t8 23.5t6.5 32l208 983q4 20 5.5 26t3 20t1.5 17t-3.5 12t-6.5 9.5t-13 5.5t-18 4.5t-26 1t-32.5 1.5h-42.5q-20 0 -22.5 9.5t4.5 27.5q5 16 9.5 21t18.5 5h396q18 0 19 -11t-6 -26 q-3 -11 -4 -15t-5.5 -7.5t-12.5 -3.5h-44.5t-34.5 -1t-28.5 -1.5t-21 -4t-17 -5.5t-11.5 -9t-9.5 -11.5t-6 -16t-6 -20.5t-5.5 -26l-116 -544h601l116 542q4 20 5.5 26t3 20t1.5 17t-3.5 12t-6.5 9.5t-13 5.5t-18 4.5t-26 1t-32.5 1.5h-42.5q-21 0 -24.5 9.5t3.5 27.5 q5 16 9.5 21t20.5 5h395q9 0 13.5 -1.5t5.5 -6t1 -7t-2 -11t-3 -11.5q-2 -11 -4 -15t-7 -7.5t-14 -3.5q-111 0 -137.5 -9t-37.5 -56l-216 -1009q-21 -103 54 -103q31 0 56.5 17.5t33.5 57.5q3 13 17 13h48q12 0 7 -21q-30 -137 -167 -137q-164 0 -127 180l77 358h-602 l-78 -371q-5 -23 -7 -32t-2 -23t1 -18t9.5 -11t16 -8t27.5 -3t37.5 -2h51.5q21 0 22.5 -9t-5.5 -28q-3 -16 -7.5 -21t-20.5 -5h-395q-18 0 -19 11t6 26z" />
<glyph unicode="I" horiz-adv-x="668" d="M54 37q3 11 4 15t5.5 7.5t12.5 3.5h54t39.5 2t30.5 3t20 7.5t15.5 11t9 18t8 23.5t6.5 32l208 983q4 20 5.5 26t3 20t1.5 17t-3.5 12t-6.5 9.5t-13 5.5t-18 4.5t-26 1t-32.5 1.5h-42.5q-20 0 -22.5 9.5t4.5 27.5q3 10 4 13t4 7t7 5t12 1h397q18 0 19 -11t-6 -26 q-3 -11 -4 -15t-5.5 -7.5t-12.5 -3.5h-69.5t-45 -4t-32 -7.5t-17 -17.5t-13 -26.5t-8.5 -41.5l-212 -998q-13 -59 7.5 -70.5t130.5 -11.5q21 0 22.5 -9t-5.5 -28q-3 -16 -7.5 -21t-20.5 -5h-395q-18 0 -19 11t6 26z" />
<glyph unicode="J" horiz-adv-x="647" d="M-63 -268q-2 16 3.5 24.5t24.5 14.5l65 24q51 19 79.5 33.5t53 40t38.5 62t26 95.5l238 1117q5 23 7 32t2 23t-1 18t-9.5 11t-16 8t-27.5 3t-37.5 2h-51.5q-20 0 -22.5 9.5t4.5 27.5q5 16 9.5 21t18.5 5h396q18 0 19 -11t-6 -26q-3 -11 -4 -15t-5.5 -7.5t-12.5 -3.5 h-44.5t-34.5 -1t-28 -1.5t-20.5 -4t-17 -5.5t-11.5 -9.5t-9 -11.5t-5.5 -16.5t-6 -21t-5.5 -26.5l-244 -1150q-16 -75 -40.5 -119.5t-75.5 -81t-141 -66.5l-75 -26q-5 -2 -9 -2.5t-7.5 0t-5.5 0.5t-3.5 2.5t-2.5 3.5t-2 6t-1 6.5t-1 7.5t-1 8z" />
<glyph unicode="K" horiz-adv-x="1290" d="M52 37q0 1 1 3q1 7 2 10t3.5 7t6 5t9.5 1q122 0 145 12t38 85l208 983q0 2 1 5q6 27 8 38t-1 25t-8.5 17t-26 7.5t-40.5 4.5h-65q-20 0 -22.5 9.5t4.5 27.5q5 16 9.5 21t18.5 5h396q18 0 19 -11t-6 -26q0 -1 -1 -3q-1 -7 -2 -10t-3.5 -7t-6 -5t-9.5 -1q-122 0 -145.5 -12 t-38.5 -83l-101 -478l559 469h-2l48 41q46 40 49 48q4 8 -11 11q-19 4 -105 4q-26 0 -30 8t4 29q6 20 11 23q8 3 24 3h373q24 0 26 -10t-6 -27q-3 -16 -7.5 -21t-20.5 -5q-86 0 -111 -4.5t-51 -25.5q-4 -3 -93 -78h-2l-566 -469h2l360 -501q43 -62 79.5 -86t82.5 -24 q47 0 96 17q17 6 23 3t3 -18l-5 -22q-3 -14 -10 -20.5t-26 -13.5q-46 -17 -87 -17q-77 0 -120 24t-103 109l-386 543l-106 -497q-5 -23 -7 -32t-2 -23t1 -18t9.5 -11t16 -8t27.5 -3t37.5 -2h51.5q21 0 22.5 -9t-5.5 -28q-3 -16 -7.5 -21t-20.5 -5h-395q-18 0 -19 11t6 26z " />
<glyph unicode="L" horiz-adv-x="1076" d="M58 37q3 16 6.5 21t15.5 5q56 0 82 1t46.5 6.5t27.5 15t12 28.5l212 999l5 30q4 20 5.5 26t3 20t1.5 17t-3.5 12t-6.5 9.5t-13 5.5t-18 4.5t-26 1t-32.5 1.5h-42.5q-20 0 -22.5 9.5t4.5 27.5q5 16 9.5 21t18.5 5h396q18 0 19 -11t-6 -26q-3 -11 -4 -15t-5.5 -7.5 t-12.5 -3.5q-110 0 -137 -9t-38 -56l-235 -1099l523 -2q17 0 22 4.5t8 20.5l54 197q4 19 11.5 24.5t24.5 5.5h9q17 0 19.5 -6t-2.5 -30l-58 -270q-3 -14 -8.5 -17t-19.5 -3h-832q-6 0 -10 1t-5.5 3t-2.5 4t-0.5 6.5t1 6.5l2 8t2.5 8z" />
<glyph unicode="M" horiz-adv-x="1686" d="M65 37q3 16 9.5 21t26.5 5h45.5t34.5 2t26 3t17.5 7t12.5 10t8 16t7 20t6 27q1 3 1 5l212 1009q4 20 5 28.5t2.5 20t-5.5 14.5t-13 8t-25.5 5.5t-37.5 1t-54 0.5q-17 0 -17.5 13.5t5.5 27.5q3 14 8 18t20 4h166q41 0 50.5 -12t10.5 -48v-3.5v-3v-3.5q7 -136 90 -562 t132 -585h4q133 197 329.5 547.5t316.5 599.5q4 8 10 21.5t8.5 18.5t9 12.5t13.5 10t19 5t29 2.5h198q24 0 26 -10t-6 -27q-3 -16 -8.5 -21t-21.5 -5h-61.5t-41 -3.5t-28 -6.5t-15 -14.5t-11 -21t-7.5 -32.5l-212 -996q-21 -103 52 -103q31 0 57 17.5t34 57.5q3 13 17 13h49 q12 0 7 -21q-30 -137 -167 -137q-74 0 -110.5 42.5t-16.5 137.5l205 957q-99 -225 -323 -610t-314 -500q-16 -20 -50 -20h-11q-12 0 -18 1t-11.5 5.5t-8.5 13.5q-47 138 -117.5 471.5t-101.5 582.5l-196 -925q-14 -62 2.5 -74t113.5 -12q26 0 29 -8.5t-5 -28.5 q-3 -16 -8.5 -21t-23.5 -5h-357q-25 0 -27 10t6 27z" />
<glyph unicode="N" horiz-adv-x="1424" d="M54 37q3 15 8.5 20.5t19.5 5.5h51.5t38.5 2.5t29 3t19.5 7.5t14 10.5t9 16.5t7 21t6.5 29l218 1022q10 45 -13 55t-136 10q-6 0 -9.5 2.5t-4 7.5t0 9t2.5 11.5t3 10.5q3 14 7.5 18t17.5 4h201q23 0 33.5 -8t16.5 -25l423 -1181l227 1073q4 17 5 26.5t0 19t-7.5 14 t-15.5 9t-28 6t-41.5 2.5t-58.5 1q-5 0 -8.5 1.5t-5 4t-2 5t0.5 7t1.5 8t2 8.5t2.5 7q3 14 7.5 18t18.5 4h395q18 0 20.5 -8.5t-3.5 -24.5q-3 -19 -8.5 -24.5t-25.5 -5.5q-48 0 -71.5 -1.5t-44 -4.5t-28.5 -13.5t-13.5 -22.5t-11.5 -38l-239 -1117q-3 -13 -5.5 -20.5 t-10.5 -15t-21 -7.5h-39q-42 0 -52 24l-408 1132l-212 -1001q-5 -25 -7 -36.5t1 -24.5t9.5 -17t25 -8.5t41.5 -4.5t64 -1q22 0 24 -9t-5 -28q-3 -16 -7.5 -21t-20.5 -5h-395q-18 0 -19 11t6 26z" />
<glyph unicode="O" horiz-adv-x="1426" d="M201 670q31 142 92 260t148.5 206t206 137t257.5 49q120 0 212 -33.5t150 -94.5t90.5 -147t32 -190t-24.5 -224q-32 -147 -92.5 -265.5t-148.5 -205.5t-207 -134t-260 -47q-119 0 -210.5 33.5t-148.5 94.5t-89 146.5t-31.5 190t23.5 224.5zM285 655q-59 -279 39.5 -439 t330.5 -160q234 0 400.5 160t225.5 439q60 278 -38.5 435t-333.5 157q-232 0 -398 -157t-226 -435z" />
<glyph unicode="P" horiz-adv-x="1051" d="M54 37q0 1 1 3q2 9 3.5 13t5.5 7t12 3q122 0 145 12t38 85l212 1002q3 15 4.5 23t1 18t-3 14t-10 9.5t-17.5 7t-28 3.5t-38.5 2.5t-51.5 0.5q-6 0 -9.5 2.5t-4 7.5t0 9t2.5 11.5t3 10.5q3 14 7 18t17 4h354q79 0 142 -12.5t106 -34t72.5 -54t44.5 -69t20.5 -81.5t2 -90 t-14.5 -96q-35 -171 -175 -267t-349 -96q-77 0 -134 11l-74 -354v-1q-15 -71 2 -83.5t132 -12.5q21 0 22.5 -9t-5.5 -28q-3 -16 -7.5 -21t-18.5 -5h-395q-20 0 -21 11t6 26zM428 586q11 -6 54.5 -9.5t79.5 -3.5q173 0 284 81.5t141 222.5q75 357 -266 357h-155z" />
<glyph unicode="Q" horiz-adv-x="1428" d="M201 670q31 142 92 260t148.5 206t206 137t257.5 49q120 0 212 -33.5t150 -94.5t90.5 -147t32 -190t-24.5 -224q-53 -240 -180 -403.5t-319 -220.5l5 -54q14 -88 55 -125t122 -37q37 0 75 8q9 3 13.5 0.5t1.5 -15.5l-8 -32q-3 -14 -13 -18q-4 -1 -9 -2q-35 -6 -97 -6 q-56 0 -97 18t-65.5 52t-38 70.5t-21.5 84.5l-3 40q-70 -12 -129 -12q-119 0 -210.5 33.5t-148.5 94.5t-89 146.5t-31.5 190t23.5 224.5zM285 655q-46 -220 5 -367t190 -202q-6 27 2 57q12 56 54.5 92.5t115.5 36.5q88 0 137.5 -39t65.5 -144q158 57 269.5 204t156.5 362 q60 278 -38.5 435t-333.5 157q-232 0 -398 -157t-226 -435zM553 130q-11 -56 50 -72q17 -2 52 -2q59 0 120 11v13q-6 42 -18.5 68t-32.5 36.5t-36.5 13.5t-43.5 3q-35 0 -59.5 -20t-31.5 -51z" />
<glyph unicode="R" horiz-adv-x="1152" d="M50 37q3 11 4 15t6 7.5t14 3.5q111 0 137.5 9t37.5 56l226 1056q3 25 -7 36t-40.5 15.5t-101.5 4.5q-5 0 -8.5 1.5t-5 4t-2 5t0.5 7t1.5 8t2 8.5t2.5 7q3 14 7.5 18t18.5 4h398q212 0 297 -118t42 -319q-30 -142 -125.5 -239.5t-245.5 -129.5l88 -322q20 -71 41 -96 t65 -25q29 0 86 20q18 6 23 0t8 -27q4 -20 -4 -28t-35 -17q-66 -21 -113 -21q-25 0 -45 4t-34 15.5t-23 19.5t-17.5 29t-11.5 30t-9.5 36t-8.5 34l-93 337q-17 -2 -53 -2q-100 0 -165 15l-71 -339q-4 -20 -5.5 -26t-3 -20t-1.5 -17t3.5 -12t6.5 -9.5t13 -5.5t18 -4.5t26 -1 t32.5 -1.5h42.5q22 0 24 -9t-5 -28q-3 -16 -7.5 -21t-20.5 -5h-395q-9 0 -13.5 1.5t-5.5 6t-1 7t2 11t3 11.5zM424 577q95 -18 168 -18q170 0 274 84.5t138 242.5q17 87 7 151t-45.5 107t-91 64t-129.5 21h-181z" />
<glyph unicode="S" horiz-adv-x="1064" d="M80 76l52 246q3 13 9.5 17.5t22.5 4.5h18q21 0 15 -22l-35 -233q122 -35 294 -35q45 0 87 5t96 23.5t96.5 48.5t79.5 84.5t53 127.5q16 80 3 136t-63 93.5t-87.5 54t-117.5 43.5q-42 14 -63.5 22t-59 23.5t-56.5 30t-46 36t-38.5 47t-22 58.5t-9 74.5t11.5 90.5 q54 270 401 270q93 0 188 -13.5t139 -31.5q15 -7 18.5 -14.5t-1.5 -28.5l-54 -255q-1 -9 -2.5 -13.5t-6 -6.5t-5.5 -2h-10h-26q-14 0 -17 3t0 16l37 242q-139 33 -257 33q-283 0 -329 -216q-14 -68 -1 -117.5t47 -78t81.5 -51.5t101.5 -37.5t107.5 -36t100 -47.5t78 -71.5 t41.5 -108t-9 -157.5q-15 -73 -46 -131t-72.5 -94.5t-86.5 -62t-97.5 -38.5t-95.5 -18t-88 -5q-96 0 -212.5 15.5t-150.5 31.5q-13 6 -15.5 17.5t2.5 30.5z" />
<glyph unicode="T" horiz-adv-x="1104" d="M236 976l66 307q3 14 7.5 17t18.5 3h864q9 0 11.5 -0.5t6 -2t2 -6t-1.5 -11.5l-65 -307q-1 -6 -2.5 -9t-7 -5.5t-14.5 -2.5h-21q-15 0 -17.5 4t-0.5 13l35 234q2 14 -1.5 18.5t-17.5 4.5h-312l-227 -1073v-1q-6 -29 -8.5 -40.5t0.5 -26t8.5 -17.5t26 -7.5t40.5 -4.5h65 q22 0 23.5 -9t-5.5 -28q-2 -11 -4 -16t-7.5 -7.5t-16.5 -2.5h-394q-20 0 -21 11t6 26q3 11 4 15t6 7.5t14 3.5q110 0 137.5 9t39.5 56l234 1105h-316q-14 0 -18.5 -4.5t-9.5 -18.5l-61 -234q-6 -14 -15 -16q-4 -1 -11 -1h-23q-21 0 -17 17z" />
<glyph unicode="U" horiz-adv-x="1411" d="M292 1277q5 16 9.5 21t20.5 5h395q19 0 20 -10.5t-5 -26.5q-2 -11 -4 -16t-7 -7.5t-14 -2.5q-46 0 -71.5 -1t-46.5 -4t-31 -10.5t-16 -17.5t-10 -27l-156 -737q-40 -188 31 -287.5t246 -99.5q173 0 282 98.5t150 288.5l157 736q7 43 -15.5 52t-124.5 9q-21 0 -24 9.5 t4 27.5q0 1 1 4q2 8 3.5 11t4.5 6t8 4t13 1h394q20 0 21 -11t-6 -26q-3 -13 -7 -19t-6.5 -6.5t-10.5 -0.5q-105 0 -135 -10t-40 -50l-157 -737q-47 -221 -175 -341.5t-338 -120.5q-223 0 -313.5 122t-44.5 340l160 754q1 29 -24.5 36t-116.5 7q-21 0 -24.5 9.5t3.5 27.5z " />
<glyph unicode="V" horiz-adv-x="1305" d="M244 1259l5 26q5 18 23 18h368q18 0 12 -16l-6 -27q-3 -20 -22 -20q-54 0 -80 -0.5t-41 -3.5t-17 -6t-4 -12q-30 -142 -37 -282t2.5 -244.5t38 -224.5t52.5 -191t63 -174q61 75 97.5 121t98 128.5t101.5 145.5t92 154.5t88 174.5t71 185.5t57 206.5q3 13 -7 16 q-16 6 -128 6q-18 0 -15 20l5 27q6 16 19 16h368q10 0 14 -3.5t1 -14.5l-5 -26q0 -1 -1 -2q-3 -14 -11 -16q-4 -1 -11 -1q-72 0 -103 -2.5t-37.5 -6t-7.5 -13.5q-23 -109 -59 -215t-71 -189.5t-90 -179.5t-93 -156t-104.5 -149.5t-99 -130t-101.5 -126.5q-28 -35 -42 -52 q-15 -20 -42 -20t-34 20q-7 19 -22 57q-31 81 -47.5 125.5t-44 130.5t-40.5 148.5t-26.5 156t-13.5 177.5t10 189.5t33 213.5q1 7 -1.5 10.5t-16 6.5t-42 4t-81.5 1q-14 0 -16.5 4t1.5 15z" />
<glyph unicode="W" horiz-adv-x="1839" d="M248 1257l5 26q3 13 6.5 16.5t14.5 3.5h387q11 0 6 -20l-6 -23q-2 -12 -5 -16t-14 -4q-57 0 -82.5 -0.5t-42.5 -4t-19.5 -7.5t-5.5 -14q-31 -145 -42.5 -286t-9.5 -244.5t20 -223t33.5 -187t42.5 -171.5q56 80 82 118t81 123t86.5 141t79 146.5t78.5 168.5t64 177t56 199 l8 39q4 17 -21 22q-22 4 -123 4q-12 0 -9 15l5 30q5 18 19 18h378q9 0 11 -3t0 -17l-5 -24q-3 -13 -5.5 -16t-11.5 -3q-97 0 -127 -5.5t-33 -20.5l-10 -32q-36 -173 -46.5 -333.5t4.5 -297t37.5 -238t57.5 -212.5q58 84 84 121.5t83 126t88.5 146t80 152t79.5 175t64 184 t55 208.5q4 17 -6 21q-13 5 -136 5q-18 0 -13 19l6 22q3 14 6.5 18t10.5 4h381q7 0 11 -1t7 -5.5t1 -13.5l-6 -24q-3 -12 -7.5 -15.5t-16.5 -3.5q-61 0 -88.5 -0.5t-45 -4t-20.5 -7.5t-6 -14q-22 -103 -52 -203t-59.5 -179t-73 -167t-75 -146t-83.5 -139.5t-80.5 -123.5 t-84 -122t-77.5 -112q-14 -22 -33 -22h-15q-25 0 -30 22q-4 14 -28.5 107t-31.5 123.5t-24.5 116t-23.5 140t-11 137t-2 162.5q-39 -94 -82.5 -182t-98.5 -179t-87.5 -143t-100.5 -153t-87 -129q-14 -22 -35 -22h-17q-27 0 -32 22q-8 31 -29 112t-31 122t-26.5 123.5 t-23 139.5t-12 146t-1 167.5t16.5 178.5t34 203q4 16 -11 20q-19 6 -136 6q-12 0 -14 3t1 14z" />
<glyph unicode="X" horiz-adv-x="1269" d="M-19 37q0 1 1 4q1 8 2 11t3 6t5.5 4t9.5 1q69 0 102.5 6.5t53 20.5t51.5 51l452 548l-190 504q-8 24 -16 31.5t-37 11.5t-101 4q-4 0 -7 1t-4.5 3t-2.5 5t-0.5 5.5t1 6.5t1.5 7t2 7t2 6q3 15 6.5 18.5t17.5 3.5h378q19 0 21.5 -8.5t-4.5 -24.5q-3 -19 -8.5 -24.5 t-25.5 -5.5q-36 0 -59 -1t-39 -4t-23 -7t-9 -12.5t0 -16.5t8 -24l152 -410l319 384q45 59 48 69q2 8 -3 12t-20.5 6.5t-35 3t-56.5 0.5q-20 0 -23 9.5t4 27.5q3 9 4.5 12.5t4.5 7.5t8 5t13 1h376q15 0 17.5 -4t-0.5 -18l-6 -21q-3 -14 -5.5 -17t-14.5 -3q-80 0 -124.5 -16.5 t-77.5 -56.5l-398 -478l205 -542q36 -91 97 -91q21 0 55 6.5t41 6.5q4 0 5.5 -0.5t4 -1.5t3.5 -4.5t0 -8.5l-5 -22q-3 -10 -3.5 -12.5t-3 -8t-5.5 -7.5t-8 -4.5t-14 -5.5q-45 -13 -87 -13q-66 0 -99 29.5t-52 86.5l-197 516l-380 -458q-39 -50 -42 -62q-4 -17 23.5 -23.5 t104.5 -6.5q22 0 23.5 -9t-5.5 -28q-3 -16 -7.5 -21t-20.5 -5h-393q-17 0 -18 11t5 26z" />
<glyph unicode="Y" horiz-adv-x="1228" d="M244 1259l5 26q5 18 23 18h368q18 0 12 -16l-6 -27q-3 -20 -22 -20q-82 0 -110.5 -4t-31.5 -18q-15 -69 -16.5 -134t10 -123t28.5 -107.5t45.5 -100t54.5 -88.5t61 -84q89 74 148.5 130t131 138.5t118.5 174.5t69 194q2 7 -3.5 11.5t-22.5 7t-41 3t-67 0.5q-18 0 -15 20 l6 27q6 16 18 16h369q18 0 13 -18l-6 -26q0 -2 -1 -4q-3 -13 -10 -14l-9 -1q-82 0 -115 -4.5t-34 -17.5q-17 -77 -46.5 -150t-74 -139t-86 -119t-103.5 -113.5t-103 -97.5t-108 -94q-2 -2 -2 -4l-67 -311h2l-6 -30q-5 -23 -7 -31.5t-2 -23t1 -18t9.5 -11t16 -8t27.5 -3 t37 -2.5h52q21 0 22.5 -9t-5.5 -28q-3 -16 -7.5 -21t-20.5 -5h-395q-9 0 -13.5 1.5t-5.5 6t-1 7t2 11t3 11.5q3 11 4 15t6 7.5t14 3.5h54t39.5 2t30.5 3t20 7.5t15.5 11t9 18t8 23.5t6.5 32l73 346q-37 50 -57.5 79.5t-53 83t-50.5 93t-37.5 97.5t-26 110t-4.5 117t16 132 q1 6 -5.5 10.5t-23.5 7t-43.5 3.5t-68.5 1q-14 0 -16.5 4t1.5 15z" />
<glyph unicode="Z" horiz-adv-x="1033" d="M56 19l4 22q6 19 14 32l918 1163h-562q-11 0 -17 -5t-9 -13t-7 -25l-53 -201q-4 -16 -26 -16h-18q-11 0 -15.5 4t-3.5 14l62 289q3 14 6.5 17t15.5 3h711q13 0 15 -6.5t-2 -21.5l-4 -22q-10 -30 -24 -47l-897 -1139h596q22 0 28 24l55 212q4 15 10 19t20 4h21 q11 0 13.5 -4.5t-0.5 -19.5l-60 -280q-3 -14 -7.5 -18t-14.5 -4h-760q-13 0 -9 19z" />
<glyph unicode="[" horiz-adv-x="565" d="M67 -281l343 1605q1 9 2 12.5t4 5.5t8 2h256q5 0 6.5 -1t0.5 -6l-13 -65q-2 -8 -13 -8h-184l-315 -1474h182q6 0 8.5 -0.5t4 -3t-0.5 -6.5l-13 -63q-2 -7 -12 -7h-258q-6 0 -6 9z" />
<glyph unicode="\" horiz-adv-x="806" d="M274 1322h85l311 -1354h-87z" />
<glyph unicode="]" horiz-adv-x="565" d="M-34 -283l15 65q0 8 10 8h184l315 1474h-183q-6 0 -8 0.5t-3.5 2.5t0.5 6l13 64q2 7 11 7h259q9 0 6 -9l-341 -1605q-5 -20 -15 -20h-255q-5 0 -7 1t-1 6z" />
<glyph unicode="^" horiz-adv-x="1251" d="M227 801l609 506l393 -506l-62 -45l-350 463l-547 -463z" />
<glyph unicode="_" horiz-adv-x="1130" d="M67 -80l19 80h824l-18 -80h-825z" />
<glyph unicode="`" horiz-adv-x="633" d="M478 1592q-6 11 -2 17.5t17 6.5h49q6 0 9.5 -0.5t6 -1t5.5 -3t4 -3.5t4.5 -5.5t5.5 -6.5l147 -216q8 -10 5.5 -15.5t-14.5 -5.5h-37q-19 0 -36 26z" />
<glyph unicode="a" horiz-adv-x="1122" d="M138 454q42 193 157 311.5t299 118.5q209 0 272 -150l22 98q3 19 12 26.5t27 7.5h207q8 0 12.5 -2t7 -4t2 -7.5t-1 -8.5t-2.5 -10.5t-3 -10.5l-2.5 -12.5t-3 -6.5t-6.5 -4.5t-11 -0.5h-117q-22 0 -39 -16t-22 -44l-112 -523q-16 -63 -10 -97t19.5 -45t37.5 -11 q48 0 59 43q5 29 10 32q4 2 18 2h26q16 0 20 -4t-1 -22q-14 -68 -48.5 -94.5t-89.5 -26.5q-69 0 -106 40t-24 129q-100 -171 -315 -171q-81 0 -141 23t-97 64t-55.5 99t-18 127.5t17.5 149.5zM218 438q-12 -59 -13.5 -112t11.5 -101.5t39 -84t71.5 -56.5t107.5 -21 q141 0 237 101.5t133 274.5q35 169 -16.5 271t-193.5 102q-150 0 -245.5 -106t-130.5 -268z" />
<glyph unicode="b" horiz-adv-x="1072" d="M-17 37q2 14 6.5 20t16.5 6h68.5t45 4.5t30.5 8t17 17.5t12.5 26.5t8.5 40.5l216 1019q8 42 4 48.5t-37 8.5h-103q-5 0 -8.5 1t-4.5 4t-2 5.5t0 6.5t1.5 7t2 8t2.5 7q5 17 10.5 22.5t19.5 5.5h191q30 0 25 -30l-127 -597q63 101 155.5 154.5t192.5 53.5q89 0 150.5 -36 t91 -99t35.5 -148.5t-16 -185.5q-42 -194 -153.5 -311t-293.5 -117q-105 0 -181.5 44.5t-88.5 134.5l-26 -123q-5 -18 -7 -24.5t-11 -12.5t-25 -6h-205q-8 0 -12.5 1.5t-5 6t-0.5 7.5t2 11t3 11zM330 406q-34 -160 17.5 -256t194.5 -96q147 0 235 101.5t126 276.5 q19 80 17 149t-22 120.5t-68.5 81t-122.5 29.5q-143 0 -240.5 -110.5t-136.5 -295.5z" />
<glyph unicode="c" horiz-adv-x="889" d="M134 477q43 201 165 304t312 103q74 0 141 -12.5t101 -29.5q14 -7 17 -16t-2 -33l-49 -231q-3 -11 -7 -14.5t-15 -3.5h-34q-17 0 -15 16l40 224q-75 30 -177 30q-320 0 -395 -358q-17 -79 -18.5 -141t12 -105t37 -72.5t62 -46t82.5 -23.5t102 -7q59 0 99 7t123 29 q14 4 18 -2.5t1 -23.5l-6 -21q-3 -13 -8.5 -18t-21.5 -10q-85 -31 -205 -31q-70 0 -125.5 9.5t-105 30.5t-81.5 58t-50.5 90t-18 128t21.5 170z" />
<glyph unicode="d" horiz-adv-x="1087" d="M132 452q41 194 154.5 313t288.5 119q75 0 134 -17.5t101 -62t46 -111.5l103 486q8 42 3.5 48.5t-37.5 8.5h-102q-5 0 -8.5 1t-4.5 4t-2 5.5t0 6.5t1.5 7t2 8t2.5 7q5 17 10 22.5t19 5.5h190q17 0 23 -7t3 -23l-223 -1053q-11 -49 -12 -82t7.5 -49t20 -22t29.5 -6 q50 0 57 43q5 21 11 27.5t27 6.5h11q22 0 26.5 -6t-0.5 -20q-25 -121 -153 -121q-136 0 -119 154q-105 -156 -313 -156q-97 0 -165.5 35t-102.5 97.5t-42.5 147t14.5 183.5zM214 434q-19 -74 -13.5 -141t28 -118t74 -81.5t125.5 -30.5q149 0 241.5 92t129.5 258 q42 201 -11 299t-207 98q-145 0 -237.5 -102t-129.5 -274z" />
<glyph unicode="e" d="M132 426q100 458 462 458q157 0 226.5 -75.5t41.5 -212.5q-28 -123 -122.5 -175t-246.5 -52q-153 0 -275 55q-16 -74 -18.5 -131.5t8.5 -98t31 -68.5t52.5 -44t70.5 -23t87 -7q119 0 247 49l39 14q15 5 20.5 1t2.5 -17l-6 -25q-4 -14 -5.5 -17.5t-7.5 -9t-20 -10.5 q-112 -56 -276 -56q-208 0 -283.5 110t-27.5 335zM235 499q122 -58 251 -58q255 0 290 155q23 107 -27 161.5t-157 54.5q-138 0 -225 -77.5t-132 -235.5z" />
<glyph unicode="f" horiz-adv-x="610" d="M-186 -309l5 20q5 32 30 25q66 -12 97 -12q100 0 138.5 57.5t77.5 242.5l166 775h-142q-19 0 -13 16l6 34q6 17 20 17h142l20 95q12 57 25.5 101.5t39 95.5t57 85t80.5 56.5t109 22.5q101 0 143 -19.5t32 -64.5l-35 -164q-3 -14 -6 -16t-15 -2h-33q-11 0 -13.5 3t0.5 13 l24 162q-42 17 -93 17q-87 0 -143 -61t-86 -201l-26 -123h208q12 0 14.5 -4.5t0.5 -14.5l-5 -30q-3 -18 -23 -18h-208l-157 -730q-22 -102 -40 -166.5t-42 -118.5t-54 -81.5t-70.5 -42t-96.5 -14.5q-22 0 -43 1.5t-44 6t-36 14t-11 23.5z" />
<glyph unicode="g" horiz-adv-x="1079" d="M26 -266q5 18 11.5 23.5t20.5 0.5q44 -18 70 -26.5t76.5 -18t104.5 -9.5q92 0 155.5 16t116 57.5t87.5 114.5t58 186l15 63q-106 -152 -311 -152q-97 0 -165.5 35t-102.5 97.5t-42.5 147t14.5 183.5q41 194 154.5 313t288.5 119q75 0 134 -17.5t101 -62t46 -111.5l30 139 q3 19 11 26.5t26 7.5h209q8 0 12.5 -2t7 -4t2 -7.5t-1 -8.5t-2.5 -10.5t-3 -10.5q-3 -16 -7 -20t-16 -4h-117q-45 0 -59 -52l-144 -669q-27 -131 -66.5 -217t-100.5 -138t-138.5 -73.5t-187.5 -21.5q-163 0 -272 48q-17 8 -19 21.5t4 36.5zM216 434q-19 -74 -13.5 -141 t28 -118t74 -81.5t125.5 -30.5q149 0 241.5 92t129.5 258q42 201 -11 299t-207 98q-145 0 -237.5 -102t-129.5 -274z" />
<glyph unicode="h" horiz-adv-x="1063" d="M-19 37q3 14 8 20t17 6q110 0 136.5 9t38.5 56l223 1049q7 33 -1 46t-31 13h-106q-9 0 -10.5 4t1.5 17l6 22q3 18 5.5 21t14.5 3h197q19 0 23.5 -7.5t-0.5 -25.5l-118 -557q63 87 146 129t171 42q128 0 175.5 -65t18.5 -201l-84 -396q-17 -66 -12 -101.5t18 -46.5t38 -11 q47 0 58 43q5 25 9 29.5t21 4.5h26q16 0 19.5 -4t-0.5 -22q-14 -68 -48.5 -94.5t-91.5 -26.5q-73 0 -110 46.5t-15 152.5l91 424q23 109 -5.5 152.5t-103.5 43.5q-137 0 -242 -110.5t-153 -336.5l-43 -205q-5 -23 -7 -32t-2 -23t1 -18t9.5 -11t16 -8t27 -3t36.5 -2h51 q22 0 24 -9t-5 -28q-3 -16 -7.5 -21t-20.5 -5h-393q-9 0 -14.5 1.5t-6.5 6t-1 7t2 11t3 11.5z" />
<glyph unicode="i" horiz-adv-x="547" d="M171 838q5 17 10 22.5t18 5.5h192q17 0 23 -7t3 -23l-130 -614q-17 -66 -12 -101.5t18 -46.5t38 -11q47 0 58 43q6 28 10 31q5 3 20 3h26q16 0 19.5 -4t-0.5 -22q-14 -68 -48.5 -94.5t-91.5 -26.5q-73 0 -110 46.5t-15 152.5l118 549q8 42 3 49t-39 9h-100q-5 0 -8 1 t-4.5 3.5t-2 5t0 7t1 7t2 8t1.5 7.5zM378 1132q5 26 24 42t45 16q23 0 36.5 -16t8.5 -42q-5 -25 -25.5 -41.5t-43.5 -16.5q-26 0 -38 16t-7 42z" />
<glyph unicode="j" horiz-adv-x="495" d="M-130 -207l3 10.5t4 7.5t7 5.5t10 1.5h43q8 0 9 -6.5t-1.5 -19.5t-2.5 -19q-3 -27 13.5 -42.5t57.5 -15.5q18 0 32.5 4.5t33.5 18t34.5 46t26.5 82.5l186 875q8 42 3.5 49t-37.5 9h-102q-4 0 -6.5 0.5t-4 2.5t-2.5 3.5t-1.5 4.5t0 5t1 5.5t1 6t2 6t1.5 5.5q5 17 10 22.5 t19 5.5h190q17 0 23 -7t3 -23l-204 -963q-27 -123 -79 -175t-132 -52q-50 0 -83.5 13.5t-45.5 35t-16 47.5t4 51zM382 1132q3 17 13 30.5t24 20.5t30 7q23 0 36 -16t8 -41.5t-25.5 -42t-43.5 -16.5q-24 0 -35.5 16t-6.5 42z" />
<glyph unicode="k" horiz-adv-x="960" d="M-19 37q3 14 8 20t17 6h68.5t45 4.5t30.5 8t17 17.5t12.5 26.5t8.5 40.5l216 1017q7 33 -1 46t-31 13h-100q-14 1 -16.5 5.5t1.5 17.5l6 20q3 16 8 20t18 4h191q19 0 23.5 -7.5t-0.5 -25.5l-170 -801l391 298q29 21 24 26q-6 6 -113 6q-7 0 -12 1.5t-7 3t-2.5 6.5t0 8 t2 10.5t2.5 11.5q5 16 9.5 21t18.5 5h354q15 0 17.5 -4.5t-0.5 -18.5l-6 -26q-3 -11 -7 -14.5t-14 -3.5q-89 0 -115 -7.5t-84 -52.5l-368 -277l214 -332q3 -5 14 -23t15 -23t13 -15.5t18 -13.5t20 -3q70 0 84 65q4 19 11 24.5t22 5.5h8q22 0 25 -3.5t-1 -29.5 q-26 -133 -164 -133q-21 0 -39.5 6t-29.5 11t-25 21t-18 21.5t-17 27t-14 23.5l-228 367l-63 -298q-5 -23 -7 -32t-2 -23t1 -18t9.5 -11t16 -8t27 -3t36.5 -2h51q22 0 24 -9t-5 -28q-3 -16 -7.5 -21t-20.5 -5h-393q-9 0 -14.5 1.5t-6.5 6t-1 7t2 11t3 11.5z" />
<glyph unicode="l" horiz-adv-x="493" d="M158 192l216 1011q8 37 3.5 43.5t-36.5 6.5h-103q-14 0 -16 3.5t1 16.5l6 25q3 15 8.5 19.5t17.5 4.5h196q27 0 24 -24l-229 -1076q-17 -66 -12 -101.5t18 -46.5t38 -11q47 0 58 43q6 28 10 31q5 3 20 3h26q16 0 19.5 -4t-0.5 -22q-14 -68 -48.5 -94.5t-91.5 -26.5 q-73 0 -110 46.5t-15 152.5z" />
<glyph unicode="m" horiz-adv-x="1545" d="M20 37q3 16 7 21t16 5q103 0 128.5 11t37.5 67l126 598q12 60 -32 60h-106q-10 0 -12 3.5t1 16.5l6 23q3 17 6 20.5t16 3.5h196q20 0 24.5 -7.5t1.5 -26.5l-19 -84q100 136 270 136q172 0 196 -145q109 145 294 145q129 0 175 -81.5t9 -258.5l-69 -322 q-17 -66 -11.5 -101.5t18.5 -46.5t38 -11q47 0 58 43q1 5 2.5 12t2 9t2 5.5t2.5 4l4 2t6.5 1.5h9.5h26q16 0 19.5 -4t-0.5 -22q-14 -68 -48.5 -94.5t-91.5 -26.5q-73 0 -109.5 46.5t-14.5 152.5l74 350q30 148 0.5 209t-121.5 61q-106 0 -182.5 -69t-106.5 -199l-81 -378 q-5 -24 -7 -34t-1.5 -24.5t2 -19t11 -11.5t18 -8t31.5 -3.5t42 -2.5h58q21 0 22.5 -9t-5.5 -28q-2 -10 -2.5 -13t-3.5 -7t-7.5 -5t-12.5 -1h-387q-18 0 -19 11t5 26q3 15 7.5 20.5t15.5 5.5h44t32.5 3t24.5 4t17 9t12.5 12t9 19.5t7.5 24.5t7 33l82 391q28 141 -4.5 197 t-118.5 56q-235 0 -316 -371l-62 -286q-5 -26 -7 -36.5t0 -24t8 -17.5t23 -8.5t38 -4.5t59 -1q22 0 24 -9t-5 -28q-3 -16 -7.5 -21t-20.5 -5h-368q-17 0 -18 10.5t4 26.5z" />
<glyph unicode="n" horiz-adv-x="1091" d="M13 37q3 15 7.5 20.5t14.5 5.5h39.5t32 0.5t27 1.5t21 3t17.5 4t12.5 6.5t11 9t7 12t6.5 15.5t5 19l129 605q7 33 -2 46.5t-32 13.5h-106q-9 0 -10.5 3.5t1.5 16.5l5 23q3 16 6.5 20t14.5 4h197q19 0 23 -7.5t1 -26.5l-26 -121q63 88 146.5 130.5t172.5 42.5 q127 0 173.5 -65t17.5 -201l-83 -396q-9 -40 -11 -69t1 -46t11.5 -27t18.5 -13.5t24 -3.5q47 0 58 43q3 16 4 19.5t4.5 9t7.5 5.5h14h26q16 0 19 -4t-1 -22q-14 -68 -48 -94.5t-89 -26.5q-35 0 -61.5 9.5t-47 32.5t-24.5 61.5t6 95.5l91 424q10 57 9 95t-17.5 60.5 t-40.5 31.5t-61 9q-137 0 -240.5 -110t-151.5 -337l-43 -205q0 -2 -1 -5q-6 -27 -8 -38t1 -25t8.5 -17t26 -7.5t40.5 -4.5h65q21 0 22.5 -9t-5.5 -28q-2 -11 -4 -16t-7 -7.5t-15 -2.5h-395q-20 0 -21 11t6 26z" />
<glyph unicode="o" horiz-adv-x="1001" d="M134 458q18 84 54.5 158t92.5 135.5t139 97t183 35.5q88 0 154 -25.5t102.5 -69.5t57.5 -103.5t19 -126.5t-14 -138q-18 -84 -56 -158.5t-95.5 -136.5t-140.5 -98.5t-181 -36.5q-88 0 -153.5 26t-103 70.5t-56.5 105t-18.5 126.5t16.5 139zM216 434q-18 -73 -12 -140.5 t29 -119t78 -82.5t136 -31q156 0 255.5 106.5t133.5 266.5q18 73 12.5 141.5t-29 121.5t-78 85t-134.5 32q-81 0 -149 -31.5t-115.5 -86t-79 -120.5t-47.5 -142z" />
<glyph unicode="p" horiz-adv-x="1072" d="M-93 -317q3 16 7 21.5t15 5.5h68.5t44.5 4t31 7.5t16.5 17.5t12 26.5t8.5 40.5l199 933q7 33 -1 46.5t-31 13.5h-106q-9 0 -11 3.5t0 16.5l6 23q3 17 6 20.5t16 3.5h197q19 0 24 -7.5t2 -26.5l-33 -151q58 96 147 149t181 53q95 0 161 -35.5t97 -98.5t38 -148.5 t-17 -185.5q-27 -125 -83 -220.5t-149 -154.5t-211 -59q-104 0 -183 47.5t-91 137.5l-30 -142l-5 -17l-43 -201q-6 -29 -8.5 -40.5t1.5 -26t8.5 -17.5t26 -7.5t41 -4.5h65.5q9 0 14.5 -1t7 -5t1.5 -7t-1.5 -11.5t-2.5 -13.5q-3 -16 -8 -21t-20 -5h-393q-8 0 -12.5 1.5 t-6 5.5t-1 7t2 11t2.5 12zM330 406q-34 -161 16.5 -256.5t193.5 -95.5q147 0 236 102t127 276q19 80 16.5 149t-22.5 120.5t-68.5 81t-121.5 29.5q-144 0 -241 -110t-136 -296z" />
<glyph unicode="q" horiz-adv-x="1081" d="M136 454q20 93 57.5 169.5t92.5 136t133.5 92t172.5 32.5q209 0 272 -150l22 98q3 19 12 26.5t27 7.5h207q8 0 12.5 -2t7 -4t2 -7.5t-1 -8.5t-2.5 -10.5t-3 -10.5q0 -2 -1 -5q-3 -16 -10 -18q-3 -1 -11 -1h-118q-22 0 -39 -16t-22 -44l-199 -933q-5 -22 -6.5 -31 t-1.5 -23t1.5 -18t9.5 -10.5t16 -7.5t27.5 -3.5t37.5 -2.5h52q22 0 24.5 -9.5t-4.5 -28.5q-3 -15 -9.5 -20.5t-22.5 -5.5h-394q-8 0 -12.5 1.5t-6 5.5t-1 7t2 11t2.5 12q3 15 8 21t16 6h69t45.5 4.5t31 8t16.5 18t11.5 26t8.5 39.5l77 354q-101 -169 -315 -169 q-81 0 -141 23t-97 64t-55.5 99t-18 127.5t17.5 149.5zM216 438q-12 -59 -13 -112t11.5 -101.5t38.5 -84t71.5 -56.5t107.5 -21q141 0 237 101.5t133 274.5q35 169 -16.5 271t-193.5 102q-150 0 -245.5 -106t-130.5 -268z" />
<glyph unicode="r" horiz-adv-x="835" d="M11 37q3 15 7.5 20.5t16.5 5.5h47.5t36 1t29.5 2.5t20.5 5t16 7.5t10 11.5t9.5 16t6 21.5l131 611q7 33 -1.5 46.5t-30.5 13.5h-106q-9 0 -10.5 3.5t1.5 16.5l5 23q3 17 6 20.5t15 3.5h195q20 0 24.5 -7.5t1.5 -26.5l-41 -184q131 236 343 236q66 0 99 -20 q17 -8 18.5 -18t-4.5 -36l-46 -222q-2 -10 -4.5 -13.5t-5.5 -4t-12 -0.5h-34q-17 0 -15 16l37 218q-24 10 -67 10q-265 0 -389 -550l-30 -136q-8 -47 13.5 -56t126.5 -9q22 0 24 -9t-5 -28q-3 -16 -7.5 -21t-20.5 -5h-395q-20 0 -21 11t6 26z" />
<glyph unicode="s" horiz-adv-x="834" d="M56 48l43 198q4 23 11 30t24 7h17q7 0 9.5 -1t5 -8t-1.5 -21l-28 -167q107 -26 227 -26t184.5 33t85.5 130q12 55 2 94t-36 59.5t-63 35t-79 20t-84.5 16t-79 22.5t-62.5 39t-36 66t2 103q22 111 97.5 158.5t213.5 47.5q179 0 263 -31q23 -11 17 -38l-43 -195 q-3 -13 -10 -16t-22 -3h-19q-13 0 -15.5 6t2.5 24l30 160q-99 21 -203 21q-106 0 -160 -25.5t-71 -108.5q-11 -51 5 -84.5t50 -48t79 -25.5t93 -17.5t92 -24t76 -44.5t44 -79.5t-3 -129.5q-12 -60 -36.5 -103.5t-54.5 -69t-74 -40t-86 -19t-99 -4.5q-200 0 -287 33 q-11 4 -14.5 6t-6.5 7t1 13z" />
<glyph unicode="t" horiz-adv-x="640" d="M173 814l8 29q3 15 7 19t17 4h126l75 249q6 28 28 28h15q13 0 16 -6.5t-1 -21.5l-54 -249h258q11 0 14.5 -5t0.5 -19l-7 -28q-3 -15 -6.5 -19t-16.5 -4h-258l-106 -499q-23 -96 -17 -149t28 -72t69 -19q50 0 72 19t30 52q3 15 8 19.5t16 4.5h28q13 0 16 -5.5t-1 -22.5 q-13 -67 -58.5 -102.5t-116.5 -35.5q-123 0 -157.5 76.5t3.5 234.5l106 499h-125q-14 0 -17 4.5t0 18.5z" />
<glyph unicode="u" horiz-adv-x="1070" d="M155 840q5 17 9.5 21.5t17.5 4.5h198q15 0 18.5 -7.5t-0.5 -28.5l-115 -543q-12 -55 -12.5 -95t8.5 -65.5t29 -40.5t45.5 -20.5t61.5 -5.5q68 0 122.5 18t101.5 58.5t81.5 110t55.5 168.5l71 333q9 51 -35 51h-106q-4 0 -6.5 1.5t-3.5 4.5t-1.5 5.5t0.5 7.5l1.5 7.5t2 8 t1.5 6.5q4 16 9.5 21t16.5 5h197q11 0 16.5 -3t6.5 -11t-2 -22l-129 -608q-11 -49 -12.5 -82t7 -49t20 -22t30.5 -6q49 0 60 43q1 5 2 12t1.5 9t2 5.5t2.5 4l4 2t6.5 1.5h9.5h26q15 0 17.5 -4t-1.5 -22q-14 -69 -47.5 -95t-89.5 -26q-62 0 -99 34t-33 111 q-105 -151 -306 -151q-144 0 -195.5 70t-16.5 233q72 335 99 458q9 51 -34 51h-106q-4 0 -7 1.5t-4 4t-1.5 5.5t0.5 7.5t1.5 7.5t2 8t1.5 7z" />
<glyph unicode="v" horiz-adv-x="964" d="M156 812l10 41q2 13 16 13h332q12 0 9 -13l-9 -39q-3 -12 -9 -14q-3 -1 -8 -1q-88 0 -107 -3t-23 -18q-22 -108 -25.5 -207.5t13.5 -192.5t32.5 -150.5t44.5 -143.5q50 65 83.5 110.5t81.5 120t80.5 139.5t64.5 151t51 173q4 14 -7 17q-16 4 -108 4q-9 0 -12.5 3t-2.5 10 l9 39q3 15 15 15h320q14 0 17.5 -4.5t-0.5 -12.5l-6 -34q-6 -16 -22 -16q-109 0 -120 -7q-5 -3 -8 -14q-25 -117 -67 -223.5t-101 -200.5t-104 -156t-113 -147q-20 -24 -29 -36q-10 -15 -31 -15h-15q-23 0 -28 15q-65 176 -85 257q-60 244 -5 506q4 14 -4 17q-13 4 -117 4 q-10 0 -12.5 2.5t-0.5 10.5z" />
<glyph unicode="w" horiz-adv-x="1524" d="M153 814l9 39q2 13 19 13h368q13 0 10 -13l-10 -39q-3 -15 -17 -15q-114 0 -130 -5q-12 -6 -13 -14q-22 -107 -25 -206.5t14.5 -191.5t34.5 -151t47 -142q62 79 103.5 137.5t96 147t94 184.5t63.5 198l6 24q0 14 -16 16.5t-83 2.5h-35q-7 0 -11.5 4t-3.5 9l9 41 q3 13 15 13h360q8 0 11.5 -2.5t2.5 -10.5l-9 -41q-3 -13 -17 -13q-57 0 -86 -0.5t-43.5 -3.5t-16.5 -5.5t-3 -9.5l-9 -28q-15 -82 -17.5 -163t4 -145.5t23 -132.5t33.5 -117t41 -106q65 84 107.5 142.5t99.5 151t97 192t63 206.5v9q-3 7 -26 8.5t-107 1.5q-16 0 -13 13 l10 41q3 13 13 13h354q17 0 14 -15l-9 -37q-3 -15 -20 -15q-127 0 -137 -8q-4 -2 -5 -11q-26 -117 -71 -225.5t-107 -206t-109.5 -161.5t-115.5 -150q-4 -5 -6.5 -7.5t-5.5 -7t-6 -7.5q-10 -15 -24 -15h-32q-19 0 -24 15q-1 4 -17 47.5t-19.5 54t-17 51.5t-18 60.5t-14 58.5 t-13.5 67t-8.5 65t-5.5 73q-44 -91 -110 -191.5t-98.5 -142.5t-112.5 -143q-10 -15 -26 -15h-31q-18 0 -23 15q-67 182 -88 276q-56 242 -3 489q3 12 -15 16q-18 3 -124 3q-18 0 -15 15z" />
<glyph unicode="x" horiz-adv-x="994" d="M-2 22q1 3 2.5 10t2.5 9t2.5 6.5t3.5 6t5 4t7.5 3t10.5 0.5q79 0 100.5 7t55.5 46l290 329l-152 317q-13 28 -39.5 34.5t-87.5 6.5q-3 0 -5.5 1t-4 2.5t-2.5 3.5t-1 5t0.5 5.5t1 6.5t1 6t2 6t1.5 6q3 14 7 18.5t15 4.5h313q14 0 17 -5.5t-2 -20.5v-2l-4 -16t-4.5 -10.5 t-8.5 -8t-13 -1.5q-92 0 -103 -10q-8 -10 4 -38l119 -251l224 253q27 31 20 38q-7 8 -98 8q-14 0 -16 9t3 27v2q3 10 4 13t3.5 7t6.5 5t10 1h320q19 0 20 -11.5t-5 -27.5q-3 -15 -8 -20.5t-16 -5.5q-42 0 -62.5 -1.5t-45 -11t-41.5 -28.5l-287 -324l158 -326 q16 -36 35.5 -43t91.5 -7q15 0 19 -3.5t1 -19.5q-1 -3 -2 -11.5t-2 -11t-3.5 -7t-7 -6t-11.5 -1.5h-305q-15 0 -17 9t4 23q5 19 8.5 23.5t19.5 4.5q97 -2 102 12q2 6 -3 17l-142 287l-251 -287q-17 -17 -9 -22q13 -7 121 -7q6 0 9.5 -1t5.5 -2t2 -5t-0.5 -6.5t-1.5 -9 t-2 -10.5q-2 -10 -2.5 -13t-3 -7t-6.5 -5t-11 -1h-348q-14 0 -16 4t1 18z" />
<glyph unicode="y" horiz-adv-x="1007" d="M17 -356l5 30q3 9 7 12.5t18 4.5q18 2 43.5 4t35 3t25 3t21.5 4.5t14.5 6.5t14 9.5t11.5 14.5q116 162 186 268q-4 2 -7 11q-13 36 -29 92.5t-34.5 143t-29 173t-12.5 182.5t16 172q4 14 -12 17q-16 4 -109 4q-10 0 -12.5 2.5t-0.5 10.5l9 41q2 13 17 13h331q12 0 9 -13 l-9 -39q-3 -12 -9 -14q-3 -1 -8 -1q-60 0 -86.5 -2.5t-30.5 -6t-7 -12.5q-15 -92 -13.5 -187.5t18 -205t32.5 -183t30 -120.5q186 289 387 685q11 20 3 25q-14 7 -111 7q-11 0 -13 3t0 12l9 39q3 13 15 13h330q11 0 13 -3t0 -12l-10 -39q-3 -13 -15 -13q-48 0 -70 -1 t-37.5 -6.5t-20.5 -12t-13 -23.5q-261 -533 -650 -1069q-22 -27 -47 -41t-40 -16t-40 -2h-107q-16 0 -17.5 1.5t0.5 14.5z" />
<glyph unicode="z" horiz-adv-x="865" d="M47 28l3 22q3 14 13 24l680 725h-412q-21 0 -29 -5.5t-13 -22.5l-34 -151q-4 -19 -26 -19h-24q-8 0 -12 0.5t-6.5 4.5t-0.5 12l47 220q6 28 28 28h569q23 0 17 -28l-5 -24q-2 -11 -15 -28l-676 -723h435q36 0 45 28l41 162q5 18 12 24t20 6h20q14 0 17 -5.5t0 -31.5 l-47 -218q-8 -28 -27 -28h-604q-22 0 -16 28z" />
<glyph unicode="{" horiz-adv-x="640" d="M99 503l7 35q4 14 21 17q118 18 167.5 61t70.5 144l73 337q11 51 29 89t50.5 72.5t87 52.5t129.5 18h16q8 0 10 -1.5t1 -9.5l-11 -48q-2 -8 -4.5 -10.5t-10.5 -2.5h-5q-181 0 -212 -159l-73 -337q-22 -109 -69.5 -165t-131.5 -77q75 -20 99 -76t0 -164l-71 -337 q-34 -158 145 -158h6q8 0 10 -2.5t-1 -10.5l-9 -48q-2 -12 -15 -12h-17q-75 0 -122.5 19t-64.5 51.5t-21 74.5t9 88l72 337q21 101 -10.5 144t-141.5 61q-17 3 -13 17z" />
<glyph unicode="|" horiz-adv-x="472" d="M63 -311l356 1670h80l-356 -1670h-80z" />
<glyph unicode="}" horiz-adv-x="640" d="M-34 -277l10 48q5 13 15 13h5q179 0 213 158l70 337q24 108 71.5 164t129.5 76q-74 21 -97 77t-1 165l72 337q16 78 -18 118.5t-127 40.5h-6q-8 0 -10 2.5t-1 10.5l11 48q2 11 15 11h17q75 0 122.5 -19t65.5 -51t22 -74t-9 -88l-72 -337q-21 -101 10 -144t140 -61 q17 -3 13 -17l-7 -35q-4 -15 -20 -17q-118 -18 -167 -61t-70 -144l-73 -337q-11 -51 -29 -89t-51 -72.5t-87.5 -53t-129.5 -18.5h-15q-8 0 -10.5 2t-1.5 10z" />
<glyph unicode="~" horiz-adv-x="1329" d="M171 372q78 111 176 171t193 60q46 0 85 -18t64.5 -44.5t52 -57.5t48.5 -57.5t53 -44.5t67 -18q115 0 246 190l58 -30q-70 -115 -155 -174t-165 -59q-55 0 -99.5 25t-74 60t-56.5 70.5t-61 60.5t-74 25q-157 0 -289 -185z" />
<glyph unicode="&#xa0;" horiz-adv-x="942" d="M195 512l8 39q3 15 19 15h607q15 0 11 -17l-8 -33q-3 -19 -22 -19h-603q-15 0 -12 15z" />
<glyph unicode="&#xa1;" horiz-adv-x="450" d="M52 -313l212 987q3 12 7 14.5t16 2.5h43q16 0 9 -19l-205 -987q-4 -15 -13 -15h-60q-10 0 -11 4.5t2 12.5zM263 819q5 27 27 46t51 19q25 0 40 -19.5t10 -45.5q-6 -31 -27.5 -48t-48.5 -17q-30 0 -44.5 17t-7.5 48z" />
<glyph unicode="&#xa2;" horiz-adv-x="955" d="M158 419q46 211 180 338t323 127q119 0 180.5 -50t41.5 -145q-15 -75 -70.5 -122.5t-134.5 -47.5q-40 0 -75 10q-16 6 -18 17t5 27q4 18 10 22.5t16 4.5q5 0 25.5 -4t36.5 -4q102 0 124 91q7 36 -3 62.5t-33.5 40.5t-52.5 20t-65 6q-155 0 -261 -105t-145 -290 q-19 -103 -11.5 -172.5t45 -112t88.5 -60.5t120 -18q129 0 277 67q16 5 20 0t1 -22l-6 -26q-3 -13 -9 -19t-22 -13q-134 -60 -285 -60q-189 0 -267 117t-35 321zM333 -315l49 233q5 17 16 17h53q5 0 5 -13l-48 -235q-4 -17 -11 -17h-62q-5 0 -2 15zM601 951l51 233 q3 15 9 15h60q11 0 3 -17l-50 -234q-4 -13 -11 -13h-52q-15 0 -10 16z" />
<glyph unicode="&#xa3;" horiz-adv-x="1163" d="M54 37q3 16 6.5 21t15.5 5h68.5t45 3.5t30.5 6.5t16 14.5t11.5 21t7.5 32.5l93 442h-158q-16 0 -11 15l7 39q3 15 19 15h158l56 264q25 119 64.5 197.5t100 124t134.5 64t179 18.5q175 0 289 -41q22 -9 23.5 -16t-6.5 -29l-51 -236q-3 -16 -6 -19t-16 -3h-26q-10 0 -12 3 t-1 15l32 224q-88 28 -240 28q-74 0 -130.5 -11.5t-105.5 -38t-81.5 -76t-47.5 -120.5l-75 -348h369q15 0 11 -17l-8 -34q-3 -18 -22 -18h-365l-108 -507l525 -2q17 0 22 4.5t8 20.5l54 197q4 19 11.5 24.5t25.5 5.5h8q17 0 19 -6t-3 -30l-57 -270q-3 -14 -8 -17t-20 -3 h-838q-4 0 -7.5 0.5t-5.5 2t-3 2.5t-1.5 4t-0.5 4.5t0.5 5.5t1 5.5l2 6t1.5 6.5z" />
<glyph unicode="&#xa4;" horiz-adv-x="1228" d="M143 143l125 108q-80 123 -43 296q38 180 185 304l-75 104l69 35l69 -91q131 86 281 86q160 0 259 -101l117 97l50 -37l-128 -106q46 -72 54 -158t-16 -164t-65.5 -146t-93.5 -117l86 -104l-81 -41l-78 87q-132 -87 -290 -87q-154 0 -251 87l-116 -94zM309 547 q-34 -162 40.5 -264t233.5 -102q155 0 275.5 102.5t154.5 263.5t-42.5 263t-231.5 102q-160 0 -278 -101.5t-152 -263.5z" />
<glyph unicode="&#xa5;" horiz-adv-x="1288" d="M242 365l9 41q2 6 7.5 10.5t11.5 4.5h356l16 85q-2 0 -2 4h-351q-7 0 -10.5 4t-2.5 11l9 41q4 15 18 15h285q-32 46 -56 85.5t-49 90.5t-40.5 101.5t-25 107.5t-7 121t17.5 131q1 7 -5.5 11t-23 6.5t-42.5 3.5t-68 1q-14 0 -16.5 4t1.5 15l5 26q3 11 8 14.5t15 3.5h368 q16 0 10 -16l-6 -27q-3 -20 -21 -20q-82 0 -111 -4t-32 -18q-15 -69 -16.5 -134t10 -122t28.5 -107.5t45.5 -100.5t55 -88.5t61.5 -82.5q48 40 83.5 70.5t82 74.5t80.5 82t72 87.5t65 97.5t49.5 106t35.5 117q1 5 -1 8.5t-8.5 6t-16 4t-26 2t-35.5 1t-47 0.5q-18 0 -15 20 l5 27q6 16 19 16h367q11 0 14.5 -3.5t0.5 -14.5l-6 -26q0 -1 -1 -4q-2 -10 -5.5 -12.5t-15.5 -2.5q-55 0 -86 -2t-45.5 -6.5t-15.5 -13.5q-17 -80 -51 -157t-74 -138.5t-95 -126t-103 -112t-111 -103.5h285q15 0 11 -17l-8 -35q-6 -19 -22 -19h-346l-3.5 -2t-5 -3.5 t-0.5 -3.5l-17 -80h357q15 0 11 -17l-7 -35q-6 -19 -24 -19h-354l-43 -205q-3 -13 -4.5 -21.5t-1.5 -17.5t0.5 -14t4.5 -10.5t8 -8t14 -5t18 -3t25.5 -1.5t31.5 -1h40q22 0 24 -9t-5 -28q-2 -11 -4 -16t-7.5 -7.5t-16.5 -2.5h-395q-20 0 -21 11t6 26q3 11 4 15t6 7.5t14 3.5 h54t39.5 2t30.5 3t20 7.5t15.5 11t9 18t8 23.5t6.5 32l5 30h2l34 160h-356q-14 0 -11 15z" />
<glyph unicode="&#xa6;" horiz-adv-x="480" d="M76 -266l155 728h80l-155 -728h-80zM255 577l155 724h80l-155 -724h-80z" />
<glyph unicode="&#xa7;" horiz-adv-x="1022" d="M52 -93l50 234q3 14 8.5 18.5t19.5 4.5h23q19 0 15 -23l-36 -219q113 -34 257 -34q51 0 98.5 7t104 26.5t96.5 62.5t53 105q12 53 8 94.5t-18.5 71.5t-39 53t-54.5 39t-65 29.5t-70 25.5q-32 11 -48.5 16.5t-45.5 17.5t-44.5 21.5t-38 25.5t-33.5 31.5t-23 38t-15.5 47.5 t-3 57t8.5 69q25 115 85 181q-33 70 -9 175q52 240 387 240q78 0 155.5 -12t111.5 -29q14 -7 17 -14.5t-2 -26.5l-53 -244q-2 -11 -5 -15.5t-6.5 -5.5t-12.5 -1h-24q-6 0 -9.5 2t-4.5 4.5t-1.5 5t0.5 4.5v2l35 227q-69 21 -105 27.5t-107 6.5q-264 0 -301 -169 q-13 -60 -1 -104.5t42 -70t72 -46t90 -33.5t95.5 -32.5t88 -43t68 -64.5t36 -97t-8.5 -142q-13 -57 -35 -108.5t-40 -68.5q21 -77 -2 -179q-14 -69 -51 -121t-81.5 -81.5t-102.5 -47.5t-106.5 -23.5t-101.5 -5.5q-83 0 -182 14.5t-127 29.5q-20 11 -11 47zM335 728 q-10 -64 -1.5 -103.5t39.5 -69.5t69 -46.5t87.5 -33.5t93 -31.5t87 -40.5t70.5 -59q26 53 35 101q15 58 7.5 103.5t-24.5 75.5t-49 54t-66 38.5t-76.5 29.5t-79.5 27.5t-75 31.5t-63 42q-42 -53 -54 -119z" />
<glyph unicode="&#xa8;" horiz-adv-x="701" d="M372 1441q5 24 23.5 40t45.5 16t40.5 -16.5t8.5 -39.5q-5 -25 -24.5 -40.5t-46.5 -15.5t-39.5 15.5t-7.5 40.5zM689 1441q5 23 24.5 39.5t46.5 16.5t40 -16.5t8 -39.5q-5 -24 -25.5 -40t-47.5 -16t-39 15.5t-7 40.5z" />
<glyph unicode="&#xa9;" horiz-adv-x="1575" d="M199 618q33 158 107.5 282t177.5 202.5t228.5 119t266.5 40.5q143 0 254 -41t183.5 -123t95 -205.5t-10.5 -287.5q-44 -206 -158 -350t-270 -212.5t-345 -68.5q-144 0 -256 40.5t-185 121.5t-97 201.5t9 280.5zM281 618q-29 -142 -9 -249.5t83.5 -178.5t161 -107 t224.5 -36q168 0 305 60.5t235.5 187.5t137.5 310q30 146 11 256t-82 183.5t-160 110.5t-224 37q-256 0 -439.5 -147t-243.5 -427zM477 680q40 187 154 283t291 96q69 0 131.5 -12.5t93.5 -28.5q13 -5 16 -13t-1 -31l-47 -216q-3 -17 -20 -17h-32q-14 0 -11 17l35 206 q-66 28 -164 28q-301 0 -370 -333q-15 -74 -16.5 -131.5t11 -97.5t35 -67t58 -42.5t76.5 -22t95 -6.5q56 0 95 6.5t110 25.5q22 6 21 -13q0 -5 -5 -30q-3 -11 -8.5 -16t-20.5 -10q-87 -30 -190 -30q-66 0 -118 9t-98 29t-76 54.5t-47.5 84t-17 119.5t19.5 159z" />
<glyph unicode="&#xaa;" d="M261 974q34 157 136.5 252.5t259.5 95.5q67 0 118.5 -32.5t80.5 -86.5l19 87q2 9 5 11t11 2h3h52q9 0 10.5 -4t-1.5 -11l-136 -638q-3 -13 -15 -13h-56q-10 0 -11 4t2 12l17 81q-47 -53 -110 -84.5t-130 -31.5q-163 0 -226 98.5t-29 257.5zM343 970q-29 -139 18.5 -209 t157.5 -70q105 0 183 75.5t104 203.5q28 127 -18 203t-151 76q-107 0 -186.5 -75t-107.5 -204z" />
<glyph unicode="&#xab;" d="M117 452q-11 15 -10 21.5t16 19.5l454 399q23 21 32 13l30 -26q5 -5 2.5 -9.5t-17.5 -18.5l-417 -374l255 -367q20 -28 7 -34l-41 -24q-9 -5 -13.5 -2.5t-14.5 15.5zM393 452q-10 14 -8.5 21t15.5 20l455 399q14 12 18.5 14.5t10.5 -1.5l32 -26q6 -8 -15 -28l-417 -374 l253 -367q13 -17 13.5 -24t-7.5 -10l-39 -24q-12 -9 -26 13z" />
<glyph unicode="&#xac;" horiz-adv-x="1115" d="M227 566l17 80h774l-52 -248h-80l36 168h-695z" />
<glyph unicode="&#xad;" horiz-adv-x="945" d="M199 527l8 39q3 15 18 15h607q15 0 11 -17l-7 -33q-3 -19 -22 -19h-604q-16 0 -11 15z" />
<glyph unicode="&#xae;" horiz-adv-x="1575" d="M199 618q33 158 107.5 282t177.5 202.5t228.5 119t266.5 40.5q143 0 254 -41t183.5 -123t95 -205.5t-10.5 -287.5q-44 -206 -158 -350t-270 -212.5t-345 -68.5q-144 0 -256 40.5t-185 121.5t-97 201.5t9 280.5zM281 618q-29 -142 -9 -249.5t83.5 -178.5t161 -107 t224.5 -36q168 0 305 60.5t235.5 187.5t137.5 310q30 146 11 256t-82 183.5t-160 110.5t-224 37q-256 0 -439.5 -147t-243.5 -427zM490 270l5 24q3 17 15 17q67 2 81.5 9.5t22.5 46.5l123 571q6 30 -7.5 38.5t-76.5 8.5q-10 0 -7 15v2l6 24q2 8 4.5 10.5t10.5 2.5h260 q143 0 194.5 -67.5t25.5 -185.5q-41 -193 -209 -240l47 -168q10 -41 22.5 -56t38.5 -15q17 0 47 11q15 7 15 -7v-26q0 -12 -4.5 -16.5t-19.5 -9.5q-40 -13 -77 -13q-15 0 -28 3t-21.5 5.5t-16.5 11.5t-12 13t-9.5 18t-6.5 18t-6 22t-6 22l-46 173h-17q-58 0 -106 10 l-41 -196q-4 -25 8.5 -30t69.5 -5q12 0 14.5 -4t-1.5 -15q0 -2 -1.5 -9.5t-2.5 -10l-3 -7.5t-6 -6.5t-9 -1.5h-259q-9 0 -11 2.5t0 10.5zM747 611q53 -10 95 -10q183 0 221 183q20 94 -18.5 143t-121.5 49h-98z" />
<glyph unicode="&#xaf;" horiz-adv-x="722" d="M404 1430l7 39q6 19 23 19h368q18 0 15 -15l-9 -43q-5 -19 -22 -19h-367q-11 0 -14.5 4t-0.5 15z" />
<glyph unicode="&#xb0;" horiz-adv-x="724" d="M277 1048q25 117 106 195.5t192 78.5q112 0 159 -79t22 -195q-26 -118 -109 -195.5t-187 -77.5q-110 0 -159.5 76.5t-23.5 196.5zM361 1050q-19 -94 15.5 -148.5t101.5 -54.5q62 0 118.5 54.5t75.5 142.5q18 88 -13 146.5t-99 58.5q-64 0 -122.5 -57.5t-76.5 -141.5z" />
<glyph unicode="&#xb1;" horiz-adv-x="1146" d="M84 -41l17 80h834l-17 -80h-834zM181 439l16 80h380l73 347h78l-73 -347h375l-17 -80h-374l-67 -312h-79l67 312h-379z" />
<glyph unicode="&#xb2;" horiz-adv-x="867" d="M140 572l7 33q5 20 11 24q622 343 702 715q7 42 8 73t-10.5 53.5t-26 37t-40 23t-52 11.5t-61.5 3q-126 0 -229 -37l-58 -190q-2 -15 -19 -15h-31q-9 0 -10.5 3t0.5 14l45 210q3 14 5 19t6 8.5t13 6.5q136 52 289 52q30 0 52.5 -1.5t51.5 -5t50 -12t43.5 -21.5t35.5 -33 t22 -47t8.5 -64.5t-10.5 -83.5q-44 -209 -221.5 -392t-441.5 -323h458q20 0 26 24l38 145q3 14 8 19.5t18 5.5h29q15 0 10 -25l-49 -227q-3 -12 -6 -14t-12 -2h-646q-16 0 -13 13z" />
<glyph unicode="&#xb3;" horiz-adv-x="828" d="M147 601l6 28q5 25 22 21q3 0 29 -6t56.5 -12t80.5 -11t98 -5q137 0 215.5 65t106.5 198q24 115 -26.5 160t-166.5 45h-95q-9 0 -11 3.5t0 16.5l5 32q4 13 10 18l389 373h-391q-13 0 -18.5 -8t-11.5 -30l-30 -124q-3 -19 -24 -19h-28q-11 0 -14.5 3t-0.5 14l47 221 q3 12 5.5 14.5t12.5 2.5h557q9 0 10.5 -4.5t-1.5 -17.5l-5 -28q-1 -5 -2 -8t-3 -6.5t-2.5 -5t-4 -5t-5.5 -5t-7.5 -7t-9.5 -8.5l-370 -354h18q170 0 231.5 -62t29.5 -209q-70 -337 -419 -337q-167 0 -270 33q-10 3 -13 7.5t0 16.5z" />
<glyph unicode="&#xb4;" horiz-adv-x="614" d="M413 1381l198 179q21 21 41 21h63q13 0 14.5 -7.5t-12.5 -18.5l-235 -185q-11 -11 -30 -11h-35q-12 0 -13.5 6t9.5 16z" />
<glyph unicode="&#xb5;" horiz-adv-x="1131" d="M91 -398l136 640q3 22 9 48l60 283h4l37 175q9 51 -34 51h-106q-4 0 -7 1.5t-4 4t-1.5 5.5t0.5 7.5t1.5 7.5t2 8t1.5 7q4 16 9.5 21t18.5 5h195q17 0 21 -7.5t0 -28.5l-131 -614q-8 -90 27.5 -123t116.5 -33q139 0 228 81.5t131 273.5l71 333q9 51 -34 51h-106 q-4 0 -7 1.5t-4 4t-1.5 5.5t0.5 7.5t1.5 7.5t2 8t1.5 7q4 16 10 21t20 5h195q15 0 19 -7.5t0 -28.5l-30 -147h4l-101 -471q-15 -62 -9 -95.5t19 -43.5t37 -10q48 0 59 43q6 28 10 31q5 3 20 3h24q16 0 19.5 -4t-0.5 -22q-14 -68 -48.5 -94.5t-89.5 -26.5q-63 0 -100.5 34.5 t-33.5 112.5q-107 -153 -309 -153q-127 0 -179 52l-93 -437q-3 -12 -9 -12h-67q-2 0 -4.5 3.5t-1.5 8.5z" />
<glyph unicode="&#xb6;" horiz-adv-x="862" d="M227 944q34 157 142 258t244 101h242l-326 -1539h-80l309 1459h-138l-309 -1459h-80l167 793q-76 1 -123.5 55t-57 140t9.5 192z" />
<glyph unicode="&#xb7;" horiz-adv-x="552" d="M240 469q5 24 25.5 40t45.5 16q26 0 40.5 -16t9.5 -40t-25.5 -40t-46.5 -16t-40 16t-9 40z" />
<glyph unicode="&#xb8;" horiz-adv-x="523" d="M-97 -328l19 28q8 8 11.5 9.5t10.5 -1.5q44 -15 95 -15q96 0 117 89q6 30 -16 46.5t-88 16.5q-3 0 -14.5 -1t-13.5 0t-1.5 7t9.5 19l85 130h82l-65 -102q65 0 90 -33t16 -83q-18 -81 -74 -118.5t-129 -37.5q-72 0 -126 20q-14 6 -15 11q1 7 7 15z" />
<glyph unicode="&#xb9;" horiz-adv-x="616" d="M138 577q1 3 2 10t2 11t3.5 8.5t6.5 7t10 2.5q134 2 161.5 10t35.5 48l172 802q3 15 -2.5 16t-23.5 -10l-172 -99q-23 -12 -20 8l9 39q3 15 28 30l216 128q20 13 45 13h13q14 0 11 -15l-196 -912q-8 -40 15.5 -48t150.5 -8q8 0 12.5 -1.5t6 -6t1 -8t-2 -11.5t-2.5 -12 q-3 -13 -7.5 -16.5t-18.5 -3.5h-441q-13 0 -15 3.5t0 14.5z" />
<glyph unicode="&#xba;" horiz-adv-x="996" d="M223 894q18 84 54.5 158t93 135.5t139.5 97t183 35.5q88 0 153.5 -25.5t102.5 -70t57.5 -103.5t18 -126.5t-15.5 -138.5q-18 -84 -55.5 -159t-94.5 -136.5t-140 -98t-181 -36.5q-88 0 -153.5 26.5t-103 70.5t-56.5 105t-18.5 127t16.5 139zM305 869q-19 -73 -13.5 -140.5 t28.5 -119t78 -82t136 -30.5q156 0 256 106t135 266q18 73 12.5 141.5t-29 121.5t-78 85t-134.5 32q-81 0 -149 -31.5t-115.5 -86t-79 -120.5t-47.5 -142z" />
<glyph unicode="&#xbb;" d="M58 78q-3 4 0.5 9t23.5 23l411 367l-257 374q-10 14 -10 18.5t9 9.5l41 26q9 8 22 -13l287 -399q8 -13 6 -20t-18 -21l-448 -387q-15 -13 -21 -15.5t-13 2.5zM335 78q-4 5 -0.5 9.5t24.5 22.5l412 367l-257 374q-11 14 -11.5 19t7.5 9l41 26q9 8 22 -13l287 -399 q10 -13 8 -20t-19 -21l-449 -387q-15 -14 -19.5 -15.5t-13.5 2.5z" />
<glyph unicode="&#xbf;" horiz-adv-x="888" d="M-7 -114q14 67 37.5 117t52 80t62 52.5t68.5 37.5t70 30.5t68.5 37t62 51t52 78.5t37.5 114l33 162q3 14 6 16.5t13 2.5h46q5 0 9 -5t3 -10l-34 -153q-20 -96 -55.5 -162.5t-76.5 -100t-86.5 -56.5t-90.5 -42t-84.5 -45.5t-71.5 -77.5t-49 -128q-6 -42 -3 -73t22.5 -53 t41.5 -36t55 -22t62.5 -11t63.5 -3q60 0 105 4.5t72.5 10t98.5 21.5l63 240q5 13 7.5 15.5t16.5 2.5h23q7 0 9.5 -0.5t5.5 -2.5t2 -6.5t-1 -12.5l-54 -255q-5 -20 -11 -28t-24 -15q-48 -19 -143 -32t-187 -13q-39 0 -73.5 3.5t-69.5 11.5t-61.5 21.5t-50.5 34t-34.5 48.5 t-15 65.5t7.5 85.5zM547 819q5 27 27.5 46t51.5 19q26 0 40.5 -19.5t9.5 -45.5q-7 -31 -28 -48t-48 -17q-30 0 -45 17t-8 48z" />
<glyph unicode="&#xc0;" horiz-adv-x="1334" d="M-9 22l3 15q4 18 8.5 22t14.5 4q82 0 112.5 5t43.5 19t22 54l17 86q53 246 121 443.5t151 344.5t184.5 227t212.5 80q106 0 172.5 -79.5t89.5 -225t8 -345.5t-67 -445l-21 -102q-8 -44 15 -53t125 -9q20 0 21.5 -9t-5.5 -28q-3 -16 -7.5 -21t-18.5 -5h-396q-15 0 -17.5 3 t0.5 19q1 4 2.5 11.5t3 11.5t3.5 9t6.5 7t10.5 2q82 0 114 5.5t44.5 19.5t20.5 53l17 86q7 33 18 92t15 76h-702q-17 -62 -41 -168l-15 -72q-6 -26 -8 -38t2 -25t9.5 -17t26 -7.5t41 -4t63.5 -0.5q22 0 24 -9t-5 -28q-3 -17 -7 -21.5t-21 -4.5h-395q-15 0 -17 3t1 19z M350 467h696q56 359 9.5 570.5t-189.5 211.5q-146 0 -281.5 -209t-234.5 -573zM730 1592q-6 11 -2 17.5t17 6.5h48h8.5t6.5 -1.5t4.5 -2t4 -2.5t3.5 -3t4 -5t5 -6l147 -216q8 -10 5 -15.5t-15 -5.5h-37q-18 0 -35 26z" />
<glyph unicode="&#xc1;" horiz-adv-x="1334" d="M-9 22l3 15q4 18 8.5 22t14.5 4q82 0 112.5 5t43.5 19t22 54l17 86q53 246 121 443.5t151 344.5t184.5 227t212.5 80q106 0 172.5 -79.5t89.5 -225t8 -345.5t-67 -445l-21 -102q-8 -44 15 -53t125 -9q20 0 21.5 -9t-5.5 -28q-3 -16 -7.5 -21t-18.5 -5h-396q-15 0 -17.5 3 t0.5 19q1 4 2.5 11.5t3 11.5t3.5 9t6.5 7t10.5 2q82 0 114 5.5t44.5 19.5t20.5 53l17 86q7 33 18 92t15 76h-702q-17 -62 -41 -168l-15 -72q-6 -26 -8 -38t2 -25t9.5 -17t26 -7.5t41 -4t63.5 -0.5q22 0 24 -9t-5 -28q-3 -17 -7 -21.5t-21 -4.5h-395q-15 0 -17 3t1 19z M350 467h696q56 359 9.5 570.5t-189.5 211.5q-146 0 -281.5 -209t-234.5 -573zM834 1400l197 179q20 20 41 20h64q13 0 14.5 -7.5t-12.5 -18.5l-235 -184q-11 -11 -30 -11h-35q-12 0 -13.5 6t9.5 16z" />
<glyph unicode="&#xc2;" horiz-adv-x="1334" d="M-9 22l3 15q4 18 8.5 22t14.5 4q82 0 112.5 5t43.5 19t22 54l17 86q53 246 121 443.5t151 344.5t184.5 227t212.5 80q106 0 172.5 -79.5t89.5 -225t8 -345.5t-67 -445l-21 -102q-8 -44 15 -53t125 -9q20 0 21.5 -9t-5.5 -28q-3 -16 -7.5 -21t-18.5 -5h-396q-15 0 -17.5 3 t0.5 19q1 4 2.5 11.5t3 11.5t3.5 9t6.5 7t10.5 2q82 0 114 5.5t44.5 19.5t20.5 53l17 86q7 33 18 92t15 76h-702q-17 -62 -41 -168l-15 -72q-6 -26 -8 -38t2 -25t9.5 -17t26 -7.5t41 -4t63.5 -0.5q22 0 24 -9t-5 -28q-3 -17 -7 -21.5t-21 -4.5h-395q-15 0 -17 3t1 19z M350 467h696q56 359 9.5 570.5t-189.5 211.5q-146 0 -281.5 -209t-234.5 -573zM667 1381q-7 15 14 30l200 155q19 15 35 15h35q17 0 30 -15l136 -155q5 -5 7 -10t-2 -11t-6 -8l-10 -10q-12 -15 -26 -4l-164 136l-216 -136q-16 -6 -20.5 -3.5t-12.5 16.5z" />
<glyph unicode="&#xc3;" horiz-adv-x="1334" d="M-9 22l3 15q4 18 8.5 22t14.5 4q82 0 112.5 5t43.5 19t22 54l17 86q53 246 121 443.5t151 344.5t184.5 227t212.5 80q106 0 172.5 -79.5t89.5 -225t8 -345.5t-67 -445l-21 -102q-8 -44 15 -53t125 -9q20 0 21.5 -9t-5.5 -28q-3 -16 -7.5 -21t-18.5 -5h-396q-15 0 -17.5 3 t0.5 19q1 4 2.5 11.5t3 11.5t3.5 9t6.5 7t10.5 2q82 0 114 5.5t44.5 19.5t20.5 53l17 86q7 33 18 92t15 76h-702q-17 -62 -41 -168l-15 -72q-6 -26 -8 -38t2 -25t9.5 -17t26 -7.5t41 -4t63.5 -0.5q22 0 24 -9t-5 -28q-3 -17 -7 -21.5t-21 -4.5h-395q-15 0 -17 3t1 19z M350 467h696q56 359 9.5 570.5t-189.5 211.5q-146 0 -281.5 -209t-234.5 -573zM722 1404q-10 6 0 22q37 46 67 66t67 20q44 0 88 -32t67 -32q19 0 30.5 9.5t30.5 37.5q10 16 21 9l26 -16q7 -6 6.5 -8.5t-6.5 -12.5q-35 -47 -63 -68t-66 -21q-33 0 -60.5 16t-48.5 31.5 t-39 15.5q-19 0 -32.5 -9t-38.5 -36q-13 -13 -23 -7z" />
<glyph unicode="&#xc4;" horiz-adv-x="1334" d="M-9 22l3 15q4 18 8.5 22t14.5 4q82 0 112.5 5t43.5 19t22 54l17 86q53 246 121 443.5t151 344.5t184.5 227t212.5 80q106 0 172.5 -79.5t89.5 -225t8 -345.5t-67 -445l-21 -102q-8 -44 15 -53t125 -9q20 0 21.5 -9t-5.5 -28q-3 -16 -7.5 -21t-18.5 -5h-396q-15 0 -17.5 3 t0.5 19q1 4 2.5 11.5t3 11.5t3.5 9t6.5 7t10.5 2q82 0 114 5.5t44.5 19.5t20.5 53l17 86q7 33 18 92t15 76h-702q-17 -62 -41 -168l-15 -72q-6 -26 -8 -38t2 -25t9.5 -17t26 -7.5t41 -4t63.5 -0.5q22 0 24 -9t-5 -28q-3 -17 -7 -21.5t-21 -4.5h-395q-15 0 -17 3t1 19z M350 467h696q56 359 9.5 570.5t-189.5 211.5q-146 0 -281.5 -209t-234.5 -573zM689 1441q5 24 23.5 40t45.5 16t40 -16.5t8 -39.5q-5 -25 -24.5 -40.5t-46.5 -15.5t-39 15.5t-7 40.5zM1005 1441q5 23 24.5 39.5t46.5 16.5t40.5 -16.5t8.5 -39.5q-5 -24 -25.5 -40t-47.5 -16 t-39.5 15.5t-7.5 40.5z" />
<glyph unicode="&#xc5;" horiz-adv-x="1334" d="M-9 22l3 15q4 18 8.5 22t14.5 4q82 0 112.5 5t43.5 19t22 54l17 86q53 246 121 443.5t151 344.5t184.5 227t212.5 80q106 0 172.5 -79.5t89.5 -225t8 -345.5t-67 -445l-21 -102q-8 -44 15 -53t125 -9q20 0 21.5 -9t-5.5 -28q-3 -16 -7.5 -21t-18.5 -5h-396q-15 0 -17.5 3 t0.5 19q1 4 2.5 11.5t3 11.5t3.5 9t6.5 7t10.5 2q82 0 114 5.5t44.5 19.5t20.5 53l17 86q7 33 18 92t15 76h-702q-17 -62 -41 -168l-15 -72q-6 -26 -8 -38t2 -25t9.5 -17t26 -7.5t41 -4t63.5 -0.5q22 0 24 -9t-5 -28q-3 -17 -7 -21.5t-21 -4.5h-395q-15 0 -17 3t1 19z M350 467h696q56 359 9.5 570.5t-189.5 211.5q-146 0 -281.5 -209t-234.5 -573zM724 1504q13 56 69.5 95t154.5 39t135.5 -38.5t24.5 -95.5q-11 -57 -66 -96.5t-152 -39.5q-98 0 -137.5 39.5t-28.5 96.5zM799 1504q-6 -31 15.5 -52.5t88.5 -21.5q115 0 130 74q7 30 -14 51.5 t-84 21.5q-120 0 -136 -73z" />
<glyph unicode="&#xc6;" horiz-adv-x="1809" d="M-9 22l3 15q4 18 8.5 22t14.5 4q82 0 112.5 5t43.5 19t22 54l17 86q53 246 121 443.5t151 344.5t184.5 227t212.5 80q120 0 188 -100.5t83 -286.5l75 350q3 13 5.5 15.5t14.5 2.5h583q11 0 14.5 -0.5t7 -5t-0.5 -14.5l-58 -270q-7 -36 -32 -36h-11q-9 0 -13.5 0.5 t-6.5 4.5t-2 5.5v10.5l30 194q3 16 0 23.5t-19 7.5l-445 -2l-112 -523h293q11 0 15 -0.5t7.5 -5t-0.5 -14.5l-8 -32q-3 -17 -9 -22.5t-24 -5.5h-291l-57 -272q-12 -68 -24 -119l-21 -102q-8 -28 2 -43l469 -2q4 0 7.5 0.5t6 1t5 3t3.5 3t2.5 4.5t1.5 5.5t2 7t2 7.5l52 193 q9 21 34 21h13q13 0 15 -10.5t-2 -25.5l-58 -270q-3 -14 -7.5 -17t-18.5 -3h-795q-15 0 -17.5 3t0.5 19q1 4 2.5 11.5t3 11.5t3.5 9t6.5 7t10.5 2q104 0 133 9.5t40 48.5l23 106q7 33 18 92t15 76h-702q-17 -62 -41 -168l-15 -72q-6 -26 -8 -38t2 -25t9.5 -17t26 -7.5t41 -4 t63.5 -0.5q22 0 24 -9t-5 -28q-3 -17 -7 -21.5t-21 -4.5h-395q-15 0 -17 3t1 19zM350 467h696q56 359 9.5 570.5t-189.5 211.5q-146 0 -281.5 -209t-234.5 -573z" />
<glyph unicode="&#xc7;" horiz-adv-x="1219" d="M197 639q73 339 256.5 511t453.5 172q218 0 359 -37q19 -5 22.5 -12t-1.5 -33l-60 -277q-3 -16 -7.5 -19.5t-16.5 -3.5h-32q-15 0 -18.5 4t-0.5 15l41 262q-117 28 -283 28q-239 0 -401.5 -154.5t-227.5 -459.5q-65 -302 31 -438t355 -136q156 0 381 45q14 4 20 0.5 t3 -17.5l-6 -20q-4 -22 -11 -28t-30 -11q-219 -43 -357 -43h-17l-45 -75q65 0 90 -33t14 -82q-17 -80 -73.5 -118t-129.5 -38q-72 0 -126 20q-12 4 -14 7.5t6 18.5l19 28q11 13 24 8q44 -15 95 -15q98 0 116 89q6 30 -15.5 46.5t-87.5 16.5q-3 0 -15 -1t-14 0t-2 7.5t9 18.5 l69 106q-124 11 -208.5 53t-134.5 120.5t-56 196t26 278.5z" />
<glyph unicode="&#xc8;" horiz-adv-x="1061" d="M138 372q16 68 46 121t65 86t81 56.5t86 35t87 18.5q-25 5 -50 17.5t-54.5 37.5t-46.5 62t-25 91.5t8 124.5q61 300 423 300q214 0 326 -41q7 -2 11.5 -4t7.5 -4.5t4.5 -4t1.5 -6t-0.5 -6t-2 -9t-2.5 -11.5l-50 -236q-5 -17 -8.5 -20t-17.5 -3h-24q-11 0 -13.5 3t-1.5 16 l29 223q-90 28 -257 28q-144 0 -231.5 -50t-114.5 -177q-33 -155 43 -225.5t236 -70.5h138q5 0 8.5 -1.5t5.5 -4t2.5 -5.5t0 -8t-1 -8t-2 -9.5t-2.5 -9.5q-4 -16 -9.5 -21t-16.5 -5h-137q-397 0 -460 -296q-33 -157 46.5 -228.5t279.5 -71.5q166 0 361 46q12 3 14 0t-1 -16 l-8 -39q-3 -11 -10 -15.5t-23 -9.5q-48 -16 -141.5 -28.5t-190.5 -12.5q-57 0 -104 4t-92 12.5t-79.5 23.5t-63.5 36.5t-47.5 51.5t-28.5 68t-8.5 87t14.5 108zM644 1592q-6 11 -2 17.5t17 6.5h48h8.5t6.5 -1.5t4.5 -2t4 -2.5t3.5 -3t4 -5t5 -6l147 -216q8 -10 5.5 -15.5 t-14.5 -5.5h-38q-18 0 -35 26z" />
<glyph unicode="&#xc9;" horiz-adv-x="1061" d="M138 372q16 68 46 121t65 86t81 56.5t86 35t87 18.5q-25 5 -50 17.5t-54.5 37.5t-46.5 62t-25 91.5t8 124.5q61 300 423 300q214 0 326 -41q7 -2 11.5 -4t7.5 -4.5t4.5 -4t1.5 -6t-0.5 -6t-2 -9t-2.5 -11.5l-50 -236q-5 -17 -8.5 -20t-17.5 -3h-24q-11 0 -13.5 3t-1.5 16 l29 223q-90 28 -257 28q-144 0 -231.5 -50t-114.5 -177q-33 -155 43 -225.5t236 -70.5h138q5 0 8.5 -1.5t5.5 -4t2.5 -5.5t0 -8t-1 -8t-2 -9.5t-2.5 -9.5q-4 -16 -9.5 -21t-16.5 -5h-137q-397 0 -460 -296q-33 -157 46.5 -228.5t279.5 -71.5q166 0 361 46q12 3 14 0t-1 -16 l-8 -39q-3 -11 -10 -15.5t-23 -9.5q-48 -16 -141.5 -28.5t-190.5 -12.5q-57 0 -104 4t-92 12.5t-79.5 23.5t-63.5 36.5t-47.5 51.5t-28.5 68t-8.5 87t14.5 108zM748 1400l198 179q20 20 41 20h63q13 0 14.5 -7.5t-12.5 -18.5l-235 -184q-11 -11 -29 -11h-36q-12 0 -13.5 6 t9.5 16z" />
<glyph unicode="&#xca;" horiz-adv-x="1061" d="M138 372q16 68 46 121t65 86t81 56.5t86 35t87 18.5q-25 5 -50 17.5t-54.5 37.5t-46.5 62t-25 91.5t8 124.5q61 300 423 300q214 0 326 -41q7 -2 11.5 -4t7.5 -4.5t4.5 -4t1.5 -6t-0.5 -6t-2 -9t-2.5 -11.5l-50 -236q-5 -17 -8.5 -20t-17.5 -3h-24q-11 0 -13.5 3t-1.5 16 l29 223q-90 28 -257 28q-144 0 -231.5 -50t-114.5 -177q-33 -155 43 -225.5t236 -70.5h138q5 0 8.5 -1.5t5.5 -4t2.5 -5.5t0 -8t-1 -8t-2 -9.5t-2.5 -9.5q-4 -16 -9.5 -21t-16.5 -5h-137q-397 0 -460 -296q-33 -157 46.5 -228.5t279.5 -71.5q166 0 361 46q12 3 14 0t-1 -16 l-8 -39q-3 -11 -10 -15.5t-23 -9.5q-48 -16 -141.5 -28.5t-190.5 -12.5q-57 0 -104 4t-92 12.5t-79.5 23.5t-63.5 36.5t-47.5 51.5t-28.5 68t-8.5 87t14.5 108zM581 1381q-7 15 15 30l199 155q19 15 35 15h36q17 0 30 -15l135 -155q6 -6 7.5 -11t-2 -10t-6.5 -8.5t-10 -9.5 q-12 -15 -26 -4l-164 136l-216 -136q-16 -6 -20.5 -3.5t-12.5 16.5z" />
<glyph unicode="&#xcb;" horiz-adv-x="1061" d="M138 372q16 68 46 121t65 86t81 56.5t86 35t87 18.5q-25 5 -50 17.5t-54.5 37.5t-46.5 62t-25 91.5t8 124.5q61 300 423 300q214 0 326 -41q7 -2 11.5 -4t7.5 -4.5t4.5 -4t1.5 -6t-0.5 -6t-2 -9t-2.5 -11.5l-50 -236q-5 -17 -8.5 -20t-17.5 -3h-24q-11 0 -13.5 3t-1.5 16 l29 223q-90 28 -257 28q-144 0 -231.5 -50t-114.5 -177q-33 -155 43 -225.5t236 -70.5h138q5 0 8.5 -1.5t5.5 -4t2.5 -5.5t0 -8t-1 -8t-2 -9.5t-2.5 -9.5q-4 -16 -9.5 -21t-16.5 -5h-137q-397 0 -460 -296q-33 -157 46.5 -228.5t279.5 -71.5q166 0 361 46q12 3 14 0t-1 -16 l-8 -39q-3 -11 -10 -15.5t-23 -9.5q-48 -16 -141.5 -28.5t-190.5 -12.5q-57 0 -104 4t-92 12.5t-79.5 23.5t-63.5 36.5t-47.5 51.5t-28.5 68t-8.5 87t14.5 108zM603 1441q5 24 23.5 40t45.5 16t40.5 -16.5t8.5 -39.5q-5 -25 -24.5 -40.5t-46.5 -15.5t-39.5 15.5t-7.5 40.5z M920 1441q5 23 24 39.5t46 16.5t40.5 -16.5t8.5 -39.5q-5 -24 -25.5 -40t-47.5 -16t-39 15.5t-7 40.5z" />
<glyph unicode="&#xcc;" horiz-adv-x="666" d="M54 37q0 1 1 3q2 9 3.5 13t5.5 7t12 3q117 0 141 10.5t38 71.5l212 1000h2v1q6 28 8.5 39.5t-0.5 25.5t-8.5 17t-26 7.5t-40.5 4.5h-65q-20 0 -22 9t3 28q5 16 9.5 21t18.5 5h397q18 0 19 -11t-6 -26q0 -1 -1 -3q-1 -7 -2 -10t-3.5 -7t-6 -5t-9.5 -1q-34 0 -49 -0.5 t-37 -0.5t-30 -3t-21 -4.5t-16.5 -8.5t-10 -12t-9 -17t-5.5 -22t-7 -29l-5 -30h-2l-203 -953v-1q-15 -71 2 -83.5t132 -12.5q21 0 22.5 -9t-5.5 -28q-3 -16 -7.5 -21t-18.5 -5h-395q-20 0 -21 11t6 26zM395 1592q-6 11 -2 17.5t17 6.5h48q6 0 9.5 -0.5t6 -1t5.5 -3t4 -3.5 t4.5 -5.5t5.5 -6.5l147 -216q8 -10 5.5 -15.5t-14.5 -5.5h-37q-11 0 -18 5.5t-17 20.5z" />
<glyph unicode="&#xcd;" horiz-adv-x="666" d="M54 37q0 1 1 3q2 9 3.5 13t5.5 7t12 3q117 0 141 10.5t38 71.5l212 1000h2v1q6 28 8.5 39.5t-0.5 25.5t-8.5 17t-26 7.5t-40.5 4.5h-65q-20 0 -22 9t3 28q5 16 9.5 21t18.5 5h397q18 0 19 -11t-6 -26q0 -1 -1 -3q-1 -7 -2 -10t-3.5 -7t-6 -5t-9.5 -1q-34 0 -49 -0.5 t-37 -0.5t-30 -3t-21 -4.5t-16.5 -8.5t-10 -12t-9 -17t-5.5 -22t-7 -29l-5 -30h-2l-203 -953v-1q-15 -71 2 -83.5t132 -12.5q21 0 22.5 -9t-5.5 -28q-3 -16 -7.5 -21t-18.5 -5h-395q-20 0 -21 11t6 26zM499 1400l197 179q20 20 41 20h64q13 0 14 -7.5t-13 -18.5l-234 -184 q-11 -11 -30 -11h-35q-12 0 -13.5 6t9.5 16z" />
<glyph unicode="&#xce;" horiz-adv-x="666" d="M54 37q0 1 1 3q2 9 3.5 13t5.5 7t12 3q117 0 141 10.5t38 71.5l212 1000h2v1q6 28 8.5 39.5t-0.5 25.5t-8.5 17t-26 7.5t-40.5 4.5h-65q-20 0 -22 9t3 28q5 16 9.5 21t18.5 5h397q18 0 19 -11t-6 -26q0 -1 -1 -3q-1 -7 -2 -10t-3.5 -7t-6 -5t-9.5 -1q-34 0 -49 -0.5 t-37 -0.5t-30 -3t-21 -4.5t-16.5 -8.5t-10 -12t-9 -17t-5.5 -22t-7 -29l-5 -30h-2l-203 -953v-1q-15 -71 2 -83.5t132 -12.5q21 0 22.5 -9t-5.5 -28q-3 -16 -7.5 -21t-18.5 -5h-395q-20 0 -21 11t6 26zM333 1381q-7 15 15 30l199 155q19 15 36 15h35q17 0 30 -15l136 -155 q14 -14 -5 -33l-3 -3l-3 -3q-8 -9 -14 -9.5t-12 5.5l-164 136l-216 -136q-8 -4 -12.5 -5t-9 2.5t-5.5 5z" />
<glyph unicode="&#xcf;" horiz-adv-x="666" d="M54 37q0 1 1 3q2 9 3.5 13t5.5 7t12 3q117 0 141 10.5t38 71.5l212 1000h2v1q6 28 8.5 39.5t-0.5 25.5t-8.5 17t-26 7.5t-40.5 4.5h-65q-20 0 -22 9t3 28q5 16 9.5 21t18.5 5h397q18 0 19 -11t-6 -26q0 -1 -1 -3q-1 -7 -2 -10t-3.5 -7t-6 -5t-9.5 -1q-34 0 -49 -0.5 t-37 -0.5t-30 -3t-21 -4.5t-16.5 -8.5t-10 -12t-9 -17t-5.5 -22t-7 -29l-5 -30h-2l-203 -953v-1q-15 -71 2 -83.5t132 -12.5q21 0 22.5 -9t-5.5 -28q-3 -16 -7.5 -21t-18.5 -5h-395q-20 0 -21 11t6 26zM354 1441q5 24 23.5 40t45.5 16t40 -16.5t8 -39.5q-5 -25 -24.5 -40.5 t-46.5 -15.5t-39 15.5t-7 40.5zM670 1441q5 23 24.5 39.5t46.5 16.5t40 -16.5t8 -39.5q-5 -24 -25 -40t-47 -16t-39.5 15.5t-7.5 40.5z" />
<glyph unicode="&#xd0;" horiz-adv-x="1359" d="M60 37q3 16 7 21t17 5q51 0 76.5 1.5t46 4.5t29 14t13 21.5t10.5 36.5l110 518h-170q-14 0 -9 17l7 41q5 15 15 15h172l94 447q9 45 -11.5 53t-131.5 8q-14 0 -17 3.5t0 16.5l6 23q3 14 6.5 17t17.5 3h389q356 0 490.5 -174.5t66.5 -497.5q-137 -631 -810 -631h-410 q-18 0 -19.5 11t5.5 26zM326 73h164q306 0 481 140.5t237 432.5q20 105 22 195t-28 162.5t-86.5 124t-153 79t-228.5 27.5h-162l-107 -502h270q16 0 13 -13l-9 -43q-5 -17 -22 -17h-266z" />
<glyph unicode="&#xd1;" horiz-adv-x="1424" d="M54 37q3 15 8.5 20.5t19.5 5.5h51.5t38.5 2.5t29 3t19.5 7.5t14 10.5t9 16.5t7 21t6.5 29l218 1022q10 45 -13 55t-136 10q-6 0 -9.5 2.5t-4 7.5t0 9t2.5 11.5t3 10.5q3 14 7.5 18t17.5 4h201q23 0 33.5 -8t16.5 -25l423 -1181l227 1073q4 17 5 26.5t0 19t-7.5 14 t-15.5 9t-28 6t-41.5 2.5t-58.5 1q-5 0 -8.5 1.5t-5 4t-2 5t0.5 7t1.5 8t2 8.5t2.5 7q3 14 7.5 18t18.5 4h395q18 0 20.5 -8.5t-3.5 -24.5q-3 -19 -8.5 -24.5t-25.5 -5.5q-48 0 -71.5 -1.5t-44 -4.5t-28.5 -13.5t-13.5 -22.5t-11.5 -38l-239 -1117q-3 -13 -5.5 -20.5 t-10.5 -15t-21 -7.5h-39q-42 0 -52 24l-408 1132l-212 -1001q-5 -25 -7 -36.5t1 -24.5t9.5 -17t25 -8.5t41.5 -5t64 -0.5q22 0 24 -9t-5 -28q-3 -16 -7.5 -21t-20.5 -5h-395q-18 0 -19 11t6 26zM756 1404q-10 6 0 22q37 46 67 66t67 20q27 0 50.5 -10t37 -22t31.5 -22 t35 -10q19 0 31 9.5t31 37.5q10 16 20 9l26 -16q7 -5 7 -8t-5 -10q-1 -2 -2 -3q-35 -48 -62.5 -68.5t-65.5 -20.5q-26 0 -49.5 10t-37.5 21.5t-30.5 21.5t-31.5 10q-19 0 -32.5 -9t-38.5 -36q-9 -9 -13.5 -10t-8.5 3z" />
<glyph unicode="&#xd2;" horiz-adv-x="1426" d="M201 670q31 142 92 260t148.5 206t206 137t257.5 49q120 0 212 -33.5t150 -94.5t90.5 -147t32 -190t-24.5 -224q-32 -147 -92.5 -265.5t-148.5 -205.5t-207 -134t-260 -47q-119 0 -210.5 33.5t-148.5 94.5t-89 146.5t-31.5 190t23.5 224.5zM285 655q-59 -279 39.5 -439 t330.5 -160q234 0 400.5 160t225.5 439q60 278 -38.5 435t-333.5 157q-232 0 -398 -157t-226 -435zM773 1592q-7 11 -2.5 17.5t17.5 6.5h48q6 0 9.5 -0.5t6 -1t5.5 -3t4 -3.5t4.5 -5.5t5.5 -6.5l147 -216q8 -10 5.5 -15.5t-14.5 -5.5h-37q-19 0 -36 26z" />
<glyph unicode="&#xd3;" horiz-adv-x="1426" d="M201 670q31 142 92 260t148.5 206t206 137t257.5 49q120 0 212 -33.5t150 -94.5t90.5 -147t32 -190t-24.5 -224q-32 -147 -92.5 -265.5t-148.5 -205.5t-207 -134t-260 -47q-119 0 -210.5 33.5t-148.5 94.5t-89 146.5t-31.5 190t23.5 224.5zM285 655q-59 -279 39.5 -439 t330.5 -160q234 0 400.5 160t225.5 439q60 278 -38.5 435t-333.5 157q-232 0 -398 -157t-226 -435zM877 1400l197 179q20 20 41 20h64q13 0 14 -7.5t-13 -18.5l-234 -184q-11 -11 -30 -11h-35q-12 0 -13.5 6t9.5 16z" />
<glyph unicode="&#xd4;" horiz-adv-x="1426" d="M201 670q31 142 92 260t148.5 206t206 137t257.5 49q120 0 212 -33.5t150 -94.5t90.5 -147t32 -190t-24.5 -224q-32 -147 -92.5 -265.5t-148.5 -205.5t-207 -134t-260 -47q-119 0 -210.5 33.5t-148.5 94.5t-89 146.5t-31.5 190t23.5 224.5zM285 655q-59 -279 39.5 -439 t330.5 -160q234 0 400.5 160t225.5 439q60 278 -38.5 435t-333.5 157q-232 0 -398 -157t-226 -435zM711 1381q-7 15 15 30l199 155q19 15 36 15h35q17 0 30 -15l136 -155q5 -5 7 -10t-2 -11t-6 -8l-10 -10q-12 -15 -26 -4l-164 136l-216 -136q-17 -5 -21 -3t-13 16z" />
<glyph unicode="&#xd5;" horiz-adv-x="1426" d="M201 670q31 142 92 260t148.5 206t206 137t257.5 49q120 0 212 -33.5t150 -94.5t90.5 -147t32 -190t-24.5 -224q-32 -147 -92.5 -265.5t-148.5 -205.5t-207 -134t-260 -47q-119 0 -210.5 33.5t-148.5 94.5t-89 146.5t-31.5 190t23.5 224.5zM285 655q-59 -279 39.5 -439 t330.5 -160q234 0 400.5 160t225.5 439q60 278 -38.5 435t-333.5 157q-232 0 -398 -157t-226 -435zM767 1404q-10 6 0 22q37 46 67 66t67 20q34 0 62 -16t50 -32t43 -16q19 0 30.5 9.5t30.5 37.5q10 16 21 9l26 -16q7 -6 6.5 -8.5t-6.5 -12.5q-35 -47 -63 -68t-66 -21 q-33 0 -61 16t-49 31.5t-39 15.5q-19 0 -32.5 -9t-38.5 -36q-9 -9 -13.5 -10t-8.5 3z" />
<glyph unicode="&#xd6;" horiz-adv-x="1426" d="M201 670q31 142 92 260t148.5 206t206 137t257.5 49q120 0 212 -33.5t150 -94.5t90.5 -147t32 -190t-24.5 -224q-32 -147 -92.5 -265.5t-148.5 -205.5t-207 -134t-260 -47q-119 0 -210.5 33.5t-148.5 94.5t-89 146.5t-31.5 190t23.5 224.5zM285 655q-59 -279 39.5 -439 t330.5 -160q234 0 400.5 160t225.5 439q60 278 -38.5 435t-333.5 157q-232 0 -398 -157t-226 -435zM732 1441q5 24 23.5 40t45.5 16t40 -16.5t8 -39.5q-5 -25 -24.5 -40.5t-46.5 -15.5t-39 15.5t-7 40.5zM1048 1441q5 23 24.5 39.5t46.5 16.5t40 -16.5t8 -39.5 q-5 -24 -25 -40t-47 -16t-39.5 15.5t-7.5 40.5z" />
<glyph unicode="&#xd7;" horiz-adv-x="975" d="M136 181l331 296l-244 284l67 60l242 -285l330 296l47 -54l-330 -296l240 -285l-67 -59l-240 283l-330 -294z" />
<glyph unicode="&#xd8;" horiz-adv-x="1426" d="M201 670q31 142 92 260t148.5 206t206 137t257.5 49q131 0 233 -41l54 86q9 16 20 16h60q17 0 3 -20l-72 -117q126 -82 167 -245t-5 -368q-32 -147 -92.5 -265.5t-148.5 -205.5t-207 -134t-260 -47q-115 0 -218 36l-76 -125q-7 -11 -26 -11h-58q-10 0 -3 13l96 156 q-132 80 -175 244.5t4 375.5zM285 655q-40 -193 -6.5 -329.5t136.5 -206.5l680 1095q-78 33 -186 33q-232 0 -398 -157t-226 -435zM482 86q75 -30 173 -30q234 0 400.5 160t225.5 439q39 187 7.5 319t-128.5 203z" />
<glyph unicode="&#xd9;" horiz-adv-x="1411" d="M292 1277q5 16 9.5 21t20.5 5h395q19 0 20 -10.5t-5 -26.5q-2 -11 -4 -16t-7 -7.5t-14 -2.5q-46 0 -71.5 -1t-46.5 -4t-31 -10.5t-16 -17.5t-10 -27l-156 -737q-40 -188 31 -287.5t246 -99.5q173 0 282 98.5t150 288.5l157 736q7 43 -15.5 52t-124.5 9q-21 0 -24 9.5 t4 27.5q0 1 1 4q2 8 3.5 11t4.5 6t8 4t13 1h394q20 0 21 -11t-6 -26q-3 -13 -7 -19t-6.5 -6.5t-10.5 -0.5q-105 0 -135 -10t-40 -50l-157 -737q-47 -221 -175 -341.5t-338 -120.5q-223 0 -313.5 122t-44.5 340l160 754q1 29 -24.5 36t-116.5 7q-21 0 -24.5 9.5t3.5 27.5z M769 1592q-7 11 -2.5 17.5t17.5 6.5h48h8.5t6.5 -1.5t4.5 -2t4 -2.5t3.5 -3t4 -5t5 -6l147 -216q8 -10 5 -15.5t-15 -5.5h-37q-11 0 -18 5.5t-17 20.5z" />
<glyph unicode="&#xda;" horiz-adv-x="1411" d="M292 1277q5 16 9.5 21t20.5 5h395q19 0 20 -10.5t-5 -26.5q-2 -11 -4 -16t-7 -7.5t-14 -2.5q-46 0 -71.5 -1t-46.5 -4t-31 -10.5t-16 -17.5t-10 -27l-156 -737q-40 -188 31 -287.5t246 -99.5q173 0 282 98.5t150 288.5l157 736q7 43 -15.5 52t-124.5 9q-21 0 -24 9.5 t4 27.5q0 1 1 4q2 8 3.5 11t4.5 6t8 4t13 1h394q20 0 21 -11t-6 -26q-3 -13 -7 -19t-6.5 -6.5t-10.5 -0.5q-105 0 -135 -10t-40 -50l-157 -737q-47 -221 -175 -341.5t-338 -120.5q-223 0 -313.5 122t-44.5 340l160 754q1 29 -24.5 36t-116.5 7q-21 0 -24.5 9.5t3.5 27.5z M875 1400l197 179q20 20 41 20h64q13 0 14.5 -7.5t-12.5 -18.5l-235 -184q-11 -11 -30 -11h-35q-12 0 -13.5 6t9.5 16z" />
<glyph unicode="&#xdb;" horiz-adv-x="1409" d="M292 1277q5 16 9.5 21t20.5 5h395q19 0 20 -10.5t-5 -26.5q-2 -11 -4 -16t-7 -7.5t-14 -2.5q-46 0 -71.5 -1t-46.5 -4t-31 -10.5t-16 -17.5t-10 -27l-156 -737q-40 -188 31 -287.5t246 -99.5q173 0 282 98.5t150 288.5l157 736q7 43 -15.5 52t-124.5 9q-21 0 -24 9.5 t4 27.5q0 1 1 4q2 8 3.5 11t4.5 6t8 4t13 1h394q20 0 21 -11t-6 -26q-3 -13 -7 -19t-6.5 -6.5t-10.5 -0.5q-105 0 -135 -10t-40 -50l-157 -737q-47 -221 -175 -341.5t-338 -120.5q-223 0 -313.5 122t-44.5 340l160 754q1 29 -24.5 36t-116.5 7q-21 0 -24.5 9.5t3.5 27.5z M706 1381q-7 15 15 30l199 155q19 15 35 15h35q17 0 30 -15l136 -155q5 -5 7 -10t-2 -11t-6 -8l-10 -10q-8 -9 -14 -9.5t-12 5.5l-164 136l-216 -136q-16 -6 -20.5 -3.5t-12.5 16.5z" />
<glyph unicode="&#xdc;" horiz-adv-x="1411" d="M292 1277q5 16 9.5 21t20.5 5h395q19 0 20 -10.5t-5 -26.5q-2 -11 -4 -16t-7 -7.5t-14 -2.5q-46 0 -71.5 -1t-46.5 -4t-31 -10.5t-16 -17.5t-10 -27l-156 -737q-40 -188 31 -287.5t246 -99.5q173 0 282 98.5t150 288.5l157 736q7 43 -15.5 52t-124.5 9q-21 0 -24 9.5 t4 27.5q0 1 1 4q2 8 3.5 11t4.5 6t8 4t13 1h394q20 0 21 -11t-6 -26q-3 -13 -7 -19t-6.5 -6.5t-10.5 -0.5q-105 0 -135 -10t-40 -50l-157 -737q-47 -221 -175 -341.5t-338 -120.5q-223 0 -313.5 122t-44.5 340l160 754q1 29 -24.5 36t-116.5 7q-21 0 -24.5 9.5t3.5 27.5z M728 1441q5 24 23.5 40t45.5 16t40 -16.5t8 -39.5q-5 -25 -24 -40.5t-46 -15.5t-39.5 15.5t-7.5 40.5zM1044 1441q5 23 24.5 39.5t46.5 16.5t40.5 -16.5t8.5 -39.5q-5 -24 -25.5 -40t-47.5 -16t-39.5 15.5t-7.5 40.5z" />
<glyph unicode="&#xdd;" horiz-adv-x="1228" d="M244 1259l5 26q5 18 23 18h368q18 0 12 -16l-6 -27q-3 -20 -22 -20q-82 0 -110.5 -4t-31.5 -18q-15 -69 -16.5 -134t10 -123t28.5 -107.5t45.5 -100t54.5 -88.5t61 -84q89 74 148.5 130t131 138.5t118.5 174.5t69 194q2 7 -3.5 11.5t-22.5 7t-41 3t-67 0.5q-18 0 -15 20 l6 27q6 16 18 16h369q18 0 13 -18l-6 -26q0 -2 -1 -4q-3 -13 -10 -14l-9 -1q-82 0 -115 -4.5t-34 -17.5q-17 -77 -46.5 -150t-74 -139t-86 -119t-103.5 -113.5t-103 -97.5t-108 -94q-2 -2 -2 -4l-67 -311h2l-6 -30q-5 -23 -7 -31.5t-2 -23t1 -18t9.5 -11t16 -8t27.5 -3 t37 -2.5h52q21 0 22.5 -9t-5.5 -28q-3 -16 -7.5 -21t-20.5 -5h-395q-9 0 -13.5 1.5t-5.5 6t-1 7t2 11t3 11.5q3 11 4 15t6 7.5t14 3.5h54t39.5 2t30.5 3t20 7.5t15.5 11t9 18t8 23.5t6.5 32l73 346q-37 50 -57.5 79.5t-53 83t-50.5 93t-37.5 97.5t-26 110t-4.5 117t16 132 q1 6 -5.5 10.5t-23.5 7t-43.5 3.5t-68.5 1q-14 0 -16.5 4t1.5 15zM784 1400l197 179q20 20 41 20h63q13 0 14.5 -7.5t-12.5 -18.5l-234 -184q-11 -11 -30 -11h-35q-12 0 -13.5 6t9.5 16z" />
<glyph unicode="&#xde;" horiz-adv-x="1053" d="M54 37q3 11 4 15t5.5 7.5t12.5 3.5h54t39.5 2t30.5 3t20 7.5t15.5 11t9 18t8 23.5t6.5 32v6h-2l186 871h2l22 106q4 20 5.5 26t3 20t1.5 17t-3.5 12t-6.5 9.5t-13 5.5t-18 4.5t-26 1t-32.5 1.5h-42.5q-20 0 -22.5 9.5t4.5 27.5q3 10 4 13t4 7t7 5t12 1h397q18 0 19 -11 t-6 -26q-3 -11 -4 -15t-5.5 -7.5t-12.5 -3.5h-69.5t-45 -4t-32 -7.5t-17 -17t-13 -26t-8.5 -40.5l-22 -108h132q105 0 179.5 -22.5t115 -59t59 -90.5t17.5 -109.5t-15 -122.5q-41 -187 -179.5 -292t-345.5 -105q-71 0 -131 12l-18 -88q-5 -23 -7 -32t-2 -23t1 -18t9.5 -11 t16 -8t27.5 -3t37.5 -2h51.5q21 0 22.5 -9t-5.5 -28q-3 -16 -7.5 -21t-20.5 -5h-395q-18 0 -19 11t6 26zM372 320q19 -13 133 -13q172 0 280.5 91t141.5 250q70 320 -247 320h-170z" />
<glyph unicode="&#xdf;" horiz-adv-x="1050" d="M117 22l209 983q34 159 145.5 238t258.5 79q48 0 89 -8.5t78.5 -28t59.5 -51t31.5 -78t-5.5 -108.5q-15 -68 -47 -123.5t-82 -99t-90.5 -70.5t-102.5 -62q182 -57 252 -137t40 -219q-34 -159 -157 -248t-312 -89h-39q-10 0 -13.5 3t-1.5 10l9 45q3 13 8.5 16.5t19.5 3.5 h39q129 0 232 65.5t131 191.5q6 28 7 53.5t-5 46.5t-12.5 39t-21.5 33.5t-27 27t-33.5 23t-35 18.5t-38.5 16t-38 13.5t-38 12.5q-36 12 -56.5 27t-15.5 38q3 15 19 30.5t30.5 24t39.5 22.5q218 116 255 286q23 107 -32 156t-150 49q-112 0 -198.5 -62.5t-112.5 -183.5 l-209 -986q-3 -12 -7 -15.5t-15 -3.5h-39q-15 0 -18.5 4t-0.5 18z" />
<glyph unicode="&#xe0;" horiz-adv-x="966" d="M78 209q17 80 62 131.5t104 73t127 32t135.5 17.5t124.5 20t98.5 47.5t54.5 93.5q17 85 -39 137.5t-186 52.5q-112 0 -203 -36l-51 -199q-3 -11 -6 -14t-14 -3h-36q-13 0 -15.5 4.5t1.5 14.5l42 201q8 42 38 54q31 18 102.5 33t154.5 15q183 0 248 -79.5t33 -231.5 l-75 -351q-17 -66 -11.5 -101.5t18.5 -46.5t38 -11q47 0 58 43q3 21 9 27.5t28 6.5h11q23 0 27.5 -6t-1.5 -20q-25 -121 -154 -121q-70 0 -100 42.5t-12 143.5q-70 -92 -173.5 -141t-226.5 -49q-256 0 -211 220zM162 207q-16 -77 19 -111.5t122 -34.5q79 0 155 29t130 73.5 t91.5 96.5t48.5 101l24 117q-41 -44 -113 -63t-144.5 -23.5t-142 -15.5t-121.5 -51.5t-69 -117.5zM462 1298q-8 11 -4 17.5t17 6.5h48q11 0 17.5 -2.5t9 -5.5t9.5 -13l147 -216q8 -10 5 -15t-15 -5h-37q-11 0 -17 5t-18 21z" />
<glyph unicode="&#xe1;" horiz-adv-x="1122" d="M138 454q42 193 157 311.5t299 118.5q209 0 272 -150l22 98q3 19 12 26.5t27 7.5h207q8 0 12.5 -2t7 -4t2 -7.5t-1 -8.5t-2.5 -10.5t-3 -10.5l-2.5 -12.5t-3 -6.5t-6.5 -4.5t-11 -0.5h-117q-22 0 -39 -16t-22 -44l-112 -523q-16 -63 -10 -97t19.5 -45t37.5 -11 q48 0 59 43q5 29 10 32q4 2 18 2h26q16 0 19.5 -4t-0.5 -22q-14 -68 -48.5 -94.5t-89.5 -26.5q-69 0 -106 40t-24 129q-100 -171 -315 -171q-81 0 -141 23t-97 64t-55.5 99t-18 127.5t17.5 149.5zM218 438q-12 -59 -13 -112t11.5 -101.5t38.5 -84t71.5 -56.5t107.5 -21 q141 0 237 101.5t133 274.5q35 169 -16.5 271t-193.5 102q-150 0 -245.5 -106t-130.5 -268zM659 1106l196 179q23 20 42 20h64q13 0 14 -7.5t-12 -18.5l-237 -184q-9 -11 -30 -11h-35q-12 0 -13 6t11 16z" />
<glyph unicode="&#xe2;" horiz-adv-x="966" d="M78 209q17 80 62 131.5t104 73t127 32t135.5 17.5t124.5 20t98.5 47.5t54.5 93.5q17 85 -39 137.5t-186 52.5q-112 0 -203 -36l-51 -199q-3 -11 -6 -14t-14 -3h-36q-13 0 -15.5 4.5t1.5 14.5l42 201q8 42 38 54q31 18 102.5 33t154.5 15q183 0 248 -79.5t33 -231.5 l-75 -351q-17 -66 -11.5 -101.5t18.5 -46.5t38 -11q47 0 58 43q3 21 9 27.5t28 6.5h11q23 0 27.5 -6t-1.5 -20q-25 -121 -154 -121q-70 0 -100 42.5t-12 143.5q-70 -92 -173.5 -141t-226.5 -49q-256 0 -211 220zM162 207q-16 -77 19 -111.5t122 -34.5q79 0 155 29t130 73.5 t91.5 96.5t48.5 101l24 117q-41 -44 -113 -63t-144.5 -23.5t-142 -15.5t-121.5 -51.5t-69 -117.5zM398 1087q-8 15 13 30l202 155q19 15 33 15h35q19 0 32 -15l134 -155q15 -15 -3.5 -35t-33.5 -8l-162 136l-218 -136q-5 -2 -9 -3t-6.5 -1.5t-5 2l-3.5 3.5t-4 5.5t-4 6.5z " />
<glyph unicode="&#xe3;" horiz-adv-x="966" d="M78 209q17 80 62 131.5t104 73t127 32t135.5 17.5t124.5 20t98.5 47.5t54.5 93.5q17 85 -39 137.5t-186 52.5q-112 0 -203 -36l-51 -199q-3 -11 -6 -14t-14 -3h-36q-13 0 -15.5 4.5t1.5 14.5l42 201q8 42 38 54q31 18 102.5 33t154.5 15q183 0 248 -79.5t33 -231.5 l-75 -351q-17 -66 -11.5 -101.5t18.5 -46.5t38 -11q47 0 58 43q3 21 9 27.5t28 6.5h11q23 0 27.5 -6t-1.5 -20q-25 -121 -154 -121q-70 0 -100 42.5t-12 143.5q-70 -92 -173.5 -141t-226.5 -49q-256 0 -211 220zM162 207q-16 -77 19 -111.5t122 -34.5q79 0 155 29t130 73.5 t91.5 96.5t48.5 101l24 117q-41 -44 -113 -63t-144.5 -23.5t-142 -15.5t-121.5 -51.5t-69 -117.5zM452 1110q-10 7 2 22q37 46 67 66t67 20q44 0 87 -32t66 -32q19 0 31.5 10t31.5 37q10 15 21 9l26 -17q6 -5 5.5 -8t-7.5 -12q-33 -47 -61.5 -68t-66.5 -21q-33 0 -61 16 t-49 31.5t-39 15.5q-19 0 -32.5 -9t-38.5 -36q-11 -14 -23 -7z" />
<glyph unicode="&#xe4;" horiz-adv-x="966" d="M78 209q17 80 62 131.5t104 73t127 32t135.5 17.5t124.5 20t98.5 47.5t54.5 93.5q17 85 -39 137.5t-186 52.5q-112 0 -203 -36l-51 -199q-3 -11 -6 -14t-14 -3h-36q-13 0 -15.5 4.5t1.5 14.5l42 201q8 42 38 54q31 18 102.5 33t154.5 15q183 0 248 -79.5t33 -231.5 l-75 -351q-17 -66 -11.5 -101.5t18.5 -46.5t38 -11q47 0 58 43q3 21 9 27.5t28 6.5h11q23 0 27.5 -6t-1.5 -20q-25 -121 -154 -121q-70 0 -100 42.5t-12 143.5q-70 -92 -173.5 -141t-226.5 -49q-256 0 -211 220zM162 207q-16 -77 19 -111.5t122 -34.5q79 0 155 29t130 73.5 t91.5 96.5t48.5 101l24 117q-41 -44 -113 -63t-144.5 -23.5t-142 -15.5t-121.5 -51.5t-69 -117.5zM417 1147q5 24 24.5 40t46.5 16t39 -16.5t7 -39.5q-5 -25 -24 -40.5t-46 -15.5t-39.5 15.5t-7.5 40.5zM734 1147q5 23 25 39.5t47 16.5t39.5 -16.5t7.5 -39.5q-5 -24 -25 -40 t-48 -16q-27 0 -39 15.5t-7 40.5z" />
<glyph unicode="&#xe5;" horiz-adv-x="966" d="M78 209q17 80 62 131.5t104 73t127 32t135.5 17.5t124.5 20t98.5 47.5t54.5 93.5q17 85 -39 137.5t-186 52.5q-112 0 -203 -36l-51 -199q-3 -11 -6 -14t-14 -3h-36q-13 0 -15.5 4.5t1.5 14.5l42 201q8 42 38 54q31 18 102.5 33t154.5 15q183 0 248 -79.5t33 -231.5 l-75 -351q-17 -66 -11.5 -101.5t18.5 -46.5t38 -11q47 0 58 43q3 21 9 27.5t28 6.5h11q23 0 27.5 -6t-1.5 -20q-25 -121 -154 -121q-70 0 -100 42.5t-12 143.5q-70 -92 -173.5 -141t-226.5 -49q-256 0 -211 220zM162 207q-16 -77 19 -111.5t122 -34.5q79 0 155 29t130 73.5 t91.5 96.5t48.5 101l24 117q-41 -44 -113 -63t-144.5 -23.5t-142 -15.5t-121.5 -51.5t-69 -117.5zM458 1210q11 56 67 95t155 39q97 0 135 -38.5t27 -95.5q-13 -57 -68 -96.5t-152 -39.5q-98 0 -137.5 40t-26.5 96zM532 1210q-6 -32 15 -53t88 -21q63 0 94.5 21.5t37.5 52.5 q6 30 -15.5 51.5t-84.5 21.5q-121 0 -135 -73z" />
<glyph unicode="&#xe6;" horiz-adv-x="1474" d="M74 190q9 41 26.5 75t37 56.5t51 41t55.5 28.5t64.5 19t64.5 12.5t68 9.5q49 6 78.5 11.5t69 19t64 32.5t46 52t31.5 77q11 40 7.5 75t-21 61t-65.5 40.5t-126 14.5q-119 0 -186 -27l-49 -187q-5 -14 -8 -17t-16 -3h-28q-13 0 -16.5 4.5t-1.5 15.5l41 188q7 39 35 54 q80 41 242 41q147 0 209 -42.5t67 -126.5q125 169 353 169q151 0 217 -65t40 -186q-14 -62 -46 -109t-83 -76.5t-104.5 -48t-131.5 -27t-140 -11t-152 -2.5q-12 -73 -4 -126t25 -87.5t50.5 -55.5t72 -29.5t89.5 -8.5q58 0 117 12.5t91 24.5t90 36q18 6 21 -3.5t-3 -28.5 q-4 -20 -11 -28t-24 -17q-128 -67 -300 -67q-290 0 -307 255q-62 -120 -168.5 -187.5t-237.5 -67.5q-118 0 -166.5 53t-27.5 156zM158 188q-28 -134 127 -134q94 0 181.5 50t140 119.5t67.5 137.5l20 99q-38 -44 -103.5 -65.5t-131 -28.5t-129 -19t-110.5 -50.5t-62 -108.5z M780 430q62 0 97 1t92 4t91 8.5t79.5 15t74 24.5t57 35.5t45.5 49.5t25 65q19 88 -33 133.5t-157 45.5q-153 0 -241.5 -93t-129.5 -289z" />
<glyph unicode="&#xe7;" horiz-adv-x="889" d="M134 477q43 201 165 304t312 103q74 0 141 -12.5t101 -29.5q14 -7 17 -16t-2 -33l-49 -231q-3 -11 -7 -14.5t-15 -3.5h-34q-17 0 -15 16l40 224q-75 30 -177 30q-320 0 -395 -358q-17 -79 -18.5 -141t12 -105t37 -72.5t62 -46t82.5 -23.5t102 -7q59 0 99 7t123 29 q14 4 18 -2.5t1 -23.5l-6 -21q-3 -13 -8.5 -18t-21.5 -10q-85 -31 -205 -31q-5 0 -16 1t-17 1l-49 -81q65 0 90.5 -33t14.5 -82q-17 -80 -73.5 -118t-129.5 -38t-127 20q-8 3 -10.5 4.5t-3 7t6.5 14.5l18 28q11 13 25 8q44 -15 95 -15q97 0 115 89q6 30 -15 46.5t-87 16.5 q-4 0 -12.5 -1t-12 -0.5t-7 2.5t-1 8t9.5 16l75 113q-63 9 -111 29t-85 56.5t-55 89.5t-18 130t21 174z" />
<glyph unicode="&#xe8;" d="M134 424q98 460 473 460q151 0 217 -65t40 -186q-9 -42 -27.5 -77t-42.5 -61t-58 -47t-68 -35t-80 -24t-87 -16t-95 -9t-97.5 -4t-101.5 -1q-7 -61 -6 -107.5t15 -80.5t33.5 -57t50 -36.5t64 -19.5t75.5 -6q58 0 117 12.5t91 24.5t90 36q18 6 21.5 -3.5t-2.5 -28.5 q-4 -20 -11 -28t-24 -17q-128 -67 -300 -67q-382 0 -287 443zM220 430q62 0 97 1t92 4t91 8.5t79.5 15t73.5 24.5t56.5 35.5t45.5 49.5t25 65q19 88 -33 133.5t-157 45.5q-153 0 -241 -93t-129 -289zM484 1298q-8 11 -4 17.5t17 6.5h49q11 0 17 -3t8 -5t10 -13l147 -216 q8 -10 5.5 -15t-14.5 -5h-38q-11 0 -17 5t-18 21z" />
<glyph unicode="&#xe9;" d="M134 424q98 460 473 460q151 0 217 -65t40 -186q-9 -42 -27.5 -77t-42.5 -61t-58 -47t-68 -35t-80 -24t-87 -16t-95 -9t-97.5 -4t-101.5 -1q-7 -61 -6 -107.5t15 -80.5t33.5 -57t50 -36.5t64 -19.5t75.5 -6q58 0 117 12.5t91 24.5t90 36q18 6 21.5 -3.5t-2.5 -28.5 q-4 -20 -11 -28t-24 -17q-128 -67 -300 -67q-382 0 -287 443zM220 430q62 0 97 1t92 4t91 8.5t79.5 15t73.5 24.5t56.5 35.5t45.5 49.5t25 65q19 88 -33 133.5t-157 45.5q-153 0 -241 -93t-129 -289zM590 1106l196 179q23 20 43 20h63q13 0 14 -7.5t-12 -18.5l-237 -184 q-9 -11 -30 -11h-35q-12 0 -13 6t11 16z" />
<glyph unicode="&#xea;" d="M134 424q98 460 473 460q151 0 217 -65t40 -186q-9 -42 -27.5 -77t-42.5 -61t-58 -47t-68 -35t-80 -24t-87 -16t-95 -9t-97.5 -4t-101.5 -1q-7 -61 -6 -107.5t15 -80.5t33.5 -57t50 -36.5t64 -19.5t75.5 -6q58 0 117 12.5t91 24.5t90 36q18 6 21.5 -3.5t-2.5 -28.5 q-4 -20 -11 -28t-24 -17q-128 -67 -300 -67q-382 0 -287 443zM220 430q62 0 97 1t92 4t91 8.5t79.5 15t73.5 24.5t56.5 35.5t45.5 49.5t25 65q19 88 -33 133.5t-157 45.5q-153 0 -241 -93t-129 -289zM423 1087q-8 15 13 30l201 155q19 15 33 15h36q18 0 31 -15l134 -155 q15 -15 -3.5 -35t-33.5 -8l-162 136l-218 -136q-4 -2 -6.5 -3t-5 -1t-4 -0.5t-3.5 1t-2.5 1.5t-2 2.5t-2 3.5t-2.5 4.5t-3 4.5z" />
<glyph unicode="&#xeb;" d="M134 424q98 460 473 460q151 0 217 -65t40 -186q-9 -42 -27.5 -77t-42.5 -61t-58 -47t-68 -35t-80 -24t-87 -16t-95 -9t-97.5 -4t-101.5 -1q-7 -61 -6 -107.5t15 -80.5t33.5 -57t50 -36.5t64 -19.5t75.5 -6q58 0 117 12.5t91 24.5t90 36q18 6 21.5 -3.5t-2.5 -28.5 q-4 -20 -11 -28t-24 -17q-128 -67 -300 -67q-382 0 -287 443zM220 430q62 0 97 1t92 4t91 8.5t79.5 15t73.5 24.5t56.5 35.5t45.5 49.5t25 65q19 88 -33 133.5t-157 45.5q-153 0 -241 -93t-129 -289zM441 1147q5 24 24.5 40t46.5 16t39.5 -16.5t7.5 -39.5q-5 -24 -24.5 -40 t-46.5 -16t-39.5 15.5t-7.5 40.5zM758 1147q5 23 25 39.5t47 16.5t39.5 -16.5t7.5 -39.5q-3 -16 -13 -28.5t-26 -20t-34 -7.5q-27 0 -39 15.5t-7 40.5z" />
<glyph unicode="&#xec;" horiz-adv-x="545" d="M173 838q5 17 10.5 22.5t19.5 5.5h190q17 0 23 -7t3 -23l-78 -365h-2l-52 -249q-7 -33 -10 -59t-1.5 -43t6 -28.5t12.5 -17.5t16.5 -8.5t20.5 -2.5q49 0 60 43q1 4 2 10.5t2 8.5t1.5 5.5t2 4.5t3 2.5t4 1.5t5.5 0.5t8 0.5h26q16 0 19.5 -4t-0.5 -22q-14 -68 -48.5 -94.5 t-89.5 -26.5q-35 0 -61.5 9.5t-47 32.5t-24.5 61.5t6 95.5l121 562h2q4 30 -2 36.5t-35 8.5h-103q-4 0 -6.5 0.5t-4 2.5t-2.5 3.5t-1.5 4.5t0 5t1 5.5t1 6t2 6t1.5 5.5zM270 1298q-8 11 -4 17.5t17 6.5h48q11 0 17.5 -2.5t9 -5.5t9.5 -13l147 -216q8 -10 5.5 -15t-14.5 -5 h-38q-11 0 -17 5t-18 21z" />
<glyph unicode="&#xed;" horiz-adv-x="545" d="M173 838q5 17 10.5 22.5t19.5 5.5h190q17 0 23 -7t3 -23l-78 -365h-2l-52 -249q-7 -33 -10 -59t-1.5 -43t6 -28.5t12.5 -17.5t16.5 -8.5t20.5 -2.5q49 0 60 43q1 4 2 10.5t2 8.5t1.5 5.5t2 4.5t3 2.5t4 1.5t5.5 0.5t8 0.5h26q16 0 19.5 -4t-0.5 -22q-14 -68 -48.5 -94.5 t-89.5 -26.5q-35 0 -61.5 9.5t-47 32.5t-24.5 61.5t6 95.5l121 562h2q4 30 -2 36.5t-35 8.5h-103q-4 0 -6.5 0.5t-4 2.5t-2.5 3.5t-1.5 4.5t0 5t1 5.5t1 6t2 6t1.5 5.5zM374 1106l196 179q23 20 43 20h63q13 0 14 -7.5t-12 -18.5l-237 -184q-9 -11 -30 -11h-35q-12 0 -13 6 t11 16z" />
<glyph unicode="&#xee;" horiz-adv-x="545" d="M173 838q5 17 10.5 22.5t19.5 5.5h190q17 0 23 -7t3 -23l-78 -365h-2l-52 -249q-7 -33 -10 -59t-1.5 -43t6 -28.5t12.5 -17.5t16.5 -8.5t20.5 -2.5q49 0 60 43q1 4 2 10.5t2 8.5t1.5 5.5t2 4.5t3 2.5t4 1.5t5.5 0.5t8 0.5h26q16 0 19.5 -4t-0.5 -22q-14 -68 -48.5 -94.5 t-89.5 -26.5q-35 0 -61.5 9.5t-47 32.5t-24.5 61.5t6 95.5l121 562h2q4 30 -2 36.5t-35 8.5h-103q-4 0 -6.5 0.5t-4 2.5t-2.5 3.5t-1.5 4.5t0 5t1 5.5t1 6t2 6t1.5 5.5zM209 1087q-8 15 13 30l201 155q19 15 33 15h36q18 0 31 -15l134 -155q15 -15 -3.5 -35t-33.5 -8 l-162 136l-218 -136q-18 -8 -25 2q-1 2 -4 7z" />
<glyph unicode="&#xef;" horiz-adv-x="545" d="M173 838q5 17 10.5 22.5t19.5 5.5h190q17 0 23 -7t3 -23l-78 -365h-2l-52 -249q-7 -33 -10 -59t-1.5 -43t6 -28.5t12.5 -17.5t16.5 -8.5t20.5 -2.5q49 0 60 43q1 4 2 10.5t2 8.5t1.5 5.5t2 4.5t3 2.5t4 1.5t5.5 0.5t8 0.5h26q16 0 19.5 -4t-0.5 -22q-14 -68 -48.5 -94.5 t-89.5 -26.5q-35 0 -61.5 9.5t-47 32.5t-24.5 61.5t6 95.5l121 562h2q4 30 -2 36.5t-35 8.5h-103q-4 0 -6.5 0.5t-4 2.5t-2.5 3.5t-1.5 4.5t0 5t1 5.5t1 6t2 6t1.5 5.5zM227 1147q5 24 24.5 40t46.5 16t39 -16.5t7 -39.5q-3 -16 -12.5 -28.5t-24.5 -20t-33 -7.5 q-27 0 -39.5 15.5t-7.5 40.5zM544 1147q5 23 25 39.5t47 16.5t39.5 -16.5t7.5 -39.5q-3 -16 -13 -28.5t-26 -20t-34 -7.5q-27 0 -39 15.5t-7 40.5z" />
<glyph unicode="&#xf0;" horiz-adv-x="986" d="M127 393q17 79 49.5 148.5t83.5 129.5t127 95t168 35q189 0 266 -170q26 203 -15 348t-151 214l-115 -162q-7 -8 -15 -3l-43 26q-9 5 0 15l110 154q-72 26 -158 26h-19q-16 0 -9 23l5 31q6 19 19 19h19q101 0 191 -32l108 153q11 14 21 5l33 -22q7 -5 7 -8.5t-5 -11.5 l-102 -146q101 -58 156 -170.5t59 -257.5t-31 -320q-52 -245 -174 -388t-314 -143q-166 0 -238 111.5t-33 300.5zM212 402q-35 -170 19.5 -260t179.5 -90q147 0 244 116.5t142 328.5q-18 118 -79 175.5t-171 57.5q-130 0 -216.5 -90t-118.5 -238z" />
<glyph unicode="&#xf1;" horiz-adv-x="1091" d="M13 37q3 15 7.5 20.5t14.5 5.5h39.5t32 0.5t27 1.5t21 3t17.5 4t12.5 6.5t11 9t7 12t6.5 15.5t5 19l129 605q7 33 -2 46.5t-32 13.5h-106q-9 0 -10.5 3.5t1.5 16.5l5 23q3 16 6.5 20t14.5 4h197q19 0 23 -7.5t1 -26.5l-26 -121q63 88 146.5 130.5t172.5 42.5 q127 0 173.5 -65t17.5 -201l-83 -396q-9 -40 -11 -69t1 -46t11.5 -27t18.5 -13.5t24 -3.5q47 0 58 43q3 16 4 19.5t4.5 9t7.5 5.5h14h26q16 0 19 -4t-1 -22q-14 -68 -48 -94.5t-89 -26.5q-35 0 -61.5 9.5t-47 32.5t-24.5 61.5t6 95.5l91 424q10 57 9 95t-17.5 60.5 t-40.5 31.5t-61 9q-137 0 -240.5 -110t-151.5 -337l-43 -205q0 -2 -1 -5q-6 -27 -8 -38t1 -25t8.5 -17t26 -7.5t40.5 -4.5h65q21 0 22.5 -9t-5.5 -28q-2 -11 -4 -16t-7 -7.5t-15 -2.5h-395q-20 0 -21 11t6 26zM592 1110q-10 7 2 22q19 23 34.5 39t31.5 26.5t32.5 15.5 t35.5 5q27 0 50.5 -10t37 -22t31 -22t34.5 -10q19 0 31.5 10t31.5 37q10 15 20 9l26 -17q7 -5 6.5 -8t-7.5 -12q-33 -47 -62 -68t-67 -21q-26 0 -49.5 10t-37.5 21.5t-30.5 21.5t-31.5 10q-19 0 -32.5 -9t-38.5 -36q-8 -9 -12.5 -10t-9.5 3z" />
<glyph unicode="&#xf2;" horiz-adv-x="1001" d="M134 458q18 84 54.5 158t92.5 135.5t139 97t183 35.5q88 0 154 -25.5t102.5 -69.5t57.5 -103.5t19 -126.5t-14 -138q-18 -84 -56 -158.5t-95.5 -136.5t-140.5 -98.5t-181 -36.5q-88 0 -153.5 26t-103 70.5t-56.5 105t-18.5 126.5t16.5 139zM216 434q-18 -73 -12.5 -140.5 t29 -119t78.5 -82.5t136 -31q156 0 255.5 106.5t133.5 266.5q18 73 12.5 141.5t-29 121.5t-78 85t-134.5 32q-81 0 -149 -31.5t-115.5 -86t-79 -120.5t-47.5 -142zM499 1298q-8 11 -4 17.5t17 6.5h48q11 0 17.5 -2.5t9 -5.5t9.5 -13l147 -216q17 -20 -9 -20h-38q-11 0 -17 5 t-18 21z" />
<glyph unicode="&#xf3;" horiz-adv-x="1001" d="M134 458q18 84 54.5 158t92.5 135.5t139 97t183 35.5q88 0 154 -25.5t102.5 -69.5t57.5 -103.5t19 -126.5t-14 -138q-18 -84 -56 -158.5t-95.5 -136.5t-140.5 -98.5t-181 -36.5q-88 0 -153.5 26t-103 70.5t-56.5 105t-18.5 126.5t16.5 139zM216 434q-18 -73 -12.5 -140.5 t29 -119t78.5 -82.5t136 -31q156 0 255.5 106.5t133.5 266.5q18 73 12.5 141.5t-29 121.5t-78 85t-134.5 32q-81 0 -149 -31.5t-115.5 -86t-79 -120.5t-47.5 -142zM605 1106l196 179q23 20 42 20h64q13 0 14 -7.5t-12 -18.5l-237 -184q-9 -11 -30 -11h-35q-12 0 -13 6t11 16 z" />
<glyph unicode="&#xf4;" horiz-adv-x="1001" d="M134 458q18 84 54.5 158t92.5 135.5t139 97t183 35.5q88 0 154 -25.5t102.5 -69.5t57.5 -103.5t19 -126.5t-14 -138q-18 -84 -56 -158.5t-95.5 -136.5t-140.5 -98.5t-181 -36.5q-88 0 -153.5 26t-103 70.5t-56.5 105t-18.5 126.5t16.5 139zM216 434q-18 -73 -12.5 -140.5 t29 -119t78.5 -82.5t136 -31q156 0 255.5 106.5t133.5 266.5q18 73 12.5 141.5t-29 121.5t-78 85t-134.5 32q-81 0 -149 -31.5t-115.5 -86t-79 -120.5t-47.5 -142zM436 1087q-8 15 13 30l201 155q19 15 33 15h36q18 0 31 -15l134 -155q15 -15 -3.5 -35t-33.5 -8l-162 136 l-218 -136q-4 -2 -6.5 -3t-5 -1t-4 -0.5t-3.5 1t-2.5 1.5t-2 2.5t-2 3.5t-2.5 4.5t-3 4.5z" />
<glyph unicode="&#xf5;" horiz-adv-x="1001" d="M134 458q18 84 54.5 158t92.5 135.5t139 97t183 35.5q88 0 154 -25.5t102.5 -69.5t57.5 -103.5t19 -126.5t-14 -138q-18 -84 -56 -158.5t-95.5 -136.5t-140.5 -98.5t-181 -36.5q-88 0 -153.5 26t-103 70.5t-56.5 105t-18.5 126.5t16.5 139zM216 434q-18 -73 -12.5 -140.5 t29 -119t78.5 -82.5t136 -31q156 0 255.5 106.5t133.5 266.5q18 73 12.5 141.5t-29 121.5t-78 85t-134.5 32q-81 0 -149 -31.5t-115.5 -86t-79 -120.5t-47.5 -142zM492 1110q-11 7 1 22q37 46 67 66t67 20q43 0 86.5 -32t66.5 -32q19 0 31.5 10t31.5 37q10 15 21 9l26 -17 q6 -5 5.5 -8t-7.5 -12q-33 -47 -61.5 -68t-66.5 -21q-33 0 -61 16t-49 31.5t-39 15.5q-19 0 -32.5 -9t-38.5 -36q-11 -13 -22 -7z" />
<glyph unicode="&#xf6;" horiz-adv-x="1001" d="M134 458q18 84 54.5 158t92.5 135.5t139 97t183 35.5q88 0 154 -25.5t102.5 -69.5t57.5 -103.5t19 -126.5t-14 -138q-18 -84 -56 -158.5t-95.5 -136.5t-140.5 -98.5t-181 -36.5q-88 0 -153.5 26t-103 70.5t-56.5 105t-18.5 126.5t16.5 139zM216 434q-18 -73 -12.5 -140.5 t29 -119t78.5 -82.5t136 -31q156 0 255.5 106.5t133.5 266.5q18 73 12.5 141.5t-29 121.5t-78 85t-134.5 32q-81 0 -149 -31.5t-115.5 -86t-79 -120.5t-47.5 -142zM456 1147q5 24 24.5 40t46.5 16t39 -16.5t7 -39.5q-5 -25 -24 -40.5t-46 -15.5t-39.5 15.5t-7.5 40.5z M773 1147q5 23 25 39.5t47 16.5t39.5 -16.5t7.5 -39.5q-5 -24 -25 -40t-48 -16q-27 0 -39 15.5t-7 40.5z" />
<glyph unicode="&#xf7;" horiz-adv-x="1213" d="M188 423l17 80h882l-16 -80h-883zM492 141q5 25 27 41.5t54 16.5q30 0 46.5 -17t11.5 -41q-5 -23 -28.5 -39t-53.5 -16q-31 0 -46.5 16t-10.5 39zM626 773q5 26 27.5 41.5t53.5 15.5q30 0 46.5 -15.5t11.5 -41.5q-5 -21 -28 -37.5t-52 -16.5q-30 0 -47 16t-12 38z" />
<glyph unicode="&#xf8;" horiz-adv-x="1001" d="M119 -140l119 187q-58 41 -89 107t-31.5 142t16.5 162q18 84 54.5 158t92.5 135.5t139 97t183 35.5q86 0 157 -28l109 170q9 17 23 17h59q15 0 0 -21l-128 -201q80 -60 104 -171.5t-5 -228.5q-18 -84 -56 -158.5t-95.5 -136.5t-140.5 -98.5t-181 -36.5q-73 0 -146 22 l-98 -154q-7 -12 -24 -12h-58q-15 0 -4 13zM216 434q-23 -97 -8 -186t71 -136l440 681q-48 21 -112 21q-81 0 -149 -31.5t-115.5 -86t-79 -120.5t-47.5 -142zM344 76q38 -15 103 -15q156 0 255.5 106.5t133.5 266.5q45 221 -58 318z" />
<glyph unicode="&#xf9;" horiz-adv-x="1070" d="M155 840q5 17 9.5 21.5t17.5 4.5h198q15 0 18.5 -7.5t-0.5 -28.5l-115 -543q-12 -55 -12.5 -95t8.5 -65.5t29 -40.5t45.5 -20.5t61.5 -5.5q68 0 122.5 18t101.5 58.5t81.5 110t55.5 168.5l71 333q9 51 -35 51h-106q-4 0 -6.5 1.5t-3.5 4.5t-1.5 5.5t0.5 7.5l1.5 7.5t2 8 t1.5 6.5q4 16 9.5 21t16.5 5h197q11 0 16.5 -3t6.5 -11t-2 -22l-30 -147h2l-101 -471h-1q-9 -47 -10 -77.5t6.5 -45.5t19 -20.5t30.5 -5.5q49 0 60 43q1 5 2 12t1.5 9t2 5.5t2.5 4l4 2t6.5 1.5h9.5h26q15 0 17.5 -4t-1.5 -22q-14 -69 -47.5 -95t-89.5 -26q-62 0 -99 34 t-33 111q-105 -151 -306 -151q-144 0 -195.5 70t-16.5 233q72 335 99 458q9 51 -34 51h-106q-4 0 -7 1.5t-4 4t-1.5 5.5t0.5 7.5t1.5 7.5t2 8t1.5 7zM484 1298q-8 11 -4 17.5t17 6.5h49q11 0 17 -3t8 -5t10 -13l147 -216q8 -10 5.5 -15t-14.5 -5h-38q-11 0 -17 5t-18 21z " />
<glyph unicode="&#xfa;" horiz-adv-x="1070" d="M155 840q5 17 9.5 21.5t17.5 4.5h198q15 0 18.5 -7.5t-0.5 -28.5l-115 -543q-12 -55 -12.5 -95t8.5 -65.5t29 -40.5t45.5 -20.5t61.5 -5.5q68 0 122.5 18t101.5 58.5t81.5 110t55.5 168.5l71 333q9 51 -35 51h-106q-4 0 -6.5 1.5t-3.5 4.5t-1.5 5.5t0.5 7.5l1.5 7.5t2 8 t1.5 6.5q4 16 9.5 21t16.5 5h197q11 0 16.5 -3t6.5 -11t-2 -22l-30 -147h2l-101 -471h-1q-9 -47 -10 -77.5t6.5 -45.5t19 -20.5t30.5 -5.5q49 0 60 43q1 5 2 12t1.5 9t2 5.5t2.5 4l4 2t6.5 1.5h9.5h26q15 0 17.5 -4t-1.5 -22q-14 -69 -47.5 -95t-89.5 -26q-62 0 -99 34 t-33 111q-105 -151 -306 -151q-144 0 -195.5 70t-16.5 233q72 335 99 458q9 51 -34 51h-106q-4 0 -7 1.5t-4 4t-1.5 5.5t0.5 7.5t1.5 7.5t2 8t1.5 7zM590 1106l196 179q23 20 43 20h63q13 0 14 -7.5t-12 -18.5l-237 -184q-9 -11 -30 -11h-35q-12 0 -13 6t11 16z" />
<glyph unicode="&#xfb;" horiz-adv-x="1070" d="M155 840q5 17 9.5 21.5t17.5 4.5h198q15 0 18.5 -7.5t-0.5 -28.5l-115 -543q-12 -55 -12.5 -95t8.5 -65.5t29 -40.5t45.5 -20.5t61.5 -5.5q68 0 122.5 18t101.5 58.5t81.5 110t55.5 168.5l71 333q9 51 -35 51h-106q-4 0 -6.5 1.5t-3.5 4.5t-1.5 5.5t0.5 7.5l1.5 7.5t2 8 t1.5 6.5q4 16 9.5 21t16.5 5h197q11 0 16.5 -3t6.5 -11t-2 -22l-30 -147h2l-101 -471h-1q-9 -47 -10 -77.5t6.5 -45.5t19 -20.5t30.5 -5.5q49 0 60 43q1 5 2 12t1.5 9t2 5.5t2.5 4l4 2t6.5 1.5h9.5h26q15 0 17.5 -4t-1.5 -22q-14 -69 -47.5 -95t-89.5 -26q-62 0 -99 34 t-33 111q-105 -151 -306 -151q-144 0 -195.5 70t-16.5 233q72 335 99 458q9 51 -34 51h-106q-4 0 -7 1.5t-4 4t-1.5 5.5t0.5 7.5t1.5 7.5t2 8t1.5 7zM423 1087q-8 15 13 30l201 155q19 15 33 15h36q18 0 31 -15l134 -155q15 -15 -3.5 -35t-33.5 -8l-162 136l-218 -136 q-4 -2 -6.5 -3t-5 -1t-4 -0.5t-3.5 0.5t-2.5 1.5t-2 3t-2 3.5t-2.5 4.5t-3 4.5z" />
<glyph unicode="&#xfc;" horiz-adv-x="1070" d="M155 840q5 17 9.5 21.5t17.5 4.5h198q15 0 18.5 -7.5t-0.5 -28.5l-115 -543q-12 -55 -12.5 -95t8.5 -65.5t29 -40.5t45.5 -20.5t61.5 -5.5q68 0 122.5 18t101.5 58.5t81.5 110t55.5 168.5l71 333q9 51 -35 51h-106q-4 0 -6.5 1.5t-3.5 4.5t-1.5 5.5t0.5 7.5l1.5 7.5t2 8 t1.5 6.5q4 16 9.5 21t16.5 5h197q11 0 16.5 -3t6.5 -11t-2 -22l-30 -147h2l-101 -471h-1q-9 -47 -10 -77.5t6.5 -45.5t19 -20.5t30.5 -5.5q49 0 60 43q1 5 2 12t1.5 9t2 5.5t2.5 4l4 2t6.5 1.5h9.5h26q15 0 17.5 -4t-1.5 -22q-14 -69 -47.5 -95t-89.5 -26q-62 0 -99 34 t-33 111q-105 -151 -306 -151q-144 0 -195.5 70t-16.5 233q72 335 99 458q9 51 -34 51h-106q-4 0 -7 1.5t-4 4t-1.5 5.5t0.5 7.5t1.5 7.5t2 8t1.5 7zM441 1147q5 24 24.5 40t46.5 16t39.5 -16.5t7.5 -39.5q-5 -24 -24.5 -40t-46.5 -16t-39.5 15.5t-7.5 40.5zM758 1147 q5 23 25 39.5t47 16.5t39.5 -16.5t7.5 -39.5q-5 -24 -25 -40t-48 -16q-27 0 -39 15.5t-7 40.5z" />
<glyph unicode="&#xfd;" horiz-adv-x="1007" d="M17 -356l5 30q3 9 7 12.5t18 4.5q18 2 43.5 4t35 3t25 3t21.5 4.5t14.5 6.5t14 9.5t11.5 14.5q116 162 186 268q-4 2 -7 11q-13 36 -29 92.5t-34.5 143t-29 173t-12.5 182.5t16 172q4 14 -12 17q-16 4 -109 4q-10 0 -12.5 2.5t-0.5 10.5l9 41q2 13 17 13h331q12 0 9 -13 l-9 -39q-3 -12 -9 -14q-3 -1 -8 -1q-60 0 -86.5 -2.5t-30.5 -6t-7 -12.5q-15 -92 -13.5 -187.5t18 -205t32.5 -183t30 -120.5q186 289 387 685q11 20 3 25q-14 7 -111 7q-11 0 -13 3t0 12l9 39q3 13 15 13h330q11 0 13 -3t0 -12l-10 -39q-3 -13 -15 -13q-48 0 -70 -1 t-37.5 -6.5t-20.5 -12t-13 -23.5q-261 -533 -650 -1069q-22 -27 -47 -41t-40 -16t-40 -2h-107q-16 0 -17.5 1.5t0.5 14.5zM626 1106l195 179q23 20 43 20h63q13 0 14 -7.5t-12 -18.5l-236 -184q-9 -11 -30 -11h-36q-12 0 -12.5 6t11.5 16z" />
<glyph unicode="&#xfe;" horiz-adv-x="1029" d="M-134 -317q3 16 7.5 21.5t16.5 5.5h68.5t44.5 4t31 7.5t16.5 17.5t12 26.5t8.5 40.5l138 646h-2l154 725q7 33 -1 46t-30 13h-107q-10 0 -12 4t1 17l6 22q3 17 6 20.5t16 3.5h196q20 0 24.5 -7.5t-0.5 -25.5l-127 -598q58 102 148 156.5t186 54.5q95 0 161 -35.5 t96.5 -98.5t37 -148.5t-17.5 -185.5q-42 -194 -154.5 -314t-286.5 -120q-104 0 -184 47.5t-92 137.5l-76 -360q-6 -30 -8.5 -40.5t1 -25.5t8 -18t26 -7.5t40.5 -4.5h65q22 0 24.5 -9.5t-4.5 -28.5q-3 -16 -8 -21t-21 -5h-393q-8 0 -12.5 1.5t-6 5.5t-1 7t2 11t2.5 12z M289 406q-34 -160 17.5 -256t194.5 -96q146 0 234.5 102t126.5 276q19 80 16.5 149t-22 120.5t-68 81t-121.5 29.5q-144 0 -241.5 -110t-136.5 -296z" />
<glyph unicode="&#xff;" horiz-adv-x="1007" d="M17 -356l5 30q3 9 7 12.5t18 4.5q18 2 43.5 4t35 3t25 3t21.5 4.5t14.5 6.5t14 9.5t11.5 14.5q116 162 186 268q-4 2 -7 11q-13 36 -29 92.5t-34.5 143t-29 173t-12.5 182.5t16 172q4 14 -12 17q-16 4 -109 4q-10 0 -12.5 2.5t-0.5 10.5l9 41q2 13 17 13h331q12 0 9 -13 l-9 -39q-3 -12 -9 -14q-3 -1 -8 -1q-60 0 -86.5 -2.5t-30.5 -6t-7 -12.5q-15 -92 -13.5 -187.5t18 -205t32.5 -183t30 -120.5q186 289 387 685q11 20 3 25q-14 7 -111 7q-11 0 -13 3t0 12l9 39q3 13 15 13h330q11 0 13 -3t0 -12l-10 -39q-3 -13 -15 -13q-48 0 -70 -1 t-37.5 -6.5t-20.5 -12t-13 -23.5q-261 -533 -650 -1069q-22 -27 -47 -41t-40 -16t-40 -2h-107q-16 0 -17.5 1.5t0.5 14.5zM477 1147q6 24 24.5 40t45.5 16t39.5 -16.5t7.5 -39.5q-5 -24 -24.5 -40t-46.5 -16t-39 15.5t-7 40.5zM793 1147q5 23 25.5 39.5t47.5 16.5t39 -16.5 t7 -39.5q-5 -24 -25 -40t-47 -16t-39.5 15.5t-7.5 40.5z" />
<glyph unicode="&#x152;" horiz-adv-x="2111" d="M201 670q31 142 92 260t148.5 206t206 137t257.5 49q201 0 319.5 -91.5t151.5 -254.5q5 38 7 46q61 300 423 300q214 0 326 -41q7 -2 11.5 -4t7.5 -4.5t4.5 -4t1.5 -6t-0.5 -6t-2 -9t-2.5 -11.5l-50 -236q-5 -17 -8.5 -20t-17.5 -3h-24q-11 0 -13.5 3t-1.5 16l30 223 q-90 28 -257 28q-144 0 -232 -50t-115 -177q-33 -155 43.5 -225.5t236.5 -70.5h137q7 0 11 -2t5 -8t0.5 -9.5t-2 -13t-2.5 -13.5q-4 -16 -9.5 -21t-16.5 -5h-138q-292 0 -404 -162q-10 -26 -29.5 -71t-26.5 -63q-33 -157 46.5 -228.5t279.5 -71.5q166 0 361 46q12 3 14 0 t-1 -16l-8 -39q-3 -11 -10 -15.5t-23 -9.5q-48 -16 -141 -28.5t-190 -12.5q-93 0 -163.5 11t-128.5 36.5t-91 72.5t-40 115q-197 -235 -516 -235q-119 0 -210.5 33.5t-148.5 94.5t-89 146.5t-31.5 190t23.5 224.5zM285 655q-59 -279 39.5 -439t330.5 -160q175 0 314.5 91 t225.5 257q15 52 43 102q25 63 43 149q60 278 -38.5 435t-333.5 157q-232 0 -398 -157t-226 -435zM1363 627q79 46 188 62q-46 8 -92.5 43.5t-69.5 101.5q-3 -103 -24 -201z" />
<glyph unicode="&#x153;" horiz-adv-x="1612" d="M134 458q10 47 25.5 91.5t39 87.5t52 79.5t66 67.5t80.5 53t95.5 34.5t110.5 12.5q134 0 213 -58t106 -158q128 216 383 216q151 0 217 -65t40 -186q-9 -42 -27.5 -77t-42.5 -61t-58.5 -47t-68.5 -35t-80 -24t-87 -16t-95 -9t-97 -4t-101 -1q-7 -61 -6 -107.5t15 -80.5 t34 -57t50.5 -36.5t64 -19.5t75.5 -6q58 0 117 12.5t90 24t90 36.5q18 6 21.5 -3.5t-2.5 -28.5q-4 -20 -11 -28t-24 -17q-128 -67 -300 -67q-262 0 -298 205q-137 -195 -372 -195q-88 0 -153.5 26t-103 70.5t-56.5 105t-18.5 126.5t16.5 139zM216 434q-13 -60 -13.5 -113.5 t13 -101.5t41.5 -83t76.5 -55t113.5 -20q75 0 139 26.5t110.5 73.5t79 105.5t51.5 128.5l13 69q7 40 8 77.5t-4.5 72.5t-17 65t-31 55t-45.5 42.5t-62.5 27.5t-80.5 10q-81 0 -149 -31.5t-115.5 -86t-79 -120.5t-47.5 -142zM923 430q62 0 96.5 1t90.5 4t90 8.5t79 15 t73 24.5t56 35.5t45 49.5t25 65q19 88 -33 133.5t-157 45.5q-141 0 -227 -79.5t-130 -244.5q-4 -40 -8 -58z" />
<glyph unicode="&#x178;" horiz-adv-x="1228" d="M244 1259l5 26q5 18 23 18h368q18 0 12 -16l-6 -27q-3 -20 -22 -20q-82 0 -110.5 -4t-31.5 -18q-15 -69 -16.5 -134t10 -123t28.5 -107.5t45.5 -100t54.5 -88.5t61 -84q89 74 148.5 130t131 138.5t118.5 174.5t69 194q2 7 -3.5 11.5t-22.5 7t-41 3t-67 0.5q-18 0 -15 20 l6 27q6 16 18 16h369q18 0 13 -18l-6 -26q0 -2 -1 -4q-3 -13 -10 -14l-9 -1q-82 0 -115 -4.5t-34 -17.5q-17 -77 -46.5 -150t-74 -139t-86 -119t-103.5 -113.5t-103 -97.5t-108 -94q-2 -2 -2 -4l-67 -311h2l-6 -30q-5 -23 -7 -31.5t-2 -23t1 -18t9.5 -11t16 -8t27.5 -3 t37 -2.5h52q21 0 22.5 -9t-5.5 -28q-3 -16 -7.5 -21t-20.5 -5h-395q-9 0 -13.5 1.5t-5.5 6t-1 7t2 11t3 11.5q3 11 4 15t6 7.5t14 3.5h54t39.5 2t30.5 3t20 7.5t15.5 11t9 18t8 23.5t6.5 32l73 346q-37 50 -57.5 79.5t-53 83t-50.5 93t-37.5 97.5t-26 110t-4.5 117t16 132 q1 6 -5.5 10.5t-23.5 7t-43.5 3.5t-68.5 1q-14 0 -16.5 4t1.5 15zM637 1441q5 24 23.5 40t45.5 16t40 -16.5t8 -39.5q-5 -25 -24.5 -40.5t-46.5 -15.5t-39 15.5t-7 40.5zM953 1441q5 23 24.5 39.5t46.5 16.5t40 -16.5t8 -39.5q-5 -24 -25 -40t-47 -16t-39.5 15.5t-7.5 40.5z " />
<glyph unicode="&#x2c6;" horiz-adv-x="670" d="M337 1381q-7 15 15 30l199 155q19 15 35 15h36q17 0 30 -15l136 -155q5 -5 6.5 -10t-2 -11t-6.5 -8.5t-10 -9.5q-12 -15 -26 -4l-164 136l-215 -136q-17 -5 -21 -3t-13 16z" />
<glyph unicode="&#x2dc;" horiz-adv-x="642" d="M380 1404q-10 6 0 22q37 46 67 66t67 20q34 0 61.5 -16t49.5 -32t43 -16q19 0 31 9.5t31 37.5q10 16 20 9l26 -16q7 -6 6.5 -8.5t-6.5 -12.5q-35 -48 -62.5 -68.5t-65.5 -20.5q-33 0 -61 16t-49 31.5t-39 15.5q-19 0 -32.5 -9t-38.5 -36q-9 -9 -13.5 -10t-8.5 3z" />
<glyph unicode="&#x2000;" horiz-adv-x="822" />
<glyph unicode="&#x2001;" horiz-adv-x="1644" />
<glyph unicode="&#x2002;" horiz-adv-x="822" />
<glyph unicode="&#x2003;" horiz-adv-x="1644" />
<glyph unicode="&#x2004;" horiz-adv-x="548" />
<glyph unicode="&#x2005;" horiz-adv-x="411" />
<glyph unicode="&#x2006;" horiz-adv-x="274" />
<glyph unicode="&#x2007;" horiz-adv-x="274" />
<glyph unicode="&#x2008;" horiz-adv-x="205" />
<glyph unicode="&#x2009;" horiz-adv-x="328" />
<glyph unicode="&#x200a;" horiz-adv-x="91" />
<glyph unicode="&#x2010;" horiz-adv-x="943" d="M199 527l8 39q3 15 18 15h607q15 0 11 -17l-7 -33q-3 -19 -22 -19h-604q-16 0 -11 15z" />
<glyph unicode="&#x2011;" horiz-adv-x="943" d="M199 527l8 39q3 15 18 15h607q15 0 11 -17l-7 -33q-3 -19 -22 -19h-604q-16 0 -11 15z" />
<glyph unicode="&#x2012;" horiz-adv-x="943" d="M199 527l8 39q3 15 18 15h607q15 0 11 -17l-7 -33q-3 -19 -22 -19h-604q-16 0 -11 15z" />
<glyph unicode="&#x2013;" horiz-adv-x="1267" d="M195 514l14 58q3 11 13 11h932q13 0 10 -13l-12 -52q-3 -10 -6 -12.5t-12 -2.5h-929q-12 0 -10 11z" />
<glyph unicode="&#x2014;" horiz-adv-x="1671" d="M195 514l14 58q3 11 13 11h1336q13 0 10 -13l-12 -52q-3 -10 -5.5 -12.5t-10.5 -2.5h-1335q-12 0 -10 11z" />
<glyph unicode="&#x2018;" horiz-adv-x="418" d="M279 996l170 307q10 19 31 19h23q23 0 13 -19l-160 -318q-7 -17 -14 -22.5t-24 -5.5h-29q-14 0 -18.5 5t-2 13t10.5 21z" />
<glyph unicode="&#x2019;" horiz-adv-x="418" d="M268 976l160 318q12 22 20 25q6 3 17 3h30q14 0 18.5 -5t2 -13t-10.5 -21l-170 -307q-10 -19 -32 -19h-22q-23 0 -13 19z" />
<glyph unicode="&#x201a;" horiz-adv-x="379" d="M-39 -201l160 318q5 12 8.5 16.5t10 8t18.5 3.5h30q13 0 17 -5t2 -12.5t-10 -21.5l-169 -307q-10 -19 -34 -19h-22q-12 0 -14.5 4.5t3.5 14.5z" />
<glyph unicode="&#x201c;" horiz-adv-x="629" d="M279 996l170 307q10 19 31 19h23q23 0 13 -19l-160 -318q-7 -17 -14 -22.5t-24 -5.5h-29q-14 0 -18.5 5t-2 13t10.5 21zM490 996l169 307q10 19 32 19h22q23 0 13 -19l-160 -318q-5 -12 -8.5 -16.5t-10 -8t-18.5 -3.5h-30q-14 0 -18 5t-1.5 13t10.5 21z" />
<glyph unicode="&#x201d;" horiz-adv-x="629" d="M268 976l160 318q12 22 20 25q6 3 17 3h30q14 0 18.5 -5t2 -13t-10.5 -21l-170 -307q-10 -19 -32 -19h-22q-23 0 -13 19zM478 976l161 318q12 22 20 25q6 3 17 3h30q14 0 18 -5t1.5 -13t-10.5 -21l-169 -307q-10 -19 -32 -19h-22q-24 0 -14 19z" />
<glyph unicode="&#x201e;" horiz-adv-x="629" d="M-39 -201l160 318q5 12 8.5 16.5t10 8t18.5 3.5h30q13 0 17 -5t2 -12.5t-10 -21.5l-169 -307q-10 -19 -34 -19h-22q-12 0 -14.5 4.5t3.5 14.5zM210 -201l161 318q5 12 8.5 16.5t10 8t18.5 3.5h30q13 0 17 -5t2 -12.5t-10 -21.5l-170 -307q-10 -19 -33 -19h-22 q-22 0 -12 19z" />
<glyph unicode="&#x2022;" horiz-adv-x="558" d="M235 456q5 24 29 40t56 16q31 0 49.5 -16t14.5 -40q-5 -23 -31 -39.5t-57 -16.5q-32 0 -49 16.5t-12 39.5z" />
<glyph unicode="&#x2026;" horiz-adv-x="1303" d="M97 54q5 27 27 46t51 19q25 0 40 -19.5t10 -45.5q-6 -31 -28.5 -48t-49.5 -17q-30 0 -43.5 16.5t-6.5 48.5zM531 54q5 27 27 46t51 19q26 0 41.5 -19.5t10.5 -45.5q-6 -31 -29 -48t-51 -17q-30 0 -43.5 16.5t-6.5 48.5zM966 54q5 27 27.5 46t49.5 19q26 0 41.5 -19.5 t10.5 -45.5q-6 -31 -29 -48t-51 -17q-29 0 -42.5 17t-6.5 48z" />
<glyph unicode="&#x202f;" horiz-adv-x="328" />
<glyph unicode="&#x2039;" horiz-adv-x="638" d="M117 452q-11 15 -10 21.5t16 19.5l454 399q23 21 32 13l30 -26q5 -5 2.5 -9.5t-17.5 -18.5l-417 -374l255 -367q13 -18 14.5 -22.5t-5.5 -9.5l-43 -26q-9 -5 -13.5 -2.5t-14.5 15.5z" />
<glyph unicode="&#x203a;" horiz-adv-x="640" d="M63 78q-3 4 0.5 8.5t24.5 23.5l411 367l-257 374q-10 14 -10.5 19t6.5 9l43 26q9 9 22 -13l287 -399q9 -12 7 -19.5t-18 -21.5l-449 -387q-15 -13 -20.5 -15.5t-12.5 2.5z" />
<glyph unicode="&#x205f;" horiz-adv-x="411" />
<glyph unicode="&#x20ac;" horiz-adv-x="1431" d="M125 451l46 46q15 15 30 15h149q2 30 15 93h-196q-22 0 -9 13l47 47q15 15 29 15h144q75 319 256 480.5t444 161.5q218 0 359 -37q19 -5 22.5 -12t-1.5 -33l-60 -277q-3 -16 -7.5 -19.5t-16.5 -3.5h-32q-15 0 -18 3.5t0 15.5l41 262q-117 28 -283 28q-231 0 -390.5 -143 t-229.5 -426h661q6 0 8.5 -2t1 -6.5t-8.5 -10.5l-54 -43q-17 -13 -28 -13h-595q-13 -63 -15 -93h527q21 0 2 -19l-54 -42q-17 -13 -30 -13h-451q-5 -196 97 -286.5t315 -90.5q156 0 381 45q14 4 20 0.5t3 -17.5l-6 -20q-4 -22 -11 -28t-30 -11q-219 -43 -357 -43 q-256 0 -380.5 107.5t-116.5 343.5h-211q-8 0 -11 1.5t-2 4t6 7.5z" />
<glyph unicode="&#x2122;" horiz-adv-x="1692" d="M333 534l4 25q5 14 9 15q2 1 4 1q49 2 63.5 7.5t20.5 30.5l134 625h-127q-15 0 -18 -19l-34 -121q-8 -10 -13 -11h-33q-14 0 -10 13l41 190q1 9 4 11t11 2h462q5 0 7 -0.5t4 -3.5t0 -9l-41 -190q-4 -13 -13 -13h-33q-14 0 -10 13l19 119q3 19 -13 19h-125l-128 -605 q-9 -41 -1 -49.5t56 -8.5q11 0 12.5 -3.5t-2.5 -14.5l-4 -21q0 -1 -1 -3q-8 -11 -14 -12h-223q-8 0 -9.5 2.5t1.5 10.5zM754 534l4 25q3 10 6 13t11 3q45 2 57 10t19 44l123 574q5 31 -4.5 38.5t-57.5 7.5q-9 0 -6 11q1 4 1 6l5 24q2 8 4 10.5t9 2.5h157q6 0 10.5 -1 t7.5 -1.5t5 -3.5t3 -4t1.5 -6t0.5 -7v-9.5v-10.5q0 -95 23.5 -321.5t43.5 -335.5h2q57 93 162 319t150 338q2 5 6 13.5t5.5 11.5t5.5 7.5t7.5 6t9 3t13.5 1.5h164q9 0 11 -2.5t0 -10.5l-6 -24q-2 -10 -4.5 -13.5t-10.5 -3.5q-54 -2 -67 -8.5t-18 -37.5l-119 -563 q-9 -40 1.5 -54t33.5 -14q15 0 29 12.5t19 37.5q4 11 10 11h33q4 0 4 -6l-2 -5q-11 -54 -43 -83t-80 -29q-112 0 -85 136l111 519q-59 -142 -164.5 -352.5t-151.5 -278.5q-11 -13 -26 -13h-45q-18 0 -20 13q-23 83 -48.5 270.5t-33.5 340.5l-110 -518q-7 -36 0.5 -44 t49.5 -8q12 0 14 -3.5t-1 -14.5l-4 -21q-5 -13 -9 -14q-2 -1 -7 -1h-200q-9 0 -10.5 2.5t1.5 10.5z" />
<glyph unicode="&#xe000;" horiz-adv-x="865" d="M0 0v866h866v-866h-866z" />
</font>
</defs>
</svg>
