<?xml version="1.0" standalone="no"?>
<!DOCTYPE svg PUBLIC "-//W3C//DTD SVG 1.1//EN" "http://www.w3.org/Graphics/SVG/1.1/DTD/svg11.dtd" >
<svg xmlns="http://www.w3.org/2000/svg">
<metadata></metadata>
<defs>
<font id="quatie_norm_booknorm_book" horiz-adv-x="1465" >
<font-face units-per-em="2048" ascent="1629" descent="-419" />
<missing-glyph horiz-adv-x="404" />
<glyph unicode="&#xfb01;" horiz-adv-x="1083" d="M82 22v32q0 15 4 20.5t15 5.5q94 3 117 13t26 52v633h-140q-16 0 -16 17v52q0 19 16 19h140v128q0 172 86 250t238 78q75 0 143.5 -16t100.5 -33q15 -9 20.5 -20t5.5 -34v-180q0 -11 -4 -15t-15 -4h-52q-9 0 -13 3t-4 14l-15 158q-66 32 -167 32q-107 0 -158 -58 t-51 -192v-111h455q29 0 29 -30v-603q0 -88 20 -118.5t57 -30.5q48 0 48 43q0 22 5 27.5t27 5.5h18q22 0 27 -4.5t5 -23.5q0 -139 -149 -139q-171 0 -171 216v506q0 20 -2.5 29.5t-9 17.5t-25.5 10.5t-43 4t-71 1.5h-220v-601q0 -27 0.5 -38.5t7.5 -25t15.5 -17t34 -8 t51.5 -5t79 -1.5q20 0 24 -6t4 -26v-24q0 -16 -3.5 -21t-20.5 -5h-445q-16 0 -20 3.5t-4 18.5z" />
<glyph unicode="&#xfb02;" horiz-adv-x="1107" d="M74 22v32q0 15 4 20.5t15 5.5q44 1 65 2t42.5 5t28.5 8.5t14 17t7.5 25t0.5 37.5v603h-139q-17 0 -17 17v52q0 19 17 19h139v134q0 162 86.5 242t250.5 80q69 0 128 -13.5t146 -51.5q12 -6 14.5 -12.5t2.5 -19.5v-992q0 -89 19.5 -119t58.5 -30q48 0 48 43q0 22 4 27.5 t26 5.5h19q22 0 26.5 -4.5t4.5 -23.5q0 -139 -149 -139q-171 0 -171 216v569h-400v-618q0 -54 23 -65t128 -13q20 -1 24 -6.5t4 -25.5v-24q0 -16 -4 -21t-21 -5h-422q-16 0 -19.5 3.5t-3.5 18.5zM365 866h400v318q-86 41 -177 41q-126 0 -174.5 -58.5t-48.5 -213.5v-87z" />
<glyph unicode="&#xfb03;" horiz-adv-x="1599" d="M73 22v32q0 15 3.5 20.5t14.5 5.5q111 4 132 14q23 11 25 49q1 11 1 32v603h-139q-17 0 -17 17v52q0 19 17 19h139v61q0 319 328 319q128 0 229 -49q79 125 278 125q75 0 143 -16t100 -33q15 -8 21 -19.5t6 -34.5v-180q0 -11 -4 -15t-15 -4h-50q-9 0 -13 3t-4 14l-15 158 q-66 32 -169 32q-107 0 -158 -58t-51 -192v-111h456q30 0 30 -30v-603q0 -88 19.5 -118.5t56.5 -30.5q49 0 49 43q0 23 4 28t27 5h17q23 0 27.5 -4.5t4.5 -23.5q0 -139 -149 -139q-171 0 -171 216v506q0 20 -2.5 29.5t-8.5 17.5t-25 10.5t-43 4t-70 1.5h-222v-601 q0 -26 0.5 -38t8 -25.5t16 -17.5t33.5 -8t51.5 -4.5t78.5 -1.5q20 0 24 -6t4 -26v-24q0 -16 -3.5 -21t-20.5 -5h-445q-15 0 -18.5 4t-3.5 18v32q0 15 3.5 20.5t14.5 5.5q94 3 117.5 13t24.5 52v633h-397v-601q0 -26 0.5 -38.5t7 -25.5t12.5 -17t27 -8t41 -4.5t63 -1.5 q20 -1 24 -6.5t4 -25.5v-24q0 -16 -3.5 -21t-20.5 -5h-423q-16 0 -19 3.5t-3 18.5zM363 866h397v128q0 60 11 110q-90 45 -183 45q-116 0 -170.5 -50t-54.5 -174v-59z" />
<glyph unicode="&#xfb04;" horiz-adv-x="1623" d="M73 22v32q0 15 3.5 20.5t14.5 5.5q111 4 132 14q23 11 25 49q1 11 1 32v603h-139q-17 0 -17 17v52q0 19 17 19h139v61q0 300 313 300q133 0 240 -52q74 147 302 147q69 0 128 -13.5t144 -51.5q13 -6 16 -12.5t3 -19.5v-992q0 -88 19.5 -118.5t56.5 -30.5q48 0 48 43 q0 22 4.5 27.5t27.5 5.5h17q23 0 27 -4.5t4 -23.5q0 -139 -149 -139q-171 0 -171 216v569h-400v-618q0 -54 23 -65t128 -13q20 -1 24 -6.5t4 -25.5v-24q0 -16 -4 -21t-21 -5h-422q-16 0 -19.5 3.5t-3.5 18.5v32q0 15 4 20.5t15 5.5q44 1 65.5 2t43 5.5t28.5 8.5t13.5 16.5 t7 25t0.5 37.5v603h-402v-601q0 -26 0.5 -38.5t7 -25.5t12.5 -17t27 -8t41 -4.5t63 -1.5q20 -1 24 -6.5t4 -25.5v-24q0 -16 -3.5 -21t-20.5 -5h-423q-16 0 -19 3.5t-3 18.5zM363 866h402v134q0 49 8 84q-96 46 -201 46q-108 0 -158.5 -46t-50.5 -159v-59zM879 866h400v318 q-83 41 -175 41q-127 0 -176 -58.5t-49 -213.5v-87z" />
<glyph horiz-adv-x="2048" />
<glyph horiz-adv-x="2048" />
<glyph unicode="&#xd;" horiz-adv-x="2048" />
<glyph unicode=" "  horiz-adv-x="404" />
<glyph unicode="&#x09;" horiz-adv-x="404" />
<glyph unicode="&#xa0;" horiz-adv-x="404" />
<glyph unicode="!" horiz-adv-x="502" d="M169 71q0 33 22.5 56.5t57.5 23.5q32 0 56.5 -24t24.5 -56q0 -39 -23.5 -60.5t-57.5 -21.5q-36 0 -58 21.5t-22 60.5zM192 1335q0 17 13 17h87q12 0 15.5 -4t3.5 -15l-11 -1039q0 -9 -3 -13.5t-7 -5.5t-14 -1h-60q-15 0 -15 22z" />
<glyph unicode="&#x22;" horiz-adv-x="627" d="M155 875v419q0 11 9 11h97q9 0 9 -13v-419q0 -13 -13 -13h-88q-9 0 -11.5 3t-2.5 12zM359 875v419q0 11 8 11h97q9 0 9 -13v-419q0 -13 -13 -13h-86q-7 0 -10.5 1.5t-4 4t-0.5 9.5z" />
<glyph unicode="#" horiz-adv-x="1392" d="M106 423v96h298l63 295h-292v96h315l82 403h106l-84 -403h298l84 403h104l-80 -403h290v-96h-316l-60 -295h298v-96h-322l-88 -423h-104l90 423h-300l-88 -423h-100l84 423h-278zM508 519h300l61 295h-299z" />
<glyph unicode="$" horiz-adv-x="1102" d="M128 80v259q0 14 6 19t24 5h41q13 0 17.5 -5t6.5 -17l15 -226q127 -31 291 -31q44 0 83.5 4.5t89 21t85 43.5t60 76.5t24.5 116.5q0 86 -39 144.5t-101.5 89t-137.5 52.5t-150.5 46t-138 58t-101.5 99.5t-39 160.5q0 78 22.5 136.5t59 94t90 57.5t108 30t120.5 8 q96 0 188 -14.5t136 -32.5q18 -8 23 -15.5t5 -28.5v-265q0 -10 -0.5 -15t-4.5 -7t-6 -2h-11h-49q-15 0 -18.5 3t-3.5 16l-17 231q-70 20 -114 25.5t-128 5.5q-288 0 -288 -214q0 -60 24 -103t65 -69t94 -45t111 -34.5t116.5 -33t111.5 -45.5t94 -67.5t65 -103.5t24 -149 q0 -79 -19.5 -141t-55 -102t-78 -68t-96 -42t-100.5 -19.5t-100 -5.5q-97 0 -218 16t-159 33q-27 12 -27 50zM512 -326l4 242q0 19 15 19h74q7 0 11 -15l4 -244q0 -19 -9 -19h-92q-7 0 -7 17zM514 1640q0 15 9 15h91q8 0 8 -17l-4 -243q0 -15 -11 -15h-75q-7 0 -10.5 3 t-3.5 5.5v9.5z" />
<glyph unicode="%" horiz-adv-x="1943" d="M93 931q0 80 21 148.5t63.5 124.5t117 88t172.5 32t172 -32t117.5 -88t65 -124.5t21.5 -148.5t-21.5 -149.5t-65 -126t-117.5 -89t-172 -32.5t-172.5 32.5t-117 89t-63.5 125.5t-21 150zM212 931q0 -142 68.5 -223.5t186.5 -81.5q119 0 188 81.5t69 223.5t-65 222 t-192 80q-120 0 -187.5 -80.5t-67.5 -221.5zM477 13l899 1287q17 26 41 26h78q19 0 22 -6t-11 -28l-895 -1286q-11 -16 -21.5 -21t-29.5 -5h-67q-18 0 -23 5t7 28zM1102 378q0 80 20.5 148.5t63.5 124.5t117 88t172 32t172 -32t117.5 -88t65 -124.5t21.5 -148.5 t-21.5 -149.5t-65 -126t-117.5 -89t-172 -32.5t-172 32.5t-117 89t-63.5 125.5t-20.5 150zM1219 378q0 -142 69 -223.5t187 -81.5q119 0 187.5 81.5t68.5 223.5t-64 222t-192 80q-120 0 -188 -80.5t-68 -221.5z" />
<glyph unicode="&#x26;" horiz-adv-x="1379" d="M147 341q0 69 17.5 126t44 93.5t62 63.5t68 40t65.5 19q-57 12 -98.5 44t-63.5 75.5t-32.5 89.5t-10.5 95q0 335 363 335q104 0 222 -41q18 -6 22 -15t4 -33v-248q0 -16 -3 -19t-16 -3h-44q-10 0 -13 3t-4 15l-21 216q-52 24 -139 24q-63 0 -107 -10t-79.5 -36t-53 -75 t-17.5 -123q0 -245 283 -245h290l41 219q3 28 26 28h23q24 0 24 -28v-219h218q22 0 22 -25v-52q0 -15 -4 -18.5t-18 -3.5h-218v-339q0 -126 27.5 -173.5t87.5 -47.5q83 0 86 89q0 13 5 18.5t19 5.5h28q16 0 20 -6.5t4 -24.5q0 -79 -48.5 -126.5t-133.5 -47.5q-115 0 -166 84 q-147 -84 -376 -84q-96 0 -165 15.5t-126 54t-86 111t-29 179.5zM270 352q0 -147 70 -207.5t228 -60.5q163 0 328 74q-12 67 -12 132v343h-288q-148 0 -237 -70.5t-89 -210.5z" />
<glyph unicode="'" horiz-adv-x="424" d="M155 875v415q0 13 9 13h97q9 0 9 -13v-417q0 -13 -13 -13h-88q-9 0 -11.5 3t-2.5 12z" />
<glyph unicode="(" horiz-adv-x="577" d="M108 557q0 209 85 421.5t239 369.5q1 1 6.5 7t6.5 5.5t7 -1.5l47 -35q8 -6 -11 -30q-85 -91 -143.5 -227.5t-82.5 -266.5t-24 -253q0 -191 66 -400.5t188 -362.5q13 -15 7 -20l-39 -38q-5 -5 -15 7q-2 1 -2.5 2t-1.5 2q-159 163 -246 383.5t-87 436.5z" />
<glyph unicode=")" horiz-adv-x="577" d="M78 -236q-5 5 8 20q122 153 187.5 362t65.5 401q0 123 -24 253t-82.5 266.5t-143.5 227.5q-19 24 -11 30l45 35q6 2 7.5 2t6 -5.5t6.5 -7.5q155 -157 240.5 -370t85.5 -421q0 -216 -87 -436.5t-246 -383.5q-2 -1 -6.5 -6t-6.5 -6t-6 1z" />
<glyph unicode="*" horiz-adv-x="802" d="M127 1069l22 87q5 8 15 6l205 -60l-38 188v3q-1 5 0.5 7.5t7.5 2.5h121q14 0 9 -15l-37 -186l203 58q12 3 15 -6l28 -83q5 -12 -10 -12l-208 -18l140 -140q14 -14 5 -20l-87 -58q-7 -6 -15 7l-101 177l-102 -173q-6 -14 -17 -5l-80 50q-6 3 4 13l132 149l-199 18 q-10 1 -12.5 3t-0.5 7z" />
<glyph unicode="+" horiz-adv-x="1146" d="M115 430v99h414v393h98v-393h406v-99h-406v-393h-98v393h-414z" />
<glyph unicode="," horiz-adv-x="407" d="M65 -195l93 331q4 14 6.5 19.5t10 9t22.5 3.5h58q23 0 27 -11t-6 -32l-114 -320q-7 -23 -30 -23h-50q-13 0 -16.5 5t-0.5 18z" />
<glyph unicode="-" horiz-adv-x="940" d="M149 514v58q0 16 17 16h610q17 0 17 -18v-51q0 -22 -20 -22h-609q-15 0 -15 17z" />
<glyph unicode="." horiz-adv-x="446" d="M143 71q0 33 22.5 56.5t57.5 23.5q32 0 56 -24t24 -56q0 -39 -23 -60.5t-57 -21.5q-36 0 -58 21.5t-22 60.5z" />
<glyph unicode="/" horiz-adv-x="862" d="M61 -104l613 1471q7 16 20 16h94q18 0 9 -22l-609 -1467q-6 -13 -26 -13h-93q-15 0 -8 15z" />
<glyph unicode="0" horiz-adv-x="1239" d="M130 652q0 146 30.5 267.5t90 211.5t154 140.5t215.5 50.5q120 0 214 -50.5t153.5 -140.5t90 -211.5t30.5 -267.5q0 -197 -52.5 -346t-164 -237t-271.5 -88q-161 0 -273 88t-164.5 237t-52.5 346zM259 655q0 -269 95 -423t266 -154t266 154t95 423q0 267 -95 418.5 t-266 151.5t-266 -151.5t-95 -418.5z" />
<glyph unicode="1" horiz-adv-x="796" d="M115 22v32q0 10 0.5 14.5t5 8t13.5 3.5q164 3 198.5 14t34.5 64v983q-3 22 -36 2l-184 -117q-28 -18 -28 11v54q0 13 4.5 20t19.5 17l241 159q25 16 59 16h22q19 0 19 -18v-1125q0 -55 30.5 -66t189.5 -12q20 0 24 -6t4 -26v-24q0 -16 -4.5 -21t-20.5 -5h-567 q-17 0 -21 3.5t-4 18.5z" />
<glyph unicode="2" horiz-adv-x="1124" d="M114 17v54q0 24 11 31q687 420 687 877q0 48 -9.5 85.5t-24 62.5t-38 43t-45.5 28t-52.5 15t-53 6.5t-53.5 1.5q-148 0 -272 -42l-22 -239q-1 -13 -4.5 -15.5t-14.5 -2.5h-50q-12 0 -15 3.5t-3 18.5v272q0 22 4.5 30t19.5 13q155 63 357 63q71 0 126 -7.5t108.5 -29 t88 -57.5t56 -97t21.5 -144q0 -130 -48 -256t-135.5 -237t-202 -207.5t-256.5 -182.5h562q24 0 27 36l11 175q0 17 4.5 23t19.5 6h45q12 0 16 -6t4 -25v-293q0 -14 -3.5 -17t-15.5 -3h-830q-20 0 -20 17z" />
<glyph unicode="3" horiz-adv-x="1070" d="M115 54v47q0 26 23 26q186 -43 344 -43q341 0 341 300q0 147 -77 204.5t-221 57.5h-121q-20 0 -20 26v52q0 16 7 23l382 450h-481q-17 0 -21 -8.5t-7 -41.5l-7 -151q0 -14 -4 -19t-18 -5h-43q-15 0 -19.5 4t-4.5 18v287q0 15 3.5 18.5t16.5 3.5h711q14 0 17.5 -5.5 t3.5 -22.5v-44q0 -9 -0.5 -13.5t-3 -10t-4 -7.5t-9.5 -11t-13 -14l-369 -434h26q211 0 304 -81.5t93 -272.5q0 -110 -34 -190.5t-96.5 -126.5t-141 -67.5t-177.5 -21.5q-224 0 -355 43q-15 5 -20 10.5t-5 19.5z" />
<glyph unicode="4" horiz-adv-x="1176" d="M76 348l211 935q5 14 8.5 17t17.5 3h74q14 0 17.5 -4t1.5 -16l-194 -853h469v834q0 11 3.5 15t13.5 4h80q17 0 17 -19v-834h251q13 0 18 -4t5 -18v-67q0 -11 -3.5 -13t-15.5 -2h-255v-164q0 -21 0.5 -31t8 -21t16 -14.5t33.5 -7t50.5 -4.5t77.5 -2q18 0 22 -4t4 -20v-38 q0 -13 -3.5 -16.5t-18.5 -3.5h-540q-14 0 -17.5 3.5t-3.5 15.5v41q0 12 2.5 16t14.5 4q174 5 207 16t33 62v168h-584q-14 0 -17.5 4t-3.5 18z" />
<glyph unicode="5" horiz-adv-x="1064" d="M110 67v47q0 33 24 26q170 -60 339 -60q339 0 339 324q0 79 -21.5 135t-57.5 90t-96.5 53.5t-125.5 26t-157 6.5h-153q-23 0 -20 26l70 534q1 19 5 23.5t16 4.5h599q15 0 19 -3.5t4 -18.5v-270q0 -23 -5 -28.5t-21 -5.5h-41q-16 0 -20.5 7t-4.5 23l-5 140q-3 32 -8.5 41 t-23.5 9h-411l-56 -383h69q113 0 196 -10t156 -37t118.5 -72.5t71.5 -118.5t26 -174q0 -421 -449 -421q-109 0 -205.5 17.5t-146.5 38.5q-24 8 -24 30z" />
<glyph unicode="6" horiz-adv-x="1128" d="M128 512q0 134 29 253.5t91 222t151 176.5t216.5 116t281.5 42h21q24 0 24 -21v-54q0 -14 -5.5 -19t-18.5 -5h-21q-146 0 -261.5 -44t-192 -124.5t-122 -187t-60.5 -238.5q133 179 352 179q105 0 184.5 -31.5t126.5 -88t70 -128t23 -156.5q0 -199 -115.5 -311 t-322.5 -112q-225 0 -338 135.5t-113 395.5zM253 486q3 -408 326 -408q148 0 232.5 83t84.5 241q0 143 -73 227t-227 84q-238 0 -343 -227z" />
<glyph unicode="7" horiz-adv-x="968" d="M108 996v287q0 14 3.5 17t18.5 3h766q14 0 17 -5.5t3 -22.5v-54q0 -14 -13 -46l-573 -1153q-7 -14 -14 -18t-22 -4h-84q-24 0 -15 20l593 1175h-574l-19 -197q0 -17 -4.5 -23.5t-19.5 -6.5h-39q-14 0 -19 5.5t-5 22.5z" />
<glyph unicode="8" horiz-adv-x="1141" d="M121 380q0 120 70.5 220.5t210.5 140.5q-92 34 -137 107t-45 165q0 129 90.5 218t261.5 89q170 0 260 -89.5t90 -217.5q0 -91 -45.5 -163.5t-137.5 -106.5q144 -38 211 -135.5t67 -225.5q0 -78 -24 -146.5t-74.5 -127t-140.5 -93t-210 -34.5q-97 0 -174.5 23t-127.5 61 t-83.5 90.5t-47.5 108t-14 116.5zM242 378q0 -61 18.5 -113t56 -95t102 -67.5t149.5 -24.5q164 0 246 86.5t82 215.5q0 61 -19 114.5t-57 97t-102 68.5t-148 25q-85 0 -150 -25t-103 -69t-56.5 -97.5t-18.5 -115.5zM331 1005q0 -97 58 -157t181 -60q122 0 182 60.5t60 156.5 q0 95 -60 160.5t-180 65.5q-121 0 -181 -65.5t-60 -160.5z" />
<glyph unicode="9" horiz-adv-x="1107" d="M106 905q0 191 114.5 304t315.5 113q116 0 202.5 -38t138.5 -109.5t77 -166.5t25 -215q0 -140 -27.5 -261.5t-86 -223t-143.5 -174t-205 -113t-266 -40.5h-20q-22 0 -22 23v50q0 26 22 26h20q260 0 410.5 151t185.5 421q-127 -157 -341 -157q-88 0 -157.5 23.5t-114 62.5 t-74 93t-42 111t-12.5 120zM227 897q0 -139 75.5 -223t220.5 -84q122 0 203 53t130 163v4q0 200 -80.5 308.5t-243.5 108.5q-140 0 -222.5 -84.5t-82.5 -245.5z" />
<glyph unicode=":" horiz-adv-x="454" d="M145 63q0 33 22.5 56.5t57.5 23.5q32 0 56 -24t24 -56q0 -39 -23 -60.5t-57 -21.5q-36 0 -58 21.5t-22 60.5zM145 728q0 33 22.5 56.5t57.5 23.5q32 0 56 -24t24 -56q0 -39 -23 -60.5t-57 -21.5q-36 0 -58 21.5t-22 60.5z" />
<glyph unicode=";" horiz-adv-x="556" d="M121 -195l93 331q4 14 6.5 19.5t10 9t22.5 3.5h58q23 0 26.5 -11t-6.5 -32l-113 -320q-7 -23 -30 -23h-50q-13 0 -16.5 5t-0.5 18zM210 804q0 33 22.5 56.5t57.5 23.5q32 0 56.5 -24t24.5 -56q0 -39 -23.5 -60.5t-57.5 -21.5q-36 0 -58 21.5t-22 60.5z" />
<glyph unicode="&#x3c;" horiz-adv-x="1027" d="M99 424v105l795 393v-108l-648 -337l648 -336v-111z" />
<glyph unicode="=" horiz-adv-x="1109" d="M158 263v98h793v-98h-793zM160 518v98h791v-98h-791z" />
<glyph unicode="&#x3e;" horiz-adv-x="1027" d="M134 30v110l646 337l-646 340v105l795 -393v-105z" />
<glyph unicode="?" horiz-adv-x="873" d="M102 966v265q0 21 4.5 28.5t21.5 15.5q41 18 129 32.5t184 14.5q58 0 105 -8t93 -29.5t77.5 -56t50.5 -92.5t19 -134q0 -89 -19 -150.5t-49.5 -93.5t-67 -54.5t-73.5 -44t-67.5 -52t-49.5 -89t-19 -144.5v-147q0 -18 -15 -18l-83 -2q-13 0 -13 18v147q0 80 12 141 t31.5 98.5t45.5 64t54.5 43.5t57 32.5t54.5 35t45.5 46t31.5 71t12 105.5q0 214 -236 214q-75 0 -118.5 -6t-110.5 -25l-15 -231q0 -13 -3.5 -16t-17.5 -3h-48h-3q-8 0 -11.5 1t-6 6t-2.5 17zM305 71q0 33 22 56.5t55 23.5q32 0 56 -24t24 -56q0 -39 -23 -60.5t-57 -21.5 q-35 0 -56 21.5t-21 60.5z" />
<glyph unicode="@" horiz-adv-x="1550" d="M125 579q0 136 41 253t111 199.5t162 141.5t194 87t207 28q270 0 437.5 -155t167.5 -396q0 -135 -36 -239t-114.5 -168t-190.5 -64q-65 0 -109 26.5t-59 70.5q-34 -39 -98.5 -69t-133.5 -30q-117 0 -193.5 78.5t-76.5 216.5q0 78 26 152t75.5 137t131 101t182.5 38 q72 0 125.5 -21t83.5 -58t44.5 -80.5t14.5 -93.5q0 -59 -29 -150.5t-55 -144.5q-15 -37 8.5 -61t70.5 -24q104 0 165.5 110t61.5 264q0 211 -142 342t-363 131q-82 0 -165.5 -23.5t-162.5 -74.5t-140 -122t-98 -175t-37 -225q0 -270 164 -422t428 -152q120 0 217.5 24.5 t197.5 78.5q16 9 21 -2l28 -54q6 -12 -14 -23q-1 0 -1.5 -0.5t-1.5 -0.5q-183 -110 -447 -110q-148 0 -275 43t-221.5 124.5t-148 208t-53.5 283.5zM538 557q0 -97 45 -151t130 -54q61 0 113 32t85.5 79t57.5 101t34 96.5t10 67.5q0 173 -181 173q-87 0 -155.5 -50.5 t-103.5 -128.5t-35 -165z" />
<glyph unicode="A" horiz-adv-x="1374" d="M47 22v32q0 12 3 18t6 7t9 1q79 2 110 8t41.5 20t10.5 50v90q0 241 27 434.5t81.5 338t142.5 223t205 78.5q152 0 258 -134.5t157 -373t51 -566.5v-77q0 -24 0.5 -36t7 -24t13 -16t27 -7.5t40.5 -4t61 -1.5q20 0 24 -6t4 -26v-24q0 -16 -4.5 -21t-20.5 -5h-430 q-17 0 -19.5 3t-2.5 19v32q0 11 0.5 15.5t5 7.5t13.5 3q59 2 88.5 4.5t47 12t21 22t3.5 39.5v90q0 51 -4 145h-689q-2 -47 -2 -145v-77q0 -24 0.5 -36t7 -24t13 -16t27 -7.5t40.5 -4t61 -1.5q20 0 24 -6t4 -26v-24q0 -16 -4 -21t-20 -5h-417q-15 0 -18.5 3t-3.5 19zM341 493 h677q-16 224 -59.5 386.5t-114.5 252t-164 89.5q-140 0 -227 -193.5t-112 -534.5z" />
<glyph unicode="B" horiz-adv-x="1234" d="M108 22v32q0 11 0.5 15.5t5 7.5t13.5 3q81 2 111.5 8t39.5 19.5t9 50.5v1000q0 43 -24.5 52.5t-132.5 12.5q-14 0 -18 4t-4 17v39q0 14 3.5 17t18.5 3h468q389 0 389 -318q0 -214 -153 -281q148 -19 217.5 -103t69.5 -238q0 -89 -26.5 -154.5t-86 -113t-160 -71.5 t-243.5 -24h-475q-14 0 -18 4t-4 18zM404 95h220q112 0 187.5 18t116 55t56.5 83t16 112q0 60 -13.5 105.5t-46.5 84.5t-95.5 59.5t-153.5 20.5h-287v-538zM404 730h263q94 0 147.5 72.5t53.5 174.5q0 103 -60.5 167t-189.5 64h-214v-478z" />
<glyph unicode="C" horiz-adv-x="1253" d="M127 640q0 338 162 510t458 172q206 0 348 -39q21 -5 25.5 -13t4.5 -34v-294q0 -16 -3.5 -19t-17.5 -3h-54q-15 0 -18.5 3t-5.5 15l-21 259q-102 26 -257 26q-236 0 -367.5 -147t-131.5 -439q0 -290 125.5 -419t375.5 -129q147 0 380 43q15 3 20.5 -0.5t5.5 -17.5v-43 q0 -21 -6.5 -28.5t-28.5 -12.5q-215 -43 -382 -43q-307 0 -459.5 155t-152.5 498z" />
<glyph unicode="D" horiz-adv-x="1401" d="M108 22v32q0 11 0.5 15.5t5 7.5t13.5 3q104 3 130.5 13t29.5 47v1018q0 43 -24.5 52.5t-132.5 12.5q-14 0 -18 4t-4 17v39q0 14 3.5 17t18.5 3h430q712 0 712 -653q0 -326 -170 -488t-521 -162h-451q-14 0 -18 4t-4 18zM408 97h164q293 0 434 135t141 414 q0 132 -31 232.5t-98 176t-179.5 114.5t-268.5 39h-162v-1111z" />
<glyph unicode="E" horiz-adv-x="1092" d="M123 337q0 73 18.5 131t46 93.5t69 61.5t78 38.5t82.5 21.5q-123 25 -179 109t-56 206q0 93 31.5 158t89.5 100t129 50.5t162 15.5q191 0 320 -43q8 -3 13 -5t9 -4.5t5.5 -4.5t2.5 -6t0.5 -6t-0.5 -8.5v-11.5v-248q0 -16 -3 -19t-18 -3h-44q-11 0 -14.5 2.5t-4.5 15.5 l-22 216q-87 24 -238 24q-70 0 -121.5 -10t-94 -34.5t-64.5 -70.5t-22 -114q0 -138 86 -198t243 -60h134q12 0 17.5 -5.5t5.5 -21.5v-44q0 -28 -23 -28h-134q-379 0 -379 -289q0 -138 89 -200t274 -62q63 0 133 6.5t117 14.5t86.5 15.5t42.5 7.5q12 3 15.5 0t3.5 -16v-65 q0 -10 -6 -15t-22 -10q-153 -41 -389 -41q-85 0 -151.5 9t-128 33t-101.5 63t-64 102.5t-24 148.5z" />
<glyph unicode="F" horiz-adv-x="1070" d="M108 22v32q0 10 0.5 14.5t5 8t13.5 3.5q45 1 66.5 2t43.5 5.5t29 8.5t13.5 16.5t7 24.5t0.5 38v987q-2 26 -13.5 37t-43.5 16.5t-103 7.5q-13 0 -16 5.5t-3 20.5v32q0 14 4.5 18t19.5 4h831q11 0 15 -1t6.5 -5t2.5 -14v-306q0 -22 -24 -22h-40q-16 0 -21 5t-5 17l-13 203 q-3 23 -8.5 28.5t-20.5 5.5l-451 -2v-499h354q16 0 22 -4t6 -18v-49q0 -19 -5 -25t-23 -6h-354v-458q1 -49 33.5 -59t173.5 -12q20 0 24 -6t4 -26v-24q0 -16 -4 -21t-21 -5h-482q-17 0 -20.5 3.5t-3.5 18.5z" />
<glyph unicode="G" horiz-adv-x="1370" d="M127 635q0 336 166 511.5t474 175.5q122 0 231 -20.5t179 -50.5q23 -11 28 -22.5t5 -42.5v-264q0 -13 -4.5 -17t-17.5 -4h-50q-11 0 -15.5 2.5t-5.5 14.5l-20 249q-129 56 -326 56q-254 0 -386 -149.5t-132 -440.5q0 -278 131 -415.5t407 -137.5q181 0 306 43v378h-272 q-28 0 -28 28v44q0 28 28 28h357q28 0 28 -28v-476q0 -15 -1 -22t-9 -16t-25 -16q-62 -25 -169 -43.5t-224 -18.5q-655 0 -655 654z" />
<glyph unicode="H" horiz-adv-x="1401" d="M106 22v32q0 10 0.5 14.5t5 8t13.5 3.5q108 3 133.5 13.5t26.5 57.5v975q0 23 -1 33.5t-2.5 23.5t-9 17.5t-15.5 10t-27.5 6.5t-38.5 2.5t-55 1.5q-20 0 -24 6t-4 26v24q0 16 4 21t20 5h427h12.5t5.5 -4.5t2 -5.5v-12v-32q0 -10 -0.5 -14.5t-5 -8t-13.5 -3.5 q-45 -1 -66.5 -2t-43 -5.5t-28 -8t-13 -17t-7 -25t-0.5 -37.5v-519h587v517v38t-6 25t-12 17.5t-26 8t-40.5 5t-62.5 1.5q-20 0 -24 6t-4 26v24q0 16 4 21t18 5h428q15 0 19 -4t4 -18v-32q0 -14 -3.5 -20t-15.5 -6q-108 -3 -134.5 -14t-27.5 -57v-966q0 -102 73 -102 q31 0 53.5 16.5t22.5 52.5v7q0 13 15 13h52q6 0 10.5 -4t4.5 -9v-7q0 -78 -45 -119t-128 -41q-175 0 -175 201v320h-587v-337v-38t6 -25t12 -17.5t26 -8t40.5 -5t62.5 -1.5q20 0 24 -6t4 -26v-24q0 -16 -4 -21t-20 -5h-425q-16 0 -19 3.5t-3 18.5z" />
<glyph unicode="I" horiz-adv-x="688" d="M108 22v32q0 10 0.5 14.5t5 8t13.5 3.5q45 1 66.5 2t43.5 5.5t29 8.5t13.5 16.5t7 25t0.5 37.5v970q-1 53 -23 63.5t-124 12.5q-20 0 -24 6t-4 26v24q0 16 4 21t20 5h424q16 0 19.5 -3.5t3.5 -18.5v-32q0 -10 -0.5 -14.5t-5 -8t-13.5 -3.5q-45 -1 -66.5 -2t-43.5 -5.5 t-29 -8.5t-13.5 -16.5t-7 -24.5t-0.5 -38v-951v-38t6 -25t12 -17.5t26 -8t40.5 -5t62.5 -1.5q20 0 24 -6t4 -26v-24q0 -16 -4 -21t-20 -5h-425q-16 0 -19 3.5t-3 18.5z" />
<glyph unicode="J" horiz-adv-x="670" d="M52 -261q-12 26 21 41l65 30q62 26 89.5 48.5t40.5 65t13 123.5v1083q0 26 -0.5 37t-6 24t-12 16.5t-26.5 7.5t-40 4.5t-62 1.5q-20 0 -24 6t-4 26v24q0 16 4 21t20 5h425q16 0 19 -3.5t3 -18.5v-32q0 -11 -0.5 -15t-4.5 -7.5t-13 -3.5q-111 -3 -136 -14.5t-25 -65.5 v-1141q0 -77 -15 -121t-61.5 -81.5t-140.5 -73.5l-82 -31q-26 -10 -34 15z" />
<glyph unicode="K" horiz-adv-x="1323" d="M106 22v32q0 10 0.5 14.5t5 8t13.5 3.5q108 3 133.5 13.5t26.5 57.5v975q0 23 -1 33.5t-2.5 23.5t-9 17.5t-15.5 10t-27.5 6.5t-38.5 2.5t-55 1.5q-20 0 -24 6t-4 26v24q0 16 4 21t20 5h427h12.5t5.5 -4.5t2 -5.5v-12v-32q0 -10 -0.5 -14.5t-5 -8t-13.5 -3.5 q-110 -3 -134 -14.5t-24 -63.5v-473l505 518q14 20 -9 25q-18 4 -97 6q-23 0 -27.5 5.5t-4.5 26.5v24v13.5t2.5 7t8 5t17.5 0.5h400q19 0 22.5 -3.5t3.5 -18.5v-32q0 -9 -0.5 -12.5t-2 -7.5t-5.5 -5t-12 -1q-78 -3 -105 -8t-42 -20q-104 -104 -298 -300.5t-229 -231.5h2 l439 -479q56 -62 97.5 -86.5t86.5 -24.5q44 0 90 16q15 5 22 2t7 -17l2 -40q0 -17 -6.5 -23t-30.5 -13q-53 -17 -112 -17q-77 0 -127.5 29t-127.5 120l-469 523v-476v-38t6 -25t12 -17.5t26 -8t40.5 -5t62.5 -1.5q20 0 24 -6t4 -26v-24q0 -16 -4 -21t-20 -5h-425 q-16 0 -19 3.5t-3 18.5z" />
<glyph unicode="L" horiz-adv-x="1111" d="M106 22v32q0 11 0.5 15.5t5 7.5t13.5 3q52 1 76 3t45.5 5.5t27 13t8.5 21t3 35.5v968q0 23 -1 33.5t-2.5 23.5t-9 17.5t-15.5 10t-27.5 6.5t-38.5 2.5t-55 1.5q-20 0 -24 6t-4 26v24q0 16 4 21t20 5h427h12.5t5.5 -4.5t2 -5.5v-12v-32q0 -10 -0.5 -14.5t-5 -8t-13.5 -3.5 q-45 -1 -66.5 -2t-43 -5.5t-28 -8t-13 -17t-7 -25t-0.5 -37.5v-1026l507 -1q17 0 21 6.5t6 28.5l14 177q0 19 5.5 24.5t23.5 5.5h32q16 0 20 -6t4 -30v-287q0 -14 -4.5 -17t-19.5 -3h-883q-14 0 -18 4t-4 18z" />
<glyph unicode="M" horiz-adv-x="1768" d="M117 22v32q0 16 6 21t24 5q45 1 67 3.5t39.5 6t22.5 15.5t7 24t2 40v976q0 20 -0.5 30t-6.5 20.5t-12.5 14t-26 7t-39.5 4.5t-60 2q-15 0 -19 5.5t-4 20.5v32q0 14 4.5 18t19.5 4h235q28 0 43 -7.5t19.5 -16.5t10.5 -35q1 -3 1.5 -4t1 -3t0.5 -4q34 -141 195.5 -540 t249.5 -572h4q95 208 212.5 541t178.5 571q2 7 5 21.5t5 18.5t6.5 12.5t11.5 10.5t18.5 4.5t28.5 2.5h253q20 0 24 -3.5t4 -18.5v-32q0 -16 -4 -21t-20 -5q-48 -1 -70 -3t-42 -5.5t-25 -13t-8 -21t-3 -35.5v-959q0 -102 75 -102q30 0 52 16.5t22 52.5v7q0 13 15 13h52 q15 0 15 -13v-7q0 -77 -44.5 -118.5t-126.5 -41.5q-175 0 -175 201v899q-53 -228 -190.5 -590.5t-206.5 -482.5q-12 -20 -44 -20h-52q-11 0 -17 1t-11.5 5.5t-10.5 13.5q-82 142 -220 463.5t-218 568.5v-884q0 -33 2 -47.5t18 -24.5t38 -11.5t74 -2.5q24 0 29 -6t5 -26v-24 q0 -16 -4.5 -21t-23.5 -5h-384q-20 0 -24 3.5t-4 18.5z" />
<glyph unicode="N" d="M108 1249v32q0 14 4 18t18 4h231q39 0 60 -33l666 -1117v992q0 35 -9 48.5t-41 20.5t-110 9q-9 0 -13 3.5t-4.5 7.5t-0.5 15v32q0 15 3 18.5t17 3.5h417q16 0 20 -5t4 -21v-24q0 -20 -4 -26t-24 -6q-57 -1 -82 -2.5t-42.5 -11t-20 -22.5t-2.5 -42v-1100q0 -43 -30 -43 h-70q-42 0 -58 24l-642 1074v-927q0 -24 0.5 -34.5t5.5 -23t12.5 -16.5t26 -8.5t40.5 -5t62 -1.5q20 0 24 -6t4 -26v-24q0 -16 -4 -21t-20 -5h-414q-16 0 -19 3.5t-3 18.5v32q0 15 4.5 20.5t19.5 5.5q42 1 63.5 2t42 5.5t27.5 8.5t13 16t6.5 23t0.5 34v989q0 41 -26.5 51.5 t-133.5 13.5q-13 0 -16 5.5t-3 20.5z" />
<glyph unicode="O" d="M123 652q0 146 38.5 267.5t112.5 211.5t191 140.5t267 50.5t267.5 -50.5t192 -140.5t112.5 -211.5t38 -267.5q0 -147 -38 -268.5t-112.5 -212t-192 -140.5t-267.5 -50q-199 0 -338 88t-205 237t-66 346zM248 655q0 -266 129 -418.5t355 -152.5q227 0 356.5 152.5 t129.5 418.5q0 264 -129.5 414t-356.5 150t-355.5 -150t-128.5 -414z" />
<glyph unicode="P" horiz-adv-x="1094" d="M108 22v32q0 10 0.5 14.5t5 8t13.5 3.5q45 1 66.5 2t43.5 5.5t29 8.5t13.5 16.5t7 24.5t0.5 38v970q0 35 -8.5 48.5t-40.5 20.5t-111 9q-13 0 -16 5.5t-3 20.5v32q0 14 4 18t18 4h401q112 0 195.5 -21.5t133.5 -57t81 -88.5t42 -107t11 -122q0 -200 -115.5 -313.5 t-334.5 -113.5q-76 0 -140 12v-315v-38t6 -25t12.5 -17.5t26.5 -8t41 -5l63 -1.5q20 0 24 -6t4 -26v-24q0 -16 -4 -21t-20 -5h-425q-17 0 -20.5 3.5t-3.5 18.5zM404 590q25 -13 136 -13q162 0 247.5 86.5t85.5 239.5q0 309 -305 309h-164v-622z" />
<glyph unicode="Q" horiz-adv-x="1467" d="M123 652q0 146 38.5 267.5t112.5 211.5t191 140.5t267 50.5t267.5 -50.5t192 -140.5t112.5 -211.5t38 -267.5q0 -230 -92.5 -395t-270.5 -233l25 -59q30 -83 77 -117t125 -34q45 0 75 7q8 3 13.5 0.5t5.5 -15.5v-44q0 -18 -25 -25q-50 -11 -106 -11q-204 0 -283 227 l-15 41q-62 -13 -139 -13q-199 0 -338 88t-205 237t-66 346zM248 655q0 -202 74.5 -339.5t213.5 -194.5q-7 17 -7 48q0 60 41 102t117 42q92 0 150 -41.5t103 -146.5q134 60 206 196.5t72 333.5q0 264 -129.5 414t-356.5 150t-355.5 -150t-128.5 -414zM609 164q0 -56 58 -76 q20 -4 65 -4q53 0 104 9l-2 9q-15 46 -32.5 74t-38.5 40.5t-37 15.5t-43 3q-33 0 -53.5 -20t-20.5 -51z" />
<glyph unicode="R" horiz-adv-x="1197" d="M106 22v32q0 10 0.5 14.5t5 8t13.5 3.5q109 3 135 13.5t27 57.5v851h-2v143q0 35 -8.5 48.5t-40.5 20.5t-111 9q-13 0 -16 5.5t-3 20.5v32q0 14 4.5 18t19.5 4h443q228 0 335 -113t107 -311q0 -147 -70.5 -250t-209.5 -141l146 -294q34 -70 60 -95t72 -25q30 0 76 19 q14 6 21 3.5t11 -16.5l7 -33q6 -20 0 -28t-30 -17q-66 -21 -121 -21q-22 0 -41 2.5t-35 10t-28 13t-24.5 19.5t-19 21t-17.5 27t-15 27.5t-15 31t-15 31.5l-149 305h-46q-105 0 -170 13v-305q0 -23 1 -33.5t2.5 -23.5t9 -17.5t15.5 -10t27.5 -6.5t38.5 -2.5t55 -1.5 q20 0 24 -6t4 -26v-24q0 -16 -4 -21t-20 -5h-425q-16 0 -20 3.5t-4 18.5zM402 586q92 -18 168 -18q161 0 242.5 80.5t81.5 230.5q0 162 -86 245.5t-233 83.5h-173v-622z" />
<glyph unicode="S" horiz-adv-x="1100" d="M127 80v259q0 14 5.5 19t23.5 5h41q13 0 18 -5t7 -17l14 -226q127 -31 291 -31q44 0 83.5 4.5t89 21t85 43.5t60 76.5t24.5 116.5q0 86 -39 144.5t-101.5 89t-137.5 52.5t-150.5 46t-138 58t-101.5 99.5t-39 160.5q0 78 22.5 136.5t59 94t90 57.5t108 30t120.5 8 q96 0 188 -14.5t136 -32.5q18 -8 23 -15.5t5 -28.5v-265q0 -10 -0.5 -15t-4.5 -7t-6 -2h-11h-49q-15 0 -18.5 3t-3.5 16l-17 231q-70 20 -114 25.5t-128 5.5q-288 0 -288 -214q0 -60 24 -103t65 -69t94 -45t111 -34.5t116.5 -33t111.5 -45.5t94 -67.5t65 -103.5t24 -149 q0 -68 -15 -123.5t-40 -94t-61.5 -68t-75 -46.5t-85 -28t-86.5 -14.5t-85 -3.5q-97 0 -218.5 16t-159.5 33q-26 12 -26 50z" />
<glyph unicode="T" horiz-adv-x="1135" d="M91 968v315q0 14 4 17t19 3h906q11 0 15 -1t6.5 -5t2.5 -14v-315q0 -9 -4 -13.5t-18 -4.5h-41q-16 0 -20 4t-4 14l-13 211q-3 16 -8.5 21.5t-19.5 5.5h-290v-1001h1v-28q0 -27 0.5 -38.5t6 -25t12 -17t26.5 -8t40.5 -5t62.5 -1.5q10 0 16 -1t8 -6.5t2.5 -9t0.5 -15.5v-24 q0 -16 -4 -21t-18 -5h-428q-15 0 -18.5 4t-3.5 18v32q0 15 3 20.5t15 5.5q109 3 135 13.5t27 57.5v1055h-290q-16 0 -21.5 -5.5t-8.5 -21.5l-13 -211q-1 -6 -1.5 -7.5t-2.5 -5t-6.5 -4.5t-11.5 -1h-43q-14 0 -17.5 4t-3.5 14z" />
<glyph unicode="U" horiz-adv-x="1442" d="M84 1253v24q0 16 4 21t20 5h430q16 0 19 -3.5t3 -18.5v-32v-13t-1.5 -7t-5.5 -5t-11 -1q-102 -3 -130.5 -13.5t-29.5 -47.5v-710q0 -178 90.5 -273t259.5 -95t256.5 94.5t87.5 273.5v680q0 24 -0.5 36t-7 24t-13 16t-27 7.5t-40.5 4t-61 1.5q-20 0 -24 6t-4 26v24 q0 17 3.5 21.5t20.5 4.5h414q16 0 19 -3.5t3 -18.5v-32q0 -13 -3 -19t-5.5 -6.5t-9.5 -0.5q-103 -3 -131.5 -14t-29.5 -51v-706q0 -214 -115 -342.5t-339 -128.5q-228 0 -346.5 123t-118.5 348v680q0 24 -0.5 36t-7 24t-13 16t-27 7.5t-40.5 4t-61 1.5q-20 0 -24 6t-4 26z " />
<glyph unicode="V" horiz-adv-x="1338" d="M43 1242v43q0 11 4 14.5t14 3.5h403q14 0 14 -18v-41q0 -23 -18 -23q-51 -1 -78 -2t-40.5 -5t-15.5 -8t-2 -14q0 -133 23 -265t53.5 -231t84.5 -215t91.5 -183.5t97.5 -169.5q61 103 98 169t91 182.5t84.5 215t53.5 231t23 266.5q0 10 -2.5 14t-16 8t-40 5t-77.5 2 q-20 0 -20 23v41q0 18 16 18h391q11 0 15 -3.5t4 -14.5v-43q0 -9 -1 -12t-5 -5t-13 -2q-54 -2 -82 -3.5t-42 -5.5t-16.5 -8t-2.5 -14q0 -148 -28 -296t-58 -247t-98.5 -237t-99 -190t-110.5 -182q-11 -18 -16 -27q-13 -20 -39 -20h-30q-26 0 -37 20q-145 236 -206 358 q-203 406 -203 821q0 11 -8 16.5t-39.5 9t-98.5 5.5q-7 0 -10.5 0.5t-5.5 3.5t-2 5v10z" />
<glyph unicode="W" horiz-adv-x="1921" d="M47 1240v43q0 13 2.5 16.5t13.5 3.5h421q8 0 9.5 -3.5t1.5 -16.5v-39q0 -13 -2.5 -18t-14.5 -5q-55 -1 -80 -2t-40.5 -5t-18 -8.5t-2.5 -15.5q1 -167 26 -322t72.5 -296.5t86.5 -233.5t100 -219q283 596 287 1071q0 20 -26.5 24.5t-117.5 6.5q-17 0 -17 19v43q0 20 17 20 h404q7 0 10 -1t5 -5.5t2 -13.5v-41q0 -12 -2 -16t-13 -5q-95 -1 -124 -7.5t-29 -23.5v-4q5 -517 293 -1067q46 96 79 170t74.5 187t67.5 215.5t44.5 234.5t19.5 264q0 21 -19.5 25.5t-124.5 5.5q-11 0 -14.5 4.5t-3.5 16.5v39q0 14 3 18t11 4h403q8 0 12 -1t7 -5.5t3 -13.5 v-41q0 -12 -3 -16t-17 -5q-58 -1 -85.5 -2t-44.5 -4.5t-20 -8.5t-3 -16q-1 -141 -22 -280.5t-50.5 -248t-75 -225t-82.5 -196t-85 -177.5l-24 -48q-8 -22 -32 -22h-54q-26 0 -35 22q-4 9 -29 60t-32 65.5t-30.5 63.5t-32.5 71t-30 70t-31.5 77.5t-27 76.5t-27.5 85t-23 84.5 t-22 91.5q-32 -139 -88.5 -295t-92.5 -235.5t-100 -214.5q-8 -22 -32 -22h-59q-25 0 -34 22q-120 246 -156 332q-169 400 -180 804q-1 19 -1 39t-22.5 25t-126.5 6q-12 1 -14 4t-2 15z" />
<glyph unicode="X" horiz-adv-x="1297" d="M39 22v32v12.5t2 7t6 5.5t11 1q66 2 97 9t48 20.5t39 48.5l335 514l-307 505q-11 21 -21.5 28.5t-40 12t-96.5 5.5q-13 0 -16 5.5t-3 20.5v32q0 14 4 18t18 4h410q17 0 20.5 -4.5t3.5 -21.5v-24q0 -20 -4 -26t-24 -6q-50 0 -76 -2.5t-36 -11t-7 -19.5t17 -32l229 -376 l229 352q32 51 32 65t-22.5 18t-89.5 6q-20 0 -24 6t-4 26v24q0 16 4 21t20 5h395q16 0 19 -3.5t3 -18.5v-37v-9t-1 -5.5t-2.5 -4t-5 -1.5t-9.5 -1q-79 -3 -119 -18.5t-64 -53.5l-303 -464l318 -516q58 -95 119 -95q19 0 50.5 6t39.5 6q16 5 16 -14l4 -40q0 -19 -3.5 -25.5 t-22.5 -12.5q-50 -15 -104 -15q-77 0 -119 32.5t-86 103.5l-283 460l-264 -406q-30 -44 -30 -59q0 -16 27 -22t97 -8q20 0 24 -6t4 -26v-24q0 -16 -4 -21t-20 -5h-408q-14 0 -18 4t-4 18z" />
<glyph unicode="Y" horiz-adv-x="1260" d="M43 1242v43q0 11 4 14.5t14 3.5h401q16 0 16 -18v-41q0 -23 -20 -23q-77 0 -105.5 -5.5t-28.5 -20.5q0 -92 25.5 -178t74.5 -163t95.5 -134t113.5 -126q69 70 116 126.5t97 133.5t76 163t26 178q0 15 -28 20.5t-106 5.5q-21 0 -21 23v41q0 18 17 18h391q11 0 14.5 -3.5 t3.5 -14.5v-43q0 -9 -0.5 -12t-4.5 -5t-13 -2q-84 -3 -114 -9t-31 -22q-2 -106 -34 -206t-90.5 -190t-112.5 -155t-130 -144v-320q0 -23 1 -33.5t2.5 -23.5t9 -17.5t15.5 -10t27.5 -6.5t38.5 -2.5t55 -1.5q20 0 24 -6t4 -26v-24q0 -16 -4 -21t-20 -5h-427q-15 0 -18.5 4 t-3.5 18v32q0 11 0.5 15t4.5 7.5t13 3.5q45 1 66.5 2t44 5t29.5 8.5t14 17t7.5 25t0.5 37.5v317q-61 64 -104 113t-96.5 122.5t-86.5 140t-56.5 152.5t-24.5 172q0 15 -31.5 21.5t-112.5 9.5q-7 0 -10.5 0.5t-5.5 3.5t-2 5v10z" />
<glyph unicode="Z" horiz-adv-x="1070" d="M115 19v44q0 17 8 32l672 1117h-536q-10 0 -15 -2t-8 -10t-3.5 -14t-1.5 -24l-9 -190q-3 -19 -25 -19h-41q-22 0 -22 21v309q0 14 3.5 17t17.5 3h754q14 0 17 -5.5t3 -22.5v-42q0 -27 -15 -47l-655 -1095h568q25 0 28 36l11 195q2 16 5 20t17 4h43q11 0 15.5 -5.5 t4.5 -20.5v-298q0 -14 -4 -18t-16 -4h-803q-13 0 -13 19z" />
<glyph unicode="[" horiz-adv-x="588" d="M190 -279v1603q0 9 0.5 12.5t3.5 5.5t9 2h283h4t2.5 -1t2 -3t0.5 -5v-76q0 -7 -2 -8.5t-9 -1.5h-177v-1444h175q8 0 10.5 -2t2.5 -10v-74q0 -6 -2 -7.5t-7 -1.5h-287q-9 0 -9 11z" />
<glyph unicode="\" horiz-adv-x="848" d="M60 1322h122l607 -1354h-124z" />
<glyph unicode="]" horiz-adv-x="588" d="M91 -203q0 8 13 8h177v1444h-175q-10 0 -12.5 1.5t-2.5 9.5v77q0 7 11 7h287q8 0 8 -9v-1605q0 -9 -0.5 -12.5t-3.5 -5.5t-9 -2h-282q-11 0 -11 9v78z" />
<glyph unicode="^" horiz-adv-x="1264" d="M117 804l514 505l516 -505l-78 -65l-438 438l-436 -438z" />
<glyph unicode="_" horiz-adv-x="1130" d="M145 0h840v-101h-840v101z" />
<glyph unicode="`" horiz-adv-x="644" d="M179 1592q-12 13 -10 19.5t17 6.5h80q17 0 24 -4t21 -20l186 -207q20 -26 -7 -26h-51q-9 0 -17.5 3.5t-14 8t-20.5 16.5z" />
<glyph unicode="a" horiz-adv-x="1007" d="M97 195q0 33 6.5 61.5t16 50t27 39.5t33 30t42 22t45 16t50 12t50 8.5t52.5 6.5q41 5 64.5 9.5t57.5 12.5t53 20t39 30t28.5 44.5t8.5 60.5q0 42 -8 70t-31.5 53t-72 37.5t-122.5 12.5q-116 0 -175 -26l-13 -175q0 -14 -4 -17t-17 -3h-46q-23 0 -23 20v198q0 24 5.5 35.5 t20.5 18.5q31 17 99.5 29.5t154.5 12.5q88 0 151 -15t101 -40.5t60.5 -67.5t30 -87.5t7.5 -109.5v-329q0 -89 19.5 -120t56.5 -31q48 0 48 44q0 13 1 18.5t8.5 9.5t22.5 4h19q21 0 25 -5.5t4 -22.5q0 -139 -147 -139t-167 154q-96 -154 -328 -154q-128 0 -190.5 48 t-62.5 154zM216 195q0 -58 36 -82.5t109 -24.5q134 0 223.5 85.5t89.5 187.5v88q-31 -49 -88.5 -68.5t-146.5 -30.5q-110 -16 -146 -32q-77 -33 -77 -123z" />
<glyph unicode="b" horiz-adv-x="1107" d="M41 22v32q0 14 3.5 20t15.5 6q45 1 66.5 2t43.5 5.5t29 8.5t13.5 16.5t7 25t0.5 37.5v979q0 40 -7.5 48t-41.5 10l-98 2q-7 0 -10.5 3t-4 7t-0.5 14v30q0 17 4 22.5t18 5.5q53 7 129 7h91q35 0 35 -35v-583q41 97 123.5 148t183.5 51q120 0 203 -60t121 -159.5t38 -230.5 q0 -97 -21.5 -176.5t-65.5 -139.5t-117 -93.5t-169 -33.5q-47 0 -91.5 9t-86.5 27.5t-73.5 52t-46.5 78.5v-115q0 -17 -1.5 -24.5t-9 -13t-24.5 -5.5h-235q-16 0 -19 3.5t-3 18.5zM343 408q0 -149 67.5 -234.5t203.5 -85.5q141 0 205.5 91.5t64.5 252.5q0 160 -63.5 257 t-200.5 97t-207 -102.5t-70 -275.5z" />
<glyph unicode="c" horiz-adv-x="917" d="M102 421q0 229 111 346t318 117q147 0 242 -42q15 -7 20.5 -17t5.5 -34v-240q0 -19 -19 -19h-52q-16 0 -19 17l-13 212q-66 28 -158 28q-316 0 -316 -368q0 -100 23.5 -167.5t71 -104t107.5 -51t146 -14.5q59 0 102.5 7t120.5 28q14 4 19 -2.5t5 -23.5v-41 q0 -13 -4.5 -18t-19.5 -10q-93 -33 -240 -33q-106 0 -184.5 20.5t-140.5 68t-94 133.5t-32 208z" />
<glyph unicode="d" horiz-adv-x="1124" d="M104 434q0 131 39 230.5t123.5 159.5t206.5 60q70 0 129 -16.5t108 -58t70 -105.5v450q0 40 -7.5 48t-40.5 10l-101 2q-7 0 -10.5 3t-4 7t-0.5 14v30q0 17 5 22.5t19 5.5q50 7 127 7h93q34 0 34 -35v-1037q0 -88 19.5 -118.5t56.5 -30.5q48 0 48 43q0 14 1 19.5t8 9.5 t23 4h19q21 0 26 -5.5t5 -22.5q0 -139 -143 -139q-144 0 -169 152q-42 -84 -125 -119t-181 -35q-189 0 -283.5 122t-94.5 323zM220 432q0 -148 71.5 -247t209.5 -99q144 0 213.5 85.5t69.5 241.5q0 186 -70.5 278.5t-216.5 92.5q-139 0 -208 -96t-69 -256z" />
<glyph unicode="e" horiz-adv-x="945" d="M104 428q0 456 404 456q160 0 243 -66.5t83 -191.5q0 -138 -93.5 -208t-248.5 -70q-141 0 -269 47q4 -92 27.5 -154.5t66.5 -95.5t94.5 -46t122.5 -13q81 0 142 14.5t139 44.5q27 9 27 -17v-42q0 -18 -4 -23.5t-23 -15.5q-115 -56 -296 -56q-213 0 -314 106t-101 331z M225 495q121 -48 246 -48q112 0 179 45t67 134q0 81 -56 121.5t-156 40.5q-133 0 -201 -72.5t-79 -220.5z" />
<glyph unicode="f" horiz-adv-x="662" d="M82 22v32q0 15 4 20.5t15 5.5q94 3 117 13t24 52v633h-138q-18 0 -18 17v52q0 19 18 19h138v128q0 171 73.5 249.5t203.5 78.5q102 0 166 -32q26 -12 26 -54v-180q0 -14 -3 -16.5t-15 -2.5h-53q-11 0 -13.5 3.5t-2.5 13.5l-15 156q-34 17 -90 17q-82 0 -122 -58.5 t-40 -191.5v-111h211q12 0 15 -5t3 -16v-48q0 -10 -3 -14.5t-15 -4.5h-211v-601q0 -26 0.5 -38t8 -25.5t16.5 -17t35 -8t53 -5l81 -1.5q20 0 24 -6t4 -26v-24q0 -16 -3.5 -21t-20.5 -5h-451q-16 0 -19 3.5t-3 18.5z" />
<glyph unicode="g" horiz-adv-x="1117" d="M108 434q0 200 94.5 325t274.5 125q71 0 131.5 -17t110 -60t69.5 -109v131q0 20 7 28.5t26 8.5h73q15 0 162 -10q15 0 19.5 -5t4.5 -19v-33q0 -15 -3 -19.5t-16 -4.5l-113 -2q-23 0 -36 -15.5t-13 -44.5v-631q0 -227 -107.5 -340.5t-331.5 -113.5q-167 0 -281 48 q-15 7 -20.5 16t-5.5 31v33q0 18 5.5 23t20.5 1q146 -52 272 -52q79 0 136.5 15.5t104 53.5t70.5 109t24 176v48q-82 -141 -300 -141q-127 0 -214 59.5t-125.5 157.5t-38.5 228zM225 432q0 -148 71.5 -247t209.5 -99q142 0 212.5 86t70.5 241q0 186 -70.5 278.5t-217.5 92.5 q-139 0 -207.5 -96t-68.5 -256z" />
<glyph unicode="h" horiz-adv-x="1113" d="M41 22v32q0 14 3.5 20t15.5 6q45 1 66.5 2t43.5 5.5t29 8.5t13.5 16.5t7 25t0.5 37.5v977q0 60 -47 60l-102 2q-9 0 -11 3t-2 17v38q0 17 2.5 21t15.5 5q44 1 92 4t57 3h73q21 0 27 -8t6 -29v-590q43 104 126.5 155t184.5 51q121 0 181 -66t60 -209v-376 q0 -88 19.5 -118.5t56.5 -30.5q48 0 48 43q0 22 4.5 27.5t27.5 5.5h19q21 0 25 -4.5t4 -23.5q0 -139 -147 -139q-82 0 -126.5 49.5t-44.5 166.5v391q0 105 -37 146.5t-110 41.5q-131 0 -209 -104.5t-78 -318.5v-188v-38t6 -25t12 -17.5t26 -8t40.5 -5t62.5 -1.5q20 0 24 -6 t4 -26v-24q0 -16 -4 -21t-18 -5h-425q-16 0 -19 3.5t-3 18.5z" />
<glyph unicode="i" horiz-adv-x="577" d="M60 801v29q0 17 5 22.5t19 5.5q57 8 128 8h91q34 0 34 -36v-597q0 -88 19.5 -118.5t56.5 -30.5q49 0 49 43q0 22 4.5 27.5t26.5 5.5h19q22 0 27 -4.5t5 -23.5q0 -139 -149 -139q-172 0 -172 216v508q0 40 -7.5 48t-40.5 10l-99 1q-12 0 -14 5t-2 20zM203 1132 q0 33 20.5 53.5t53.5 20.5q29 0 50 -20.5t21 -53.5q0 -34 -21 -54t-50 -20q-33 0 -53.5 19.5t-20.5 54.5z" />
<glyph unicode="j" horiz-adv-x="521" d="M-30 -197q0 14 4 19t17 5h56q9 0 11.5 -6t3 -18t1.5 -17q7 -54 78 -54q18 0 31.5 4.5t28.5 18t23.5 45t8.5 79.5v838q0 40 -7.5 48t-41.5 10l-98 1q-12 0 -14.5 5t-2.5 20v29q0 17 5 22.5t19 5.5q60 8 129 8h91q35 0 35 -36v-918q0 -144 -49 -206t-148 -62 q-95 0 -138 46.5t-43 112.5zM207 1132q0 33 20.5 53.5t51.5 20.5q30 0 51.5 -20.5t21.5 -53.5q0 -34 -21 -54t-52 -20q-32 0 -52 20t-20 54z" />
<glyph unicode="k" horiz-adv-x="1014" d="M41 22v32q0 14 3.5 20t15.5 6q45 1 66.5 2t43.5 5.5t29 8.5t13.5 16.5t7 25t0.5 37.5v977q0 60 -47 60l-97 2l-10.5 1.5t-5.5 4t-2 6v10.5v36q0 16 4 20t18 6q45 1 91.5 4t55.5 3h73q21 0 28 -8t7 -29v-797l307 277q25 23 14 29q-14 7 -103 7q-18 0 -22 5t-4 25v26 q0 16 4 21t20 5h384q14 0 17 -4t3 -19v-39q0 -12 -3 -16t-14 -4q-87 0 -113.5 -9t-74.5 -53l-288 -260l260 -304q25 -32 37 -46t31.5 -26.5t38.5 -12.5q65 0 65 63q1 18 7.5 24t23.5 6h13q22 0 27 -5.5t5 -30.5q0 -149 -155 -149q-15 0 -29 2.5t-24.5 4.5t-23.5 9t-20 10 t-19 14.5t-16 14t-16.5 17.5t-14 16.5t-15 18.5t-13.5 18l-289 350v-309q1 -44 24.5 -53.5t122.5 -11.5q20 0 24 -6t4 -26v-24q0 -16 -4 -21t-18 -5h-425q-16 0 -19 3.5t-3 18.5z" />
<glyph unicode="l" horiz-adv-x="519" d="M13 1251v39q0 16 5 20t19 4q101 8 129 8h93q31 0 31 -30v-1059q0 -88 20 -118.5t57 -30.5q48 0 48 43q0 22 5 27.5t27 5.5h18q22 0 27 -4.5t5 -23.5q0 -139 -149 -139q-171 0 -171 216v970q0 35 -7.5 42.5t-37.5 7.5l-100 2q-14 0 -16.5 3.5t-2.5 16.5z" />
<glyph unicode="m" horiz-adv-x="1610" d="M80 22v32q0 16 2.5 21t14.5 5q100 3 123.5 14.5t23.5 63.5v557q0 60 -47 60l-102 1q-10 0 -12.5 4t-2.5 17v37q0 16 3 20t16 6q44 1 92 4.5t57 3.5h72q21 0 28.5 -8.5t7.5 -29.5v-115q66 169 255 169q176 0 229 -147q83 147 279 147q132 0 196.5 -81.5t64.5 -258.5v-309 q0 -90 19.5 -120.5t56.5 -30.5q48 0 48 43q0 22 5 27.5t27 5.5h19q22 0 26.5 -4t4.5 -24q0 -139 -149 -139q-82 0 -126.5 49.5t-44.5 166.5v327q0 135 -41.5 193.5t-127.5 58.5q-102 0 -163.5 -68.5t-64.5 -196.5v-367q1 -52 27.5 -62t144.5 -12q18 0 22 -6t4 -26v-24 q0 -16 -3.5 -21t-19.5 -5h-411q-15 0 -18.5 4t-3.5 18v32q0 16 2.5 21t13.5 5q82 2 104 13t25 54v391q0 140 -42 195t-126 55q-228 0 -231 -356v-289q1 -40 23.5 -49.5t109.5 -11.5q18 0 22 -6t4 -26v-24q0 -16 -3.5 -21t-19.5 -5h-392q-13 0 -17 4t-4 18z" />
<glyph unicode="n" horiz-adv-x="1141" d="M71 22v32q0 15 3 20.5t15 5.5q45 1 66.5 2t43.5 5.5t29 8.5t13.5 16.5t7 25t0.5 37.5v540q0 60 -44 60l-103 1q-9 0 -11.5 4t-2.5 17v37q0 17 2.5 21t15.5 5q44 1 92 4.5t57 3.5h73q21 0 28 -8.5t7 -29.5v-147q43 102 126 151.5t183 49.5q121 0 180.5 -66t59.5 -209v-376 q0 -88 20 -118.5t57 -30.5q48 0 48 43q0 22 5 27.5t27 5.5h18q22 0 27 -4.5t5 -23.5q0 -139 -149 -139q-171 0 -171 216v391q0 105 -37 146.5t-110 41.5q-131 0 -209 -104.5t-78 -318.5v-188v-38t6 -25t12.5 -17.5t26.5 -8t41 -5l63 -1.5q18 0 22 -6t4 -26v-24 q0 -9 -0.5 -12.5t-2.5 -7.5t-6.5 -5t-12.5 -1h-423q-16 0 -20 3.5t-4 18.5z" />
<glyph unicode="o" horiz-adv-x="1031" d="M101 439q0 88 23.5 165t71 141t130.5 101.5t192 37.5t191 -37.5t129 -101.5t70 -141t23 -165t-23.5 -165.5t-71 -142t-130 -102.5t-190.5 -38q-88 0 -159 25t-118 67.5t-78.5 100.5t-45.5 121.5t-14 133.5zM220 434q0 -71 17 -132.5t51 -111t92.5 -78t135.5 -28.5 t135.5 28.5t92.5 78t51 111t17 132.5t-17 133t-51 112.5t-92 80t-134 29.5q-77 0 -135.5 -29.5t-93.5 -80t-52 -112.5t-17 -133z" />
<glyph unicode="p" horiz-adv-x="1104" d="M39 -300q0 15 3.5 20.5t15.5 5.5q43 1 65 2t43.5 5.5t28.5 8.5t13.5 16t7 24t0.5 36v906q-6 51 -47 51l-102 1q-10 0 -12.5 4t-2.5 17v37q0 16 3 20t16 6q45 1 93 4.5t56 3.5h72q23 0 29.5 -8.5t6.5 -29.5v-150q39 99 123.5 151.5t187.5 52.5q177 0 269 -124.5t92 -325.5 q0 -97 -22 -178t-66 -143t-116.5 -97t-166.5 -35q-97 0 -181 44t-117 130v-332q0 -25 0.5 -38t7 -25.5t13.5 -17t27.5 -8.5t41.5 -4.5l63 -1.5q20 0 24 -5.5t4 -25.5v-25q0 -16 -4 -21t-20 -5h-425q-17 0 -20.5 4t-3.5 19v31zM337 406q0 -151 69 -242t205 -91 q140 0 205 96.5t65 258.5q0 161 -64.5 259.5t-200.5 98.5q-137 0 -208 -103.5t-71 -276.5z" />
<glyph unicode="q" horiz-adv-x="1117" d="M104 438q0 97 22.5 176.5t68.5 141t122 95t176 33.5q206 0 293 -143v88q0 20 7.5 28.5t27.5 8.5h73q13 0 160 -10q16 0 20 -4.5t4 -19.5v-33q0 -15 -3 -19.5t-16 -4.5l-113 -2q-22 0 -35.5 -16t-13.5 -44v-493h-1v-399q0 -26 0.5 -37.5t6.5 -24.5t12.5 -17t27 -8t41 -4.5 t62.5 -1.5q20 0 24 -5.5t4 -25.5v-25q0 -16 -4 -21t-20 -5h-426q-16 0 -19.5 4t-3.5 19v31q0 15 4 20.5t15 5.5q44 1 65.5 2t44 5t30.5 8.5t15 16.5t8 25.5t1 37.5v322q-78 -152 -298 -152q-189 0 -285.5 123.5t-96.5 323.5zM223 438q0 -70 16 -131t48.5 -111.5t88.5 -80 t129 -29.5q136 0 207.5 95t71.5 258q0 161 -70 256.5t-208 95.5q-72 0 -127.5 -28.5t-89 -78.5t-50 -112t-16.5 -134z" />
<glyph unicode="r" horiz-adv-x="878" d="M69 22v32q0 14 3.5 20t15.5 6q45 1 66.5 2t43.5 5t29 8.5t14 17t7.5 25t0.5 37.5v540q0 60 -46 60l-102 1q-10 0 -12.5 4t-2.5 17v37q0 17 2.5 21t15.5 5q44 1 92 4.5t57 3.5h73q21 0 28 -8.5t7 -29.5v-190h2q77 244 296 244q66 0 112 -22q19 -9 22.5 -17.5t3.5 -36.5 v-242q0 -13 -3.5 -16t-15.5 -3h-54q-17 0 -17 17l-13 211q-22 9 -63 9q-261 0 -268 -512v-67h2v-28v-30t2.5 -22t4.5 -17t11 -10.5t17 -8.5t26.5 -3.5t36 -3t49.5 -0.5q20 0 24 -6t4 -26v-24q0 -16 -4 -21t-20 -5h-423q-16 0 -20 3.5t-4 18.5z" />
<glyph unicode="s" horiz-adv-x="871" d="M106 52v199q0 24 6.5 31t25.5 7h35q8 0 12 -1t7.5 -8t4.5 -21l10 -155q99 -24 223 -24q120 0 176.5 34t56.5 130q0 59 -30 96.5t-78 54t-106 26.5t-116 21.5t-106 31.5t-78 64.5t-30 113.5q0 127 73 179.5t234 52.5q202 0 272 -33q17 -7 22.5 -14t5.5 -23l-4 -196 q0 -14 -6 -17t-23 -3h-34q-15 0 -20.5 6t-5.5 22l-6 145q-87 20 -199 20q-103 0 -151 -26.5t-48 -111.5q0 -39 23.5 -64.5t61.5 -36t87 -20t100 -15.5t100 -24t87 -44.5t61.5 -77.5t23.5 -123q0 -64 -17 -110.5t-45.5 -75t-73.5 -45t-93 -22.5t-112 -6q-92 0 -176.5 10 t-121.5 25q-16 6 -22 11t-6 17z" />
<glyph unicode="t" horiz-adv-x="675" d="M63 793v50q0 15 4 19t17 4h132l37 253q3 26 26 26h26q14 0 18.5 -6t4.5 -22v-251h262q13 0 17 -5t4 -19v-49q0 -15 -4 -18.5t-17 -3.5h-262v-477q0 -126 30 -173.5t98 -47.5q88 0 88 72q0 26 28 26h26q14 0 19 -6.5t5 -21.5q0 -81 -49 -121.5t-139 -40.5 q-117 0 -169.5 75.5t-52.5 233.5v481h-128q-14 0 -17.5 4t-3.5 18z" />
<glyph unicode="u" horiz-adv-x="1117" d="M43 802v30q0 16 4.5 21t17.5 5q31 2 51 3.5t26 2t11.5 1.5t14.5 1h29h93q19 0 25.5 -9t6.5 -30v-535q0 -126 41 -170t130 -44q133 0 203.5 79.5t70.5 263.5v322q-8 33 -45 33l-102 2q-7 0 -10.5 3t-4 7t-0.5 14v30q0 16 4.5 21t17.5 5q37 2 58 4t25 2.5t14 1t34 0.5h93 q19 0 25.5 -9t6.5 -30v-594q0 -88 19.5 -118.5t56.5 -30.5q48 0 48 43q0 22 4.5 27.5t27.5 5.5h17h9h7.5t5.5 -1.5t3.5 -1.5t2.5 -2t2 -2.5t1 -4v-4.5v-5.5v-6.5q0 -139 -147 -139q-142 0 -165 147q-84 -153 -297 -153q-141 0 -206 71.5t-65 237.5v430q0 50 -47 50l-102 2 q-7 0 -10.5 3t-4 7t-0.5 14z" />
<glyph unicode="v" horiz-adv-x="1009" d="M50 797v56q0 13 15 13h361q13 0 13 -15v-52q0 -7 -0.5 -9.5t-4 -5t-11.5 -2.5q-46 -1 -67 -2t-35 -4t-16.5 -7t-2.5 -13q1 -97 18.5 -190t52 -180.5t63 -147t72.5 -139.5q44 79 74 139.5t64 147t52 180t19 190.5q2 17 -15.5 21t-100.5 5q-18 0 -18 15v52q0 17 15 17h340 q14 0 17.5 -4t3.5 -13v-48q0 -16 -19 -19q-86 -1 -102.5 -5.5t-18.5 -22.5q-1 -114 -25 -224t-68 -210.5t-79 -165t-87 -147.5q-6 -14 -29 -14h-53q-23 0 -31 14q-52 86 -85.5 148.5t-78 163.5t-68.5 211t-25 224q-2 17 -19 21t-106 7q-7 1 -10.5 3t-4 4.5t-0.5 7.5z" />
<glyph unicode="w" horiz-adv-x="1578" d="M47 799v54q0 13 16 13h391q15 0 15 -15v-52q0 -17 -18 -17q-82 -1 -107.5 -6.5t-23.5 -19.5q1 -95 19.5 -187.5t53 -179.5t64 -148t72.5 -139q44 79 73 139.5t63.5 147.5t52.5 179.5t19 187.5q1 9 -1 12.5t-15.5 7t-39 4.5t-74.5 2q-8 0 -13.5 5t-5.5 12v52q0 15 15 15 h374q17 0 17 -13v-56q0 -5 -0.5 -7.5t-4 -4.5t-10.5 -3q-123 -3 -136 -13q5 -187 63.5 -344t156.5 -321q43 75 74.5 138.5t65 148.5t51.5 178t19 187q2 17 -16 21t-112 5q-17 0 -17 17v52q0 15 13 15h369q17 0 17 -15v-52q0 -14 -17 -17q-52 -1 -78 -2t-39.5 -4.5t-15.5 -7 t-3 -12.5q-2 -111 -27 -221.5t-69 -212t-79 -167.5t-84 -148q-8 -14 -26 -14h-67q-18 0 -26 14q-148 243 -208 445q-65 -206 -209 -445q-8 -14 -26 -14h-65q-19 0 -28 14q-49 82 -84 148t-79 167.5t-68.5 212t-25.5 221.5q-2 15 -27 20t-113 6q-16 2 -16 17z" />
<glyph unicode="x" horiz-adv-x="1042" d="M60 22v32q0 15 4.5 19.5t19.5 4.5q75 0 99.5 8.5t51.5 45.5l223 302l-223 305q-21 29 -50.5 37t-87.5 8q-19 0 -19 28v31q0 14 4.5 18.5t16.5 4.5h355q14 0 17.5 -5t3.5 -21v-19q0 -14 -1 -20.5t-6 -10.5t-16 -4q-87 0 -93 -14q-4 -9 15 -35l153 -210l156 212 q22 30 11 38q-14 9 -89 9q-14 0 -17 7t-3 28v19q0 16 3 21t15 5h343q14 0 17 -4t3 -19v-31q0 -16 -3 -21t-15 -5q-60 -2 -91.5 -10.5t-52.5 -36.5l-219 -292l230 -319q26 -35 50 -43.5t94 -8.5q15 0 19.5 -4t4.5 -18v-32q0 -15 -2.5 -18.5t-16.5 -3.5h-355q-14 0 -17.5 5 t-3.5 21v22q0 19 3.5 23.5t19.5 4.5q91 -2 93 13q0 7 -8 19l-180 246l-185 -246q-15 -19 1 -25q20 -7 111 -7q16 0 19 -4.5t3 -23.5v-22v-13t-1.5 -7t-5.5 -5t-11 -1h-369q-7 0 -10.5 0.5t-5.5 4t-2 6v11.5z" />
<glyph unicode="y" horiz-adv-x="1046" d="M60 797v56q0 9 3 11t11 2h362q13 0 13 -15v-52q0 -10 -2.5 -13.5t-14.5 -3.5q-57 -1 -82.5 -4.5t-29.5 -7.5t-3 -14q1 -90 44.5 -234t86 -244.5t77.5 -171.5q120 263 235 641q7 20 -4 26q-17 7 -106 9q-13 1 -16 4t-3 13v50q0 17 17 17h344q13 0 16 -3t3 -14v-50 q0 -14 -17 -17q-59 -1 -82.5 -5t-31.5 -12t-14 -30q-151 -528 -430 -1050q-24 -38 -50.5 -48.5t-68.5 -10.5h-123q-17 0 -20 2t-3 15v44q0 9 3.5 13t17.5 4q16 2 39 4.5t32.5 3.5t24.5 3t20.5 3.5t14 5t12.5 7.5t8.5 9.5t8.5 13.5l125 246q-10 2 -21 15q-73 121 -163.5 349 t-93.5 390q-1 9 -4.5 13.5t-17.5 8t-37 4.5t-66 2q-7 1 -10 3t-3.5 4t-0.5 8z" />
<glyph unicode="z" horiz-adv-x="906" d="M104 28v33q0 21 10 34l523 685h-388q-20 0 -26.5 -5.5t-8.5 -22.5l-2 -143q-2 -19 -26 -19h-41q-10 0 -14 0.5t-8 5t-4 13.5v229q0 28 24 28h615q22 0 22 -28v-36q0 -21 -13 -37l-519 -683h415q36 0 39 30l7 151q1 18 6.5 23.5t19.5 5.5h38q16 0 21 -6t5 -31v-227 q0 -28 -23 -28h-648q-24 0 -24 28z" />
<glyph unicode="{" horiz-adv-x="660" d="M60 493v56q0 15 16 17q108 18 146.5 62t38.5 141v318q0 53 11 93t37.5 76t80 55.5t131.5 19.5h38q8 0 11 -1.5t3 -9.5v-63q0 -9 -2.5 -12t-11.5 -3h-6q-175 0 -175 -153v-316q0 -112 -35.5 -170t-119.5 -82q84 -24 119.5 -81.5t35.5 -169.5v-317q0 -75 41.5 -112.5 t133.5 -37.5h6q9 0 11.5 -4t2.5 -13v-62q0 -9 -3 -11t-11 -2h-38q-78 0 -131.5 19.5t-80 55.5t-37.5 76t-11 93v321q0 96 -38.5 139.5t-146.5 61.5q-16 2 -16 16z" />
<glyph unicode="|" horiz-adv-x="497" d="M192 -311v1670h113v-1670h-113z" />
<glyph unicode="}" horiz-adv-x="660" d="M88 -214q0 17 13 17h5q177 0 177 150v317q0 112 34.5 169.5t118.5 81.5q-84 24 -118.5 82t-34.5 170v316q0 153 -177 153h-5q-13 0 -13 15v63q0 8 2.5 9.5t10.5 1.5h39q78 0 131 -19.5t79.5 -55.5t37 -76t10.5 -93v-318q0 -97 39 -141t148 -62q16 -2 16 -17v-56 q0 -14 -16 -16q-109 -18 -148 -61.5t-39 -139.5v-321q0 -53 -10.5 -93t-37 -76t-79.5 -55.5t-131 -19.5h-39q-5 0 -7.5 0.5t-4 3.5t-1.5 9v62z" />
<glyph unicode="~" horiz-adv-x="1323" d="M149 372q56 112 144.5 172.5t186.5 60.5q53 0 102 -23t86 -55.5t72 -64.5t74.5 -55t79.5 -23q107 0 193 176l90 -37q-45 -115 -123 -174.5t-162 -59.5q-54 0 -103 23t-85 55.5t-70 64.5t-72 55t-76 23q-76 0 -134 -41t-103 -130z" />
<glyph unicode="&#xa0;" horiz-adv-x="938" d="M149 501v58q0 16 17 16h610q17 0 17 -18v-51q0 -22 -20 -22h-609q-15 0 -15 17z" />
<glyph unicode="&#xa1;" horiz-adv-x="471" d="M151 804q0 33 22.5 56.5t57.5 23.5q32 0 56 -24t24 -56q0 -39 -23 -60.5t-57 -21.5q-36 0 -58 21.5t-22 60.5zM177 -315l11 959q0 13 4 16t18 3h60q17 0 17 -21l7 -959q0 -18 -13 -18h-86q-12 0 -15 4t-3 16z" />
<glyph unicode="&#xa2;" horiz-adv-x="975" d="M127 419q0 213 113.5 339t312.5 126q129 0 203 -53t74 -151q0 -75 -46.5 -124.5t-131.5 -49.5q-44 0 -79 10q-15 4 -19.5 10.5t-4.5 20.5v17q0 18 5.5 22t17.5 4q7 0 25 -2.5t32 -2.5q99 0 99 85q0 65 -48 93t-123 28q-148 0 -229.5 -98.5t-81.5 -273.5q0 -93 24 -161.5 t68.5 -107t99 -56.5t122.5 -18q127 0 270 65q15 5 20 0t5 -22v-46q0 -13 -5 -19t-20 -13q-130 -60 -288 -60q-199 0 -307 116.5t-108 321.5zM462 -320l3 236q0 19 15 19h77q9 0 9 -15l4 -240q0 -17 -8 -17h-91q-9 0 -9 17zM464 1190q-3 16 9 16h91q8 0 8 -18l-4 -238 q-4 -15 -11 -15h-75q-15 0 -15 18z" />
<glyph unicode="&#xa3;" horiz-adv-x="1197" d="M108 22v32q0 11 0.5 15.5t5 7.5t13.5 3q52 1 76 3t45.5 5.5t27 13t8.5 21t3 35.5v417h-157q-15 0 -15 17v58q0 17 17 17h155v251q0 117 25.5 195.5t79 124t127.5 64t181 18.5q188 0 320 -43q8 -3 13 -5t8.5 -5t5 -4t2.5 -5.5t1 -6v-9.5v-11v-248q0 -16 -3 -19t-17 -3h-47 q-11 0 -14.5 2.5t-4.5 15.5l-22 216q-87 24 -238 24q-70 0 -121.5 -10t-93.5 -34.5t-63.5 -70.5t-21.5 -114v-323h339q17 0 17 -19v-50q0 -23 -21 -23h-335v-473l506 -1q18 0 22.5 6.5t7.5 28.5l13 177q0 20 7.5 25t29.5 5h23q12 0 17 -4.5t6 -11t1 -23.5v-6v-278 q0 -14 -4.5 -17t-19.5 -3h-883q-14 0 -18 4t-4 18z" />
<glyph unicode="&#xa4;" horiz-adv-x="1251" d="M168 547q0 180 121 304l-101 106l78 45l91 -93q116 76 267 76q165 0 283 -89l98 96l75 -46l-108 -108q106 -120 106 -291q0 -174 -104 -292l110 -108l-86 -48l-101 89q-114 -80 -273 -80q-153 0 -272 78l-97 -95l-84 52l106 108q-109 119 -109 296zM289 547 q0 -154 92 -251t243 -97q147 0 241 97.5t94 250.5q0 152 -93.5 249.5t-241.5 97.5q-152 0 -243.5 -96.5t-91.5 -250.5z" />
<glyph unicode="&#xa5;" horiz-adv-x="1321" d="M73 1242v43q0 11 4 14.5t14 3.5h401q16 0 16 -18v-41q0 -23 -20 -23q-77 0 -105.5 -5.5t-28.5 -20.5q0 -91 25.5 -177t74 -162.5t95.5 -134t114 -125.5q68 69 115.5 126t97 133.5t75.5 162.5t26 177q0 15 -28 20.5t-106 5.5q-20 0 -20 23v41q0 18 17 18h391q10 0 14 -3.5 t4 -14.5v-43q0 -9 -0.5 -12t-4.5 -5t-13 -2q-84 -3 -114.5 -9t-31.5 -22q-4 -170 -80.5 -316.5t-202.5 -287.5h265q17 0 17 -16v-47q0 -20 -21 -20h-337l-9 -10v-72h350q17 0 17 -19v-45q0 -20 -21 -20h-346v-134h2v-28q0 -23 1 -33.5t2.5 -23.5t9 -17.5t15.5 -10t27.5 -6.5 t38.5 -2.5t55 -1.5q20 0 24 -6t4 -26v-24q0 -16 -4.5 -21t-20.5 -5h-426q-15 0 -18.5 4t-3.5 18v32q0 11 0.5 15t4.5 7.5t13 3.5q45 1 66.5 2t44 5t29.5 8.5t14 17t7.5 25t0.5 37.5v164h-348q-15 0 -15 15v52q0 17 17 17h346v69q-8 5 -13 13h-335q-15 0 -15 14v53 q0 16 17 16h257q-59 67 -103.5 129t-87 138.5t-65 162t-23.5 174.5q0 15 -31.5 21.5t-112.5 9.5q-7 0 -10.5 0.5t-5.5 3.5t-2 5v10z" />
<glyph unicode="&#xa6;" horiz-adv-x="504" d="M195 -266v728h114v-728h-114zM195 577v724h114v-724h-114z" />
<glyph unicode="&#xa7;" horiz-adv-x="1064" d="M134 121q0 15 5 19.5t21 4.5h45q20 0 24 -22l13 -214q120 -32 261 -32q49 0 94 6.5t95.5 24.5t81 57.5t30.5 97.5q0 64 -22 112t-58.5 76.5t-84.5 50t-101 37t-106 31.5t-101 40t-84.5 57t-58.5 87t-22 126q0 120 50 193q-50 70 -50 181q0 65 20 113t53 77.5t82 47 t98.5 24t111.5 6.5q94 0 178 -13.5t123 -31.5q17 -7 21.5 -14.5t4.5 -28.5v-253q0 -17 -4 -20.5t-18 -3.5h-48q-9 0 -13.5 4t-6.5 9l-1 6l-17 217q-66 19 -106.5 25.5t-111.5 6.5q-255 0 -255 -158q0 -56 22 -97.5t59 -65.5t85 -42t101 -32.5t105.5 -31t100.5 -43.5 t85 -64.5t59 -99t22 -142.5q0 -63 -13 -118t-30 -68q43 -79 43 -189q0 -297 -411 -297q-90 0 -201 14.5t-146 31.5q-24 11 -24 49v249zM277 693q0 -72 35 -119t95 -72t124 -42t139 -44t123 -64q11 38 11 84q0 68 -25 117.5t-63.5 77.5t-93.5 51t-106.5 36t-112 34.5 t-101.5 46.5q-25 -41 -25 -106z" />
<glyph unicode="&#xa8;" horiz-adv-x="714" d="M121 1448q0 29 19 49t50 20q33 0 53.5 -20t20.5 -49q0 -28 -20.5 -47.5t-53.5 -19.5q-31 0 -50 19t-19 48zM451 1448q0 29 19 49t53 20q33 0 53 -20t20 -49q0 -28 -21 -47.5t-54 -19.5t-51.5 19t-18.5 48z" />
<glyph unicode="&#xa9;" horiz-adv-x="1582" d="M128 618q0 157 49.5 281t138 202t207 118.5t259.5 40.5q143 0 264.5 -41.5t213 -121.5t143 -206t51.5 -286q0 -155 -49 -276t-137 -197.5t-205.5 -116t-258.5 -39.5q-144 0 -266 41.5t-214 120t-144 202t-52 278.5zM216 618q0 -272 161.5 -419t424.5 -147 q260 0 412.5 141t152.5 412q0 280 -161 430.5t-424 150.5q-258 0 -412 -145.5t-154 -422.5zM404 624q0 212 102 320t293 108q139 0 223 -39q15 -7 19.5 -16t4.5 -31v-221q0 -17 -16 -17h-49q-14 0 -17 15l-13 195q-59 26 -145 26q-292 0 -292 -340q0 -92 21.5 -154t65.5 -95 t99 -46.5t134 -13.5q92 0 207 31q12 4 17 -2t5 -22v-37q0 -11 -4 -16t-18 -10q-89 -32 -222 -32q-78 0 -139 11.5t-114 39.5t-88 72.5t-54.5 113.5t-19.5 160z" />
<glyph unicode="&#xaa;" horiz-adv-x="943" d="M115 974q0 157 85 252.5t245 95.5q69 0 128 -31t99 -85v82q0 7 2.5 10.5t5.5 4t11 0.5h84q9 0 11 -3.5t2 -12.5v-635q0 -9 -3 -12t-12 -3h-88q-9 0 -11 2.5t-2 11.5v2v2v75q-81 -112 -221 -112q-166 0 -251 98.5t-85 257.5zM233 970q0 -128 59 -193.5t164 -65.5 q99 0 157.5 69.5t58.5 189.5q0 119 -59 189t-159 70q-101 0 -161 -69t-60 -190z" />
<glyph unicode="&#xab;" horiz-adv-x="958" d="M84 493l374 399q20 20 30 13l52 -39q7 -5 6 -9.5t-12 -18.5l-331 -361l326 -354q16 -18 18 -23.5t-5 -10.5l-52 -37q-8 -5 -14.5 -2.5t-19.5 15.5l-370 387q-14 14 -14.5 21t12.5 20zM389 493l376 399q17 20 28 13l52 -39q8 -4 7 -9.5t-14 -18.5l-330 -361l326 -354 q15 -17 17 -23.5t-4 -10.5l-52 -37q-8 -5 -14.5 -2.5t-17.5 15.5l-372 387q-14 14 -14.5 21t12.5 20z" />
<glyph unicode="&#xac;" horiz-adv-x="1145" d="M164 547v99h821v-285h-114v186h-707z" />
<glyph unicode="&#xad;" horiz-adv-x="942" d="M149 514v58q0 16 17 16h610q17 0 17 -18v-51q0 -22 -20 -22h-609q-15 0 -15 17z" />
<glyph unicode="&#xae;" horiz-adv-x="1582" d="M128 618q0 157 49.5 281t138 202t207 118.5t259.5 40.5q143 0 264.5 -41.5t213 -121.5t143 -206t51.5 -286q0 -155 -49 -276t-137 -197.5t-205.5 -116t-258.5 -39.5q-144 0 -266 41.5t-214 120t-144 202t-52 278.5zM216 618q0 -272 161.5 -419t424.5 -147 q260 0 412.5 141t152.5 412q0 280 -161 430.5t-424 150.5q-258 0 -412 -145.5t-154 -422.5zM501 268v34q0 7 0.5 9.5t3 4.5t7.5 2q28 1 42 2.5t25.5 4t15 9.5t5 14.5t1.5 23.5v555q0 15 -2.5 22.5t-11.5 13.5t-27 8t-50 3q-4 0 -6 2t-2.5 4.5t-0.5 9.5v34q0 8 2.5 10.5 t10.5 2.5h268q285 0 285 -257q0 -192 -149 -240l72 -153q20 -41 36 -55.5t43 -14.5q6 0 14 2.5t15 4.5t13 3.5t10 -1t5 -8.5l6 -35q3 -12 -0.5 -16.5t-18.5 -9.5q-40 -13 -78 -13q-32 0 -54 7t-38 26t-23.5 33t-21.5 46q-3 6 -4 9l-75 158h-15q-64 0 -104 8v-155 q0 -39 12 -48t70 -10q12 0 14.5 -3t2.5 -15v-30q0 -9 -3 -12t-12 -3h-270q-9 0 -11 2t-2 11zM700 614q45 -9 93 -9q85 0 127.5 44t42.5 129q0 92 -45.5 138.5t-124.5 46.5h-93v-349z" />
<glyph unicode="&#xaf;" horiz-adv-x="735" d="M158 1424v52q0 11 4 15t15 4h398q15 0 15 -15v-56q0 -12 -4.5 -16t-15.5 -4h-393q-11 0 -15 4t-4 16z" />
<glyph unicode="&#xb0;" horiz-adv-x="744" d="M115 1048q0 117 69.5 195.5t189.5 78.5q121 0 188 -79t67 -195q0 -118 -71 -195.5t-184 -77.5q-120 0 -189.5 76.5t-69.5 196.5zM229 1050q0 -87 43 -136.5t106 -49.5q57 0 97.5 49t40.5 131q0 83 -39.5 136t-102.5 53q-60 0 -102.5 -52.5t-42.5 -130.5z" />
<glyph unicode="&#xb1;" horiz-adv-x="1167" d="M145 430v99h382v344h112v-344h378v-99h-378v-303h-112v303h-382zM151 48h873v-98h-873v98z" />
<glyph unicode="&#xb2;" horiz-adv-x="886" d="M84 572v55q0 20 7 26q544 330 544 686q0 108 -53.5 147t-158.5 39q-109 0 -209 -34l-19 -190q-3 -10 -5.5 -12t-10.5 -2h-49q-11 0 -13 2.5t-2 15.5v224q0 19 3.5 24.5t15.5 10.5q132 52 289 52q53 0 90.5 -3.5t85.5 -19t77.5 -43t50.5 -79.5t21 -125q0 -199 -136 -376.5 t-368 -314.5h428q12 0 17 7.5t7 24.5l8 130q0 14 4.5 19.5t17.5 5.5h41q13 0 16 -5t3 -23v-239q0 -12 -2 -14t-13 -2h-672q-15 0 -15 13z" />
<glyph unicode="&#xb3;" horiz-adv-x="848" d="M84 603v50q0 13 4.5 18t13.5 3q2 0 33 -6.5t61 -12t80.5 -10.5t99.5 -5q135 0 199 58.5t64 180.5q0 106 -58 148t-168 42h-93q-18 0 -18 20v52q0 12 7 19l292 346h-365q-14 0 -19 -8.5t-7 -34.5l-3 -117q0 -19 -19 -19h-43q-12 0 -16 3.5t-4 15.5v237v8t1.5 5t1.5 3 t3.5 1.5t4.5 0.5h7h578q6 0 8.5 -0.5t4 -4.5t1.5 -6v-11v-45q0 -16 -3 -22t-19 -23l-287 -333h21q165 0 237 -63.5t72 -209.5q0 -93 -28 -160t-79.5 -105.5t-115 -56t-142.5 -17.5q-182 0 -289 35q-11 3 -14.5 7t-3.5 17z" />
<glyph unicode="&#xb4;" horiz-adv-x="623" d="M175 1385l155 177q18 24 42 24h95q13 0 15.5 -8.5t-9.5 -19.5l-199 -184q-18 -15 -39 -15h-49q-15 0 -18.5 6.5t7.5 19.5z" />
<glyph unicode="&#xb5;" horiz-adv-x="1182" d="M76 802v30q0 16 5 21t18 5q31 2 51 3.5t26 2t11.5 1.5t14.5 1h29h93q19 0 25.5 -9t6.5 -30v-535q0 -126 41 -170t130 -44q133 0 203.5 79.5t70.5 263.5v322q-8 33 -45 33l-103 2q-7 0 -10 3t-3.5 6.5t-0.5 14.5v30q0 16 4.5 21t17.5 5q38 2 58.5 4t24 2.5t13.5 1t34 0.5 h95q17 0 23.5 -9t6.5 -30v-613q1 -77 20.5 -103.5t55.5 -26.5q49 0 49 43q0 23 4 28t27 5h17q24 0 28 -4t4 -24q0 -139 -147 -139q-143 0 -166 147q-84 -153 -296 -153q-90 0 -156 32v-416q0 -13 -10 -13h-95q-11 0 -11 13v1123q0 50 -46 50l-103 2q-7 0 -10.5 3t-4 7 t-0.5 14z" />
<glyph unicode="&#xb6;" horiz-adv-x="904" d="M89 942q0 157 94 259t240 102h270v-1539h-101v1448h-132v-1448h-101v793q-81 1 -143 54t-94.5 140t-32.5 191z" />
<glyph unicode="&#xb7;" horiz-adv-x="562" d="M184 469q0 35 26 58.5t62 23.5q38 0 64.5 -23.5t26.5 -58.5t-26.5 -58.5t-64.5 -23.5q-36 0 -62 23.5t-26 58.5z" />
<glyph unicode="&#xb8;" horiz-adv-x="532" d="M35 -324l17 26q5 9 9.5 10.5t12.5 -1.5q43 -14 99 -14q97 0 97 85q0 63 -117 63q-5 0 -14 -0.5t-12 -0.5t-6 2.5t-1.5 8t5.5 15.5l61 130h93l-43 -97q71 -1 104.5 -35.5t33.5 -85.5q0 -81 -52 -119.5t-132 -38.5q-67 0 -140 22q-26 10 -15 30z" />
<glyph unicode="&#xb9;" horiz-adv-x="633" d="M82 577v32q0 8 0.5 11.5t4 6t10.5 2.5q91 2 126.5 7t46.5 16.5t11 40.5v765q0 15 -6.5 16t-23.5 -11l-143 -89q-24 -11 -24 9v52q0 16 22 30l190 121q26 15 54 15h22q17 0 17 -17v-890q0 -43 25.5 -52t147.5 -11q14 0 17.5 -4.5t3.5 -19.5v-28q0 -13 -3.5 -16.5 t-17.5 -3.5h-461q-14 0 -16.5 3t-2.5 15z" />
<glyph unicode="&#xba;" horiz-adv-x="1024" d="M97 875q0 88 23.5 165t71 141t130.5 101.5t192 37.5t191 -37.5t129 -101.5t70 -141t23 -165t-23.5 -165.5t-71 -142.5t-130 -103t-190.5 -38q-109 0 -191.5 38t-130 103t-70.5 142.5t-23 165.5zM216 869q0 -71 17 -132.5t51 -111t92.5 -78t135.5 -28.5t135.5 28.5 t92.5 78t51 111t17 132.5t-17 133t-51 113t-92 80.5t-134 29.5q-77 0 -135.5 -29.5t-93.5 -80.5t-52 -113t-17 -133z" />
<glyph unicode="&#xbb;" horiz-adv-x="958" d="M108 91q-6 5 -4 9t19 23l326 354l-330 361q-14 14 -15 18.5t8 9.5l52 39q11 7 28 -13l376 -399q13 -13 12.5 -20t-14.5 -21l-372 -387q-11 -13 -17.5 -15.5t-14.5 2.5zM413 91q-6 5 -4 9t19 23l326 354l-330 361q-13 14 -14 18.5t7 9.5l52 39q11 7 28 -13l376 -399 q13 -13 12.5 -20t-14.5 -21l-370 -387q-13 -13 -19 -15.5t-15 2.5z" />
<glyph unicode="&#xbf;" horiz-adv-x="929" d="M80 -106q0 83 21.5 139.5t55.5 86t75.5 50.5t82.5 41t75 48t55.5 81.5t21.5 132.5v147q0 14 3.5 17t13.5 3h80q6 0 10.5 -5t4.5 -11v-149q0 -94 -21.5 -159.5t-56 -99t-76 -56t-82.5 -41t-75.5 -42.5t-56 -72t-21.5 -119q0 -182 272 -182q85 0 131.5 6.5t130.5 26.5 l17 229q0 13 3 17t17 4h47q14 0 18 -3.5t4 -20.5v-265q0 -21 -5 -29t-23 -15q-44 -20 -140.5 -33.5t-201.5 -13.5q-63 0 -115 7t-102.5 26.5t-85 50.5t-56 82.5t-21.5 120.5zM443 802q0 34 23.5 58t58.5 24q32 0 56 -24t24 -58q0 -37 -23 -58.5t-57 -21.5q-37 0 -59.5 21 t-22.5 59z" />
<glyph unicode="&#xc0;" horiz-adv-x="1374" d="M47 22v32q0 12 3 18t6 7t9 1q79 2 110 8t41.5 20t10.5 50v90q0 241 27 434.5t81.5 338t142.5 223t205 78.5q152 0 258 -134.5t157 -373t51 -566.5v-77q0 -24 0.5 -36t7 -24t13 -16t27 -7.5t40.5 -4t61 -1.5q20 0 24 -6t4 -26v-24q0 -16 -4.5 -21t-20.5 -5h-430 q-17 0 -19.5 3t-2.5 19v32q0 11 0.5 15.5t5 7.5t13.5 3q59 2 88.5 4.5t47 12t21 22t3.5 39.5v90q0 51 -4 145h-689q-2 -47 -2 -145v-77q0 -24 0.5 -36t7 -24t13 -16t27 -7.5t40.5 -4t61 -1.5q20 0 24 -6t4 -26v-24q0 -16 -4 -21t-20 -5h-417q-15 0 -18.5 3t-3.5 19zM341 493 h677q-16 224 -59.5 386.5t-114.5 252t-164 89.5q-140 0 -227 -193.5t-112 -534.5zM454 1592q-12 13 -9.5 19.5t17.5 6.5h80q17 0 23.5 -4t20.5 -20l187 -207q20 -26 -8 -26h-50q-9 0 -17.5 3.5t-14 8t-20.5 16.5z" />
<glyph unicode="&#xc1;" horiz-adv-x="1374" d="M47 22v32q0 12 3 18t6 7t9 1q79 2 110 8t41.5 20t10.5 50v90q0 241 27 434.5t81.5 338t142.5 223t205 78.5q152 0 258 -134.5t157 -373t51 -566.5v-77q0 -24 0.5 -36t7 -24t13 -16t27 -7.5t40.5 -4t61 -1.5q20 0 24 -6t4 -26v-24q0 -16 -4.5 -21t-20.5 -5h-430 q-17 0 -19.5 3t-2.5 19v32q0 11 0.5 15.5t5 7.5t13.5 3q59 2 88.5 4.5t47 12t21 22t3.5 39.5v90q0 51 -4 145h-689q-2 -47 -2 -145v-77q0 -24 0.5 -36t7 -24t13 -16t27 -7.5t40.5 -4t61 -1.5q20 0 24 -6t4 -26v-24q0 -16 -4 -21t-20 -5h-417q-15 0 -18.5 3t-3.5 19zM341 493 h677q-16 224 -59.5 386.5t-114.5 252t-164 89.5q-140 0 -227 -193.5t-112 -534.5zM616 1404l155 177q18 24 43 24h95q13 0 15 -8.5t-10 -19.5l-199 -184q-18 -15 -39 -15h-49q-15 0 -18.5 6.5t7.5 19.5z" />
<glyph unicode="&#xc2;" horiz-adv-x="1374" d="M47 22v32q0 12 3 18t6 7t9 1q79 2 110 8t41.5 20t10.5 50v90q0 241 27 434.5t81.5 338t142.5 223t205 78.5q152 0 258 -134.5t157 -373t51 -566.5v-77q0 -24 0.5 -36t7 -24t13 -16t27 -7.5t40.5 -4t61 -1.5q20 0 24 -6t4 -26v-24q0 -16 -4.5 -21t-20.5 -5h-430 q-17 0 -19.5 3t-2.5 19v32q0 11 0.5 15.5t5 7.5t13.5 3q59 2 88.5 4.5t47 12t21 22t3.5 39.5v90q0 51 -4 145h-689q-2 -47 -2 -145v-77q0 -24 0.5 -36t7 -24t13 -16t27 -7.5t40.5 -4t61 -1.5q20 0 24 -6t4 -26v-24q0 -16 -4 -21t-20 -5h-417q-15 0 -18.5 3t-3.5 19zM341 493 h677q-16 224 -59.5 386.5t-114.5 252t-164 89.5q-140 0 -227 -193.5t-112 -534.5zM443 1381q-13 15 8 32l167 158q17 17 41 17h47q24 0 41 -17l169 -158q11 -14 10.5 -21t-10.5 -20q-11 -16 -28 -4l-207 131l-203 -131q-5 -3 -9 -3.5t-6.5 -0.5t-5.5 2t-4 3.5t-4.5 5.5 t-5.5 6z" />
<glyph unicode="&#xc3;" horiz-adv-x="1374" d="M47 22v32q0 12 3 18t6 7t9 1q79 2 110 8t41.5 20t10.5 50v90q0 241 27 434.5t81.5 338t142.5 223t205 78.5q152 0 258 -134.5t157 -373t51 -566.5v-77q0 -24 0.5 -36t7 -24t13 -16t27 -7.5t40.5 -4t61 -1.5q20 0 24 -6t4 -26v-24q0 -16 -4.5 -21t-20.5 -5h-430 q-17 0 -19.5 3t-2.5 19v32q0 11 0.5 15.5t5 7.5t13.5 3q59 2 88.5 4.5t47 12t21 22t3.5 39.5v90q0 51 -4 145h-689q-2 -47 -2 -145v-77q0 -24 0.5 -36t7 -24t13 -16t27 -7.5t40.5 -4t61 -1.5q20 0 24 -6t4 -26v-24q0 -16 -4 -21t-20 -5h-417q-15 0 -18.5 3t-3.5 19zM341 493 h677q-16 224 -59.5 386.5t-114.5 252t-164 89.5q-140 0 -227 -193.5t-112 -534.5zM492 1432q28 49 56.5 73t69.5 24q46 0 99 -32t78 -32q16 0 27 9.5t25 35.5q8 15 19 9l39 -18q14 -7 5 -23q-25 -50 -52.5 -75t-69.5 -25q-45 0 -99 31.5t-73 31.5q-18 0 -29.5 -9.5 t-29.5 -35.5q-10 -13 -23 -7l-37 19q-13 9 -5 24z" />
<glyph unicode="&#xc4;" horiz-adv-x="1374" d="M47 22v32q0 12 3 18t6 7t9 1q79 2 110 8t41.5 20t10.5 50v90q0 241 27 434.5t81.5 338t142.5 223t205 78.5q152 0 258 -134.5t157 -373t51 -566.5v-77q0 -24 0.5 -36t7 -24t13 -16t27 -7.5t40.5 -4t61 -1.5q20 0 24 -6t4 -26v-24q0 -16 -4.5 -21t-20.5 -5h-430 q-17 0 -19.5 3t-2.5 19v32q0 11 0.5 15.5t5 7.5t13.5 3q59 2 88.5 4.5t47 12t21 22t3.5 39.5v90q0 51 -4 145h-689q-2 -47 -2 -145v-77q0 -24 0.5 -36t7 -24t13 -16t27 -7.5t40.5 -4t61 -1.5q20 0 24 -6t4 -26v-24q0 -16 -4 -21t-20 -5h-417q-15 0 -18.5 3t-3.5 19zM341 493 h677q-16 224 -59.5 386.5t-114.5 252t-164 89.5q-140 0 -227 -193.5t-112 -534.5zM447 1448q0 29 19 49t50 20q33 0 53.5 -20t20.5 -49q0 -28 -20.5 -47.5t-53.5 -19.5q-31 0 -50 19t-19 48zM776 1448q0 29 19.5 49t53.5 20q33 0 53 -20t20 -49q0 -28 -21 -47.5t-54 -19.5 t-52 19t-19 48z" />
<glyph unicode="&#xc5;" horiz-adv-x="1374" d="M47 22v32q0 12 3 18t6 7t9 1q79 2 110 8t41.5 20t10.5 50v90q0 241 27 434.5t81.5 338t142.5 223t205 78.5q152 0 258 -134.5t157 -373t51 -566.5v-77q0 -24 0.5 -36t7 -24t13 -16t27 -7.5t40.5 -4t61 -1.5q20 0 24 -6t4 -26v-24q0 -16 -4.5 -21t-20.5 -5h-430 q-17 0 -19.5 3t-2.5 19v32q0 11 0.5 15.5t5 7.5t13.5 3q59 2 88.5 4.5t47 12t21 22t3.5 39.5v90q0 51 -4 145h-689q-2 -47 -2 -145v-77q0 -24 0.5 -36t7 -24t13 -16t27 -7.5t40.5 -4t61 -1.5q20 0 24 -6t4 -26v-24q0 -16 -4 -21t-20 -5h-417q-15 0 -18.5 3t-3.5 19zM341 493 h677q-16 224 -59.5 386.5t-114.5 252t-164 89.5q-140 0 -227 -193.5t-112 -534.5zM475 1502q0 57 50 96t158 39t157.5 -39t49.5 -96t-49.5 -96t-157.5 -39t-158 39t-50 96zM570 1502q0 -70 113 -70q60 0 85 20.5t25 49.5q0 28 -25 48.5t-85 20.5q-63 0 -88 -20.5t-25 -48.5z " />
<glyph unicode="&#xc6;" horiz-adv-x="1865" d="M47 22v32q0 12 3 18t6 7t9 1q79 2 110 8t41.5 20t10.5 50v90q0 241 27 434.5t81.5 338t142.5 223t205 78.5q224 0 347 -289v250q0 13 3 16.5t17 3.5h635q11 0 15 -1t6.5 -5t2.5 -14v-283q0 -36 -24 -36h-34q-11 0 -17 3t-7 6.5t-2 13.5l-13 175q0 2 -1 8.5t-1.5 8t-1 6 t-1.5 6t-2.5 4.5t-3.5 4t-4.5 2t-6 1.5t-7.5 0.5l-436 -2v-492h294q12 0 16.5 -0.5t8 -5t3.5 -14.5v-54q0 -17 -5 -22.5t-23 -5.5h-294v-242q0 -18 1 -57.5t1 -59.5v-77q0 -56 11 -69l458 -1q9 0 14 1.5t8 9t3.5 10.5t2.5 19l13 176q3 17 11 20q6 2 15 2h33q25 0 25 -36 v-283q0 -14 -4.5 -17t-20.5 -3h-847q-17 0 -19.5 3t-2.5 19v32q0 11 0.5 15.5t5 7.5t13.5 3q59 2 88.5 4.5t47 12t21 22t3.5 39.5v90q0 51 -4 145h-689q-2 -47 -2 -145v-77q0 -24 0.5 -36t7 -24t13 -16t27 -7.5t40.5 -4t61 -1.5q20 0 24 -6t4 -26v-24q0 -16 -4 -21t-20 -5 h-417q-15 0 -18.5 3t-3.5 19zM341 493h677q-16 224 -59.5 386.5t-114.5 252t-164 89.5q-140 0 -227 -193.5t-112 -534.5z" />
<glyph unicode="&#xc7;" horiz-adv-x="1249" d="M123 640q0 338 162 510t458 172q206 0 348 -39q21 -5 25.5 -13t4.5 -34v-294q0 -16 -3.5 -19t-17.5 -3h-54q-15 0 -18.5 3t-5.5 15l-20 259q-102 26 -257 26q-236 0 -367.5 -147t-131.5 -439q0 -290 125.5 -419t375.5 -129q146 0 379 43q15 3 20.5 -0.5t5.5 -17.5v-43 q0 -21 -6.5 -28.5t-28.5 -12.5q-194 -40 -367 -43l-29 -69q71 -1 104 -35.5t33 -85.5q0 -81 -52 -119.5t-132 -38.5q-67 0 -140 22q-26 10 -15 30l17 26q8 15 23 9q46 -15 98 -15q97 0 97 86q0 63 -117 63q-5 0 -14 -0.5t-12 -0.5t-6 2.5t-1.5 8t5.5 15.5l48 106 q-268 17 -401 172.5t-133 476.5z" />
<glyph unicode="&#xc8;" horiz-adv-x="1092" d="M123 337q0 73 18.5 131t46 93.5t69 61.5t78 38.5t82.5 21.5q-123 25 -179 109t-56 206q0 93 31.5 158t89.5 100t129 50.5t162 15.5q191 0 320 -43q8 -3 13 -5t9 -4.5t5.5 -4.5t2.5 -6t0.5 -6t-0.5 -8.5v-11.5v-248q0 -16 -3 -19t-18 -3h-44q-11 0 -14.5 2.5t-4.5 15.5 l-22 216q-87 24 -238 24q-70 0 -121.5 -10t-94 -34.5t-64.5 -70.5t-22 -114q0 -138 86 -198t243 -60h134q12 0 17.5 -5.5t5.5 -21.5v-44q0 -28 -23 -28h-134q-379 0 -379 -289q0 -138 89 -200t274 -62q63 0 133 6.5t117 14.5t86.5 15.5t42.5 7.5q12 3 15.5 0t3.5 -16v-65 q0 -10 -6 -15t-22 -10q-153 -41 -389 -41q-85 0 -151.5 9t-128 33t-101.5 63t-64 102.5t-24 148.5zM367 1592q-12 13 -10 19.5t17 6.5h80q17 0 24 -4t21 -20l186 -207q20 -26 -7 -26h-51q-9 0 -17.5 3.5t-14 8t-20.5 16.5z" />
<glyph unicode="&#xc9;" horiz-adv-x="1092" d="M123 337q0 73 18.5 131t46 93.5t69 61.5t78 38.5t82.5 21.5q-123 25 -179 109t-56 206q0 93 31.5 158t89.5 100t129 50.5t162 15.5q191 0 320 -43q8 -3 13 -5t9 -4.5t5.5 -4.5t2.5 -6t0.5 -6t-0.5 -8.5v-11.5v-248q0 -16 -3 -19t-18 -3h-44q-11 0 -14.5 2.5t-4.5 15.5 l-22 216q-87 24 -238 24q-70 0 -121.5 -10t-94 -34.5t-64.5 -70.5t-22 -114q0 -138 86 -198t243 -60h134q12 0 17.5 -5.5t5.5 -21.5v-44q0 -28 -23 -28h-134q-379 0 -379 -289q0 -138 89 -200t274 -62q63 0 133 6.5t117 14.5t86.5 15.5t42.5 7.5q12 3 15.5 0t3.5 -16v-65 q0 -10 -6 -15t-22 -10q-153 -41 -389 -41q-85 0 -151.5 9t-128 33t-101.5 63t-64 102.5t-24 148.5zM529 1404l154 177q18 24 43 24h95q13 0 15.5 -8.5t-9.5 -19.5l-200 -184q-18 -15 -39 -15h-48q-15 0 -18.5 6.5t7.5 19.5z" />
<glyph unicode="&#xca;" horiz-adv-x="1092" d="M123 337q0 73 18.5 131t46 93.5t69 61.5t78 38.5t82.5 21.5q-123 25 -179 109t-56 206q0 93 31.5 158t89.5 100t129 50.5t162 15.5q191 0 320 -43q8 -3 13 -5t9 -4.5t5.5 -4.5t2.5 -6t0.5 -6t-0.5 -8.5v-11.5v-248q0 -16 -3 -19t-18 -3h-44q-11 0 -14.5 2.5t-4.5 15.5 l-22 216q-87 24 -238 24q-70 0 -121.5 -10t-94 -34.5t-64.5 -70.5t-22 -114q0 -138 86 -198t243 -60h134q12 0 17.5 -5.5t5.5 -21.5v-44q0 -28 -23 -28h-134q-379 0 -379 -289q0 -138 89 -200t274 -62q63 0 133 6.5t117 14.5t86.5 15.5t42.5 7.5q12 3 15.5 0t3.5 -16v-65 q0 -10 -6 -15t-22 -10q-153 -41 -389 -41q-85 0 -151.5 9t-128 33t-101.5 63t-64 102.5t-24 148.5zM354 1381q-13 16 7 32l168 158q17 17 41 17h46q24 0 41 -17l170 -158q11 -14 10.5 -21t-10.5 -20q-11 -16 -28 -4l-207 131l-203 -131q-17 -5 -20.5 -3t-14.5 16z" />
<glyph unicode="&#xcb;" horiz-adv-x="1092" d="M123 337q0 73 18.5 131t46 93.5t69 61.5t78 38.5t82.5 21.5q-123 25 -179 109t-56 206q0 93 31.5 158t89.5 100t129 50.5t162 15.5q191 0 320 -43q8 -3 13 -5t9 -4.5t5.5 -4.5t2.5 -6t0.5 -6t-0.5 -8.5v-11.5v-248q0 -16 -3 -19t-18 -3h-44q-11 0 -14.5 2.5t-4.5 15.5 l-22 216q-87 24 -238 24q-70 0 -121.5 -10t-94 -34.5t-64.5 -70.5t-22 -114q0 -138 86 -198t243 -60h134q12 0 17.5 -5.5t5.5 -21.5v-44q0 -28 -23 -28h-134q-379 0 -379 -289q0 -138 89 -200t274 -62q63 0 133 6.5t117 14.5t86.5 15.5t42.5 7.5q12 3 15.5 0t3.5 -16v-65 q0 -10 -6 -15t-22 -10q-153 -41 -389 -41q-85 0 -151.5 9t-128 33t-101.5 63t-64 102.5t-24 148.5zM357 1448q0 29 19 49t50 20q33 0 54 -20t21 -49q0 -28 -21 -47.5t-54 -19.5q-31 0 -50 19t-19 48zM687 1448q0 29 19.5 49t53.5 20q33 0 52.5 -20t19.5 -49 q0 -28 -20.5 -47.5t-53.5 -19.5t-52 19t-19 48z" />
<glyph unicode="&#xcc;" horiz-adv-x="688" d="M108 22v32q0 10 0.5 14.5t5 8t13.5 3.5q45 1 66.5 2t43.5 5.5t29 8.5t13.5 16.5t7 25t0.5 37.5v970q-1 53 -23 63.5t-124 12.5q-20 0 -24 6t-4 26v24q0 16 4 21t20 5h424q16 0 19.5 -3.5t3.5 -18.5v-32q0 -10 -0.5 -14.5t-5 -8t-13.5 -3.5q-45 -1 -66.5 -2t-43.5 -5.5 t-29 -8.5t-13.5 -16.5t-7 -24.5t-0.5 -38v-951v-38t6 -25t12 -17.5t26 -8t40.5 -5t62.5 -1.5q20 0 24 -6t4 -26v-24q0 -16 -4 -21t-20 -5h-425q-16 0 -19 3.5t-3 18.5zM117 1592q-12 13 -9.5 19.5t17.5 6.5h80q17 0 23.5 -4t20.5 -20l187 -207q20 -26 -8 -26h-50 q-9 0 -17.5 3.5t-14 8t-20.5 16.5z" />
<glyph unicode="&#xcd;" horiz-adv-x="690" d="M108 22v32q0 15 2.5 20.5t14.5 5.5q109 3 135 13.5t27 57.5v994q-1 53 -23.5 63.5t-125.5 12.5q-20 0 -24 6t-4 26v24q0 16 4 21t20 5h426q16 0 19.5 -3.5t3.5 -18.5v-32q0 -14 -3.5 -20t-15.5 -6q-111 -3 -135.5 -14.5t-24.5 -63.5v-968v-38t6 -25t12 -17.5t26 -8 t40.5 -5t62.5 -1.5q20 0 24 -6t4 -26v-24q0 -16 -4 -21t-20 -5h-425q-16 0 -19 3.5t-3 18.5zM279 1404l155 177q18 24 43 24h95q13 0 15 -8.5t-10 -19.5l-199 -184q-18 -15 -39 -15h-49q-15 0 -18.5 6.5t7.5 19.5z" />
<glyph unicode="&#xce;" horiz-adv-x="688" d="M106 1381q-13 15 8 32l167 158q17 17 41 17h47q24 0 41 -17l169 -158q11 -14 10.5 -21t-10.5 -20q-11 -16 -28 -4l-207 131l-203 -131q-5 -3 -9 -3.5t-6.5 -0.5t-5.5 2t-4 3.5t-4.5 5.5t-5.5 6zM108 22v32q0 10 0.5 14.5t5 8t13.5 3.5q45 1 66.5 2t43.5 5.5t29 8.5 t13.5 16.5t7 25t0.5 37.5v970q-1 53 -23 63.5t-124 12.5q-20 0 -24 6t-4 26v24q0 16 4 21t20 5h424q16 0 19.5 -3.5t3.5 -18.5v-32q0 -10 -0.5 -14.5t-5 -8t-13.5 -3.5q-45 -1 -66.5 -2t-43.5 -5.5t-29 -8.5t-13.5 -16.5t-7 -24.5t-0.5 -38v-951v-38t6 -25t12 -17.5t26 -8 t40.5 -5t62.5 -1.5q20 0 24 -6t4 -26v-24q0 -16 -4 -21t-20 -5h-425q-16 0 -19 3.5t-3 18.5z" />
<glyph unicode="&#xcf;" horiz-adv-x="688" d="M108 22v32q0 10 0.5 14.5t5 8t13.5 3.5q45 1 66.5 2t43.5 5.5t29 8.5t13.5 16.5t7 25t0.5 37.5v970q-1 53 -23 63.5t-124 12.5q-20 0 -24 6t-4 26v24q0 16 4 21t20 5h424q16 0 19.5 -3.5t3.5 -18.5v-32q0 -10 -0.5 -14.5t-5 -8t-13.5 -3.5q-45 -1 -66.5 -2t-43.5 -5.5 t-29 -8.5t-13.5 -16.5t-7 -24.5t-0.5 -38v-951v-38t6 -25t12 -17.5t26 -8t40.5 -5t62.5 -1.5q20 0 24 -6t4 -26v-24q0 -16 -4 -21t-20 -5h-425q-16 0 -19 3.5t-3 18.5zM108 1448q0 29 19 49t50 20q33 0 53.5 -20t20.5 -49q0 -28 -20.5 -47.5t-53.5 -19.5q-31 0 -50 19 t-19 48zM438 1448q0 29 19 49t53 20q33 0 53 -20t20 -49q0 -28 -21 -47.5t-54 -19.5t-51.5 19t-18.5 48z" />
<glyph unicode="&#xd0;" horiz-adv-x="1403" d="M108 659v60q0 16 13 16h169v423q0 43 -25 52.5t-133 12.5q-13 0 -16.5 4t-3.5 17v39q0 14 3.5 17t18.5 3h430q711 0 711 -653q0 -326 -170 -488t-522 -162h-449q-14 0 -18 4t-4 18v32v12.5t1.5 7t5.5 5.5t11 1q81 2 111.5 8t39.5 19.5t9 50.5v484h-167q-9 0 -12 3t-3 14z M411 97h162q294 0 436 135t142 414q0 105 -19 190t-62 155t-110 117.5t-164.5 73.5t-223.5 26h-161v-473h272q15 0 15 -13v-61q0 -12 -4.5 -15.5t-15.5 -3.5h-267v-545z" />
<glyph unicode="&#xd1;" d="M108 1249v32q0 14 4 18t18 4h231q39 0 60 -33l666 -1117v992q0 35 -9 48.5t-41 20.5t-110 9q-9 0 -13 3.5t-4.5 7.5t-0.5 15v32q0 15 3 18.5t17 3.5h417q16 0 20 -5t4 -21v-24q0 -20 -4 -26t-24 -6q-57 -1 -82 -2.5t-42.5 -11t-20 -22.5t-2.5 -42v-1100q0 -43 -30 -43 h-70q-42 0 -58 24l-642 1074v-927q0 -24 0.5 -34.5t5.5 -23t12.5 -16.5t26 -8.5t40.5 -5t62 -1.5q20 0 24 -6t4 -26v-24q0 -16 -4 -21t-20 -5h-414q-16 0 -19 3.5t-3 18.5v32q0 15 4.5 20.5t19.5 5.5q42 1 63.5 2t42 5.5t27.5 8.5t13 16t6.5 23t0.5 34v989q0 41 -26.5 51.5 t-133.5 13.5q-13 0 -16 5.5t-3 20.5zM525 1432q28 49 57 73t70 24q46 0 99 -32t78 -32q16 0 27 9.5t25 35.5q8 15 18 9l39 -18q9 -5 10 -10t-4 -13q-25 -50 -53 -75t-70 -25q-45 0 -98.5 31.5t-72.5 31.5q-18 0 -30 -9.5t-30 -35.5q-10 -12 -22 -7l-37 19q-14 9 -6 24z" />
<glyph unicode="&#xd2;" d="M123 652q0 146 38.5 267.5t112.5 211.5t191 140.5t267 50.5t267.5 -50.5t192 -140.5t112.5 -211.5t38 -267.5q0 -147 -38 -268.5t-112.5 -212t-192 -140.5t-267.5 -50q-199 0 -338 88t-205 237t-66 346zM248 655q0 -266 129 -418.5t355 -152.5q227 0 356.5 152.5 t129.5 418.5q0 264 -129.5 414t-356.5 150t-355.5 -150t-128.5 -414zM503 1592q-12 13 -10 19.5t17 6.5h80q17 0 24 -4t21 -20l186 -207q20 -26 -7 -26h-51q-9 0 -17.5 3.5t-14 8t-20.5 16.5z" />
<glyph unicode="&#xd3;" d="M123 652q0 146 38.5 267.5t112.5 211.5t191 140.5t267 50.5t267.5 -50.5t192 -140.5t112.5 -211.5t38 -267.5q0 -147 -38 -268.5t-112.5 -212t-192 -140.5t-267.5 -50q-199 0 -338 88t-205 237t-66 346zM248 655q0 -266 129 -418.5t355 -152.5q227 0 356.5 152.5 t129.5 418.5q0 264 -129.5 414t-356.5 150t-355.5 -150t-128.5 -414zM665 1404l154 177q18 24 43 24h95q13 0 15.5 -8.5t-9.5 -19.5l-200 -184q-18 -15 -39 -15h-48q-15 0 -18.5 6.5t7.5 19.5z" />
<glyph unicode="&#xd4;" d="M123 652q0 146 38.5 267.5t112.5 211.5t191 140.5t267 50.5t267.5 -50.5t192 -140.5t112.5 -211.5t38 -267.5q0 -147 -38 -268.5t-112.5 -212t-192 -140.5t-267.5 -50q-199 0 -338 88t-205 237t-66 346zM248 655q0 -266 129 -418.5t355 -152.5q227 0 356.5 152.5 t129.5 418.5q0 264 -129.5 414t-356.5 150t-355.5 -150t-128.5 -414zM492 1381q-13 16 7 32l168 158q17 17 40 17h47q24 0 41 -17l169 -158q12 -13 11.5 -21t-11.5 -20q-11 -16 -28 -4l-206 131l-203 -131q-17 -5 -20.5 -3t-14.5 16z" />
<glyph unicode="&#xd5;" d="M123 652q0 146 38.5 267.5t112.5 211.5t191 140.5t267 50.5t267.5 -50.5t192 -140.5t112.5 -211.5t38 -267.5q0 -147 -38 -268.5t-112.5 -212t-192 -140.5t-267.5 -50q-199 0 -338 88t-205 237t-66 346zM248 655q0 -266 129 -418.5t355 -152.5q227 0 356.5 152.5 t129.5 418.5q0 264 -129.5 414t-356.5 150t-355.5 -150t-128.5 -414zM538 1432q28 49 57 73t70 24q36 0 68.5 -16t59 -32t49.5 -16q16 0 27 9.5t25 35.5q8 15 18 9l39 -18q9 -5 10 -10t-4 -13q-25 -50 -53 -75t-70 -25q-45 0 -98.5 31.5t-72.5 31.5q-18 0 -30 -9.5 t-30 -35.5q-10 -12 -22 -7l-37 19q-14 9 -6 24z" />
<glyph unicode="&#xd6;" d="M123 652q0 146 38.5 267.5t112.5 211.5t191 140.5t267 50.5t267.5 -50.5t192 -140.5t112.5 -211.5t38 -267.5q0 -147 -38 -268.5t-112.5 -212t-192 -140.5t-267.5 -50q-199 0 -338 88t-205 237t-66 346zM248 655q0 -266 129 -418.5t355 -152.5q227 0 356.5 152.5 t129.5 418.5q0 264 -129.5 414t-356.5 150t-355.5 -150t-128.5 -414zM495 1448q0 29 19 49t50 20q33 0 54 -20t21 -49q0 -28 -21 -47.5t-54 -19.5q-31 0 -50 19t-19 48zM825 1448q0 29 19 49t53 20q33 0 53 -20t20 -49q0 -28 -20.5 -47.5t-53.5 -19.5t-52 19t-19 48z" />
<glyph unicode="&#xd7;" horiz-adv-x="983" d="M123 754l65 75l302 -280l264 289l75 -67l-267 -289l298 -277l-67 -75l-298 278l-266 -287l-73 67l267 289z" />
<glyph unicode="&#xd8;" d="M123 652q0 146 38.5 267.5t112.5 211.5t191 140.5t267 50.5q111 0 210 -30l32 76q8 17 20 17h93q19 0 10 -22l-49 -116q145 -81 219.5 -236t74.5 -359q0 -147 -38 -268.5t-112.5 -212t-192 -140.5t-267.5 -50q-106 0 -198 26l-46 -111q-6 -13 -26 -13h-93q-15 0 -8 15 l63 152q-148 80 -224.5 236.5t-76.5 365.5zM248 655q0 -175 57 -303t164 -197l432 1038q-80 26 -169 26q-227 0 -355.5 -150t-128.5 -414zM575 106q69 -22 157 -22q227 0 356.5 152.5t129.5 418.5q0 169 -55 294t-158 194z" />
<glyph unicode="&#xd9;" horiz-adv-x="1442" d="M84 1253v24q0 16 4 21t20 5h430q16 0 19 -3.5t3 -18.5v-32v-13t-1.5 -7t-5.5 -5t-11 -1q-102 -3 -130.5 -13.5t-29.5 -47.5v-710q0 -178 90.5 -273t259.5 -95t256.5 94.5t87.5 273.5v680q0 24 -0.5 36t-7 24t-13 16t-27 7.5t-40.5 4t-61 1.5q-20 0 -24 6t-4 26v24 q0 17 3.5 21.5t20.5 4.5h414q16 0 19 -3.5t3 -18.5v-32q0 -13 -3 -19t-5.5 -6.5t-9.5 -0.5q-103 -3 -131.5 -14t-29.5 -51v-706q0 -214 -115 -342.5t-339 -128.5q-228 0 -346.5 123t-118.5 348v680q0 24 -0.5 36t-7 24t-13 16t-27 7.5t-40.5 4t-61 1.5q-20 0 -24 6t-4 26z M503 1592q-12 13 -10 19.5t17 6.5h80q17 0 24 -4t21 -20l186 -207q20 -26 -7 -26h-51q-9 0 -17.5 3.5t-14 8t-20.5 16.5z" />
<glyph unicode="&#xda;" horiz-adv-x="1442" d="M84 1253v24q0 16 4 21t20 5h430q16 0 19 -3.5t3 -18.5v-32v-13t-1.5 -7t-5.5 -5t-11 -1q-102 -3 -130.5 -13.5t-29.5 -47.5v-710q0 -178 90.5 -273t259.5 -95t256.5 94.5t87.5 273.5v680q0 24 -0.5 36t-7 24t-13 16t-27 7.5t-40.5 4t-61 1.5q-20 0 -24 6t-4 26v24 q0 17 3.5 21.5t20.5 4.5h414q16 0 19 -3.5t3 -18.5v-32q0 -13 -3 -19t-5.5 -6.5t-9.5 -0.5q-103 -3 -131.5 -14t-29.5 -51v-706q0 -214 -115 -342.5t-339 -128.5q-228 0 -346.5 123t-118.5 348v680q0 24 -0.5 36t-7 24t-13 16t-27 7.5t-40.5 4t-61 1.5q-20 0 -24 6t-4 26z M665 1404l154 177q18 24 43 24h95q13 0 15.5 -8.5t-9.5 -19.5l-200 -184q-18 -15 -39 -15h-48q-15 0 -18.5 6.5t7.5 19.5z" />
<glyph unicode="&#xdb;" horiz-adv-x="1441" d="M84 1253v24q0 16 4 21t20 5h430q16 0 19 -3.5t3 -18.5v-32v-13t-1.5 -7t-5.5 -5t-11 -1q-102 -3 -130.5 -13.5t-29.5 -47.5v-710q0 -178 90.5 -273t259.5 -95t256.5 94.5t87.5 273.5v680q0 24 -0.5 36t-7 24t-13 16t-27 7.5t-40.5 4t-61 1.5q-20 0 -24 6t-4 26v24 q0 17 3.5 21.5t20.5 4.5h414q16 0 19 -3.5t3 -18.5v-32q0 -13 -3 -19t-5.5 -6.5t-9.5 -0.5q-103 -3 -131.5 -14t-29.5 -51v-706q0 -214 -115 -342.5t-339 -128.5q-228 0 -346.5 123t-118.5 348v680q0 24 -0.5 36t-7 24t-13 16t-27 7.5t-40.5 4t-61 1.5q-20 0 -24 6t-4 26z M490 1381q-13 16 7 32l168 158q17 17 41 17h46q24 0 41 -17l170 -158q11 -14 10.5 -21t-10.5 -20q-11 -16 -28 -4l-207 131l-203 -131q-17 -5 -20.5 -3t-14.5 16z" />
<glyph unicode="&#xdc;" horiz-adv-x="1442" d="M84 1253v24q0 16 4 21t20 5h430q16 0 19 -3.5t3 -18.5v-32v-13t-1.5 -7t-5.5 -5t-11 -1q-102 -3 -130.5 -13.5t-29.5 -47.5v-710q0 -178 90.5 -273t259.5 -95t256.5 94.5t87.5 273.5v680q0 24 -0.5 36t-7 24t-13 16t-27 7.5t-40.5 4t-61 1.5q-20 0 -24 6t-4 26v24 q0 17 3.5 21.5t20.5 4.5h414q16 0 19 -3.5t3 -18.5v-32q0 -13 -3 -19t-5.5 -6.5t-9.5 -0.5q-103 -3 -131.5 -14t-29.5 -51v-706q0 -214 -115 -342.5t-339 -128.5q-228 0 -346.5 123t-118.5 348v680q0 24 -0.5 36t-7 24t-13 16t-27 7.5t-40.5 4t-61 1.5q-20 0 -24 6t-4 26z M495 1448q0 29 19 49t50 20q33 0 54 -20t21 -49q0 -28 -21 -47.5t-54 -19.5q-31 0 -50 19t-19 48zM825 1448q0 29 19 49t53 20q33 0 53 -20t20 -49q0 -28 -20.5 -47.5t-53.5 -19.5t-52 19t-19 48z" />
<glyph unicode="&#xdd;" horiz-adv-x="1260" d="M43 1242v43q0 11 4 14.5t14 3.5h401q16 0 16 -18v-41q0 -23 -20 -23q-77 0 -105.5 -5.5t-28.5 -20.5q0 -92 25.5 -178t74.5 -163t95.5 -134t113.5 -126q69 70 116 126.5t97 133.5t76 163t26 178q0 15 -28 20.5t-106 5.5q-21 0 -21 23v41q0 18 17 18h391q11 0 14.5 -3.5 t3.5 -14.5v-43q0 -9 -0.5 -12t-4.5 -5t-13 -2q-84 -3 -114 -9t-31 -22q-2 -106 -34 -206t-90.5 -190t-112.5 -155t-130 -144v-320q0 -23 1 -33.5t2.5 -23.5t9 -17.5t15.5 -10t27.5 -6.5t38.5 -2.5t55 -1.5q20 0 24 -6t4 -26v-24q0 -16 -4 -21t-20 -5h-427q-15 0 -18.5 4 t-3.5 18v32q0 11 0.5 15t4.5 7.5t13 3.5q45 1 66.5 2t44 5t29.5 8.5t14 17t7.5 25t0.5 37.5v317q-61 64 -104 113t-96.5 122.5t-86.5 140t-56.5 152.5t-24.5 172q0 15 -31.5 21.5t-112.5 9.5q-7 0 -10.5 0.5t-5.5 3.5t-2 5v10zM573 1404l155 177q18 24 43 24h95 q13 0 15 -8.5t-10 -19.5l-199 -184q-18 -15 -39 -15h-48q-15 0 -19 6.5t7 19.5z" />
<glyph unicode="&#xde;" horiz-adv-x="1094" d="M106 22v32q0 10 0.5 14.5t5 8t13.5 3.5q45 1 66.5 2t43.5 5.5t29 8.5t13.5 16.5t7 25t0.5 37.5v951q0 23 -1 33.5t-2.5 23.5t-9 17.5t-15.5 10t-27.5 6.5t-38.5 2.5t-55 1.5q-20 0 -24 6t-4 26v24q0 16 4 21t20 5h427h12.5t5.5 -4.5t2 -5.5v-12v-32q0 -10 -0.5 -14.5 t-5 -8t-13.5 -3.5q-45 -1 -66.5 -2t-43 -5.5t-28 -8t-13 -17t-7 -25t-0.5 -37.5v-91h127q112 0 195.5 -21t133.5 -55.5t81 -86t42 -104t11 -117.5q0 -198 -115.5 -308t-338.5 -110q-77 0 -136 11v-82q0 -26 2.5 -38t8 -22.5t25 -14t42 -5t69.5 -2.5q20 0 24 -6t4 -26v-24 q0 -16 -4 -21t-20 -5h-425q-16 0 -19 3.5t-3 18.5zM402 344q22 -13 134 -13q162 0 247.5 84t85.5 233q0 298 -303 298h-164v-602z" />
<glyph unicode="&#xdf;" horiz-adv-x="1102" d="M175 24v968q0 167 100 248.5t263 81.5q68 0 126.5 -14.5t108.5 -46t79 -88.5t29 -134q0 -53 -15 -100t-35.5 -79.5t-57 -66t-63.5 -53t-70 -47.5q191 -55 278 -136t87 -218q0 -161 -112.5 -250t-319.5 -89h-41q-11 0 -14.5 3t-3.5 12v61q0 14 5.5 18.5t20.5 4.5h43 q83 0 149.5 24t110 80t43.5 136q0 50 -20 91.5t-41.5 65.5t-70 49.5t-71 34t-80.5 27.5q-11 4 -17 6q-29 11 -44.5 18.5t-30 21.5t-14.5 30q0 12 5.5 23t20.5 22.5t22 16.5t28 18q38 24 62.5 43.5t57.5 54t50 78.5t17 96q0 70 -32.5 115t-79 62t-106.5 17q-112 0 -182.5 -60 t-70.5 -177v-972q0 -13 -4 -16.5t-17 -3.5h-69q-16 0 -20 4.5t-4 19.5z" />
<glyph unicode="&#xe0;" horiz-adv-x="1009" d="M97 209q0 81 34.5 132.5t89 73t121 32t133 16.5t121 18.5t89 46.5t34.5 92q0 79 -64 127t-190 48q-104 0 -188 -34l-13 -191q0 -10 -3 -13.5t-15 -3.5h-52q-13 0 -16 4t-3 15v210q0 24 5.5 35.5t20.5 18.5q31 18 105 33t161 15q195 0 282 -81t87 -235v-335 q0 -88 19.5 -118.5t56.5 -30.5q49 0 49 43q0 15 1 20t7.5 9t22.5 4h17q16 0 23 -3.5t8 -8t1 -16.5q0 -139 -149 -139q-150 0 -170 165q-49 -83 -141 -127t-216 -44q-268 0 -268 222zM216 209q0 -70 40 -101.5t122 -31.5q74 0 139.5 26.5t108.5 67.5t68 90t27 96l1 109 q-23 -32 -64 -50.5t-86.5 -25.5t-96 -11.5t-96 -12t-82.5 -22.5t-59 -48.5t-22 -85.5zM261 1281q-12 13 -10 19.5t17 6.5h80q17 0 24 -4t21 -20l186 -207q20 -26 -7 -26h-51q-9 0 -17.5 3.5t-14 8t-20.5 16.5z" />
<glyph unicode="&#xe1;" horiz-adv-x="1158" d="M104 438q0 97 22.5 176.5t68.5 141t122 95t176 33.5q206 0 293 -143v88q0 20 7.5 28.5t27.5 8.5h73q13 0 160 -10q16 0 20 -4.5t4 -19.5v-33q0 -15 -3 -19.5t-16 -4.5l-113 -2q-22 0 -35.5 -16t-13.5 -44v-493q1 -80 21 -108t56 -28q48 0 48 43q0 22 4.5 27.5t27.5 5.5 h18q22 0 27 -4.5t5 -23.5q0 -139 -149 -139q-147 0 -167 158q-75 -160 -302 -160q-189 0 -285.5 123.5t-96.5 323.5zM223 438q0 -70 16 -131t48.5 -111.5t88.5 -80t129 -29.5q136 0 207.5 95t71.5 258q0 161 -70 256.5t-208 95.5q-72 0 -127.5 -28.5t-89 -78.5t-50 -112 t-16.5 -134zM503 1093l154 177q18 24 43 24h95q13 0 15.5 -8.5t-9.5 -19.5l-200 -184q-18 -15 -39 -15h-48q-15 0 -18.5 6.5t7.5 19.5z" />
<glyph unicode="&#xe2;" horiz-adv-x="1009" d="M97 209q0 81 34.5 132.5t89 73t121 32t133 16.5t121 18.5t89 46.5t34.5 92q0 79 -64 127t-190 48q-104 0 -188 -34l-13 -191q0 -10 -3 -13.5t-15 -3.5h-52q-13 0 -16 4t-3 15v210q0 24 5.5 35.5t20.5 18.5q31 18 105 33t161 15q195 0 282 -81t87 -235v-335 q0 -88 19.5 -118.5t56.5 -30.5q49 0 49 43q0 15 1 20t7.5 9t22.5 4h17q16 0 23 -3.5t8 -8t1 -16.5q0 -139 -149 -139q-150 0 -170 165q-49 -83 -141 -127t-216 -44q-268 0 -268 222zM216 209q0 -70 40 -101.5t122 -31.5q74 0 139.5 26.5t108.5 67.5t68 90t27 96l1 109 q-23 -32 -64 -50.5t-86.5 -25.5t-96 -11.5t-96 -12t-82.5 -22.5t-59 -48.5t-22 -85.5zM248 1071q-13 15 7 31l168 158q17 17 41 17h46q24 0 41 -17l170 -158q5 -5 7.5 -9.5t3 -7.5t-1 -7.5t-3.5 -7.5l-6 -9q-7 -9 -12.5 -9.5t-15.5 6.5l-207 130l-203 -130q-7 -4 -12 -5 t-9.5 2.5t-6 5.5z" />
<glyph unicode="&#xe3;" horiz-adv-x="1009" d="M97 209q0 81 34.5 132.5t89 73t121 32t133 16.5t121 18.5t89 46.5t34.5 92q0 79 -64 127t-190 48q-104 0 -188 -34l-13 -191q0 -10 -3 -13.5t-15 -3.5h-52q-13 0 -16 4t-3 15v210q0 24 5.5 35.5t20.5 18.5q31 18 105 33t161 15q195 0 282 -81t87 -235v-335 q0 -88 19.5 -118.5t56.5 -30.5q49 0 49 43q0 15 1 20t7.5 9t22.5 4h17q16 0 23 -3.5t8 -8t1 -16.5q0 -139 -149 -139q-150 0 -170 165q-49 -83 -141 -127t-216 -44q-268 0 -268 222zM216 209q0 -70 40 -101.5t122 -31.5q74 0 139.5 26.5t108.5 67.5t68 90t27 96l1 109 q-23 -32 -64 -50.5t-86.5 -25.5t-96 -11.5t-96 -12t-82.5 -22.5t-59 -48.5t-22 -85.5zM298 1121q28 49 56.5 73t69.5 24q46 0 99 -32t78 -32q16 0 27 9.5t25 35.5q8 15 19 9l39 -18q9 -5 10 -10t-4 -13q-25 -50 -53 -75t-70 -25q-45 0 -98.5 31.5t-72.5 31.5q-18 0 -30 -9.5 t-30 -35.5q-10 -12 -22 -7l-38 19q-13 9 -5 24z" />
<glyph unicode="&#xe4;" horiz-adv-x="1009" d="M97 209q0 81 34.5 132.5t89 73t121 32t133 16.5t121 18.5t89 46.5t34.5 92q0 79 -64 127t-190 48q-104 0 -188 -34l-13 -191q0 -10 -3 -13.5t-15 -3.5h-52q-13 0 -16 4t-3 15v210q0 24 5.5 35.5t20.5 18.5q31 18 105 33t161 15q195 0 282 -81t87 -235v-335 q0 -88 19.5 -118.5t56.5 -30.5q49 0 49 43q0 15 1 20t7.5 9t22.5 4h17q16 0 23 -3.5t8 -8t1 -16.5q0 -139 -149 -139q-150 0 -170 165q-49 -83 -141 -127t-216 -44q-268 0 -268 222zM216 209q0 -70 40 -101.5t122 -31.5q74 0 139.5 26.5t108.5 67.5t68 90t27 96l1 109 q-23 -32 -64 -50.5t-86.5 -25.5t-96 -11.5t-96 -12t-82.5 -22.5t-59 -48.5t-22 -85.5zM251 1138q0 29 19 48.5t50 19.5q33 0 54 -20t21 -48t-21 -47.5t-54 -19.5q-31 0 -50 19t-19 48zM581 1138q0 29 19 48.5t53 19.5q33 0 53 -19.5t20 -48.5q0 -28 -20.5 -47.5t-53.5 -19.5 t-52 19t-19 48z" />
<glyph unicode="&#xe5;" horiz-adv-x="1009" d="M97 209q0 81 34.5 132.5t89 73t121 32t133 16.5t121 18.5t89 46.5t34.5 92q0 79 -64 127t-190 48q-104 0 -188 -34l-13 -191q0 -10 -3 -13.5t-15 -3.5h-52q-13 0 -16 4t-3 15v210q0 24 5.5 35.5t20.5 18.5q31 18 105 33t161 15q195 0 282 -81t87 -235v-335 q0 -88 19.5 -118.5t56.5 -30.5q49 0 49 43q0 15 1 20t7.5 9t22.5 4h17q16 0 23 -3.5t8 -8t1 -16.5q0 -139 -149 -139q-150 0 -170 165q-49 -83 -141 -127t-216 -44q-268 0 -268 222zM216 209q0 -70 40 -101.5t122 -31.5q74 0 139.5 26.5t108.5 67.5t68 90t27 96l1 109 q-23 -32 -64 -50.5t-86.5 -25.5t-96 -11.5t-96 -12t-82.5 -22.5t-59 -48.5t-22 -85.5zM281 1192q0 57 50.5 95.5t158.5 38.5t157 -38.5t49 -95.5t-49 -96.5t-157 -39.5t-158.5 39.5t-50.5 96.5zM376 1192q0 -71 114 -71q60 0 85 21t25 50q0 28 -25 48t-85 20 q-63 0 -88.5 -20t-25.5 -48z" />
<glyph unicode="&#xe6;" horiz-adv-x="1526" d="M97 195q0 43 10.5 77.5t25.5 57.5t42.5 41.5t50.5 29t62 19.5t63 12.5t68 8.5q41 5 64.5 9.5t57.5 12.5t53 20t39 30t28.5 44.5t8.5 60.5q0 42 -8 70t-31.5 53t-72 37.5t-122.5 12.5q-115 0 -177 -26l-11 -173q-2 -13 -5 -16.5t-16 -3.5h-46q-23 0 -23 20v196 q0 24 5.5 35.5t20.5 18.5q31 17 99.5 29.5t154.5 12.5q140 0 216 -36t107 -107q99 143 321 143q164 0 247.5 -66t83.5 -192q0 -54 -18 -96.5t-46.5 -71.5t-76 -49.5t-93.5 -31.5t-113 -17.5t-121 -8t-130 -1.5h-9q17 -152 93.5 -213t206.5 -61q58 0 116.5 12.5t87.5 23 t85 33.5q14 5 20 0.5t6 -22.5v-30q0 -21 -5.5 -29.5t-20.5 -15.5q-56 -32 -136.5 -49.5t-163.5 -17.5q-297 0 -380 228q-38 -107 -131.5 -167.5t-226.5 -60.5q-260 0 -260 214zM216 195q0 -124 145 -124q133 0 223 92.5t90 197.5v88q-32 -46 -89.5 -65t-146.5 -30 q-111 -16 -148 -34q-74 -35 -74 -125zM802 438q226 2 316 21q172 46 178 167q0 81 -57.5 123t-156.5 42q-145 0 -212.5 -87.5t-67.5 -265.5z" />
<glyph unicode="&#xe7;" horiz-adv-x="917" d="M102 421q0 229 111 346t318 117q147 0 242 -42q15 -7 20.5 -17t5.5 -34v-240q0 -19 -19 -19h-52q-16 0 -19 17l-13 212q-66 28 -158 28q-316 0 -316 -368q0 -100 23.5 -167.5t71 -104t107.5 -51t146 -14.5q59 0 102.5 7t120.5 28q14 4 19 -2.5t5 -23.5v-41 q0 -13 -4.5 -18t-19.5 -10q-93 -33 -236 -33l-32 -73q71 -1 104.5 -35.5t33.5 -85.5q0 -81 -52.5 -119.5t-132.5 -38.5q-66 0 -139 22q-26 10 -15 30l17 26q5 9 9.5 10.5t12.5 -1.5q46 -15 99 -15q97 0 97 86q0 63 -118 63q-5 0 -14 -0.5t-12 -0.5t-6 2.5t-1.5 8t5.5 15.5 l52 109q-176 16 -269.5 115t-93.5 312z" />
<glyph unicode="&#xe8;" horiz-adv-x="945" d="M104 426q0 458 399 458q164 0 247.5 -66t83.5 -192q0 -54 -18 -96.5t-46.5 -71.5t-76 -49.5t-93.5 -31.5t-113 -17.5t-121 -8t-130 -1.5h-9q17 -152 93.5 -213t206.5 -61q58 0 116.5 12.5t86.5 23t85 33.5q14 5 20.5 0.5t6.5 -22.5v-30q0 -20 -5.5 -29t-21.5 -16 q-118 -67 -299 -67q-208 0 -310 110.5t-102 334.5zM223 438q226 2 316 21q172 46 178 167q0 81 -57.5 123t-156.5 42q-145 0 -212.5 -87.5t-67.5 -265.5zM274 1281q-12 13 -10 19.5t17 6.5h80q17 0 24 -4t21 -20l186 -207q20 -26 -7 -26h-51q-9 0 -17.5 3.5t-14 8 t-20.5 16.5z" />
<glyph unicode="&#xe9;" horiz-adv-x="945" d="M104 426q0 458 399 458q164 0 247.5 -66t83.5 -192q0 -54 -18 -96.5t-46.5 -71.5t-76 -49.5t-93.5 -31.5t-113 -17.5t-121 -8t-130 -1.5h-9q17 -152 93.5 -213t206.5 -61q58 0 116.5 12.5t86.5 23t85 33.5q14 5 20.5 0.5t6.5 -22.5v-30q0 -20 -5.5 -29t-21.5 -16 q-118 -67 -299 -67q-208 0 -310 110.5t-102 334.5zM223 438q226 2 316 21q172 46 178 167q0 81 -57.5 123t-156.5 42q-145 0 -212.5 -87.5t-67.5 -265.5zM436 1093l154 177q18 24 43 24h95q13 0 15.5 -8.5t-9.5 -19.5l-200 -184q-18 -15 -39 -15h-48q-15 0 -18.5 6.5 t7.5 19.5z" />
<glyph unicode="&#xea;" horiz-adv-x="945" d="M104 426q0 458 399 458q164 0 247.5 -66t83.5 -192q0 -54 -18 -96.5t-46.5 -71.5t-76 -49.5t-93.5 -31.5t-113 -17.5t-121 -8t-130 -1.5h-9q17 -152 93.5 -213t206.5 -61q58 0 116.5 12.5t86.5 23t85 33.5q14 5 20.5 0.5t6.5 -22.5v-30q0 -20 -5.5 -29t-21.5 -16 q-118 -67 -299 -67q-208 0 -310 110.5t-102 334.5zM223 438q226 2 316 21q172 46 178 167q0 81 -57.5 123t-156.5 42q-145 0 -212.5 -87.5t-67.5 -265.5zM261 1071q-13 15 7 31l168 158q17 17 41 17h46q24 0 41 -17l170 -158q5 -5 7.5 -9.5t3 -7.5t-1 -7.5t-3.5 -7.5l-6 -9 q-7 -9 -12.5 -9.5t-15.5 6.5l-207 130l-203 -130q-7 -4 -12 -5t-9.5 2.5t-6 5.5z" />
<glyph unicode="&#xeb;" horiz-adv-x="945" d="M104 426q0 458 399 458q164 0 247.5 -66t83.5 -192q0 -54 -18 -96.5t-46.5 -71.5t-76 -49.5t-93.5 -31.5t-113 -17.5t-121 -8t-130 -1.5h-9q17 -152 93.5 -213t206.5 -61q58 0 116.5 12.5t86.5 23t85 33.5q14 5 20.5 0.5t6.5 -22.5v-30q0 -20 -5.5 -29t-21.5 -16 q-118 -67 -299 -67q-208 0 -310 110.5t-102 334.5zM223 438q226 2 316 21q172 46 178 167q0 81 -57.5 123t-156.5 42q-145 0 -212.5 -87.5t-67.5 -265.5zM264 1138q0 29 19 48.5t50 19.5q33 0 54 -20t21 -48t-21 -47.5t-54 -19.5q-31 0 -50 19t-19 48zM594 1138 q0 29 19.5 48.5t53.5 19.5q33 0 52.5 -19.5t19.5 -48.5q0 -28 -20.5 -47.5t-53.5 -19.5t-52 19t-19 48z" />
<glyph unicode="&#xec;" horiz-adv-x="575" d="M52 1281q-12 13 -9.5 19.5t17.5 6.5h80q17 0 23.5 -4t20.5 -20l187 -207q20 -26 -8 -26h-50q-9 0 -17.5 3.5t-14 8t-20.5 16.5zM60 801v29q0 17 5 22.5t19 5.5q57 8 128 8h91q34 0 34 -36v-597q0 -88 19.5 -118.5t56.5 -30.5q49 0 49 43q0 22 4.5 27.5t26.5 5.5h19 q22 0 27 -4.5t5 -23.5q0 -139 -149 -139q-172 0 -172 216v508q0 40 -7.5 48t-40.5 10l-99 1q-12 0 -14 5t-2 20z" />
<glyph unicode="&#xed;" horiz-adv-x="575" d="M60 801v29q0 17 5 22.5t19 5.5q57 8 128 8h91q34 0 34 -36v-597q0 -88 19.5 -118.5t56.5 -30.5q49 0 49 43q0 22 4.5 27.5t26.5 5.5h19q22 0 27 -4.5t5 -23.5q0 -139 -149 -139q-172 0 -172 216v508q0 40 -7.5 48t-40.5 10l-99 1q-12 0 -14 5t-2 20zM214 1093l155 177 q18 24 42 24h95q13 0 15.5 -8.5t-9.5 -19.5l-199 -184q-18 -15 -39 -15h-49q-15 0 -18.5 6.5t7.5 19.5z" />
<glyph unicode="&#xee;" horiz-adv-x="575" d="M41 1071q-13 15 7 31l168 158q17 17 41 17h46q24 0 41 -17l170 -158q5 -5 7.5 -9.5t3 -7.5t-1 -7.5t-3.5 -7.5l-6 -9q-7 -9 -12.5 -9.5t-15.5 6.5l-207 130l-203 -130q-7 -4 -12 -5t-9.5 2.5t-6 5.5zM60 801v29q0 17 5 22.5t19 5.5q57 8 128 8h91q34 0 34 -36v-597 q0 -37 4 -64.5t10.5 -43.5t16.5 -25.5t20.5 -12.5t24.5 -3q49 0 49 43q0 22 4.5 27.5t26.5 5.5h19q22 0 27 -4.5t5 -23.5q0 -139 -149 -139q-172 0 -172 216v508q0 28 -3.5 39t-12 14.5t-32.5 4.5l-99 1q-6 0 -9.5 1t-5 5.5t-1.5 7v11.5z" />
<glyph unicode="&#xef;" horiz-adv-x="575" d="M45 1138q0 29 19 48.5t50 19.5q33 0 53.5 -19.5t20.5 -48.5q0 -28 -20.5 -47.5t-53.5 -19.5q-31 0 -50 19t-19 48zM60 801v29q0 17 5 22.5t19 5.5q57 8 128 8h91q34 0 34 -36v-597q0 -88 19.5 -118.5t56.5 -30.5q49 0 49 43q0 22 4.5 27.5t26.5 5.5h19q22 0 27 -4.5 t5 -23.5q0 -139 -149 -139q-172 0 -172 216v508q0 40 -7.5 48t-40.5 10l-99 1q-12 0 -14 5t-2 20zM374 1138q0 29 19.5 48.5t53.5 19.5q33 0 52.5 -19.5t19.5 -48.5q0 -28 -20.5 -47.5t-53.5 -19.5t-52 19t-19 48z" />
<glyph unicode="&#xf0;" horiz-adv-x="1024" d="M104 398q0 80 18.5 149.5t58.5 130t112 95.5t169 35q183 0 296 -155q-41 379 -280 511l-78 -153q-7 -12 -16 -4l-62 36q-12 5 -5 18l72 140q-69 22 -154 22h-19q-21 0 -21 26v51q0 22 21 22h19q113 0 203 -28l76 145q9 16 22 6l52 -30q10 -5 11.5 -9.5t-3.5 -14.5 l-69 -132q180 -88 271.5 -285.5t91.5 -463.5q0 -96 -14 -175.5t-44.5 -145.5t-76.5 -112t-112.5 -71t-150.5 -25q-181 0 -284.5 113t-103.5 304zM227 406q0 -160 71.5 -245t191.5 -85q140 0 208.5 108.5t68.5 308.5v2q-41 111 -110 164.5t-175 53.5q-126 0 -190.5 -84 t-64.5 -223z" />
<glyph unicode="&#xf1;" horiz-adv-x="1141" d="M71 22v32q0 15 3 20.5t15 5.5q45 1 66.5 2t43.5 5.5t29 8.5t13.5 16.5t7 25t0.5 37.5v540q0 60 -44 60l-103 1q-9 0 -11.5 4t-2.5 17v37q0 17 2.5 21t15.5 5q44 1 92 4.5t57 3.5h73q21 0 28 -8.5t7 -29.5v-147q43 102 126 151.5t183 49.5q121 0 180.5 -66t59.5 -209v-376 q0 -88 20 -118.5t57 -30.5q48 0 48 43q0 22 5 27.5t27 5.5h18q22 0 27 -4.5t5 -23.5q0 -139 -149 -139q-171 0 -171 216v391q0 105 -37 146.5t-110 41.5q-131 0 -209 -104.5t-78 -318.5v-188v-38t6 -25t12.5 -17.5t26.5 -8t41 -5l63 -1.5q18 0 22 -6t4 -26v-24 q0 -9 -0.5 -12.5t-2.5 -7.5t-6.5 -5t-12.5 -1h-423q-16 0 -20 3.5t-4 18.5zM434 1121q28 49 56.5 73t69.5 24q46 0 99 -32t78 -32q16 0 27 9.5t25 35.5q8 15 19 9l39 -18q9 -5 10 -10t-4 -13q-25 -50 -53 -75t-70 -25q-45 0 -98.5 31.5t-72.5 31.5q-18 0 -30 -9.5t-30 -35.5 q-10 -12 -22 -7l-38 19q-13 9 -5 24z" />
<glyph unicode="&#xf2;" horiz-adv-x="1031" d="M101 439q0 88 23.5 165t71 141t130.5 101.5t192 37.5t191 -37.5t129 -101.5t70 -141t23 -165t-23.5 -165.5t-71 -142t-130 -102.5t-190.5 -38q-88 0 -159 25t-118 67.5t-78.5 100.5t-45.5 121.5t-14 133.5zM220 434q0 -71 17 -132.5t51 -111t92.5 -78t135.5 -28.5 t135.5 28.5t92.5 78t51 111t17 132.5t-17 133t-51 112.5t-92 80t-134 29.5q-77 0 -135.5 -29.5t-93.5 -80t-52 -112.5t-17 -133zM287 1281q-12 13 -10 19.5t17 6.5h80q17 0 24 -4t21 -20l186 -207q20 -26 -7 -26h-51q-9 0 -17.5 3.5t-14 8t-20.5 16.5z" />
<glyph unicode="&#xf3;" horiz-adv-x="1031" d="M101 439q0 88 23.5 165t71 141t130.5 101.5t192 37.5t191 -37.5t129 -101.5t70 -141t23 -165t-23.5 -165.5t-71 -142t-130 -102.5t-190.5 -38q-88 0 -159 25t-118 67.5t-78.5 100.5t-45.5 121.5t-14 133.5zM220 434q0 -71 17 -132.5t51 -111t92.5 -78t135.5 -28.5 t135.5 28.5t92.5 78t51 111t17 132.5t-17 133t-51 112.5t-92 80t-134 29.5q-77 0 -135.5 -29.5t-93.5 -80t-52 -112.5t-17 -133zM449 1093l154 177q18 24 43 24h95q13 0 15.5 -8.5t-9.5 -19.5l-200 -184q-18 -15 -39 -15h-48q-15 0 -18.5 6.5t7.5 19.5z" />
<glyph unicode="&#xf4;" horiz-adv-x="1031" d="M101 439q0 88 23.5 165t71 141t130.5 101.5t192 37.5t191 -37.5t129 -101.5t70 -141t23 -165t-23.5 -165.5t-71 -142t-130 -102.5t-190.5 -38q-88 0 -159 25t-118 67.5t-78.5 100.5t-45.5 121.5t-14 133.5zM220 434q0 -71 17 -132.5t51 -111t92.5 -78t135.5 -28.5 t135.5 28.5t92.5 78t51 111t17 132.5t-17 133t-51 112.5t-92 80t-134 29.5q-77 0 -135.5 -29.5t-93.5 -80t-52 -112.5t-17 -133zM274 1071q-13 15 7 31l168 158q17 17 41 17h46q24 0 41 -17l170 -158q5 -5 7.5 -9.5t3 -7.5t-1 -7.5t-3.5 -7.5l-6 -9q-7 -9 -12.5 -9.5 t-15.5 6.5l-207 130l-203 -130q-7 -4 -12 -5t-9.5 2.5t-6 5.5z" />
<glyph unicode="&#xf5;" horiz-adv-x="1031" d="M101 439q0 88 23.5 165t71 141t130.5 101.5t192 37.5t191 -37.5t129 -101.5t70 -141t23 -165t-23.5 -165.5t-71 -142t-130 -102.5t-190.5 -38q-88 0 -159 25t-118 67.5t-78.5 100.5t-45.5 121.5t-14 133.5zM220 434q0 -71 17 -132.5t51 -111t92.5 -78t135.5 -28.5 t135.5 28.5t92.5 78t51 111t17 132.5t-17 133t-51 112.5t-92 80t-134 29.5q-77 0 -135.5 -29.5t-93.5 -80t-52 -112.5t-17 -133zM322 1121q28 49 57 73t70 24q36 0 68.5 -16t59 -32t49.5 -16q16 0 27 9.5t25 35.5q8 15 18 9l39 -18q9 -5 10 -10t-4 -13q-25 -50 -53 -75 t-70 -25q-45 0 -98.5 31.5t-72.5 31.5q-18 0 -30 -9.5t-30 -35.5q-10 -12 -22 -7l-37 19q-14 9 -6 24z" />
<glyph unicode="&#xf6;" horiz-adv-x="1031" d="M101 439q0 88 23.5 165t71 141t130.5 101.5t192 37.5t191 -37.5t129 -101.5t70 -141t23 -165t-23.5 -165.5t-71 -142t-130 -102.5t-190.5 -38q-88 0 -159 25t-118 67.5t-78.5 100.5t-45.5 121.5t-14 133.5zM220 434q0 -71 17 -132.5t51 -111t92.5 -78t135.5 -28.5 t135.5 28.5t92.5 78t51 111t17 132.5t-17 133t-51 112.5t-92 80t-134 29.5q-77 0 -135.5 -29.5t-93.5 -80t-52 -112.5t-17 -133zM277 1138q0 29 19 48.5t50 19.5q33 0 54 -20t21 -48t-21 -47.5t-54 -19.5q-31 0 -50 19t-19 48zM607 1138q0 29 19.5 48.5t53.5 19.5 q33 0 52.5 -19.5t19.5 -48.5q0 -28 -20.5 -47.5t-53.5 -19.5t-52 19t-19 48z" />
<glyph unicode="&#xf7;" horiz-adv-x="1230" d="M155 408v108h923v-108h-923zM516 140q0 31 26 52.5t67 21.5q38 0 62.5 -21.5t24.5 -52.5q0 -30 -24.5 -50.5t-62.5 -20.5q-41 0 -67 20.5t-26 50.5zM516 776q0 33 26.5 54t66.5 21q37 0 62 -21t25 -54q0 -28 -25.5 -48.5t-61.5 -20.5q-39 0 -66 20.5t-27 48.5z" />
<glyph unicode="&#xf8;" horiz-adv-x="1031" d="M101 439q0 88 23.5 165t71 141t130.5 101.5t192 37.5q71 0 141 -18l65 147q9 17 19 17h72q18 0 10 -21l-80 -182q94 -57 140 -160.5t46 -227.5q0 -88 -23.5 -165.5t-71 -142t-130 -102.5t-190.5 -38q-66 0 -131 15l-59 -136q-6 -13 -24 -13h-71q-15 0 -8 15l75 169 q-100 57 -148.5 163t-48.5 235zM220 434q0 -207 119 -296l279 635q-44 16 -100 16q-77 0 -135.5 -29.5t-93.5 -80t-52 -112.5t-17 -133zM424 95q41 -11 92 -11q77 0 135.5 28.5t92.5 78t51 111t17 132.5q0 196 -112 292z" />
<glyph unicode="&#xf9;" horiz-adv-x="1117" d="M43 802v30q0 16 4.5 21t17.5 5q31 2 51 3.5t26 2t11.5 1.5t14.5 1h29h93q19 0 25.5 -9t6.5 -30v-535q0 -126 41 -170t130 -44q133 0 203.5 79.5t70.5 263.5v322q-8 33 -45 33l-102 2q-7 0 -10.5 3t-4 7t-0.5 14v30q0 16 4.5 21t17.5 5q37 2 58 4t25 2.5t14 1t34 0.5h93 q19 0 25.5 -9t6.5 -30v-594q0 -88 19.5 -118.5t56.5 -30.5q48 0 48 43q0 22 4.5 27.5t27.5 5.5h17h9h7.5t5.5 -1.5t3.5 -1.5t2.5 -2t2 -2.5t1 -4v-4.5v-5.5v-6.5q0 -139 -147 -139q-142 0 -165 147q-84 -153 -297 -153q-141 0 -206 71.5t-65 237.5v430q0 50 -47 50l-102 2 q-7 0 -10.5 3t-4 7t-0.5 14zM281 1281q-12 13 -9.5 19.5t17.5 6.5h80q17 0 23.5 -4t20.5 -20l187 -207q20 -26 -8 -26h-50q-9 0 -17.5 3.5t-14 8t-20.5 16.5z" />
<glyph unicode="&#xfa;" horiz-adv-x="1117" d="M43 802v30q0 16 4.5 21t17.5 5q31 2 51 3.5t26 2t11.5 1.5t14.5 1h29h93q19 0 25.5 -9t6.5 -30v-535q0 -126 41 -170t130 -44q133 0 203.5 79.5t70.5 263.5v322q-8 33 -45 33l-102 2q-7 0 -10.5 3t-4 7t-0.5 14v30q0 16 4.5 21t17.5 5q37 2 58 4t25 2.5t14 1t34 0.5h93 q19 0 25.5 -9t6.5 -30v-594q0 -88 19.5 -118.5t56.5 -30.5q48 0 48 43q0 22 4.5 27.5t27.5 5.5h17h9h7.5t5.5 -1.5t3.5 -1.5t2.5 -2t2 -2.5t1 -4v-4.5v-5.5v-6.5q0 -139 -147 -139q-142 0 -165 147q-84 -153 -297 -153q-141 0 -206 71.5t-65 237.5v430q0 50 -47 50l-102 2 q-7 0 -10.5 3t-4 7t-0.5 14zM443 1093l155 177q18 24 42 24h95q13 0 15.5 -8.5t-9.5 -19.5l-199 -184q-18 -15 -39 -15h-49q-15 0 -18.5 6.5t7.5 19.5z" />
<glyph unicode="&#xfb;" horiz-adv-x="1117" d="M43 802v30q0 16 4.5 21t17.5 5q31 2 51 3.5t26 2t11.5 1.5t14.5 1h29h93q19 0 25.5 -9t6.5 -30v-535q0 -126 41 -170t130 -44q133 0 203.5 79.5t70.5 263.5v322q-8 33 -45 33l-102 2q-7 0 -10.5 3t-4 7t-0.5 14v30q0 16 4.5 21t17.5 5q37 2 58 4t25 2.5t14 1t34 0.5h93 q19 0 25.5 -9t6.5 -30v-594q0 -88 19.5 -118.5t56.5 -30.5q48 0 48 43q0 22 4.5 27.5t27.5 5.5h17h9h7.5t5.5 -1.5t3.5 -1.5t2.5 -2t2 -2.5t1 -4v-4.5v-5.5v-6.5q0 -139 -147 -139q-142 0 -165 147q-84 -153 -297 -153q-141 0 -206 71.5t-65 237.5v430q0 50 -47 50l-102 2 q-7 0 -10.5 3t-4 7t-0.5 14zM268 1071q-12 14 8 31l167 158q17 17 41 17h47q24 0 41 -17l169 -158q8 -8 9.5 -15t-0.5 -11.5t-9 -14.5q-7 -9 -12.5 -9.5t-15.5 6.5l-207 130l-203 -130q-4 -2 -7.5 -3.5t-6.5 -1t-4.5 0.5t-4.5 2.5t-3.5 3.5t-4 5.5t-4.5 5.5z" />
<glyph unicode="&#xfc;" horiz-adv-x="1117" d="M43 802v30q0 16 4.5 21t17.5 5q31 2 51 3.5t26 2t11.5 1.5t14.5 1h29h93q19 0 25.5 -9t6.5 -30v-535q0 -126 41 -170t130 -44q133 0 203.5 79.5t70.5 263.5v322q-8 33 -45 33l-102 2q-7 0 -10.5 3t-4 7t-0.5 14v30q0 16 4.5 21t17.5 5q37 2 58 4t25 2.5t14 1t34 0.5h93 q19 0 25.5 -9t6.5 -30v-594q0 -88 19.5 -118.5t56.5 -30.5q48 0 48 43q0 22 4.5 27.5t27.5 5.5h17h9h7.5t5.5 -1.5t3.5 -1.5t2.5 -2t2 -2.5t1 -4v-4.5v-5.5v-6.5q0 -139 -147 -139q-142 0 -165 147q-84 -153 -297 -153q-141 0 -206 71.5t-65 237.5v430q0 50 -47 50l-102 2 q-7 0 -10.5 3t-4 7t-0.5 14zM272 1138q0 29 19 48.5t50 19.5q33 0 53.5 -19.5t20.5 -48.5q0 -28 -20.5 -47.5t-53.5 -19.5q-31 0 -50 19t-19 48zM601 1138q0 29 19.5 48.5t53.5 19.5q33 0 53 -19.5t20 -48.5q0 -28 -21 -47.5t-54 -19.5t-52 19t-19 48z" />
<glyph unicode="&#xfd;" horiz-adv-x="1046" d="M60 797v56q0 9 3 11t11 2h362q13 0 13 -15v-52q0 -10 -2.5 -13.5t-14.5 -3.5q-57 -1 -82.5 -4.5t-29.5 -7.5t-3 -14q1 -90 44.5 -234t86 -244.5t77.5 -171.5q120 263 235 641q7 20 -4 26q-17 7 -106 9q-13 1 -16 4t-3 13v50q0 17 17 17h344q13 0 16 -3t3 -14v-50 q0 -14 -17 -17q-59 -1 -82.5 -5t-31.5 -12t-14 -30q-151 -528 -430 -1050q-24 -38 -50.5 -48.5t-68.5 -10.5h-123q-17 0 -20 2t-3 15v44q0 9 3.5 13t17.5 4q16 2 39 4.5t32.5 3.5t24.5 3t20.5 3.5t14 5t12.5 7.5t8.5 9.5t8.5 13.5l125 246q-10 2 -21 15q-73 121 -163.5 349 t-93.5 390q-1 9 -4.5 13.5t-17.5 8t-37 4.5t-66 2q-7 1 -10 3t-3.5 4t-0.5 8zM477 1093l154 177q18 24 43 24h95q13 0 15.5 -8.5t-9.5 -19.5l-200 -184q-18 -15 -39 -15h-48q-15 0 -18.5 6.5t7.5 19.5z" />
<glyph unicode="&#xfe;" horiz-adv-x="1061" d="M-4 -300q0 15 3.5 20.5t15.5 5.5q43 1 65 2t43.5 5.5t28.5 8.5t13.5 16t7 24t0.5 36v1334q0 60 -46 60l-103 2q-10 0 -12.5 3.5t-2.5 16.5v38q0 16 3 20t16 6q45 1 92.5 4t56.5 3h72q23 0 29.5 -8t6.5 -29v-588q39 99 123.5 151.5t187.5 52.5q177 0 269 -124.5t92 -325.5 q0 -97 -22 -178t-66 -143t-116.5 -97t-166.5 -35q-97 0 -180.5 44t-116.5 130v-332q0 -26 0.5 -38.5t6.5 -25t13 -17t27.5 -8.5t41.5 -4.5l63 -1.5q20 0 24 -5.5t4 -25.5v-25q0 -16 -4 -21t-20 -5h-425q-17 0 -20.5 4t-3.5 19v31zM294 406q0 -151 69 -242t205 -91 q140 0 205 96.5t65 258.5t-64 260t-201 98t-208 -103.5t-71 -276.5z" />
<glyph unicode="&#xff;" horiz-adv-x="1046" d="M60 797v56q0 9 3 11t11 2h362q13 0 13 -15v-52q0 -10 -2.5 -13.5t-14.5 -3.5q-57 -1 -82.5 -4.5t-29.5 -7.5t-3 -14q1 -90 44.5 -234t86 -244.5t77.5 -171.5q120 263 235 641q7 20 -4 26q-17 7 -106 9q-13 1 -16 4t-3 13v50q0 17 17 17h344q13 0 16 -3t3 -14v-50 q0 -14 -17 -17q-59 -1 -82.5 -5t-31.5 -12t-14 -30q-151 -528 -430 -1050q-24 -38 -50.5 -48.5t-68.5 -10.5h-123q-17 0 -20 2t-3 15v44q0 9 3.5 13t17.5 4q16 2 39 4.5t32.5 3.5t24.5 3t20.5 3.5t14 5t12.5 7.5t8.5 9.5t8.5 13.5l125 246q-10 2 -21 15q-73 121 -163.5 349 t-93.5 390q-1 9 -4.5 13.5t-17.5 8t-37 4.5t-66 2q-7 1 -10 3t-3.5 4t-0.5 8zM307 1138q0 29 19 48.5t50 19.5q33 0 54 -20t21 -48t-21 -47.5t-54 -19.5q-31 0 -50 19t-19 48zM637 1138q0 29 19 48.5t53 19.5q33 0 53 -19.5t20 -48.5q0 -28 -21 -47.5t-54 -19.5t-51.5 19 t-18.5 48z" />
<glyph unicode="&#x152;" horiz-adv-x="2155" d="M123 652q0 146 38.5 267.5t112.5 211.5t191 140.5t267 50.5q180 0 309.5 -71t204.5 -199q31 270 409 270q191 0 320 -43q8 -3 13 -5t9 -4.5t5.5 -4.5t2.5 -6t0.5 -6t-0.5 -8.5v-11.5v-248q0 -16 -2.5 -19t-17.5 -3h-45q-11 0 -14.5 2.5t-4.5 15.5l-22 216q-87 24 -238 24 q-70 0 -121.5 -10t-94 -34.5t-64.5 -70.5t-22 -114q0 -138 86.5 -198t243.5 -60h134q12 0 17 -5.5t5 -21.5v-44q0 -28 -22 -28h-134q-380 0 -380 -289q0 -138 89 -200t274 -62q63 0 133.5 6.5t117.5 14.5t86.5 15.5t42.5 7.5q12 3 15 0t3 -16v-65q0 -10 -6 -15t-22 -10 q-153 -41 -389 -41q-86 0 -153 9.5t-127.5 32t-102.5 64.5t-64 103q-164 -209 -474 -209q-199 0 -338 88t-205 237t-66 346zM248 655q0 -266 129 -418.5t355 -152.5q227 0 356.5 152.5t129.5 418.5q0 264 -129.5 414t-356.5 150t-355.5 -150t-128.5 -414zM1337 748 q5 -40 5 -96v-13q54 28 136 44q-83 15 -141 65z" />
<glyph unicode="&#x153;" horiz-adv-x="1651" d="M101 439q0 88 23.5 165t71 141t130.5 101.5t192 37.5q244 0 348 -180q95 180 342 180q164 0 248 -66.5t84 -191.5q0 -54 -18 -96.5t-46.5 -71.5t-76 -49.5t-93.5 -31.5t-113 -17.5t-121 -8t-130 -1.5h-9q17 -152 93.5 -213t206.5 -61q58 0 116.5 12.5t86.5 23t85 33.5 q14 5 20 0.5t6 -22.5v-30q0 -21 -5.5 -29.5t-20.5 -15.5q-56 -32 -136.5 -49.5t-163.5 -17.5q-269 0 -361 185q-112 -175 -344 -175q-88 0 -159 25t-118 67.5t-78.5 100.5t-45.5 121.5t-14 133.5zM220 434q0 -71 17 -132.5t51 -111t92.5 -78t135.5 -28.5q139 0 212 87.5 t82 225.5v67q-6 140 -79 232.5t-213 92.5q-77 0 -135.5 -29.5t-93.5 -80t-52 -112.5t-17 -133zM929 469q2 -9 2 -30v-1q48 0 72.5 0.5t69.5 2t70 4.5t63.5 7.5t60.5 11.5t50.5 17t44.5 24t31.5 31t22 40t6.5 50q0 81 -57.5 123t-156.5 42q-138 0 -205 -79.5t-74 -242.5z" />
<glyph unicode="&#x178;" horiz-adv-x="1260" d="M43 1242v43q0 11 4 14.5t14 3.5h401q16 0 16 -18v-41q0 -23 -20 -23q-77 0 -105.5 -5.5t-28.5 -20.5q0 -92 25.5 -178t74.5 -163t95.5 -134t113.5 -126q69 70 116 126.5t97 133.5t76 163t26 178q0 15 -28 20.5t-106 5.5q-21 0 -21 23v41q0 18 17 18h391q11 0 14.5 -3.5 t3.5 -14.5v-43q0 -9 -0.5 -12t-4.5 -5t-13 -2q-84 -3 -114 -9t-31 -22q-2 -106 -34 -206t-90.5 -190t-112.5 -155t-130 -144v-320q0 -23 1 -33.5t2.5 -23.5t9 -17.5t15.5 -10t27.5 -6.5t38.5 -2.5t55 -1.5q20 0 24 -6t4 -26v-24q0 -16 -4 -21t-20 -5h-427q-15 0 -18.5 4 t-3.5 18v32q0 11 0.5 15t4.5 7.5t13 3.5q45 1 66.5 2t44 5t29.5 8.5t14 17t7.5 25t0.5 37.5v317q-61 64 -104 113t-96.5 122.5t-86.5 140t-56.5 152.5t-24.5 172q0 15 -31.5 21.5t-112.5 9.5q-7 0 -10.5 0.5t-5.5 3.5t-2 5v10zM402 1448q0 29 19 49t50 20q33 0 54 -20 t21 -49q0 -28 -21 -47.5t-54 -19.5q-31 0 -50 19t-19 48zM732 1448q0 29 19 49t53 20q33 0 53 -20t20 -49q0 -28 -21 -47.5t-54 -19.5t-51.5 19t-18.5 48z" />
<glyph unicode="&#x2c6;" horiz-adv-x="681" d="M102 1381q-13 15 8 32l167 158q17 17 41 17h47q24 0 41 -17l169 -158q12 -13 11.5 -21t-11.5 -20q-7 -10 -12.5 -10.5t-15.5 6.5l-206 131l-203 -131q-3 -2 -6 -3t-5.5 -1h-4t-3.5 1t-3.5 2t-3.5 2.5t-3 3t-3.5 4t-3.5 4.5z" />
<glyph unicode="&#x2dc;" horiz-adv-x="668" d="M140 1428q28 49 56.5 73t69.5 24q46 0 99 -31.5t78 -31.5q17 0 27.5 9t24.5 35q9 16 19 10l39 -19q9 -5 10 -9.5t-4 -12.5q-25 -50 -53 -75.5t-70 -25.5q-45 0 -99 31.5t-73 31.5q-18 0 -29.5 -9t-29.5 -35q-11 -13 -23 -8l-37 19q-13 9 -5 24z" />
<glyph unicode="&#x2000;" horiz-adv-x="827" />
<glyph unicode="&#x2001;" horiz-adv-x="1655" />
<glyph unicode="&#x2002;" horiz-adv-x="827" />
<glyph unicode="&#x2003;" horiz-adv-x="1655" />
<glyph unicode="&#x2004;" horiz-adv-x="551" />
<glyph unicode="&#x2005;" horiz-adv-x="413" />
<glyph unicode="&#x2006;" horiz-adv-x="275" />
<glyph unicode="&#x2007;" horiz-adv-x="275" />
<glyph unicode="&#x2008;" horiz-adv-x="206" />
<glyph unicode="&#x2009;" horiz-adv-x="331" />
<glyph unicode="&#x200a;" horiz-adv-x="91" />
<glyph unicode="&#x2010;" horiz-adv-x="940" d="M149 514v58q0 16 17 16h610q17 0 17 -18v-51q0 -22 -20 -22h-609q-15 0 -15 17z" />
<glyph unicode="&#x2011;" horiz-adv-x="940" d="M149 514v58q0 16 17 16h610q17 0 17 -18v-51q0 -22 -20 -22h-609q-15 0 -15 17z" />
<glyph unicode="&#x2012;" horiz-adv-x="940" d="M149 514v58q0 16 17 16h610q17 0 17 -18v-51q0 -22 -20 -22h-609q-15 0 -15 17z" />
<glyph unicode="&#x2013;" horiz-adv-x="1269" d="M149 503v72q0 15 13 15h944q9 0 11 -3.5t2 -13.5v-65q0 -11 -3 -14.5t-14 -3.5h-940q-13 0 -13 13z" />
<glyph unicode="&#x2014;" horiz-adv-x="1694" d="M149 503v72q0 15 13 15h1367q9 0 11 -3.5t2 -13.5v-65q0 -11 -3 -14.5t-14 -3.5h-1363q-13 0 -13 13z" />
<glyph unicode="&#x2018;" horiz-adv-x="441" d="M125 979l113 321q4 14 10.5 18t19.5 4h50q13 0 16.5 -4.5t0.5 -17.5l-93 -332q-4 -14 -6.5 -19.5t-10 -9t-22.5 -3.5h-58q-23 0 -26.5 11t6.5 32z" />
<glyph unicode="&#x2019;" horiz-adv-x="441" d="M123 959l93 331q4 14 6.5 19.5t10 9t22.5 3.5h58q23 0 26.5 -11t-6.5 -32l-113 -320q-7 -23 -30 -23h-50q-13 0 -16.5 5t-0.5 18z" />
<glyph unicode="&#x201a;" horiz-adv-x="407" d="M65 -195l93 331q4 14 6.5 19.5t10 9t22.5 3.5h58q23 0 27 -11t-6 -32l-114 -320q-7 -23 -30 -23h-50q-13 0 -16.5 5t-0.5 18z" />
<glyph unicode="&#x201c;" horiz-adv-x="685" d="M125 979l113 321q4 14 10.5 18t19.5 4h50q13 0 16.5 -4.5t0.5 -17.5l-93 -332q-4 -14 -6.5 -19.5t-10 -9t-22.5 -3.5h-58q-23 0 -26.5 11t6.5 32zM367 979l113 321q4 14 10.5 18t19.5 4h50q13 0 16.5 -4.5t0.5 -17.5l-93 -332q-4 -14 -6.5 -19.5t-10 -9t-22.5 -3.5h-58 q-23 0 -26.5 11t6.5 32z" />
<glyph unicode="&#x201d;" horiz-adv-x="685" d="M123 959l93 331q4 14 6.5 19.5t10 9t22.5 3.5h58q23 0 26.5 -11t-6.5 -32l-113 -320q-7 -23 -30 -23h-50q-13 0 -16.5 5t-0.5 18zM365 959l93 331q4 14 6.5 19.5t10 9t22.5 3.5h58q23 0 26.5 -11t-6.5 -32l-113 -320q-7 -23 -30 -23h-50q-13 0 -16.5 5t-0.5 18z" />
<glyph unicode="&#x201e;" horiz-adv-x="694" d="M65 -195l93 331q4 14 6.5 19.5t10 9t22.5 3.5h58q23 0 27 -11t-6 -32l-114 -320q-7 -23 -30 -23h-50q-13 0 -16.5 5t-0.5 18zM354 -195l93 331q4 14 6.5 19.5t10 9t22.5 3.5h58q23 0 26.5 -11t-6.5 -32l-113 -320q-7 -23 -30 -23h-50q-13 0 -16.5 5t-0.5 18z" />
<glyph unicode="&#x2022;" horiz-adv-x="592" d="M195 456q0 32 29 54t72 22q42 0 71.5 -22t29.5 -54q0 -31 -29.5 -53.5t-71.5 -22.5q-43 0 -72 22.5t-29 53.5z" />
<glyph unicode="&#x2026;" horiz-adv-x="1522" d="M141 58q0 26 25 45.5t61 19.5q34 0 59 -19.5t25 -45.5q0 -32 -24 -50.5t-60 -18.5q-37 0 -61.5 18t-24.5 51zM678 58q0 27 24 46t59 19t60.5 -19.5t25.5 -45.5q0 -31 -25 -50t-61 -19t-59.5 18.5t-23.5 50.5zM1212 56q0 28 24.5 47.5t59.5 19.5t59.5 -19.5t24.5 -47.5 q0 -31 -23.5 -49t-60.5 -18t-60.5 18t-23.5 49z" />
<glyph unicode="&#x202f;" horiz-adv-x="331" />
<glyph unicode="&#x2039;" horiz-adv-x="655" d="M84 493l374 399q20 20 30 13l52 -39q7 -5 6 -9.5t-12 -18.5l-331 -361l326 -354q17 -19 19 -23t-4 -9l-54 -39q-8 -5 -14.5 -2.5t-19.5 15.5l-370 387q-14 14 -14.5 21t12.5 20z" />
<glyph unicode="&#x203a;" horiz-adv-x="657" d="M112 91q-5 5 -3 9t18 23l327 354l-331 361q-13 14 -14 18.5t6 9.5l54 39q8 7 28 -13l375 -399q14 -13 13.5 -19.5t-15.5 -21.5l-371 -387q-13 -13 -18.5 -15.5t-14.5 2.5z" />
<glyph unicode="&#x205f;" horiz-adv-x="413" />
<glyph unicode="&#x20ac;" horiz-adv-x="1468" d="M93 445l45 56q14 17 30 17h145q-6 42 -6 87h-201q-14 0 -16.5 3.5t3.5 11.5l45 56q14 17 30 17h139q14 312 175 470.5t445 158.5q206 0 348 -39q21 -5 25.5 -13t4.5 -34v-294q0 -16 -3.5 -19t-16.5 -3h-54q-15 0 -19 3.5t-6 14.5l-20 259q-102 26 -257 26 q-223 0 -354 -133t-145 -397h646q13 0 15.5 -5.5t-7.5 -15.5l-53 -52q-15 -15 -31 -15h-570q0 -3 6 -87h504q12 0 14.5 -5.5t-6.5 -15.5l-51 -52q-15 -15 -31 -15h-415q39 -179 159 -260t321 -81q147 0 380 43q15 3 20.5 -0.5t5.5 -17.5v-43q0 -20 -7 -28t-29 -13 q-215 -43 -381 -43q-256 0 -404 106t-192 337h-218q-14 0 -16.5 3.5t3.5 11.5z" />
<glyph unicode="&#x2122;" horiz-adv-x="1742" d="M160 1097v193q0 9 2.5 11t10.5 2h484q5 0 7.5 -0.5t4 -3.5t1.5 -9v-193q0 -15 -11 -15h-43q-9 0 -11 3.5t-2 11.5l-7 106q0 20 -19 20h-113v-581q0 -39 10.5 -47t56.5 -10q9 0 11 -2.5t2 -11.5v-5v-30q0 -9 -2 -12t-10 -3h-240q-7 0 -9 2.5t-2 10.5v34q0 17 9 17 q53 3 65 11t12 43v584h-114q-15 0 -18 -20l-6 -108q-8 -12 -13 -13h-45q-11 0 -11 15zM717 1257v33q0 8 2 10.5t9 2.5h192q6 0 10 -1t7 -1.5t5.5 -3.5t4 -4t3 -6.5t2 -7t1.5 -9t2 -10.5q19 -98 84.5 -310t111.5 -328h1q39 100 93 310t77 328q1 5 2.5 15.5t2.5 13t4.5 7.5 t9.5 6t16 1h194q8 0 9.5 -2t1.5 -11v-33q0 -8 -0.5 -10.5t-2.5 -4.5t-6 -2q-51 -3 -64 -11t-13 -36v-543q0 -67 47 -67q16 0 27.5 12t11.5 38v6q0 5 6 5h37q5 0 5 -5v-6q0 -123 -109 -123q-123 0 -123 145v490q-29 -144 -88 -342t-93 -269q-7 -13 -22 -13h-65q-16 0 -23 13 q-43 84 -105.5 265t-100.5 335v-497q0 -35 10 -42.5t51 -9.5q11 0 13 -3.5t2 -15.5v-30v-7t-1.5 -4.5t-4 -3t-7.5 -0.5h-210q-9 0 -11 2t-2 11v34q0 10 2.5 13.5t10.5 3.5q44 3 54.5 11t10.5 43v554q0 28 -13 37t-60 10q-9 0 -9 17z" />
<glyph unicode="&#xe000;" horiz-adv-x="865" d="M0 0v866h866v-866h-866z" />
</font>
</defs>
</svg>
