<?xml version="1.0" standalone="no"?>
<!DOCTYPE svg PUBLIC "-//W3C//DTD SVG 1.1//EN" "http://www.w3.org/Graphics/SVG/1.1/DTD/svg11.dtd" >
<svg xmlns="http://www.w3.org/2000/svg">
<metadata></metadata>
<defs>
<font id="quatie_norm_light_itanormLtIt" horiz-adv-x="1431" >
<font-face units-per-em="2048" ascent="1629" descent="-419" />
<missing-glyph horiz-adv-x="398" />
<glyph unicode="&#xfb01;" horiz-adv-x="1046" d="M20 22l6 25q3 15 8 20.5t16 5.5q43 1 60 1.5t39 5t27.5 8t15 16.5t12 25t8.5 39l131 620h-140q-16 0 -13 16l9 45q6 17 21 17h139l30 134q36 170 130 246t242 76q71 0 134 -16t88 -33q13 -8 16 -19t-1 -35l-37 -173q-5 -18 -23 -18h-42q-9 0 -11.5 2.5t-1.5 13.5l22 161 q-58 33 -160 33q-104 0 -169.5 -60t-93.5 -195l-26 -117h441q17 0 22.5 -7t2.5 -23l-79 -365h-1l-27 -121h2l-26 -123q-16 -64 -10.5 -98t18.5 -44.5t37 -10.5q47 0 58 43q8 29 13 32q4 2 18 2h28q16 0 19.5 -4.5t-0.5 -23.5q-16 -72 -54.5 -101t-98.5 -29 q-77 0 -116.5 48.5t-15.5 159.5l26 123h-2l93 430q0 23 -24.5 28.5t-114.5 5.5h-226l-130 -619q-15 -69 7 -81.5t161 -14.5q10 0 16 -2t7 -7.5t0.5 -9.5t-3.5 -14t-4 -14q-3 -17 -7 -21.5t-21 -4.5h-426q-16 0 -19 4t0 18z" />
<glyph unicode="&#xfb02;" horiz-adv-x="1072" d="M9 22l6 25q5 26 24 26q34 0 51.5 0.5t38.5 2.5t29.5 3.5t20 7.5t15 11t9.5 17t8.5 22.5t6.5 30.5l130 620h-138q-18 0 -15 16l10 45q6 17 22 17h138l30 139q34 157 133 237t256 80q63 0 115.5 -13t128.5 -50q16 -9 11 -28l-214 -1004q-16 -64 -10.5 -98t18 -44.5 t35.5 -10.5q46 0 59 43q5 25 9 29.5t23 4.5h28q16 0 19 -4.5t-1 -23.5q-16 -72 -54 -101t-98 -29q-78 0 -117 48.5t-15 159.5l124 587h-400l-134 -637q-5 -20 -6.5 -31.5t4 -21t11.5 -13.5t26.5 -7t39.5 -3.5t59 -1.5q10 0 16 -2t7 -7t0.5 -9.5t-3 -14t-3.5 -14.5 q-3 -17 -7 -21.5t-21 -4.5h-406q-16 0 -19 4t0 18zM462 866h400l71 329q-47 23 -81.5 32t-84.5 9q-127 0 -189.5 -60t-95.5 -219z" />
<glyph unicode="&#xfb03;" horiz-adv-x="1547" d="M9 22l6 25q3 15 8 20.5t16 5.5h1h1h1h1h1h1h1h1h1h1q105 3 127 13q24 10 34 50l8 32l130 620h-138q-18 0 -15 16l10 45q6 17 22 17h138l15 65q65 313 381 313q128 0 209 -47q97 125 289 125q71 0 134.5 -16t88.5 -33q13 -8 16 -19t-1 -35l-37 -173q-5 -18 -23 -18h-42 q-6 0 -9 1t-4.5 4.5t-0.5 10.5l23 161q-58 33 -162 33t-168.5 -59.5t-92.5 -195.5l-26 -117h441q30 0 25 -30l-79 -365h-1l-32 -147h-2l-20 -97q-16 -64 -10.5 -98t18 -44.5t36.5 -10.5q47 0 58 43q7 25 11 29.5t21 4.5h27q16 0 19.5 -4.5t-0.5 -23.5q-16 -72 -54.5 -101 t-98.5 -29q-77 0 -115.5 48.5t-14.5 159.5l119 553q0 23 -24.5 28.5t-114.5 5.5h-226l-137 -648q-8 -46 20 -55.5t155 -11.5q10 0 16 -2t7 -7.5t0.5 -9.5t-3.5 -14t-4 -14q-3 -17 -7 -21.5t-21 -4.5h-426q-16 0 -19 4t0 18l6 25q3 15 8 20.5t16 5.5q43 1 60 1.5t39 5t27.5 8 t15 16.5t12 25t8.5 39l131 620h-397l-130 -619q-6 -27 -8.5 -39.5t1.5 -26t8.5 -17t25.5 -8t40 -4.5t63 -1q10 0 16 -2t7 -7t0.5 -9.5t-3 -14t-3.5 -14.5q-3 -17 -7 -21.5t-21 -4.5h-406q-16 0 -19 4t0 18zM462 866h396l30 134q14 69 35 117q-74 41 -173 41 q-114 0 -180 -51.5t-93 -177.5z" />
<glyph unicode="&#xfb04;" horiz-adv-x="1565" d="M7 22l6 25q5 26 22 26h1h1h1h1h1h1h1h1h1h1q106 3 128 13q25 10 35 50l8 32l130 620h-139q-16 0 -13 16l9 45q6 17 20 17h140l15 65q62 294 359 294q132 0 222 -48q103 145 316 145q65 0 117 -13t127 -50q11 -5 13 -11t-2 -17l-214 -1004q-16 -64 -10.5 -98t18.5 -44.5 t37 -10.5q47 0 58 43q1 4 2.5 9.5t2 8t1.5 5.5t2 4.5t2.5 3t3 2t4.5 1t5.5 0.5h7.5h28q16 0 19.5 -4.5t-0.5 -23.5q-16 -72 -54.5 -101t-98.5 -29q-77 0 -116.5 48.5t-15.5 159.5l125 587h-399l-134 -637q-5 -20 -6.5 -31.5t3.5 -21t11 -13.5t26.5 -7t39.5 -3.5t60 -1.5 q10 0 15.5 -2t6.5 -8t0.5 -9.5t-3.5 -13.5t-4 -14q-2 -10 -2.5 -13t-3.5 -7t-7.5 -5t-12.5 -1h-408q-15 0 -17 4t1 18l5 25q5 26 23 26q46 1 66.5 1t43.5 4.5t30 8t16.5 17t12.5 25.5t9 39l131 620h-397l-130 -619q-6 -28 -8.5 -39.5t1 -25.5t8.5 -17.5t25.5 -8t39.5 -4.5 t64 -1q11 0 16.5 -2t7 -7.5t1 -9t-3.5 -14t-4 -14.5q-3 -17 -7 -21.5t-21 -4.5h-406q-16 0 -19 4t0 18zM460 866h396l30 139q12 54 26 90q-85 44 -184 44q-107 0 -167.5 -46.5t-85.5 -163.5zM955 866h399l70 329q-45 22 -80 31.5t-84 9.5q-128 0 -189 -59.5t-95 -219.5z" />
<glyph horiz-adv-x="2048" />
<glyph horiz-adv-x="2048" />
<glyph unicode="&#xd;" horiz-adv-x="2048" />
<glyph unicode=" "  horiz-adv-x="398" />
<glyph unicode="&#x09;" horiz-adv-x="398" />
<glyph unicode="&#xa0;" horiz-adv-x="398" />
<glyph unicode="!" horiz-adv-x="487" d="M115 63q5 30 30.5 51.5t57.5 21.5q29 0 46 -22t12 -51q-8 -35 -33.5 -54.5t-56.5 -19.5q-33 0 -48.5 19.5t-7.5 54.5zM192 287l218 1048q4 17 14 17h75q10 0 12 -4.5t-1 -14.5l-231 -1048q-3 -13 -7 -16t-17 -3h-52q-11 0 -11 21z" />
<glyph unicode="&#x22;" horiz-adv-x="597" d="M274 875l89 417q3 13 13 13h80q4 0 5.5 -1t1.5 -4t-1 -8l-90 -417q0 -11 -15 -11h-72q-8 0 -10.5 2t-0.5 9zM460 875l89 417q3 13 13 13h82q4 0 5 -2.5t-1 -10.5l-89 -417q0 -11 -15 -11h-71q-10 0 -12.5 2t-0.5 9z" />
<glyph unicode="#" horiz-adv-x="1374" d="M128 426l19 90h296l129 301h-291l19 90h313l165 406h93l-167 -406h303l166 406h93l-164 -406h293l-19 -90h-315l-126 -301h298l-19 -90h-320l-177 -426h-91l176 426h-305l-175 -426h-89l175 426h-280zM536 516h304l128 301h-305z" />
<glyph unicode="$" horiz-adv-x="1074" d="M78 78l54 253q3 13 9.5 18t22.5 5h31q13 0 16 -5t1 -18l-35 -227q120 -35 287 -35q44 0 84.5 5t93.5 22t94.5 45.5t77 80.5t50.5 122q16 77 3.5 131t-63.5 90.5t-86 52.5t-117 43q-42 14 -63.5 22t-59 23.5t-57 30t-46.5 36t-39 47t-23 58.5t-9.5 75t11.5 91 q57 278 411 278q101 0 197 -14t140 -33q16 -7 19.5 -14t-0.5 -28l-56 -261q-3 -17 -7 -19.5t-19 -2.5h-39q-15 0 -17.5 2.5t0.5 15.5l35 237q-124 31 -251 31q-276 0 -320 -206q-14 -65 0 -113.5t48 -75.5t82 -49.5t102.5 -36.5t108 -36t99.5 -47.5t78 -71.5t42 -109 t-9 -158q-18 -87 -59.5 -153t-91.5 -103t-114 -59.5t-117.5 -29.5t-112.5 -7q-99 0 -218.5 16t-152.5 33q-24 11 -15 48zM371 -320l53 236q4 19 17 19h64q11 0 7 -15l-48 -238q-3 -19 -12 -19h-78q-7 0 -3 17zM739 1396l49 239q3 15 11 15h76q9 0 6 -17l-56 -240 q0 -13 -11 -13h-64q-11 0 -11 13v3z" />
<glyph unicode="%" horiz-adv-x="1882" d="M227 931q17 80 51 148.5t87 124.5t131.5 88t173.5 32q76 0 133 -21t90 -58t51 -87t16.5 -107.5t-12.5 -119.5q-18 -81 -52.5 -150t-88 -125.5t-132 -89t-172.5 -32.5q-77 0 -134 21.5t-89.5 58.5t-50.5 87.5t-16 108.5t14 121zM330 931q-32 -146 19 -230.5t170 -84.5 q120 0 207 84t119 231q30 147 -17.5 229t-175.5 82q-121 0 -206 -82.5t-116 -228.5zM397 9l1159 1292l5 5q8 8 11.5 11t10 6t14.5 3h67q12 0 16 -2t1 -8.5t-15 -19.5l-1156 -1294q-20 -22 -48 -22h-60q-16 0 -18.5 4t13.5 25zM1080 378q17 80 51 148.5t87 124.5t131.5 88 t173.5 32q75 0 132.5 -21t90 -58t51.5 -87t17.5 -107.5t-12.5 -119.5q-17 -80 -53 -149.5t-90 -126t-132 -89t-172 -32.5q-95 0 -160 33t-93 88t-35 126.5t13 149.5zM1182 378q-32 -145 20.5 -230t171.5 -85q120 0 207 84t119 231q30 146 -18 228.5t-176 82.5 q-121 0 -207 -82.5t-117 -228.5z" />
<glyph unicode="&#x26;" horiz-adv-x="1347" d="M153 341q18 86 58 152.5t89.5 105t94.5 59.5t89 29q-54 12 -89 44.5t-47 74.5t-14.5 90.5t9.5 92.5q71 333 426 333q89 0 201 -41q17 -5 19 -15.5t-4 -31.5l-50 -242q-4 -16 -8 -19t-17 -3h-35q-8 0 -10 3.5t-1 15.5l28 219q-18 10 -59.5 18t-76.5 8q-65 0 -112.5 -10.5 t-89 -37.5t-69.5 -77.5t-44 -125.5q-29 -133 35.5 -193t197.5 -60h285l76 212q9 28 30 28h17q24 0 18 -28l-44 -212h216q21 0 16 -24l-9 -43q-3 -15 -7.5 -19t-18.5 -4h-216l-74 -346q-26 -136 -10 -183.5t78 -47.5q85 0 105 90q3 13 9 18.5t20 5.5h27q15 0 17.5 -8 t-3.5 -26q-15 -73 -71 -117.5t-137 -44.5q-111 0 -142 86q-164 -86 -383 -86q-53 0 -95.5 4.5t-81.5 15.5t-67.5 29t-49.5 46t-30.5 65t-9 87.5t13.5 112.5zM259 348q-32 -151 26 -214t218 -63q164 0 342 78q0 62 19 141l74 350h-283q-152 0 -258.5 -73t-137.5 -219z" />
<glyph unicode="'" horiz-adv-x="411" d="M274 875l89 417q3 11 11 11h80q10 0 8 -13l-90 -415q0 -11 -15 -11h-72q-8 0 -10.5 2t-0.5 9z" />
<glyph unicode="(" horiz-adv-x="562" d="M160 557q44 209 172 421.5t310 369.5q3 1 9 6.5t8.5 7t7.5 -0.5l31 -32q9 -7 -18 -28q-153 -135 -260.5 -346t-149.5 -408q-27 -124 -28 -258t29 -271t90 -241l3.5 -7t2.5 -7t-2 -7l-39 -32q-4 -3 -7.5 2t-5.5 11q-123 163 -162 389t9 431z" />
<glyph unicode=")" horiz-adv-x="562" d="M-39 -244q-2 2 -2 4t1.5 4l3 4t4.5 5l4 4q153 155 263.5 366t151.5 404q27 125 31.5 256t-24.5 268.5t-94 229.5q-18 21 -8 28l47 32q5 2 6.5 0.5t4 -7t4.5 -6.5q118 -157 156.5 -373.5t-7.5 -417.5q-46 -215 -177.5 -436t-319.5 -384q-2 -1 -7 -5.5t-8.5 -7t-5.5 -0.5z " />
<glyph unicode="*" horiz-adv-x="778" d="M289 1076l35 80q5 8 17 6l188 -56l5 184q0 13 8 13h108q5 0 7 -2t1.5 -4t-1 -5t-0.5 -4l-74 -182l210 54q11 3 11 -6l10 -76q2 -11 -15 -11l-203 -19l102 -138q9 -15 7 -18q-1 -2 -5 -4l-86 -50q-8 -7 -13 5l-63 175l-138 -171q-9 -11 -15 -5l-59 44q-7 2 4 13l156 149 l-186 19q-6 1 -8 2t-3.5 2.5t0.5 4.5z" />
<glyph unicode="+" horiz-adv-x="1133" d="M141 434l19 91h410l85 397h90l-86 -397h402l-18 -91h-403l-83 -397h-90l84 397h-410z" />
<glyph unicode="," horiz-adv-x="390" d="M-43 -197l160 324q14 23 21 26t20 3h47q20 0 21 -11t-12 -30l-175 -314q-10 -19 -32 -19h-37q-23 0 -13 21z" />
<glyph unicode="-" horiz-adv-x="930" d="M192 519l9 49q6 17 21 17h603q14 0 11 -19l-9 -41q-3 -20 -23 -20h-599q-10 0 -12.5 3t-0.5 11z" />
<glyph unicode="." horiz-adv-x="437" d="M91 63q5 30 30.5 51.5t57.5 21.5q29 0 45.5 -21.5t11.5 -51.5q-8 -35 -33 -54.5t-56 -19.5q-33 0 -48.5 19.5t-7.5 54.5z" />
<glyph unicode="/" horiz-adv-x="832" d="M-28 -106l914 1473q9 16 23 16h76q19 0 5 -20l-910 -1469q-7 -13 -28 -13h-74q-13 0 -6 13z" />
<glyph unicode="0" horiz-adv-x="1213" d="M203 652q43 197 122.5 345t202 236.5t271.5 88.5q124 0 209.5 -50.5t125 -140t46 -212.5t-27.5 -267q-42 -197 -122 -346t-203 -237t-272 -88q-124 0 -209.5 50.5t-125 140t-45.5 212.5t28 268zM313 655q-57 -274 5.5 -432t234.5 -158t302.5 158t187.5 432 q59 272 -4.5 427.5t-236.5 155.5q-172 0 -301 -155t-188 -428z" />
<glyph unicode="1" horiz-adv-x="780" d="M56 22l5 25q2 11 4 15t7 7.5t14 3.5q162 2 197 11.5t48 60.5l213 1002q6 19 -7 18q-9 -1 -25 -11l-212 -123q-13 -9 -21 -6.5t-5 16.5l11 46q3 13 8.5 20t23.5 18l273 163q27 15 54 15h17q17 0 11 -18l-240 -1132q-13 -57 14.5 -68t190.5 -12q10 0 16 -2t7 -7.5t0.5 -9.5 t-3.5 -14t-4 -14q-3 -16 -8 -21t-21 -5h-550q-16 0 -19 4t1 18z" />
<glyph unicode="2" horiz-adv-x="1102" d="M50 17l10 41q8 26 16 31q777 417 874 875q8 42 9.5 77.5t-3 61t-16 46.5t-24.5 34.5t-33 23t-37 15t-41.5 8.5t-42 3.5t-41.5 0.5q-157 0 -285 -46l-69 -238q-4 -13 -8.5 -16t-15.5 -3h-40q-13 0 -15 4t1 18l55 263q5 23 11 30.5t23 12.5q155 63 341 63q50 0 91 -4.5 t82 -15t70.5 -28.5t54.5 -45t35.5 -64t13.5 -86t-12 -111q-28 -131 -102.5 -257t-186.5 -235.5t-247 -205t-295 -179.5h576q21 0 30 30l48 184q5 17 11 23.5t21 6.5h35q12 0 15 -6.5t-2 -23.5l-60 -285q-3 -14 -7 -17t-15 -3h-808q-20 0 -17 17z" />
<glyph unicode="3" horiz-adv-x="1046" d="M60 54l5 30q4 17 10.5 22.5t15.5 3.5q1 0 51 -11t125.5 -20.5t153.5 -9.5q173 0 273.5 78.5t134.5 236.5q10 54 10.5 95t-13.5 71t-35 50.5t-54 32.5t-69.5 17t-82.5 5h-120q-11 0 -14 5.5t0 20.5l9 40q3 16 9 22l488 467h-490q-16 0 -23 -10t-14 -38l-39 -155 q-2 -13 -7 -17.5t-19 -4.5h-35q-10 0 -13.5 1t-6 5.5t0.5 13.5l60 276q3 16 6.5 19t15.5 3h691q13 0 15 -6.5t-2 -21.5l-8 -33q-2 -9 -3.5 -14t-4.5 -10t-5.5 -7.5t-11 -10.5t-14.5 -14l-464 -447h23q201 0 281 -89t37 -285q-82 -384 -506 -384q-228 0 -345 41 q-13 5 -16.5 11t0.5 21z" />
<glyph unicode="4" horiz-adv-x="1156" d="M84 350l411 935q5 13 9 15.5t17 2.5h64q12 0 15 -4t-2 -14l-380 -866h478l183 858q5 15 18 15h69q16 0 11 -17l-182 -856h253q12 0 17 -4.5t2 -17.5l-11 -54q-3 -11 -7 -13t-18 -2h-255l-37 -179q-11 -52 12 -63t156 -12q20 0 23 -5t-1 -19l-6 -30q-3 -13 -7 -16.5 t-20 -3.5h-518q-15 0 -18.5 4t-0.5 15l6 33q5 17 13 20q4 1 11 1q96 2 135.5 3.5t69 10.5t34.5 20.5t11 39.5l39 181h-579q-13 0 -15.5 4.5t0.5 17.5z" />
<glyph unicode="5" horiz-adv-x="1044" d="M56 67l7 34q8 33 30 26q10 -5 52.5 -18t122.5 -27.5t153 -14.5q54 0 100 7.5t96 28.5t88.5 55.5t70.5 92.5t49 136q11 55 12.5 99t-8 78t-26 60t-45 44t-60.5 29.5t-76 18.5t-89 9.5t-103 2.5h-140q-24 0 -14 26l178 521q7 19 11.5 23.5t16.5 4.5h576q15 0 18 -3t0 -19 l-56 -263q-5 -21 -11 -26t-20 -5h-34q-14 0 -17.5 7.5t0.5 22.5l25 147q6 26 3 36t-20 10h-415l-142 -395h71q78 0 139 -5t117.5 -18.5t96.5 -35.5t71 -56.5t45 -81.5t14.5 -110.5t-16.5 -142.5q-81 -384 -506 -384q-111 0 -204.5 18t-140.5 38q-15 7 -19 13t-1 17z" />
<glyph unicode="6" horiz-adv-x="1105" d="M169 514q28 133 82 252t136 221.5t185.5 176.5t236.5 116t282 42h21q13 0 17 -4t1 -15l-9 -44q-3 -15 -9 -20t-19 -5h-21q-146 0 -272 -46t-220 -128.5t-162.5 -190t-110.5 -238.5q158 173 358 173q92 0 161.5 -22.5t110.5 -62.5t64 -95.5t22.5 -121t-14.5 -139.5 q-39 -180 -170.5 -281t-324.5 -101q-228 0 -314 136.5t-31 396.5zM270 486q-84 -419 244 -419q149 0 252.5 81.5t138.5 235.5q36 155 -24.5 246t-227.5 91q-230 0 -383 -235z" />
<glyph unicode="7" horiz-adv-x="943" d="M134 19l834 1189h-579l-56 -197q-3 -17 -9 -23.5t-21 -6.5h-29q-14 0 -17.5 5.5t0.5 24.5l58 272q3 14 7 17t17 3h741q14 0 16.5 -6.5t-1.5 -21.5l-10 -41q-5 -22 -22 -46l-814 -1168q-8 -13 -14.5 -16.5t-20.5 -3.5h-69q-27 0 -11 19z" />
<glyph unicode="8" horiz-adv-x="1117" d="M140 415q30 122 117.5 212t234.5 120q-50 25 -82 65.5t-42.5 86t-9 88.5t12.5 82q31 121 134.5 186t241.5 65q67 0 121 -16.5t88 -44.5t57.5 -64t32.5 -77t8.5 -81t-10.5 -78q-23 -80 -82.5 -138t-147.5 -84q56 -18 96.5 -50t63.5 -70t33 -84.5t8 -93t-13 -95.5 q-13 -56 -37 -106t-65 -98t-95 -82.5t-131 -55.5t-168 -21q-83 0 -149 17t-110 48t-73 71.5t-40 90t-9.5 101t15.5 106.5zM240 395q-10 -50 -10.5 -97.5t18 -89.5t50 -74t86.5 -50.5t126 -18.5q85 0 154.5 25t115.5 68t75.5 93.5t43.5 107.5q10 50 10.5 98t-18 90.5t-50 75 t-86.5 51.5t-126 19q-158 0 -258 -84t-131 -214zM464 1041q-29 -111 23.5 -184t184.5 -73q113 0 183 53t91 135q10 35 10.5 71t-11.5 71.5t-36.5 63.5t-69.5 45t-105 17q-112 0 -179.5 -56t-90.5 -143z" />
<glyph unicode="9" horiz-adv-x="1085" d="M143 2l8 41q7 26 26 26h18q262 0 445 157t272 433q-158 -160 -376 -160q-86 0 -149.5 24t-98.5 64.5t-54.5 95t-16.5 115t14 124.5q38 181 169.5 290.5t316.5 109.5q96 0 166.5 -25.5t113 -71.5t62.5 -113t19 -147t-22 -176q-38 -174 -112.5 -319t-182.5 -255.5 t-258 -172t-326 -61.5h-19q-21 0 -15 21zM333 899q-31 -142 27.5 -229t205.5 -87q126 0 219.5 54t167.5 169v2q43 205 -14.5 317.5t-223.5 112.5q-141 0 -244 -87.5t-138 -251.5z" />
<glyph unicode=":" horiz-adv-x="441" d="M91 56q5 30 30.5 51t57.5 21q29 0 45.5 -21.5t11.5 -50.5q-8 -35 -33 -55t-56 -20q-33 0 -48.5 20t-7.5 55zM235 730q5 30 30 51t57 21q29 0 46 -21.5t12 -50.5q-8 -35 -33.5 -55t-56.5 -20q-33 0 -48 20t-7 55z" />
<glyph unicode=";" horiz-adv-x="545" d="M17 -197l160 324q14 23 21 26t20 3h46q14 0 18.5 -5t2 -13.5t-10.5 -22.5l-175 -314q-10 -19 -32 -19h-37q-23 0 -13 21zM313 812q7 30 31.5 51t55.5 21q29 0 47 -21.5t11 -50.5q-6 -35 -31 -55t-56 -20q-33 0 -49 20t-9 55z" />
<glyph unicode="&#x3c;" horiz-adv-x="1007" d="M123 428l20 97l859 397l-21 -97l-720 -348l571 -347l-20 -100z" />
<glyph unicode="=" horiz-adv-x="1098" d="M149 270l20 91h779l-21 -91h-778zM205 518l18 89h777l-19 -89h-776z" />
<glyph unicode="&#x3e;" horiz-adv-x="1007" d="M73 30l20 100l721 347l-572 350l21 95l687 -397l-21 -97z" />
<glyph unicode="?" horiz-adv-x="847" d="M242 972l56 261q4 21 10 28t23 14q44 19 131.5 33t177.5 14q45 0 82 -5.5t74 -19t61 -36t42 -57.5t17.5 -83.5t-11.5 -113.5q-19 -90 -51 -152.5t-68.5 -94.5t-77.5 -54.5t-81.5 -44.5t-77 -53t-68 -91t-49.5 -148l-34 -155q-3 -19 -18 -19h-69q-12 0 -8 15l32 151 q22 103 56 175t71.5 108.5t79 61.5t82 45t76 47.5t65.5 81t47 133.5q8 47 7.5 82t-15.5 59.5t-32.5 40.5t-44.5 25t-52 12.5t-53 3.5q-74 0 -117.5 -6.5t-120.5 -26.5l-64 -235q-5 -13 -8 -15.5t-16 -2.5h-39q-14 0 -15.5 5t0.5 17zM246 63q5 30 29.5 51.5t54.5 21.5 q28 0 44 -22t11 -51q-8 -34 -33 -54t-54 -20q-31 0 -45.5 19.5t-6.5 54.5z" />
<glyph unicode="@" horiz-adv-x="1515" d="M182 596q28 133 90.5 247.5t145 194.5t180 137.5t197.5 85t197 27.5q185 0 312.5 -73t177.5 -202t15 -292q-44 -200 -157 -327.5t-271 -127.5q-62 0 -98.5 27t-41.5 72q-40 -39 -111.5 -70t-139.5 -31q-114 0 -172.5 78.5t-30.5 216.5q17 78 58 152t102.5 137t149.5 101 t187 38q69 0 117 -21.5t68 -56.5t26.5 -80.5t-6.5 -94.5q-13 -59 -62.5 -155t-83.5 -145q-24 -38 -5.5 -63t65.5 -25q105 0 190 112t119 270q24 108 3.5 196.5t-74.5 151.5t-143 97.5t-201 34.5q-78 0 -162.5 -24t-170.5 -75.5t-160 -123.5t-131.5 -177t-83.5 -227 q-30 -139 -9.5 -247.5t83 -182.5t160.5 -112.5t224 -38.5q117 0 217.5 25t207.5 79q18 8 20 -2l15 -48q2 -14 -20 -24q-202 -110 -458 -110q-144 0 -257.5 43.5t-188 129t-99.5 212t10 291.5zM570 557q-21 -100 12 -156.5t118 -56.5q61 0 121 33.5t103.5 82t79.5 104.5 t55.5 99.5t24.5 68.5q37 177 -146 177q-87 0 -166.5 -52.5t-131 -132t-70.5 -167.5z" />
<glyph unicode="A" horiz-adv-x="1340" d="M-13 22l6 25q4 18 8.5 22t13.5 4q104 2 132 10.5t39 46.5l24 108q51 243 118.5 438.5t151 341.5t186 225t215.5 79q110 0 179 -78t94 -221t11.5 -342t-65.5 -443l-22 -104q-8 -42 14 -50.5t122 -10.5q10 0 15.5 -2t6.5 -8t0.5 -9.5t-3.5 -13.5t-4 -14q-3 -16 -7.5 -21 t-18.5 -5h-412q-15 0 -18 3t0 19l5 25q3 16 7 21t17 5q49 1 75.5 3t47 5.5t29.5 13.5t14.5 21.5t10.5 34.5l19 87q19 88 28 155h-689q-31 -143 -34 -155l-16 -74l-7.5 -37.5t1.5 -24.5t9 -16t26 -8t39.5 -4t61.5 -1q11 0 16.5 -2t7 -7.5t1 -9t-3.5 -14t-4 -14.5 q-3 -17 -7 -21.5t-21 -4.5h-402q-15 0 -17.5 3t0.5 19zM361 480h680q53 346 6.5 550t-185.5 204q-142 0 -272.5 -200.5t-228.5 -553.5z" />
<glyph unicode="B" horiz-adv-x="1204" d="M50 22l6 25q3 16 6.5 21t15.5 5q81 1 111 6.5t42 19t20 52.5l216 1016q10 44 -12 53t-129 11q-14 0 -17 3.5t0 16.5l8 32q3 14 7 17t17 3h452q180 0 259.5 -84t44.5 -255q-22 -102 -79 -166.5t-130 -93.5q143 -21 193.5 -109.5t16.5 -251.5q-15 -66 -41 -117.5 t-71.5 -94.5t-108.5 -71.5t-152.5 -44t-203.5 -15.5h-454q-14 0 -17 4t0 18zM337 84h216q115 0 195.5 19t129.5 57t75 85.5t41 115.5q16 59 11 110t-28.5 89t-82 60t-149.5 22h-289zM475 728h268q91 0 160 75t91 178q21 105 -25 171.5t-174 66.5h-216z" />
<glyph unicode="C" horiz-adv-x="1226" d="M195 642q73 339 256 509.5t458 170.5q228 0 366 -37q19 -7 22.5 -14t-1.5 -33l-62 -287q-2 -11 -5 -15.5t-7 -5.5t-14 -1h-43q-15 0 -18 3.5t0 15.5l35 260q-110 28 -268 28q-233 0 -391 -150t-223 -451q-63 -295 32.5 -427t347.5 -132q151 0 379 45q16 3 21.5 -1 t1.5 -18l-6 -31q-5 -22 -12.5 -29t-30.5 -12q-211 -43 -359 -43q-152 0 -257 36.5t-169.5 115t-76 203t23.5 300.5z" />
<glyph unicode="D" horiz-adv-x="1366" d="M50 22l6 25q3 16 6.5 21t15.5 5q46 1 69 2t44.5 4t30 9.5t14.5 15.5t10 26l221 1037q10 44 -12 53t-129 11q-14 0 -17 3.5t0 16.5l8 32q3 14 7 17t17 3h406q182 0 307.5 -46.5t189.5 -133.5t80 -212t-21 -282q-133 -629 -811 -629h-425q-14 0 -17 4t0 18zM339 86h162 q296 0 467 137.5t231 422.5q31 129 20 235t-60 181.5t-154.5 117t-263.5 41.5h-160z" />
<glyph unicode="E" horiz-adv-x="1066" d="M132 371q16 68 45.5 121t64 85t80.5 55.5t84.5 35t86.5 19.5q-26 5 -51.5 18t-53.5 38t-44 62t-23 90.5t9 122.5q61 304 431 304q210 0 332 -43q23 -7 25 -15t-6 -30l-51 -242q-4 -16 -7.5 -19t-18.5 -3h-35q-11 0 -13.5 3t-1.5 16l26 217q-84 28 -250 28 q-67 0 -118.5 -10t-97 -33.5t-76 -67.5t-43.5 -108q-60 -285 274 -285h134q11 0 14.5 -5.5t0.5 -20.5l-7 -34q-4 -16 -10 -22t-17 -6h-134q-383 0 -443 -283q-33 -151 45.5 -219.5t273.5 -68.5q40 0 85 3t81 8t72.5 11t60 10.5t44 9t22.5 4.5q11 3 13.5 -1t-0.5 -17l-12 -52 q-3 -11 -10 -15.5t-23 -9.5q-51 -16 -146 -28.5t-195 -12.5q-56 0 -103.5 4t-93 12.5t-81 23.5t-65.5 36t-49 51t-29.5 68t-9.5 87t14 108z" />
<glyph unicode="F" horiz-adv-x="1042" d="M47 22l5 25q3 11 4 15t5.5 7.5t12.5 3.5q46 1 67.5 1t45 4.5t30.5 8t16.5 17t12.5 25.5t9 39l212 1003q7 38 -17.5 48.5t-127.5 11.5q-12 0 -14.5 6.5t1.5 19.5l6 24q3 14 7.5 18t18.5 4h802q11 0 14.5 -0.5t6 -5t-1.5 -14.5l-64 -296q-3 -21 -26 -21h-31q-24 0 -21 21 l32 210q1 18 -3.5 23t-17.5 5l-454 -2l-108 -512h352q15 0 20 -4t2 -18l-7 -37q-5 -19 -11.5 -25.5t-23.5 -6.5h-352l-101 -477q-9 -49 20 -58.5t170 -11.5q11 0 16.5 -2t7 -7.5t1 -9t-3.5 -14t-4 -14.5q-3 -17 -7 -21.5t-21 -4.5h-462q-16 0 -19 4t1 18z" />
<glyph unicode="G" horiz-adv-x="1338" d="M197 657q68 323 262.5 494t486.5 171q122 0 229 -21t169 -50q21 -10 23.5 -23.5t-4.5 -41.5l-54 -255q-5 -21 -28 -21h-37q-11 0 -13.5 2.5t-1.5 14.5l35 252q-122 57 -314 57q-256 0 -420 -153t-227 -450q-61 -284 39.5 -424t378.5 -140q188 0 316 43l84 394h-274 q-27 0 -18 28l5 32q6 28 32 28h344q27 0 21 -28l-101 -478q-2 -13 -5.5 -21t-13 -17t-26.5 -16q-54 -21 -159 -37t-215 -16q-323 0 -456 166.5t-58 509.5z" />
<glyph unicode="H" horiz-adv-x="1362" d="M43 22l5 25q2 7 2.5 9.5t2.5 6.5t4.5 5.5t6 3t9.5 1.5q35 0 52 0.5t38.5 2.5t30 3.5t20 7.5t15 11t9.5 17t8.5 22.5t6.5 30.5l205 966q4 18 5.5 25.5t3 20t1.5 16.5t-3.5 11.5t-6.5 9t-13 6t-17.5 4.5t-25 1.5t-32 2t-40.5 0.5q-20 0 -23.5 5.5t0.5 23.5q1 2 2.5 10t2 10 t2.5 7t4 7t5 4.5t7.5 3.5t10.5 1h407q8 0 12 -1t6.5 -3t2 -6.5t-1.5 -11.5l-6 -24q-2 -9 -3 -11.5t-3.5 -7.5t-6.5 -6t-11 -1q-33 0 -50.5 -0.5t-38 -2.5t-29.5 -3.5t-20.5 -6.5t-15 -10t-9.5 -15.5t-8.5 -20.5t-6.5 -27l-114 -540h588l112 529q5 22 7 31t2 22.5t-1 17.5 t-9 11t-15.5 8t-26.5 3.5t-35.5 3t-49.5 0.5q-20 0 -23.5 5.5t0.5 23.5q1 2 2.5 10t2 10t2.5 7t4 7t5 4.5t7.5 3.5t10.5 1h406q16 0 19.5 -4t0.5 -18l-6 -24q-3 -11 -4 -15t-6 -7.5t-14 -3.5q-35 0 -52 -0.5t-38.5 -2.5t-30 -3.5t-20 -7.5t-15 -11t-9.5 -17t-8.5 -22.5 t-6.5 -30.5l-203 -959q-24 -103 50 -103q30 0 56 17.5t35 57.5q3 13 15 13h50q15 0 10 -21q-31 -148 -181 -148q-80 0 -117.5 45t-14.5 146l71 337h-589l-74 -352q-5 -22 -7 -31t-2 -22.5t1 -17.5t9.5 -11t15 -7.5t26.5 -3t35.5 -3t49.5 -0.5q11 0 16.5 -2t7 -7.5t1 -9 t-3.5 -14t-4 -14.5q-3 -16 -7.5 -21t-20.5 -5h-408q-16 0 -19 4t1 18z" />
<glyph unicode="I" horiz-adv-x="673" d="M45 22l5 25q3 11 4 15t6 7.5t14 3.5q28 0 43 0.5t34 1.5t27.5 2t20.5 4.5t16.5 5.5t12 8.5t9.5 12t6 16t6.5 19.5t5.5 25l207 977q5 23 6.5 34.5t-2 22.5t-10 15.5t-25.5 8t-39.5 4t-60.5 1.5q-20 0 -23 5.5t1 23.5q1 2 2.5 10t2 10t2.5 7t4 7t5 4.5t7.5 3.5t10.5 1h407 q15 0 18.5 -4t0.5 -18l-6 -24q-3 -11 -4 -15t-6 -7.5t-14 -3.5q-35 0 -52 -0.5t-38.5 -2.5t-30 -3.5t-20 -7.5t-15 -11t-9.5 -17t-8.5 -22.5t-6.5 -30.5l-211 -991q-11 -50 9.5 -60t124.5 -12q11 0 16.5 -2t7 -7.5t1 -9t-3.5 -14t-4 -14.5q-3 -16 -7.5 -21t-20.5 -5h-408 q-15 0 -18 4t0 18z" />
<glyph unicode="J" horiz-adv-x="653" d="M-67 -264q-2 16 3.5 24.5t24.5 16.5l67 26q51 20 78.5 35t52 41t38 62t26.5 96l233 1097q5 22 7 31t2 22.5t-1 17.5t-9 11t-15.5 8t-26.5 3.5t-35.5 3t-49.5 0.5q-20 0 -23.5 5.5t0.5 23.5q1 2 2.5 10t2 10t2.5 7t4 7t5 4.5t7.5 3.5t10.5 1h408q15 0 17 -4t-1 -18l-5 -24 q-2 -11 -4 -15t-6.5 -7.5t-12.5 -3.5q-46 -1 -67 -1t-44.5 -4.5t-30.5 -8t-17 -17t-12.5 -25.5t-8.5 -39l-242 -1138q-12 -56 -27.5 -93t-45 -70t-75 -58.5t-117.5 -50.5l-82 -29q-15 -6 -22 -3t-7 17z" />
<glyph unicode="K" horiz-adv-x="1293" d="M43 22l5 25q2 11 4 15t7 7.5t14 3.5q43 1 61.5 1.5t42 3t31.5 6t18 12.5t13.5 20t8.5 29l210 989q5 22 7 31t2 22.5t-1 17.5t-9 11t-15.5 8t-26.5 3.5t-35.5 3t-49.5 0.5q-20 0 -23.5 5.5t0.5 23.5q1 2 2.5 10t2 10t2.5 7t4 7t5 4.5t7.5 3.5t10.5 1h407q15 0 18.5 -4 t0.5 -18l-6 -24q-3 -11 -4 -15t-6 -7.5t-14 -3.5q-44 -1 -64.5 -1.5t-43.5 -4t-31 -7.5t-17.5 -15t-13 -23t-8.5 -35l-101 -477l562 479l23 18q45 39 48 51q2 8 -10 10q-10 3 -100 5q-25 0 -29 4.5t1 24.5q1 4 2.5 12.5t2.5 11.5t3.5 8t6 6.5t9.5 3t15 1.5h382 q20 0 23.5 -3.5t0.5 -18.5l-5 -24q-3 -16 -7.5 -21t-20.5 -5q-27 0 -46.5 -1t-34 -1.5t-26.5 -4t-18 -4t-15.5 -7t-12 -8t-14.5 -12.5t-16 -14l-65 -56h-4l-547 -460h4l340 -490q42 -61 79 -85.5t82 -24.5q40 0 93 17q17 5 23 2t3 -17l-8 -31q-3 -16 -9.5 -22.5t-25.5 -13.5 q-49 -17 -95 -17q-80 0 -123.5 26t-103.5 116l-371 530l-102 -484q-5 -22 -7 -31t-2 -22.5t1 -17.5t9.5 -11t15 -7.5t26.5 -3t35.5 -2.5t49.5 -1q11 0 16.5 -2t7 -7.5t1 -9t-3.5 -14t-4 -14.5q-3 -16 -7.5 -21t-20.5 -5h-408q-16 0 -19 4t1 18z" />
<glyph unicode="L" horiz-adv-x="1083" d="M48 22l6 25q2 9 3 12.5t3.5 7.5t6.5 5t11 1q104 2 130.5 9.5t37.5 45.5q19 92 95 451.5t117 554.5q5 22 7 31t2 22.5t-1 17.5t-9 11t-15.5 8t-26.5 3.5t-35.5 3t-49.5 0.5q-20 0 -23.5 5.5t0.5 23.5q1 2 2.5 10t2 10t2.5 7t4 7t5 4.5t7.5 3.5t10.5 1h407q16 0 19 -4 t0 -18l-6 -24q-3 -11 -4 -15t-6 -7.5t-14 -3.5q-35 0 -52 -0.5t-38.5 -2.5t-30 -3.5t-20 -7.5t-15 -11t-9.5 -17t-8.5 -22.5t-6.5 -30.5l-170 -799l2 2l-52 -248l508 -2q17 0 22 5.5t10 22.5l52 188q4 19 11 24.5t24 5.5h21q17 0 20 -5.5t-3 -29.5l-60 -280q-3 -14 -8.5 -17 t-19.5 -3h-847q-15 0 -18.5 4t-0.5 18z" />
<glyph unicode="M" horiz-adv-x="1712" d="M60 22l5 25q3 16 9.5 21t24.5 5q30 0 46 0.5t34 3t25.5 3t17 7.5t12.5 10t8 16t6.5 20.5t6.5 28.5l209 990q4 21 6 31t-1.5 21t-10 14.5t-25 7t-38.5 4l-60 1.5q-13 0 -15 6.5t2 19.5l6 24q3 14 7.5 18t18.5 4h201q41 0 50 -12t11 -48v-3.5v-3v-3.5q4 -139 82 -551.5 t127 -577.5h4q135 204 326 545.5t305 583.5q4 8 10 21.5t8.5 18.5t9 12.5t13.5 10t19 5t29 2.5h225q20 0 24 -3.5t1 -18.5l-6 -24q-3 -16 -8.5 -21t-21.5 -5q-39 -1 -59.5 -1.5t-41 -4t-28 -7t-15.5 -14t-11 -21t-7 -31.5l-206 -975q-24 -103 50 -103q30 0 56 17.5t35 57.5 q2 7 4.5 10t10.5 3h50q14 0 9 -21q-34 -148 -180 -148q-80 0 -117.5 45t-14.5 146l195 926q-67 -151 -198 -388.5t-251 -434t-176 -267.5q-10 -13 -20.5 -16.5t-28.5 -3.5h-33q-17 0 -25 3.5t-13 16.5q-49 145 -117.5 471.5t-94.5 571.5l-192 -905q-4 -17 -6 -27.5t-1 -20 t2 -15t9 -10t14 -6.5t23 -3.5t30 -2t41 -0.5q13 0 20.5 -1.5t9 -7.5t2 -8.5t-3 -14t-4.5 -15.5q-3 -17 -8 -21.5t-25 -4.5h-365q-19 0 -22.5 4t0.5 18z" />
<glyph unicode="N" d="M47 22l5 25q3 15 9 20.5t21 5.5q43 1 63.5 1.5t42 4.5t29 7.5t16.5 16t11.5 23.5t8.5 36l214 1003q2 12 3 20t-1.5 15.5t-5.5 11.5t-12 7.5t-18.5 5.5t-28 3.5t-36.5 2t-48 0.5q-13 0 -15 6.5t2 19.5l6 24q3 14 7.5 18t18.5 4h208q39 0 51 -33l426 -1147l218 1029 q5 23 5 34t-5 21.5t-23 14.5t-44.5 6t-74.5 3q-13 0 -15 6.5t2 19.5l6 24q3 14 7.5 18t18.5 4h402q19 0 19.5 -13.5t-6.5 -29.5q-3 -19 -8 -24t-25 -5q-75 -1 -103 -6t-40.5 -19.5t-20.5 -54.5l-237 -1108q-9 -43 -37 -43h-46q-43 0 -53 24l-413 1102l-205 -962 q-5 -24 -7 -35.5t1 -24t9.5 -16.5t25 -8.5t40.5 -5t62 -1.5q10 0 15 -2t6 -7.5t0.5 -9.5t-3 -13.5t-3.5 -14.5q-3 -17 -7.5 -21.5t-19.5 -4.5h-402q-15 0 -17 4t1 18z" />
<glyph unicode="O" d="M195 672q30 142 91.5 259.5t150 205.5t209 136.5t261.5 48.5q122 0 216.5 -34t153.5 -95t92 -147t33 -190.5t-24 -224.5q-65 -299 -248.5 -474.5t-466.5 -175.5q-122 0 -215.5 33.5t-152 95t-91 147.5t-32.5 190.5t23 224.5zM302 655q-57 -273 39.5 -428.5t323.5 -155.5 t388.5 155.5t218.5 428.5q58 271 -39 424.5t-326 153.5q-226 0 -386 -153.5t-219 -424.5z" />
<glyph unicode="P" horiz-adv-x="1063" d="M47 22l5 25q3 11 4 15t5.5 7.5t12.5 3.5q46 1 67.5 1t45 4.5t30.5 8t16.5 17t12.5 25.5t9 39l209 984q5 23 5.5 34t-4.5 21.5t-23 14.5t-44.5 6t-75.5 3q-12 0 -13.5 6.5t2.5 19.5l6 24q3 15 6.5 18.5t17.5 3.5h366q112 0 191.5 -24t123 -64t63.5 -98.5t19.5 -119.5 t-15.5 -135q-36 -174 -175.5 -272t-354.5 -98q-78 0 -135 11l-70 -334q-5 -22 -7 -31t-2 -22.5t1 -17.5t9.5 -11t15 -7.5t26.5 -3t35.5 -2.5t49.5 -1q11 0 16.5 -2t7 -7.5t1 -9t-3.5 -14t-4 -14.5q-3 -16 -7.5 -21t-20.5 -5h-406q-16 0 -19 4t1 18zM443 588q25 -13 130 -13 q166 0 272 79.5t136 218.5q74 350 -255 350h-149z" />
<glyph unicode="Q" horiz-adv-x="1433" d="M195 672q30 142 91.5 259.5t150 205.5t209 136.5t261.5 48.5q122 0 216.5 -34t153.5 -95t92 -147t33 -190.5t-24 -224.5q-53 -236 -178.5 -397t-315.5 -221l10 -54q11 -84 50.5 -119t118.5 -35q45 0 75 7q9 3 13.5 0.5t0.5 -15.5l-7 -41q-3 -7 -4.5 -10t-7 -6.5 t-14.5 -5.5q-35 -6 -102 -6q-196 0 -228 225l-5 38q-62 -10 -121 -10q-122 0 -215.5 33.5t-152 95t-91 147.5t-32.5 190.5t23 224.5zM302 655q-45 -210 2.5 -352.5t177.5 -198.5q-6 27 2 58q12 57 56 94.5t117 37.5q91 0 141.5 -40.5t69.5 -145.5q151 57 256 198.5 t148 348.5q58 271 -39 424.5t-326 153.5q-226 0 -386 -153.5t-219 -424.5zM560 149q-13 -55 41 -75q30 -3 64 -3q55 0 110 9l-2 13q-5 43 -16.5 70.5t-30.5 39t-34.5 14.5t-41.5 3q-34 0 -59.5 -20t-30.5 -51z" />
<glyph unicode="R" horiz-adv-x="1165" d="M43 22l5 25q2 11 4 15t7 7.5t14 3.5q106 2 133.5 11.5t39.5 53.5l219 1033q5 38 -19.5 48.5t-125.5 11.5q-13 0 -15 6.5t2 19.5l6 24q3 14 7.5 18t18.5 4h409q220 0 306.5 -118.5t42.5 -320.5q-30 -141 -122 -239t-238 -132l82 -309q17 -69 38 -94t66 -25q16 0 29.5 3 t32.5 9.5t20 6.5q15 5 20.5 3t9.5 -16v-24q4 -20 -4 -28t-35 -17q-66 -21 -119 -21q-23 0 -42.5 4.5t-33 9.5t-25.5 18.5t-18 21t-13.5 28t-10 28t-9 33t-8.5 32.5l-84 322q-8 -1 -50 -1q-103 0 -164 13l-75 -352q-8 -44 13.5 -53.5t122.5 -11.5q11 0 16.5 -2t7 -7.5t1 -9 t-3.5 -14t-4 -14.5q-3 -16 -7.5 -21t-20.5 -5h-408q-16 0 -19 4t1 18zM439 583q97 -19 164 -19q164 0 263 82.5t132 236.5q35 165 -33 250t-215 85h-175z" />
<glyph unicode="S" horiz-adv-x="1072" d="M76 78l54 253q3 13 9.5 18t22.5 5h32q13 0 15.5 -5t0.5 -18l-35 -227q120 -35 287 -35q44 0 84.5 5t93.5 22t94.5 45.5t77 80.5t50.5 122q16 77 3.5 131t-63.5 90.5t-86 52.5t-117 43q-42 14 -63.5 22t-59 23.5t-57 30t-46.5 36t-39 47t-23 58.5t-9.5 75t11.5 91 q57 278 411 278q101 0 197 -14t140 -33q16 -7 19.5 -14t-0.5 -28l-56 -261q-3 -17 -7 -19.5t-19 -2.5h-39q-15 0 -17.5 2.5t0.5 15.5l35 237q-124 31 -251 31q-276 0 -320 -206q-14 -65 0 -113.5t48 -75.5t82 -49.5t102.5 -36.5t108 -36t99.5 -47.5t78 -71.5t42 -109 t-9 -158q-18 -87 -59.5 -153t-91.5 -103t-114 -59.5t-117.5 -29.5t-112.5 -7q-99 0 -218.5 16t-152.5 33q-24 11 -15 48z" />
<glyph unicode="T" horiz-adv-x="1109" d="M229 972l67 311q3 14 7.5 17t20.5 3h877q11 0 14.5 -0.5t6.5 -5t-1 -14.5l-67 -311q-3 -19 -26 -19h-30q-11 0 -16 2.5t-5 6.5t1 10l34 221q2 15 -1.5 20t-17.5 5h-296l-224 -1049q-6 -28 -8.5 -39.5t1 -25.5t8 -17.5t25 -8t39.5 -4.5t64 -1q10 0 15.5 -2t6.5 -8 t0.5 -9.5t-3.5 -13.5t-4 -14q-3 -16 -7.5 -21t-18.5 -5h-408q-16 0 -19 4t0 18l6 25q3 11 4 15t6 7.5t14 3.5q106 2 133.5 11.5t39.5 53.5l231 1080h-300q-14 0 -19.5 -5t-11.5 -20l-60 -221q-6 -15 -15 -18q-4 -1 -11 -1h-35q-13 0 -16 4.5t-1 14.5z" />
<glyph unicode="U" horiz-adv-x="1413" d="M285 1260q1 2 2.5 11t2.5 11t3.5 8t5 7.5t7.5 3.5t12 2h410q16 0 19 -4t0 -18l-6 -24q-3 -17 -7 -21.5t-17 -4.5q-112 -1 -139 -13.5t-38 -65.5l-149 -703q-39 -183 31 -280.5t239 -97.5t277 97t147 281l148 690l7.5 37.5t-2 24.5t-10 16.5t-25.5 8t-39.5 4t-61.5 1.5 q-20 0 -23 5.5t1 23.5q1 4 2.5 11.5t2.5 11t3 8.5t5 7t8 3.5t12 1.5h401q16 0 19 -4t-1 -18l-5 -24q-3 -13 -7.5 -19t-7 -6.5t-10.5 -0.5q-103 -2 -133 -12t-40 -48l-152 -722q-47 -223 -178 -345.5t-344 -122.5q-229 0 -321 123t-45 345l147 690l7.5 37.5t-1.5 25t-9 16.5 t-25.5 7.5t-39.5 4t-61 1.5q-20 0 -23 5.5t1 23.5z" />
<glyph unicode="V" horiz-adv-x="1308" d="M240 1249l8 36q3 11 7.5 14.5t14.5 3.5h383q18 0 12 -16l-8 -36q-3 -20 -22 -20q-68 -1 -96.5 -3.5t-36 -7.5t-9.5 -17q-29 -137 -36 -272t2.5 -237t38 -218t52 -186t61.5 -171q56 71 73 93t72 94t78 106.5t72 107.5t74 121.5t63.5 123.5t62 139t48 142.5t41.5 156.5 q3 16 -7 20q-16 6 -121 8q-18 0 -15 20l7 36q3 9 6.5 12.5t12.5 3.5h376q10 0 14 -3.5t1 -14.5l-7 -36q-2 -9 -3.5 -11.5t-5.5 -4.5t-14 -2q-70 -1 -100.5 -4t-37.5 -7t-9 -15q-23 -107 -58 -212t-70.5 -188t-90 -177.5t-93.5 -156t-104 -149t-99 -130t-101 -124.5 q-9 -11 -14 -17t-12 -15t-13 -16q-15 -20 -41 -20h-17q-26 0 -33 20q-5 13 -15 38q-32 81 -49 125.5t-45 131.5t-41.5 149.5t-28 157t-15 179t8.5 190.5t32 214q2 8 -0.5 12t-16.5 7.5t-41.5 4.5t-79.5 2q-14 0 -16.5 3.5t1.5 14.5z" />
<glyph unicode="W" horiz-adv-x="1863" d="M244 1247l7 36q3 13 6.5 16.5t14.5 3.5h402q11 0 6 -20l-8 -32q-2 -12 -5 -16t-14 -4q-56 -1 -81 -1.5t-41.5 -4.5t-19 -8.5t-5.5 -15.5q-29 -140 -40 -276.5t-9 -237.5t19 -217.5t32 -185t41 -170.5q75 108 118 171.5t114.5 183.5t117.5 219t95.5 236t79.5 277 q4 20 -20.5 24t-117.5 6q-16 0 -13 16l8 38q5 18 20 18h390q9 0 11 -3t0 -17l-8 -34q-3 -12 -5.5 -15t-11.5 -3q-95 -1 -125 -7.5t-33 -22.5l-7 -21q-35 -169 -44.5 -325.5t5.5 -291t37.5 -236t57.5 -212.5q77 111 116.5 171t113 182.5t118.5 220t95 235.5t80 277 q4 18 -6 23q-14 5 -134 7q-18 0 -13 18l8 32q3 14 6 18t10 4h391q7 0 10.5 -1t6 -5.5t0.5 -13.5l-7 -34q-3 -12 -7 -15t-16 -3q-60 -1 -86.5 -1.5t-44.5 -4.5t-21 -8.5t-6 -15.5q-21 -100 -51.5 -198t-60 -176t-73.5 -165.5t-75.5 -145.5t-83.5 -139.5t-80.5 -123.5 t-83 -121t-75.5 -110q-14 -22 -35 -22h-35q-25 0 -30 22q-4 16 -27.5 102.5t-31 118t-25 113t-24 135t-12.5 132.5t-5 155q-31 -75 -70 -153t-69 -133t-79.5 -134t-72.5 -114t-79.5 -118t-70.5 -104q-14 -22 -36 -22h-39q-25 0 -30 22q-5 18 -26 97t-28 107.5t-25 106 t-23 122t-15 122.5t-9 141t3.5 144t14 165.5t30.5 173.5q4 18 -11 22q-18 6 -132 8q-13 0 -14.5 2.5t1.5 13.5z" />
<glyph unicode="X" horiz-adv-x="1271" d="M-22 22l3 25q3 16 7 21t16 5q67 1 99.5 8t51.5 20.5t50 49.5l445 529l-192 504q-7 22 -15.5 30t-36.5 12t-97 5q-13 0 -15 6.5t2 19.5l6 24q3 14 7.5 18t18.5 4h391q9 0 13.5 -2t5 -7t0 -9t-2.5 -12.5t-3 -12.5q-3 -19 -8 -24t-24 -5q-41 -1 -65.5 -3t-39.5 -6t-19 -12.5 t-2 -18t9 -26.5l147 -389l307 363q6 8 14.5 18.5t13 16.5t9.5 12.5t7 11t3 8.5q2 7 -2.5 12t-19 7.5t-33.5 3.5t-53 2q-20 0 -23.5 5.5t0.5 23.5q1 2 2.5 10t2 10t2.5 7t4 7t5 4.5t7.5 3.5t10.5 1h381q16 0 19 -4t0 -18l-7 -30q-2 -10 -3.5 -13t-5.5 -5t-14 -2 q-79 -1 -121.5 -17.5t-75.5 -55.5l-397 -469l205 -529q36 -93 95 -93q21 0 56.5 6.5t36.5 6.5q6 0 8.5 -0.5t5 -4t-0.5 -10.5l-5 -31q-3 -19 -8.5 -26.5t-25.5 -13.5q-52 -13 -97 -13q-70 0 -105 31.5t-59 95.5l-186 484l-361 -428q-39 -50 -43 -62q-2 -8 3.5 -13.5t21 -8.5 t38 -4.5t60.5 -2.5q11 0 16.5 -2t7 -7.5t1 -9t-3.5 -14t-4 -14.5q-3 -16 -7.5 -21t-20.5 -5h-397q-14 0 -16.5 4t0.5 18z" />
<glyph unicode="Y" horiz-adv-x="1232" d="M240 1249l8 36q3 11 7.5 14.5t14.5 3.5h383q18 0 12 -16l-8 -36q-3 -20 -22 -20q-81 -2 -110 -6.5t-32 -18.5q-14 -65 -15.5 -127.5t9.5 -118.5t27.5 -104.5t44 -98t52.5 -87t59 -82.5q67 57 115 100t108 107t101 123t76.5 134.5t52.5 153.5q2 7 -3.5 11.5t-22 7.5 t-40.5 4t-65 2q-18 0 -15 20l8 36q6 16 20 16h376q11 0 14.5 -3.5t0.5 -14.5l-7 -36q-4 -15 -9 -17q-4 -1 -13 -1q-81 -2 -113 -7t-36 -19q-20 -90 -62 -177t-88.5 -153.5t-116 -141t-121.5 -122t-128 -112.5l-63 -302h1l-5 -28q-5 -22 -7 -31t-2 -22.5t1 -17.5t9.5 -11 t15 -7.5t26.5 -3t35.5 -3t49.5 -0.5q11 0 16.5 -2t7 -7.5t1 -9t-3.5 -14t-4 -14.5q-3 -16 -7.5 -21t-20.5 -5h-408q-16 0 -19 4t1 18l5 25q2 11 4 15t7 7.5t14 3.5q35 0 52 0.5t38.5 2.5t30 3.5t20 7.5t15 11t9.5 17t8.5 22.5t6.5 30.5l69 331q-34 47 -56 79.5t-52.5 83 t-49 92t-37 98t-25.5 109t-6 116t14 128.5q1 7 -5.5 11.5t-23.5 7.5t-42 4.5t-67 2.5q-14 0 -16.5 3.5t1.5 14.5z" />
<glyph unicode="Z" horiz-adv-x="1042" d="M52 19l6 33q5 16 15 32l904 1139h-539q-17 0 -22.5 -8.5t-13.5 -37.5l-50 -196q-11 -17 -26 -17h-32q-24 0 -18 19l63 300q3 14 6.5 17t15.5 3h728q13 0 15 -6.5t-2 -21.5l-7 -33q-6 -27 -23 -47l-884 -1115h573q24 0 30 30l54 203q5 15 10.5 19.5t19.5 4.5h34 q11 0 13.5 -5.5t-0.5 -20.5l-62 -289q-3 -14 -7.5 -18t-14.5 -4h-777q-13 0 -9 19z" />
<glyph unicode="[" horiz-adv-x="571" d="M61 -281l343 1605q2 12 4.5 16t10.5 4h268q6 0 8 -1t1 -6l-15 -73q-2 -7 -14 -7h-179l-311 -1460h177q7 0 9.5 -0.5t4 -2.5t-0.5 -6l-15 -71q-2 -7 -13 -7h-272q-6 0 -6 9z" />
<glyph unicode="\" horiz-adv-x="821" d="M272 1322h106l309 -1354h-108z" />
<glyph unicode="]" horiz-adv-x="571" d="M-35 -281l15 71q2 7 11 7h178l311 1460h-177q-6 0 -8 0.5t-3.5 2.5t0.5 6l15 71q2 7 11 7h272q9 0 6 -9l-341 -1605q-3 -12 -6 -16t-11 -4h-266q-4 0 -5 0.5t-2.5 2.5t0.5 6z" />
<glyph unicode="^" horiz-adv-x="1243" d="M222 802l610 505l395 -505l-76 -55l-343 450l-531 -450z" />
<glyph unicode="_" horiz-adv-x="1118" d="M60 -91l20 91h823l-20 -91h-823z" />
<glyph unicode="`" horiz-adv-x="633" d="M460 1592q-8 11 -4 18.5t17 7.5h67q16 0 22 -4t15 -18l140 -213q19 -22 -10 -22h-44q-12 0 -18.5 4.5t-20.5 21.5z" />
<glyph unicode="a" horiz-adv-x="1130" d="M134 456q40 193 155.5 310.5t300.5 117.5q212 0 274 -147l19 93q5 20 13 28t27 8h73h28.5t52.5 -1.5t66 -2.5q15 -1 17.5 -6t-0.5 -20l-6 -26q-3 -16 -6.5 -20t-15.5 -4h-115q-47 -3 -60 -60l-106 -499q-16 -64 -10.5 -98t18.5 -44.5t37 -10.5q46 0 57 43q5 25 9 29.5 t23 4.5h28q16 0 19 -4.5t-1 -23.5q-16 -72 -53.5 -101t-96.5 -29q-70 0 -109 37.5t-31 122.5q-101 -162 -313 -162q-100 0 -169.5 35.5t-102 97.5t-39.5 147t17 185zM233 438q-12 -57 -13.5 -108.5t10.5 -99t36.5 -81.5t68.5 -54.5t104 -20.5q136 0 230 98.5t130 266.5 q35 165 -14.5 263.5t-188.5 98.5q-99 0 -176.5 -52t-121 -131t-65.5 -180z" />
<glyph unicode="b" horiz-adv-x="1079" d="M-20 22l5 25q2 14 6 20t16 6l66 1.5t44.5 5t30 8t17 17t12.5 25.5t9 38l212 997q8 40 3.5 48.5t-38.5 9.5l-99 2q-12 0 -13.5 5.5t2.5 18.5l6 23q3 16 9.5 22t20.5 6q51 3 113 3h91q18 0 23.5 -7t2.5 -24l-126 -591q65 98 156.5 150.5t189.5 52.5q89 0 150.5 -36 t90.5 -99t35 -149t-17 -187q-40 -192 -152.5 -309t-294.5 -117q-104 0 -180 43t-88 132l-24 -119q-4 -18 -7 -24.5t-12 -12.5t-26 -6h-218q-15 0 -17 4t1 18zM343 408q-32 -155 17 -248t186 -93q142 0 228.5 98.5t122.5 266.5q18 77 16 144t-21 116.5t-65.5 78t-117.5 28.5 q-139 0 -234 -106.5t-132 -284.5z" />
<glyph unicode="c" horiz-adv-x="895" d="M128 475q45 202 168.5 305.5t314.5 103.5q78 0 146.5 -12.5t104.5 -29.5q14 -7 17 -16t-2 -33l-50 -236q-3 -19 -23 -19h-43q-18 0 -13 17l36 218q-70 28 -171 28q-309 0 -384 -347q-16 -76 -17.5 -135.5t12 -100.5t37 -69.5t61 -44.5t80.5 -23t99 -7q41 0 76.5 4 t60.5 9.5t88 20.5q14 4 18 -2.5t1 -23.5l-8 -30q-1 -13 -7 -19t-23 -11q-89 -31 -214 -31q-71 0 -128 9.5t-106.5 31t-82 58.5t-51 89.5t-18 127t20.5 168.5z" />
<glyph unicode="d" horiz-adv-x="1096" d="M128 451q41 194 155.5 313.5t288.5 119.5q73 0 130.5 -17t99 -59.5t47.5 -107.5l101 465q8 41 3 48.5t-39 9.5l-99 2q-12 0 -13.5 5.5t2.5 18.5l6 23q3 16 9.5 22t20.5 6q51 3 113 3h91q33 0 27 -31l-224 -1047q-16 -64 -10.5 -98t18.5 -44t37 -10q48 0 58 42q3 20 10 27 t29 7h15q21 0 24.5 -6.5t-2.5 -21.5q-25 -130 -162 -130q-141 0 -127 150q-106 -152 -314 -152q-97 0 -165.5 35t-102 97t-42 146.5t14.5 183.5zM229 432q-18 -98 -7.5 -177.5t65.5 -130t149 -50.5q143 0 232.5 89t124.5 250q41 192 -10.5 287t-199.5 95q-140 0 -229 -98.5 t-125 -264.5z" />
<glyph unicode="e" horiz-adv-x="921" d="M128 426q98 458 470 458q162 0 232 -75.5t41 -214.5q-50 -237 -372 -237q-154 0 -272 53q-18 -82 -13 -141.5t21 -99t51 -62.5t77 -32.5t99 -9.5q120 0 249 49q6 3 19 7t18 7q15 5 20.5 0.5t2.5 -18.5l-8 -34q-3 -17 -8 -23t-25 -14q-116 -58 -281 -58q-214 0 -292 110 t-29 335zM248 497q115 -52 238 -52q254 0 283 149q23 102 -24.5 153.5t-150.5 51.5q-133 0 -217.5 -75t-128.5 -227z" />
<glyph unicode="f" horiz-adv-x="621" d="M-186 -311l7 32q5 31 30 24q55 -11 95 -11q52 0 83.5 12t55.5 49.5t38.5 87t34.5 143.5l162 762h-138q-17 0 -14 16l9 45q6 17 22 17h138l20 91q12 59 27 106.5t41 98t59.5 84t83.5 55t112 21.5q103 0 147.5 -20.5t34.5 -65.5l-37 -171q-3 -13 -7 -16t-16 -3h-42 q-11 0 -13.5 3.5t0.5 13.5l22 158q-31 17 -89 17q-82 0 -136 -60t-82 -195l-26 -117h206q12 0 14.5 -4.5t0.5 -14.5l-7 -41q-2 -7 -4 -10t-7 -5.5t-13 -2.5h-207l-153 -721q-21 -101 -40 -166.5t-44 -119t-57.5 -81t-75 -42t-101.5 -14.5q-22 0 -43 1.5t-44 6t-36 14 t-11 23.5z" />
<glyph unicode="g" horiz-adv-x="1089" d="M24 -279l4 24q5 18 11 23.5t19 0.5q51 -18 73.5 -25.5t75 -17t106.5 -9.5q90 0 152 15.5t114 55.5t87 111.5t58 180.5l11 56q-107 -147 -309 -147q-78 0 -137.5 23t-96 64t-57 98.5t-19.5 127.5t16 149q41 195 154.5 314t288.5 119q115 0 193.5 -46t86.5 -144l28 136 q5 20 13 28t27 8h73q10 0 28.5 -0.5t52.5 -1.5t66 -2q15 -2 18.5 -6.5t0.5 -19.5l-6 -26q-3 -15 -7 -19.5t-17 -4.5h-115q-47 -3 -60 -60l-136 -646q-27 -130 -68 -216.5t-103 -139t-141.5 -74.5t-191.5 -22q-169 0 -278 48q-14 7 -17 15.5t2 29.5zM231 432 q-18 -71 -12.5 -136t28 -114.5t72 -78.5t120.5 -29q144 0 233.5 89t124.5 250q41 192 -11 287t-200 95q-140 0 -229.5 -98.5t-125.5 -264.5z" />
<glyph unicode="h" horiz-adv-x="1077" d="M-22 22l5 25q3 15 7.5 20.5t16.5 5.5l66 1.5t44.5 5t30 8t17 17t12.5 25.5t9 38l211 996q12 59 -32 59l-102 2q-10 0 -11.5 4t1.5 17l6 29q3 12 5 16.5t6 6.5t13 2q30 1 61 2t50 2t27 1h72q20 0 25 -8.5t0 -28.5l-116 -547q63 83 146.5 123t170.5 40q129 0 176.5 -66 t16.5 -205l-82 -386q-16 -64 -10.5 -98t18.5 -44.5t37 -10.5q47 0 58 43q5 25 9 29.5t22 4.5h28q16 0 19 -4.5t0 -23.5q-16 -72 -54.5 -101t-98.5 -29q-77 0 -116.5 48.5t-15.5 159.5l88 406q23 107 -5.5 149.5t-101.5 42.5q-132 0 -233 -107.5t-148 -326.5l-41 -196 q-5 -22 -7 -31t-2 -22.5t1 -17.5t9.5 -11t15 -7.5t26.5 -3t35.5 -2.5t49.5 -1q11 0 16.5 -2t7 -7.5t1 -9t-3.5 -14t-4 -14.5q-3 -16 -7.5 -21t-20.5 -5h-406q-16 0 -19 4t1 18z" />
<glyph unicode="i" horiz-adv-x="556" d="M164 812l5 22q3 16 9 22t19 6q70 4 114 4h91q34 0 28 -32l-130 -607q-16 -64 -10.5 -98t18 -44.5t36.5 -10.5q47 0 58 43q5 25 9 29.5t23 4.5h28q16 0 19 -4.5t-1 -23.5q-16 -72 -54 -101t-98 -29q-77 0 -117 48.5t-16 159.5l114 527q8 41 3 48.5t-38 9.5l-101 2 q-10 0 -11.5 5.5t2.5 18.5zM374 1132q5 30 27.5 48.5t50.5 18.5q27 0 42.5 -18.5t10.5 -48.5q-7 -30 -30.5 -48.5t-50.5 -18.5q-28 0 -42.5 18.5t-7.5 48.5z" />
<glyph unicode="j" horiz-adv-x="504" d="M-134 -201q3 24 24 24h49q5 0 7.5 -2.5t2.5 -8t-1 -10t-2.5 -11.5t-1.5 -11q0 -28 15.5 -42t55.5 -14q17 0 31 4.5t32.5 18t33.5 45.5t26 81l182 855q8 41 2.5 48.5t-39.5 9.5l-99 2q-12 0 -13.5 5.5t2.5 18.5l6 22q3 16 9.5 22t20.5 6q70 4 113 4h91q34 0 28 -32 l-201 -940q-28 -134 -83.5 -192t-143.5 -58q-99 0 -130.5 45t-16.5 110zM378 1132q5 30 27.5 48.5t50.5 18.5q27 0 42 -18.5t10 -48.5q-7 -30 -30 -48.5t-50 -18.5q-28 0 -42.5 18.5t-7.5 48.5z" />
<glyph unicode="k" horiz-adv-x="979" d="M-22 22l5 25q2 10 4 14.5t7 8t13 3.5q33 0 51.5 0.5t39 3t29.5 4t20 7.5t15 11t9.5 17t8 22t6.5 30l211 996q6 32 -2 45.5t-30 13.5l-99 2q-12 1 -14 5t1 17l6 28q4 16 10 20.5t20 4.5q30 1 59.5 2t47 2t25.5 1h74q20 0 24.5 -8.5t-1.5 -28.5l-170 -797l374 287 q28 22 22 27q-6 6 -105 6q-19 0 -22.5 6t1.5 24q0 2 2 10l2.5 10t2.5 8t3.5 7.5t5 4.5t8 4t10.5 1h366q14 0 16.5 -4.5t-1.5 -18.5l-7 -33q0 -1 -1 -4q-10 -14 -18 -15q-86 0 -115 -9t-84 -52l-352 -268l201 -317q2 -4 8 -13.5t8 -13t7 -11.5t7.5 -11t7.5 -9.5t8 -8.5t8 -6 t9 -5.5t9.5 -2.5t11.5 -1q66 0 80 64q4 18 11.5 23.5t23.5 5.5h12q12 0 16 -0.5t7.5 -3.5t3 -9.5t-2.5 -19.5q-31 -142 -175 -142q-14 0 -27 2.5t-22.5 4.5t-20 9t-16.5 10t-15 13.5t-12.5 13.5t-11.5 16t-9.5 15.5t-10 17.5t-8.5 16l-218 359l-61 -289q-5 -22 -7 -31 t-2 -22.5t1 -17.5t9.5 -11t15 -7.5t26.5 -3t35.5 -3t49.5 -0.5q11 0 16.5 -2t7 -7.5t1 -9t-3.5 -14t-4 -14.5q-3 -16 -7.5 -21t-20.5 -5h-406q-16 0 -19 4t1 18z" />
<glyph unicode="l" horiz-adv-x="502" d="M155 201l210 989q8 36 2.5 43t-36.5 7l-98 2q-14 0 -16.5 3.5t1.5 16.5l5 32q4 16 10 20t20 4q30 1 58.5 2.5t55.5 1.5h93q31 0 24 -28l-227 -1067q-16 -64 -10.5 -98t18.5 -44.5t37 -10.5q46 0 57 43q7 25 11 29.5t21 4.5h28q16 0 19.5 -4.5t-0.5 -23.5 q-16 -72 -53.5 -101t-97.5 -29q-78 0 -117 48.5t-15 159.5z" />
<glyph unicode="m" horiz-adv-x="1563" d="M15 22l5 25q3 16 7 21t16 5q101 2 126 13t38 65l121 575q7 33 -2 46.5t-32 13.5l-100 2q-11 0 -13 3.5t1 16.5l6 30q4 16 8.5 20t15.5 4q41 1 85.5 3.5t52.5 2.5h73q21 0 25.5 -9t-1.5 -29l-17 -83q100 137 274 137q171 0 195 -145q112 145 302 145q129 0 174 -81t8 -259 l-69 -317q-16 -64 -10.5 -98t18.5 -44.5t37 -10.5q47 0 58 43q8 29 13 32q5 2 18 2h28q16 0 20.5 -5t0.5 -23q-16 -72 -54.5 -101t-98.5 -29q-79 0 -118.5 48.5t-15.5 159.5l73 337q28 144 0.5 202.5t-114.5 58.5q-106 0 -181.5 -71.5t-104.5 -206.5l-75 -346l-8.5 -42.5 t2 -27t9.5 -18t29 -8.5t45.5 -5t71.5 -1q10 0 15.5 -2t6.5 -8t0.5 -9.5t-3.5 -13.5t-4 -14q-2 -10 -2.5 -13t-3.5 -7t-7.5 -5t-12.5 -1h-397q-15 0 -17.5 4t0.5 18l6 25q3 15 7 20.5t15 5.5q36 1 54.5 1.5t36.5 5.5t24.5 9t14.5 18.5t10.5 26.5t8.5 41l82 380 q26 136 -4.5 190t-112.5 54q-227 0 -309 -363l-58 -272q-7 -36 -8.5 -49.5t10.5 -25.5t35 -13.5t77 -2.5q10 0 16 -2t7 -7t0.5 -9.5t-3 -14t-3.5 -14.5q-3 -16 -7.5 -21t-20.5 -5h-378q-13 0 -16.5 4t-0.5 18z" />
<glyph unicode="n" horiz-adv-x="1105" d="M7 22l6 25q3 15 7.5 20.5t16.5 5.5l66 1.5t44.5 5t30 8t17 17t12.5 25.5t9 38l117 558q12 60 -31 60l-103 2q-9 0 -10.5 3.5t1.5 16.5l5 30q5 17 8.5 20.5t16.5 3.5q39 1 84 3.5t53 2.5h73q20 0 24 -9t-2 -29l-22 -111q63 84 146.5 124.5t171.5 40.5q129 0 177 -66 t17 -205l-82 -386q-16 -64 -10.5 -98t18.5 -44.5t37 -10.5q47 0 58 43q5 25 9 29.5t22 4.5h28q16 0 19 -4.5t0 -23.5q-16 -72 -54.5 -101t-98.5 -29q-77 0 -116.5 48.5t-15.5 159.5l87 406q23 107 -5 149.5t-101 42.5q-133 0 -233.5 -107t-147.5 -327l-41 -196 q-5 -22 -7 -31t-2 -22.5t1 -17.5t9.5 -11t15 -7.5t26.5 -3t35.5 -2.5t49.5 -1q10 0 15.5 -2t6.5 -8t0.5 -9.5t-3.5 -13.5t-4 -14q-3 -16 -7.5 -21t-18.5 -5h-406q-16 0 -19 4t0 18z" />
<glyph unicode="o" horiz-adv-x="1007" d="M128 460q18 84 55.5 157t94.5 134.5t140.5 97t184.5 35.5q90 0 157.5 -25.5t105.5 -70t60 -104t20 -126.5t-15 -139q-18 -83 -56 -157.5t-96 -136t-142.5 -98t-184.5 -36.5q-75 0 -134.5 18t-98 51t-64 76.5t-34.5 97t-7.5 109.5t14.5 117zM229 434q-18 -71 -13 -136.5 t28 -115t76.5 -79t131.5 -29.5t143 29t110 80t75.5 114t46.5 137q12 58 12.5 110.5t-12.5 100t-40 82t-73.5 54.5t-108.5 20q-77 0 -142.5 -30.5t-111 -83t-76.5 -116.5t-46 -137z" />
<glyph unicode="p" horiz-adv-x="1077" d="M-97 -331l4 24q3 10 4 12.5t4 7t6.5 5.5t9.5 1q45 1 66 1t44 4.5t30 8t16.5 16.5t12 25t8.5 38l195 923q10 51 -35 51l-102 2q-8 0 -9.5 3.5t1.5 16.5l6 30q5 17 8 20.5t16 3.5q39 1 83.5 3.5t52.5 2.5h73q21 0 25.5 -9t-1.5 -29l-32 -150q58 99 146.5 151t183.5 52 q76 0 133.5 -23t92.5 -65t52.5 -101t17 -129.5t-18.5 -151.5q-42 -192 -155.5 -312t-287.5 -120q-103 0 -182 46.5t-90 136.5l-74 -348q-6 -27 -8 -39.5t2 -26t9 -17.5t25.5 -8t39.5 -4.5t62 -1.5q11 0 17 -2t7 -7.5t1 -9t-2.5 -13.5t-3.5 -15q-3 -16 -8.5 -21t-21.5 -5 h-404q-16 0 -19 4.5t0 18.5zM341 406q-34 -155 15.5 -249t187.5 -94q142 0 229 99.5t123 267.5q18 77 16 144t-21.5 117t-66 79t-117.5 29q-140 0 -234.5 -106.5t-131.5 -286.5z" />
<glyph unicode="q" horiz-adv-x="1091" d="M132 456q40 193 155.5 310.5t300.5 117.5q212 0 274 -147l19 93q5 20 13.5 28t27.5 8h72q10 0 28.5 -0.5t52.5 -1.5t66 -2q15 -1 17.5 -6t-0.5 -20l-6 -26q-3 -16 -6.5 -20t-15.5 -4h-115q-47 -3 -60 -60l-194 -912q-6 -26 -8 -38t1.5 -25t9.5 -17.5t25.5 -8.5t40 -4.5 t62.5 -1.5q11 0 17 -2t7 -8t1 -9t-3 -14t-4 -14q-3 -15 -9 -20.5t-22 -5.5h-408q-14 0 -16.5 4.5t1.5 18.5l4 24q5 16 9 21t15 5q85 1 115 7t43 22.5t23 65.5l70 333q-102 -156 -309 -156q-100 0 -169.5 35.5t-102 97.5t-39.5 147t17 185zM231 438q-12 -57 -13.5 -108.5 t10.5 -99t37 -81.5t69 -54.5t104 -20.5q136 0 229.5 98.5t129.5 266.5q35 165 -14.5 263.5t-188.5 98.5q-99 0 -176.5 -52t-121 -131t-65.5 -180z" />
<glyph unicode="r" horiz-adv-x="848" d="M6 22l5 25q3 15 7.5 20.5t16.5 5.5q108 2 135.5 11.5t39.5 58.5l123 583q7 33 -1.5 46.5t-31.5 13.5l-103 2q-9 0 -10 3.5t3 16.5l5 30q4 16 8 20t15 4q41 1 85.5 3.5t52.5 2.5h72q21 0 25.5 -9t-1.5 -29l-37 -180q130 234 341 234q65 0 102 -22q17 -8 19 -18t-4 -36 l-50 -233q-1 -7 -2.5 -11t-5 -5.5t-5 -1.5h-8.5h-46q-18 0 -13 16l33 215q-19 9 -63 9q-263 0 -385 -562l-21 -97q-8 -44 13.5 -53.5t120.5 -11.5q11 0 16.5 -2t7 -7.5t1 -9t-3.5 -14t-4 -14.5q-3 -16 -7.5 -21t-20.5 -5h-404q-17 0 -20.5 4t0.5 18z" />
<glyph unicode="s" horiz-adv-x="845" d="M50 50l43 199q5 24 12 31t25 7h26q8 0 11 -1t6 -8t0 -21l-24 -160q98 -26 220 -26q117 0 179.5 32t80.5 122q11 52 1 89t-36.5 56.5t-63.5 33t-79 19.5t-84 16.5t-79 23t-62.5 40t-35.5 66.5t2 103q23 114 102 163t224 49q184 0 268 -31q24 -11 18 -38l-44 -197 q-2 -9 -7 -13t-9.5 -4.5t-17.5 -0.5h-26q-13 0 -16.5 5.5t-0.5 23.5l28 151q-92 21 -195 21q-104 0 -156.5 -24t-69.5 -103q-10 -48 6 -80t50.5 -45.5t79.5 -24.5t93.5 -18t92 -24.5t75.5 -45t44 -79.5t-3 -128q-12 -61 -36.5 -105t-55.5 -70t-76 -40.5t-89 -19.5t-104 -5 q-95 0 -176.5 10t-117.5 23q-16 6 -21 11t-2 17z" />
<glyph unicode="t" horiz-adv-x="653" d="M168 802l9 41q3 15 7 19t17 4h127l85 251q6 28 28 28h21q14 0 17 -6.5t-1 -21.5l-54 -251h257q13 0 16.5 -5t0.5 -19l-9 -40q-3 -15 -6.5 -18.5t-17.5 -3.5h-257l-105 -486q-22 -92 -15.5 -143.5t28.5 -69.5t68 -18q89 0 102 73q5 24 26 24h30q13 0 16.5 -6t0.5 -22 q-15 -74 -64.5 -112.5t-125.5 -38.5q-126 0 -163 75.5t1 233.5l104 490h-127q-14 0 -16.5 4t0.5 18z" />
<glyph unicode="u" horiz-adv-x="1083" d="M147 812l6 24q3 16 9 21t19 5q58 1 71.5 2.5t45.5 1.5h93q18 0 22.5 -8t-0.5 -29l-115 -540q-11 -68 -11.5 -111t18.5 -67t46.5 -33t72.5 -9q131 0 218 76t129 252l74 348q3 43 -37 43h-104q-16 0 -10 24l6 24q3 16 9.5 21t18.5 5q58 1 71.5 2.5t45.5 1.5h93q18 0 23 -8 t0 -29l-129 -602q-16 -64 -10.5 -98t18.5 -44.5t37 -10.5q47 0 58 43q1 4 2.5 9.5t2 8t1.5 5.5t2 4.5t2.5 3t3 2t4.5 1t5.5 0.5h7.5h28q16 0 19.5 -4.5t-0.5 -23.5q-16 -72 -54.5 -101t-98.5 -29q-66 0 -104.5 33t-34.5 110q-111 -149 -308 -149q-145 0 -197 70.5t-17 234.5 l60 281h2l35 164q9 51 -35 51h-105q-9 0 -11 5.5t2 18.5z" />
<glyph unicode="v" horiz-adv-x="977" d="M153 804l11 49q2 13 17 13h344q12 0 9 -13l-9 -47q0 -1 -1.5 -4t-1.5 -4t-1 -3t-2.5 -2.5t-3 -1.5t-4 -1.5t-5.5 -0.5q-46 0 -68 -0.5t-36.5 -3.5t-17.5 -7t-4 -13q-22 -101 -24.5 -196t14.5 -185.5t32.5 -145.5t44.5 -141q64 86 102.5 141t93 145.5t92.5 185.5t60 196 q3 16 -8 19q-16 5 -104 5q-18 0 -15 15l12 47q3 15 14 15h330q13 0 16 -4.5t-1 -12.5l-8 -41q-6 -17 -20 -19q-48 0 -70 -0.5t-36 -3.5t-16.5 -7t-4.5 -13q-15 -70 -39.5 -139t-48 -123t-61.5 -118.5t-62.5 -103t-70.5 -99.5t-65.5 -85.5t-65.5 -81.5q-10 -15 -30 -15h-37 q-20 0 -28 15q-66 182 -87 273q-54 237 -6 477q3 15 -6 19q-13 5 -111 5q-10 0 -12.5 3.5t-0.5 11.5z" />
<glyph unicode="w" horiz-adv-x="1537" d="M151 806l9 47q1 9 5.5 11t13.5 2h378q14 0 11 -13l-9 -47q-6 -17 -21 -17q-36 0 -60 -1t-44.5 -3t-28.5 -6.5t-5 -11.5q-21 -99 -23 -194t14 -183.5t32 -148t44 -139.5q61 78 104 139t96.5 148.5t91.5 183t60 194.5q0 16 -19 19t-107 3q-8 0 -13 4t-4 11l11 49 q3 13 17 13h363q8 0 12 -2.5t3 -10.5l-11 -49q-3 -13 -17 -15q-136 -2 -144 -13q-20 -104 -21 -201t15 -183.5t35.5 -151t49.5 -141.5q62 80 103.5 140t95.5 148.5t92 184t59 195.5q2 4 2 11q-3 7 -25.5 9t-99.5 2q-18 0 -15 15l11 49q3 13 15 13h357q18 0 15 -15l-9 -45 q-6 -15 -22 -17q-100 -1 -118.5 -4t-21.5 -18q-21 -94 -60 -190t-75 -163.5t-96.5 -155t-91.5 -127.5t-92 -116q-12 -15 -26 -15h-51q-18 0 -26 15q-65 187 -86 282q-19 87 -25 170q-42 -84 -104 -177.5t-98.5 -141.5t-103.5 -133q-12 -15 -28 -15h-50q-16 0 -24 15 q-25 69 -34.5 96.5t-31.5 100.5t-29.5 124.5t-15.5 126t-3 150t21 154.5q3 13 -17 17q-17 3 -117 5q-19 3 -13 17z" />
<glyph unicode="x" horiz-adv-x="1009" d="M-4 22l4 25q3 15 9 19.5t21 4.5q78 0 102 7t58 45l285 315l-153 310q-13 28 -40.5 35.5t-86.5 7.5q-19 0 -13 28l6 24q3 14 8 18.5t16 4.5h330q7 0 11.5 -1.5t5.5 -6t1 -7t-2 -11t-3 -11.5q-4 -15 -6 -20.5t-8 -10.5t-18 -5q-78 0 -93 -8t2 -40l114 -231l212 233 q26 30 18 38q-9 8 -91 8q-5 0 -8.5 1.5t-5.5 4t-2.5 5.5t0 8t1.5 8.5t2 9.5t2 10q3 10 4 13t3.5 7t6.5 5t10 1h328q14 0 17.5 -4.5t0.5 -18.5l-5 -24q-3 -15 -8 -20.5t-16 -5.5q-41 -1 -62 -3.5t-45 -12.5t-42 -29l-283 -309l158 -318q17 -36 38 -44t90 -8q15 0 19.5 -4 t1.5 -18l-6 -25q-4 -19 -9 -21q-4 -1 -13 -1h-326q-5 0 -9 1t-5.5 4l-2.5 5t0 7l1.5 7.5t2 8.5t2.5 8q5 19 8.5 23.5t19.5 4.5q93 -2 98 13q1 6 -5 17l-134 264l-242 -264q-18 -18 -7 -23q16 -7 113 -7q15 0 17.5 -5t-2.5 -23q-1 -4 -3 -14.5t-3.5 -14.5t-6.5 -8t-13 -4 h-354q-14 0 -16 4t1 18z" />
<glyph unicode="y" horiz-adv-x="1018" d="M22 -357l8 39q1 6 2.5 8.5t6 4.5t13.5 3q14 1 35.5 3t30 3t23 2.5t20 3t15 3.5t13.5 4.5t10 7t10 9t9 11.5q106 145 180 257q-8 3 -11 13q-13 36 -29 92t-35.5 141t-30 170t-13 179t14.5 168q3 16 -15 19t-104 5q-14 2 -11 15l11 49q2 13 17 13h342q15 0 12 -13l-10 -47 q-1 -2 -2 -5t-1.5 -4t-1.5 -3.5t-3 -3t-5 -1t-7 -0.5q-57 0 -83 -3t-31 -7t-7 -14q-28 -136 0.5 -343t64.5 -327q99 150 183 297.5t195 363.5q11 20 2 26q-16 7 -106 7q-11 2 -13.5 4.5t0.5 12.5l9 45q3 15 17 15h333q12 0 14.5 -3.5t-1.5 -13.5l-9 -45q-3 -12 -17 -15 q-62 -1 -85.5 -4.5t-32.5 -10.5t-20 -29q-266 -538 -646 -1058q-34 -39 -62.5 -50t-65.5 -11h-116q-15 0 -17.5 2t0.5 15z" />
<glyph unicode="z" horiz-adv-x="878" d="M43 28l5 28q3 18 15 30l669 703h-393q-21 0 -29.5 -5.5t-13.5 -22.5l-32 -147q-4 -18 -28 -18h-33q-8 0 -12 0.5t-7.5 4.5t-2.5 12l48 225q6 28 30 28h586q23 0 17 -28l-6 -30q-5 -20 -16 -33l-663 -702h417q35 0 43 29l43 157q6 19 10.5 24.5t18.5 5.5h30 q14 0 17.5 -6.5t-0.5 -31.5l-47 -223q-8 -28 -28 -28h-620q-24 0 -18 28z" />
<glyph unicode="{" horiz-adv-x="644" d="M97 499l11 45q0 13 17 16q114 18 162.5 61.5t69.5 141.5l69 328q12 52 30.5 91.5t52.5 75t89.5 54.5t131.5 19h28q5 0 7 -0.5t4 -3.5t0 -9l-11 -56q-3 -8 -6 -10.5t-11 -2.5h-6q-173 0 -208 -156l-69 -326q-24 -110 -71 -166.5t-132 -79.5q76 -23 99.5 -80t-0.5 -167 l-69 -326q-17 -76 16.5 -115.5t124.5 -39.5h6q8 0 9.5 -3.5t-0.5 -11.5l-11 -55q-2 -12 -15 -12h-28q-76 0 -124 20t-66 53t-22 76t9 90l69 327q21 99 -8.5 142t-136.5 61q-15 3 -11 19z" />
<glyph unicode="|" horiz-adv-x="482" d="M58 -311l355 1670h99l-356 -1670h-98z" />
<glyph unicode="}" horiz-adv-x="644" d="M-37 -277l11 55q3 15 17 15h3q177 0 211 155l69 326q24 110 70.5 167t130.5 80q-76 23 -98.5 79.5t1.5 166.5l69 326q35 156 -144 156h-5q-8 0 -10 2.5t1 10.5l11 56q2 13 15 13h29q61 0 104 -13t66 -34.5t33 -53.5t9 -65t-10 -74l-69 -328q-21 -98 8.5 -141.5 t134.5 -61.5q15 -2 15 -16l-11 -45q-4 -17 -21 -19q-113 -18 -161.5 -61t-69.5 -142l-69 -327q-11 -51 -29.5 -90.5t-52 -75t-89 -54.5t-130.5 -19h-28q-13 0 -11 12z" />
<glyph unicode="~" horiz-adv-x="1310" d="M164 372q78 111 178 172t194 61q54 0 97.5 -24t72.5 -57.5t56 -67.5t61 -58t74 -24q111 0 237 183l71 -34q-69 -116 -157 -175t-169 -59q-54 0 -97.5 23.5t-72.5 57.5t-55.5 68t-59.5 57.5t-71 23.5q-151 0 -277 -176z" />
<glyph unicode="&#xa0;" horiz-adv-x="929" d="M188 506l11 49q3 17 21 17h603q14 0 11 -19l-9 -41q-5 -20 -23 -20h-599q-10 0 -13 3t-2 11z" />
<glyph unicode="&#xa1;" horiz-adv-x="456" d="M45 -315l214 972q3 13 7 16t17 3h52q14 0 11 -19l-203 -974q-7 -13 -13 -14h-72q-12 0 -14.5 3t1.5 13zM253 812q7 30 31.5 51t56.5 21q29 0 46.5 -21.5t10.5 -50.5q-6 -35 -31 -55t-56 -20q-33 0 -49 20t-9 55z" />
<glyph unicode="&#xa2;" horiz-adv-x="956" d="M151 419q46 212 182.5 338.5t329.5 126.5q123 0 184.5 -51.5t40.5 -147.5q-16 -76 -71.5 -124.5t-138.5 -48.5q-34 0 -75 9q-16 6 -16.5 19.5t5.5 29.5q4 26 26 26q1 0 22 -4t38 -4q98 0 117 88q14 67 -29 96t-118 29q-149 0 -253 -101.5t-142 -280.5 q-18 -100 -10.5 -167.5t45 -108.5t87.5 -58.5t117 -17.5q130 0 279 65q15 5 19 0t-1 -22l-7 -37q-3 -13 -9 -19t-23 -13q-137 -60 -290 -60q-192 0 -272 116.5t-37 321.5zM322 -318l54 234q4 19 17 19h65q10 0 6 -15l-49 -237q-4 -16 -11 -16h-76q-9 0 -6 15zM596 951 l48 237q3 15 11 15h77q9 0 5 -17l-54 -238q-4 -13 -13 -13h-65q-14 0 -9 16z" />
<glyph unicode="&#xa3;" horiz-adv-x="1169" d="M45 22l5 25q3 16 7 21t17 5q45 1 66 1.5t44 3.5t30.5 6.5t17 14t12 21l7.5 31.5l92 428h-153q-18 0 -15 15l11 48q3 17 21 17h152l54 259q25 118 66 196.5t102.5 123.5t136.5 63.5t179 18.5q185 0 296 -43q9 -3 14 -5.5t8.5 -4t3.5 -6t0.5 -6t-2 -10t-3.5 -12.5l-50 -243 q-4 -16 -8 -19t-18 -3h-36q-11 0 -13 3t0 16l26 218q-80 28 -234 28q-71 0 -125 -10.5t-101.5 -36.5t-79 -73.5t-46.5 -116.5l-71 -337h352q14 0 11 -19l-9 -40q-6 -21 -23 -21h-348l-104 -488l510 -2q17 0 22 5.5t10 22.5l52 188q5 20 13 25t28 5h15q18 0 20 -8.5t-5 -32.5 l-58 -274q-3 -14 -8.5 -17t-19.5 -3h-853q-14 0 -17.5 4t-0.5 18z" />
<glyph unicode="&#xa4;" horiz-adv-x="1226" d="M136 143l127 108q-82 122 -45 296q38 181 184 304l-74 104l76 41l71 -91q131 80 279 80q163 0 259 -93l115 95l58 -41l-128 -108q79 -119 44 -291q-38 -175 -164 -292l84 -106l-87 -47l-80 88q-129 -82 -287 -82q-156 0 -251 82l-116 -95zM322 547q-34 -158 37.5 -257.5 t225.5 -99.5q148 0 263.5 100t149.5 257t-39.5 256.5t-221.5 99.5q-155 0 -268 -98.5t-147 -257.5z" />
<glyph unicode="&#xa5;" horiz-adv-x="1293" d="M244 359l9 47q5 17 19 17h346l15 76q-5 5 -6 7h-338q-7 0 -10.5 5t-1.5 12l12 47q0 6 4.5 10.5t11.5 4.5h267q-30 44 -53 84t-46 89t-37.5 99t-23 105.5t-6.5 117t15 125.5q2 7 -4 11.5t-23 7.5t-42 4.5t-67 2.5q-14 0 -16.5 3.5t1.5 14.5l7 36q5 18 23 18h381 q18 0 12 -16l-8 -36q-3 -20 -22 -20q-79 -2 -108 -6.5t-32 -18.5q-14 -65 -15.5 -127.5t10 -118.5t28 -105t44 -98.5t52.5 -86.5t58 -82q84 71 143.5 127.5t128 136t114 169t66.5 185.5q2 7 -3.5 11.5t-21.5 7.5t-40 4t-65 2q-18 0 -15 20l8 36q6 16 18 16h378q10 0 13 -3.5 t0 -14.5l-7 -36q-3 -12 -6 -15t-15 -3q-83 -2 -114.5 -7t-34.5 -19q-22 -95 -64 -183.5t-101.5 -166.5t-118.5 -140.5t-134 -129.5h269q16 0 12 -17l-8 -41q-6 -21 -24 -21h-337l-9 -7l-15 -76h348q14 0 11 -19l-9 -41q-6 -19 -23 -19h-344l-43 -199q-11 -50 9.5 -60 t124.5 -12q10 0 15.5 -2t6.5 -8t0.5 -9.5t-3.5 -13.5t-4 -14q-3 -16 -7.5 -21t-18.5 -5h-408q-16 0 -19 4t1 18l5 25q2 11 4 15t7 7.5t14 3.5q46 1 66.5 1t44 4.5t30.5 8t16.5 17t12 25.5t8.5 39l6 29h2l31 147h-346q-7 0 -10.5 4t-0.5 11z" />
<glyph unicode="&#xa6;" horiz-adv-x="487" d="M71 -266l154 728h99l-155 -728h-98zM249 577l155 724h99l-155 -724h-99z" />
<glyph unicode="&#xa7;" horiz-adv-x="1035" d="M45 -112l50 242q5 15 10.5 20t19.5 5h35q21 0 17 -23l-36 -218q107 -31 254 -31q38 0 74 3.5t82.5 15.5t82 31.5t64.5 56t39 84.5q13 61 5.5 107.5t-31.5 75.5t-58.5 52.5t-76.5 37.5t-86 30t-85.5 30.5t-76 40t-57.5 57t-29.5 82t7.5 115.5q25 118 88 188 q-35 68 -11 177q16 76 55.5 128t97 78.5t117 37.5t132.5 11q86 0 164.5 -13t114.5 -30q13 -7 16 -14t-1 -27l-54 -249q-3 -17 -7.5 -21t-16.5 -4h-37q-9 0 -12.5 5t-4.5 9v5l32 223q-63 19 -101 25.5t-108 6.5q-257 0 -292 -164q-12 -58 0 -101t42.5 -67t73 -44t91 -32.5 t96.5 -32t89 -43t69 -65t36.5 -98t-8.5 -142.5q-12 -59 -36 -113.5t-42 -69.5q24 -75 0 -182q-15 -71 -52 -125t-82.5 -84.5t-104.5 -49t-109 -24.5t-106 -6q-86 0 -189 15t-133 30q-20 10 -11 48zM343 709q-13 -64 3.5 -109.5t53 -69.5t89 -44.5t103.5 -34.5t104.5 -40 t85.5 -61q23 40 33 89q14 54 6 97.5t-24 72t-47 51.5t-64 37t-74.5 29t-78 26.5t-75 29.5t-65.5 39q-34 -43 -50 -112z" />
<glyph unicode="&#xa8;" horiz-adv-x="701" d="M363 1445q5 26 27 44.5t51 18.5q30 0 44.5 -18.5t9.5 -44.5q-5 -27 -28.5 -44.5t-53.5 -17.5q-29 0 -42 17.5t-8 44.5zM683 1445q5 26 28 44.5t54 18.5q30 0 43.5 -18t8.5 -45t-28.5 -44.5t-53.5 -17.5t-43.5 17.5t-8.5 44.5z" />
<glyph unicode="&#xa9;" horiz-adv-x="1562" d="M194 618q44 210 160.5 357.5t274 217t345.5 69.5q141 0 251 -41t183 -123t95.5 -205.5t-10.5 -287.5q-33 -155 -107 -276t-176 -197.5t-226 -116t-263 -39.5q-142 0 -253 40.5t-185 121t-98 200.5t9 280zM277 618q-58 -273 70 -420.5t387 -147.5q168 0 304 60t234 186.5 t137 308.5q30 145 11 254.5t-81.5 182.5t-159 109.5t-222.5 36.5q-168 0 -305 -62t-236 -191.5t-139 -316.5zM467 676q42 188 156.5 284t292.5 96q73 0 137 -11.5t96 -27.5q12 -7 14.5 -14.5t-1.5 -30.5l-47 -220q-3 -17 -22 -17h-39q-14 0 -11 15l31 203q-64 26 -158 26 q-287 0 -354 -322q-15 -71 -16.5 -126t10.5 -93t34 -64.5t56.5 -41t74 -21t91.5 -6.5q38 0 72 4t56.5 9t81.5 19q14 4 18 -2.5t-1 -21.5l-6 -28q-3 -12 -8.5 -17.5t-19.5 -10.5q-91 -30 -199 -30q-66 0 -118.5 9t-98.5 28.5t-76 54t-47.5 83.5t-17.5 118t19 156z" />
<glyph unicode="&#xaa;" horiz-adv-x="919" d="M257 974q34 157 136 252.5t259 95.5q68 0 119 -31.5t80 -85.5l18 83q3 12 6 13.5t15 1.5h69q9 0 10 -4t-3 -12l-134 -635q-2 -9 -4.5 -12t-10.5 -3h-74q-10 0 -11 4t2 14l16 77q-104 -114 -240 -114q-163 0 -225 98.5t-28 257.5zM356 970q-28 -133 18 -200.5t153 -67.5 q101 0 174.5 72t99.5 196q26 123 -17 195.5t-145 72.5q-103 0 -180 -71.5t-103 -196.5z" />
<glyph unicode="&#xab;" horiz-adv-x="927" d="M114 452q-10 14 -8.5 21t15.5 20l452 399q23 21 32 13l37 -34q6 -4 3.5 -9t-16.5 -19l-409 -366l251 -360q12 -17 12.5 -23t-6.5 -10l-53 -32q-9 -5 -13 -2.5t-14 15.5zM404 452q-11 15 -9.5 21.5t16.5 19.5l453 399q22 20 30 13l39 -34q5 -4 3 -9t-16 -19l-410 -366 l250 -360q12 -17 12.5 -23.5t-7.5 -9.5l-52 -32q-12 -9 -26 13z" />
<glyph unicode="&#xac;" horiz-adv-x="1118" d="M218 557l18 89h792l-56 -268h-97l37 179h-694z" />
<glyph unicode="&#xad;" horiz-adv-x="932" d="M192 519l9 49q6 17 21 17h603q14 0 11 -19l-9 -41q-3 -20 -23 -20h-599q-10 0 -12.5 3t-0.5 11z" />
<glyph unicode="&#xae;" horiz-adv-x="1562" d="M194 618q44 210 160.5 357.5t274 217t345.5 69.5q141 0 251 -41t183 -123t95.5 -205.5t-10.5 -287.5q-33 -155 -107 -276t-176 -197.5t-226 -116t-263 -39.5q-142 0 -253 40.5t-185 121t-98 200.5t9 280zM277 618q-58 -273 70 -420.5t387 -147.5q168 0 304 60t234 186.5 t137 308.5q30 145 11 254.5t-81.5 182.5t-159 109.5t-222.5 36.5q-168 0 -305 -62t-236 -191.5t-139 -316.5zM484 268l8 30v3q6 13 13 14q64 1 79 9.5t23 44.5l119 562q5 29 -8 37.5t-74 8.5q-6 0 -6.5 4.5t1.5 12.5l5 30q3 8 6 10.5t11 2.5h262q146 0 197 -68.5t25 -186.5 q-19 -90 -69.5 -152.5t-133.5 -87.5l43 -160q10 -42 22 -56.5t39 -14.5q18 0 43 11q10 3 13 2t2 -9v-32q0 -13 -4 -17t-18 -9q-43 -13 -80 -13q-30 0 -50 7.5t-30.5 24t-16 33t-11.5 42.5q0 2 -0.5 3.5l-1 3t-0.5 3.5l-41 166h-15q-64 0 -102 9l-36 -164q-8 -41 1 -49t68 -8 q11 0 12.5 -4t-1.5 -15l-5 -26q-2 -9 -4.5 -12t-10.5 -3h-263q-9 0 -11 2.5t0 10.5zM748 611q56 -8 90 -8q172 0 212 177q19 93 -17 140.5t-115 47.5h-93z" />
<glyph unicode="&#xaf;" horiz-adv-x="720" d="M395 1426l11 47q1 11 5.5 14.5t16.5 3.5h382q14 0 11 -15l-11 -50q-2 -18 -22 -18h-378q-11 0 -14 3.5t-1 14.5z" />
<glyph unicode="&#xb0;" horiz-adv-x="727" d="M272 1048q25 116 108.5 195t196.5 79q115 0 164 -79t24 -195q-26 -118 -110.5 -195.5t-192.5 -77.5q-114 0 -165 76t-25 197zM372 1050q-19 -90 13.5 -142t96.5 -52q59 0 111.5 51.5t71.5 136.5q18 86 -11.5 141t-93.5 55q-61 0 -115.5 -54.5t-72.5 -135.5z" />
<glyph unicode="&#xb1;" horiz-adv-x="1146" d="M74 -47l21 92h847l-20 -92h-848zM171 434l19 91h376l74 344h97l-74 -344h372l-18 -91h-373l-65 -307h-97l65 307h-376z" />
<glyph unicode="&#xb2;" horiz-adv-x="867" d="M138 572l9 46q4 18 13 24q137 75 246.5 151t204 163.5t155.5 185.5t83 200q7 40 8 70t-10 51t-25 35t-38.5 22t-50 11t-59.5 3q-115 0 -220 -35l-57 -190q-5 -10 -8 -12.5t-11 -2.5h-41q-11 0 -12.5 3t1.5 16l46 217q5 18 9 24t17 10q136 52 293 52q26 0 47 -1t47 -4 t46 -8.5t41.5 -15.5t36 -24t27 -34.5t18 -46.5t4.5 -60.5t-10 -75.5q-43 -203 -217.5 -383t-434.5 -319h438q18 0 27 28l38 138q3 14 8 19t18 5h35q10 0 12 -5t-1 -21l-50 -233q-3 -12 -6 -14t-13 -2h-653q-14 0 -11 13z" />
<glyph unicode="&#xb3;" horiz-adv-x="830" d="M143 603l10 39q5 24 22 21q2 0 42 -9t99.5 -17t121.5 -8q135 0 211.5 61.5t102.5 188.5q23 110 -26 153.5t-160 43.5h-93q-16 0 -11 21l9 42q0 12 9 19l375 358h-375q-14 0 -21 -8.5t-12 -31.5l-28 -121q-3 -18 -24 -18h-36q-11 0 -14.5 2.5t-0.5 14.5l49 229 q3 14 5.5 16t14.5 2h563q9 0 10.5 -4.5t-1.5 -17.5l-9 -37q-1 -4 -1.5 -7t-1.5 -5.5t-2.5 -5t-2.5 -4t-4 -4.5t-4.5 -5t-7 -6.5t-8.5 -7.5l-359 -343h18q166 0 225 -62.5t27 -208.5q-20 -92 -60.5 -159t-97.5 -105.5t-122 -56.5t-143 -18q-170 0 -276 33q-18 5 -13 26z" />
<glyph unicode="&#xb4;" horiz-adv-x="612" d="M404 1383l194 177q20 23 44 23h80q9 0 12.5 -3.5t0.5 -10t-13 -13.5l-234 -184q-20 -13 -36 -13h-42q-13 0 -15 6.5t9 17.5z" />
<glyph unicode="&#xb5;" horiz-adv-x="1146" d="M88 -397l132 619q3 37 11 70l59 281h6l35 164q9 51 -37 51h-102q-10 0 -12 5.5t2 18.5l6 24q3 16 9 21t19 5q57 1 71 2.5t46 1.5h91q18 0 23 -8t0 -29l-125 -591q-14 -98 19 -133.5t115 -35.5q134 0 222 80.5t128 267.5l69 320q9 51 -37 51h-103q-10 0 -11.5 5.5 t2.5 18.5l6 24q3 16 8.5 21t20.5 5q56 1 70.5 2.5t45.5 1.5h93q18 0 22.5 -8t-0.5 -29l-29 -146h3l-100 -471h-2q-14 -58 -8 -88.5t18.5 -40t35.5 -9.5q49 0 60 43q5 25 9 29.5t21 4.5h28q16 0 19 -4.5t-1 -23.5q-16 -72 -53 -101t-97 -29q-148 0 -140 148 q-108 -154 -311 -154q-114 0 -168 41l-91 -425q-3 -13 -11 -13h-82q-8 0 -5 13z" />
<glyph unicode="&#xb6;" horiz-adv-x="876" d="M223 942q34 158 145 259.5t250 101.5h255l-326 -1539h-91l309 1454h-132l-309 -1454h-89l167 793q-79 1 -128.5 54.5t-60 139t9.5 191.5z" />
<glyph unicode="&#xb7;" horiz-adv-x="551" d="M225 469q7 30 32.5 50.5t57.5 20.5q31 0 49.5 -21t11.5 -50q-5 -29 -32.5 -50t-58.5 -21q-32 0 -48.5 20.5t-11.5 50.5z" />
<glyph unicode="&#xb8;" horiz-adv-x="523" d="M-99 -326l21 26q10 15 22 10q41 -15 95 -15q95 0 114 87q6 30 -15.5 46.5t-87.5 16.5q-4 0 -16 -1t-13 0t-0.5 7t9.5 19l85 130h88l-65 -101q68 0 94.5 -33.5t15.5 -83.5q-18 -81 -75.5 -118.5t-133.5 -37.5q-74 0 -128 20q-15 7 -15 14q1 7 5 14z" />
<glyph unicode="&#xb9;" horiz-adv-x="618" d="M136 577l5 26q3 8 4 11.5t5.5 6.5t11.5 3q60 1 88 2.5t52 3.5t32.5 10.5t13 17.5t9.5 29l168 788q0 5 -1.5 7t-5.5 1.5t-9 -3t-14 -7.5l-164 -95q-11 -6 -17 -4t-3 13l9 47q3 14 28 29l214 125q27 13 51 13h18q16 0 13 -15l-192 -899q-10 -43 13 -52t148 -9q14 0 16 -5.5 t-2 -19.5l-3 -22q-3 -13 -7.5 -16.5t-18.5 -3.5h-447q-13 0 -15 3.5t0 14.5z" />
<glyph unicode="&#xba;" horiz-adv-x="1001" d="M218 896q18 84 55.5 157t94.5 134.5t140.5 97t184.5 35.5q90 0 157.5 -25.5t105.5 -70t59.5 -104t19.5 -126.5t-15 -139q-18 -83 -55.5 -157.5t-95.5 -136.5t-142.5 -98.5t-184.5 -36.5q-75 0 -134.5 18.5t-98 51.5t-64 76.5t-34.5 97t-7.5 109.5t14.5 117zM318 869 q-18 -71 -12.5 -136t28.5 -114.5t76.5 -79t131.5 -29.5t142.5 29t110 79.5t75.5 113.5t46 137q12 58 12.5 110.5t-12.5 100t-40 82t-73.5 54.5t-108.5 20q-77 0 -142.5 -30.5t-111 -83t-76.5 -116.5t-46 -137z" />
<glyph unicode="&#xbb;" horiz-adv-x="927" d="M58 86q-3 5 -1 8.5t23 22.5l402 360l-251 366q-10 14 -10 19t8 9l52 34q11 9 24 -13l285 -399q9 -12 7 -19.5t-18 -21.5l-447 -387q-15 -13 -20.5 -15.5t-14.5 2.5zM348 86q-4 5 -1.5 8.5t24.5 22.5l400 360l-252 366q-9 14 -9 18.5t8 9.5l52 34q12 8 24 -13l285 -399 q10 -13 8 -20t-19 -21l-447 -387q-15 -13 -21 -15.5t-15 2.5z" />
<glyph unicode="&#xbf;" horiz-adv-x="901" d="M-11 -110q14 66 37.5 115t52 79t62 52t68.5 37.5t69.5 30.5t67.5 36t61 50t51.5 76.5t36.5 111.5l34 155q3 13 6 16t14 3h64q5 0 8.5 -5t2.5 -12l-32 -149q-20 -95 -55.5 -161t-76.5 -100t-86.5 -56.5t-90 -41.5t-83 -44t-70 -74t-46.5 -123q-12 -58 4 -97.5t55 -58 t80.5 -26t93.5 -7.5q83 0 130 6.5t138 26.5l63 235q5 13 8.5 15.5t17.5 2.5h35q14 0 17 -2.5t0 -19.5l-56 -261q-5 -20 -11 -28t-24 -15q-49 -20 -145 -33t-194 -13q-42 0 -77.5 3.5t-72 11.5t-63.5 22t-51 35t-35 50.5t-15.5 68.5t7.5 88zM542 810q7 31 31 52.5t56 21.5 q30 0 48.5 -22t11.5 -52q-6 -34 -32 -53.5t-57 -19.5q-33 0 -49 19t-9 54z" />
<glyph unicode="&#xc0;" horiz-adv-x="1340" d="M-13 22l6 25q4 18 8.5 22t13.5 4q104 2 132 10.5t39 46.5l24 108q51 243 118.5 438.5t151 341.5t186 225t215.5 79q110 0 179 -78t94 -221t11.5 -342t-65.5 -443l-22 -104q-8 -42 14 -50.5t122 -10.5q10 0 15.5 -2t6.5 -8t0.5 -9.5t-3.5 -13.5t-4 -14q-3 -16 -7.5 -21 t-18.5 -5h-412q-15 0 -18 3t0 19l5 25q3 16 7 21t17 5q49 1 75.5 3t47 5.5t29.5 13.5t14.5 21.5t10.5 34.5l19 87q19 88 28 155h-689q-31 -143 -34 -155l-16 -74l-7.5 -37.5t1.5 -24.5t9 -16t26 -8t39.5 -4t61.5 -1q11 0 16.5 -2t7 -7.5t1 -9t-3.5 -14t-4 -14.5 q-3 -17 -7 -21.5t-21 -4.5h-402q-15 0 -17.5 3t0.5 19zM361 480h680q53 346 6.5 550t-185.5 204q-142 0 -272.5 -200.5t-228.5 -553.5zM722 1592q-8 11 -4 18.5t17 7.5h67q16 0 22.5 -4t15.5 -18l139 -213q19 -22 -9 -22h-45q-12 0 -18.5 4.5t-20.5 21.5z" />
<glyph unicode="&#xc1;" horiz-adv-x="1340" d="M-13 22l6 25q4 18 8.5 22t13.5 4q104 2 132 10.5t39 46.5l24 108q51 243 118.5 438.5t151 341.5t186 225t215.5 79q110 0 179 -78t94 -221t11.5 -342t-65.5 -443l-22 -104q-8 -42 14 -50.5t122 -10.5q10 0 15.5 -2t6.5 -8t0.5 -9.5t-3.5 -13.5t-4 -14q-3 -16 -7.5 -21 t-18.5 -5h-412q-15 0 -18 3t0 19l5 25q3 16 7 21t17 5q49 1 75.5 3t47 5.5t29.5 13.5t14.5 21.5t10.5 34.5l19 87q19 88 28 155h-689q-31 -143 -34 -155l-16 -74l-7.5 -37.5t1.5 -24.5t9 -16t26 -8t39.5 -4t61.5 -1q11 0 16.5 -2t7 -7.5t1 -9t-3.5 -14t-4 -14.5 q-3 -17 -7 -21.5t-21 -4.5h-402q-15 0 -17.5 3t0.5 19zM361 480h680q53 346 6.5 550t-185.5 204q-142 0 -272.5 -200.5t-228.5 -553.5zM834 1402l192 177q19 22 45 22h80q9 0 12.5 -3.5t0.5 -9.5t-13 -13l-235 -184q-20 -13 -35 -13h-43q-13 0 -14.5 6.5t10.5 17.5z" />
<glyph unicode="&#xc2;" horiz-adv-x="1340" d="M-13 22l6 25q4 18 8.5 22t13.5 4q104 2 132 10.5t39 46.5l24 108q51 243 118.5 438.5t151 341.5t186 225t215.5 79q110 0 179 -78t94 -221t11.5 -342t-65.5 -443l-22 -104q-8 -42 14 -50.5t122 -10.5q10 0 15.5 -2t6.5 -8t0.5 -9.5t-3.5 -13.5t-4 -14q-3 -16 -7.5 -21 t-18.5 -5h-412q-15 0 -18 3t0 19l5 25q3 16 7 21t17 5q49 1 75.5 3t47 5.5t29.5 13.5t14.5 21.5t10.5 34.5l19 87q19 88 28 155h-689q-31 -143 -34 -155l-16 -74l-7.5 -37.5t1.5 -24.5t9 -16t26 -8t39.5 -4t61.5 -1q11 0 16.5 -2t7 -7.5t1 -9t-3.5 -14t-4 -14.5 q-3 -17 -7 -21.5t-21 -4.5h-402q-15 0 -17.5 3t0.5 19zM361 480h680q53 346 6.5 550t-185.5 204q-142 0 -272.5 -200.5t-228.5 -553.5zM663 1381q-3 11 0 16.5t13 13.5l201 159q17 14 37 14h43q21 0 35 -14l133 -159q6 -5 7 -10.5t-1.5 -10.5t-6 -8.5l-9.5 -9.5 q-9 -9 -14.5 -9.5t-13.5 5.5l-169 133l-222 -133q-17 -6 -22 -3.5t-11 16.5z" />
<glyph unicode="&#xc3;" horiz-adv-x="1340" d="M-13 22l6 25q4 18 8.5 22t13.5 4q104 2 132 10.5t39 46.5l24 108q51 243 118.5 438.5t151 341.5t186 225t215.5 79q110 0 179 -78t94 -221t11.5 -342t-65.5 -443l-22 -104q-8 -42 14 -50.5t122 -10.5q10 0 15.5 -2t6.5 -8t0.5 -9.5t-3.5 -13.5t-4 -14q-3 -16 -7.5 -21 t-18.5 -5h-412q-15 0 -18 3t0 19l5 25q3 16 7 21t17 5q49 1 75.5 3t47 5.5t29.5 13.5t14.5 21.5t10.5 34.5l19 87q19 88 28 155h-689q-31 -143 -34 -155l-16 -74l-7.5 -37.5t1.5 -24.5t9 -16t26 -8t39.5 -4t61.5 -1q11 0 16.5 -2t7 -7.5t1 -9t-3.5 -14t-4 -14.5 q-3 -17 -7 -21.5t-21 -4.5h-402q-15 0 -17.5 3t0.5 19zM361 480h680q53 346 6.5 550t-185.5 204q-142 0 -272.5 -200.5t-228.5 -553.5zM721 1406q-13 6 0 24q37 48 68.5 69.5t70.5 21.5q44 0 89 -31.5t68 -31.5q18 0 30.5 9t30.5 35q10 16 20 10l32 -19q6 -5 6 -8t-6 -12 q-34 -47 -65 -71t-69 -24q-34 0 -62.5 16t-50.5 31.5t-41 15.5q-17 0 -29.5 -9t-39.5 -36q-11 -13 -25 -7z" />
<glyph unicode="&#xc4;" horiz-adv-x="1340" d="M-13 22l6 25q4 18 8.5 22t13.5 4q104 2 132 10.5t39 46.5l24 108q51 243 118.5 438.5t151 341.5t186 225t215.5 79q110 0 179 -78t94 -221t11.5 -342t-65.5 -443l-22 -104q-8 -42 14 -50.5t122 -10.5q10 0 15.5 -2t6.5 -8t0.5 -9.5t-3.5 -13.5t-4 -14q-3 -16 -7.5 -21 t-18.5 -5h-412q-15 0 -18 3t0 19l5 25q3 16 7 21t17 5q49 1 75.5 3t47 5.5t29.5 13.5t14.5 21.5t10.5 34.5l19 87q19 88 28 155h-689q-31 -143 -34 -155l-16 -74l-7.5 -37.5t1.5 -24.5t9 -16t26 -8t39.5 -4t61.5 -1q11 0 16.5 -2t7 -7.5t1 -9t-3.5 -14t-4 -14.5 q-3 -17 -7 -21.5t-21 -4.5h-402q-15 0 -17.5 3t0.5 19zM361 480h680q53 346 6.5 550t-185.5 204q-142 0 -272.5 -200.5t-228.5 -553.5zM681 1445q5 26 27.5 44.5t51.5 18.5q30 0 44.5 -18.5t9.5 -44.5q-5 -27 -28.5 -44.5t-53.5 -17.5q-29 0 -42.5 17.5t-8.5 44.5z M1002 1445q5 26 28 44.5t54 18.5q30 0 43.5 -18t8.5 -45t-28.5 -44.5t-53.5 -17.5t-43.5 17.5t-8.5 44.5z" />
<glyph unicode="&#xc5;" horiz-adv-x="1340" d="M-13 22l6 25q4 18 8.5 22t13.5 4q104 2 132 10.5t39 46.5l24 108q51 243 118.5 438.5t151 341.5t186 225t215.5 79q110 0 179 -78t94 -221t11.5 -342t-65.5 -443l-22 -104q-8 -42 14 -50.5t122 -10.5q10 0 15.5 -2t6.5 -8t0.5 -9.5t-3.5 -13.5t-4 -14q-3 -16 -7.5 -21 t-18.5 -5h-412q-15 0 -18 3t0 19l5 25q3 16 7 21t17 5q49 1 75.5 3t47 5.5t29.5 13.5t14.5 21.5t10.5 34.5l19 87q19 88 28 155h-689q-31 -143 -34 -155l-16 -74l-7.5 -37.5t1.5 -24.5t9 -16t26 -8t39.5 -4t61.5 -1q11 0 16.5 -2t7 -7.5t1 -9t-3.5 -14t-4 -14.5 q-3 -17 -7 -21.5t-21 -4.5h-402q-15 0 -17.5 3t0.5 19zM361 480h680q53 346 6.5 550t-185.5 204q-142 0 -272.5 -200.5t-228.5 -553.5zM721 1504q13 57 69 95.5t160 38.5q102 0 141 -38.5t26 -95.5q-11 -57 -67 -96.5t-158 -39.5q-103 0 -142.5 39.5t-28.5 96.5zM806 1504 q-6 -31 14 -51.5t85 -20.5q111 0 126 72q6 29 -14.5 50t-81.5 21q-113 0 -129 -71z" />
<glyph unicode="&#xc6;" horiz-adv-x="1820" d="M-13 22l6 25q4 18 8.5 22t13.5 4q104 2 132 10.5t39 46.5l24 108q51 243 118.5 438.5t151 341.5t186 225t215.5 79q115 0 184.5 -84t92.5 -242l61 289q3 12 7 15t16 3h605q11 0 14.5 -0.5t6.5 -5t-1 -14.5l-59 -278q-7 -35 -32 -35h-24q-15 0 -18 4.5t-1 17.5l26 185 q3 18 0.5 26.5t-18.5 8.5l-436 -2l-108 -506h291q16 0 20.5 -3.5t1.5 -17.5l-9 -43q-5 -17 -11.5 -22t-24.5 -5h-288l-54 -256q-4 -20 -11.5 -60t-11.5 -59l-22 -104q-7 -31 0 -41l458 -2q9 0 14.5 2t9 7.5t5.5 10t5 16.5l52 184q8 22 33 22h24q22 0 15 -35l-59 -278 q-3 -14 -8 -17t-20 -3h-816q-15 0 -18 3t0 19l5 25q3 16 7 21t17 5q104 2 133.5 11.5t40.5 47.5l31 153q16 91 19 108h-689q-31 -143 -34 -155l-16 -74l-7.5 -37.5t1.5 -24.5t9 -16t26 -8t39.5 -4t61.5 -1q11 0 16.5 -2t7 -7.5t1 -9t-3.5 -14t-4 -14.5q-3 -17 -7 -21.5 t-21 -4.5h-402q-15 0 -17.5 3t0.5 19zM361 480h680q53 346 6.5 550t-185.5 204q-142 0 -272.5 -200.5t-228.5 -553.5z" />
<glyph unicode="&#xc7;" horiz-adv-x="1223" d="M192 642q73 339 255.5 509.5t457.5 170.5q229 0 367 -37q18 -7 21.5 -14t-1.5 -33l-61 -287q-2 -11 -5 -15.5t-7 -5.5t-14 -1h-43q-15 0 -18.5 4t-0.5 15l36 260q-110 28 -269 28q-233 0 -391 -150t-223 -451q-63 -295 32.5 -427t347.5 -132q152 0 380 45q16 3 21 -1 t1 -18l-6 -31q-5 -23 -12.5 -30t-29.5 -11q-211 -43 -360 -43h-13l-44 -73q68 0 93.5 -33t14.5 -84q-17 -80 -75 -118t-134 -38q-74 0 -128 20q-11 4 -14 8t4 20l21 26q8 15 24 9q38 -14 93 -14q95 0 114 87q6 30 -14.5 46.5t-86.5 16.5q-5 0 -13.5 -1t-11.5 -0.5t-6 2.5 t-0.5 8t9.5 16l69 106q-252 23 -349.5 179.5t-30.5 471.5z" />
<glyph unicode="&#xc8;" horiz-adv-x="1066" d="M132 371q16 68 45.5 121t64 85t80.5 55.5t84.5 35t86.5 19.5q-26 5 -51.5 18t-53.5 38t-44 62t-23 90.5t9 122.5q61 304 431 304q210 0 332 -43q23 -7 25 -15t-6 -30l-51 -242q-4 -16 -7.5 -19t-18.5 -3h-35q-11 0 -13.5 3t-1.5 16l26 217q-84 28 -250 28 q-67 0 -118.5 -10t-97 -33.5t-76 -67.5t-43.5 -108q-60 -285 274 -285h134q11 0 14.5 -5.5t0.5 -20.5l-7 -34q-4 -16 -10 -22t-17 -6h-134q-383 0 -443 -283q-33 -151 45.5 -219.5t273.5 -68.5q40 0 85 3t81 8t72.5 11t60 10.5t44 9t22.5 4.5q11 3 13.5 -1t-0.5 -17l-12 -52 q-3 -11 -10 -15.5t-23 -9.5q-51 -16 -146 -28.5t-195 -12.5q-56 0 -103.5 4t-93 12.5t-81 23.5t-65.5 36t-49 51t-29.5 68t-9.5 87t14 108zM635 1592q-8 11 -4 18.5t17 7.5h67q16 0 22 -4t15 -18l140 -213q19 -22 -9 -22h-45q-12 0 -18.5 4.5t-20.5 21.5z" />
<glyph unicode="&#xc9;" horiz-adv-x="1066" d="M132 371q16 68 45.5 121t64 85t80.5 55.5t84.5 35t86.5 19.5q-26 5 -51.5 18t-53.5 38t-44 62t-23 90.5t9 122.5q61 304 431 304q210 0 332 -43q23 -7 25 -15t-6 -30l-51 -242q-4 -16 -7.5 -19t-18.5 -3h-35q-11 0 -13.5 3t-1.5 16l26 217q-84 28 -250 28 q-67 0 -118.5 -10t-97 -33.5t-76 -67.5t-43.5 -108q-60 -285 274 -285h134q11 0 14.5 -5.5t0.5 -20.5l-7 -34q-4 -16 -10 -22t-17 -6h-134q-383 0 -443 -283q-33 -151 45.5 -219.5t273.5 -68.5q40 0 85 3t81 8t72.5 11t60 10.5t44 9t22.5 4.5q11 3 13.5 -1t-0.5 -17l-12 -52 q-3 -11 -10 -15.5t-23 -9.5q-51 -16 -146 -28.5t-195 -12.5q-56 0 -103.5 4t-93 12.5t-81 23.5t-65.5 36t-49 51t-29.5 68t-9.5 87t14 108zM748 1402l192 177q19 22 45 22h80q9 0 12.5 -3.5t0.5 -9.5t-13 -13l-235 -184q-20 -13 -35 -13h-43q-13 0 -14.5 6.5t10.5 17.5z" />
<glyph unicode="&#xca;" horiz-adv-x="1066" d="M132 371q16 68 45.5 121t64 85t80.5 55.5t84.5 35t86.5 19.5q-26 5 -51.5 18t-53.5 38t-44 62t-23 90.5t9 122.5q61 304 431 304q210 0 332 -43q23 -7 25 -15t-6 -30l-51 -242q-4 -16 -7.5 -19t-18.5 -3h-35q-11 0 -13.5 3t-1.5 16l26 217q-84 28 -250 28 q-67 0 -118.5 -10t-97 -33.5t-76 -67.5t-43.5 -108q-60 -285 274 -285h134q11 0 14.5 -5.5t0.5 -20.5l-7 -34q-4 -16 -10 -22t-17 -6h-134q-383 0 -443 -283q-33 -151 45.5 -219.5t273.5 -68.5q40 0 85 3t81 8t72.5 11t60 10.5t44 9t22.5 4.5q11 3 13.5 -1t-0.5 -17l-12 -52 q-3 -11 -10 -15.5t-23 -9.5q-51 -16 -146 -28.5t-195 -12.5q-56 0 -103.5 4t-93 12.5t-81 23.5t-65.5 36t-49 51t-29.5 68t-9.5 87t14 108zM577 1381q-3 11 0 16.5t13 13.5l201 159q17 14 38 14h42q22 0 36 -14l132 -159q5 -5 6.5 -10t-1 -10.5t-5.5 -9t-9 -9.5 q-9 -9 -14.5 -9.5t-13.5 5.5l-170 133l-221 -133q-17 -6 -22.5 -3.5t-11.5 16.5z" />
<glyph unicode="&#xcb;" horiz-adv-x="1066" d="M132 371q16 68 45.5 121t64 85t80.5 55.5t84.5 35t86.5 19.5q-26 5 -51.5 18t-53.5 38t-44 62t-23 90.5t9 122.5q61 304 431 304q210 0 332 -43q23 -7 25 -15t-6 -30l-51 -242q-4 -16 -7.5 -19t-18.5 -3h-35q-11 0 -13.5 3t-1.5 16l26 217q-84 28 -250 28 q-67 0 -118.5 -10t-97 -33.5t-76 -67.5t-43.5 -108q-60 -285 274 -285h134q11 0 14.5 -5.5t0.5 -20.5l-7 -34q-4 -16 -10 -22t-17 -6h-134q-383 0 -443 -283q-33 -151 45.5 -219.5t273.5 -68.5q40 0 85 3t81 8t72.5 11t60 10.5t44 9t22.5 4.5q11 3 13.5 -1t-0.5 -17l-12 -52 q-3 -11 -10 -15.5t-23 -9.5q-51 -16 -146 -28.5t-195 -12.5q-56 0 -103.5 4t-93 12.5t-81 23.5t-65.5 36t-49 51t-29.5 68t-9.5 87t14 108zM594 1445q5 26 27 44.5t51 18.5q30 0 44.5 -18.5t9.5 -44.5q-5 -27 -28.5 -44.5t-53.5 -17.5q-29 0 -42 17.5t-8 44.5zM914 1445 q5 26 28 44.5t54 18.5q30 0 43.5 -18t8.5 -45t-28.5 -44.5t-53.5 -17.5t-43.5 17.5t-8.5 44.5z" />
<glyph unicode="&#xcc;" horiz-adv-x="672" d="M45 22l5 25q3 11 4 15t6 7.5t14 3.5q28 0 43 0.5t34 1.5t27.5 2t20.5 4.5t16.5 5.5t12 8.5t9.5 12t6 16t6.5 19.5t5.5 25l207 977h2q4 17 5.5 27t0.5 20t-2.5 15t-10 10t-16.5 7t-26 4t-35 2.5t-47 0.5q-20 0 -23 5.5t1 23.5q1 3 2.5 10t2 9.5t2 7.5t3.5 7t5.5 4.5 t7.5 3.5t10 1h408q16 0 19 -4t0 -18l-6 -24q-3 -11 -4 -15t-6 -7.5t-14 -3.5q-46 -1 -67 -1.5t-44.5 -4.5t-31 -8t-17 -17t-12.5 -25.5t-9 -38.5l-5 -30h-2l-199 -937q-5 -22 -7 -31t-2 -22.5t1 -17.5t9.5 -11t15 -7.5t26.5 -3t35.5 -3t49.5 -0.5q11 0 16.5 -2t7 -7.5t1 -9 t-3.5 -14t-4 -14.5q-3 -16 -7.5 -21t-20.5 -5h-406q-17 0 -20.5 4t0.5 18zM389 1592q-8 11 -4 18.5t17 7.5h67q11 0 17.5 -2.5t10 -6t9.5 -13.5l140 -213q19 -22 -9 -22h-45q-12 0 -18.5 4.5t-20.5 21.5z" />
<glyph unicode="&#xcd;" horiz-adv-x="672" d="M45 22l5 25q3 11 4 15t6 7.5t14 3.5q28 0 43 0.5t34 1.5t27.5 2t20.5 4.5t16.5 5.5t12 8.5t9.5 12t6 16t6.5 19.5t5.5 25l207 977h2q4 17 5.5 27t0.5 20t-2.5 15t-10 10t-16.5 7t-26 4t-35 2.5t-47 0.5q-20 0 -23 5.5t1 23.5q1 3 2.5 10t2 9.5t2 7.5t3.5 7t5.5 4.5 t7.5 3.5t10 1h408q16 0 19 -4t0 -18l-6 -24q-3 -11 -4 -15t-6 -7.5t-14 -3.5q-46 -1 -67 -1.5t-44.5 -4.5t-31 -8t-17 -17t-12.5 -25.5t-9 -38.5l-5 -30h-2l-199 -937q-5 -22 -7 -31t-2 -22.5t1 -17.5t9.5 -11t15 -7.5t26.5 -3t35.5 -3t49.5 -0.5q11 0 16.5 -2t7 -7.5t1 -9 t-3.5 -14t-4 -14.5q-3 -16 -7.5 -21t-20.5 -5h-408q-16 0 -19 4t1 18zM503 1402l191 177q19 22 45 22h80q9 0 12.5 -3.5t0.5 -9.5t-13 -13l-234 -184q-20 -13 -36 -13h-43q-13 0 -14 6.5t11 17.5z" />
<glyph unicode="&#xce;" horiz-adv-x="672" d="M45 22l5 25q3 11 4 15t6 7.5t14 3.5q28 0 43 0.5t34 1.5t27.5 2t20.5 4.5t16.5 5.5t12 8.5t9.5 12t6 16t6.5 19.5t5.5 25l207 977h2q4 17 5.5 27t0.5 20t-2.5 15t-10 10t-16.5 7t-26 4t-35 2.5t-47 0.5q-20 0 -23 5.5t1 23.5q1 3 2.5 10t2 9.5t2 7.5t3.5 7t5.5 4.5 t7.5 3.5t10 1h408q16 0 19 -4t0 -18l-6 -24q-3 -11 -4 -15t-6 -7.5t-14 -3.5q-46 -1 -67 -1.5t-44.5 -4.5t-31 -8t-17 -17t-12.5 -25.5t-9 -38.5l-5 -30h-2l-199 -937q-5 -22 -7 -31t-2 -22.5t1 -17.5t9.5 -11t15 -7.5t26.5 -3t35.5 -3t49.5 -0.5q11 0 16.5 -2t7 -7.5t1 -9 t-3.5 -14t-4 -14.5q-3 -16 -7.5 -21t-20.5 -5h-406q-17 0 -20.5 4t0.5 18zM331 1381q-3 11 0 16.5t13 13.5l202 159q17 14 37 14h43q21 0 35 -14l132 -159q5 -5 6.5 -10t-1 -10.5t-5.5 -9t-9 -9.5q-9 -9 -14.5 -9.5t-13.5 5.5l-170 133l-221 -133q-17 -6 -22.5 -3.5 t-11.5 16.5z" />
<glyph unicode="&#xcf;" horiz-adv-x="672" d="M45 22l5 25q3 11 4 15t6 7.5t14 3.5q28 0 43 0.5t34 1.5t27.5 2t20.5 4.5t16.5 5.5t12 8.5t9.5 12t6 16t6.5 19.5t5.5 25l207 977h2q4 17 5.5 27t0.5 20t-2.5 15t-10 10t-16.5 7t-26 4t-35 2.5t-47 0.5q-20 0 -23 5.5t1 23.5q1 3 2.5 10t2 9.5t2 7.5t3.5 7t5.5 4.5 t7.5 3.5t10 1h408q16 0 19 -4t0 -18l-6 -24q-3 -11 -4 -15t-6 -7.5t-14 -3.5q-46 -1 -67 -1.5t-44.5 -4.5t-31 -8t-17 -17t-12.5 -25.5t-9 -38.5l-5 -30h-2l-199 -937q-5 -22 -7 -31t-2 -22.5t1 -17.5t9.5 -11t15 -7.5t26.5 -3t35.5 -3t49.5 -0.5q11 0 16.5 -2t7 -7.5t1 -9 t-3.5 -14t-4 -14.5q-3 -16 -7.5 -21t-20.5 -5h-406q-17 0 -20.5 4t0.5 18zM348 1445q5 26 27 44.5t51 18.5q30 0 44.5 -18.5t9.5 -45t-28.5 -44t-53.5 -17.5q-29 0 -42 17.5t-8 44.5zM668 1445q5 26 28 44.5t54 18.5q30 0 43.5 -18t8.5 -45q-3 -13 -10 -24.5t-17.5 -19.5 t-24.5 -13t-29 -5q-30 0 -44 17.5t-9 44.5z" />
<glyph unicode="&#xd0;" horiz-adv-x="1368" d="M52 22l6 25q3 16 7 21t17 5q81 1 111 6.5t42 19t20 52.5l106 499h-166q-9 0 -12.5 3.5t-0.5 13.5l12 52q2 15 16 15h168l93 433q10 44 -12 53t-129 11q-14 0 -18 3.5t-1 16.5l7 32q3 14 7 17t19 3h406q182 0 307.5 -46.5t190 -133.5t80.5 -212t-21 -282 q-133 -629 -812 -629h-424q-15 0 -18.5 4t-0.5 18zM343 86h160q297 0 468.5 137.5t231.5 422.5q124 575 -460 575h-158l-105 -487h268q16 0 13 -13l-11 -53q-3 -12 -8 -15t-16 -3h-262z" />
<glyph unicode="&#xd1;" d="M47 22l5 25q3 15 9 20.5t21 5.5q43 1 63.5 1.5t42 4.5t29 7.5t16.5 16t11.5 23.5t8.5 36l214 1003q2 12 3 20t-1.5 15.5t-5.5 11.5t-12 7.5t-18.5 5.5t-28 3.5t-36.5 2t-48 0.5q-13 0 -15 6.5t2 19.5l6 24q3 14 7.5 18t18.5 4h208q39 0 51 -33l426 -1147l218 1029 q5 23 5 34t-5 21.5t-23 14.5t-44.5 6t-74.5 3q-13 0 -15 6.5t2 19.5l6 24q3 14 7.5 18t18.5 4h402q19 0 19.5 -13.5t-6.5 -29.5q-3 -19 -8 -24t-25 -5q-75 -1 -103 -6t-40.5 -19.5t-20.5 -54.5l-237 -1108q-9 -43 -37 -43h-46q-43 0 -53 24l-413 1102l-205 -962 q-5 -24 -7 -35.5t1 -24t9.5 -16.5t25 -8.5t40.5 -5t62 -1.5q10 0 15 -2t6 -7.5t0.5 -9.5t-3 -13.5t-3.5 -14.5q-3 -17 -7.5 -21.5t-19.5 -4.5h-402q-15 0 -17 4t1 18zM754 1406q-13 6 0 24q37 47 69 69t71 22q34 0 62 -15.5t50.5 -31.5t43.5 -16q18 0 31 9t31 35 q10 16 20 10l32 -19q6 -5 6 -8t-6 -12q-34 -47 -65 -71t-69 -24q-34 0 -63 16t-51 31.5t-41 15.5q-17 0 -29.5 -9t-39.5 -36q-11 -13 -24 -7z" />
<glyph unicode="&#xd2;" d="M195 672q30 142 91.5 259.5t150 205.5t209 136.5t261.5 48.5q122 0 216.5 -34t153.5 -95t92 -147t33 -190.5t-24 -224.5q-65 -299 -248.5 -474.5t-466.5 -175.5q-122 0 -215.5 33.5t-152 95t-91 147.5t-32.5 190.5t23 224.5zM302 655q-57 -273 39.5 -428.5t323.5 -155.5 t388.5 155.5t218.5 428.5q58 271 -39 424.5t-326 153.5q-226 0 -386 -153.5t-219 -424.5zM767 1592q-8 11 -4 18.5t17 7.5h67q16 0 22 -4t15 -18l140 -213q19 -22 -9 -22h-45q-12 0 -18.5 4.5t-20.5 21.5z" />
<glyph unicode="&#xd3;" d="M195 672q30 142 91.5 259.5t150 205.5t209 136.5t261.5 48.5q122 0 216.5 -34t153.5 -95t92 -147t33 -190.5t-24 -224.5q-65 -299 -248.5 -474.5t-466.5 -175.5q-122 0 -215.5 33.5t-152 95t-91 147.5t-32.5 190.5t23 224.5zM302 655q-57 -273 39.5 -428.5t323.5 -155.5 t388.5 155.5t218.5 428.5q58 271 -39 424.5t-326 153.5q-226 0 -386 -153.5t-219 -424.5zM881 1402l191 177q19 22 45 22h80q9 0 12.5 -3.5t0.5 -9.5t-13 -13l-234 -184q-20 -13 -36 -13h-43q-9 0 -12.5 3t-1 8.5t10.5 12.5z" />
<glyph unicode="&#xd4;" d="M195 672q30 142 91.5 259.5t150 205.5t209 136.5t261.5 48.5q122 0 216.5 -34t153.5 -95t92 -147t33 -190.5t-24 -224.5q-65 -299 -248.5 -474.5t-466.5 -175.5q-122 0 -215.5 33.5t-152 95t-91 147.5t-32.5 190.5t23 224.5zM302 655q-57 -273 39.5 -428.5t323.5 -155.5 t388.5 155.5t218.5 428.5q58 271 -39 424.5t-326 153.5q-226 0 -386 -153.5t-219 -424.5zM709 1381q-3 11 0 16.5t13 13.5l201 159q17 14 38 14h43q21 0 35 -14l132 -159q5 -5 6.5 -10t-1 -10.5t-5.5 -9t-9 -9.5q-9 -9 -14.5 -9.5t-13.5 5.5l-170 133l-221 -133 q-17 -6 -22.5 -3.5t-11.5 16.5z" />
<glyph unicode="&#xd5;" d="M195 672q30 142 91.5 259.5t150 205.5t209 136.5t261.5 48.5q122 0 216.5 -34t153.5 -95t92 -147t33 -190.5t-24 -224.5q-65 -299 -248.5 -474.5t-466.5 -175.5q-122 0 -215.5 33.5t-152 95t-91 147.5t-32.5 190.5t23 224.5zM302 655q-57 -273 39.5 -428.5t323.5 -155.5 t388.5 155.5t218.5 428.5q58 271 -39 424.5t-326 153.5q-226 0 -386 -153.5t-219 -424.5zM767 1406q-13 6 0 24q37 47 69 69t71 22q43 0 88 -31.5t68 -31.5q18 0 31 9t31 35q10 16 20 10l32 -19q6 -5 6 -8t-6 -12q-34 -47 -65 -71t-69 -24q-34 0 -63 16t-51 31.5t-41 15.5 q-17 0 -29.5 -9t-39.5 -36q-11 -13 -24 -7z" />
<glyph unicode="&#xd6;" d="M195 672q30 142 91.5 259.5t150 205.5t209 136.5t261.5 48.5q122 0 216.5 -34t153.5 -95t92 -147t33 -190.5t-24 -224.5q-65 -299 -248.5 -474.5t-466.5 -175.5q-122 0 -215.5 33.5t-152 95t-91 147.5t-32.5 190.5t23 224.5zM302 655q-57 -273 39.5 -428.5t323.5 -155.5 t388.5 155.5t218.5 428.5q58 271 -39 424.5t-326 153.5q-226 0 -386 -153.5t-219 -424.5zM726 1445q5 26 27 44.5t51 18.5q30 0 44.5 -18.5t9.5 -44.5q-5 -27 -28.5 -44.5t-53.5 -17.5q-29 0 -42 17.5t-8 44.5zM1046 1445q5 26 28 44.5t54 18.5q30 0 43.5 -18t8.5 -45 t-28.5 -44.5t-53.5 -17.5t-43.5 17.5t-8.5 44.5z" />
<glyph unicode="&#xd7;" horiz-adv-x="970" d="M130 184l326 293l-238 281l74 67l240 -281l324 292l53 -61l-326 -293l234 -281l-72 -67l-237 279l-326 -290z" />
<glyph unicode="&#xd8;" d="M195 672q30 142 91.5 259.5t150 205.5t209 136.5t261.5 48.5q128 0 225 -37l52 83q9 17 24 17h77q17 0 3 -20l-76 -121q129 -84 170.5 -246.5t-4.5 -366.5q-65 -299 -248.5 -474.5t-466.5 -175.5q-115 0 -211 32l-72 -117q-9 -13 -30 -13h-74q-15 0 -4 13l95 156 q-132 81 -175.5 246t3.5 374zM302 655q-38 -183 -7.5 -315t126.5 -202l661 1065q-79 30 -175 30q-226 0 -386 -153.5t-219 -424.5zM503 95q66 -24 162 -24q227 0 388.5 155.5t218.5 428.5q37 178 8.5 305.5t-118.5 197.5z" />
<glyph unicode="&#xd9;" horiz-adv-x="1413" d="M285 1260q1 2 2.5 11t2.5 11t3.5 8t5 7.5t7.5 3.5t12 2h410q16 0 19 -4t0 -18l-6 -24q-3 -17 -7 -21.5t-17 -4.5q-112 -1 -139 -13.5t-38 -65.5l-149 -703q-39 -183 31 -280.5t239 -97.5t277 97t147 281l148 690l7.5 37.5t-2 24.5t-10 16.5t-25.5 8t-39.5 4t-61.5 1.5 q-20 0 -23 5.5t1 23.5q1 4 2.5 11.5t2.5 11t3 8.5t5 7t8 3.5t12 1.5h401q16 0 19 -4t-1 -18l-5 -24q-3 -13 -7.5 -19t-7 -6.5t-10.5 -0.5q-103 -2 -133 -12t-40 -48l-152 -722q-47 -223 -178 -345.5t-344 -122.5q-229 0 -321 123t-45 345l147 690l7.5 37.5t-1.5 25t-9 16.5 t-25.5 7.5t-39.5 4t-61 1.5q-20 0 -23 5.5t1 23.5zM767 1592q-8 11 -4 18.5t17 7.5h67q11 0 17.5 -2.5t10 -6t9.5 -13.5l140 -213q19 -22 -9 -22h-45q-8 0 -14 3t-10.5 7t-14.5 16z" />
<glyph unicode="&#xda;" horiz-adv-x="1413" d="M285 1260q1 2 2.5 11t2.5 11t3.5 8t5 7.5t7.5 3.5t12 2h410q16 0 19 -4t0 -18l-6 -24q-3 -17 -7 -21.5t-17 -4.5q-112 -1 -139 -13.5t-38 -65.5l-149 -703q-39 -183 31 -280.5t239 -97.5t277 97t147 281l148 690l7.5 37.5t-2 24.5t-10 16.5t-25.5 8t-39.5 4t-61.5 1.5 q-20 0 -23 5.5t1 23.5q1 4 2.5 11.5t2.5 11t3 8.5t5 7t8 3.5t12 1.5h401q16 0 19 -4t-1 -18l-5 -24q-3 -13 -7.5 -19t-7 -6.5t-10.5 -0.5q-103 -2 -133 -12t-40 -48l-152 -722q-47 -223 -178 -345.5t-344 -122.5q-229 0 -321 123t-45 345l147 690l7.5 37.5t-1.5 25t-9 16.5 t-25.5 7.5t-39.5 4t-61 1.5q-20 0 -23 5.5t1 23.5zM879 1402l192 177q19 22 44 22h80q9 0 12.5 -3.5t0.5 -9.5t-13 -13l-234 -184q-20 -13 -36 -13h-42q-13 0 -14.5 6.5t10.5 17.5z" />
<glyph unicode="&#xdb;" horiz-adv-x="1411" d="M285 1260q1 2 2.5 11t2.5 11t3.5 8t5 7.5t7.5 3.5t12 2h410q16 0 19 -4t0 -18l-6 -24q-3 -17 -7 -21.5t-17 -4.5q-112 -1 -139 -13.5t-38 -65.5l-149 -703q-39 -183 31 -280.5t239 -97.5t277 97t147 281l148 690l7.5 37.5t-2 24.5t-10 16.5t-25.5 8t-39.5 4t-61.5 1.5 q-20 0 -23 5.5t1 23.5q1 4 2.5 11.5t2.5 11t3 8.5t5 7t8 3.5t12 1.5h401q16 0 19 -4t-1 -18l-5 -24q-3 -13 -7.5 -19t-7 -6.5t-10.5 -0.5q-103 -2 -133 -12t-40 -48l-152 -722q-47 -223 -178 -345.5t-344 -122.5q-229 0 -321 123t-45 345l147 690l7.5 37.5t-1.5 25t-9 16.5 t-25.5 7.5t-39.5 4t-61 1.5q-20 0 -23 5.5t1 23.5zM709 1372q-5 14 -3.5 21.5t13.5 17.5l201 159q17 14 37 14h43q21 0 35 -14l132 -159q7 -7 6.5 -14.5t-4 -12t-11.5 -12.5q-9 -9 -14.5 -9.5t-13.5 5.5l-169 133l-222 -133q-12 -6 -18 -5.5t-12 9.5z" />
<glyph unicode="&#xdc;" horiz-adv-x="1413" d="M285 1260q1 2 2.5 11t2.5 11t3.5 8t5 7.5t7.5 3.5t12 2h410q16 0 19 -4t0 -18l-6 -24q-3 -17 -7 -21.5t-17 -4.5q-112 -1 -139 -13.5t-38 -65.5l-149 -703q-39 -183 31 -280.5t239 -97.5t277 97t147 281l148 690l7.5 37.5t-2 24.5t-10 16.5t-25.5 8t-39.5 4t-61.5 1.5 q-20 0 -23 5.5t1 23.5q1 4 2.5 11.5t2.5 11t3 8.5t5 7t8 3.5t12 1.5h401q16 0 19 -4t-1 -18l-5 -24q-3 -13 -7.5 -19t-7 -6.5t-10.5 -0.5q-103 -2 -133 -12t-40 -48l-152 -722q-47 -223 -178 -345.5t-344 -122.5q-229 0 -321 123t-45 345l147 690l7.5 37.5t-1.5 25t-9 16.5 t-25.5 7.5t-39.5 4t-61 1.5q-20 0 -23 5.5t1 23.5zM724 1445q5 26 27 44.5t51 18.5q30 0 44.5 -18.5t9.5 -44.5q-3 -17 -14.5 -31.5t-29 -22.5t-37.5 -8q-29 0 -42.5 17.5t-8.5 44.5zM1044 1445q5 26 28 44.5t54 18.5q30 0 44 -18.5t9 -45t-28.5 -44t-53.5 -17.5t-44 17.5 t-9 44.5z" />
<glyph unicode="&#xdd;" horiz-adv-x="1232" d="M240 1249l8 36q3 11 7.5 14.5t14.5 3.5h383q18 0 12 -16l-8 -36q-3 -20 -22 -20q-81 -2 -110 -6.5t-32 -18.5q-14 -65 -15.5 -127.5t9.5 -118.5t27.5 -104.5t44 -98t52.5 -87t59 -82.5q67 57 115 100t108 107t101 123t76.5 134.5t52.5 153.5q2 7 -3.5 11.5t-22 7.5 t-40.5 4t-65 2q-18 0 -15 20l8 36q6 16 20 16h376q11 0 14.5 -3.5t0.5 -14.5l-7 -36q-4 -15 -9 -17q-4 -1 -13 -1q-81 -2 -113 -7t-36 -19q-20 -90 -62 -177t-88.5 -153.5t-116 -141t-121.5 -122t-128 -112.5l-63 -302h1l-5 -28q-5 -22 -7 -31t-2 -22.5t1 -17.5t9.5 -11 t15 -7.5t26.5 -3t35.5 -3t49.5 -0.5q11 0 16.5 -2t7 -7.5t1 -9t-3.5 -14t-4 -14.5q-3 -16 -7.5 -21t-20.5 -5h-408q-16 0 -19 4t1 18l5 25q2 11 4 15t7 7.5t14 3.5q35 0 52 0.5t38.5 2.5t30 3.5t20 7.5t15 11t9.5 17t8.5 22.5t6.5 30.5l69 331q-34 47 -56 79.5t-52.5 83 t-49 92t-37 98t-25.5 109t-6 116t14 128.5q1 7 -5.5 11.5t-23.5 7.5t-42 4.5t-67 2.5q-14 0 -16.5 3.5t1.5 14.5zM788 1402l191 177q19 22 45 22h80q9 0 12.5 -3.5t0.5 -9.5t-13 -13l-235 -184q-20 -13 -35 -13h-43q-9 0 -12.5 3t-1 8.5t10.5 12.5z" />
<glyph unicode="&#xde;" horiz-adv-x="1064" d="M45 22l5 25q3 11 4 15t6 7.5t14 3.5q28 0 43 0.5t34 1.5t27.5 2t20.5 4.5t16.5 5.5t12 8.5t9.5 12t6 16t6.5 19.5t5.5 25v7l-2 2l183 860h3l21 97q5 22 7 31.5t2 22.5t-1 17.5t-9.5 11t-15.5 7.5t-26.5 3.5t-36 3t-49.5 0.5q-20 0 -23 5.5t1 23.5q1 2 2.5 10t2 10t2.5 7 t4 7t5 4.5t7.5 3.5t10.5 1h407q15 0 18.5 -4t0.5 -18l-6 -24q-3 -11 -4 -15t-6 -7.5t-14 -3.5q-44 -1 -65 -1.5t-44 -4t-30.5 -7.5t-17.5 -15t-13.5 -23t-8.5 -35l-22 -108h127q108 0 184.5 -22.5t118 -59t60 -90t18 -109t-15.5 -123.5q-41 -188 -178.5 -293t-350.5 -105 q-87 0 -132 9l-15 -75q-5 -22 -7 -31t-2 -22.5t1 -17.5t9.5 -11t15 -7.5t26.5 -3t35.5 -3t49.5 -0.5q11 0 16.5 -2t7 -7.5t1 -9t-3.5 -14t-4 -14.5q-3 -16 -7.5 -21t-20.5 -5h-408q-16 0 -19 4t1 18zM387 331q13 -5 55.5 -8t75.5 -3q110 0 195 40.5t138 113.5t74 174 q11 49 12.5 91t-11 83.5t-39.5 70t-78.5 46.5t-123.5 18h-164z" />
<glyph unicode="&#xdf;" horiz-adv-x="1066" d="M112 22l206 976q36 164 149.5 244t267.5 80q65 0 117.5 -14.5t94 -45t57.5 -87t0 -132.5q-12 -54 -37.5 -101.5t-53.5 -80.5t-71 -67t-75 -53.5t-80 -47.5q178 -55 247.5 -136t39.5 -218q-34 -161 -159.5 -250t-322.5 -89h-41q-10 0 -13.5 3t-1.5 10l11 54q3 14 9 18 t21 4h41q127 0 227 63t126 185q13 65 0 112.5t-58 79.5t-75.5 46t-93.5 35q-7 3 -11 4q-39 14 -59 29.5t-14 39.5q3 16 18.5 31.5t30.5 24.5t41 22q40 22 72 43.5t70.5 56t66 81t38.5 99.5q10 57 2 95t-36 61t-63 33t-79 10q-110 0 -194 -61t-110 -181l-207 -978 q-3 -13 -7 -16.5t-17 -3.5h-56q-15 0 -18 4t0 18z" />
<glyph unicode="&#xe0;" horiz-adv-x="977" d="M73 209q17 81 62 132.5t104 73t126.5 32t134 17t123 19t97.5 47t53 92.5q17 82 -35.5 132t-178.5 50q-110 0 -198 -35l-52 -194q-2 -10 -5.5 -13t-14.5 -3h-45q-13 0 -15 3.5t0 14.5l45 205q8 42 35 54q35 19 108.5 33.5t157.5 14.5q187 0 254 -79.5t35 -232.5l-75 -345 q-16 -64 -10.5 -98t18.5 -44.5t37 -10.5q47 0 58 43q3 12 4.5 16t5.5 9.5t10.5 7t18.5 1.5h15q21 0 25 -6.5t-1 -21.5q-28 -130 -166 -130q-151 0 -126 173q-67 -86 -167.5 -131.5t-221.5 -45.5q-263 0 -216 220zM177 207q-15 -73 17.5 -105.5t116.5 -32.5q75 0 147.5 27.5 t125.5 70t89.5 93.5t47.5 99l24 112q-40 -43 -110 -62.5t-139.5 -24.5t-136.5 -15.5t-116.5 -49t-65.5 -112.5zM462 1288q-9 11 -4.5 18.5t17.5 7.5h67q15 0 20.5 -4t14.5 -18l142 -212q16 -22 -12 -22h-44q-12 0 -18.5 4.5t-20.5 21.5z" />
<glyph unicode="&#xe1;" horiz-adv-x="1130" d="M134 456q40 193 155.5 310.5t300.5 117.5q212 0 274 -147l19 93q5 20 13 28t27 8h73q10 0 28.5 -0.5t52.5 -1.5t66 -2q15 -1 17.5 -6t-0.5 -20l-6 -26q-3 -16 -6.5 -20t-15.5 -4h-115q-47 -3 -60 -60l-106 -499q-16 -64 -10.5 -98t18.5 -44.5t37 -10.5q46 0 57 43 q5 25 9 29.5t23 4.5h28q16 0 19 -4.5t-1 -23.5q-16 -72 -53.5 -101t-96.5 -29q-70 0 -109 37.5t-31 122.5q-101 -162 -313 -162q-100 0 -169.5 35.5t-102 97.5t-39.5 147t17 185zM233 438q-12 -57 -13.5 -108.5t10.5 -99t36.5 -81.5t68.5 -54.5t104 -20.5q136 0 230 98.5 t130 266.5q35 165 -14.5 263.5t-188.5 98.5q-99 0 -176.5 -52t-121 -131t-65.5 -180zM657 1098l192 177q23 23 47 23h80q8 0 11.5 -3.5t0.5 -9.5t-12 -13l-235 -185q-20 -13 -37 -13h-43q-13 0 -14.5 6.5t10.5 17.5z" />
<glyph unicode="&#xe2;" horiz-adv-x="977" d="M73 209q17 81 62 132.5t104 73t126.5 32t134 17t123 19t97.5 47t53 92.5q17 82 -35.5 132t-178.5 50q-110 0 -198 -35l-52 -194q-2 -10 -5.5 -13t-14.5 -3h-45q-13 0 -15 3.5t0 14.5l45 205q8 42 35 54q35 19 108.5 33.5t157.5 14.5q187 0 254 -79.5t35 -232.5l-75 -345 q-16 -64 -10.5 -98t18.5 -44.5t37 -10.5q47 0 58 43q3 12 4.5 16t5.5 9.5t10.5 7t18.5 1.5h15q21 0 25 -6.5t-1 -21.5q-28 -130 -166 -130q-151 0 -126 173q-67 -86 -167.5 -131.5t-221.5 -45.5q-263 0 -216 220zM177 207q-15 -73 17.5 -105.5t116.5 -32.5q75 0 147.5 27.5 t125.5 70t89.5 93.5t47.5 99l24 112q-40 -43 -110 -62.5t-139.5 -24.5t-136.5 -15.5t-116.5 -49t-65.5 -112.5zM402 1078q-3 5 -3.5 9t2 8t5 6.5t7.5 6.5l201 158q18 15 39 15h43q19 0 34 -15l132 -158q7 -7 7 -14t-3.5 -12.5t-10.5 -12.5q-11 -9 -16.5 -9.5t-13.5 5.5 l-170 132l-221 -132q-18 -6 -22 -3.5t-10 16.5z" />
<glyph unicode="&#xe3;" horiz-adv-x="977" d="M73 209q17 81 62 132.5t104 73t126.5 32t134 17t123 19t97.5 47t53 92.5q17 82 -35.5 132t-178.5 50q-110 0 -198 -35l-52 -194q-2 -10 -5.5 -13t-14.5 -3h-45q-13 0 -15 3.5t0 14.5l45 205q8 42 35 54q35 19 108.5 33.5t157.5 14.5q187 0 254 -79.5t35 -232.5l-75 -345 q-16 -64 -10.5 -98t18.5 -44.5t37 -10.5q47 0 58 43q3 12 4.5 16t5.5 9.5t10.5 7t18.5 1.5h15q21 0 25 -6.5t-1 -21.5q-28 -130 -166 -130q-151 0 -126 173q-67 -86 -167.5 -131.5t-221.5 -45.5q-263 0 -216 220zM177 207q-15 -73 17.5 -105.5t116.5 -32.5q75 0 147.5 27.5 t125.5 70t89.5 93.5t47.5 99l24 112q-40 -43 -110 -62.5t-139.5 -24.5t-136.5 -15.5t-116.5 -49t-65.5 -112.5zM458 1102q-10 6 0 24q37 47 70 69.5t72 22.5q34 0 61.5 -16t49.5 -32t43 -16q18 0 30.5 9.5t30.5 35.5q12 15 21 9l32 -18q7 -6 6.5 -8.5t-6.5 -12.5 q-34 -47 -65 -71t-69 -24q-34 0 -63 16t-51 32t-41 16q-17 0 -29.5 -9t-39.5 -36q-10 -14 -24 -8z" />
<glyph unicode="&#xe4;" horiz-adv-x="977" d="M73 209q17 81 62 132.5t104 73t126.5 32t134 17t123 19t97.5 47t53 92.5q17 82 -35.5 132t-178.5 50q-110 0 -198 -35l-52 -194q-2 -10 -5.5 -13t-14.5 -3h-45q-13 0 -15 3.5t0 14.5l45 205q8 42 35 54q35 19 108.5 33.5t157.5 14.5q187 0 254 -79.5t35 -232.5l-75 -345 q-16 -64 -10.5 -98t18.5 -44.5t37 -10.5q47 0 58 43q3 12 4.5 16t5.5 9.5t10.5 7t18.5 1.5h15q21 0 25 -6.5t-1 -21.5q-28 -130 -166 -130q-151 0 -126 173q-67 -86 -167.5 -131.5t-221.5 -45.5q-263 0 -216 220zM177 207q-15 -73 17.5 -105.5t116.5 -32.5q75 0 147.5 27.5 t125.5 70t89.5 93.5t47.5 99l24 112q-40 -43 -110 -62.5t-139.5 -24.5t-136.5 -15.5t-116.5 -49t-65.5 -112.5zM419 1141q5 27 26.5 45.5t49.5 18.5q30 0 45.5 -19t10.5 -45t-28 -43.5t-54 -17.5q-29 0 -42 17t-8 44zM739 1141q6 27 27.5 45.5t52.5 18.5q30 0 44.5 -19 t9.5 -45t-28 -43.5t-54 -17.5q-30 0 -43.5 17t-8.5 44z" />
<glyph unicode="&#xe5;" horiz-adv-x="977" d="M73 209q17 81 62 132.5t104 73t126.5 32t134 17t123 19t97.5 47t53 92.5q17 82 -35.5 132t-178.5 50q-110 0 -198 -35l-52 -194q-2 -10 -5.5 -13t-14.5 -3h-45q-13 0 -15 3.5t0 14.5l45 205q8 42 35 54q35 19 108.5 33.5t157.5 14.5q187 0 254 -79.5t35 -232.5l-75 -345 q-16 -64 -10.5 -98t18.5 -44.5t37 -10.5q47 0 58 43q3 12 4.5 16t5.5 9.5t10.5 7t18.5 1.5h15q21 0 25 -6.5t-1 -21.5q-28 -130 -166 -130q-151 0 -126 173q-67 -86 -167.5 -131.5t-221.5 -45.5q-263 0 -216 220zM177 207q-15 -73 17.5 -105.5t116.5 -32.5q75 0 147.5 27.5 t125.5 70t89.5 93.5t47.5 99l24 112q-40 -43 -110 -62.5t-139.5 -24.5t-136.5 -15.5t-116.5 -49t-65.5 -112.5zM460 1201q11 57 67 95.5t160 38.5q102 0 141 -38.5t28 -95.5q-13 -57 -69 -96.5t-158 -39.5q-103 0 -142.5 39.5t-26.5 96.5zM546 1201q-7 -32 12.5 -52.5 t83.5 -20.5q61 0 92 21.5t37 51.5q5 29 -16 50t-81 21q-115 0 -128 -71z" />
<glyph unicode="&#xe6;" horiz-adv-x="1487" d="M69 192q7 33 19.5 61t26.5 49.5t35.5 39t39.5 30t46 22.5t47 16t51.5 12t51 9t52.5 7q39 4 65.5 8.5t59.5 13t55.5 21t45 31t37 46t21.5 62.5q6 29 7.5 50t-2.5 43t-17 37t-36 27.5t-60.5 18.5t-88.5 6q-117 0 -181 -26l-46 -180q-4 -12 -9 -15.5t-17 -3.5h-39 q-13 0 -16 4.5t1 14.5l41 193q5 24 12 35t23 19q33 17 100 29t150 12q141 0 207 -38.5t76 -115.5q124 154 348 154q156 0 222.5 -66t39.5 -189q-9 -42 -27 -77.5t-41.5 -62t-57.5 -47t-68 -34.5t-79.5 -24.5t-86 -16t-94.5 -8.5t-96.5 -4t-100.5 -1h-2q-10 -83 2 -140.5 t45.5 -89.5t78.5 -45.5t108 -13.5q57 0 116 12.5t90.5 23.5t89.5 35q21 6 22.5 -9t-5.5 -34q-4 -20 -11 -28t-24 -17q-128 -67 -304 -67q-288 0 -314 239q-62 -113 -168 -176t-236 -63q-250 0 -205 211zM173 192q-28 -129 121 -129q69 0 135.5 28t114.5 71.5t81.5 96 t44.5 102.5l19 93q-17 -21 -41 -36.5t-47 -25t-54.5 -17t-55.5 -11t-59 -7.5q-5 -1 -14 -2q-28 -4 -42.5 -6.5t-39.5 -7t-38.5 -10t-33 -14t-31.5 -20t-25 -26.5t-21.5 -35t-13.5 -44zM797 434h4q61 1 92.5 1.5t87.5 3t87.5 8t76 14t70.5 23t54 34.5t44.5 48t23.5 63 q19 84 -30.5 128t-150.5 44q-146 0 -233 -90t-126 -277z" />
<glyph unicode="&#xe7;" horiz-adv-x="895" d="M128 475q45 202 168.5 305.5t314.5 103.5q78 0 146.5 -12.5t104.5 -29.5q14 -7 17 -16t-2 -33l-50 -236q-3 -19 -23 -19h-43q-18 0 -13 17l36 218q-70 28 -171 28q-309 0 -384 -347q-16 -76 -17.5 -135.5t12 -100.5t37 -69.5t61 -44.5t80.5 -23t99 -7q41 0 76.5 4 t60.5 9.5t88 20.5q14 4 18 -2.5t1 -23.5l-8 -30q-1 -13 -7 -19t-23 -11q-89 -31 -214 -31h-26l-46 -77q68 0 93.5 -33t14.5 -84q-17 -80 -75 -118t-134 -38q-74 0 -128 20q-11 4 -14 8t4 20l21 26q8 15 24 9q38 -14 93 -14q95 0 114 87q6 30 -14.5 46.5t-86.5 16.5 q-5 0 -13.5 -1t-11.5 -0.5t-6 2.5t-0.5 8t9.5 16l74 113q-65 8 -114 28t-87.5 56t-56 90t-20 129.5t20.5 173.5z" />
<glyph unicode="&#xe8;" horiz-adv-x="921" d="M128 424q97 460 483 460q156 0 222.5 -66t39.5 -189q-9 -42 -27 -77.5t-41.5 -62t-57.5 -47t-68 -34.5t-79.5 -24.5t-86 -16t-94.5 -8.5t-96.5 -4t-100.5 -1h-2q-10 -83 2 -140.5t45.5 -89.5t78.5 -45.5t108 -13.5q57 0 116 12.5t90.5 23.5t89.5 35q21 6 22.5 -9 t-5.5 -34q-4 -20 -11 -28t-24 -17q-128 -67 -304 -67q-395 0 -300 443zM233 434h4q61 1 92.5 1.5t87.5 3t87.5 8t76 14t70.5 23t54 34.5t44.5 48t23.5 63q19 84 -30.5 128t-150.5 44q-146 0 -233 -90t-126 -277zM477 1288q-9 11 -4.5 18.5t17.5 7.5h67q11 0 17 -2.5 t8.5 -5.5t9.5 -14l142 -212q16 -22 -12 -22h-44q-12 0 -18.5 4.5t-20.5 21.5z" />
<glyph unicode="&#xe9;" horiz-adv-x="921" d="M128 424q97 460 483 460q156 0 222.5 -66t39.5 -189q-9 -42 -27 -77.5t-41.5 -62t-57.5 -47t-68 -34.5t-79.5 -24.5t-86 -16t-94.5 -8.5t-96.5 -4t-100.5 -1h-2q-10 -83 2 -140.5t45.5 -89.5t78.5 -45.5t108 -13.5q57 0 116 12.5t90.5 23.5t89.5 35q21 6 22.5 -9 t-5.5 -34q-4 -20 -11 -28t-24 -17q-128 -67 -304 -67q-395 0 -300 443zM233 434h4q61 1 92.5 1.5t87.5 3t87.5 8t76 14t70.5 23t54 34.5t44.5 48t23.5 63q19 84 -30.5 128t-150.5 44q-146 0 -233 -90t-126 -277zM590 1098l192 177q23 23 47 23h80q5 0 8.5 -1t4.5 -3.5 t0 -5.5t-4 -7.5t-9 -8.5l-235 -185q-20 -13 -37 -13h-43q-13 0 -14.5 6.5t10.5 17.5z" />
<glyph unicode="&#xea;" horiz-adv-x="921" d="M128 424q97 460 483 460q156 0 222.5 -66t39.5 -189q-9 -42 -27 -77.5t-41.5 -62t-57.5 -47t-68 -34.5t-79.5 -24.5t-86 -16t-94.5 -8.5t-96.5 -4t-100.5 -1h-2q-10 -83 2 -140.5t45.5 -89.5t78.5 -45.5t108 -13.5q57 0 116 12.5t90.5 23.5t89.5 35q21 6 22.5 -9 t-5.5 -34q-4 -20 -11 -28t-24 -17q-128 -67 -304 -67q-395 0 -300 443zM233 434h4q61 1 92.5 1.5t87.5 3t87.5 8t76 14t70.5 23t54 34.5t44.5 48t23.5 63q19 84 -30.5 128t-150.5 44q-146 0 -233 -90t-126 -277zM419 1078q-3 5 -3.5 9t2 8t5 6.5t7.5 6.5l201 158 q18 15 39 15h43q19 0 34 -15l132 -158q17 -17 -8 -39q-11 -9 -16 -9.5t-13 5.5l-170 132l-221 -132q-18 -6 -22 -3.5t-10 16.5z" />
<glyph unicode="&#xeb;" horiz-adv-x="921" d="M128 424q97 460 483 460q156 0 222.5 -66t39.5 -189q-9 -42 -27 -77.5t-41.5 -62t-57.5 -47t-68 -34.5t-79.5 -24.5t-86 -16t-94.5 -8.5t-96.5 -4t-100.5 -1h-2q-10 -83 2 -140.5t45.5 -89.5t78.5 -45.5t108 -13.5q57 0 116 12.5t90.5 23.5t89.5 35q21 6 22.5 -9 t-5.5 -34q-4 -20 -11 -28t-24 -17q-128 -67 -304 -67q-395 0 -300 443zM233 434h4q61 1 92.5 1.5t87.5 3t87.5 8t76 14t70.5 23t54 34.5t44.5 48t23.5 63q19 84 -30.5 128t-150.5 44q-146 0 -233 -90t-126 -277zM436 1141q5 27 26.5 45.5t49.5 18.5q30 0 45.5 -19t10.5 -45 t-28 -43.5t-54 -17.5q-29 0 -42 17t-8 44zM756 1141q4 17 14.5 31.5t27.5 23.5t38 9q20 0 33.5 -9t19 -23.5t1.5 -31.5q-5 -26 -28 -43.5t-54 -17.5q-30 0 -43.5 17t-8.5 44z" />
<glyph unicode="&#xec;" horiz-adv-x="556" d="M166 812l5 22q3 16 9.5 22t20.5 6q68 4 114 4h91q32 0 26 -32l-78 -363h-2l-52 -244q-16 -64 -10.5 -98t18 -44.5t36.5 -10.5q49 0 60 43q5 25 9 29.5t21 4.5h28q16 0 19 -4.5t-1 -23.5q-16 -72 -53 -101t-97 -29q-79 0 -118 48.5t-15 159.5l120 553h1q3 20 -5.5 25 t-36.5 7l-99 2q-12 0 -13.5 5.5t2.5 18.5zM264 1288q-9 11 -4.5 18.5t17.5 7.5h67q8 0 13 -1t9 -4t6.5 -6t7.5 -11l141 -212q16 -22 -11 -22h-45q-12 0 -18.5 4.5t-20.5 21.5z" />
<glyph unicode="&#xed;" horiz-adv-x="556" d="M166 812l5 22q3 16 9.5 22t20.5 6q68 4 114 4h91q32 0 26 -32l-78 -363h-2l-52 -244q-16 -64 -10.5 -98t18 -44.5t36.5 -10.5q49 0 60 43q5 25 9 29.5t21 4.5h28q16 0 19 -4.5t-1 -23.5q-16 -72 -53 -101t-97 -29q-79 0 -118 48.5t-15 159.5l120 553h1q3 20 -5.5 25 t-36.5 7l-99 2q-12 0 -13.5 5.5t2.5 18.5zM374 1098l192 177q23 23 47 23h80q8 0 11.5 -3.5t0.5 -9.5t-12 -13l-235 -185q-20 -13 -37 -13h-43q-13 0 -14.5 6.5t10.5 17.5z" />
<glyph unicode="&#xee;" horiz-adv-x="556" d="M166 812l5 22q3 16 9.5 22t20.5 6q68 4 114 4h91q32 0 26 -32l-78 -363h-2l-52 -244q-16 -64 -10.5 -98t18 -44.5t36.5 -10.5q49 0 60 43q5 25 9 29.5t21 4.5h28q16 0 19 -4.5t-1 -23.5q-16 -72 -53 -101t-97 -29q-79 0 -118 48.5t-15 159.5l120 553h1q3 20 -5.5 25 t-36.5 7l-99 2q-12 0 -13.5 5.5t2.5 18.5zM205 1078q-3 5 -3.5 9t2 8t5 6.5t7.5 6.5l201 158q18 15 39 15h43q18 0 33 -15l133 -158q17 -17 -8 -39q-11 -9 -16.5 -9.5t-13.5 5.5l-169 132l-222 -132q-17 -5 -21 -3t-10 16z" />
<glyph unicode="&#xef;" horiz-adv-x="556" d="M166 812l5 22q3 16 9.5 22t20.5 6q68 4 114 4h91q32 0 26 -32l-78 -363h-2l-52 -244q-16 -64 -10.5 -98t18 -44.5t36.5 -10.5q49 0 60 43q5 25 9 29.5t21 4.5h28q16 0 19 -4.5t-1 -23.5q-16 -72 -53 -101t-97 -29q-79 0 -118 48.5t-15 159.5l120 553h1q3 20 -5.5 25 t-36.5 7l-99 2q-12 0 -13.5 5.5t2.5 18.5zM223 1141q5 26 27 45t50 19q30 0 45.5 -19t10.5 -45t-28 -43.5t-54 -17.5q-29 0 -42.5 17t-8.5 44zM544 1141q6 27 27.5 45.5t52.5 18.5q30 0 44.5 -19t9.5 -45t-28 -43.5t-54 -17.5q-30 0 -43.5 17t-8.5 44z" />
<glyph unicode="&#xf0;" horiz-adv-x="996" d="M123 397q17 79 49.5 148t83.5 129t128 95t171 35q185 0 262 -162q23 193 -18 331t-147 204l-112 -157q-7 -8 -15 -3l-50 31q-9 6 -2 17l106 145q-75 24 -153 24h-16q-18 0 -15 26l9 41q6 21 24 21h17q104 0 192 -30l108 149q11 14 22 6l41 -26q10 -8 2 -23l-99 -138 q105 -59 161.5 -171t61 -257t-30.5 -320q-26 -120 -68 -215t-102.5 -167t-143.5 -110.5t-183 -38.5q-174 0 -249 112.5t-34 303.5zM229 404q-35 -165 18.5 -252t175.5 -87q141 0 234 112.5t136 317.5v4q-16 113 -75 167.5t-165 54.5q-127 0 -211 -87.5t-113 -229.5z" />
<glyph unicode="&#xf1;" horiz-adv-x="1105" d="M7 22l6 25q3 15 7.5 20.5t16.5 5.5l66 1.5t44.5 5t30 8t17 17t12.5 25.5t9 38l117 558q12 60 -31 60l-103 2q-9 0 -10.5 3.5t1.5 16.5l5 30q5 17 8.5 20.5t16.5 3.5q39 1 84 3.5t53 2.5h73q20 0 24 -9t-2 -29l-22 -111q63 84 146.5 124.5t171.5 40.5q129 0 177 -66 t17 -205l-82 -386q-16 -64 -10.5 -98t18.5 -44.5t37 -10.5q47 0 58 43q5 25 9 29.5t22 4.5h28q16 0 19.5 -4.5t-0.5 -23.5q-16 -72 -54.5 -101t-98.5 -29q-77 0 -116.5 48.5t-15.5 159.5l87 406q23 107 -5 149.5t-101 42.5q-133 0 -233.5 -107t-147.5 -327l-41 -196 q-5 -22 -7 -31t-2 -22.5t1 -17.5t9.5 -11t15 -7.5t26.5 -3t35.5 -3t49.5 -0.5q10 0 15.5 -2t6.5 -8t0.5 -9.5t-3.5 -13.5t-4 -14q-3 -16 -7.5 -21t-18.5 -5h-406q-16 0 -19 4t0 18zM592 1102q-10 6 0 24q37 47 70 69.5t72 22.5q34 0 61.5 -16t49.5 -32t43 -16q18 0 31 9.5 t31 35.5q12 14 20 9l32 -18q7 -6 6.5 -8.5t-6.5 -12.5q-34 -47 -65 -71t-69 -24q-34 0 -63 16t-51 32t-41 16q-17 0 -29.5 -9t-39.5 -36q-10 -14 -24 -8z" />
<glyph unicode="&#xf2;" horiz-adv-x="1007" d="M128 460q18 84 55.5 157t94.5 134.5t140.5 97t184.5 35.5q90 0 157.5 -25.5t105.5 -70t60 -104t20 -126.5t-15 -139q-18 -83 -56 -157.5t-96 -136t-142.5 -98t-184.5 -36.5q-75 0 -134.5 18t-98 51t-64 76.5t-34.5 97t-7.5 109.5t14.5 117zM229 434q-18 -71 -13 -136.5 t28 -115t76.5 -79t131.5 -29.5t143 29t110 80t75.5 114t46.5 137q12 58 12.5 110.5t-12.5 100t-40 82t-73.5 54.5t-108.5 20q-77 0 -142.5 -30.5t-111 -83t-76.5 -116.5t-46 -137zM492 1288q-9 11 -4.5 18.5t17.5 7.5h67q15 0 20.5 -4t14.5 -18l141 -212q16 -22 -11 -22h-44 q-12 0 -19 5t-21 21z" />
<glyph unicode="&#xf3;" horiz-adv-x="1007" d="M128 460q18 84 55.5 157t94.5 134.5t140.5 97t184.5 35.5q90 0 157.5 -25.5t105.5 -70t60 -104t20 -126.5t-15 -139q-18 -83 -56 -157.5t-96 -136t-142.5 -98t-184.5 -36.5q-75 0 -134.5 18t-98 51t-64 76.5t-34.5 97t-7.5 109.5t14.5 117zM229 434q-18 -71 -13 -136.5 t28 -115t76.5 -79t131.5 -29.5t143 29t110 80t75.5 114t46.5 137q12 58 12.5 110.5t-12.5 100t-40 82t-73.5 54.5t-108.5 20q-77 0 -142.5 -30.5t-111 -83t-76.5 -116.5t-46 -137zM603 1098l192 177q23 23 47 23h80q8 0 11.5 -3.5t0.5 -9.5t-12 -13l-235 -185 q-20 -13 -37 -13h-43q-13 0 -14.5 6.5t10.5 17.5z" />
<glyph unicode="&#xf4;" horiz-adv-x="1007" d="M128 460q18 84 55.5 157t94.5 134.5t140.5 97t184.5 35.5q90 0 157.5 -25.5t105.5 -70t60 -104t20 -126.5t-15 -139q-18 -83 -56 -157.5t-96 -136t-142.5 -98t-184.5 -36.5q-75 0 -134.5 18t-98 51t-64 76.5t-34.5 97t-7.5 109.5t14.5 117zM229 434q-18 -71 -13 -136.5 t28 -115t76.5 -79t131.5 -29.5t143 29t110 80t75.5 114t46.5 137q12 58 12.5 110.5t-12.5 100t-40 82t-73.5 54.5t-108.5 20q-77 0 -142.5 -30.5t-111 -83t-76.5 -116.5t-46 -137zM432 1078q-3 5 -3.5 9t2 8t5 6.5t7.5 6.5l201 158q18 15 39 15h43q19 0 34 -15l132 -158 q17 -17 -8 -39q-11 -9 -16 -9.5t-13 5.5l-170 132l-221 -132q-18 -6 -22 -3.5t-10 16.5z" />
<glyph unicode="&#xf5;" horiz-adv-x="1007" d="M128 460q18 84 55.5 157t94.5 134.5t140.5 97t184.5 35.5q90 0 157.5 -25.5t105.5 -70t60 -104t20 -126.5t-15 -139q-18 -83 -56 -157.5t-96 -136t-142.5 -98t-184.5 -36.5q-75 0 -134.5 18t-98 51t-64 76.5t-34.5 97t-7.5 109.5t14.5 117zM229 434q-18 -71 -13 -136.5 t28 -115t76.5 -79t131.5 -29.5t143 29t110 80t75.5 114t46.5 137q12 58 12.5 110.5t-12.5 100t-40 82t-73.5 54.5t-108.5 20q-77 0 -142.5 -30.5t-111 -83t-76.5 -116.5t-46 -137zM488 1102q-10 6 0 24q37 47 69.5 69.5t71.5 22.5q34 0 62 -16t50 -32t43 -16q18 0 30.5 9.5 t30.5 35.5q12 15 21 9l31 -18q7 -6 6.5 -8.5t-6.5 -12.5q-34 -47 -65 -71t-69 -24q-34 0 -62.5 16t-50.5 32t-41 16q-17 0 -29.5 -9t-39.5 -36q-10 -14 -24 -8z" />
<glyph unicode="&#xf6;" horiz-adv-x="1007" d="M128 460q18 84 55.5 157t94.5 134.5t140.5 97t184.5 35.5q90 0 157.5 -25.5t105.5 -70t60 -104t20 -126.5t-15 -139q-18 -83 -56 -157.5t-96 -136t-142.5 -98t-184.5 -36.5q-75 0 -134.5 18t-98 51t-64 76.5t-34.5 97t-7.5 109.5t14.5 117zM229 434q-18 -71 -13 -136.5 t28 -115t76.5 -79t131.5 -29.5t143 29t110 80t75.5 114t46.5 137q12 58 12.5 110.5t-12.5 100t-40 82t-73.5 54.5t-108.5 20q-77 0 -142.5 -30.5t-111 -83t-76.5 -116.5t-46 -137zM449 1141q5 27 26.5 45.5t49.5 18.5q30 0 45.5 -19t10.5 -45t-28 -43.5t-54 -17.5 q-29 0 -42 17t-8 44zM769 1141q6 27 27.5 45.5t52.5 18.5q30 0 44.5 -19t9.5 -45t-28 -43.5t-54 -17.5q-30 0 -43.5 17t-8.5 44z" />
<glyph unicode="&#xf7;" horiz-adv-x="1210" d="M177 415l20 95h896l-21 -95h-895zM478 141q5 27 32.5 46.5t62.5 19.5q34 0 52.5 -19.5t13.5 -46.5t-31.5 -46t-61.5 -19t-54 19t-14 46zM613 775q7 30 33.5 48.5t62.5 18.5q34 0 52.5 -18.5t11.5 -48.5q-5 -25 -32 -43.5t-60 -18.5q-34 0 -53.5 18.5t-14.5 43.5z" />
<glyph unicode="&#xf8;" horiz-adv-x="1007" d="M121 -134l117 181q-60 40 -92 107.5t-33 143.5t15 162q18 84 55.5 157t94.5 134.5t140.5 97t184.5 35.5q91 0 157 -26l104 160q9 17 20 17h67q14 0 2 -20l-124 -194q56 -41 85.5 -106t31 -139t-14.5 -157q-18 -83 -56 -157.5t-96 -136t-142.5 -98t-184.5 -36.5 q-66 0 -141 20l-95 -147q-7 -11 -24 -11h-65q-17 0 -6 13zM229 434q-45 -219 60 -309l422 655q-48 21 -106 21q-77 0 -142.5 -30.5t-111 -83t-76.5 -116.5t-46 -137zM357 88q44 -14 95 -14q78 0 143 29t110 80t75.5 114t46.5 137q21 88 8.5 170.5t-59.5 132.5z" />
<glyph unicode="&#xf9;" horiz-adv-x="1083" d="M147 812l6 24q3 16 9 21t19 5q58 1 71.5 2.5t45.5 1.5h93q18 0 22.5 -8t-0.5 -29l-115 -540q-11 -68 -11.5 -111t18.5 -67t46.5 -33t72.5 -9q134 0 222.5 80.5t128.5 267.5l68 320q9 51 -35 51h-104q-16 0 -10 24l6 24q3 16 9.5 21t18.5 5q58 1 71.5 2.5t45.5 1.5h93 q18 0 23 -8t0 -29l-30 -146h2l-101 -471h-2q-14 -58 -7.5 -88.5t19 -40t35.5 -9.5q47 0 58 43q1 4 2.5 9.5t2 8t1.5 5.5t2 4.5t2.5 3t3 2t4.5 1t5.5 0.5h7.5h28q16 0 19.5 -4.5t-0.5 -23.5q-16 -72 -54.5 -101t-98.5 -29q-66 0 -104.5 33t-34.5 110q-111 -149 -308 -149 q-145 0 -197 70.5t-17 234.5l60 281h2l35 164q9 51 -35 51h-105q-9 0 -11 5.5t2 18.5zM482 1288q-9 11 -4.5 18.5t17.5 7.5h67q8 0 13 -1t9 -4t6.5 -6t7.5 -11l141 -212q16 -22 -11 -22h-45q-12 0 -18.5 4.5t-20.5 21.5z" />
<glyph unicode="&#xfa;" horiz-adv-x="1083" d="M147 812l6 24q3 16 9 21t19 5q58 1 71.5 2.5t45.5 1.5h93q18 0 22.5 -8t-0.5 -29l-115 -540q-11 -68 -11.5 -111t18.5 -67t46.5 -33t72.5 -9q134 0 222.5 80.5t128.5 267.5l68 320q9 51 -35 51h-104q-16 0 -10 24l6 24q3 16 9.5 21t18.5 5q58 1 71.5 2.5t45.5 1.5h93 q18 0 23 -8t0 -29l-30 -146h2l-101 -471h-2q-14 -58 -7.5 -88.5t19 -40t35.5 -9.5q47 0 58 43q1 4 2.5 9.5t2 8t1.5 5.5t2 4.5t2.5 3t3 2t4.5 1t5.5 0.5h7.5h28q16 0 19.5 -4.5t-0.5 -23.5q-16 -72 -54.5 -101t-98.5 -29q-66 0 -104.5 33t-34.5 110q-111 -149 -308 -149 q-145 0 -197 70.5t-17 234.5l60 281h2l35 164q9 51 -35 51h-105q-9 0 -11 5.5t2 18.5zM594 1098l192 177q23 23 46 23h80q8 0 11.5 -3.5t0.5 -9.5t-12 -13l-234 -185q-20 -13 -38 -13h-42q-13 0 -14.5 6.5t10.5 17.5z" />
<glyph unicode="&#xfb;" horiz-adv-x="1083" d="M147 812l6 24q3 16 9 21t19 5q58 1 71.5 2.5t45.5 1.5h93q18 0 22.5 -8t-0.5 -29l-115 -540q-11 -68 -11.5 -111t18.5 -67t46.5 -33t72.5 -9q134 0 222.5 80.5t128.5 267.5l68 320q9 51 -35 51h-104q-16 0 -10 24l6 24q3 16 9.5 21t18.5 5q58 1 71.5 2.5t45.5 1.5h93 q18 0 23 -8t0 -29l-30 -146h2l-101 -471h-2q-14 -58 -7.5 -88.5t19 -40t35.5 -9.5q47 0 58 43q1 4 2.5 9.5t2 8t1.5 5.5t2 4.5t2.5 3t3 2t4.5 1t5.5 0.5h7.5h28q16 0 19.5 -4.5t-0.5 -23.5q-16 -72 -54.5 -101t-98.5 -29q-66 0 -104.5 33t-34.5 110q-111 -149 -308 -149 q-145 0 -197 70.5t-17 234.5l60 281h2l35 164q9 51 -35 51h-105q-9 0 -11 5.5t2 18.5zM423 1078q-3 5 -3.5 9t2 8t5 6.5t7.5 6.5l201 158q18 15 39 15h43q18 0 33 -15l133 -158q7 -7 7 -14.5t-4 -12.5t-11 -12q-11 -9 -16.5 -9.5t-13.5 5.5l-169 132l-222 -132 q-17 -6 -21.5 -3.5t-9.5 16.5z" />
<glyph unicode="&#xfc;" horiz-adv-x="1083" d="M147 812l6 24q3 16 9 21t19 5q58 1 71.5 2.5t45.5 1.5h93q18 0 22.5 -8t-0.5 -29l-115 -540q-11 -68 -11.5 -111t18.5 -67t46.5 -33t72.5 -9q134 0 222.5 80.5t128.5 267.5l68 320q9 51 -35 51h-104q-16 0 -10 24l6 24q3 16 9.5 21t18.5 5q58 1 71.5 2.5t45.5 1.5h93 q18 0 23 -8t0 -29l-30 -146h2l-101 -471h-2q-14 -58 -7.5 -88.5t19 -40t35.5 -9.5q47 0 58 43q1 4 2.5 9.5t2 8t1.5 5.5t2 4.5t2.5 3t3 2t4.5 1t5.5 0.5h7.5h28q16 0 19.5 -4.5t-0.5 -23.5q-16 -72 -54.5 -101t-98.5 -29q-66 0 -104.5 33t-34.5 110q-111 -149 -308 -149 q-145 0 -197 70.5t-17 234.5l60 281h2l35 164q9 51 -35 51h-105q-9 0 -11 5.5t2 18.5zM439 1141q5 26 27 45t50 19q30 0 45.5 -19t10.5 -45t-28 -43.5t-54 -17.5q-29 0 -42.5 17t-8.5 44zM760 1141q6 27 27.5 45.5t52.5 18.5q30 0 44.5 -19t9.5 -45t-28 -43.5t-54 -17.5 q-30 0 -43.5 17t-8.5 44z" />
<glyph unicode="&#xfd;" horiz-adv-x="1018" d="M22 -357l8 39q1 6 2.5 8.5t6 4.5t13.5 3q14 1 35.5 3t30 3t23 2.5t20 3t15 3.5t13.5 4.5t10 7t10 9t9 11.5q106 145 180 257q-8 3 -11 13q-13 36 -29 92t-35.5 141t-30 170t-13 179t14.5 168q3 16 -15 19t-104 5q-14 2 -11 15l11 49q2 13 17 13h342q15 0 12 -13l-10 -47 q-1 -2 -2 -5t-1.5 -4t-1.5 -3.5t-3 -3t-5 -1t-7 -0.5q-57 0 -83 -3t-31 -7t-7 -14q-28 -136 0.5 -343t64.5 -327q99 150 183 297.5t195 363.5q11 20 2 26q-16 7 -106 7q-11 2 -13.5 4.5t0.5 12.5l9 45q3 15 17 15h333q12 0 14.5 -3.5t-1.5 -13.5l-9 -45q-3 -12 -17 -15 q-62 -1 -85.5 -4.5t-32.5 -10.5t-20 -29q-266 -538 -646 -1058q-34 -39 -62.5 -50t-65.5 -11h-116q-15 0 -17.5 2t0.5 15zM627 1098l192 177q23 23 47 23h80q8 0 11.5 -3.5t0.5 -9.5t-12 -13l-235 -185q-20 -13 -37 -13h-43q-13 0 -14.5 6.5t10.5 17.5z" />
<glyph unicode="&#xfe;" horiz-adv-x="1037" d="M-136 -331l4 24q7 22 14 25q3 1 8 1q35 0 52 0.5t38.5 2.5t29.5 3.5t19.5 7.5t14.5 10.5t9 17t8 22t6 29.5l287 1352q12 59 -34 59l-102 2q-9 0 -10.5 4t1.5 17l5 29q3 12 5 16.5t6 6.5t13 2q30 1 60.5 2t49 2t26.5 1h75q20 0 24 -8.5t-2 -28.5l-127 -594 q58 102 148 155.5t188 53.5q94 0 159.5 -35.5t96 -98.5t37 -149t-17.5 -187q-42 -192 -155.5 -312t-287.5 -120q-103 0 -182 46.5t-90 136.5l-74 -348q-6 -27 -8 -39.5t2 -26t9 -17.5t25.5 -8t39.5 -4.5t62 -1.5q11 0 17 -2t7 -7.5t1 -9t-2.5 -13.5t-3.5 -15 q-3 -16 -8.5 -21t-21.5 -5h-404q-16 0 -18.5 4.5t1.5 18.5zM302 406q-34 -156 14.5 -249.5t186.5 -93.5q142 0 229 99.5t123 267.5q18 77 16 144t-21 117t-65.5 79t-117.5 29q-139 0 -233.5 -106.5t-131.5 -286.5z" />
<glyph unicode="&#xff;" horiz-adv-x="1018" d="M22 -357l8 39q1 6 2.5 8.5t6 4.5t13.5 3q14 1 35.5 3t30 3t23 2.5t20 3t15 3.5t13.5 4.5t10 7t10 9t9 11.5q106 145 180 257q-8 3 -11 13q-13 36 -29 92t-35.5 141t-30 170t-13 179t14.5 168q3 16 -15 19t-104 5q-14 2 -11 15l11 49q2 13 17 13h342q15 0 12 -13l-10 -47 q-1 -2 -2 -5t-1.5 -4t-1.5 -3.5t-3 -3t-5 -1t-7 -0.5q-57 0 -83 -3t-31 -7t-7 -14q-28 -136 0.5 -343t64.5 -327q99 150 183 297.5t195 363.5q11 20 2 26q-16 7 -106 7q-11 2 -13.5 4.5t0.5 12.5l9 45q3 15 17 15h333q12 0 14.5 -3.5t-1.5 -13.5l-9 -45q-3 -12 -17 -15 q-62 -1 -85.5 -4.5t-32.5 -10.5t-20 -29q-266 -538 -646 -1058q-34 -39 -62.5 -50t-65.5 -11h-116q-15 0 -17.5 2t0.5 15zM475 1141q5 27 26.5 45.5t49.5 18.5q30 0 45.5 -19t10.5 -45t-28 -43.5t-54 -17.5q-29 0 -42 17t-8 44zM795 1141q6 27 27.5 45.5t52.5 18.5 q30 0 44.5 -19t9.5 -45t-28 -43.5t-54 -17.5q-30 0 -43.5 17t-8.5 44z" />
<glyph unicode="&#x152;" horiz-adv-x="2113" d="M195 672q30 142 91.5 259.5t150 205.5t209 136.5t261.5 48.5q188 0 305 -77.5t164 -218.5q64 296 430 296q209 0 331 -43q23 -7 25 -15t-6 -30l-50 -242q-4 -16 -8 -19t-18 -3h-36q-11 0 -13.5 3t-1.5 16l26 217q-84 28 -249 28q-67 0 -118.5 -10t-97 -33.5t-76 -67.5 t-43.5 -108q-60 -285 274 -285h134q11 0 14 -5.5t0 -20.5l-7 -34q-5 -17 -10 -22.5t-16 -5.5h-134q-281 0 -387 -150q-24 -63 -56 -129v-4q-33 -151 45.5 -219.5t272.5 -68.5q40 0 85 3t81 8t72.5 11t60 10.5t44 9t22.5 4.5q11 3 13.5 -1t-0.5 -17l-11 -52q-4 -16 -34 -25 q-51 -16 -145.5 -28.5t-194.5 -12.5q-90 0 -158.5 9.5t-127 33t-94.5 66.5t-47 105q-197 -214 -504 -214q-122 0 -215.5 33.5t-152 95t-91 147.5t-32.5 190.5t23 224.5zM302 655q-57 -273 39.5 -428.5t323.5 -155.5q169 0 303.5 88.5t217.5 250.5q14 44 41 91q28 71 45 154 q58 271 -39 424.5t-326 153.5q-226 0 -386 -153.5t-219 -424.5zM1378 639q62 31 160 48q-37 6 -75.5 31t-64.5 68q-8 -91 -20 -147z" />
<glyph unicode="&#x153;" horiz-adv-x="1616" d="M128 460q15 66 40.5 126.5t67 115.5t93.5 95t122.5 63.5t151.5 23.5q130 0 209.5 -52t112.5 -143q128 195 380 195q156 0 223 -66t40 -189q-9 -42 -27 -77.5t-41.5 -62t-57.5 -47t-68 -34.5t-80 -24.5t-86.5 -16t-94.5 -8.5t-96.5 -4t-100.5 -1h-2q-5 -57 -3 -100.5 t16.5 -75.5t34.5 -53.5t50 -35t63 -19t74 -5.5q57 0 116 12.5t90.5 23.5t89.5 35q20 6 21.5 -8.5t-4.5 -34.5q-4 -20 -11 -28t-25 -17q-128 -67 -303 -67q-258 0 -306 187q-140 -177 -365 -177q-75 0 -134.5 18t-98 51t-64 76.5t-34.5 97t-7.5 109.5t14.5 117zM229 434 q-13 -59 -13.5 -111t12.5 -98t40 -79t74 -52.5t110 -19.5q72 0 133.5 25.5t106 71t75.5 102t50 124.5l13 67q8 54 8.5 103t-15 92t-42 74.5t-72 49.5t-104.5 18q-77 0 -142.5 -30.5t-111 -83t-76.5 -116.5t-46 -137zM935 434q48 0 74 0.5t71 2t71 4.5l65 7.5t62.5 12.5 t54 18t49.5 24.5t37.5 32.5t30 41.5t17.5 51.5q19 84 -30 128t-150 44q-133 0 -216.5 -74t-128.5 -228q0 -27 -7 -65z" />
<glyph unicode="&#x178;" horiz-adv-x="1232" d="M240 1249l8 36q3 11 7.5 14.5t14.5 3.5h383q18 0 12 -16l-8 -36q-3 -20 -22 -20q-81 -2 -110 -6.5t-32 -18.5q-14 -65 -15.5 -127.5t9.5 -118.5t27.5 -104.5t44 -98t52.5 -87t59 -82.5q67 57 115 100t108 107t101 123t76.5 134.5t52.5 153.5q2 7 -3.5 11.5t-22 7.5 t-40.5 4t-65 2q-18 0 -15 20l8 36q6 16 20 16h376q11 0 14.5 -3.5t0.5 -14.5l-7 -36q-4 -15 -9 -17q-4 -1 -13 -1q-81 -2 -113 -7t-36 -19q-20 -90 -62 -177t-88.5 -153.5t-116 -141t-121.5 -122t-128 -112.5l-63 -302h1l-5 -28q-5 -22 -7 -31t-2 -22.5t1 -17.5t9.5 -11 t15 -7.5t26.5 -3t35.5 -3t49.5 -0.5q11 0 16.5 -2t7 -7.5t1 -9t-3.5 -14t-4 -14.5q-3 -16 -7.5 -21t-20.5 -5h-408q-16 0 -19 4t1 18l5 25q2 11 4 15t7 7.5t14 3.5q35 0 52 0.5t38.5 2.5t30 3.5t20 7.5t15 11t9.5 17t8.5 22.5t6.5 30.5l69 331q-34 47 -56 79.5t-52.5 83 t-49 92t-37 98t-25.5 109t-6 116t14 128.5q1 7 -5.5 11.5t-23.5 7.5t-42 4.5t-67 2.5q-14 0 -16.5 3.5t1.5 14.5zM635 1445q5 26 27 44.5t51 18.5q30 0 44.5 -18.5t9.5 -44.5q-5 -27 -28.5 -44.5t-53.5 -17.5q-29 0 -42 17.5t-8 44.5zM955 1445q5 26 28 44.5t54 18.5 q30 0 43.5 -18t8.5 -45t-28.5 -44.5t-53.5 -17.5t-43.5 17.5t-8.5 44.5z" />
<glyph unicode="&#x2c6;" horiz-adv-x="668" d="M331 1381q-3 11 0 16.5t13 13.5l202 159q17 14 37 14h43q21 0 35 -14l132 -159q5 -5 6.5 -10t-1 -10.5t-5.5 -9t-9 -9.5q-9 -9 -14.5 -9.5t-13.5 5.5l-170 133l-221 -133q-17 -6 -22.5 -3.5t-11.5 16.5z" />
<glyph unicode="&#x2dc;" horiz-adv-x="647" d="M376 1404q-13 6 0 24q68 91 140 91q34 0 62 -15.5t50.5 -31.5t43.5 -16q18 0 31 9.5t31 35.5q10 15 20 9l32 -19q6 -5 5.5 -8t-7.5 -12q-64 -95 -132 -95q-34 0 -63 16t-51 31.5t-41 15.5q-17 0 -31 -9.5t-38 -34.5q-12 -15 -24 -8z" />
<glyph unicode="&#x2000;" horiz-adv-x="825" />
<glyph unicode="&#x2001;" horiz-adv-x="1650" />
<glyph unicode="&#x2002;" horiz-adv-x="825" />
<glyph unicode="&#x2003;" horiz-adv-x="1650" />
<glyph unicode="&#x2004;" horiz-adv-x="550" />
<glyph unicode="&#x2005;" horiz-adv-x="412" />
<glyph unicode="&#x2006;" horiz-adv-x="275" />
<glyph unicode="&#x2007;" horiz-adv-x="275" />
<glyph unicode="&#x2008;" horiz-adv-x="206" />
<glyph unicode="&#x2009;" horiz-adv-x="330" />
<glyph unicode="&#x200a;" horiz-adv-x="91" />
<glyph unicode="&#x2010;" horiz-adv-x="930" d="M192 519l9 49q6 17 21 17h603q14 0 11 -19l-9 -41q-3 -20 -23 -20h-599q-10 0 -12.5 3t-0.5 11z" />
<glyph unicode="&#x2011;" horiz-adv-x="930" d="M192 519l9 49q6 17 21 17h603q14 0 11 -19l-9 -41q-3 -20 -23 -20h-599q-10 0 -12.5 3t-0.5 11z" />
<glyph unicode="&#x2012;" horiz-adv-x="930" d="M192 519l9 49q6 17 21 17h603q14 0 11 -19l-9 -41q-3 -20 -23 -20h-599q-10 0 -12.5 3t-0.5 11z" />
<glyph unicode="&#x2013;" horiz-adv-x="1254" d="M190 508l13 65q3 13 15 13h929q8 0 9.5 -3t-0.5 -11l-13 -60q-3 -11 -6 -14t-12 -3h-926q-15 0 -9 13z" />
<glyph unicode="&#x2014;" horiz-adv-x="1666" d="M190 508l13 65q3 13 15 13h1338q9 0 11.5 -2.5t0.5 -11.5l-13 -60q-3 -11 -6.5 -14t-14.5 -3h-1335q-15 0 -9 13z" />
<glyph unicode="&#x2018;" horiz-adv-x="426" d="M272 989l175 314q10 19 31 19h38q23 0 13 -21l-160 -324q-9 -18 -16 -23.5t-25 -5.5h-47q-20 0 -21 11t12 30z" />
<glyph unicode="&#x2019;" horiz-adv-x="426" d="M261 968l160 324q14 24 21 27t20 3h46q14 0 18.5 -5t2 -13.5t-10.5 -22.5l-175 -315q-10 -18 -32 -18h-37q-13 0 -15.5 4.5t2.5 15.5z" />
<glyph unicode="&#x201a;" horiz-adv-x="390" d="M-43 -197l160 324q14 23 21 26t20 3h47q20 0 21 -11t-12 -30l-175 -314q-10 -19 -32 -19h-37q-23 0 -13 21z" />
<glyph unicode="&#x201c;" horiz-adv-x="653" d="M272 989l175 314q10 19 31 19h38q23 0 13 -21l-160 -324q-9 -18 -16 -23.5t-25 -5.5h-47q-20 0 -21 11t12 30zM497 989l175 314q10 19 32 19h37q23 0 13 -21l-160 -324q-9 -18 -16 -23.5t-25 -5.5h-47q-20 0 -21 11t12 30z" />
<glyph unicode="&#x201d;" horiz-adv-x="653" d="M261 968l160 324q14 24 21 27t20 3h46q14 0 18.5 -5t2 -13.5t-10.5 -22.5l-175 -315q-10 -18 -32 -18h-37q-13 0 -15.5 4.5t2.5 15.5zM486 968l160 324q14 24 21 27t20 3h47q20 0 21 -11t-12 -30l-175 -315q-10 -18 -32 -18h-37q-13 0 -15.5 4.5t2.5 15.5z" />
<glyph unicode="&#x201e;" horiz-adv-x="659" d="M-43 -197l160 324q14 23 21 26t20 3h47q20 0 21 -11t-12 -30l-175 -314q-10 -19 -32 -19h-37q-23 0 -13 21zM225 -197l160 324q14 23 21 26t20 3h47q20 0 21 -11t-12 -30l-175 -314q-10 -19 -31 -19h-38q-23 0 -13 21z" />
<glyph unicode="&#x2022;" horiz-adv-x="571" d="M227 456q5 28 34.5 47.5t66.5 19.5q36 0 57.5 -19.5t16.5 -47.5q-5 -26 -35.5 -46.5t-66.5 -20.5q-37 0 -57.5 20t-15.5 47z" />
<glyph unicode="&#x2026;" horiz-adv-x="1310" d="M91 63q5 30 30.5 51.5t57.5 21.5q29 0 45.5 -21.5t11.5 -51.5q-8 -35 -33 -54.5t-56 -19.5q-33 0 -48.5 19.5t-7.5 54.5zM529 63q5 30 30 51.5t57 21.5q29 0 46 -22t12 -51q-8 -35 -33 -54.5t-56 -19.5q-33 0 -48.5 19.5t-7.5 54.5zM964 63q5 30 30.5 51.5t57.5 21.5 q29 0 46 -22t12 -51q-8 -35 -33.5 -54.5t-56.5 -19.5q-33 0 -48.5 19.5t-7.5 54.5z" />
<glyph unicode="&#x202f;" horiz-adv-x="330" />
<glyph unicode="&#x2039;" horiz-adv-x="640" d="M114 452q-10 14 -8.5 21t15.5 20l452 399q23 21 32 13l37 -34q6 -4 3.5 -9t-16.5 -19l-409 -366l251 -360q13 -18 14 -22t-7 -9l-54 -34q-9 -5 -13 -2.5t-14 15.5z" />
<glyph unicode="&#x203a;" horiz-adv-x="642" d="M61 86q-3 5 -1.5 7.5t17.5 15.5l2 2l2 2t2.5 2t2.5 2l402 360l-252 366q-7 10 -9 14.5t-0.5 7.5t8.5 6l52 34q9 8 22 -13l287 -399q8 -13 6 -20t-17 -21l-447 -387q-15 -13 -22 -15.5t-14 2.5z" />
<glyph unicode="&#x205f;" horiz-adv-x="412" />
<glyph unicode="&#x20ac;" horiz-adv-x="1437" d="M121 447l50 52q20 17 32 17h143q8 59 15 89h-195q-23 0 -10 13l53 52q17 17 31 17h138q79 316 258.5 475.5t445.5 159.5q228 0 366 -37q19 -7 22.5 -14t-1.5 -33l-61 -287q-2 -11 -5.5 -15.5t-7.5 -5.5t-14 -1h-42q-15 0 -18.5 4t-0.5 15l35 260q-110 28 -268 28 q-223 0 -379 -137.5t-224 -411.5h646q11 0 12.5 -5t-8.5 -15l-60 -49q-20 -13 -30 -13h-577q-4 -17 -8 -46.5t-7 -42.5h509q12 0 13.5 -5.5t-10.5 -15.5l-55 -48q-20 -13 -34 -13h-426q-1 -187 99.5 -272.5t304.5 -85.5q152 0 380 45q16 3 21 -1t1 -18l-6 -31 q-5 -22 -12.5 -29t-30.5 -12q-211 -43 -359 -43q-256 0 -383.5 107.5t-122.5 339.5h-213q-23 0 -7 13z" />
<glyph unicode="&#x2122;" horiz-adv-x="1701" d="M328 534l5 30q3 17 13 17q34 1 47 3t21.5 9.5t13.5 24.5l131 613h-118q-14 0 -20 -21l-32 -113q-4 -13 -15 -13h-39q-11 0 -7 14l41 192q1 9 4 11t11 2h469q5 0 7 -0.5t4 -3.5t0 -9l-41 -192q-4 -14 -15 -14h-39q-12 0 -8 14l17 112q3 21 -13 21h-117l-130 -615 q-4 -24 6 -29.5t53 -5.5q10 0 11 -4t-2 -15l-5 -26q0 -1 -1 -3q-8 -11 -14 -12h-231q-8 0 -9 2.5t2 10.5zM754 534l6 30q2 10 5 13.5t11 3.5q44 2 56.5 10t20.5 44l119 562q7 30 -4 38.5t-58 8.5q-7 0 -7 4q-1 1 1 6l1 6l7 30q2 8 4 10.5t9 2.5h173q21 0 25 -8.5t2 -34.5 q-1 -96 20 -315t41 -332h2q58 97 159 316t146 331q2 5 6 13.5t5.5 11.5t5.5 7.5t7.5 6t9 3t13.5 1.5h178q8 0 10 -2.5t0 -10.5l-8 -30q-2 -16 -13 -16q-51 -1 -64.5 -9t-20.5 -38l-118 -551q-13 -69 34 -69q15 0 30 12.5t20 37.5l2 6q0 6 6 6h33q6 0 6 -6l-2 -6 q-25 -117 -129 -117q-117 0 -87 142l106 502q-57 -142 -160 -346t-151 -274q-8 -13 -24 -13h-56q-19 0 -19 13q-25 83 -49 267t-29 338l-108 -506q-8 -36 0 -44t49 -8q12 0 13.5 -4t-0.5 -15l-6 -26q0 -1 -1 -3q-9 -11 -16 -12h-203q-9 0 -10.5 2.5t1.5 10.5z" />
<glyph unicode="&#xe000;" horiz-adv-x="865" d="M0 0v866h866v-866h-866z" />
</font>
</defs>
</svg>
