<?xml version="1.0" standalone="no"?>
<!DOCTYPE svg PUBLIC "-//W3C//DTD SVG 1.1//EN" "http://www.w3.org/Graphics/SVG/1.1/DTD/svg11.dtd" >
<svg xmlns="http://www.w3.org/2000/svg">
<metadata></metadata>
<defs>
<font id="quatie_norm_regularnormRg" horiz-adv-x="1040" >
<font-face units-per-em="2048" ascent="1629" descent="-419" />
<missing-glyph horiz-adv-x="398" />
<glyph unicode="&#xfb01;" horiz-adv-x="1113" d="M82 22v47q0 15 3 20.5t14 5.5q83 5 107.5 12.5t29.5 35.5v617h-132q-18 0 -18 18v67q0 21 18 21h132v117q0 180 89 259.5t261 79.5q79 0 152 -15.5t109 -33.5q15 -8 20.5 -19t5.5 -35v-193q0 -11 -3.5 -15t-14.5 -4h-67q-17 0 -19 17l-17 153q-67 31 -166 31 q-107 0 -155.5 -55.5t-48.5 -186.5v-100h471q28 0 28 -30v-592q0 -85 18.5 -114t53.5 -29q47 0 47 44q0 21 5 26.5t26 5.5h25q21 0 25 -4.5t4 -25.5q0 -156 -162 -156q-188 0 -188 232v486q-3 33 -28 42t-113 9h-212v-568q0 -21 1.5 -32.5t4 -23t12 -17t19.5 -10.5 t33.5 -6.5l47 -3t66.5 -2.5q20 0 24 -6t4 -26v-39q0 -16 -3.5 -21t-20.5 -5h-466q-16 0 -19 3.5t-3 18.5z" />
<glyph unicode="&#xfb02;" horiz-adv-x="1141" d="M73 22v47q0 26 18 26q48 2 71.5 4.5t43.5 7t26 15.5t9 25t3 41v572h-132q-21 0 -21 18v67q0 21 21 21h132v123q0 333 357 333q81 0 144 -15t151 -56q20 -9 20 -37v-970q0 -85 19 -114t55 -29q47 0 47 44q0 21 4.5 26.5t27.5 5.5h22q22 0 27 -5t5 -25q0 -156 -162 -156 q-188 0 -188 232v537h-386v-585q0 -53 22.5 -64t121.5 -14q20 -1 24 -6t4 -26v-39q0 -16 -4 -21t-21 -5h-437q-16 0 -20 3.5t-4 18.5zM387 866h386v299q-88 41 -172 41q-123 0 -168.5 -56t-45.5 -204v-80z" />
<glyph unicode="&#xfb03;" horiz-adv-x="1645" d="M73 22v47q0 16 3 21t15 5q42 2 61.5 3t40.5 5.5t27.5 9t13.5 16t7.5 23.5t0.5 36v572h-132q-21 0 -21 18v67q0 21 21 21h132v57q0 324 341 324q73 0 126 -10t112 -38q81 123 298 123q79 0 152 -15.5t109 -33.5q15 -9 20.5 -20t5.5 -34v-193q0 -11 -4 -15t-15 -4h-67 q-17 0 -19 17l-16 153q-67 31 -166 31q-109 0 -158 -55.5t-49 -186.5v-100h471q28 0 28 -30v-592q0 -85 19.5 -114t55.5 -29q46 0 46 44q0 21 4.5 26.5t27.5 5.5h22q23 0 27.5 -4.5t4.5 -25.5q0 -156 -162 -156q-188 0 -188 232v486q-3 32 -29 41.5t-113 9.5h-214v-568 q0 -21 1.5 -32.5t4 -23t12 -17t20 -10.5t34 -6.5l47 -3t66.5 -2.5q20 0 24 -6t4 -26v-39q0 -16 -4 -21t-21 -5h-465q-15 0 -18.5 4t-3.5 18v47q0 15 3.5 20.5t14.5 5.5q91 5 113 14.5t25 50.5v600h-384v-568q0 -25 0.5 -38t7 -25t13 -16.5t26.5 -8.5t38.5 -5t58.5 -2 q20 -1 24 -6t4 -26v-39q0 -16 -4 -21t-21 -5h-437q-16 0 -19 3.5t-3 18.5zM385 866h384v117q0 65 9 106q-96 43 -178 43q-112 0 -163.5 -47.5t-51.5 -164.5v-54z" />
<glyph unicode="&#xfb04;" horiz-adv-x="1673" d="M73 22v47q0 16 3 21t15 5q42 2 61.5 3t40.5 5.5t27.5 9t13.5 16t7.5 23.5t0.5 36v572h-132q-21 0 -21 18v67q0 21 21 21h132v57q0 306 326 306q76 0 133 -11t118 -41q80 145 317 145q81 0 144.5 -15t149.5 -56q20 -9 20 -37v-970q0 -84 19.5 -113.5t53.5 -29.5 q48 0 48 44q0 21 4.5 26.5t27.5 5.5h22q22 0 27 -5t5 -25q0 -156 -164 -156q-186 0 -186 232v537h-385v-585q0 -53 22 -64t121 -14q19 -1 22.5 -6t3.5 -26v-39q0 -16 -3.5 -21t-20.5 -5h-438q-15 0 -18.5 4t-3.5 18v47q0 15 4 20.5t15 5.5q40 2 61 3t41 5.5t27.5 9.5t14 16 t7.5 23.5t1 35.5v572h-393v-568q0 -25 0.5 -38t7 -25t13 -16.5t26.5 -8.5t38.5 -5t58.5 -2q20 -1 24 -6t4 -26v-39q0 -16 -4 -21t-21 -5h-437q-16 0 -19 3.5t-3 18.5zM385 866h393v123q0 40 6 76q-104 48 -199 48q-105 0 -152.5 -43.5t-47.5 -149.5v-54zM922 866h385v299 q-88 41 -171 41q-122 0 -168 -56.5t-46 -203.5v-80z" />
<glyph horiz-adv-x="2048" />
<glyph horiz-adv-x="2048" />
<glyph unicode="&#xd;" horiz-adv-x="2048" />
<glyph unicode=" "  horiz-adv-x="398" />
<glyph unicode="&#x09;" horiz-adv-x="398" />
<glyph unicode="&#xa0;" horiz-adv-x="398" />
<glyph unicode="!" horiz-adv-x="510" d="M158 84q0 39 27.5 66t67.5 27q38 0 65.5 -27t27.5 -66q0 -44 -27 -69.5t-66 -25.5q-42 0 -68.5 25t-26.5 70zM181 1331q0 21 18 21h108q15 0 20 -5t3 -18l-17 -1018q0 -14 -6 -18t-20 -4h-73q-17 0 -20 22z" />
<glyph unicode="&#x22;" horiz-adv-x="664" d="M145 871v423q0 13 11 13h121q8 0 10.5 -2.5t2.5 -12.5v-421q0 -15 -14 -15h-114q-11 0 -14 2.5t-3 12.5zM374 871v423q0 13 11 13h121q8 0 10.5 -2.5t2.5 -12.5v-421q0 -15 -14 -15h-114q-11 0 -14 2.5t-3 12.5z" />
<glyph unicode="#" horiz-adv-x="1375" d="M99 415v110h292l60 281h-283v110h307l82 397h124l-80 -397h276l82 397h125l-79 -397h274v-110h-302l-57 -281h281v-110h-309l-84 -415h-125l86 415h-277l-86 -415h-121l82 415h-268zM518 525h275l58 281h-278z" />
<glyph unicode="$" horiz-adv-x="1117" d="M123 82v272q0 16 5.5 21t24.5 5h61q14 0 19 -5t7 -19l17 -218q115 -30 279 -30q41 0 79 4.5t85 19.5t80.5 40t56.5 71t23 107q0 80 -39 134.5t-101 83t-137 49t-150 44.5t-137 58t-101 100.5t-39 161.5q0 81 22.5 142t59.5 98t91.5 60.5t112 32t128.5 8.5 q107 0 200 -15.5t140 -34.5q18 -8 23 -16t5 -29v-272q0 -14 -3 -19.5t-6.5 -6t-14.5 -0.5h-69q-14 0 -18 4t-6 17l-19 221q-64 17 -109 22.5t-123 5.5q-272 0 -272 -197q0 -56 24 -96.5t65 -64t93.5 -41t111 -32.5t117 -32t111 -45.5t93.5 -68t65 -104t24 -149.5 q0 -388 -460 -388q-101 0 -226.5 16.5t-164.5 34.5q-28 11 -28 50zM501 -335l7 249q3 18 10 20q3 1 7 1h93q10 0 12 -14l1 -3l8 -253q0 -19 -10 -19h-119q-9 0 -9 19zM506 1650q-4 16 10 16h119q6 0 7.5 -3.5t1.5 -14.5l-9 -253q0 -15 -13 -15h-91q-12 0 -14.5 4t-2.5 14z " />
<glyph unicode="%" horiz-adv-x="1995" d="M88 931q0 80 21.5 148.5t66 124.5t121 88t178.5 32t179 -32t122.5 -88t67.5 -124.5t22 -148.5t-22 -149.5t-67.5 -126t-122.5 -89t-179 -32.5t-178.5 32.5t-121 89t-66 125.5t-21.5 150zM236 931q0 -136 64 -213.5t175 -77.5q112 0 177 77.5t65 213.5q0 135 -61 211 t-181 76q-113 0 -176 -76t-63 -211zM490 20l890 1276q20 30 46 30h103q21 0 24.5 -7t-11.5 -32l-887 -1276q-14 -20 -25.5 -25.5t-35.5 -5.5h-84q-25 0 -30.5 6t10.5 34zM1132 378q0 80 21.5 148.5t65.5 124.5t121 88t179 32q101 0 178 -32t122 -88t67 -124.5t22 -148.5 t-22 -149.5t-67 -126t-122 -89t-178 -32.5q-102 0 -179 32.5t-121 89t-65.5 125.5t-21.5 150zM1279 378q0 -136 64.5 -213t175.5 -77q112 0 176 77t64 213q0 135 -60.5 211t-179.5 76q-113 0 -176.5 -76t-63.5 -211z" />
<glyph unicode="&#x26;" horiz-adv-x="1388" d="M136 341q0 84 24.5 149.5t64 103t79 58t80.5 28.5q-54 12 -94 43t-61 74t-31 89t-10 97q0 96 27 163.5t78 105t114 54t146 16.5q115 0 238 -43q17 -6 20.5 -15.5t3.5 -36.5v-257q0 -16 -2.5 -19t-15.5 -3h-63q-10 0 -12.5 3.5t-4.5 14.5l-24 213q-52 22 -129 22 q-57 0 -96.5 -9.5t-72.5 -34t-49 -71.5t-16 -118q0 -233 260 -233h294l56 231q6 28 28 28h32q24 0 24 -28v-231h214q22 0 22 -24v-69q0 -14 -4.5 -18t-17.5 -4h-214v-324q0 -117 25.5 -161t82.5 -44q79 0 82 88q0 14 4.5 20t17.5 6h34q14 0 18 -7t4 -25q0 -90 -51 -141 t-143 -51q-114 0 -167 79q-158 -79 -385 -79q-75 0 -133.5 9t-112 33t-88.5 63.5t-55.5 103.5t-20.5 151zM294 359q0 -139 65.5 -195t212.5 -56q162 0 316 69q-7 37 -7 110v333h-291q-135 0 -215.5 -65t-80.5 -196z" />
<glyph unicode="'" horiz-adv-x="437" d="M145 871v417q0 15 11 15h121q8 0 10.5 -3t2.5 -13v-416q0 -15 -14 -15h-114q-11 0 -14 2.5t-3 12.5z" />
<glyph unicode="(" horiz-adv-x="584" d="M101 557q0 209 86 421.5t243 369.5q1 1 6.5 7t6.5 5.5t8 -1.5l59 -46q10 -6 -9 -30q-118 -134 -178 -339.5t-60 -396.5q0 -195 61 -399t181 -351q12 -14 5 -20l-52 -51q-5 -5 -15 7q-2 1 -2.5 2t-1.5 2q-162 163 -250 383.5t-88 436.5z" />
<glyph unicode=")" horiz-adv-x="584" d="M73 -223q-7 7 7 20q120 147 181 351t61 399q0 191 -60 396.5t-178 339.5q-19 24 -10 30l58 46q2 3 6.5 1.5t6 -2.5t5.5 -5l5 -5q156 -157 242.5 -370t86.5 -421q0 -216 -88.5 -436.5t-250.5 -383.5l-3 -3t-3 -3.5t-3 -3.5t-3 -2.5t-3 0t-3 1.5z" />
<glyph unicode="*" horiz-adv-x="822" d="M117 1058l30 100q5 8 17 6l205 -69l-41 195v4q1 8 7 9h147q15 0 10 -15l-41 -193l204 67q10 2 15 -6l36 -98q4 -6 0.5 -9t-10.5 -3l-216 -20l147 -140l2 -2q14 -14 4 -20l-108 -67q-6 -4 -8 -3t-7 8l-99 183l-100 -179q-5 -7 -7.5 -8t-9.5 3l-102 61q-6 6 3 15l142 149 l-207 20q-11 2 -13.5 3.5t0.5 8.5z" />
<glyph unicode="+" horiz-adv-x="1128" d="M108 421v115h402v386h116v-386h394v-115h-394v-384h-116v384h-402z" />
<glyph unicode="," horiz-adv-x="422" d="M58 -192l95 343q5 22 11.5 28.5t29.5 6.5h83q25 0 29.5 -11t-6.5 -35l-119 -332q-8 -24 -32 -24h-73q-24 0 -18 24z" />
<glyph unicode="-" horiz-adv-x="919" d="M140 503v72q0 21 18 21h605q17 0 17 -23v-63q0 -14 -4 -20t-16 -6h-604q-16 0 -16 19z" />
<glyph unicode="." horiz-adv-x="450" d="M130 84q0 39 27.5 66t67.5 27q38 0 65.5 -27t27.5 -66q0 -44 -27 -69.5t-66 -25.5q-42 0 -68.5 25t-26.5 70z" />
<glyph unicode="/" horiz-adv-x="886" d="M58 -104l610 1469q10 18 21 18h123q21 0 13 -22l-607 -1465q-6 -15 -28 -15h-123q-16 0 -9 15z" />
<glyph unicode="0" horiz-adv-x="1241" d="M121 652q0 146 31.5 267.5t92.5 211.5t157 140.5t220 50.5q99 0 181 -33t140.5 -92t98.5 -142.5t59.5 -184.5t19.5 -218q0 -198 -53.5 -346.5t-167.5 -236.5t-278 -88t-278.5 88t-168.5 237t-54 346zM283 655q0 -259 89.5 -407.5t249.5 -148.5q158 0 247.5 149t89.5 407 q0 255 -89.5 401.5t-247.5 146.5q-160 0 -249.5 -146t-89.5 -402z" />
<glyph unicode="1" horiz-adv-x="798" d="M108 22v47q0 10 0.5 14.5t5 8t13.5 3.5q52 2 81.5 3.5t58 4.5t41.5 7t24.5 11.5t15 17.5t4.5 25v957q-3 22 -35 2l-176 -108q-29 -17 -29 13v70q0 20 24 36l238 151q33 18 73 18h31q23 0 23 -20v-1106q0 -23 4 -35.5t13 -22t36 -13.5t59.5 -6t97.5 -3q20 0 24 -6t4 -26 v-39q0 -16 -4 -21t-20 -5h-585q-16 0 -19 3.5t-3 18.5z" />
<glyph unicode="2" horiz-adv-x="1124" d="M108 17v80q0 22 11 31q150 92 265.5 183.5t210 197t144.5 223.5t50 242q0 60 -16.5 103.5t-40 66.5t-61.5 36t-68 16t-71 3q-130 0 -251 -41l-26 -236q-2 -13 -4.5 -16t-15.5 -3h-69q-13 0 -17 4t-4 18v289q0 23 5 31t21 14q165 63 365 63q73 0 128 -7t110.5 -28.5 t91 -58t58 -98.5t22.5 -147q0 -244 -167 -462.5t-455 -392.5h518q25 0 31 43l10 160q1 13 2 17.5t6.5 8.5t17.5 4h59q15 0 19.5 -6.5t4.5 -28.5v-306q0 -14 -4 -17t-16 -3h-844q-20 0 -20 17z" />
<glyph unicode="3" horiz-adv-x="1076" d="M110 56v71q0 17 5.5 22.5t16.5 3.5q2 0 42 -9t76.5 -15.5t100 -12.5t124.5 -6q326 0 326 275q0 135 -72 189.5t-206 54.5h-117q-21 0 -21 26v75q0 11 10 24l355 421h-443q-17 0 -21.5 -9t-9.5 -47l-8 -143q0 -15 -4 -20t-18 -5h-60q-16 0 -21 4.5t-5 20.5v301 q0 17 4.5 21.5t19.5 4.5h726q13 0 16 -5.5t3 -22.5v-63q0 -9 -0.5 -14t-3 -10.5t-4.5 -8t-8.5 -10.5t-11.5 -15l-352 -409h28q202 0 290 -83.5t88 -270.5q0 -91 -24 -162t-65.5 -117t-100.5 -76t-125 -42.5t-143 -12.5q-225 0 -365 43q-13 5 -17.5 11t-4.5 21z" />
<glyph unicode="4" horiz-adv-x="1171" d="M69 344l201 935q3 16 7.5 20t20.5 4h97q14 0 18 -4.5t2 -17.5l-179 -832h427v793q0 14 3.5 18t16.5 4h103q12 0 16 -4t4 -14v-797h238q13 0 18 -4.5t5 -18.5v-87q0 -12 -3.5 -14.5t-17.5 -2.5h-240v-138q0 -22 0.5 -32.5t7.5 -22t15.5 -15.5t32 -8.5t49 -5.5t74.5 -3 q18 0 22 -5t4 -21v-51q0 -13 -3.5 -16.5t-18.5 -3.5h-561q-14 0 -17 3.5t-3 15.5v54v8t0.5 5t2.5 5t5 2t8 2q63 3 98.5 5t66 7t42.5 9t21 14t10 20t1 29v143h-574q-14 0 -17 4t-3 18z" />
<glyph unicode="5" horiz-adv-x="1068" d="M102 67v69q0 36 26 26q2 0 27.5 -8t55 -15.5t70 -16t88 -13.5t93.5 -5q53 0 97 7t87.5 27t73 52t48 86t18.5 126q0 91 -28 150t-87.5 89.5t-131 41.5t-178.5 11h-171q-24 0 -21 27l69 554q3 18 7 23t16 5h616q16 0 21 -4.5t5 -21.5v-281q0 -24 -5 -29.5t-23 -5.5h-56 q-15 0 -19.5 6t-6.5 23l-5 129q-5 36 -10.5 46t-23.5 10h-389l-50 -361h65q114 0 196.5 -10t155.5 -37t117.5 -72.5t69.5 -118.5t25 -174q0 -421 -460 -421q-112 0 -208 17t-148 37q-26 12 -26 32z" />
<glyph unicode="6" horiz-adv-x="1131" d="M119 512q0 134 29.5 253.5t91.5 222t152.5 176.5t219.5 116t285 42h21q15 0 20.5 -5t5.5 -19v-69q0 -16 -5.5 -22t-20.5 -6h-21q-268 0 -421.5 -148.5t-188.5 -410.5q127 172 335 172q107 0 187.5 -32t127.5 -89t70 -128.5t23 -156.5q0 -200 -118 -313.5t-333 -113.5 q-231 0 -345.5 135t-114.5 396zM277 478q3 -379 302 -379q138 0 217 77t79 226q0 136 -69 216t-214 80q-224 0 -315 -220z" />
<glyph unicode="7" horiz-adv-x="977" d="M102 972v311q0 14 4 17t19 3h785q14 0 17.5 -5.5t3.5 -22.5v-76q0 -19 -13 -47l-568 -1126q-10 -17 -18 -21.5t-27 -4.5h-106q-28 0 -15 24l585 1147h-540l-20 -199q0 -16 -4.5 -23t-20.5 -7h-57q-13 0 -19 6.5t-6 23.5z" />
<glyph unicode="8" horiz-adv-x="1145" d="M112 382q0 77 27 145.5t92 127.5t160 88q-91 34 -136 105.5t-45 162.5q0 60 21.5 114t64.5 98.5t114.5 70.5t162.5 26t162 -26t113.5 -70t64.5 -98.5t22 -114.5q0 -90 -44.5 -161t-134.5 -107q142 -40 208 -137t66 -224q0 -78 -24.5 -146.5t-76 -127t-144 -93 t-215.5 -34.5q-100 0 -179.5 23t-130.5 61t-85.5 91t-48.5 108.5t-14 117.5zM264 382q0 -122 75.5 -202.5t230.5 -80.5q154 0 230.5 81t76.5 204q0 122 -76.5 205t-228.5 83q-155 0 -231.5 -83t-76.5 -207zM348 1002q0 -91 54.5 -148t169.5 -57q114 0 170.5 57.5t56.5 147.5 t-56.5 151t-169.5 61q-115 0 -170 -60.5t-55 -151.5z" />
<glyph unicode="9" horiz-adv-x="1111" d="M99 899q0 194 117 308.5t326 114.5q231 0 340.5 -140t109.5 -389q0 -139 -28.5 -260.5t-88 -223t-147 -174.5t-211.5 -113.5t-275 -40.5h-19q-26 0 -26 26v66q0 29 26 29h19q249 0 397 139.5t186 393.5q-122 -145 -324 -145q-88 0 -158 23.5t-115 62t-74.5 92t-42 110.5 t-12.5 121zM253 894q0 -132 69.5 -210.5t208.5 -78.5q114 0 188.5 50t118.5 155v4q0 188 -74 290t-226 102q-131 0 -208 -80t-77 -232z" />
<glyph unicode=":" horiz-adv-x="459" d="M134 76q0 39 27.5 66t67.5 27q38 0 65.5 -27t27.5 -66q0 -44 -27 -69.5t-66 -25.5q-42 0 -68.5 25t-26.5 70zM134 724q0 39 27.5 66t67.5 27q38 0 65.5 -27t27.5 -66q0 -44 -27 -69.5t-66 -25.5q-42 0 -68.5 25t-26.5 70z" />
<glyph unicode=";" horiz-adv-x="554" d="M104 -192l95 343q5 22 11.5 28.5t29.5 6.5h84q24 0 28.5 -11t-6.5 -35l-119 -332q-8 -24 -32 -24h-72q-25 0 -19 24zM197 789q0 39 27.5 66.5t67.5 27.5q38 0 65.5 -27.5t27.5 -66.5q0 -44 -27 -69.5t-66 -25.5q-42 0 -68.5 25t-26.5 70z" />
<glyph unicode="&#x3c;" horiz-adv-x="1025" d="M91 417v119l808 386v-127l-623 -318l623 -317v-130z" />
<glyph unicode="=" horiz-adv-x="1089" d="M149 246v115h791v-115h-791zM151 518v113h789v-113h-789z" />
<glyph unicode="&#x3e;" horiz-adv-x="1025" d="M127 30v126l623 321l-623 322v123l808 -388v-117z" />
<glyph unicode="?" horiz-adv-x="889" d="M97 955v272q0 21 4.5 29t21.5 16q42 19 131.5 34.5t196.5 15.5q62 0 112.5 -8.5t98 -31t79 -59t50.5 -95.5t19 -138q0 -87 -19 -146.5t-49 -90.5t-66 -53t-72.5 -42.5t-66.5 -49.5t-49 -84.5t-19 -136.5v-136q0 -20 -17 -20l-111 -2q-15 0 -15 20v144q0 78 11.5 137.5 t31 96t45 62.5t54 42.5t56.5 31t53.5 32.5t45 42.5t31 66t11.5 98.5q0 197 -220 197q-71 0 -114.5 -6.5t-103.5 -23.5l-15 -219q-2 -14 -5 -17.5t-17 -3.5h-69h-11t-6.5 2.5t-5.5 8t-1 15.5zM305 84q0 39 25.5 66t64.5 27q38 0 65.5 -27t27.5 -66q0 -44 -27 -69.5t-66 -25.5 q-40 0 -65 25t-25 70z" />
<glyph unicode="@" horiz-adv-x="1562" d="M117 581q0 136 41.5 253t112 199t164 140.5t197.5 86.5t213 28q276 0 447 -155t171 -396q0 -100 -21.5 -185t-64 -150t-111 -101.5t-156.5 -36.5q-66 0 -112.5 27.5t-61.5 71.5q-37 -41 -100 -70t-132 -29q-116 0 -192 78.5t-76 216.5q0 78 26 152t76 137t132.5 101 t184.5 38q140 0 205.5 -73t65.5 -184q0 -58 -26.5 -141t-51.5 -138q-14 -37 7.5 -60.5t65.5 -23.5q98 0 158 106.5t60 254.5q0 205 -141 333.5t-358 128.5q-84 0 -167.5 -23.5t-161.5 -73.5t-137.5 -120t-95.5 -171t-36 -219q0 -178 76.5 -307t208 -193t302.5 -64 q124 0 222.5 23.5t199.5 76.5q17 11 22 -4l30 -59q7 -14 -15 -26q-189 -110 -459 -110q-151 0 -280 43.5t-225.5 125t-151.5 208.5t-55 284zM559 559q0 -92 41.5 -144t121.5 -52q47 0 89.5 21t72.5 54.5t54 74t38 81t21.5 74t7.5 54.5q0 168 -167 168q-82 0 -147 -49 t-98.5 -124t-33.5 -158z" />
<glyph unicode="A" horiz-adv-x="1383" d="M41 22v47q0 12 3.5 18t6.5 7t9 1q105 5 130.5 18t25.5 60v91q0 238 27.5 428.5t83.5 333t146 219.5t210 77q160 0 270 -130t163 -364.5t53 -563.5v-100q1 -44 24.5 -54t117.5 -13q20 0 24 -6t4 -26v-39q0 -16 -4.5 -21t-20.5 -5h-454q-16 0 -19 3t-3 19v47v12.5t1.5 7 t5.5 5.5t11 1q73 3 104.5 10t42 21t10.5 47v91q0 86 -2 127h-663q-2 -41 -2 -127v-100q1 -44 24.5 -54t117.5 -13q18 0 22 -6t4 -26v-39q0 -16 -3.5 -21t-20.5 -5h-427q-15 0 -18.5 3t-3.5 19zM356 514h648q-24 320 -108 501.5t-216 181.5t-216 -181.5t-108 -501.5z" />
<glyph unicode="B" horiz-adv-x="1247" d="M102 22v47q0 16 2.5 21t14.5 5q97 3 125.5 14t31.5 46v986q0 41 -24.5 50.5t-128.5 14.5q-14 1 -17.5 5.5t-3.5 17.5v54q0 14 4 17t19 3h478q408 0 408 -322q0 -112 -41.5 -180t-109.5 -97q147 -21 214 -104t67 -235q0 -186 -124.5 -275.5t-402.5 -89.5h-489 q-14 0 -18.5 4t-4.5 18zM424 114h213q106 0 176.5 17t107.5 51.5t51.5 77t14.5 103.5q0 57 -12.5 100t-43 79.5t-90 56t-145.5 19.5h-272v-504zM424 734h239q98 0 149.5 68t51.5 166q0 101 -57.5 161.5t-182.5 60.5h-200v-456z" />
<glyph unicode="C" horiz-adv-x="1256" d="M117 640q0 338 163.5 510t464.5 172q227 0 357 -41q22 -5 27 -13.5t5 -34.5v-310q0 -15 -4 -18.5t-17 -3.5h-76q-14 0 -18 3.5t-6 15.5l-26 259q-98 24 -240 24q-222 0 -348.5 -141.5t-126.5 -424.5q0 -279 125.5 -402t362.5 -123q146 0 379 43q14 3 20 -1.5t6 -19.5v-61 q0 -21 -6.5 -29.5t-28.5 -13.5q-213 -45 -391 -45q-311 0 -466.5 157t-155.5 498z" />
<glyph unicode="D" horiz-adv-x="1416" d="M102 22v47q0 16 2.5 21t14.5 5q97 3 125.5 14t31.5 46v986q0 41 -24.5 50.5t-128.5 14.5q-14 1 -17.5 5.5t-3.5 17.5v54q0 14 4 17t19 3h458q190 0 328 -44.5t222 -130.5t123.5 -204t39.5 -274q0 -328 -168.5 -489t-527.5 -161h-475q-14 0 -18.5 4t-4.5 18zM430 117h160 q277 0 412.5 130t135.5 399q0 261 -131 401.5t-419 140.5h-158v-1071z" />
<glyph unicode="E" horiz-adv-x="1104" d="M114 337q0 73 18 130t45.5 92.5t68 61.5t77 38t81.5 21q-121 24 -176 107.5t-55 206.5q0 94 32 160t91.5 101.5t131.5 51t166 15.5q199 0 337 -45q8 -3 13 -5t8.5 -5t5 -4t2.5 -6.5t1 -7v-10v-12.5v-257q0 -16 -3 -19t-18 -3h-63q-11 0 -14.5 3t-6.5 15l-24 211 q-83 24 -229 24q-66 0 -114 -9t-89 -32t-62 -67t-21 -108q0 -132 82 -188t232 -56h130q13 0 18 -5.5t5 -20.5v-67q0 -15 -5 -20.5t-18 -5.5h-130q-357 0 -357 -270q0 -130 86 -187t266 -57q63 0 133 6.5t115 14t88 16t45 8.5q11 2 15 -2.5t4 -18.5v-84q0 -12 -6 -16.5 t-22 -9.5q-160 -41 -410 -41q-84 0 -150.5 9t-129 32.5t-104 62.5t-66 103t-24.5 149z" />
<glyph unicode="F" horiz-adv-x="1085" d="M102 22v47q0 10 0.5 14.5t5 8t13.5 3.5q101 3 127 14.5t29 56.5v962q0 33 -9.5 47t-41.5 21.5t-105 9.5q-13 1 -16 6.5t-3 20.5v48q0 14 4.5 18t18.5 4h860q11 0 15 -1t6.5 -5t2.5 -14v-322q0 -25 -24 -25h-60q-14 0 -19 5.5t-7 17.5l-13 193q-3 29 -8.5 35t-22.5 6h-431 v-476h345q15 0 21.5 -4.5t6.5 -18.5v-70q0 -19 -5.5 -25.5t-22.5 -6.5h-345v-400q0 -18 0.5 -28.5t4 -22t7.5 -16.5t16.5 -11t24 -8t36 -4.5t48.5 -3t65 -1.5q10 0 16 -1t8 -6.5t2.5 -9t0.5 -15.5v-39q0 -16 -3.5 -21t-20.5 -5h-504q-16 0 -19.5 3.5t-3.5 18.5z" />
<glyph unicode="G" horiz-adv-x="1379" d="M117 635q0 335 169.5 511t482.5 176q244 0 424 -73q22 -9 28 -21.5t6 -41.5v-281q0 -14 -4.5 -18t-17.5 -4h-73q-12 0 -15.5 3t-6.5 15l-25 248q-129 52 -309 52q-241 0 -368 -142t-127 -424q0 -269 126.5 -401t387.5 -132q172 0 289 41v349h-259q-28 0 -28 27v67 q0 28 28 28h374q28 0 28 -28v-487q0 -15 -1.5 -22t-9.5 -15.5t-24 -14.5q-172 -66 -408 -66q-667 0 -667 654z" />
<glyph unicode="H" horiz-adv-x="1422" d="M99 22v47q0 11 0.5 15t4.5 7.5t13 3.5q41 2 63 3t42.5 5.5t28.5 9t14.5 16.5t7.5 24t1 35v951q-3 44 -26 54t-116 13q-20 0 -24 5t-4 25v41q0 16 4 21t20 5h445q16 0 19.5 -3.5t3.5 -18.5v-48q0 -10 -0.5 -14.5t-5 -8t-13.5 -4.5q-102 -3 -128.5 -13.5t-27.5 -54.5v-524 h566v525q-1 44 -24.5 54t-117.5 13q-20 0 -24 5t-4 25v41q0 16 4.5 21t20.5 5h446q15 0 19 -4t4 -18v-48q0 -10 -0.5 -14.5t-5 -8t-13.5 -4.5q-102 -3 -128.5 -13.5t-27.5 -54.5v-935q0 -101 70 -101q75 0 75 67v8q0 15 15 15h58q13 0 13 -13v-8q0 -178 -187 -178 q-193 0 -193 217v287h-566v-305q0 -25 0.5 -37t6 -25t12 -17t25 -8.5t38.5 -5.5t59 -2q20 0 24 -6t4 -26v-39q0 -16 -4 -21t-20 -5h-445q-16 0 -19 3.5t-3 18.5z" />
<glyph unicode="I" horiz-adv-x="698" d="M101 22v47q0 11 0.5 15t4.5 7.5t13 3.5q41 2 63 3t42.5 5.5t28.5 9t14.5 16.5t7.5 24t1 35v924q0 25 -0.5 37t-6 24.5t-12 16.5t-25.5 8.5t-39 5.5t-59 2q-20 0 -24 5t-4 25v41q0 16 4 21t20 5h447q15 0 18 -3.5t3 -18.5v-48q0 -10 -0.5 -14.5t-5 -8t-13.5 -4.5 q-49 -1 -73 -3.5t-44 -6.5t-26.5 -15.5t-9 -24.5t-2.5 -41v-970q4 -31 29.5 -38.5t110.5 -9.5q20 0 24 -6t4 -26v-39q0 -16 -4 -21t-20 -5h-445q-16 0 -19 3.5t-3 18.5z" />
<glyph unicode="J" horiz-adv-x="677" d="M41 -253q-5 15 -0.5 24t22.5 17l69 35q61 29 86.5 50.5t38.5 64t13 125.5v1049q0 25 -0.5 37t-6 24.5t-12 16.5t-25.5 8.5t-39 5.5t-59 2q-20 0 -23.5 5t-3.5 25v41q0 16 4 21t20 5h445q16 0 19 -3.5t3 -18.5v-48q0 -10 -0.5 -14.5t-5 -8t-13.5 -4.5q-49 -1 -73 -3.5 t-44.5 -6.5t-26.5 -15.5t-9 -25t-3 -40.5v-1104q0 -80 -15.5 -124.5t-64.5 -83t-151 -79.5l-91 -35q-26 -10 -35 15z" />
<glyph unicode="K" horiz-adv-x="1329" d="M99 22v47q0 11 0.5 15t4.5 7.5t13 3.5q101 3 127.5 14.5t29.5 56.5v946q0 25 -0.5 37t-6 24.5t-12 16.5t-25.5 8.5t-39 5.5t-59 2q-20 0 -24 5t-4 25v41q0 16 4 21t20 5h445q16 0 19.5 -3.5t3.5 -18.5v-48q0 -10 -0.5 -14.5t-5 -8t-13.5 -4.5q-102 -3 -128.5 -13.5 t-27.5 -54.5v-468l478 507q8 17 -11 21.5t-91 7.5q-21 0 -25.5 5t-4.5 25v41v13.5t2.5 7t8 5t17.5 0.5h417q19 0 22.5 -3.5t3.5 -18.5v-48q0 -11 -1 -15.5t-5 -7.5t-14 -4q-65 -2 -94.5 -8t-38.5 -12.5t-35 -34.5l-50 -53h-2l-417 -435l411 -460q54 -63 93.5 -87.5 t83.5 -24.5q43 0 84 15q32 10 32 -15v-56q0 -16 -6.5 -23t-29.5 -14q-48 -17 -121 -17q-84 0 -136 32.5t-132 131.5l-439 508v-461q0 -25 0.5 -37t6 -25t12 -17t25 -8.5t38.5 -5.5t59 -2q20 0 24 -6t4 -26v-39q0 -16 -4 -21t-20 -5h-445q-16 0 -19 3.5t-3 18.5z" />
<glyph unicode="L" horiz-adv-x="1122" d="M99 22v47v12.5t1.5 7t5.5 5.5t11 1q59 2 86.5 5t45.5 12t21.5 21.5t3.5 39.5v966q-3 44 -26 54t-116 13q-20 0 -24 5t-4 25v41q0 16 4 21t20 5h445q16 0 19.5 -3.5t3.5 -18.5v-48q0 -10 -0.5 -14.5t-5 -8t-13.5 -4.5q-49 -1 -73 -3.5t-44.5 -6.5t-26.5 -15.5t-9 -25 t-3 -40.5v-990l482 -2q18 0 24 9t9 34l12 162q2 18 7.5 23.5t23.5 5.5h51q16 0 19 -5.5t3 -29.5v-302q0 -14 -4 -17t-18 -3h-909q-14 0 -18 4t-4 18z" />
<glyph unicode="M" horiz-adv-x="1811" d="M108 1233v48q0 14 4.5 18t21.5 4h290q42 0 53.5 -12t19.5 -51q1 -4 2 -7q34 -146 180 -519.5t237 -562.5h6q96 221 205.5 537.5t166.5 544.5q2 7 5 21.5t4.5 18.5t6.5 12.5t11.5 10.5t17.5 4.5t28 2.5h299q20 0 24 -3.5t4 -18.5v-48q0 -15 -4 -20.5t-20 -6.5 q-43 -1 -66 -3.5t-41 -6t-24.5 -13.5t-9 -21.5t-2.5 -33.5v-925q0 -101 72 -101q73 0 73 67v8q0 15 15 15h58q14 0 14 -13v-8q0 -89 -48 -133.5t-138 -44.5q-195 0 -195 217v849q-52 -228 -181.5 -570t-202.5 -469q-12 -20 -44 -20h-84q-12 0 -17.5 1t-12 5.5t-11.5 13.5 q-83 145 -215 455.5t-208 555.5v-849q0 -57 19.5 -69.5t109.5 -15.5q23 0 28 -6t5 -26v-39q0 -16 -5.5 -21t-24.5 -5h-396q-19 0 -22.5 3.5t-3.5 18.5v47q0 16 5.5 21t22.5 5q35 2 54.5 3.5t36.5 6t24 8.5t12.5 15.5t6 22.5t0.5 33v944q0 19 -1 29t-7 19.5t-13.5 13.5t-26 8 t-39 5t-57.5 3q-11 1 -15.5 4.5t-5.5 8t-1 14.5z" />
<glyph unicode="N" horiz-adv-x="1474" d="M101 1233v48q0 14 4 18t18 4h249q23 0 36 -8t26 -25l651 -1061v919q0 33 -9.5 47t-41.5 21.5t-105 9.5q-12 1 -14.5 6.5t-2.5 20.5v48q0 14 3.5 18t17.5 4h428q16 0 20 -5t4 -21v-41q0 -20 -4 -25t-24 -5q-96 -3 -118.5 -15.5t-22.5 -64.5v-1083q0 -43 -28 -43h-90 q-41 0 -57 24l-635 1026v-864q0 -33 2 -46.5t17.5 -24.5t41 -13.5t79.5 -4.5q10 0 16 -1t8 -6.5t2.5 -9t0.5 -15.5v-39q0 -16 -4 -21t-18 -5h-424q-15 0 -18 3.5t-3 18.5v47q0 15 4.5 20.5t19.5 5.5q56 2 81.5 5t42.5 13.5t19.5 24.5t2.5 46v957q0 40 -27.5 51t-129.5 14 q-7 1 -11 2.5t-5.5 6t-1.5 7v11.5z" />
<glyph unicode="O" horiz-adv-x="1472" d="M114 652q0 146 39 267.5t114.5 211.5t195 140.5t272.5 50.5q124 0 226.5 -33t175.5 -92t123.5 -142.5t74.5 -185t24 -217.5q0 -147 -39 -268.5t-114.5 -212t-196 -140.5t-274.5 -50q-153 0 -272.5 50t-195 140.5t-114.5 212t-39 268.5zM274 655q0 -255 122.5 -402 t338.5 -147q218 0 342 147t124 402q0 253 -123.5 396.5t-342.5 143.5q-217 0 -339 -143.5t-122 -396.5z" />
<glyph unicode="P" horiz-adv-x="1113" d="M101 1233v48q0 14 4.5 18t19.5 4h419q116 0 202 -22t138 -58t83.5 -90t43 -110t11.5 -126q0 -204 -115 -320.5t-343 -116.5q-81 0 -140 11v-309q1 -43 25 -53t117 -12q20 0 24 -6t4 -26v-39q0 -16 -4 -21t-20 -5h-445q-16 0 -19.5 3.5t-3.5 18.5v47q0 10 0.5 14.5t5 8 t13.5 3.5q50 2 73.5 4.5t44 7t26.5 15.5t9 25t3 41v814h-1v126q0 33 -9.5 47t-41.5 21.5t-106 9.5q-7 1 -11 2.5t-5.5 6t-1.5 7v11.5zM424 592q25 -13 133 -13q151 0 231 82.5t80 230.5q0 301 -287 301h-157v-601z" />
<glyph unicode="Q" horiz-adv-x="1474" d="M114 652q0 146 39 267.5t114.5 211.5t195 140.5t272.5 50.5q124 0 226.5 -33t175.5 -92t123.5 -142.5t74.5 -185t24 -217.5q0 -224 -88.5 -386.5t-261.5 -235.5l26 -60q29 -75 74 -106.5t120 -31.5q38 0 72 8h3.5h3.5t3 -0.5t3 -1.5t2 -3t1.5 -5t0.5 -7v-58q0 -12 -5 -18 t-21 -10q-53 -11 -113 -11q-218 0 -293 227l-13 40q-74 -12 -138 -12q-153 0 -272.5 50t-195 140.5t-114.5 212t-39 268.5zM274 655q0 -187 67.5 -318t192.5 -190q-7 20 -7 52q0 62 42.5 104.5t121.5 42.5q95 0 156 -43.5t108 -147.5q118 62 182 191t64 309 q0 253 -123.5 396.5t-342.5 143.5q-217 0 -339 -143.5t-122 -396.5zM611 192q0 -58 59 -82q20 -4 65 -4q55 0 95 8l-1 9q-31 90 -63.5 115t-82.5 25q-32 0 -52 -20t-20 -51z" />
<glyph unicode="R" horiz-adv-x="1215" d="M101 22v47q0 11 0.5 15t4.5 7.5t13 3.5q101 3 127.5 14.5t29.5 56.5v962q0 33 -9.5 47t-41.5 21.5t-106 9.5q-7 1 -11 2.5t-5.5 6t-1.5 7v11.5v48q0 14 4 18t18 4h460q460 0 460 -430q0 -145 -66.5 -248t-200.5 -145l133 -270q35 -69 61.5 -93t72.5 -24q27 0 70 15 q14 6 21 3.5t11 -16.5l7 -48q6 -21 1 -29.5t-28 -15.5q-63 -21 -131 -21q-51 0 -87 12t-62 43t-38 52t-35 72q-2 3 -2.5 5t-2 5l-2.5 5l-136 281h-41q-95 0 -164 13v-277q0 -26 0.5 -37t6 -24.5t12 -17.5t25 -8.5t39 -5.5t59.5 -2q20 0 24 -6t4 -26v-39q0 -15 -5 -20.5 t-21 -5.5h-443q-16 0 -20 3.5t-4 18.5zM424 594q77 -17 161 -17q151 0 227 76t76 220q0 157 -80.5 237t-219.5 80h-164v-596z" />
<glyph unicode="S" horiz-adv-x="1113" d="M121 82v272q0 16 5.5 21t24.5 5h61q14 0 19 -5t7 -19l17 -218q115 -30 279 -30q41 0 79 4.5t85 19.5t80.5 40t56.5 71t23 107q0 80 -39 134.5t-101 83t-136.5 49t-149.5 44.5t-137 58t-101 100.5t-39 161.5q0 81 22.5 142t59 98t91.5 60.5t112.5 32t127.5 8.5 q107 0 200.5 -15.5t140.5 -34.5q18 -8 22.5 -16t4.5 -29v-272q0 -14 -3 -19.5t-6.5 -6t-14.5 -0.5h-69q-14 0 -18 4t-6 17l-18 221q-64 17 -109.5 22.5t-123.5 5.5q-272 0 -272 -197q0 -56 24 -96.5t65 -64t93.5 -41t111 -32.5t117 -32t111 -45.5t93.5 -68t65 -104 t24 -149.5q0 -388 -460 -388q-101 0 -226.5 16.5t-164.5 34.5q-28 11 -28 50z" />
<glyph unicode="T" horiz-adv-x="1143" d="M84 963v320q0 14 4 17t20 3h927q11 0 15 -1t6.5 -5t2.5 -14v-320q0 -23 -22 -23h-58q-18 0 -22 4.5t-4 16.5l-13 190q-3 18 -9 24.5t-22 6.5l-263 2v-966h2v-26v-28.5t2.5 -21.5t5 -17t11 -11t16.5 -8t25 -4.5t34 -3t46 -1.5q10 0 16 -1t8 -6.5t2.5 -9t0.5 -15.5v-39 q0 -16 -4 -21t-20 -5h-445q-16 0 -19 3.5t-3 18.5v47q0 10 0.5 14.5t5 8t13.5 3.5q101 3 127 14.5t29 56.5v1018h-264q-16 0 -22.5 -7.5t-9.5 -25.5l-13 -190q-1 -7 -1.5 -9t-3 -6t-7 -5t-12.5 -1h-62q-9 0 -14 3.5t-5.5 7.5t-0.5 12z" />
<glyph unicode="U" horiz-adv-x="1444" d="M78 1236v41q0 16 4 21t20 5h455q14 0 17 -3.5t3 -18.5v-48q0 -12 -0.5 -15.5t-4.5 -7t-13 -4.5q-98 -3 -126.5 -15t-30.5 -50v-679q0 -170 87.5 -263t249.5 -93q161 0 246.5 92.5t85.5 263.5v653q0 28 -2.5 41t-8 24.5t-24 15.5t-40.5 6.5t-67 3.5q-20 0 -24 5t-4 25v41 q0 16 4 21t20 5h423q16 0 19 -3.5t3 -18.5v-48q0 -12 -3 -18t-6 -6.5t-9 -0.5q-98 -5 -127 -17.5t-30 -49.5v-679q0 -219 -117.5 -350t-349.5 -131q-236 0 -359 125t-123 356v653q0 23 -0.5 35t-6.5 24t-12.5 16t-25 8.5t-38 5.5t-57.5 2q-20 0 -24 5t-4 25z" />
<glyph unicode="V" horiz-adv-x="1346" d="M39 1227v56q0 12 4.5 16t16.5 4h422q11 0 15 -4t4 -14v-54q0 -25 -21 -25q-64 -2 -91 -6t-33 -10.5t-6 -22.5q0 -89 11.5 -178.5t27.5 -163.5t45 -156.5t53.5 -140.5t63.5 -135t64 -121t66 -116q61 106 93.5 166t85.5 174t81 205t50 216t22 250q0 16 -6 22.5t-33 10.5 t-91 6q-21 0 -21 25v54q0 18 17 18h406q11 0 14.5 -3.5t3.5 -16.5v-56q0 -9 -0.5 -12t-4 -5.5t-11.5 -3.5q-99 -4 -121.5 -10t-22.5 -25q0 -106 -14.5 -212.5t-34.5 -191.5t-57.5 -181.5t-66 -160.5t-78.5 -153t-77 -133t-78 -126q-11 -20 -39 -20h-54q-26 0 -37 20 q-51 82 -78 126t-77 133t-78.5 153t-66 160.5t-57.5 181.5t-34.5 191.5t-14.5 212.5q0 11 -8.5 17t-39.5 10.5t-95 7.5q-13 1 -16 5t-3 16z" />
<glyph unicode="W" horiz-adv-x="1960" d="M43 1227v56q0 13 2.5 16.5t14.5 3.5h446q8 0 10.5 -4.5t2.5 -17.5v-50q0 -12 -0.5 -15.5t-4.5 -6.5t-13 -3q-50 -2 -75.5 -3.5t-40 -6t-17.5 -10t-3 -17.5q2 -156 26 -304t69 -284t83 -228t96 -215q51 109 90.5 208t86 237.5t73.5 289.5t29 296q1 11 -4.5 17.5 t-24.5 10.5t-41.5 5.5t-67.5 3.5q-19 0 -19 19v58q0 12 4.5 16t14.5 4h421q10 0 13.5 -4t3.5 -16v-56q0 -12 -2 -16t-13 -5q-86 -5 -114 -10t-33 -19q3 -157 29 -308t70 -283.5t88 -235t101 -210.5q57 118 97 215t84 231.5t68.5 282t26.5 300.5q2 23 -19 28.5t-119 8.5 q-11 0 -15 5t-4 18v50q0 15 3.5 19.5t13.5 4.5h415q23 0 23 -20v-56q0 -11 -4 -15t-17 -6q-57 -2 -83 -4t-43.5 -6.5t-20.5 -10.5t-4 -18q-2 -137 -25 -276.5t-53 -246.5t-78 -229t-82.5 -196t-84.5 -176q-9 -19 -14 -28q-12 -22 -33 -22h-91q-25 0 -34 22 q-64 128 -100.5 205.5t-90.5 221t-86 277.5q-33 -132 -86 -276.5t-90.5 -229t-91.5 -198.5q-9 -22 -34 -22h-95q-24 0 -33 22q-127 256 -178 385q-154 388 -159 767q-1 15 -11 21.5t-38.5 10.5t-97.5 7q-12 1 -14.5 4.5t-2.5 16.5z" />
<glyph unicode="X" horiz-adv-x="1297" d="M39 22v47v12.5t2 7t6 5.5t11 1q88 4 117 17.5t61 60.5l326 484l-311 503q-11 21 -21.5 28.5t-38 12t-90.5 5.5q-13 1 -16 6.5t-3 20.5v48q0 14 3.5 18t18.5 4h432q16 0 20 -5t4 -21v-41q0 -20 -4 -25t-24 -5q-46 -1 -70.5 -4t-33.5 -11.5t-6 -19t16 -30.5l215 -348 l218 322q32 48 32 64q0 14 -23 19.5t-81 7.5q-20 0 -24 5t-4 25v41q0 16 4 21t20 5h402q15 0 18.5 -4t3.5 -18v-52v-9t-1 -5.5t-2.5 -4.5t-5 -2t-9.5 -2q-76 -3 -114.5 -18.5t-64.5 -53.5l-301 -447l309 -495q38 -59 66 -78t55 -19q18 0 47.5 4.5t34.5 4.5h3q6 0 9 -0.5 t5.5 -3.5t2.5 -9l6 -56q0 -14 -1 -19.5t-6.5 -10.5t-18.5 -9q-48 -15 -120 -15q-37 0 -66.5 8t-49.5 19t-41.5 34t-34.5 41t-35 53l-257 415l-245 -365q-28 -43 -28 -58q0 -16 25 -22.5t90 -8.5q20 0 24 -6t4 -26v-39q0 -16 -4 -21t-20 -5h-414q-14 0 -18 4t-4 18z" />
<glyph unicode="Y" horiz-adv-x="1266" d="M39 1227v56q0 13 3.5 16.5t15.5 3.5h424q17 0 17 -18v-54q0 -25 -21 -25q-77 -2 -103.5 -7.5t-26.5 -21.5q0 -83 24 -162.5t70.5 -154.5t89.5 -128.5t107 -124.5q66 70 110 124t92 129t72.5 154.5t24.5 162.5q0 16 -26.5 21.5t-103.5 7.5q-12 0 -16 5.5t-4 19.5v54 q0 11 2.5 14.5t13.5 3.5h406q12 0 15.5 -3.5t3.5 -16.5v-56q0 -8 -0.5 -11.5t-5 -6.5t-13.5 -3q-79 -3 -108.5 -10t-32.5 -25q-5 -99 -37.5 -197t-87.5 -186t-110.5 -157t-126.5 -143v-270h2v-26q0 -26 0.5 -37t6 -24.5t12 -17.5t25 -8.5t39 -5.5t59.5 -2q20 0 24 -6t4 -26 v-39q0 -16 -4 -21t-20 -5h-447q-15 0 -19 4t-4 18v47q0 10 0.5 14.5t5 8t13.5 3.5q50 2 73.5 4.5t44 7t26.5 15.5t9 25t3 41v292q-72 76 -127.5 144.5t-111.5 158t-87.5 188.5t-34.5 200q-2 15 -32.5 23t-108.5 12q-13 1 -16 5t-3 16z" />
<glyph unicode="Z" horiz-adv-x="1083" d="M108 19v63q0 18 9 32l659 1076h-500q-20 0 -24.5 -9.5t-7.5 -46.5l-11 -179q0 -11 -5 -15.5t-19 -4.5h-58q-23 0 -23 22v326q0 14 3.5 17t17.5 3h780q14 0 17.5 -5.5t3.5 -22.5v-59q0 -24 -14 -47l-646 -1055h535q15 0 21 8.5t9 33.5l11 183q2 16 5.5 20t18.5 4h60 q12 0 17 -6.5t5 -21.5v-313q0 -14 -4.5 -18t-16.5 -4h-828q-15 0 -15 19z" />
<glyph unicode="[" horiz-adv-x="597" d="M182 -279v1603q0 9 0.5 12.5t3.5 5.5t9 2h302q11 0 11 -9v-89q0 -7 -2.5 -8.5t-10.5 -1.5h-165v-1418h163h8t4 -1.5t2.5 -4t0.5 -7.5v-86q0 -9 -11 -9h-305q-10 0 -10 11z" />
<glyph unicode="\" horiz-adv-x="871" d="M58 1322h152l605 -1354h-154z" />
<glyph unicode="]" horiz-adv-x="597" d="M88 -192q0 7 2.5 8.5t10.5 1.5h165v1418h-164q-10 0 -12 2t-2 11v86q0 9 11 9h305q9 0 9 -11v-1603q0 -9 -0.5 -12.5t-3.5 -5.5t-9 -2h-301q-11 0 -11 11v87z" />
<glyph unicode="^" horiz-adv-x="1251" d="M108 806l518 503l517 -503l-100 -82l-417 417l-417 -417z" />
<glyph unicode="_" horiz-adv-x="1109" d="M138 0h836v-117h-836v117z" />
<glyph unicode="`" horiz-adv-x="642" d="M147 1592q-12 13 -9.5 20.5t17.5 7.5h108q17 0 24.5 -4.5t21.5 -21.5l175 -201q12 -15 9.5 -22.5t-18.5 -7.5h-62q-20 0 -56 30z" />
<glyph unicode="a" horiz-adv-x="1027" d="M89 199q0 44 10.5 79t26 59t42.5 43t51 29.5t62 19t64 12t68 8.5q48 6 77 10.5t66 16t57.5 28t35 44t14.5 65.5t-7.5 64t-29.5 49.5t-67 35t-114 11.5q-109 0 -173 -26l-13 -168q-1 -12 -5 -15.5t-16 -3.5h-63q-9 0 -13.5 2.5t-5.5 6t-1 12.5v207q0 25 5 35.5t21 18.5 q33 17 105 29.5t161 12.5q111 0 184.5 -21.5t113 -67t54.5 -102t15 -138.5v-311q0 -85 18.5 -113.5t53.5 -28.5q49 0 49 43q0 14 1 19.5t7.5 10t20.5 4.5h25q21 0 25 -6t4 -26q0 -154 -162 -154q-146 0 -178 139q-95 -141 -328 -141q-132 0 -196.5 49t-64.5 159zM240 201 q0 -51 33.5 -73t100.5 -22q125 0 210.5 79t85.5 176v80q-20 -35 -59.5 -57t-72 -29.5t-89.5 -15.5q-104 -16 -132 -27q-77 -29 -77 -111z" />
<glyph unicode="b" horiz-adv-x="1120" d="M39 22v47q0 14 3.5 20t15.5 6q59 2 86 5t45.5 14t21.5 26t3 48v946q0 38 -8 47t-40 11l-95 1q-7 0 -10.5 3t-4 7.5t-0.5 14.5v44q0 16 4.5 22t17.5 6q88 13 155 13h87q37 0 37 -39v-570q41 93 123.5 141.5t182.5 48.5q177 0 269 -124.5t92 -325.5t-93 -323t-281 -122 q-63 0 -120 14.5t-107 52.5t-69 95v-108q0 -17 -1.5 -24.5t-9.5 -13t-25 -5.5h-257q-15 0 -18.5 4t-3.5 18zM363 410q0 -141 63.5 -221.5t191.5 -80.5q132 0 193.5 86t61.5 236q0 151 -60.5 243t-188.5 92q-127 0 -194 -96.5t-67 -258.5z" />
<glyph unicode="c" horiz-adv-x="925" d="M95 421q0 228 113.5 345.5t323.5 117.5q79 0 148 -13.5t106 -30.5q17 -7 22.5 -17t5.5 -34v-247q0 -11 -4 -15t-17 -4h-67q-16 0 -19 17l-16 203q-63 28 -149 28q-139 0 -218.5 -83.5t-79.5 -264.5q0 -95 22.5 -159t68.5 -98t103.5 -48t138.5 -14q58 0 103 7t128 27 q14 4 19 -2.5t5 -23.5v-58q0 -13 -4.5 -19t-19.5 -11q-104 -33 -259 -33q-107 0 -187 21t-142 69.5t-93.5 133.5t-31.5 206z" />
<glyph unicode="d" horiz-adv-x="1137" d="M97 434q0 97 22.5 178t67 142.5t115.5 95.5t163 34q103 0 185.5 -39t116.5 -123v412q0 38 -7.5 47t-38.5 11l-95 1q-12 0 -14.5 5t-2.5 20v44q0 17 5 22.5t19 5.5q87 13 153 13h89q37 0 37 -39v-1022q0 -85 18.5 -114t54.5 -29q46 0 46 44q0 18 5.5 25t26.5 7h22 q16 0 22.5 -3.5t8 -8.5t1.5 -18q0 -156 -154 -156q-152 0 -179 152q-79 -152 -309 -152q-189 0 -283.5 122t-94.5 323zM244 430q0 -140 68 -233t198 -93q133 0 199.5 81t66.5 228q0 173 -66.5 260t-204.5 87q-131 0 -196 -90.5t-65 -239.5z" />
<glyph unicode="e" horiz-adv-x="958" d="M97 428q0 456 417 456q167 0 253 -68t86 -196q0 -144 -94.5 -217t-250.5 -73q-139 0 -260 39q7 -79 31 -132t65.5 -81.5t90.5 -40t116 -11.5q28 0 56.5 3t49 6t49.5 10.5t42 11.5t45 14t41 13q14 5 20 1t6 -18v-57q0 -18 -4 -24.5t-22 -16.5q-127 -56 -303 -56 q-223 0 -328.5 105.5t-105.5 331.5zM248 492q109 -40 223 -40q107 0 171.5 42.5t64.5 125.5q0 74 -52 111.5t-143 37.5q-124 0 -188.5 -69t-75.5 -208z" />
<glyph unicode="f" horiz-adv-x="683" d="M80 22v47q0 15 3.5 20.5t15.5 5.5q91 5 113.5 15.5t23.5 55.5v594h-132q-20 0 -20 18v67q0 21 20 21h132v117q0 180 75 259.5t218 79.5q56 0 105.5 -10.5t72.5 -24.5q27 -13 27 -54v-194q0 -13 -3.5 -16t-15.5 -3h-67q-11 0 -14 3.5t-5 13.5l-16 153q-33 18 -84 18 q-76 0 -112.5 -56t-36.5 -186v-100h208q21 0 21 -21v-65q0 -20 -21 -20h-208v-592q1 -46 33 -57t160 -14q20 0 24 -6t4 -26v-39q0 -16 -3.5 -21t-20.5 -5h-475q-16 0 -19 3.5t-3 18.5z" />
<glyph unicode="g" horiz-adv-x="1130" d="M102 434q0 200 94.5 325t274.5 125q111 0 195.5 -44t113.5 -138v121q0 22 8 32.5t29 10.5h71q13 0 35.5 -2t65.5 -7t80 -8q15 0 19.5 -5t4.5 -19v-49q0 -15 -3.5 -19.5t-15.5 -4.5l-108 -2q-46 0 -46 -59v-607q0 -228 -111 -341.5t-342 -113.5q-177 0 -292 47 q-15 7 -20.5 16t-5.5 31v50q0 18 6 23.5t20 0.5q57 -16 83.5 -23t83 -16t110.5 -9q77 0 132.5 14.5t100.5 50.5t68 103.5t23 166.5v31q-86 -126 -296 -126q-127 0 -214 59.5t-125.5 157.5t-38.5 228zM251 430q0 -91 27.5 -162.5t88.5 -117.5t149 -46q134 0 200 81t66 228 q0 347 -270 347q-131 0 -196 -90.5t-65 -239.5z" />
<glyph unicode="h" horiz-adv-x="1137" d="M39 22v47q0 14 3.5 20t15.5 6q99 3 126 15t30 56v968q0 58 -46 58l-97 3q-10 0 -12.5 4t-2.5 17v50q0 17 2.5 21t15.5 5q48 3 103.5 9t68.5 6h71q22 0 29.5 -9.5t7.5 -31.5v-577q43 100 127 147.5t186 47.5q124 0 184.5 -68t60.5 -216v-356q0 -84 19.5 -113.5t53.5 -29.5 q48 0 48 44q0 21 4.5 26.5t27.5 5.5h22q22 0 27 -5t5 -25q0 -156 -164 -156q-186 0 -186 232v363q0 100 -35 139.5t-105 39.5q-123 0 -196.5 -99t-73.5 -301v-203q1 -43 24.5 -53t115.5 -12q20 0 24 -6t4 -26v-39q0 -16 -4 -21t-20 -5h-442q-15 0 -18.5 4t-3.5 18z" />
<glyph unicode="i" horiz-adv-x="592" d="M56 780v45q0 17 5 22.5t19 5.5q87 13 153 13h89q37 0 37 -39v-583q0 -85 18.5 -114t54.5 -29q26 0 36 11.5t10 32.5q0 20 5 26t27 6h22q23 0 27.5 -4.5t4.5 -25.5q0 -156 -162 -156q-188 0 -188 232v490q-1 25 -10 32t-36 9l-97 2q-7 0 -10.5 3t-4 7t-0.5 14zM197 1132 q0 38 24.5 62.5t61.5 24.5q36 0 62 -24.5t26 -62.5q0 -39 -26 -64t-62 -25q-37 0 -61.5 24.5t-24.5 64.5z" />
<glyph unicode="j" horiz-adv-x="534" d="M-37 -190q0 10 1 14.5t5.5 8t13.5 3.5h65q9 0 12.5 -5t4.5 -18t2 -16q7 -52 73 -52q37 0 61 30t24 117v804q0 38 -8 47t-40 11l-95 2q-7 0 -10.5 3t-4 7t-0.5 14v45q0 17 5 22.5t19 5.5q87 13 153 13h87q40 0 40 -39v-883q0 -161 -53 -232t-165 -71q-99 0 -144.5 48.5 t-45.5 120.5zM203 1132q0 38 24.5 62.5t61.5 24.5q36 0 60.5 -24.5t24.5 -62.5q0 -40 -24.5 -64.5t-60.5 -24.5q-37 0 -61.5 24.5t-24.5 64.5z" />
<glyph unicode="k" horiz-adv-x="1044" d="M39 22v47q0 14 3.5 20t15.5 6q59 2 86 5t45.5 14t21.5 26t3 48v946q0 58 -46 58l-94 3q-9 1 -13 3.5t-4.5 5.5t-0.5 14v48q0 15 4.5 19.5t17.5 6.5q47 3 103 9t70 6h69q23 0 31 -10t8 -31v-793l281 261q24 22 13 28q-14 7 -94 7q-18 0 -22.5 6t-4.5 26v39q0 15 5 20.5 t20 5.5h406q14 0 17 -4t3 -19v-52q0 -11 -3 -15.5t-14 -4.5q-82 0 -111 -10.5t-75 -53.5l-266 -245l236 -280q36 -50 58.5 -70.5t51.5 -20.5q65 0 65 60q0 17 7 23.5t23 6.5h21q21 0 26 -5.5t5 -30.5q0 -164 -169 -164q-40 0 -71.5 10.5t-58.5 34.5t-41.5 41t-39.5 52 l-268 335v-262v-28.5t2.5 -21.5t5 -17t11 -11t16.5 -8t25 -4.5t34 -3t46 -1.5q20 0 24 -6t4 -26v-39q0 -16 -4 -21t-20 -5h-442q-15 0 -18.5 4t-3.5 18z" />
<glyph unicode="l" horiz-adv-x="534" d="M7 1233v52q0 15 5.5 19.5t19.5 4.5q129 13 152 13h92q35 0 35 -35v-1043q0 -85 18.5 -114t54.5 -29q26 0 36 11.5t10 32.5q0 20 5 26t27 6h24q22 0 26 -4.5t4 -25.5q0 -156 -162 -156q-188 0 -188 232v933q0 35 -7.5 43.5t-37.5 8.5l-95 4q-13 0 -16 3.5t-3 17.5z" />
<glyph unicode="m" horiz-adv-x="1642" d="M76 22v47q0 16 2.5 21t14.5 5q96 5 119.5 17.5t23.5 60.5v523q0 58 -46 58l-97 4q-11 0 -14 3.5t-3 16.5v51q0 16 4 20t17 6q38 2 76 6t60.5 6t34.5 2h71q23 0 30 -9.5t7 -30.5v-120q68 175 263 175q176 0 232 -147q85 147 285 147q132 0 196.5 -81.5t64.5 -258.5v-300 q0 -85 18.5 -113.5t53.5 -28.5q49 0 49 43q0 15 1.5 21t8 9.5t22.5 3.5h22q22 0 27 -5.5t5 -26.5q0 -154 -164 -154q-187 0 -187 230v308q0 127 -38.5 180.5t-119.5 53.5q-98 0 -155.5 -67t-60.5 -195v-332q1 -49 27 -60t135 -14q18 0 22 -6t4 -26v-39q0 -9 -0.5 -12.5 t-2.5 -7.5t-6.5 -5t-12.5 -1h-426q-14 0 -17.5 4t-3.5 18v47q0 15 3 20.5t14 5.5q78 1 98.5 13.5t22.5 57.5v393q-4 116 -43 161t-113 45q-217 0 -220 -341v-238q0 -33 1.5 -46t14.5 -24.5t35 -14t70 -4.5q20 0 24 -6t4 -26v-39q0 -16 -4 -21t-20 -5h-408q-13 0 -17 4t-4 18 z" />
<glyph unicode="n" horiz-adv-x="1165" d="M69 22v47q0 10 0.5 14.5t5 8t13.5 3.5q59 2 86 5t45.5 14t21.5 26t3 48v508q0 58 -47 58l-96 4q-11 0 -14 3.5t-3 16.5v51q0 16 3.5 20t16.5 6q37 2 75.5 6t61.5 6t35 2h68q24 0 32 -9.5t8 -30.5v-138q45 98 128 145.5t182 47.5q125 0 186.5 -68t61.5 -216v-356 q0 -85 18.5 -114t54.5 -29q48 0 48 44q0 15 1.5 20.5t7.5 8.5t21 3h24q22 0 26 -4.5t4 -25.5q0 -156 -162 -156q-89 0 -137.5 53.5t-48.5 178.5v363q0 100 -35.5 139.5t-106.5 39.5q-123 0 -196.5 -99t-73.5 -301v-173q0 -26 0.5 -37t6 -24.5t12 -17.5t25 -8.5t39 -5.5 t59.5 -2q18 0 22 -6t4 -26v-39q0 -16 -3.5 -21t-19.5 -5h-441q-16 0 -19 3.5t-3 18.5z" />
<glyph unicode="o" d="M93 439q0 88 23.5 165t72.5 141t134 101.5t198 37.5q90 0 163 -25t121 -67t80.5 -99.5t46.5 -120.5t14 -133t-14 -133.5t-47 -122t-81 -101t-121.5 -68t-163.5 -25.5q-112 0 -197 38t-133.5 103.5t-72 143t-23.5 165.5zM242 432q0 -67 15.5 -124.5t47 -104t86.5 -73 t128 -26.5q72 0 127 26.5t88 73t49 104.5t16 126q0 67 -16 125.5t-48.5 106.5t-87.5 75.5t-126 27.5q-72 0 -127 -27.5t-87.5 -75.5t-48.5 -107t-16 -127z" />
<glyph unicode="p" horiz-adv-x="1115" d="M39 -285q0 15 3.5 20.5t15.5 5.5q39 2 60.5 3.5t40.5 5.5t26.5 8.5t13.5 15.5t7 22.5t1 32.5l2 419v448q0 58 -47 58l-97 4q-11 0 -14 3.5t-3 16.5v51q0 16 4 20t17 6q38 2 76 6t60.5 6t34.5 2h71q23 0 30 -9.5t7 -30.5v-146q39 98 122.5 149.5t186.5 51.5 q177 0 269 -124.5t92 -325.5q0 -131 -37.5 -230.5t-122.5 -161t-210 -61.5q-61 0 -118 16t-107 55t-71 95v-309q0 -64 24 -78t129 -17q18 0 22 -6t4 -26v-39q0 -16 -4.5 -21t-20.5 -5h-445q-16 0 -19 4t-3 19v46zM357 406q0 -144 64.5 -230.5t191.5 -86.5q132 0 193.5 92 t61.5 245q0 151 -61 245t-189 94q-127 0 -194 -98t-67 -261z" />
<glyph unicode="q" horiz-adv-x="1130" d="M97 436q0 97 22.5 177t68.5 141.5t122 95.5t176 34q208 0 292 -139v78q0 22 8 32.5t29 10.5h69q14 0 36.5 -2t65.5 -7t81 -8q15 0 19.5 -5t4.5 -19v-49q0 -15 -3.5 -19.5t-15.5 -4.5l-108 -2q-46 0 -46 -59v-468h-2v-391q0 -23 0.5 -34.5t6 -23.5t12.5 -16t25 -8.5t39 -5 t59 -1.5q10 0 16 -1t8 -6.5t2.5 -9t0.5 -15.5v-39q0 -16 -4 -21t-18 -5h-447q-15 0 -18.5 4t-3.5 19v46q0 15 4 20.5t15 5.5q109 5 134.5 18t25.5 73v296q-84 -139 -296 -139q-95 0 -169 34t-119.5 95t-68.5 141t-23 177zM248 438q0 -66 15 -124t45.5 -106t82.5 -76t121 -28 q128 0 196 90t68 245q0 152 -66 243t-196 91q-68 0 -120.5 -27t-83.5 -74.5t-46.5 -106.5t-15.5 -127z" />
<glyph unicode="r" horiz-adv-x="901" d="M67 22v47q0 14 3.5 20t15.5 6q99 3 126 15t30 56v530q0 58 -47 58l-96 4q-11 0 -13 3t-2 17v51q0 17 2.5 21t15.5 5q38 2 76.5 6t61 6t34.5 2h70q23 0 30.5 -9.5t7.5 -30.5v-189h2q76 244 296 244q68 0 119 -24q18 -8 22 -17t4 -37v-260q0 -13 -3.5 -16t-15.5 -3h-71 q-15 0 -18 17l-17 204q-20 8 -58 8q-234 0 -255 -419v-168h-2v-7q1 -43 24.5 -53t117.5 -12q20 0 24 -6t4 -26v-39q0 -16 -4 -21t-20 -5h-442q-16 0 -19 3.5t-3 18.5z" />
<glyph unicode="s" horiz-adv-x="888" d="M99 54v203q0 24 6 30.5t25 6.5h54q9 0 13.5 -1.5t8 -8.5t4.5 -20l10 -143q93 -24 214 -24q116 0 169.5 31t53.5 116q0 54 -30 87.5t-78 49t-106.5 25t-116.5 22t-106 34t-78 67.5t-30 115q0 133 77.5 186.5t249.5 53.5q191 0 285 -33q18 -8 23 -15t5 -22l-5 -198 q0 -16 -7 -20t-25 -4h-48q-15 0 -21 6t-7 24l-6 132q-86 21 -190 21q-99 0 -145.5 -24t-46.5 -101q0 -36 23.5 -59.5t61.5 -33t87 -19t100 -16.5t100 -25.5t87 -45.5t61.5 -78.5t23.5 -121.5q0 -80 -24.5 -133t-74.5 -80.5t-110 -38t-148 -10.5q-93 0 -182.5 10.5 t-127.5 24.5q-16 6 -22.5 12t-6.5 18z" />
<glyph unicode="t" horiz-adv-x="696" d="M56 776v66q0 15 4.5 19.5t17.5 4.5h132l56 255q3 26 26 26h36q14 0 19 -6t5 -22v-253h261q13 0 17.5 -6t4.5 -20v-64q0 -15 -4 -18.5t-18 -3.5h-261v-458q0 -117 29 -161t92 -44q91 0 91 75q0 24 26 24h32q14 0 19 -5.5t5 -22.5q0 -181 -205 -181q-121 0 -177.5 75 t-56.5 231v467h-129q-14 0 -18 4t-4 18z" />
<glyph unicode="u" horiz-adv-x="1139" d="M41 786v41q0 16 4.5 21t17.5 5q39 3 65 6t33.5 4t21 2t37.5 1h89q34 0 34 -43v-527q0 -119 38.5 -161t124.5 -42q122 0 188.5 72.5t70.5 240.5v300q0 52 -46 52l-97 3q-7 0 -10.5 3t-4 7.5t-0.5 14.5v41q0 16 4.5 21t17.5 5q39 3 65.5 6t34 4t21 2t36.5 1h89 q21 0 28 -10.5t7 -32.5v-598q1 -73 20 -98.5t53 -25.5q47 0 47 44q0 21 4 26.5t27 5.5h23q23 0 27 -4.5t4 -25.5q0 -156 -162 -156q-150 0 -180 145q-88 -149 -296 -149q-144 0 -211 73t-67 240v406q0 52 -46 52l-99 3q-9 0 -11 5t-2 20z" />
<glyph unicode="v" horiz-adv-x="1029" d="M47 784v67q0 15 14 15h382q15 0 15 -15v-65q0 -5 -0.5 -7.5t-2 -5.5t-5.5 -4t-11 -2q-40 -1 -62 -2.5t-34 -5.5t-14.5 -9t-0.5 -15q1 -86 17.5 -171t49 -167.5t60 -139.5t70.5 -136q57 106 93 183.5t69 197.5t35 233q2 10 0 15t-13.5 9t-33 5.5t-61.5 2.5q-11 1 -14.5 5 t-3.5 12v65q0 17 15 17h353q14 0 17.5 -4t3.5 -13v-61q0 -19 -19 -19q-82 -4 -99 -9.5t-20 -25.5q-8 -333 -259 -727q-9 -14 -29 -14h-86q-23 0 -32 14q-251 398 -259 727q-1 13 -7.5 18.5t-30.5 9t-83 7.5q-7 1 -10 3t-3.5 4t-0.5 8z" />
<glyph unicode="w" horiz-adv-x="1599" d="M43 786v65q0 15 17 15h407q15 0 15 -15v-65q0 -16 -18 -19q-39 -1 -63.5 -3t-37.5 -5.5t-17.5 -8.5t-2.5 -13q3 -158 55 -303.5t138 -310.5q88 160 142 307.5t57 306.5q1 8 0 13.5t-14.5 9t-37.5 5t-69 2.5q-18 3 -18 19v65q0 15 15 15h381q17 0 17 -15v-67 q0 -5 -0.5 -7.5t-4 -4.5t-10.5 -3q-104 -5 -125 -15q12 -176 66.5 -322.5t146.5 -308.5q89 164 142.5 310t56.5 304q2 9 0 13.5t-14 8.5t-36 5.5t-69 2.5q-19 3 -19 19v65q0 15 15 15h376q17 0 17 -15v-65q0 -14 -17 -17q-64 -3 -89.5 -6.5t-32 -8.5t-8.5 -19 q-10 -331 -257 -728q-11 -14 -26 -14h-99q-19 0 -28 14q-132 210 -197 412q-74 -216 -196 -412q-9 -14 -26 -14h-98q-17 0 -26 14q-249 401 -257 728q-2 17 -27 23.5t-107 10.5q-17 3 -17 17z" />
<glyph unicode="x" horiz-adv-x="1066" d="M54 22v45q0 15 4.5 19.5t19.5 4.5q71 0 98 10.5t55 47.5l223 281l-221 292q-22 28 -54 38.5t-88 10.5q-18 0 -18 26v46q0 14 4.5 18.5t17.5 4.5h380q14 0 18 -5t4 -21v-32q0 -21 -3.5 -28t-20.5 -7q-82 0 -84 -19q-1 -9 15 -30l138 -184l147 186q23 30 8 39q-16 8 -77 8 q-14 0 -17 7t-3 28v32q0 16 3 21t15 5h354q15 0 18.5 -4t3.5 -19v-46q0 -15 -3.5 -20.5t-14.5 -5.5q-55 0 -89 -10.5t-57 -38.5l-219 -271l231 -306q28 -35 54.5 -45.5t92.5 -10.5q15 0 19.5 -4t4.5 -18v-45q0 -15 -2.5 -18.5t-16.5 -3.5h-389q-13 0 -16 5t-3 21v35 q0 19 3.5 24.5t19.5 5.5q85 -2 86 14q0 7 -10 20l-164 216l-173 -216q-16 -21 4 -28q21 -6 97 -6q16 0 19 -5.5t3 -24.5v-35q0 -9 -0.5 -12.5t-2 -7.5t-5.5 -5t-11 -1h-379q-14 0 -16.5 3.5t-2.5 18.5z" />
<glyph unicode="y" horiz-adv-x="1063" d="M54 784v67q0 15 15 15h382q14 0 14 -15v-65q0 -7 -0.5 -9.5t-4.5 -5.5t-13 -4q-52 -1 -76.5 -5t-28.5 -9.5t-3 -17.5q3 -118 70 -302t129 -306q99 216 222 601q1 11 3 18t-10 11t-32.5 6t-63.5 4q-13 1 -16.5 5.5t-3.5 15.5v57q0 21 20 21h350q14 0 17.5 -4.5t3.5 -16.5 v-56q0 -15 -17 -20q-79 -4 -97 -12t-26 -40q-153 -517 -430 -1032q-24 -39 -52 -51t-71 -12h-136q-15 0 -17.5 2.5t-2.5 16.5v56q0 8 0.5 11t4.5 5.5t13 3.5q107 10 125 17q22 8 37 35q89 169 119 231q-19 0 -29 15q-68 109 -160.5 337t-98.5 382q-1 13 -9.5 19t-32.5 9.5 t-79 6.5q-7 1 -10.5 3t-4 4.5t-0.5 7.5z" />
<glyph unicode="z" horiz-adv-x="927" d="M99 28v45q0 25 11 41l514 651h-360q-21 0 -27 -6t-8 -24l-4 -135q-1 -13 -7 -17t-19 -4h-56q-11 0 -15.5 1t-9 6t-4.5 15v237q0 28 26 28h642q24 0 24 -28v-47q0 -24 -17 -44l-508 -650h389q36 0 39 30l8 145q1 18 7 24t21 6h52q16 0 22 -7t6 -31v-236q0 -28 -23 -28 h-679q-24 0 -24 28z" />
<glyph unicode="{" horiz-adv-x="666" d="M56 486v73q0 13 18 16q102 17 138 62.5t36 137.5v305q0 54 11 96t39 79.5t82.5 57.5t133.5 20h56h6t4.5 -1.5t3.5 -4t1 -7.5v-74q0 -19 -15 -19h-6q-88 0 -127.5 -36.5t-39.5 -110.5v-298q0 -115 -35.5 -175t-123.5 -86q88 -26 123.5 -85t35.5 -173v-298 q0 -74 39.5 -110.5t127.5 -36.5h6q15 0 15 -19v-75q0 -9 -3.5 -11t-11.5 -2h-56q-79 0 -133.5 20.5t-82.5 58t-39 79.5t-11 96v305q0 92 -36 137t-138 62q-18 3 -18 17z" />
<glyph unicode="|" horiz-adv-x="510" d="M184 -311v1670h142v-1670h-142z" />
<glyph unicode="}" horiz-adv-x="666" d="M82 -201q0 19 15 19h5q88 0 128 37t40 110v298q0 114 35 173t121 85q-86 26 -121 86t-35 175v298q0 73 -40 110t-128 37h-5q-15 0 -15 19v74q0 9 3.5 11t11.5 2h56q79 0 133.5 -20t82.5 -57.5t39 -79.5t11 -96v-305q0 -92 35.5 -137.5t137.5 -62.5q19 -3 19 -16v-73 q0 -14 -19 -17q-102 -17 -137.5 -62t-35.5 -137v-305q0 -54 -11 -96t-39 -79.5t-82.5 -58t-133.5 -20.5h-56h-6t-4.5 1.5t-3.5 4t-1 7.5v75z" />
<glyph unicode="~" horiz-adv-x="1295" d="M136 372q57 112 147 173.5t188 61.5q51 0 98 -21t83.5 -51t70.5 -60.5t72 -51.5t76 -21q49 0 95.5 42t83.5 122l112 -43q-45 -117 -126 -177.5t-167 -60.5q-52 0 -99.5 21.5t-82.5 51.5t-67.5 60.5t-69 52t-72.5 21.5q-70 0 -122.5 -38.5t-98.5 -122.5z" />
<glyph unicode="&#xa0;" horiz-adv-x="917" d="M140 492v72q0 21 18 21h605q17 0 17 -23v-63q0 -14 -4 -20t-16 -6h-604q-16 0 -16 19z" />
<glyph unicode="&#xa1;" horiz-adv-x="478" d="M141 789q0 39 27.5 66.5t67.5 27.5q38 0 66 -27.5t28 -66.5q0 -44 -27.5 -69.5t-66.5 -25.5q-42 0 -68.5 25t-26.5 70zM166 -318l16 936q0 14 6 17.5t21 3.5h74q19 0 19 -23l13 -936q0 -19 -19 -19h-106q-14 0 -19 4.5t-5 16.5z" />
<glyph unicode="&#xa2;" horiz-adv-x="979" d="M117 419q0 215 115.5 340t318.5 125q137 0 213 -56t76 -156q0 -75 -47.5 -126t-137.5 -51q-45 0 -80 10q-15 4 -19.5 10.5t-4.5 20.5v21q0 11 3 17t7 7.5t12 1.5q6 0 23 -3t30 -3q93 0 93 82q0 114 -162 114q-139 0 -215 -92.5t-76 -257.5q0 -173 83 -249.5t221 -76.5 q130 0 270 61q14 5 19 0t5 -22v-63q0 -13 -4.5 -19t-19.5 -13q-137 -60 -300 -60q-203 0 -313 116t-110 322zM449 -326l7 240q3 18 10 20q3 1 7 1h93q10 0 12 -14l1 -3l7 -244q0 -18 -7 -18h-121q-9 0 -9 18zM451 1195q0 10 1.5 13.5t9.5 3.5h117q9 0 9 -19l-7 -243 q-4 -15 -13 -15h-93q-3 0 -5.5 0.5t-4 1.5t-2.5 2t-2 3.5t-1.5 3t-1 3.5t-0.5 4z" />
<glyph unicode="&#xa3;" horiz-adv-x="1206" d="M101 22v47v12.5t1.5 7t5.5 5.5t11 1q40 2 62 3t42.5 5t28.5 8t15 13.5t8 20t1 28.5v395h-149q-17 0 -17 18v73q0 21 18 21h148v242q0 115 27 193t83 123t131.5 63.5t182.5 18.5q197 0 335 -45q13 -5 19.5 -8t9.5 -11t3 -10.5v-20.5v-257q0 -16 -3.5 -19t-17.5 -3h-65 q-10 0 -13.5 3.5t-4.5 14.5l-27 211q-83 24 -229 24q-136 0 -209.5 -46.5t-73.5 -169.5v-303h310q16 0 16 -23v-63q0 -14 -4 -20t-16 -6h-306v-443l483 -2q18 0 23 8.5t8 34.5l13 162q1 11 3.5 17t10 8.5t12.5 3t19 0.5h35q9 0 14.5 -3t7.5 -12.5t2.5 -15.5t0.5 -24v-282 q0 -14 -5 -17t-20 -3h-908q-14 0 -18 4t-4 18z" />
<glyph unicode="&#xa4;" horiz-adv-x="1247" d="M158 547q0 180 119 302l-102 108l91 52l97 -93q114 69 261 69q160 0 277 -80l101 97l89 -54l-112 -112q106 -120 106 -289q0 -172 -104 -290l112 -110l-97 -58l-102 92q-115 -73 -270 -73q-156 0 -268 71l-101 -95l-95 57l106 110q-108 122 -108 296zM309 547 q0 -148 86 -240.5t229 -92.5q137 0 224.5 93.5t87.5 239.5q0 145 -87.5 238.5t-224.5 93.5q-144 0 -229.5 -92.5t-85.5 -239.5z" />
<glyph unicode="&#xa5;" horiz-adv-x="1329" d="M69 1227v56q0 13 3.5 16.5t15.5 3.5h424q17 0 17 -18v-54q0 -25 -21 -25q-77 -2 -103.5 -7.5t-26.5 -21.5q0 -83 23.5 -163t69.5 -153.5t90 -129t107 -124.5q66 71 110 124.5t92.5 128.5t73 154.5t24.5 162.5q0 16 -26.5 21.5t-103.5 7.5q-21 0 -21 25v54q0 10 3 14t14 4 h406q12 0 15.5 -3.5t3.5 -16.5v-56q0 -8 -0.5 -11.5t-5 -6.5t-13.5 -3q-81 -3 -111 -10t-31 -25q-14 -282 -266 -575h240q17 0 17 -21v-54q0 -12 -4 -17t-16 -5h-322l-10 -9v-66h335q17 0 17 -18v-56q0 -12 -4 -16t-16 -4h-332v-112h2v-26q0 -26 0.5 -37t6 -24.5t12 -17.5 t25 -8.5t39 -5.5t59.5 -2q19 0 23.5 -6.5t4.5 -25.5v-39q0 -16 -4.5 -21t-20.5 -5h-446q-15 0 -19 4t-4 18v47q0 10 0.5 14.5t5 8t13.5 3.5q50 2 73.5 4.5t44 7t26.5 15.5t9 25t3 41v142h-333q-17 0 -17 14v64q0 6 5 11t14 5h331v54q-3 3 -6 6.5t-6.5 8t-5.5 6.5h-315 q-17 0 -17 17v61q0 19 19 19h225q-250 295 -255 575q-2 15 -32.5 23t-108.5 12q-13 1 -16 5t-3 16z" />
<glyph unicode="&#xa6;" horiz-adv-x="515" d="M186 -266v728h144v-728h-144zM186 577v724h144v-724h-144z" />
<glyph unicode="&#xa7;" horiz-adv-x="1083" d="M127 102q0 16 5.5 21t22.5 5h65q24 0 24 -22l17 -208q104 -28 251 -28q48 0 91 6t92 22.5t78 53t29 89.5q0 60 -22 104.5t-59.5 71t-86 46t-102 34.5t-107 31t-102 40t-86 57.5t-59.5 88t-22 126.5q0 128 54 207q-54 71 -54 184q0 69 20.5 121.5t54.5 84t85 51.5t105 27 t121 7q103 0 189.5 -14.5t128.5 -32.5q18 -8 23 -15.5t5 -28.5v-265q0 -17 -5 -20.5t-21 -3.5h-65q-22 0 -22 19l-19 212q-56 17 -98.5 22.5t-113.5 5.5q-244 0 -244 -149q0 -53 22 -91t59.5 -60.5t86 -39t102 -31t107 -31t102 -44t86 -65.5t59.5 -100t22 -143 q0 -69 -15.5 -128t-33.5 -66q49 -82 49 -197q0 -313 -428 -313q-96 0 -212 15t-153 33q-26 12 -26 49v262zM300 661q0 -64 32 -107t88 -66.5t116 -39t134 -39t123 -53.5q9 30 9 70q0 61 -23 106t-58 71t-87.5 47.5t-101 34.5t-109 32.5t-101.5 40.5q-22 -35 -22 -97z" />
<glyph unicode="&#xa8;" horiz-adv-x="713" d="M104 1456q0 33 23 56.5t59 23.5q37 0 61.5 -23.5t24.5 -56.5q0 -34 -24.5 -56t-61.5 -22t-59.5 22t-22.5 56zM441 1456q0 33 23 56.5t61 23.5q37 0 60.5 -23.5t23.5 -56.5q0 -34 -24 -56t-60 -22q-40 0 -62 21.5t-22 56.5z" />
<glyph unicode="&#xa9;" horiz-adv-x="1560" d="M119 618q0 126 33 231.5t91.5 180.5t140 127t179.5 77t208 25q112 0 212 -26t184 -79t145 -130t95 -184t34 -235q0 -154 -50 -275t-138.5 -197t-205 -115.5t-254.5 -39.5q-112 0 -212.5 25.5t-185 78t-146 127.5t-96 180t-34.5 229zM209 618q0 -181 76 -309.5 t205.5 -190.5t300.5 -62q258 0 408.5 139.5t150.5 409.5q0 278 -159 427.5t-420 149.5q-256 0 -409 -145t-153 -419zM391 624q0 208 104 315t296 107q71 0 134.5 -12.5t96.5 -28.5q15 -5 20.5 -14t5.5 -30v-227q0 -10 -3.5 -13.5t-14.5 -3.5h-62q-17 0 -17 15l-16 186 q-56 26 -136 26q-127 0 -199.5 -76.5t-72.5 -241.5q0 -70 14 -121.5t39 -84.5t64.5 -52.5t84 -27t103.5 -7.5q79 0 211 32q12 3 17 -2.5t5 -21.5v-52q0 -13 -4 -18t-18 -10q-99 -32 -237 -32q-202 0 -308.5 90t-106.5 305z" />
<glyph unicode="&#xaa;" horiz-adv-x="956" d="M106 974q0 157 85.5 252.5t246.5 95.5q69 0 127 -29.5t96 -82.5v77q0 12 4 14t16 2h110q11 0 14 -4t3 -16v-630q0 -10 -3.5 -13t-13.5 -3h-115q-12 0 -13.5 3.5t-1.5 16.5v69q-79 -108 -220 -108q-165 0 -250 98.5t-85 257.5zM253 970q0 -120 55.5 -181t153.5 -61 q92 0 145.5 65t53.5 177q0 111 -54 176.5t-147 65.5q-95 0 -151 -65t-56 -177z" />
<glyph unicode="&#xab;" horiz-adv-x="983" d="M78 493l374 399q19 19 30 11l67 -48q9 -5 8 -10.5t-13 -17.5l-319 -350l315 -343q16 -16 18 -22t-7 -11l-67 -47q-10 -6 -15 -4t-18 15l-369 387q-15 15 -15.5 20.5t11.5 20.5zM406 493l374 399q18 18 28 11l69 -48q7 -5 5.5 -10.5t-13.5 -17.5l-318 -350l317 -343 q14 -16 15.5 -22.5t-6.5 -10.5l-67 -47q-9 -6 -14.5 -4t-17.5 15l-370 387q-14 14 -14.5 20.5t12.5 20.5z" />
<glyph unicode="&#xac;" horiz-adv-x="1148" d="M153 532v114h845v-318h-142v204h-703z" />
<glyph unicode="&#xad;" horiz-adv-x="919" d="M140 503v72q0 21 18 21h605q17 0 17 -23v-63q0 -14 -4 -20t-16 -6h-604q-16 0 -16 19z" />
<glyph unicode="&#xae;" horiz-adv-x="1560" d="M119 618q0 126 33 231.5t91.5 180.5t140 127t179.5 77t208 25q112 0 212 -26t184 -79t145 -130t95 -184t34 -235q0 -154 -50 -275t-138.5 -197t-205 -115.5t-254.5 -39.5q-112 0 -212.5 25.5t-185 78t-146 127.5t-96 180t-34.5 229zM209 618q0 -181 76 -309.5 t205.5 -190.5t300.5 -62q258 0 408.5 139.5t150.5 409.5q0 278 -159 427.5t-420 149.5q-256 0 -409 -145t-153 -419zM486 979v43q0 8 2.5 10.5t10.5 2.5h274q156 0 221 -68.5t65 -191.5q0 -188 -139 -241l67 -141q19 -40 34 -54.5t42 -14.5q19 0 35 9q17 6 19 -9l6 -43 q3 -12 -0.5 -16.5t-16.5 -9.5q-43 -13 -84 -13q-75 0 -110 54q-13 19 -37 75l-65 143h-13q-64 0 -99 7v-156q1 -25 14.5 -31t62.5 -8q7 -1 10 -3.5t3.5 -5t0.5 -12.5v-37q0 -15 -13 -15h-275q-9 0 -11 2t-2 11v41q0 17 9 17q59 5 73.5 13.5t14.5 40.5v538q0 26 -16 35 t-72 12q-8 1 -9.5 4t-1.5 12zM698 616q36 -9 86 -9q156 0 156 166q0 89 -41.5 133t-114.5 44h-86v-334z" />
<glyph unicode="&#xaf;" horiz-adv-x="733" d="M147 1419v63q0 12 4.5 16t16.5 4h413q17 0 17 -14v-69q0 -21 -23 -21h-407q-13 0 -17 4t-4 17z" />
<glyph unicode="&#xb0;" horiz-adv-x="750" d="M106 1048q0 117 72.5 195.5t197.5 78.5q127 0 197.5 -78.5t70.5 -195.5q0 -119 -74 -196t-194 -77q-125 0 -197.5 76.5t-72.5 196.5zM246 1050q0 -82 38 -126.5t96 -44.5q53 0 89 44t36 121q0 78 -36 126t-93 48q-54 0 -92 -47.5t-38 -120.5z" />
<glyph unicode="&#xb1;" horiz-adv-x="1165" d="M134 421v115h376v343h142v-343h372v-115h-372v-294h-142v294h-376zM140 58h891v-118h-891v118z" />
<glyph unicode="&#xb2;" horiz-adv-x="888" d="M80 572v76q0 17 8 24q118 72 209.5 144t166 154.5t114.5 175t40 189.5q0 99 -50.5 135t-148.5 36q-100 0 -192 -30l-22 -188q-1 -10 -4 -12.5t-11 -2.5h-65q-11 0 -13 2.5t-2 14.5v237q0 20 3.5 27.5t16.5 11.5q140 50 294 50q37 0 65.5 -1.5t65 -8t63.5 -17.5t55 -31.5 t45.5 -48.5t28.5 -70t11 -95q0 -191 -131.5 -362.5t-358.5 -307.5h395q23 0 26 37l7 119q1 10 2.5 14.5t6.5 7.5t14 3h54q13 0 16.5 -5.5t3.5 -24.5v-250q0 -12 -2.5 -14t-12.5 -2h-683q-15 0 -15 13z" />
<glyph unicode="&#xb3;" horiz-adv-x="852" d="M78 605v69q0 26 21 20l46 -10q46 -10 105 -17.5t121 -7.5q129 0 191 53.5t62 166.5q0 99 -54 137t-157 38h-91q-17 0 -17 22v69q0 12 6 20l275 324h-338q-14 0 -19.5 -8.5t-6.5 -37.5l-6 -112q0 -11 -4 -15.5t-17 -4.5h-52q-15 0 -18.5 3t-3.5 17v250q0 14 3 17t16 3h590 q11 0 13 -4t2 -18v-58q0 -6 -0.5 -10.5t-1 -7t-3 -6.5t-4 -5.5t-6.5 -7.5t-8 -9l-273 -317h20q157 0 226.5 -65.5t69.5 -208.5q0 -76 -20 -135.5t-54 -97.5t-82.5 -62.5t-101 -34.5t-114.5 -10q-185 0 -296 35q-11 3 -15 8t-4 18z" />
<glyph unicode="&#xb4;" horiz-adv-x="621" d="M162 1389l147 173q21 28 47 28h121q14 0 16 -9.5t-11 -20.5l-203 -182q-19 -19 -44 -19h-62q-16 0 -19.5 7.5t8.5 22.5z" />
<glyph unicode="&#xb5;" horiz-adv-x="1202" d="M74 786v41q0 16 5 21t18 5q39 3 65 6t33.5 4t20.5 2t37 1h90q20 0 26.5 -10.5t6.5 -32.5v-527q0 -119 39 -161t125 -42q122 0 188.5 72.5t70.5 240.5v318q-9 34 -45 34l-99 3q-7 0 -10.5 3t-4 7.5t-0.5 14.5v41q0 16 5 21t18 5q40 3 66 6t33.5 4t20.5 2t36 1h90 q21 0 28 -10.5t7 -32.5v-598q1 -73 20 -98.5t53 -25.5q46 0 46 44q0 21 4.5 26.5t27.5 5.5h22q23 0 27.5 -4.5t4.5 -25.5q0 -156 -162 -156q-151 0 -181 145q-88 -149 -296 -149q-77 0 -134 20v-402q0 -15 -11 -15h-119q-13 0 -13 15v1101q0 52 -47 52l-97 3q-7 0 -10.5 3 t-4 7.5t-0.5 14.5z" />
<glyph unicode="&#xb6;" horiz-adv-x="927" d="M84 938q0 160 97.5 262.5t252.5 102.5h287v-1539h-118v1439h-123v-1439h-117v793q-83 1 -147.5 53.5t-98 138.5t-33.5 189z" />
<glyph unicode="&#xb7;" horiz-adv-x="560" d="M160 469q0 44 32.5 74t79.5 30q46 0 79.5 -30.5t33.5 -73.5q0 -44 -33.5 -74t-79.5 -30q-48 0 -80 29.5t-32 74.5z" />
<glyph unicode="&#xb8;" horiz-adv-x="530" d="M35 -322l13 24q6 11 11.5 12.5t14.5 -1.5q44 -15 97 -15q93 0 93 82q0 65 -117 65q-5 0 -13 -0.5t-10.5 -0.5t-5 2.5t-1 8t5.5 15.5l59 130h101l-39 -93q74 -3 107.5 -37t33.5 -88q0 -82 -53.5 -120t-137.5 -38q-70 0 -146 22q-18 8 -18 16q-1 6 5 16z" />
<glyph unicode="&#xb9;" horiz-adv-x="634" d="M76 577v43q0 8 0.5 11.5t4 6t10.5 2.5q112 5 144 14t35 39v755q-2 16 -30 0l-136 -81q-24 -14 -24 11v63q0 16 22 28l188 117q26 15 64 15h30q10 0 14 -3.5t4 -14.5v-876q0 -42 27 -51.5t139 -11.5q16 -1 19 -5.5t3 -20.5v-39q0 -13 -3 -16.5t-17 -3.5h-475 q-13 0 -16 3.5t-3 14.5z" />
<glyph unicode="&#xba;" horiz-adv-x="1033" d="M89 875q0 88 24 165t72.5 141t134 101.5t198.5 37.5q90 0 163 -25t121 -67t80 -99.5t46 -120.5t14 -133t-14 -133.5t-46.5 -122t-81 -101.5t-121.5 -68.5t-163 -25.5t-163.5 25.5t-121.5 68.5t-81 101.5t-47 122t-14 133.5zM238 868q0 -67 15.5 -124.5t47.5 -104t87 -73 t128 -26.5q72 0 127 26.5t87.5 73t48.5 104t16 125.5q0 91 -27 164.5t-91.5 122.5t-158.5 49q-58 0 -105.5 -18.5t-79.5 -50t-53.5 -74.5t-31.5 -91.5t-10 -102.5z" />
<glyph unicode="&#xbb;" horiz-adv-x="984" d="M102 101q-6 7 -4.5 11.5t17.5 21.5l315 343l-318 350q-13 13 -13.5 18t7.5 10l67 48q9 4 14 2t16 -13l374 -399q12 -15 11.5 -20.5t-13.5 -20.5l-370 -387q-20 -23 -34 -11zM430 101q-8 7 -6.5 12t17.5 21l315 343l-318 350q-12 13 -13 17.5t7 10.5l69 48q10 7 28 -11 l374 -399q12 -15 11.5 -20.5t-13.5 -20.5l-370 -387q-12 -13 -18 -15t-16 4z" />
<glyph unicode="&#xbf;" horiz-adv-x="949" d="M74 -99q0 81 21.5 136.5t55.5 84.5t75 49.5t82 39.5t75 46t55.5 78.5t21.5 126.5v136q0 14 3 17t15 3l107 2q16 0 16 -20v-144q0 -73 -13 -128.5t-35.5 -89t-51.5 -58t-61 -39.5t-63.5 -29t-60.5 -30.5t-51.5 -39.5t-35.5 -61t-13 -91q0 -171 259 -171q80 0 129 6.5 t120 23.5l19 221q1 10 2.5 13.5t6 5.5t15.5 2h65q10 0 14 -1t7 -6.5t3 -18.5v-272q0 -22 -4.5 -30.5t-22.5 -16.5q-45 -19 -144.5 -33.5t-215.5 -14.5q-68 0 -122.5 7.5t-107 28t-87.5 53.5t-56.5 87.5t-21.5 126.5zM438 789q0 40 26.5 67.5t67.5 27.5q38 0 66 -28t28 -67 q0 -43 -27.5 -69t-66.5 -26q-43 0 -68.5 25.5t-25.5 69.5z" />
<glyph unicode="&#xc0;" horiz-adv-x="1383" d="M41 22v47q0 12 3.5 18t6.5 7t9 1q105 5 130.5 18t25.5 60v91q0 238 27.5 428.5t83.5 333t146 219.5t210 77q160 0 270 -130t163 -364.5t53 -563.5v-100q1 -44 24.5 -54t117.5 -13q20 0 24 -6t4 -26v-39q0 -16 -4.5 -21t-20.5 -5h-454q-16 0 -19 3t-3 19v47v12.5t1.5 7 t5.5 5.5t11 1q73 3 104.5 10t42 21t10.5 47v91q0 86 -2 127h-663q-2 -41 -2 -127v-100q1 -44 24.5 -54t117.5 -13q18 0 22 -6t4 -26v-39q0 -16 -3.5 -21t-20.5 -5h-427q-15 0 -18.5 3t-3.5 19zM356 514h648q-24 320 -108 501.5t-216 181.5t-216 -181.5t-108 -501.5z M439 1592q-12 13 -9.5 20.5t17.5 7.5h108q17 0 24.5 -4.5t21.5 -21.5l175 -201q12 -15 9.5 -22.5t-18.5 -7.5h-61q-20 0 -56 30z" />
<glyph unicode="&#xc1;" horiz-adv-x="1383" d="M41 22v47q0 12 3.5 18t6.5 7t9 1q105 5 130.5 18t25.5 60v91q0 238 27.5 428.5t83.5 333t146 219.5t210 77q160 0 270 -130t163 -364.5t53 -563.5v-100q1 -44 24.5 -54t117.5 -13q20 0 24 -6t4 -26v-39q0 -16 -4.5 -21t-20.5 -5h-454q-16 0 -19 3t-3 19v47v12.5t1.5 7 t5.5 5.5t11 1q73 3 104.5 10t42 21t10.5 47v91q0 86 -2 127h-663q-2 -41 -2 -127v-100q1 -44 24.5 -54t117.5 -13q18 0 22 -6t4 -26v-39q0 -16 -3.5 -21t-20.5 -5h-427q-15 0 -18.5 3t-3.5 19zM356 514h648q-24 320 -108 501.5t-216 181.5t-216 -181.5t-108 -501.5z M616 1408l147 173q21 28 47 28h121q14 0 16 -9.5t-11 -20.5l-202 -183q-18 -18 -45 -18h-62q-16 0 -19.5 7.5t8.5 22.5z" />
<glyph unicode="&#xc2;" horiz-adv-x="1383" d="M41 22v47q0 12 3.5 18t6.5 7t9 1q105 5 130.5 18t25.5 60v91q0 238 27.5 428.5t83.5 333t146 219.5t210 77q160 0 270 -130t163 -364.5t53 -563.5v-100q1 -44 24.5 -54t117.5 -13q20 0 24 -6t4 -26v-39q0 -16 -4.5 -21t-20.5 -5h-454q-16 0 -19 3t-3 19v47v12.5t1.5 7 t5.5 5.5t11 1q73 3 104.5 10t42 21t10.5 47v91q0 86 -2 127h-663q-2 -41 -2 -127v-100q1 -44 24.5 -54t117.5 -13q18 0 22 -6t4 -26v-39q0 -16 -3.5 -21t-20.5 -5h-427q-15 0 -18.5 3t-3.5 19zM356 514h648q-24 320 -108 501.5t-216 181.5t-216 -181.5t-108 -501.5z M432 1381q-11 16 9 32l168 164q19 19 46 19h56q31 0 47 -19l169 -164q8 -8 10 -15.5t-0.5 -12.5t-9.5 -15q-8 -14 -28 -3l-216 126l-214 -126q-17 -6 -22.5 -3t-14.5 17z" />
<glyph unicode="&#xc3;" horiz-adv-x="1383" d="M41 22v47q0 12 3.5 18t6.5 7t9 1q105 5 130.5 18t25.5 60v91q0 238 27.5 428.5t83.5 333t146 219.5t210 77q160 0 270 -130t163 -364.5t53 -563.5v-100q1 -44 24.5 -54t117.5 -13q20 0 24 -6t4 -26v-39q0 -16 -4.5 -21t-20.5 -5h-454q-16 0 -19 3t-3 19v47v12.5t1.5 7 t5.5 5.5t11 1q73 3 104.5 10t42 21t10.5 47v91q0 86 -2 127h-663q-2 -41 -2 -127v-100q1 -44 24.5 -54t117.5 -13q18 0 22 -6t4 -26v-39q0 -16 -3.5 -21t-20.5 -5h-427q-15 0 -18.5 3t-3.5 19zM356 514h648q-24 320 -108 501.5t-216 181.5t-216 -181.5t-108 -501.5z M482 1437q57 106 136 106q46 0 101 -31.5t80 -31.5q28 0 52 43q6 17 18 9l47 -22q10 -4 10.5 -8.5t-4.5 -15.5q-52 -108 -131 -108q-48 0 -103 30.5t-74 30.5t-30 -8.5t-27 -32.5q-10 -15 -23 -9l-44 22q-16 9 -8 26z" />
<glyph unicode="&#xc4;" horiz-adv-x="1383" d="M41 22v47q0 12 3.5 18t6.5 7t9 1q105 5 130.5 18t25.5 60v91q0 238 27.5 428.5t83.5 333t146 219.5t210 77q160 0 270 -130t163 -364.5t53 -563.5v-100q1 -44 24.5 -54t117.5 -13q20 0 24 -6t4 -26v-39q0 -16 -4.5 -21t-20.5 -5h-454q-16 0 -19 3t-3 19v47v12.5t1.5 7 t5.5 5.5t11 1q73 3 104.5 10t42 21t10.5 47v91q0 86 -2 127h-663q-2 -41 -2 -127v-100q1 -44 24.5 -54t117.5 -13q18 0 22 -6t4 -26v-39q0 -16 -3.5 -21t-20.5 -5h-427q-15 0 -18.5 3t-3.5 19zM356 514h648q-24 320 -108 501.5t-216 181.5t-216 -181.5t-108 -501.5z M432 1456q0 33 23 56.5t59 23.5q37 0 61.5 -23.5t24.5 -56.5q0 -34 -24.5 -56t-61.5 -22t-59.5 22t-22.5 56zM769 1456q0 33 23 56.5t61 23.5q37 0 60 -23.5t23 -56.5q0 -34 -23.5 -56t-59.5 -22q-40 0 -62 21.5t-22 56.5z" />
<glyph unicode="&#xc5;" horiz-adv-x="1383" d="M41 22v47q0 12 3.5 18t6.5 7t9 1q105 5 130.5 18t25.5 60v91q0 238 27.5 428.5t83.5 333t146 219.5t210 77q160 0 270 -130t163 -364.5t53 -563.5v-100q1 -44 24.5 -54t117.5 -13q20 0 24 -6t4 -26v-39q0 -16 -4.5 -21t-20.5 -5h-454q-16 0 -19 3t-3 19v47v12.5t1.5 7 t5.5 5.5t11 1q73 3 104.5 10t42 21t10.5 47v91q0 86 -2 127h-663q-2 -41 -2 -127v-100q1 -44 24.5 -54t117.5 -13q18 0 22 -6t4 -26v-39q0 -16 -3.5 -21t-20.5 -5h-427q-15 0 -18.5 3t-3.5 19zM356 514h648q-24 320 -108 501.5t-216 181.5t-216 -181.5t-108 -501.5z M465 1502q0 58 51.5 96.5t168.5 38.5q116 0 167 -38.5t51 -96.5t-51 -96.5t-167 -38.5q-117 0 -168.5 38.5t-51.5 96.5zM579 1502q0 -68 106 -68q56 0 79.5 19.5t23.5 48.5q0 28 -23.5 48t-79.5 20q-58 0 -82 -20t-24 -48z" />
<glyph unicode="&#xc6;" horiz-adv-x="1882" d="M41 22v47q0 12 3.5 18t6.5 7t9 1q105 5 130.5 18t25.5 60v91q0 238 27.5 428.5t83.5 333t146 219.5t210 77q212 0 337 -229v190q0 13 3 16.5t16 3.5h672q11 0 15 -1t6.5 -5t2.5 -14v-293q0 -35 -24 -35h-52q-17 0 -21 4t-7 18l-13 159q-3 29 -8.5 38.5t-23.5 9.5l-419 -2 v-463h291q16 0 22 -3.5t6 -17.5v-72q0 -17 -5 -22.5t-23 -5.5h-291v-214q0 -19 1 -59t1 -61v-100q0 -31 11 -45l440 -2q16 0 21 8.5t9 34.5q1 4 1 6l13 160q1 8 2.5 11t7.5 7t17 4h52q24 0 24 -35v-293q0 -14 -4 -17t-20 -3h-883q-16 0 -19 3t-3 19v47v12.5t1.5 7t5.5 5.5 t11 1q73 3 104.5 10t42 21t10.5 47v91q0 86 -2 127h-663q-2 -41 -2 -127v-100q1 -44 24.5 -54t117.5 -13q18 0 22 -6t4 -26v-39q0 -16 -3.5 -21t-20.5 -5h-427q-15 0 -18.5 3t-3.5 19zM356 514h648q-24 320 -108 501.5t-216 181.5t-216 -181.5t-108 -501.5z" />
<glyph unicode="&#xc7;" horiz-adv-x="1253" d="M114 640q0 338 163 510t464 172q227 0 357 -41q22 -5 27 -13.5t5 -34.5v-310q0 -15 -3.5 -18.5t-16.5 -3.5h-77q-14 0 -18 3.5t-6 15.5l-26 259q-98 24 -240 24q-222 0 -348.5 -141.5t-126.5 -424.5q0 -279 125.5 -402t362.5 -123q147 0 380 43q14 3 20 -1.5t6 -19.5v-61 q0 -21 -7 -29.5t-29 -13.5q-191 -42 -368 -45l-26 -63q74 -3 107.5 -37t33.5 -88q0 -82 -54 -120t-138 -38q-69 0 -145 22q-18 8 -18 16q-1 6 5 16l13 24q6 11 11.5 12.5t14.5 -1.5q44 -15 97 -15q93 0 93 82q0 65 -117 65q-5 0 -13 -0.5t-10.5 -0.5t-5 2.5t-1 8t5.5 15.5 l46 104q-272 17 -407.5 174t-135.5 477z" />
<glyph unicode="&#xc8;" horiz-adv-x="1104" d="M114 337q0 73 18 130t45.5 92.5t68 61.5t77 38t81.5 21q-121 24 -176 107.5t-55 206.5q0 94 32 160t91.5 101.5t131.5 51t166 15.5q199 0 337 -45q8 -3 13 -5t8.5 -5t5 -4t2.5 -6.5t1 -7v-10v-12.5v-257q0 -16 -3 -19t-18 -3h-63q-11 0 -14.5 3t-6.5 15l-24 211 q-83 24 -229 24q-66 0 -114 -9t-89 -32t-62 -67t-21 -108q0 -132 82 -188t232 -56h130q13 0 18 -5.5t5 -20.5v-67q0 -15 -5 -20.5t-18 -5.5h-130q-357 0 -357 -270q0 -130 86 -187t266 -57q63 0 133 6.5t115 14t88 16t45 8.5q11 2 15 -2.5t4 -18.5v-84q0 -12 -6 -16.5 t-22 -9.5q-160 -41 -410 -41q-84 0 -150.5 9t-129 32.5t-104 62.5t-66 103t-24.5 149zM350 1592q-13 13 -10.5 20.5t17.5 7.5h108q17 0 25 -5t22 -21l175 -201q25 -30 -9 -30h-62q-20 0 -56 30z" />
<glyph unicode="&#xc9;" horiz-adv-x="1104" d="M114 337q0 73 18 130t45.5 92.5t68 61.5t77 38t81.5 21q-121 24 -176 107.5t-55 206.5q0 94 32 160t91.5 101.5t131.5 51t166 15.5q199 0 337 -45q8 -3 13 -5t8.5 -5t5 -4t2.5 -6.5t1 -7v-10v-12.5v-257q0 -16 -3 -19t-18 -3h-63q-11 0 -14.5 3t-6.5 15l-24 211 q-83 24 -229 24q-66 0 -114 -9t-89 -32t-62 -67t-21 -108q0 -132 82 -188t232 -56h130q13 0 18 -5.5t5 -20.5v-67q0 -15 -5 -20.5t-18 -5.5h-130q-357 0 -357 -270q0 -130 86 -187t266 -57q63 0 133 6.5t115 14t88 16t45 8.5q11 2 15 -2.5t4 -18.5v-84q0 -12 -6 -16.5 t-22 -9.5q-160 -41 -410 -41q-84 0 -150.5 9t-129 32.5t-104 62.5t-66 103t-24.5 149zM527 1408l147 173q21 28 47 28h121q14 0 16 -9.5t-11 -20.5l-203 -183q-18 -18 -44 -18h-62q-16 0 -19.5 7.5t8.5 22.5z" />
<glyph unicode="&#xca;" horiz-adv-x="1104" d="M114 337q0 73 18 130t45.5 92.5t68 61.5t77 38t81.5 21q-121 24 -176 107.5t-55 206.5q0 94 32 160t91.5 101.5t131.5 51t166 15.5q199 0 337 -45q8 -3 13 -5t8.5 -5t5 -4t2.5 -6.5t1 -7v-10v-12.5v-257q0 -16 -3 -19t-18 -3h-63q-11 0 -14.5 3t-6.5 15l-24 211 q-83 24 -229 24q-66 0 -114 -9t-89 -32t-62 -67t-21 -108q0 -132 82 -188t232 -56h130q13 0 18 -5.5t5 -20.5v-67q0 -15 -5 -20.5t-18 -5.5h-130q-357 0 -357 -270q0 -130 86 -187t266 -57q63 0 133 6.5t115 14t88 16t45 8.5q11 2 15 -2.5t4 -18.5v-84q0 -12 -6 -16.5 t-22 -9.5q-160 -41 -410 -41q-84 0 -150.5 9t-129 32.5t-104 62.5t-66 103t-24.5 149zM343 1381q-11 16 9 32l167 164q19 19 47 19h56q30 0 46 -19l170 -164q8 -8 9.5 -15.5t-0.5 -12t-9 -15.5q-8 -14 -28 -3l-216 126l-214 -126q-17 -6 -22.5 -3t-14.5 17z" />
<glyph unicode="&#xcb;" horiz-adv-x="1104" d="M114 337q0 73 18 130t45.5 92.5t68 61.5t77 38t81.5 21q-121 24 -176 107.5t-55 206.5q0 94 32 160t91.5 101.5t131.5 51t166 15.5q199 0 337 -45q8 -3 13 -5t8.5 -5t5 -4t2.5 -6.5t1 -7v-10v-12.5v-257q0 -16 -3 -19t-18 -3h-63q-11 0 -14.5 3t-6.5 15l-24 211 q-83 24 -229 24q-66 0 -114 -9t-89 -32t-62 -67t-21 -108q0 -132 82 -188t232 -56h130q13 0 18 -5.5t5 -20.5v-67q0 -15 -5 -20.5t-18 -5.5h-130q-357 0 -357 -270q0 -130 86 -187t266 -57q63 0 133 6.5t115 14t88 16t45 8.5q11 2 15 -2.5t4 -18.5v-84q0 -12 -6 -16.5 t-22 -9.5q-160 -41 -410 -41q-84 0 -150.5 9t-129 32.5t-104 62.5t-66 103t-24.5 149zM343 1456q0 33 22.5 56.5t58.5 23.5q37 0 61.5 -23.5t24.5 -56.5q0 -34 -24.5 -56t-61.5 -22t-59 22t-22 56zM680 1456q0 34 22.5 57t60.5 23q37 0 60.5 -23.5t23.5 -56.5q0 -34 -24 -56 t-60 -22q-39 0 -61 21.5t-22 56.5z" />
<glyph unicode="&#xcc;" horiz-adv-x="698" d="M101 22v47q0 11 0.5 15t4.5 7.5t13 3.5q41 2 63 3t42.5 5.5t28.5 9t14.5 16.5t7.5 24t1 35v924q0 25 -0.5 37t-6 24.5t-12 16.5t-25.5 8.5t-39 5.5t-59 2q-20 0 -24 5t-4 25v41q0 16 4 21t20 5h447q15 0 18 -3.5t3 -18.5v-48q0 -10 -0.5 -14.5t-5 -8t-13.5 -4.5 q-49 -1 -73 -3.5t-44 -6.5t-26.5 -15.5t-9 -24.5t-2.5 -41v-970q4 -31 29.5 -38.5t110.5 -9.5q20 0 24 -6t4 -26v-39q0 -16 -4 -21t-20 -5h-445q-16 0 -19 3.5t-3 18.5zM106 1592q-12 13 -9.5 20.5t17.5 7.5h108q17 0 24.5 -4.5t21.5 -21.5l175 -201q12 -15 9.5 -22.5 t-18.5 -7.5h-62q-10 0 -19 4t-14.5 8.5t-21.5 17.5z" />
<glyph unicode="&#xcd;" horiz-adv-x="700" d="M101 22v47q0 11 0.5 15t4.5 7.5t13 3.5q101 3 127.5 14.5t29.5 56.5v946q0 25 -0.5 37t-6 24.5t-12 16.5t-25.5 8.5t-39 5.5t-59 2q-20 0 -24 5t-4 25v41q0 16 4 21t20 5h447q15 0 18 -3.5t3 -18.5v-48q0 -10 -0.5 -14.5t-5 -8t-13.5 -4.5q-49 -1 -73 -3.5t-44.5 -6.5 t-26.5 -15.5t-9 -25t-3 -40.5v-923q0 -25 0.5 -37t6 -25t12 -17t25 -8.5t38.5 -5.5t59 -2q20 0 24 -6t4 -26v-39q0 -16 -4 -21t-20 -5h-445q-16 0 -19 3.5t-3 18.5zM281 1408l147 173q21 28 47 28h121q14 0 16 -9.5t-11 -20.5l-203 -183q-18 -18 -44 -18h-62 q-16 0 -19.5 7.5t8.5 22.5z" />
<glyph unicode="&#xce;" horiz-adv-x="698" d="M99 1381q-11 16 9 32l168 164q19 19 46 19h56q30 0 46 -19l170 -164q8 -8 9.5 -15.5t-0.5 -12t-9 -15.5q-8 -14 -28 -3l-216 126l-214 -126q-17 -6 -22.5 -3t-14.5 17zM101 22v47v11.5t1.5 7.5t5.5 6t11 1q31 1 49 2t37 3.5t28.5 5t19 8t13 10.5t6.5 15.5t3.5 21 t0.5 27.5v924q0 25 -0.5 37t-6 24.5t-12 16.5t-25.5 8.5t-39 5.5t-59 2q-20 0 -24 5t-4 25v41q0 16 4 21t20 5h447q15 0 18 -3.5t3 -18.5v-48q0 -10 -0.5 -14.5t-5 -8t-13.5 -4.5q-41 -1 -63 -2t-42 -5.5t-28 -8.5t-14 -16t-7 -24t-1 -35v-970q4 -31 29.5 -38.5t110.5 -9.5 q20 0 24 -6t4 -26v-39q0 -16 -4 -21t-20 -5h-445q-9 0 -13 0.5t-6 3.5t-2.5 6.5t-0.5 11.5z" />
<glyph unicode="&#xcf;" horiz-adv-x="698" d="M97 1456q0 33 23 56.5t59 23.5q37 0 61 -23.5t24 -56.5q0 -34 -24 -56t-61 -22t-59.5 22t-22.5 56zM101 22v47q0 11 0.5 15t4.5 7.5t13 3.5q41 2 63 3t42.5 5.5t28.5 9t14.5 16.5t7.5 24t1 35v924q0 25 -0.5 37t-6 24.5t-12 16.5t-25.5 8.5t-39 5.5t-59 2q-20 0 -24 5 t-4 25v41q0 16 4 21t20 5h447q15 0 18 -3.5t3 -18.5v-48q0 -10 -0.5 -14.5t-5 -8t-13.5 -4.5q-49 -1 -73 -3.5t-44 -6.5t-26.5 -15.5t-9 -24.5t-2.5 -41v-970q4 -31 29.5 -38.5t110.5 -9.5q20 0 24 -6t4 -26v-39q0 -16 -4 -21t-20 -5h-445q-16 0 -19 3.5t-3 18.5zM434 1456 q0 33 23 56.5t61 23.5q37 0 60 -23.5t23 -56.5q0 -34 -23.5 -56t-59.5 -22q-40 0 -62 21.5t-22 56.5z" />
<glyph unicode="&#xd0;" horiz-adv-x="1418" d="M101 646v75q0 12 3 14t11 2h164v415q-3 32 -29 40.5t-123 13.5q-14 2 -18.5 6t-4.5 17v54q0 14 4 17t19 3h458q373 0 544 -168t171 -485q0 -328 -169 -489t-528 -161h-476q-14 0 -18.5 4t-4.5 18v47q0 11 0.5 15.5t5 7.5t13.5 3q97 3 125 14t31 46v472h-162 q-9 0 -12.5 3.5t-3.5 15.5zM434 117h160q276 0 410.5 130t134.5 399q0 128 -30 225.5t-94 169.5t-170.5 109.5t-252.5 37.5h-158v-451h268q15 0 15 -13v-78q0 -12 -5 -15.5t-16 -3.5h-262v-510z" />
<glyph unicode="&#xd1;" horiz-adv-x="1474" d="M101 1233v48q0 14 4 18t18 4h249q23 0 36 -8t26 -25l651 -1061v919q0 33 -9.5 47t-41.5 21.5t-105 9.5q-12 1 -14.5 6.5t-2.5 20.5v48q0 14 3.5 18t17.5 4h428q16 0 20 -5t4 -21v-41q0 -20 -4 -25t-24 -5q-96 -3 -118.5 -15.5t-22.5 -64.5v-1083q0 -43 -28 -43h-90 q-41 0 -57 24l-635 1026v-864q0 -33 2 -46.5t17.5 -24.5t41 -13.5t79.5 -4.5q10 0 16 -1t8 -6.5t2.5 -9t0.5 -15.5v-39q0 -16 -4 -21t-18 -5h-424q-15 0 -18 3.5t-3 18.5v47q0 15 4.5 20.5t19.5 5.5q56 2 81.5 5t42.5 13.5t19.5 24.5t2.5 46v957q0 40 -27.5 51t-129.5 14 q-7 1 -11 2.5t-5.5 6t-1.5 7v11.5zM519 1437q57 106 136 106q47 0 101 -31.5t80 -31.5q28 0 52 43q6 17 19 9l46 -22q10 -4 10.5 -8.5t-4.5 -15.5q-52 -108 -130 -108q-48 0 -103 30.5t-74 30.5t-30.5 -8.5t-27.5 -32.5q-10 -14 -22 -9l-45 22q-16 9 -8 26z" />
<glyph unicode="&#xd2;" horiz-adv-x="1472" d="M114 652q0 146 39 267.5t114.5 211.5t195 140.5t272.5 50.5q124 0 226.5 -33t175.5 -92t123.5 -142.5t74.5 -185t24 -217.5q0 -147 -39 -268.5t-114.5 -212t-196 -140.5t-274.5 -50q-153 0 -272.5 50t-195 140.5t-114.5 212t-39 268.5zM274 655q0 -255 122.5 -402 t338.5 -147q218 0 342 147t124 402q0 253 -123.5 396.5t-342.5 143.5q-217 0 -339 -143.5t-122 -396.5zM492 1592q-13 13 -10.5 20.5t17.5 7.5h108q17 0 24.5 -4.5t21.5 -21.5l176 -201q12 -15 9 -22.5t-19 -7.5h-61q-20 0 -56 30z" />
<glyph unicode="&#xd3;" horiz-adv-x="1472" d="M114 652q0 146 39 267.5t114.5 211.5t195 140.5t272.5 50.5q124 0 226.5 -33t175.5 -92t123.5 -142.5t74.5 -185t24 -217.5q0 -147 -39 -268.5t-114.5 -212t-196 -140.5t-274.5 -50q-153 0 -272.5 50t-195 140.5t-114.5 212t-39 268.5zM274 655q0 -255 122.5 -402 t338.5 -147q218 0 342 147t124 402q0 253 -123.5 396.5t-342.5 143.5q-217 0 -339 -143.5t-122 -396.5zM668 1408l147 173q21 28 47 28h121q14 0 16.5 -9.5t-10.5 -20.5l-203 -183q-18 -18 -45 -18h-61q-16 0 -20 7.5t8 22.5z" />
<glyph unicode="&#xd4;" horiz-adv-x="1472" d="M114 652q0 146 39 267.5t114.5 211.5t195 140.5t272.5 50.5q124 0 226.5 -33t175.5 -92t123.5 -142.5t74.5 -185t24 -217.5q0 -147 -39 -268.5t-114.5 -212t-196 -140.5t-274.5 -50q-153 0 -272.5 50t-195 140.5t-114.5 212t-39 268.5zM274 655q0 -255 122.5 -402 t338.5 -147q218 0 342 147t124 402q0 253 -123.5 396.5t-342.5 143.5q-217 0 -339 -143.5t-122 -396.5zM484 1381q-11 16 9 32l168 164q19 19 46 19h56q31 0 47 -19l169 -164q8 -8 10 -15.5t-0.5 -12.5t-9.5 -15q-8 -14 -28 -3l-216 126l-214 -126q-18 -5 -22.5 -2.5 t-14.5 16.5z" />
<glyph unicode="&#xd5;" horiz-adv-x="1472" d="M114 652q0 146 39 267.5t114.5 211.5t195 140.5t272.5 50.5q124 0 226.5 -33t175.5 -92t123.5 -142.5t74.5 -185t24 -217.5q0 -147 -39 -268.5t-114.5 -212t-196 -140.5t-274.5 -50q-153 0 -272.5 50t-195 140.5t-114.5 212t-39 268.5zM274 655q0 -255 122.5 -402 t338.5 -147q218 0 342 147t124 402q0 253 -123.5 396.5t-342.5 143.5q-217 0 -339 -143.5t-122 -396.5zM534 1437q57 106 136 106q46 0 101 -31.5t80 -31.5q28 0 52 43q6 17 19 9l46 -22q10 -4 10.5 -8.5t-4.5 -15.5q-52 -108 -131 -108q-48 0 -102.5 30.5t-73.5 30.5 t-30.5 -8.5t-27.5 -32.5q-10 -15 -23 -9l-44 22q-16 9 -8 26z" />
<glyph unicode="&#xd6;" horiz-adv-x="1472" d="M114 652q0 146 39 267.5t114.5 211.5t195 140.5t272.5 50.5q124 0 226.5 -33t175.5 -92t123.5 -142.5t74.5 -185t24 -217.5q0 -147 -39 -268.5t-114.5 -212t-196 -140.5t-274.5 -50q-153 0 -272.5 50t-195 140.5t-114.5 212t-39 268.5zM274 655q0 -255 122.5 -402 t338.5 -147q218 0 342 147t124 402q0 253 -123.5 396.5t-342.5 143.5q-217 0 -339 -143.5t-122 -396.5zM484 1456q0 33 23 56.5t59 23.5q37 0 61.5 -23.5t24.5 -56.5q0 -34 -24.5 -56t-61.5 -22t-59.5 22t-22.5 56zM821 1456q0 33 23 56.5t61 23.5q37 0 60.5 -23.5 t23.5 -56.5q0 -34 -24 -56t-60 -22q-40 0 -62 21.5t-22 56.5z" />
<glyph unicode="&#xd7;" horiz-adv-x="971" d="M112 748l78 86l294 -274l259 283l86 -78l-261 -283l290 -272l-76 -85l-292 270l-261 -280l-84 77l261 283z" />
<glyph unicode="&#xd8;" horiz-adv-x="1472" d="M114 652q0 146 39 267.5t114.5 211.5t195 140.5t272.5 50.5q100 0 196 -24l30 70q10 19 20 19h123q21 0 13 -22l-50 -121q144 -81 218 -235.5t74 -356.5q0 -147 -39 -268.5t-114.5 -212t-196 -140.5t-274.5 -50q-92 0 -182 21l-43 -103q-3 -7 -8 -10t-8 -3.5t-12 -0.5 h-123q-15 0 -9 14l63 155q-148 79 -223.5 235t-75.5 363zM274 655q0 -161 50.5 -281.5t144.5 -187.5l412 989q-69 20 -146 20q-217 0 -339 -143.5t-122 -396.5zM601 123q63 -17 134 -17q218 0 342 147t124 402q0 156 -48.5 273t-139.5 184z" />
<glyph unicode="&#xd9;" horiz-adv-x="1444" d="M78 1236v41q0 16 4 21t20 5h455q14 0 17 -3.5t3 -18.5v-48q0 -12 -0.5 -15.5t-4.5 -7t-13 -4.5q-98 -3 -126.5 -15t-30.5 -50v-679q0 -170 87.5 -263t249.5 -93q161 0 246.5 92.5t85.5 263.5v653q0 28 -2.5 41t-8 24.5t-24 15.5t-40.5 6.5t-67 3.5q-20 0 -24 5t-4 25v41 q0 16 4 21t20 5h423q16 0 19 -3.5t3 -18.5v-48q0 -12 -3 -18t-6 -6.5t-9 -0.5q-98 -5 -127 -17.5t-30 -49.5v-679q0 -219 -117.5 -350t-349.5 -131q-236 0 -359 125t-123 356v653q0 23 -0.5 35t-6.5 24t-12.5 16t-25 8.5t-38 5.5t-57.5 2q-20 0 -24 5t-4 25zM495 1592 q-12 13 -9.5 20.5t17.5 7.5h108q17 0 24.5 -4.5t21.5 -21.5l175 -201q12 -15 9.5 -22.5t-18.5 -7.5h-62q-10 0 -19 4t-14.5 8.5t-21.5 17.5z" />
<glyph unicode="&#xda;" horiz-adv-x="1444" d="M78 1236v41q0 16 4 21t20 5h455q14 0 17 -3.5t3 -18.5v-48q0 -12 -0.5 -15.5t-4.5 -7t-13 -4.5q-98 -3 -126.5 -15t-30.5 -50v-679q0 -170 87.5 -263t249.5 -93q161 0 246.5 92.5t85.5 263.5v653q0 28 -2.5 41t-8 24.5t-24 15.5t-40.5 6.5t-67 3.5q-20 0 -24 5t-4 25v41 q0 16 4 21t20 5h423q16 0 19 -3.5t3 -18.5v-48q0 -12 -3 -18t-6 -6.5t-9 -0.5q-98 -5 -127 -17.5t-30 -49.5v-679q0 -219 -117.5 -350t-349.5 -131q-236 0 -359 125t-123 356v653q0 23 -0.5 35t-6.5 24t-12.5 16t-25 8.5t-38 5.5t-57.5 2q-20 0 -24 5t-4 25zM672 1408 l147 173q21 28 47 28h121q14 0 16 -9.5t-11 -20.5l-203 -183q-18 -18 -44 -18h-62q-16 0 -19.5 7.5t8.5 22.5z" />
<glyph unicode="&#xdb;" horiz-adv-x="1442" d="M78 1236v41q0 16 4 21t20 5h455q14 0 17 -3.5t3 -18.5v-48q0 -12 -0.5 -15.5t-4.5 -7t-13 -4.5q-98 -3 -126.5 -15t-30.5 -50v-679q0 -170 87.5 -263t249.5 -93q161 0 246.5 92.5t85.5 263.5v653q0 28 -2.5 41t-8 24.5t-24 15.5t-40.5 6.5t-67 3.5q-20 0 -24 5t-4 25v41 q0 16 4 21t20 5h423q16 0 19 -3.5t3 -18.5v-48q0 -12 -3 -18t-6 -6.5t-9 -0.5q-98 -5 -127 -17.5t-30 -49.5v-679q0 -219 -117.5 -350t-349.5 -131q-236 0 -359 125t-123 356v653q0 23 -0.5 35t-6.5 24t-12.5 16t-25 8.5t-38 5.5t-57.5 2q-20 0 -24 5t-4 25zM486 1381 q-11 16 9 32l168 164q19 19 46 19h56q31 0 47 -19l169 -164q8 -8 10 -15.5t-0.5 -12.5t-9.5 -15q-8 -14 -28 -3l-216 126l-214 -126q-17 -6 -22.5 -3t-14.5 17z" />
<glyph unicode="&#xdc;" horiz-adv-x="1444" d="M78 1236v41q0 16 4 21t20 5h455q14 0 17 -3.5t3 -18.5v-48q0 -12 -0.5 -15.5t-4.5 -7t-13 -4.5q-98 -3 -126.5 -15t-30.5 -50v-679q0 -170 87.5 -263t249.5 -93q161 0 246.5 92.5t85.5 263.5v653q0 28 -2.5 41t-8 24.5t-24 15.5t-40.5 6.5t-67 3.5q-20 0 -24 5t-4 25v41 q0 16 4 21t20 5h423q16 0 19 -3.5t3 -18.5v-48q0 -12 -3 -18t-6 -6.5t-9 -0.5q-98 -5 -127 -17.5t-30 -49.5v-679q0 -219 -117.5 -350t-349.5 -131q-236 0 -359 125t-123 356v653q0 23 -0.5 35t-6.5 24t-12.5 16t-25 8.5t-38 5.5t-57.5 2q-20 0 -24 5t-4 25zM486 1456 q0 33 23 56.5t59 23.5q37 0 61 -23.5t24 -56.5q0 -34 -24 -56t-61 -22t-59.5 22t-22.5 56zM823 1456q0 33 23 56.5t61 23.5q37 0 60 -23.5t23 -56.5q0 -34 -23.5 -56t-59.5 -22q-40 0 -62 21.5t-22 56.5z" />
<glyph unicode="&#xdd;" horiz-adv-x="1266" d="M39 1227v56q0 13 3.5 16.5t15.5 3.5h424q17 0 17 -18v-54q0 -25 -21 -25q-77 -2 -103.5 -7.5t-26.5 -21.5q0 -83 24 -162.5t70.5 -154.5t89.5 -128.5t107 -124.5q66 70 110 124t92 129t72.5 154.5t24.5 162.5q0 16 -26.5 21.5t-103.5 7.5q-12 0 -16 5.5t-4 19.5v54 q0 11 2.5 14.5t13.5 3.5h406q12 0 15.5 -3.5t3.5 -16.5v-56q0 -8 -0.5 -11.5t-5 -6.5t-13.5 -3q-79 -3 -108.5 -10t-32.5 -25q-5 -99 -37.5 -197t-87.5 -186t-110.5 -157t-126.5 -143v-270h2v-26q0 -26 0.5 -37t6 -24.5t12 -17.5t25 -8.5t39 -5.5t59.5 -2q20 0 24 -6t4 -26 v-39q0 -16 -4 -21t-20 -5h-447q-15 0 -19 4t-4 18v47q0 10 0.5 14.5t5 8t13.5 3.5q50 2 73.5 4.5t44 7t26.5 15.5t9 25t3 41v292q-72 76 -127.5 144.5t-111.5 158t-87.5 188.5t-34.5 200q-2 15 -32.5 23t-108.5 12q-13 1 -16 5t-3 16zM579 1408l147 173q21 28 47 28h121 q14 0 16 -9.5t-11 -20.5l-203 -183q-18 -18 -44 -18h-62q-16 0 -19.5 7.5t8.5 22.5z" />
<glyph unicode="&#xde;" horiz-adv-x="1113" d="M99 22v47q0 11 0.5 15t4.5 7.5t13 3.5q101 3 127.5 14.5t29.5 56.5v946q0 25 -0.5 37t-6 24.5t-12 16.5t-25.5 8.5t-39 5.5t-59 2q-20 0 -24 5t-4 25v41q0 16 4 21t20 5h445q16 0 19.5 -3.5t3.5 -18.5v-48q0 -10 -0.5 -14.5t-5 -8t-13.5 -4.5q-102 -3 -128.5 -13.5 t-27.5 -54.5v-101h119q115 0 201.5 -21t138.5 -55t83.5 -85t43 -103.5t11.5 -117.5q0 -199 -114.5 -310.5t-344.5 -111.5q-79 0 -138 11v-80q1 -44 24 -54t117 -13q20 0 24 -6t4 -26v-39q0 -16 -4 -21t-20 -5h-445q-16 0 -19 3.5t-3 18.5zM421 363q25 -13 132 -13 q150 0 230.5 79.5t80.5 220.5q0 57 -13.5 104t-45 87.5t-89.5 63t-139 22.5h-156v-564z" />
<glyph unicode="&#xdf;" horiz-adv-x="1128" d="M166 24v957q0 89 28.5 155t80 106.5t119.5 60t153 19.5q74 0 136.5 -15t115.5 -48t83 -91.5t30 -137.5q0 -51 -14 -96.5t-33.5 -77t-53 -64.5t-59.5 -52t-67 -47q183 -54 269.5 -135t86.5 -215q0 -164 -119 -253.5t-339 -89.5h-39q-12 0 -16.5 3.5t-4.5 11.5v78 q0 14 5 17.5t21 3.5h43q125 0 210.5 58t85.5 169q0 46 -17 84t-39.5 62t-63 47t-69 35t-75.5 29q-20 7 -30 11q-42 16 -65 32.5t-23 41.5q0 37 75 84q39 25 61.5 42.5t54.5 50t48 74t16 90.5q0 98 -59 141t-149 43q-109 0 -175.5 -56.5t-66.5 -170.5v-959q0 -14 -4.5 -18 t-17.5 -4h-97q-16 0 -21 4.5t-5 19.5z" />
<glyph unicode="&#xe0;" horiz-adv-x="1027" d="M89 209q0 81 34 132.5t88.5 73.5t120.5 32.5t131.5 16.5t120 17.5t88.5 44.5t34 90q0 74 -60 119t-179 45q-101 0 -177 -32l-16 -186q0 -10 -4 -13t-15 -3h-69q-9 0 -13 2t-4.5 5t-0.5 11v218q0 24 5.5 35.5t20.5 18.5q33 18 110.5 33t168.5 15q202 0 292 -82t90 -238 v-320q0 -85 18.5 -114t53.5 -29q49 0 49 44q0 13 1 18t8 9.5t22 4.5h23q21 0 26 -6t5 -24q0 -156 -164 -156q-154 0 -180 158q-98 -162 -352 -162q-140 0 -208 53.5t-68 168.5zM240 209q0 -64 36 -92.5t111 -28.5q135 0 225 83t95 181l4 102q-28 -42 -88 -62t-123.5 -25 t-123 -14.5t-98 -44t-38.5 -99.5zM261 1266q-13 13 -10.5 20.5t17.5 7.5h108q17 0 25 -5t22 -21l175 -201q12 -15 9 -22.5t-19 -7.5h-61q-20 0 -56 30z" />
<glyph unicode="&#xe1;" horiz-adv-x="1169" d="M97 436q0 97 22.5 177t68.5 141.5t122 95.5t176 34q208 0 292 -139v78q0 22 8 32.5t29 10.5h69q14 0 36.5 -2t65.5 -7t81 -8q15 0 19.5 -5t4.5 -19v-49q0 -15 -3.5 -19.5t-15.5 -4.5l-108 -2q-46 0 -46 -59v-466q1 -73 19.5 -98.5t52.5 -25.5q47 0 47 44q0 21 4.5 26.5 t27.5 5.5h22q23 0 27.5 -4.5t4.5 -25.5q0 -156 -162 -156q-153 0 -183 149q-81 -151 -301 -151q-95 0 -169 34t-119.5 95t-68.5 141t-23 177zM248 438q0 -66 15 -124t45.5 -106t82.5 -76t121 -28q128 0 196 90t68 245q0 152 -66 243t-196 91q-68 0 -120.5 -27t-83.5 -74.5 t-46.5 -106.5t-15.5 -127zM503 1082l147 173q12 16 21 22t25 6h121q14 0 16.5 -9.5t-10.5 -20.5l-203 -182q-19 -19 -45 -19h-61q-16 0 -19.5 7.5t8.5 22.5z" />
<glyph unicode="&#xe2;" horiz-adv-x="1027" d="M89 209q0 81 34 132.5t88.5 73.5t120.5 32.5t131.5 16.5t120 17.5t88.5 44.5t34 90q0 74 -60 119t-179 45q-101 0 -177 -32l-16 -186q0 -10 -4 -13t-15 -3h-69q-9 0 -13 2t-4.5 5t-0.5 11v218q0 24 5.5 35.5t20.5 18.5q33 18 110.5 33t168.5 15q202 0 292 -82t90 -238 v-320q0 -85 18.5 -114t53.5 -29q49 0 49 44q0 13 1 18t8 9.5t22 4.5h23q21 0 26 -6t5 -24q0 -156 -164 -156q-154 0 -180 158q-98 -162 -352 -162q-140 0 -208 53.5t-68 168.5zM240 209q0 -64 36 -92.5t111 -28.5q135 0 225 83t95 181l4 102q-28 -42 -88 -62t-123.5 -25 t-123 -14.5t-98 -44t-38.5 -99.5zM251 1056q-10 15 10 31l167 164q19 19 47 19h56q30 0 46 -19l170 -164q15 -15 6 -33q-1 -2 -4 -6l-2 -4q-8 -14 -28 -3l-216 126l-214 -126q-18 -5 -23 -2.5t-15 17.5z" />
<glyph unicode="&#xe3;" horiz-adv-x="1027" d="M89 209q0 81 34 132.5t88.5 73.5t120.5 32.5t131.5 16.5t120 17.5t88.5 44.5t34 90q0 74 -60 119t-179 45q-101 0 -177 -32l-16 -186q0 -10 -4 -13t-15 -3h-69q-9 0 -13 2t-4.5 5t-0.5 11v218q0 24 5.5 35.5t20.5 18.5q33 18 110.5 33t168.5 15q202 0 292 -82t90 -238 v-320q0 -85 18.5 -114t53.5 -29q49 0 49 44q0 13 1 18t8 9.5t22 4.5h23q21 0 26 -6t5 -24q0 -156 -164 -156q-154 0 -180 158q-98 -162 -352 -162q-140 0 -208 53.5t-68 168.5zM240 209q0 -64 36 -92.5t111 -28.5q135 0 225 83t95 181l4 102q-28 -42 -88 -62t-123.5 -25 t-123 -14.5t-98 -44t-38.5 -99.5zM303 1112q57 106 136 106q47 0 101 -32t80 -32q28 0 52 43q6 17 19 9l46 -22q10 -4 10.5 -8.5t-4.5 -15.5q-52 -108 -130 -108q-48 0 -103 30.5t-74 30.5t-30.5 -8.5t-27.5 -32.5q-10 -14 -22 -9l-45 22q-16 9 -8 27z" />
<glyph unicode="&#xe4;" horiz-adv-x="1027" d="M89 209q0 81 34 132.5t88.5 73.5t120.5 32.5t131.5 16.5t120 17.5t88.5 44.5t34 90q0 74 -60 119t-179 45q-101 0 -177 -32l-16 -186q0 -10 -4 -13t-15 -3h-69q-9 0 -13 2t-4.5 5t-0.5 11v218q0 24 5.5 35.5t20.5 18.5q33 18 110.5 33t168.5 15q202 0 292 -82t90 -238 v-320q0 -85 18.5 -114t53.5 -29q49 0 49 44q0 13 1 18t8 9.5t22 4.5h23q21 0 26 -6t5 -24q0 -156 -164 -156q-154 0 -180 158q-98 -162 -352 -162q-140 0 -208 53.5t-68 168.5zM240 209q0 -64 36 -92.5t111 -28.5q135 0 225 83t95 181l4 102q-28 -42 -88 -62t-123.5 -25 t-123 -14.5t-98 -44t-38.5 -99.5zM251 1130q0 33 23 56.5t59 23.5q37 0 61.5 -23.5t24.5 -56.5q0 -34 -24.5 -56t-61.5 -22t-59.5 22t-22.5 56zM588 1130q0 33 23 56.5t61 23.5q37 0 60.5 -23.5t23.5 -56.5q0 -34 -24 -56t-60 -22q-40 0 -62 21.5t-22 56.5z" />
<glyph unicode="&#xe5;" horiz-adv-x="1027" d="M89 209q0 81 34 132.5t88.5 73.5t120.5 32.5t131.5 16.5t120 17.5t88.5 44.5t34 90q0 74 -60 119t-179 45q-101 0 -177 -32l-16 -186q0 -10 -4 -13t-15 -3h-69q-9 0 -13 2t-4.5 5t-0.5 11v218q0 24 5.5 35.5t20.5 18.5q33 18 110.5 33t168.5 15q202 0 292 -82t90 -238 v-320q0 -85 18.5 -114t53.5 -29q49 0 49 44q0 13 1 18t8 9.5t22 4.5h23q21 0 26 -6t5 -24q0 -156 -164 -156q-154 0 -180 158q-98 -162 -352 -162q-140 0 -208 53.5t-68 168.5zM240 209q0 -64 36 -92.5t111 -28.5q135 0 225 83t95 181l4 102q-28 -42 -88 -62t-123.5 -25 t-123 -14.5t-98 -44t-38.5 -99.5zM285 1177q0 58 51.5 96t168.5 38q116 0 166.5 -38t50.5 -96t-50.5 -97t-166.5 -39q-117 0 -168.5 39t-51.5 97zM398 1177q0 -29 24 -49t83 -20q56 0 79 20t23 49q0 27 -23 47t-79 20q-58 0 -82.5 -20t-24.5 -47z" />
<glyph unicode="&#xe6;" horiz-adv-x="1547" d="M89 199q0 44 10.5 79t25.5 59t42.5 43t51 29.5t61.5 19t64 12t67 8.5q40 5 64.5 8.5t57.5 11.5t53.5 19t39.5 27.5t28 41t9 56.5q0 38 -8 64t-30 49.5t-67 35t-115 11.5q-107 0 -171 -26l-13 -162q-1 -13 -5.5 -17t-15.5 -4h-63q-14 0 -18 4.5t-4 16.5v203q0 24 5.5 35 t20.5 19q35 17 106.5 29.5t159.5 12.5q255 0 328 -128q102 128 320 128q171 0 257.5 -68t86.5 -196q0 -55 -17.5 -97.5t-44.5 -71.5t-73 -49.5t-90 -31.5t-109.5 -17.5t-117.5 -8t-127 -1.5h-22q9 -71 34.5 -120t65 -76t86 -38.5t106.5 -11.5q35 0 67.5 3.5t67.5 12.5t53 14 t57 19t46 16q14 5 20 0.5t6 -22.5v-47q0 -21 -5 -29t-21 -17q-56 -30 -140 -48t-167 -18q-297 0 -388 203q-39 -96 -132.5 -149.5t-228.5 -53.5q-274 0 -274 218zM240 201q0 -115 134 -115q124 0 209 86t85 189v80q-28 -45 -82.5 -65t-136.5 -30q-106 -14 -141 -30 q-67 -33 -68 -115zM830 443q211 2 294 19q163 42 168 158q0 75 -53.5 114t-143.5 39q-135 0 -199 -81.5t-66 -248.5z" />
<glyph unicode="&#xe7;" horiz-adv-x="925" d="M95 421q0 228 113.5 345.5t323.5 117.5q79 0 148 -13.5t106 -30.5q17 -7 22.5 -17t5.5 -34v-247q0 -11 -4 -15t-17 -4h-67q-16 0 -19 17l-16 203q-63 28 -149 28q-139 0 -218.5 -83.5t-79.5 -264.5q0 -95 22.5 -159t68.5 -98t103.5 -48t138.5 -14q58 0 103 7t128 27 q14 4 19 -2.5t5 -23.5v-58q0 -13 -4.5 -19t-19.5 -11q-93 -30 -240 -33l-28 -69q74 -3 107.5 -37t33.5 -88q0 -82 -53.5 -120t-137.5 -38q-70 0 -146 22q-18 8 -18 16q-1 6 5 16l13 24q6 11 12 13t15 -2q44 -15 96 -15q93 0 93 82q0 65 -117 65q-5 0 -13 -0.5t-10.5 -0.5 t-5 2.5t-1 8t5.5 15.5l50 109q-182 15 -278 115t-96 312z" />
<glyph unicode="&#xe8;" horiz-adv-x="958" d="M97 426q0 458 411 458q171 0 258 -68t87 -196q0 -55 -17.5 -97.5t-44.5 -71.5t-73 -49.5t-90 -31.5t-109.5 -17.5t-117.5 -8t-127 -1.5h-23q18 -136 93.5 -191t199.5 -55q35 0 68 3.5t67 12.5t52.5 14.5t56 18.5t46.5 16q14 5 20 0.5t6 -22.5v-47q0 -21 -5 -29t-21 -17 q-56 -30 -140 -48t-167 -18q-218 0 -324 110.5t-106 334.5zM246 443q210 2 293 19q163 42 168 158q0 75 -53.5 114t-143.5 39q-134 0 -198 -81.5t-66 -248.5zM264 1266q-12 13 -9.5 20.5t17.5 7.5h108q17 0 24.5 -4.5t21.5 -21.5l175 -201q25 -30 -9 -30h-61q-20 0 -56 30z " />
<glyph unicode="&#xe9;" horiz-adv-x="958" d="M97 426q0 458 411 458q171 0 258 -68t87 -196q0 -55 -17.5 -97.5t-44.5 -71.5t-73 -49.5t-90 -31.5t-109.5 -17.5t-117.5 -8t-127 -1.5h-23q18 -136 93.5 -191t199.5 -55q35 0 68 3.5t67 12.5t52.5 14.5t56 18.5t46.5 16q14 5 20 0.5t6 -22.5v-47q0 -21 -5 -29t-21 -17 q-56 -30 -140 -48t-167 -18q-218 0 -324 110.5t-106 334.5zM246 443q210 2 293 19q163 42 168 158q0 75 -53.5 114t-143.5 39q-134 0 -198 -81.5t-66 -248.5zM439 1082l147 173q21 28 47 28h121q14 0 16.5 -9.5t-10.5 -20.5l-203 -182q-19 -19 -45 -19h-61q-16 0 -20 7.5 t8 22.5z" />
<glyph unicode="&#xea;" horiz-adv-x="958" d="M97 426q0 458 411 458q171 0 258 -68t87 -196q0 -55 -17.5 -97.5t-44.5 -71.5t-73 -49.5t-90 -31.5t-109.5 -17.5t-117.5 -8t-127 -1.5h-23q18 -136 93.5 -191t199.5 -55q35 0 68 3.5t67 12.5t52.5 14.5t56 18.5t46.5 16q14 5 20 0.5t6 -22.5v-47q0 -21 -5 -29t-21 -17 q-56 -30 -140 -48t-167 -18q-218 0 -324 110.5t-106 334.5zM246 443q210 2 293 19q163 42 168 158q0 75 -53.5 114t-143.5 39q-134 0 -198 -81.5t-66 -248.5zM255 1056q-10 15 9 31l168 164q19 19 46 19h56q31 0 47 -19l169 -164q12 -16 11 -22t-11 -21q-8 -14 -28 -3 l-216 126l-214 -126q-18 -5 -22.5 -2.5t-14.5 17.5z" />
<glyph unicode="&#xeb;" horiz-adv-x="958" d="M97 426q0 458 411 458q171 0 258 -68t87 -196q0 -55 -17.5 -97.5t-44.5 -71.5t-73 -49.5t-90 -31.5t-109.5 -17.5t-117.5 -8t-127 -1.5h-23q18 -136 93.5 -191t199.5 -55q35 0 68 3.5t67 12.5t52.5 14.5t56 18.5t46.5 16q14 5 20 0.5t6 -22.5v-47q0 -21 -5 -29t-21 -17 q-56 -30 -140 -48t-167 -18q-218 0 -324 110.5t-106 334.5zM246 443q210 2 293 19q163 42 168 158q0 75 -53.5 114t-143.5 39q-134 0 -198 -81.5t-66 -248.5zM255 1130q0 33 23 56.5t59 23.5q37 0 61.5 -23.5t24.5 -56.5q0 -34 -24.5 -56t-61.5 -22t-59.5 22t-22.5 56z M592 1130q0 33 23 56.5t61 23.5q37 0 60.5 -23.5t23.5 -56.5q0 -34 -24 -56t-60 -22q-40 0 -62 21.5t-22 56.5z" />
<glyph unicode="&#xec;" horiz-adv-x="590" d="M45 1266q-13 13 -10.5 20.5t17.5 7.5h108q17 0 25 -5t22 -21l175 -201q12 -15 9 -22.5t-19 -7.5h-61q-20 0 -56 30zM56 780v45q0 17 5 22.5t19 5.5q87 13 153 13h89q37 0 37 -39v-583q0 -85 18.5 -114t54.5 -29q26 0 36 11.5t10 32.5q0 20 5 26t27 6h22q23 0 27.5 -4.5 t4.5 -25.5q0 -156 -162 -156q-188 0 -188 232v473q0 38 -7.5 47t-38.5 11l-97 2q-7 0 -10.5 3t-4 7t-0.5 14z" />
<glyph unicode="&#xed;" horiz-adv-x="590" d="M56 780v45q0 17 5 22.5t19 5.5q87 13 153 13h89q37 0 37 -39v-583q0 -85 18.5 -114t54.5 -29q26 0 36 11.5t10 32.5q0 20 5 26t27 6h22q23 0 27.5 -4.5t4.5 -25.5q0 -156 -162 -156q-188 0 -188 232v473q0 38 -7.5 47t-38.5 11l-97 2q-7 0 -10.5 3t-4 7t-0.5 14z M220 1082l147 173q12 16 21 22t25 6h121q14 0 16.5 -9.5t-10.5 -20.5l-203 -182q-19 -19 -45 -19h-61q-16 0 -19.5 7.5t8.5 22.5z" />
<glyph unicode="&#xee;" horiz-adv-x="590" d="M35 1056q-10 15 10 31l167 164q19 19 47 19h56q30 0 46 -19l170 -164q15 -15 6 -33q-1 -2 -4 -6l-2 -4q-8 -14 -28 -3l-216 126l-214 -126q-18 -5 -23 -2.5t-15 17.5zM56 780v45q0 17 5 22.5t19 5.5q87 13 153 13h89q37 0 37 -39v-583q0 -45 5.5 -74t16 -43.5t22.5 -20 t29 -5.5q26 0 36 11.5t10 32.5q0 14 2 20t8.5 9t21.5 3h22q23 0 27.5 -4.5t4.5 -25.5q0 -156 -162 -156q-89 0 -138.5 54t-49.5 178v473q0 38 -7.5 47t-38.5 11l-97 2q-10 0 -12.5 5t-2.5 19z" />
<glyph unicode="&#xef;" horiz-adv-x="590" d="M35 1130q0 33 23 56.5t59 23.5q37 0 61.5 -23.5t24.5 -56.5q0 -34 -24.5 -56t-61.5 -22t-59.5 22t-22.5 56zM56 780v45q0 17 5 22.5t19 5.5q87 13 153 13h89q37 0 37 -39v-583q0 -85 18.5 -114t54.5 -29q26 0 36 11.5t10 32.5q0 20 5 26t27 6h22q23 0 27.5 -4.5 t4.5 -25.5q0 -156 -162 -156q-188 0 -188 232v473q0 38 -7.5 47t-38.5 11l-97 2q-7 0 -10.5 3t-4 7t-0.5 14zM372 1130q0 33 23 56.5t61 23.5q37 0 60.5 -23.5t23.5 -56.5q0 -34 -24 -56t-60 -22q-40 0 -62 21.5t-22 56.5z" />
<glyph unicode="&#xf0;" d="M97 404q0 81 19 150.5t59.5 129.5t114 95t172.5 35q173 0 283 -142q-46 340 -265 467l-76 -145q-9 -13 -19 -4l-74 41q-15 7 -8 23l69 128q-66 19 -145 19h-17q-24 0 -24 30v65q0 26 24 26h17q111 0 207 -26l74 139q8 16 26 6l62 -35q12 -7 14 -11.5t-3 -16.5l-65 -123 q185 -90 278.5 -286.5t93.5 -460.5q0 -248 -99.5 -387.5t-311.5 -139.5q-192 0 -299 114t-107 309zM251 410q0 -153 67.5 -233t182.5 -80q257 0 257 393v9q-38 101 -102.5 150t-162.5 49q-121 0 -181.5 -78.5t-60.5 -209.5z" />
<glyph unicode="&#xf1;" horiz-adv-x="1165" d="M69 22v47q0 10 0.5 14.5t5 8t13.5 3.5q59 2 86 5t45.5 14t21.5 26t3 48v508q0 58 -47 58l-96 4q-11 0 -14 3.5t-3 16.5v51q0 16 3.5 20t16.5 6q37 2 75.5 6t61.5 6t35 2h68q24 0 32 -9.5t8 -30.5v-138q45 98 128 145.5t182 47.5q125 0 186.5 -68t61.5 -216v-356 q0 -85 18.5 -114t54.5 -29q48 0 48 44q0 15 1.5 20.5t7.5 8.5t21 3h24q22 0 26 -4.5t4 -25.5q0 -156 -162 -156q-89 0 -137.5 53.5t-48.5 178.5v363q0 100 -35.5 139.5t-106.5 39.5q-123 0 -196.5 -99t-73.5 -301v-173q0 -26 0.5 -37t6 -24.5t12 -17.5t25 -8.5t39 -5.5 t59.5 -2q18 0 22 -6t4 -26v-39q0 -16 -3.5 -21t-19.5 -5h-441q-16 0 -19 3.5t-3 18.5zM434 1112q57 106 136 106q46 0 100 -32t80 -32q28 0 52 43q6 17 19 9l47 -22q9 -4 10 -8.5t-5 -15.5q-52 -108 -130 -108q-48 0 -103 30.5t-74 30.5t-30.5 -8.5t-27.5 -32.5 q-10 -14 -22 -9l-45 22q-16 9 -7 27z" />
<glyph unicode="&#xf2;" d="M93 439q0 88 23.5 165t72.5 141t134 101.5t198 37.5q90 0 163 -25t121 -67t80.5 -99.5t46.5 -120.5t14 -133t-14 -133.5t-47 -122t-81 -101t-121.5 -68t-163.5 -25.5q-112 0 -197 38t-133.5 103.5t-72 143t-23.5 165.5zM242 432q0 -67 15.5 -124.5t47 -104t86.5 -73 t128 -26.5q72 0 127 26.5t88 73t49 104.5t16 126q0 67 -16 125.5t-48.5 106.5t-87.5 75.5t-126 27.5q-72 0 -127 -27.5t-87.5 -75.5t-48.5 -107t-16 -127zM276 1266q-13 13 -10.5 20.5t17.5 7.5h108q17 0 25 -5t22 -21l175 -201q25 -30 -10 -30h-61q-20 0 -56 30z" />
<glyph unicode="&#xf3;" d="M93 439q0 88 23.5 165t72.5 141t134 101.5t198 37.5q90 0 163 -25t121 -67t80.5 -99.5t46.5 -120.5t14 -133t-14 -133.5t-47 -122t-81 -101t-121.5 -68t-163.5 -25.5q-112 0 -197 38t-133.5 103.5t-72 143t-23.5 165.5zM242 432q0 -67 15.5 -124.5t47 -104t86.5 -73 t128 -26.5q72 0 127 26.5t88 73t49 104.5t16 126q0 67 -16 125.5t-48.5 106.5t-87.5 75.5t-126 27.5q-72 0 -127 -27.5t-87.5 -75.5t-48.5 -107t-16 -127zM451 1082l147 173q12 16 21 22t25 6h121q14 0 16.5 -9.5t-10.5 -20.5l-203 -182q-19 -19 -45 -19h-61 q-16 0 -19.5 7.5t8.5 22.5z" />
<glyph unicode="&#xf4;" d="M93 439q0 88 23.5 165t72.5 141t134 101.5t198 37.5q90 0 163 -25t121 -67t80.5 -99.5t46.5 -120.5t14 -133t-14 -133.5t-47 -122t-81 -101t-121.5 -68t-163.5 -25.5q-112 0 -197 38t-133.5 103.5t-72 143t-23.5 165.5zM242 432q0 -67 15.5 -124.5t47 -104t86.5 -73 t128 -26.5q72 0 127 26.5t88 73t49 104.5t16 126q0 67 -16 125.5t-48.5 106.5t-87.5 75.5t-126 27.5q-72 0 -127 -27.5t-87.5 -75.5t-48.5 -107t-16 -127zM266 1056q-10 15 10 31l167 164q19 19 47 19h56q30 0 46 -19l169 -164q12 -16 11 -22t-11 -21q-7 -14 -27 -3 l-216 126l-215 -126q-18 -5 -22.5 -2.5t-14.5 17.5z" />
<glyph unicode="&#xf5;" d="M93 439q0 88 23.5 165t72.5 141t134 101.5t198 37.5q90 0 163 -25t121 -67t80.5 -99.5t46.5 -120.5t14 -133t-14 -133.5t-47 -122t-81 -101t-121.5 -68t-163.5 -25.5q-112 0 -197 38t-133.5 103.5t-72 143t-23.5 165.5zM242 432q0 -67 15.5 -124.5t47 -104t86.5 -73 t128 -26.5q72 0 127 26.5t88 73t49 104.5t16 126q0 67 -16 125.5t-48.5 106.5t-87.5 75.5t-126 27.5q-72 0 -127 -27.5t-87.5 -75.5t-48.5 -107t-16 -127zM318 1112q57 106 136 106q46 0 101 -32t80 -32q28 0 52 43q6 17 19 9l46 -22q10 -4 10.5 -8.5t-4.5 -15.5 q-52 -108 -131 -108q-48 0 -102.5 30.5t-73.5 30.5t-30.5 -8.5t-27.5 -32.5q-10 -14 -22 -9l-45 22q-16 9 -8 27z" />
<glyph unicode="&#xf6;" d="M93 439q0 88 23.5 165t72.5 141t134 101.5t198 37.5q90 0 163 -25t121 -67t80.5 -99.5t46.5 -120.5t14 -133t-14 -133.5t-47 -122t-81 -101t-121.5 -68t-163.5 -25.5q-112 0 -197 38t-133.5 103.5t-72 143t-23.5 165.5zM242 432q0 -67 15.5 -124.5t47 -104t86.5 -73 t128 -26.5q72 0 127 26.5t88 73t49 104.5t16 126q0 67 -16 125.5t-48.5 106.5t-87.5 75.5t-126 27.5q-72 0 -127 -27.5t-87.5 -75.5t-48.5 -107t-16 -127zM266 1130q0 33 23 56.5t59 23.5q37 0 61.5 -23.5t24.5 -56.5q0 -34 -24.5 -56t-61.5 -22t-59.5 22t-22.5 56z M603 1130q0 33 23 56.5t61 23.5q37 0 60.5 -23.5t23.5 -56.5q0 -34 -24 -56t-60 -22q-40 0 -62 21.5t-22 56.5z" />
<glyph unicode="&#xf7;" horiz-adv-x="1225" d="M140 397v128h945v-128h-945zM495 138q0 37 31 62t79 25q45 0 74.5 -25t29.5 -62q0 -35 -29.5 -59.5t-74.5 -24.5q-48 0 -79 24.5t-31 59.5zM495 780q0 37 32 62.5t78 25.5q44 0 74 -25.5t30 -62.5q0 -34 -30.5 -59t-73.5 -25q-45 0 -77.5 25t-32.5 59z" />
<glyph unicode="&#xf8;" d="M93 439q0 88 23.5 165t72.5 141t134 101.5t198 37.5q76 0 136 -16l60 134q9 16 18 16h84q19 0 10 -20l-75 -169q98 -57 145 -160.5t47 -229.5q0 -70 -14 -133.5t-47 -122t-81 -101t-121.5 -68t-163.5 -25.5q-55 0 -124 13l-54 -123q-6 -13 -26 -13h-82q-15 0 -8 15 l69 160q-102 56 -151.5 162.5t-49.5 235.5zM242 432q0 -188 104 -274l263 598q-38 13 -88 13q-72 0 -127 -27.5t-87.5 -75.5t-48.5 -107t-16 -127zM441 112q32 -8 78 -8q72 0 127 26.5t88 73t49 104.5t16 126q0 177 -99 270z" />
<glyph unicode="&#xf9;" horiz-adv-x="1139" d="M41 786v41q0 16 4.5 21t17.5 5q39 3 65 6t33.5 4t21 2t37.5 1h89q34 0 34 -43v-527q0 -119 38.5 -161t124.5 -42q122 0 188.5 72.5t70.5 240.5v300q0 52 -46 52l-97 3q-7 0 -10.5 3t-4 7.5t-0.5 14.5v41q0 16 4.5 21t17.5 5q39 3 65.5 6t34 4t21 2t36.5 1h89 q21 0 28 -10.5t7 -32.5v-598q1 -73 20 -98.5t53 -25.5q47 0 47 44q0 21 4 26.5t27 5.5h23q23 0 27 -4.5t4 -25.5q0 -156 -162 -156q-150 0 -180 145q-88 -149 -296 -149q-144 0 -211 73t-67 240v406q0 52 -46 52l-99 3q-9 0 -11 5t-2 20zM277 1266q-12 13 -9.5 20.5 t17.5 7.5h108q17 0 24.5 -4.5t21.5 -21.5l175 -201q12 -15 9.5 -22.5t-18.5 -7.5h-61q-20 0 -56 30z" />
<glyph unicode="&#xfa;" horiz-adv-x="1139" d="M41 786v41q0 16 4.5 21t17.5 5q39 3 65 6t33.5 4t21 2t37.5 1h89q34 0 34 -43v-527q0 -119 38.5 -161t124.5 -42q122 0 188.5 72.5t70.5 240.5v300q0 52 -46 52l-97 3q-7 0 -10.5 3t-4 7.5t-0.5 14.5v41q0 16 4.5 21t17.5 5q39 3 65.5 6t34 4t21 2t36.5 1h89 q21 0 28 -10.5t7 -32.5v-598q1 -73 20 -98.5t53 -25.5q47 0 47 44q0 21 4 26.5t27 5.5h23q23 0 27 -4.5t4 -25.5q0 -156 -162 -156q-150 0 -180 145q-88 -149 -296 -149q-144 0 -211 73t-67 240v406q0 52 -46 52l-99 3q-9 0 -11 5t-2 20zM454 1082l147 173q21 28 47 28h121 q14 0 16.5 -9.5t-10.5 -20.5l-203 -182q-19 -19 -45 -19h-62q-16 0 -19.5 7.5t8.5 22.5z" />
<glyph unicode="&#xfb;" horiz-adv-x="1139" d="M41 786v41q0 16 4.5 21t17.5 5q39 3 65 6t33.5 4t21 2t37.5 1h89q34 0 34 -43v-527q0 -119 38.5 -161t124.5 -42q122 0 188.5 72.5t70.5 240.5v300q0 52 -46 52l-97 3q-7 0 -10.5 3t-4 7.5t-0.5 14.5v41q0 16 4.5 21t17.5 5q39 3 65.5 6t34 4t21 2t36.5 1h89 q21 0 28 -10.5t7 -32.5v-598q1 -73 20 -98.5t53 -25.5q47 0 47 44q0 21 4 26.5t27 5.5h23q23 0 27 -4.5t4 -25.5q0 -156 -162 -156q-150 0 -180 145q-88 -149 -296 -149q-144 0 -211 73t-67 240v406q0 52 -46 52l-99 3q-9 0 -11 5t-2 20zM270 1056q-10 15 9 31l168 164 q19 19 46 19h56q31 0 47 -19l169 -164q9 -9 10.5 -16t-1 -11.5t-9.5 -15.5q-5 -9 -11 -9t-17 6l-216 126l-214 -126q-17 -6 -22.5 -3t-14.5 18z" />
<glyph unicode="&#xfc;" horiz-adv-x="1139" d="M41 786v41q0 16 4.5 21t17.5 5q39 3 65 6t33.5 4t21 2t37.5 1h89q34 0 34 -43v-527q0 -119 38.5 -161t124.5 -42q122 0 188.5 72.5t70.5 240.5v300q0 52 -46 52l-97 3q-7 0 -10.5 3t-4 7.5t-0.5 14.5v41q0 16 4.5 21t17.5 5q39 3 65.5 6t34 4t21 2t36.5 1h89 q21 0 28 -10.5t7 -32.5v-598q1 -73 20 -98.5t53 -25.5q47 0 47 44q0 21 4 26.5t27 5.5h23q23 0 27 -4.5t4 -25.5q0 -156 -162 -156q-150 0 -180 145q-88 -149 -296 -149q-144 0 -211 73t-67 240v406q0 52 -46 52l-99 3q-9 0 -11 5t-2 20zM270 1130q0 33 23 56.5t59 23.5 q37 0 61.5 -23.5t24.5 -56.5q0 -34 -24.5 -56t-61.5 -22t-59.5 22t-22.5 56zM607 1130q0 33 23 56.5t61 23.5q37 0 60.5 -23.5t23.5 -56.5q0 -34 -24 -56t-60 -22q-40 0 -62 21.5t-22 56.5z" />
<glyph unicode="&#xfd;" horiz-adv-x="1063" d="M54 784v67q0 15 15 15h382q14 0 14 -15v-65q0 -7 -0.5 -9.5t-4.5 -5.5t-13 -4q-52 -1 -76.5 -5t-28.5 -9.5t-3 -17.5q3 -118 70 -302t129 -306q99 216 222 601q1 11 3 18t-10 11t-32.5 6t-63.5 4q-13 1 -16.5 5.5t-3.5 15.5v57q0 21 20 21h350q14 0 17.5 -4.5t3.5 -16.5 v-56q0 -15 -17 -20q-79 -4 -97 -12t-26 -40q-153 -517 -430 -1032q-24 -39 -52 -51t-71 -12h-136q-15 0 -17.5 2.5t-2.5 16.5v56q0 8 0.5 11t4.5 5.5t13 3.5q107 10 125 17q22 8 37 35q89 169 119 231q-19 0 -29 15q-68 109 -160.5 337t-98.5 382q-1 13 -9.5 19t-32.5 9.5 t-79 6.5q-7 1 -10.5 3t-4 4.5t-0.5 7.5zM486 1082l147 173q21 28 47 28h121q14 0 16 -9.5t-11 -20.5l-203 -182q-19 -19 -44 -19h-62q-16 0 -19.5 7.5t8.5 22.5z" />
<glyph unicode="&#xfe;" horiz-adv-x="1072" d="M-6 -285q0 15 3.5 20.5t15.5 5.5q47 2 70.5 4.5t43 7t25.5 15t9 23.5t3 38v1305q0 58 -45 58l-99 3q-9 0 -11.5 4t-2.5 17v50q0 16 3.5 20t16.5 6q46 3 101 9t70 6h69q24 0 30.5 -9.5t6.5 -31.5v-586q38 100 122 152t189 52q177 0 268.5 -124.5t91.5 -325.5 q0 -97 -21.5 -178t-65.5 -143t-116 -97t-166 -35q-61 0 -118 16t-107 55t-71 95v-309q0 -64 23 -78t128 -17q20 0 24 -6t4 -26v-39q0 -16 -4 -21t-20 -5h-445q-16 0 -20.5 4t-4.5 19v46zM315 406q0 -145 63.5 -231t191.5 -86q131 0 193 92t62 245q0 151 -61 245t-189 94 t-194 -97.5t-66 -261.5z" />
<glyph unicode="&#xff;" horiz-adv-x="1063" d="M54 784v67q0 15 15 15h382q14 0 14 -15v-65q0 -7 -0.5 -9.5t-4.5 -5.5t-13 -4q-52 -1 -76.5 -5t-28.5 -9.5t-3 -17.5q3 -118 70 -302t129 -306q99 216 222 601q1 11 3 18t-10 11t-32.5 6t-63.5 4q-13 1 -16.5 5.5t-3.5 15.5v57q0 21 20 21h350q14 0 17.5 -4.5t3.5 -16.5 v-56q0 -15 -17 -20q-79 -4 -97 -12t-26 -40q-153 -517 -430 -1032q-24 -39 -52 -51t-71 -12h-136q-15 0 -17.5 2.5t-2.5 16.5v56q0 8 0.5 11t4.5 5.5t13 3.5q107 10 125 17q22 8 37 35q89 169 119 231q-19 0 -29 15q-68 109 -160.5 337t-98.5 382q-1 13 -9.5 19t-32.5 9.5 t-79 6.5q-7 1 -10.5 3t-4 4.5t-0.5 7.5zM302 1130q0 33 23 56.5t59 23.5q37 0 61 -23.5t24 -56.5q0 -34 -24 -56t-61 -22t-59.5 22t-22.5 56zM639 1130q0 34 22.5 57t60.5 23q37 0 60.5 -23.5t23.5 -56.5q0 -34 -24 -56t-60 -22q-39 0 -61 21.5t-22 56.5z" />
<glyph unicode="&#x152;" horiz-adv-x="2157" d="M114 652q0 146 39 267.5t114.5 211.5t195 140.5t272.5 50.5q339 0 501 -233q55 233 412 233q199 0 337 -45q8 -3 12.5 -5t8.5 -5t5.5 -4.5t2 -6t0.5 -7v-10v-12.5v-257q0 -16 -3 -19t-17 -3h-63q-11 0 -14.5 3t-6.5 15l-24 211q-83 24 -229 24q-66 0 -114 -9t-89 -32 t-62.5 -67t-21.5 -108q0 -132 82.5 -188t232.5 -56h130q13 0 18 -5.5t5 -20.5v-67q0 -15 -5 -20.5t-18 -5.5h-130q-358 0 -358 -270q0 -130 86 -187t266 -57q63 0 133 6.5t115 14t88.5 16t45.5 8.5q11 2 15 -2.5t4 -18.5v-84q0 -12 -6 -16.5t-22 -9.5q-160 -41 -410 -41 q-167 0 -280 41t-161 144q-167 -185 -466 -185q-153 0 -272.5 50t-195 140.5t-114.5 212t-39 268.5zM274 655q0 -255 122.5 -402t338.5 -147q218 0 342 147t124 402q0 253 -123.5 396.5t-342.5 143.5q-217 0 -339 -143.5t-122 -396.5zM1355 717q4 -44 4 -65q38 15 99 28 q-60 11 -103 37z" />
<glyph unicode="&#x153;" horiz-adv-x="1658" d="M93 439q0 88 23.5 165t72.5 141t134 101.5t198 37.5q231 0 345 -158q98 158 342 158q171 0 258 -68t87 -196q0 -55 -17.5 -97.5t-44.5 -71.5t-73 -49.5t-90 -31.5t-109.5 -17.5t-117.5 -8t-127 -1.5h-23q18 -136 93.5 -191t199.5 -55q35 0 68 3.5t67 12.5t52.5 14.5 t56 18.5t46.5 16q14 5 20 0.5t6 -22.5v-47q0 -21 -5 -29t-21 -17q-56 -30 -140 -48t-167 -18q-267 0 -367 164q-112 -156 -341 -156q-112 0 -197 38t-133.5 103.5t-72 143t-23.5 165.5zM242 432q0 -67 15.5 -124.5t47 -104t86.5 -73t128 -26.5q129 0 199 80.5t79 206.5v80 q-4 61 -22.5 113.5t-51 94.5t-84.5 66t-118 24q-72 0 -127 -27.5t-87.5 -75.5t-48.5 -107t-16 -127zM946 443q211 2 294 19q163 42 168 158q0 75 -54 114t-144 39q-134 0 -198 -81.5t-66 -248.5z" />
<glyph unicode="&#x178;" horiz-adv-x="1266" d="M39 1227v56q0 13 3.5 16.5t15.5 3.5h424q17 0 17 -18v-54q0 -25 -21 -25q-77 -2 -103.5 -7.5t-26.5 -21.5q0 -83 24 -162.5t70.5 -154.5t89.5 -128.5t107 -124.5q66 70 110 124t92 129t72.5 154.5t24.5 162.5q0 16 -26.5 21.5t-103.5 7.5q-12 0 -16 5.5t-4 19.5v54 q0 11 2.5 14.5t13.5 3.5h406q12 0 15.5 -3.5t3.5 -16.5v-56q0 -8 -0.5 -11.5t-5 -6.5t-13.5 -3q-79 -3 -108.5 -10t-32.5 -25q-5 -99 -37.5 -197t-87.5 -186t-110.5 -157t-126.5 -143v-270h2v-26q0 -26 0.5 -37t6 -24.5t12 -17.5t25 -8.5t39 -5.5t59.5 -2q20 0 24 -6t4 -26 v-39q0 -16 -4 -21t-20 -5h-447q-15 0 -19 4t-4 18v47q0 10 0.5 14.5t5 8t13.5 3.5q50 2 73.5 4.5t44 7t26.5 15.5t9 25t3 41v292q-72 76 -127.5 144.5t-111.5 158t-87.5 188.5t-34.5 200q-2 15 -32.5 23t-108.5 12q-13 1 -16 5t-3 16zM395 1456q0 33 23 56.5t59 23.5 q37 0 61 -23.5t24 -56.5q0 -34 -24 -56t-61 -22t-59.5 22t-22.5 56zM732 1456q0 34 22.5 57t60.5 23q37 0 60.5 -23.5t23.5 -56.5q0 -34 -24 -56t-60 -22q-39 0 -61 21.5t-22 56.5z" />
<glyph unicode="&#x2c6;" horiz-adv-x="679" d="M89 1381q-11 15 10 32l167 164q19 19 47 19h56q30 0 46 -19l170 -164q8 -8 9.5 -15.5t-0.5 -12t-9 -15.5q-8 -14 -28 -3l-216 126l-214 -126q-18 -5 -23 -2.5t-15 16.5z" />
<glyph unicode="&#x2dc;" horiz-adv-x="677" d="M130 1430q57 106 136 106q46 0 101 -31.5t80 -31.5q28 0 52 43q6 17 19 9l46 -23q10 -4 10.5 -8.5t-4.5 -15.5q-52 -108 -131 -108q-48 0 -102.5 31t-73.5 31t-30.5 -8.5t-27.5 -32.5q-11 -15 -23 -10l-44 23q-16 9 -8 26z" />
<glyph unicode="&#x2000;" horiz-adv-x="833" />
<glyph unicode="&#x2001;" horiz-adv-x="1666" />
<glyph unicode="&#x2002;" horiz-adv-x="833" />
<glyph unicode="&#x2003;" horiz-adv-x="1666" />
<glyph unicode="&#x2004;" horiz-adv-x="555" />
<glyph unicode="&#x2005;" horiz-adv-x="416" />
<glyph unicode="&#x2006;" horiz-adv-x="277" />
<glyph unicode="&#x2007;" horiz-adv-x="277" />
<glyph unicode="&#x2008;" horiz-adv-x="208" />
<glyph unicode="&#x2009;" horiz-adv-x="333" />
<glyph unicode="&#x200a;" horiz-adv-x="92" />
<glyph unicode="&#x2010;" horiz-adv-x="919" d="M140 503v72q0 21 18 21h605q17 0 17 -23v-63q0 -14 -4 -20t-16 -6h-604q-16 0 -16 19z" />
<glyph unicode="&#x2011;" horiz-adv-x="919" d="M140 503v72q0 21 18 21h605q17 0 17 -23v-63q0 -14 -4 -20t-16 -6h-604q-16 0 -16 19z" />
<glyph unicode="&#x2012;" horiz-adv-x="919" d="M140 503v72q0 21 18 21h605q17 0 17 -23v-63q0 -14 -4 -20t-16 -6h-604q-16 0 -16 19z" />
<glyph unicode="&#x2013;" horiz-adv-x="1251" d="M140 492v87q0 17 16 17h937q15 0 15 -19v-78q0 -13 -3.5 -17.5t-15.5 -4.5h-934q-15 0 -15 15z" />
<glyph unicode="&#x2014;" horiz-adv-x="1683" d="M140 492v87q0 17 16 17h1369q15 0 15 -19v-78q0 -13 -3.5 -17.5t-15.5 -4.5h-1366q-15 0 -15 15z" />
<glyph unicode="&#x2018;" horiz-adv-x="454" d="M115 966l120 332q5 15 11.5 19.5t19.5 4.5h73q24 0 18 -24l-94 -343q-5 -22 -11.5 -28.5t-29.5 -6.5h-84q-25 0 -29.5 11t6.5 35z" />
<glyph unicode="&#x2019;" horiz-adv-x="454" d="M114 944l95 343q5 23 11 29t29 6h84q24 0 29 -11.5t-6 -35.5l-120 -331q-5 -15 -11.5 -19.5t-19.5 -4.5h-73q-24 0 -18 24z" />
<glyph unicode="&#x201a;" horiz-adv-x="422" d="M58 -192l95 343q5 22 11.5 28.5t29.5 6.5h83q25 0 29.5 -11t-6.5 -35l-119 -332q-8 -24 -32 -24h-73q-24 0 -18 24z" />
<glyph unicode="&#x201c;" horiz-adv-x="724" d="M115 966l120 332q5 15 11.5 19.5t19.5 4.5h73q24 0 18 -24l-94 -343q-5 -22 -11.5 -28.5t-29.5 -6.5h-84q-25 0 -29.5 11t6.5 35zM384 966l119 332q5 15 11.5 19.5t19.5 4.5h73q25 0 19 -24l-95 -343q-5 -22 -11.5 -28.5t-29.5 -6.5h-84q-24 0 -28.5 11t6.5 35z" />
<glyph unicode="&#x201d;" horiz-adv-x="722" d="M114 944l95 343q5 23 11 29t29 6h84q24 0 29 -11.5t-6 -35.5l-120 -331q-5 -15 -11.5 -19.5t-19.5 -4.5h-73q-24 0 -18 24zM380 944l95 343q5 22 11.5 28.5t29.5 6.5h84q24 0 28.5 -11.5t-6.5 -35.5l-119 -331q-8 -24 -32 -24h-73q-24 0 -18 24z" />
<glyph unicode="&#x201e;" horiz-adv-x="741" d="M58 -192l95 343q5 22 11.5 28.5t29.5 6.5h83q25 0 29.5 -11t-6.5 -35l-119 -332q-8 -24 -32 -24h-73q-24 0 -18 24zM376 -192l95 343q5 22 11.5 28.5t29.5 6.5h84q24 0 28.5 -11t-6.5 -35l-119 -332q-8 -24 -32 -24h-72q-25 0 -19 24z" />
<glyph unicode="&#x2022;" horiz-adv-x="610" d="M182 456q0 39 35 66t88 27q50 0 85.5 -27t35.5 -66q0 -38 -35.5 -65.5t-85.5 -27.5q-52 0 -87.5 27.5t-35.5 65.5z" />
<glyph unicode="&#x2026;" horiz-adv-x="1521" d="M130 67q0 31 28.5 52.5t68.5 21.5q39 0 68 -21.5t29 -52.5q0 -36 -28 -57t-69 -21q-42 0 -69.5 21t-27.5 57zM665 67q0 31 27.5 52.5t67.5 21.5q41 0 69.5 -21.5t28.5 -52.5q0 -35 -28 -56.5t-70 -21.5q-41 0 -68 21.5t-27 56.5zM1197 65q0 32 28 54t67 22q41 0 69 -22 t28 -54q0 -35 -27.5 -55.5t-69.5 -20.5q-40 0 -67.5 20.5t-27.5 55.5z" />
<glyph unicode="&#x202f;" horiz-adv-x="333" />
<glyph unicode="&#x2039;" horiz-adv-x="659" d="M78 493l374 399q19 19 30 11l67 -48q9 -5 8 -10.5t-13 -17.5l-319 -350l315 -343q17 -17 19 -21.5t-6 -11.5l-69 -47q-10 -6 -15 -4t-18 15l-369 387q-15 15 -15.5 20.5t11.5 20.5z" />
<glyph unicode="&#x203a;" horiz-adv-x="660" d="M106 101q-6 7 -4.5 11.5t17.5 21.5l317 343l-321 350q-11 13 -12 18t7 10l69 48q10 7 28 -11l374 -399q13 -14 12.5 -20.5t-14.5 -20.5l-370 -387q-12 -13 -18 -15t-16 4z" />
<glyph unicode="&#x205f;" horiz-adv-x="416" />
<glyph unicode="&#x20ac;" horiz-adv-x="1476" d="M89 439l49 66q15 18 31 18h140q-6 39 -6 80h-202q-26 0 -12 17l49 65q13 19 31 19h136q15 307 177 462.5t449 155.5q227 0 357 -41q22 -5 27 -13.5t5 -34.5v-310q0 -15 -3.5 -18.5t-16.5 -3.5h-77q-14 0 -18 3.5t-6 15.5l-26 259q-98 24 -240 24q-208 0 -333 -124.5 t-140 -374.5h622q15 0 18 -6.5t-7 -16.5l-60 -61q-14 -17 -35 -17h-540q0 -8 6 -80h476q15 0 18 -7t-7 -17l-57 -60q-13 -16 -36 -16h-376q84 -311 464 -311q147 0 380 43q14 3 20 -1.5t6 -19.5v-61q0 -21 -7 -29.5t-29 -13.5q-213 -45 -391 -45q-256 0 -407 106t-196 332 h-221q-15 0 -17 3t5 13z" />
<glyph unicode="&#x2122;" horiz-adv-x="1757" d="M153 1093v197q0 9 2.5 11t10.5 2h495q5 0 7 -0.5t3 -3t1 -9.5v-197q0 -15 -11 -15h-52q-10 0 -12 10q-1 2 -1 3l-6 95q-3 24 -20 24h-101v-560q0 -36 10 -45.5t53 -10.5q7 -1 10 -3.5t3.5 -5t0.5 -12.5v-37q0 -9 -2 -12t-10 -3h-249q-8 0 -9.5 2t-1.5 11v41q0 17 9 17 q48 5 60.5 13.5t12.5 40.5v566h-101q-14 0 -20 -26l-6 -95q0 -13 -13 -13h-52q-11 0 -11 15zM717 1247v43q0 13 9 13h220q5 0 9 -1t7 -1.5t5 -3.5t3.5 -4t3 -6t2 -7.5t1.5 -9.5t2 -10q19 -102 78.5 -303t104.5 -318h2q39 107 89 307t71 314q1 5 3 15.5t3 13t4.5 7.5t9.5 6 t15 1h214q9 0 11 -2t2 -11v-43q0 -9 -1.5 -12t-9.5 -4q-47 -3 -60 -11.5t-13 -35.5v-527q0 -65 43 -65q39 0 39 50v4q0 7 6 7h37q8 0 8 -7v-4q0 -132 -116 -132q-130 0 -130 153v465q-29 -145 -85 -332.5t-92 -261.5q-5 -13 -20 -13h-82q-16 0 -23 13q-43 84 -102.5 259.5 t-96.5 329.5v-477q0 -33 10 -41.5t50 -10.5q7 0 10.5 -2.5t4 -6t0.5 -12.5v-37v-7t-1.5 -4.5t-4 -3t-7.5 -0.5h-216q-9 0 -11 2t-2 11v41q0 10 2.5 13.5t10.5 3.5q40 5 50.5 13.5t10.5 40.5v538q0 27 -13 35.5t-58 11.5q-7 2 -7 11v5z" />
<glyph unicode="&#xe000;" horiz-adv-x="865" d="M0 0v866h866v-866h-866z" />
</font>
</defs>
</svg>
