<?xml version="1.0" standalone="no"?>
<!DOCTYPE svg PUBLIC "-//W3C//DTD SVG 1.1//EN" "http://www.w3.org/Graphics/SVG/1.1/DTD/svg11.dtd" >
<svg xmlns="http://www.w3.org/2000/svg">
<metadata></metadata>
<defs>
<font id="quatie_norm_deminorm_demi" horiz-adv-x="1411" >
<font-face units-per-em="2048" ascent="1629" descent="-419" />
<missing-glyph horiz-adv-x="383" />
<glyph unicode="&#xfb01;" horiz-adv-x="1193" d="M76 22v86q0 15 3.5 20t15.5 6q78 8 101 20.5t26 48.5v508h-118q-22 0 -22 24v108q0 23 22 23h118v89q0 201 96 284t319 83q95 0 177 -15.5t126 -33.5q28 -13 28 -54v-229q0 -11 -3.5 -14.5t-16.5 -3.5h-108q-17 0 -19 17l-26 141q-59 26 -158 26q-110 0 -152 -48 t-42 -166v-76h508q25 0 25 -30v-566q0 -74 16 -98.5t47 -24.5q45 0 45 45q0 10 0.5 13.5t3 9t8.5 7t17 1.5h38q21 0 26 -6.5t5 -30.5q0 -197 -199 -197q-229 0 -229 272v389q-2 35 -22 47.5t-84 13.5h-205v-482q0 -40 11 -56t44.5 -23.5t114.5 -11.5q14 -1 19.5 -5t6.5 -8.5 t1 -18.5v-80q0 -16 -3.5 -21t-20.5 -5h-515q-16 0 -20.5 4t-4.5 18z" />
<glyph unicode="&#xfb02;" horiz-adv-x="1225" d="M73 22v86q0 15 3.5 19.5t14.5 6.5q87 8 110.5 23t23.5 65v489h-117q-22 0 -22 24v108q0 23 22 23h117v93q0 103 29.5 175t86.5 112.5t129 58t167 17.5q105 0 180 -19.5t168 -66.5q28 -15 28 -52v-914q0 -74 17 -98.5t48 -24.5q45 0 45 45q0 10 0.5 13.5t3 9t8.5 7t17 1.5 h38q20 0 25.5 -7t5.5 -30q0 -197 -199 -197q-229 0 -229 272v450h-348v-491q0 -51 21.5 -63.5t103.5 -18.5q21 -3 24.5 -7.5t3.5 -24.5v-80q0 -16 -4 -21t-21 -5h-478q-15 0 -18.5 4t-3.5 18zM445 866h348v253q-79 35 -162 35q-110 0 -148 -50t-38 -175v-63z" />
<glyph unicode="&#xfb03;" horiz-adv-x="1765" d="M71 22v86q0 15 3.5 19.5t14.5 6.5q91 10 113.5 24t22.5 64v489h-117q-24 0 -24 24v108q0 23 24 23h117v46q0 165 92.5 254t278.5 89q86 0 143 -10t121 -40q90 117 348 117q95 0 177.5 -15.5t126.5 -33.5q16 -7 22 -18.5t6 -35.5v-229q0 -12 -3 -15t-16 -3h-108 q-9 0 -13 3t-7 14l-25 141q-62 26 -160 26q-110 0 -151.5 -48t-41.5 -166v-76h508q24 0 24 -30v-566q0 -74 17 -98.5t48 -24.5q45 0 45 45q0 12 1 17.5t8 9.5t21 4h35q22 0 28 -7t6 -30q0 -197 -201 -197q-229 0 -229 272v376q0 43 -17 57t-80 17h-214v-499q1 -44 31 -56.5 t140 -17.5q18 -1 23 -7.5t5 -24.5v-80q0 -16 -3.5 -21t-20.5 -5h-518q-15 0 -18.5 4t-3.5 18v86q0 15 3 20t15 6q85 10 106 25t21 63v489h-350v-482q0 -58 20 -72t105 -19q19 -3 22.5 -7.5t3.5 -24.5v-80q0 -16 -3.5 -21t-20.5 -5h-477q-15 0 -19.5 4t-4.5 18zM445 866h350 v89q0 49 6 91q-89 41 -170 41q-104 0 -145 -40.5t-41 -139.5v-41z" />
<glyph unicode="&#xfb04;" horiz-adv-x="1809" d="M71 22v86q0 15 3.5 19.5t14.5 6.5q91 10 113.5 24t22.5 64v489h-117q-24 0 -24 24v108q0 23 24 23h117v46q0 157 89.5 240.5t271.5 83.5q89 0 150.5 -11.5t127.5 -44.5q92 142 357 142q107 0 182.5 -19.5t166.5 -66.5q27 -15 27 -52v-914q0 -74 17.5 -98.5t48.5 -24.5 q44 0 44 45q0 12 1 17.5t8 9.5t21 4h37q22 0 27 -6.5t5 -30.5q0 -197 -199 -197q-229 0 -229 272v450h-347v-491q0 -51 21 -63.5t102 -18.5q21 -3 24.5 -7.5t3.5 -24.5v-80q0 -16 -3.5 -21t-20.5 -5h-478q-15 0 -19 4t-4 18v86q0 15 3.5 19.5t15.5 6.5q87 8 110.5 23 t23.5 65v489h-365v-482q0 -58 20 -72t105 -19q19 -3 22.5 -7.5t3.5 -24.5v-80q0 -16 -3.5 -21t-20.5 -5h-477q-15 0 -19.5 4t-4.5 18zM445 866h365v93q0 41 2 61q-102 49 -190 49q-100 0 -138.5 -36.5t-38.5 -125.5v-41zM1031 866h347v253q-76 35 -160 35q-111 0 -149 -50 t-38 -175v-63z" />
<glyph horiz-adv-x="2048" />
<glyph horiz-adv-x="2048" />
<glyph unicode="&#xd;" horiz-adv-x="2048" />
<glyph unicode=" "  horiz-adv-x="383" />
<glyph unicode="&#x09;" horiz-adv-x="383" />
<glyph unicode="&#xa0;" horiz-adv-x="383" />
<glyph unicode="!" horiz-adv-x="534" d="M138 119q0 54 37 91.5t91 37.5q52 0 90.5 -38t38.5 -91q0 -59 -37.5 -94.5t-91.5 -35.5q-56 0 -92 35t-36 95zM155 1326q0 26 26 26h165q21 0 29.5 -5.5t8.5 -22.5l-32 -970q-2 -26 -35 -26h-112q-25 0 -28 28z" />
<glyph unicode="&#x22;" horiz-adv-x="763" d="M123 866v430q0 10 3 13.5t12 3.5h188q9 0 13 -2t4.5 -5t0.5 -14v-428q0 -19 -16 -19h-185q-14 0 -17 3.5t-3 17.5zM419 866v430q0 10 2.5 13.5t10.5 3.5h190q9 0 13 -2t4.5 -5t0.5 -14v-428q0 -19 -16 -19h-185q-14 0 -17 3.5t-3 17.5z" />
<glyph unicode="#" horiz-adv-x="1333" d="M82 397v143h275l47 248h-253v143h288l77 382h180l-76 -382h218l76 382h181l-75 -382h233v-143h-270l-47 -248h241v-143h-276l-80 -397h-179l80 397h-219l-80 -397h-175l76 397h-242zM538 540h218l46 248h-219z" />
<glyph unicode="$" horiz-adv-x="1154" d="M104 89v302q0 18 6.5 24t27.5 6h117q16 0 21.5 -4.5t8.5 -19.5l22 -200q92 -24 248 -24q36 0 68.5 3t73 14.5t69 30.5t48.5 54t20 82q0 52 -24 90t-64.5 61t-93.5 40t-111 31t-116 30t-111 42t-93.5 62t-64.5 93.5t-24 133.5q0 112 33 189t97 117.5t141 57t182 16.5 q252 0 379 -54q23 -10 28.5 -18t5.5 -30v-293q0 -21 -6.5 -25t-25.5 -4h-119q-9 0 -14 1t-7.5 4t-3 6t-1.5 11l-24 197q-74 23 -211 23q-230 0 -230 -155q0 -45 24 -77.5t64.5 -51.5t93.5 -33t111 -27.5t116 -30t111 -45.5t93.5 -69t64.5 -105t24 -149q0 -101 -28.5 -176.5 t-73.5 -120t-111.5 -71.5t-132 -36.5t-146.5 -9.5q-116 0 -249 16t-179 38q-34 14 -34 54zM475 -361l17 272q1 6 1 7t1 5t2 5t3.5 2.5t6 2t8.5 0.5h139q7 0 10.5 -3t4 -5.5t2.5 -10.5l19 -273q0 -14 -1.5 -18.5t-9.5 -4.5h-192q-11 0 -11 21zM486 1674q-3 18 11 18h190 q8 0 10 -3.5t1 -16.5l-17 -274q-3 -17 -7 -19q-4 -1 -9 -1h-142q-12 0 -15 4t-4 16q-1 3 -1 4z" />
<glyph unicode="%" horiz-adv-x="2129" d="M73 931q0 80 24 148.5t72.5 124.5t132.5 88t195 32q110 0 193.5 -32t133 -88t74 -124.5t24.5 -148.5t-24.5 -149.5t-74 -126t-133 -89t-193.5 -32.5q-111 0 -195 32.5t-132.5 89t-72.5 125.5t-24 150zM298 931q0 -118 53 -184t146 -66t146 66t53 184q0 117 -50 181.5 t-149 64.5q-95 0 -147 -64.5t-52 -181.5zM525 43l860 1240q16 26 30.5 34.5t38.5 8.5h164q26 0 31 -9.5t-16 -44.5l-858 -1244q-22 -31 -39.5 -39.5t-54.5 -8.5h-124q-29 0 -40.5 3.5t-10.5 17t19 42.5zM1208 378q0 80 24 148.5t73 124.5t133 88t195 32q110 0 193.5 -32 t132.5 -88t73.5 -124.5t24.5 -148.5t-24.5 -149.5t-73.5 -126t-132.5 -89t-193.5 -32.5q-111 0 -195 32.5t-133 89t-73 125.5t-24 150zM1434 378q0 -118 53 -184t146 -66t146 66t53 184q0 117 -50 181.5t-149 64.5q-95 0 -147 -64.5t-52 -181.5z" />
<glyph unicode="&#x26;" horiz-adv-x="1413" d="M110 343q0 81 21.5 143.5t57 98.5t70 55.5t71.5 29.5q-61 15 -101 63t-55.5 108t-15.5 133q0 81 19 142.5t51 100t80.5 62.5t102 33.5t120.5 9.5q83 0 160 -15.5t115 -33.5q17 -6 20.5 -16.5t3.5 -38.5v-282v-3q0 -14 -2 -16.5t-14 -2.5h-114q-9 0 -12.5 3.5t-6.5 15.5 l-33 197q-43 15 -99 15q-41 0 -69.5 -7t-55 -26.5t-40 -61t-13.5 -104.5q0 -113 54 -157t152 -44h300l99 262q8 26 29 26h62q13 0 17.5 -6.5t4.5 -21.5v-260h203q22 0 22 -26v-108q0 -15 -4.5 -20.5t-17.5 -5.5h-203v-283q0 -94 20 -129t64 -35q37 0 53.5 22t19.5 65 q2 15 6.5 20.5t15.5 5.5h43q22 0 22 -29q0 -119 -57.5 -180t-165.5 -61q-117 0 -175 67q-64 -25 -174 -46t-232 -21q-74 0 -131.5 8.5t-113.5 32.5t-92.5 63t-59 104.5t-22.5 153.5zM357 376q0 -116 54 -161.5t172 -45.5q129 0 286 53q-1 9 -1 59v304h-291q-220 0 -220 -209 z" />
<glyph unicode="'" horiz-adv-x="467" d="M123 866v421q0 10 2.5 13t12.5 3h188q7 0 10.5 -0.5t5.5 -4t2 -6v-11.5v-417q0 -19 -16 -19h-185q-14 0 -17 3.5t-3 17.5z" />
<glyph unicode="(" horiz-adv-x="605" d="M80 557q0 209 90 421.5t253 369.5q2 1 5 4t4.5 4t4 2t5.5 0.5t7 -3.5l91 -72q3 -2 5 -4t2.5 -4.5t0.5 -4t-2 -4.5t-2.5 -4.5t-3.5 -5.5t-4 -5q-104 -135 -158 -327.5t-54 -376.5q0 -201 50 -391t164 -322q15 -15 4 -26l-88 -78q-8 -8 -24 9q-167 162 -258.5 382 t-91.5 436z" />
<glyph unicode=")" horiz-adv-x="605" d="M63 -192q-12 12 2 26q114 132 165 322.5t51 390.5q0 184 -54 376.5t-158 327.5q-1 2 -3.5 5.5t-3.5 5l-3 4.5t-2 5v4t1.5 4t4.5 4l93 72q10 8 25 -7q163 -157 253.5 -369.5t90.5 -421.5q0 -215 -92 -435t-260 -383q-14 -17 -24 -9z" />
<glyph unicode="*" horiz-adv-x="873" d="M93 1026l50 136q5 9 17 5l212 -89l-52 210q-4 8 -2.5 11.5t10.5 3.5h214q10 0 11.5 -4t-2.5 -12l-52 -209l208 87q10 4 15 -5l60 -134q5 -5 2.5 -8t-3.5 -3t-8 -2l-239 -24l170 -144q1 -1 3.5 -3t3.5 -3t2 -3t0.5 -3.5t-2 -3.5t-4.5 -4l-160 -97q-9 -7 -15 7l-96 196 l-97 -192q-3 -6 -5 -8t-5 -1.5t-9 4.5l-154 89q-8 7 3 17l164 149l-227 24q-9 1 -11.5 1.5t-4.5 3.5t3 8z" />
<glyph unicode="+" horiz-adv-x="1076" d="M84 400v159h378v363h156v-363h372v-159h-372v-363h-156v363h-378z" />
<glyph unicode="," horiz-adv-x="467" d="M41 -179l93 371q5 27 15 35t39 8h149q29 0 35 -11.5t-7 -42.5l-134 -362q-6 -19 -13.5 -24t-23.5 -5h-133q-25 0 -20 31z" />
<glyph unicode="-" horiz-adv-x="865" d="M119 473v113q0 27 22 27h585q21 0 21 -28v-101q0 -17 -5 -24.5t-20 -7.5h-584q-19 0 -19 21z" />
<glyph unicode="." horiz-adv-x="458" d="M101 119q0 54 37 91.5t91 37.5q52 0 90 -38t38 -91q0 -59 -37 -94.5t-91 -35.5q-56 0 -92 35t-36 95z" />
<glyph unicode="/" horiz-adv-x="951" d="M52 -101l603 1464q9 20 23 20h199q30 0 19 -24l-600 -1460q-3 -7 -6 -11t-9 -5.5t-9 -1.5h-13h-198q-19 0 -9 18z" />
<glyph unicode="0" horiz-adv-x="1249" d="M99 652q0 147 32.5 267.5t96 211.5t165 141t233.5 50q106 0 192.5 -33t148 -92t103.5 -143t62 -184.5t20 -217.5t-20 -218.5t-62 -185t-103.5 -143t-148 -92t-192.5 -32.5q-132 0 -233.5 50t-165 140.5t-96 212t-32.5 268.5zM350 655q0 -232 72.5 -365.5t203.5 -133.5 q130 0 202.5 134t72.5 365q0 229 -72.5 360.5t-202.5 131.5q-131 0 -203.5 -131t-72.5 -361z" />
<glyph unicode="1" horiz-adv-x="806" d="M88 22v86q0 11 0.5 14.5t4.5 7t13 4.5q116 9 160.5 22.5t48.5 48.5v856q0 29 -39 8l-148 -80q-33 -15 -33 18v110q0 23 24 34l231 132q44 22 102 22h62q18 0 25 -5.5t7 -20.5v-1069q3 -42 39 -54.5t147 -17.5q18 -1 22 -7.5t4 -24.5v-80q0 -16 -4 -21t-20 -5h-624 q-15 0 -18.5 4t-3.5 18z" />
<glyph unicode="2" horiz-adv-x="1128" d="M93 19v145q0 17 11 31q141 85 247.5 166.5t195.5 176.5t136 201.5t47 219.5q0 46 -12.5 80t-32 52.5t-48.5 29.5t-55 14t-59 3q-105 0 -197 -30l-37 -233q-3 -13 -6.5 -16t-16.5 -3h-121q-14 0 -17 4t-3 19v331q0 26 5.5 35.5t24.5 14.5q192 62 381 62q75 0 132 -6.5 t117.5 -27.5t99.5 -57.5t64 -101t25 -152.5q0 -216 -150 -416t-420 -367h400q18 0 27 15t14 50l11 117q5 24 12 27q6 3 16 3h99q20 0 25 -7.5t5 -37.5v-341q0 -14 -3.5 -17t-17.5 -3h-878q-21 0 -21 19z" />
<glyph unicode="3" horiz-adv-x="1087" d="M91 61v140q0 30 28 24q7 -1 47 -10.5t74 -16t94 -13t120 -6.5q143 0 216 50.5t73 161.5q0 108 -58 150t-167 42h-107q-20 0 -20 28v134q0 13 11 26l292 348h-348q-18 0 -25 -13t-14 -62l-9 -122q-1 -11 -2.5 -15.5t-6.5 -7.5t-15 -3h-99q-22 0 -28 4.5t-6 26.5v345 q0 20 6.5 25.5t25.5 5.5h763q14 0 17.5 -5.5t3.5 -22.5v-110q0 -11 -0.5 -16.5t-3 -11.5t-4 -8t-9 -11t-11.5 -14l-303 -348h29q177 0 254.5 -88.5t77.5 -263.5q0 -97 -28.5 -172.5t-74.5 -121.5t-111 -76t-131 -41.5t-141 -11.5q-244 0 -389 47q-21 8 -21 33z" />
<glyph unicode="4" horiz-adv-x="1156" d="M50 337l172 933q5 22 10.5 27.5t28.5 5.5h152q18 0 23.5 -6t4.5 -24l-143 -770h318v681q0 23 4.5 28.5t23.5 5.5h164q16 0 21 -5.5t5 -19.5v-690h205q12 0 16 -5.5t4 -20.5v-146q0 -12 -3 -14t-15 -2h-207v-73q0 -26 0.5 -38t7 -25.5t14 -18t29 -10.5t44 -8l67.5 -6 q17 -1 20.5 -6.5t3.5 -21.5v-88q0 -9 -1 -12.5t-5 -5.5t-14 -2h-615q-14 0 -18 3.5t-4 15.5v91q0 12 3 16.5t14 5.5q62 8 95.5 12.5t64 11.5t42.5 12t21.5 15.5t11 20.5t1.5 29v82h-545q-14 0 -17.5 4t-3.5 18z" />
<glyph unicode="5" horiz-adv-x="1074" d="M86 69v130q0 33 29 24q8 -2 45.5 -12t72.5 -19t91.5 -16.5t111.5 -7.5q64 0 111 9.5t89 34t64 72.5t22 118q0 72 -23 119.5t-70.5 72t-105 34t-141.5 9.5h-220q-24 0 -21 28l68 610q1 13 2.5 17.5t5.5 7.5t12 3h667q20 0 25.5 -5t5.5 -26v-309q0 -33 -5 -40t-26 -7h-99 q-14 0 -18 6.5t-6 23.5l-8 100q-6 48 -14 60.5t-27 12.5h-327l-40 -307h58q145 0 241 -16.5t170 -61t108 -126t34 -206.5q0 -104 -31.5 -182.5t-79.5 -123t-116 -71.5t-128 -35.5t-129 -8.5q-235 0 -374 54q-14 5 -19 12.5t-5 21.5z" />
<glyph unicode="6" horiz-adv-x="1137" d="M97 510q0 171 48.5 316t144.5 257t252.5 175.5t358.5 63.5h17q19 0 26 -7.5t7 -26.5v-108q0 -22 -7 -30.5t-26 -8.5h-17q-455 0 -542 -458q55 70 130 108.5t161 38.5q109 0 190.5 -33t128 -91t68.5 -129t22 -156q0 -205 -123 -322.5t-357 -117.5q-247 0 -364.5 133.5 t-117.5 395.5zM341 456q0 -305 238 -305q110 0 175 65.5t65 189.5q0 118 -57 186.5t-176 68.5q-94 0 -156 -53.5t-89 -151.5z" />
<glyph unicode="7" horiz-adv-x="1003" d="M88 907v376q0 14 4 17t18 3h838q11 0 15.5 -3.5t5.5 -8t1 -16.5v-136q0 -18 -13 -46l-555 -1054q-14 -26 -25 -32.5t-40 -6.5h-166q-20 0 -24.5 7t6.5 27l569 1074h-454l-24 -203q0 -1 -1 -4q-4 -21 -14 -24l-13 -2h-104q-14 0 -19 7.5t-5 24.5z" />
<glyph unicode="8" horiz-adv-x="1154" d="M89 384q0 121 65.5 219.5t201.5 143.5q-87 39 -128.5 107.5t-41.5 152.5q0 61 22.5 115.5t68 100t123.5 72.5t179 27q100 0 177 -27t122 -72.5t67.5 -100.5t22.5 -115q0 -84 -42 -153t-127 -106q137 -45 200.5 -142t63.5 -222q0 -77 -26 -145.5t-81 -127.5t-153 -93.5 t-228 -34.5q-106 0 -191 23t-139 61.5t-90 91.5t-51 108.5t-15 116.5zM324 393q0 -104 61.5 -170.5t189.5 -66.5t191 67t63 170q0 104 -63 174t-189 70q-128 0 -190.5 -69.5t-62.5 -174.5zM391 992q0 -79 45 -126t141 -47q94 0 140 48t46 127q0 76 -45.5 124.5t-138.5 48.5 q-97 0 -142.5 -49t-45.5 -126z" />
<glyph unicode="9" horiz-adv-x="1120" d="M80 886q0 201 122.5 318.5t350.5 117.5q473 0 473 -525q0 -176 -48.5 -322.5t-145 -257.5t-252.5 -173.5t-358 -62.5h-19q-34 0 -34 34v108q0 39 36 39h17q214 0 351.5 107t186.5 314q-110 -110 -274 -110q-110 0 -191.5 34.5t-126.5 94.5t-66.5 130.5t-21.5 153.5z M320 886q0 -113 55.5 -178.5t171.5 -65.5q91 0 148.5 41.5t90.5 126.5v13q0 329 -235 329q-108 0 -169.5 -67.5t-61.5 -198.5z" />
<glyph unicode=":" horiz-adv-x="480" d="M110 112q0 54 37 91t91 37q52 0 90.5 -37.5t38.5 -90.5q0 -59 -37.5 -95t-91.5 -36q-56 0 -92 35.5t-36 95.5zM110 717q0 54 37 91t91 37q52 0 90.5 -37.5t38.5 -90.5q0 -59 -37.5 -95t-91.5 -36q-56 0 -92 35.5t-36 95.5z" />
<glyph unicode=";" horiz-adv-x="552" d="M61 -179l94 371q5 27 15 35t39 8h148q29 0 35 -11.5t-7 -42.5l-134 -362q-6 -19 -13.5 -24t-23.5 -5h-132q-26 0 -21 31zM171 756q0 54 37.5 91t91.5 37q52 0 90 -37.5t38 -90.5q0 -59 -37 -94.5t-91 -35.5q-56 0 -92.5 35t-36.5 95z" />
<glyph unicode="&#x3c;" horiz-adv-x="1025" d="M74 400v153l842 370v-180l-564 -266l564 -267v-180z" />
<glyph unicode="=" horiz-adv-x="1035" d="M125 203v158h785v-158h-785zM127 518v156h783v-156h-783z" />
<glyph unicode="&#x3e;" horiz-adv-x="1024" d="M110 30v171l562 276l-562 275v170l840 -371v-151z" />
<glyph unicode="?" horiz-adv-x="936" d="M80 925v293q0 22 5.5 30t26.5 18q39 20 132 37t231 17q94 0 161.5 -15.5t122.5 -54t82.5 -110.5t27.5 -179q0 -80 -18 -135.5t-47 -84t-64.5 -49t-70.5 -39t-64 -43.5t-47 -73.5t-18 -119.5v-102q0 -25 -22 -25l-185 -1q-18 0 -18 26v132q0 82 14 142.5t37.5 94t53 59 t60 37.5t60 29t53 35t37.5 53.5t14 85.5q0 155 -180 155q-126 0 -187 -23l-20 -197q-2 -14 -6 -18t-20 -4h-119q-13 0 -18 1t-9.5 7.5t-4.5 20.5zM305 119q0 54 35.5 91.5t89.5 37.5q51 0 88 -38t37 -91q0 -59 -36.5 -94.5t-88.5 -35.5q-56 0 -90.5 35t-34.5 95z" />
<glyph unicode="@" horiz-adv-x="1591" d="M97 586q0 136 42 251.5t115 197t170.5 139.5t209 86t230.5 28q288 0 468 -155.5t180 -395.5q0 -100 -23 -183.5t-68.5 -149.5t-121.5 -103t-176 -37q-69 0 -119.5 25.5t-68.5 69.5q-40 -43 -101 -69.5t-127 -26.5q-115 0 -190.5 79t-75.5 217q0 78 26.5 152t77.5 137 t135 101t188 38q76 0 133.5 -22t89.5 -60t47.5 -83t15.5 -98q0 -32 -9 -73t-17.5 -66t-24 -65t-16.5 -43q-11 -33 5.5 -54t52.5 -21q83 0 136.5 97t53.5 229q0 192 -135 311t-342 119q-90 0 -174.5 -22t-159.5 -69t-131 -113t-88.5 -160.5t-32.5 -205.5q0 -131 43 -233.5 t120 -168.5t181.5 -100t230.5 -34q133 0 235 21t205 74q18 10 26 -7l37 -80q8 -18 -15 -30q-194 -110 -488 -110q-160 0 -296 43.5t-237.5 126t-159 210t-57.5 286.5zM611 564q0 -80 35 -124.5t102 -44.5q56 0 104 35.5t76 87t43.5 102.5t15.5 89q0 149 -136 149 q-105 0 -172.5 -90t-67.5 -204z" />
<glyph unicode="A" d="M26 22v86q0 26 19 26q92 11 118.5 25t26.5 53v97q0 228 29.5 411t89 319.5t155.5 210.5t223 74q268 0 403 -260.5t135 -754.5v-104q2 -39 24.5 -51.5t98.5 -15.5q18 -1 22 -7.5t4 -24.5v-80q0 -16 -4 -21t-18 -5h-518q-14 0 -17 3.5t-3 18.5v86v3q0 19 8 21q3 1 8 2 q91 10 118.5 25t27.5 53v97q0 52 -2 78h-596v-177q1 -43 23.5 -55t101.5 -17q18 -1 22 -7.5t4 -24.5v-80q0 -16 -3.5 -21t-20.5 -5h-457q-16 0 -19 3t-3 19zM389 572h574q-24 264 -98 414t-187 150t-188 -150t-101 -414z" />
<glyph unicode="B" horiz-adv-x="1277" d="M86 22v86q0 21 6 24q3 1 10 2q93 10 119.5 24.5t26.5 53.5v886q0 35 -27 48t-115 21q-14 3 -17 7.5t-3 17.5v89q0 14 4 18t18 4h508q462 0 462 -327q0 -212 -151 -272q145 -22 206.5 -104t61.5 -231q0 -102 -38 -174t-112 -114.5t-173.5 -61.5t-232.5 -19h-531 q-14 0 -18 4t-4 18zM478 162h194q86 0 143.5 14t87 42.5t41 63t11.5 83.5q0 48 -9.5 82.5t-35 66t-76.5 47.5t-127 16h-229v-415zM478 747h175q107 0 154.5 55t47.5 146q0 94 -50 143.5t-168 49.5h-159v-394z" />
<glyph unicode="C" horiz-adv-x="1264" d="M95 644q0 338 164.5 508t477.5 170q113 0 222.5 -13t165.5 -30q20 -8 25.5 -18.5t5.5 -37.5v-344q0 -15 -4 -19t-18 -4h-132q-14 0 -18.5 4t-6.5 15l-35 251q-76 19 -199 19q-185 0 -297.5 -124.5t-112.5 -380.5q0 -131 36 -225t100.5 -145.5t141.5 -74t173 -22.5 q132 0 378 41q30 6 30 -24v-112q0 -20 -7.5 -30.5t-30.5 -15.5q-179 -49 -411 -49q-325 0 -486.5 161.5t-161.5 499.5z" />
<glyph unicode="D" horiz-adv-x="1457" d="M86 22v86q0 21 6 24q3 1 10 2q86 8 114.5 21.5t31.5 45.5v897q0 35 -27 48t-115 21q-14 3 -17 7.5t-3 17.5v89q0 14 4 18t18 4h532q197 0 337.5 -44t224 -131t121.5 -204t38 -274q0 -165 -38.5 -284.5t-122.5 -202t-220 -123t-328 -40.5h-544q-14 0 -18 4t-4 18zM490 169 h154q466 0 466 477q0 240 -114.5 363t-355.5 123h-150v-963z" />
<glyph unicode="E" horiz-adv-x="1130" d="M89 341q0 70 18 124.5t44.5 88.5t66.5 58.5t74 36.5t77 21q-222 45 -222 315q0 79 23 139t62 97.5t98 60.5t122.5 31.5t143.5 8.5q222 0 378 -50q16 -5 22 -12t7 -13.5t1 -28.5v-282q0 -16 -3 -19t-18 -3h-110q-11 0 -15 3t-7 16l-36 193q-87 19 -202 19q-54 0 -93 -6.5 t-75 -24.5t-55 -55t-19 -93q0 -116 68.5 -159.5t204.5 -43.5h119q25 0 25 -28v-121q0 -28 -25 -28h-119q-144 0 -222.5 -49t-78.5 -165q0 -111 78 -157t242 -46q81 0 167.5 10t147 21t70.5 12q13 1 17 -3.5t4 -18.5v-140q0 -14 -5.5 -19.5t-22.5 -8.5q-212 -41 -460 -41 q-82 0 -149 8.5t-133 32.5t-110.5 63t-72 104t-27.5 152z" />
<glyph unicode="F" horiz-adv-x="1124" d="M86 22v86q0 11 0.5 14.5t4.5 7t13 4.5q94 10 119.5 25.5t25.5 62.5v867q0 40 -27 55t-118 23q-7 2 -11 3t-5.5 5.5t-1.5 6.5v11v88q0 14 4 18t18 4h931q11 0 15 -1t6.5 -5t2.5 -14v-369q0 -28 -24 -28h-106q-15 0 -19.5 5.5t-6.5 20.5l-13 168q-4 45 -11 54t-30 9h-375 v-413h321q15 0 21.5 -4.5t6.5 -18.5v-128q0 -18 -6 -25t-22 -7h-321v-318q0 -56 31 -71t158 -20q14 0 19.5 -4t6.5 -9t1 -19v-80q0 -16 -3.5 -21t-20.5 -5h-562q-15 0 -18.5 4t-3.5 18z" />
<glyph unicode="G" horiz-adv-x="1403" d="M91 633q0 335 178.5 512t503.5 177q244 0 461 -75q22 -8 28 -20.5t6 -42.5v-326q0 -14 -3.5 -17t-18.5 -3h-131q-13 0 -17 3t-5 14l-37 245q-113 41 -268 41q-208 0 -322 -123t-114 -381q0 -475 450 -475q150 0 246 35v272h-221q-28 0 -28 28v127q0 28 28 28h415 q28 0 28 -28v-516q0 -22 -7 -33t-29 -19q-206 -75 -443 -75q-346 0 -523 164t-177 488z" />
<glyph unicode="H" horiz-adv-x="1478" d="M80 22v86q0 10 0.5 14t5 7.5t13.5 4.5q87 8 114.5 22t30.5 53v865q0 57 -19.5 72t-103.5 19q-20 1 -24 7t-4 25v80q0 16 4 21t20 5h499q14 0 17.5 -4t3.5 -18v-88q0 -10 -1 -14t-5 -7t-13 -5q-87 -8 -114.5 -21.5t-30.5 -50.5v-464h508v464q-3 42 -24.5 53.5t-98.5 16.5 q-20 1 -24 7t-4 25v80q0 16 4 21t19 5h499q15 0 18.5 -4t3.5 -18v-88q0 -10 -1 -14t-5 -7t-13 -5q-87 -8 -114.5 -21.5t-30.5 -50.5v-849q0 -97 69 -97q71 0 71 69v7q0 15 13 15h71q14 0 14 -13v-7q0 -229 -225 -229q-242 0 -242 262v205h-508v-229q0 -56 20 -71.5 t105 -19.5q18 -1 22 -7.5t4 -24.5v-80q0 -16 -4 -21t-20 -5h-498q-15 0 -18.5 4t-3.5 18z" />
<glyph unicode="I" horiz-adv-x="722" d="M82 22v86q0 10 0.5 14t5 7.5t13.5 4.5q94 10 119.5 25.5t25.5 62.5v29h2v823q0 57 -19.5 72t-103.5 19q-20 1 -24 7t-4 25v80q0 16 4 21t20 5h499q14 0 17 -3.5t3 -18.5v-88q0 -11 -0.5 -14t-4.5 -6.5t-13 -5.5q-87 -8 -114.5 -21.5t-30.5 -50.5v-866q0 -57 19 -72 t104 -19q14 -1 19.5 -5t6.5 -8.5t1 -18.5v-80q0 -16 -4 -21t-20 -5h-499q-15 0 -18.5 4t-3.5 18z" />
<glyph unicode="J" horiz-adv-x="698" d="M17 -235q-5 15 -0.5 24t22.5 19l76 51q56 31 78.5 53t33.5 65t11 131v966q0 57 -19.5 72t-103.5 19q-20 1 -23.5 6.5t-3.5 25.5v80q0 16 4 21t20 5h497q15 0 18.5 -4t3.5 -18v-88q0 -11 -0.5 -14t-4.5 -6.5t-13 -5.5q-88 -8 -115.5 -21.5t-30.5 -50.5v-1061 q0 -65 -7 -101t-35.5 -73t-80 -66.5t-145.5 -69.5l-113 -50q-15 -5 -23 -2t-13 17z" />
<glyph unicode="K" horiz-adv-x="1346" d="M80 22v86q0 10 0.5 14t5 7.5t13.5 4.5q94 10 119.5 25.5t25.5 62.5v852q0 57 -19.5 72t-103.5 19q-20 1 -24 7t-4 25v80q0 16 4 21t20 5h499q14 0 17.5 -4t3.5 -18v-88q0 -10 -1 -14t-5 -7t-13 -5q-87 -8 -114.5 -21.5t-30.5 -50.5v-419l398 454q7 17 -11 24.5t-69 10.5 q-21 1 -25.5 7t-4.5 25v80q0 16 4.5 21t22.5 5h467q16 0 20 -3.5t4 -18.5v-88q0 -10 -1 -14t-5 -7t-14 -5q-54 -4 -82 -12.5t-38 -17t-35 -35.5l-39 -43h-2l-348 -396l333 -412q47 -63 81.5 -87t76.5 -24q30 0 73 9q15 6 23.5 4t8.5 -15l2 -99q0 -18 -6 -25t-26 -14 q-60 -19 -145 -19q-39 0 -68.5 4t-57 17.5t-45.5 25.5t-43.5 41.5t-42.5 51.5t-50 69l-356 458v-419q0 -56 20 -71.5t105 -19.5q18 -1 22 -7.5t4 -24.5v-80q0 -16 -4 -21t-20 -5h-498q-15 0 -18.5 4t-3.5 18z" />
<glyph unicode="L" horiz-adv-x="1154" d="M80 22v86q0 11 1 15t5 7t13 4q92 10 118.5 24.5t26.5 53.5v862q0 57 -19.5 72t-103.5 19q-20 1 -24 7t-4 25v80q0 16 4 21t20 5h499q14 0 17.5 -4t3.5 -18v-88q0 -10 -1 -14t-5 -7t-13 -5q-94 -8 -119.5 -23t-25.5 -62v-898l419 -2q20 0 28 14t15 52l11 119q3 19 8 24.5 t23 5.5h101q14 0 18 -7.5t4 -28.5v-341q0 -14 -4 -17t-18 -3h-976q-14 0 -18 4t-4 18z" />
<glyph unicode="M" horiz-adv-x="1923" d="M88 1193v88q0 14 4 18t18 4h441q21 0 33 -2.5t19.5 -15.5t9 -18.5t7.5 -33.5q35 -162 144.5 -474.5t201.5 -531.5h6q99 247 189 519t139 487q1 5 4.5 21t4.5 19t5.5 12t10.5 11t16.5 4.5t25.5 2.5h424q18 0 22 -3.5t4 -18.5v-88q0 -13 -4 -18t-18 -8q-87 -8 -112.5 -22.5 t-25.5 -55.5v-843q0 -97 69 -97t69 69v7q0 15 15 15h69q14 0 14 -13v-7q0 -118 -56 -173.5t-167 -55.5q-244 0 -244 262v723q-54 -232 -165 -526t-189 -430q-9 -20 -42 -20h-172q-28 0 -41 20q-86 147 -200.5 429.5t-182.5 531.5v-758q0 -52 19.5 -66.5t95.5 -18.5 q21 -1 26.5 -7.5t5.5 -24.5v-80q0 -16 -5.5 -21t-22.5 -5h-432q-17 0 -20.5 3.5t-3.5 18.5v86q0 15 5.5 19.5t20.5 6.5q80 8 101.5 23.5t21.5 65.5v866q0 41 -25.5 55.5t-112.5 22.5q-14 3 -17 7.5t-3 18.5z" />
<glyph unicode="N" horiz-adv-x="1500" d="M84 1193v88q0 14 4 18t18 4h298q22 0 34.5 -8t25.5 -25l620 -920v739q0 40 -27.5 55t-118.5 23q-12 3 -14 7t-2 19v88q0 15 3 18.5t17 3.5h460q14 0 18 -5t4 -21v-80q0 -14 -1 -19t-6.5 -8.5t-18.5 -4.5q-80 -4 -101.5 -18t-21.5 -60v-1044q0 -13 -1 -20.5t-8 -15 t-20 -7.5h-140q-38 0 -58 24l-612 899v-698q0 -52 20 -67.5t103 -19.5q14 -1 19.5 -5t6.5 -8.5t1 -18.5v-80q0 -16 -4 -21t-20 -5h-447q-16 0 -19 3.5t-3 18.5v86q0 14 4.5 19.5t19.5 6.5q84 8 106.5 23.5t22.5 65.5v879q0 33 -29.5 45.5t-115.5 19.5q-12 3 -14.5 7.5 t-2.5 18.5z" />
<glyph unicode="O" horiz-adv-x="1496" d="M89 652q0 117 25.5 218t78 184.5t130 142.5t185.5 92t240 33q164 0 291 -50t207 -140.5t121 -212t41 -267.5q0 -147 -41 -268.5t-121 -212t-207 -140.5t-291 -50t-291 50t-207 140.5t-120.5 212t-40.5 268.5zM339 655q0 -225 108 -356t301 -131t300.5 130.5t107.5 356.5 q0 223 -107.5 351t-300.5 128t-301 -128t-108 -351z" />
<glyph unicode="P" horiz-adv-x="1161" d="M84 1193v88q0 14 4.5 18t19.5 4h467q126 0 219.5 -22.5t150.5 -60t91 -94t46.5 -116t12.5 -135.5q0 -103 -26 -185.5t-81 -146.5t-148.5 -98.5t-221.5 -34.5q-81 0 -140 11v-192q0 -56 20 -71.5t105 -19.5q18 -1 22 -7.5t4 -24.5v-80q0 -16 -4 -21t-20 -5h-497 q-15 0 -18.5 4t-3.5 18v86q0 11 0.5 14.5t4.5 7t13 4.5q94 10 119.5 25.5t25.5 62.5v780h-1v87q0 40 -27 55t-119 23q-7 2 -11 3t-5.5 5.5t-1.5 6.5v11zM478 600q26 -14 125 -14q120 0 186 72t66 208q0 130 -59 203.5t-185 73.5h-133v-543z" />
<glyph unicode="Q" horiz-adv-x="1498" d="M89 652q0 117 25.5 218t78 184.5t130 142.5t185.5 92t240 33q164 0 291 -50t207 -140.5t121 -212t41 -267.5q0 -210 -82 -366.5t-242 -235.5l29 -59q27 -63 66.5 -87.5t103.5 -24.5q13 0 72 7h2q5 0 7 -0.5t4 -4.5t2 -13l2 -95q0 -15 -7.5 -22t-27.5 -12 q-54 -15 -138 -15q-241 0 -315 231l-11 36q-65 -10 -125 -10q-164 0 -291 50t-207 140.5t-120.5 212t-40.5 268.5zM339 655q0 -147 47.5 -256.5t136.5 -169.5q-4 34 -4 50q0 69 47.5 114t133.5 45q99 0 165.5 -47.5t124.5 -148.5q80 62 123 167.5t43 245.5q0 223 -107.5 351 t-300.5 128t-301 -128t-108 -351zM618 268q0 -59 60 -97q16 -3 70 -3q34 0 67 3v2q-24 73 -46.5 110t-40 45.5t-45.5 8.5q-29 0 -47 -19.5t-18 -49.5z" />
<glyph unicode="R" horiz-adv-x="1262" d="M86 22v86q0 11 0.5 14.5t4.5 7t13 4.5q87 8 114.5 22t30.5 53v793h-1v87q0 40 -27 55t-119 23q-12 3 -14 7t-2 19v88q0 14 4 18t18 4h501q143 0 243.5 -32t156.5 -94t80 -138.5t24 -178.5q0 -299 -230 -396l102 -211q31 -65 59.5 -89t76.5 -24q32 0 56 11q26 9 31 -15 l11 -89q4 -22 -1 -30t-28 -15q-73 -21 -155 -21q-38 0 -69 6t-53.5 14t-43.5 27t-33 32t-28.5 43.5t-24.5 47.5t-25 56l-97 214h-24q-70 0 -159 13v-225q2 -42 24.5 -55t100.5 -16q20 -1 24 -7.5t4 -24.5v-80q0 -15 -5 -20.5t-21 -5.5h-497q-15 0 -18.5 4t-3.5 18zM478 614 q58 -14 144 -14q122 0 186.5 66t64.5 194q0 142 -68 211.5t-187 69.5h-140v-527z" />
<glyph unicode="S" horiz-adv-x="1146" d="M102 89v302q0 18 6.5 24t27.5 6h117q16 0 21.5 -4.5t8.5 -19.5l22 -200q92 -24 248 -24q36 0 68.5 3t73 14.5t69 30.5t48.5 54t20 82q0 52 -24 90t-64.5 61t-93.5 40t-111 31t-116 30t-111 42t-93.5 62t-64.5 93.5t-24 133.5q0 112 33 189t97 117.5t141 57t182 16.5 q138 0 235.5 -17t144.5 -37q22 -10 27.5 -17.5t5.5 -30.5v-293q0 -21 -6.5 -25t-25.5 -4h-119q-9 0 -14 1t-7.5 4t-3 6t-1.5 11l-24 197q-74 23 -210 23q-231 0 -231 -155q0 -45 24 -77.5t64.5 -51.5t93.5 -33t111 -27.5t116 -30t111 -45.5t93.5 -69t64.5 -105t24 -149 q0 -101 -28.5 -176.5t-73.5 -120t-111.5 -71.5t-132 -36.5t-146.5 -9.5q-116 0 -249 16t-179 38q-34 14 -34 54z" />
<glyph unicode="T" horiz-adv-x="1165" d="M65 946v337q0 14 4.5 17t19.5 3h987q11 0 15 -1t6.5 -5t2.5 -14v-337q0 -26 -22 -26h-106q-10 0 -15 1t-8 4.5t-3.5 6t-1.5 10.5l-13 138q-5 24 -13.5 34.5t-27.5 10.5h-192v-874h2v-22q0 -31 2.5 -45t15.5 -25.5t35 -15t68 -5.5q20 -1 24 -7.5t4 -24.5v-80q0 -16 -4 -21 t-20 -5h-497q-15 0 -19 4t-4 18v86q0 10 0.5 14t5 7.5t13.5 4.5q94 10 119.5 25.5t25.5 62.5v903h-193q-34 0 -43 -45l-11 -138q-2 -13 -6.5 -17.5t-21.5 -4.5h-106q-23 0 -23 26z" />
<glyph unicode="U" horiz-adv-x="1450" d="M61 1197v80q0 16 4.5 21t20.5 5h515q15 0 19 -4t4 -18v-88q0 -10 -1 -14t-5 -7t-13 -5q-84 -8 -113 -21.5t-32 -45.5v-616q0 -150 77.5 -233t222.5 -83q142 0 220 83t78 233v592q0 55 -20 70t-103 19q-20 1 -24 7t-4 25v80q0 16 4 21t20 5h447q16 0 19 -3.5t3 -18.5v-88 q0 -24 -19 -24q-90 -11 -117.5 -26t-27.5 -54v-605q0 -112 -30 -202.5t-89.5 -158.5t-156.5 -105t-225 -37q-260 0 -391.5 127.5t-131.5 375.5v592q0 55 -20 70t-103 19q-20 1 -24 7t-4 25z" />
<glyph unicode="V" horiz-adv-x="1362" d="M32 1192v91q0 13 3.5 16.5t16.5 3.5h484q12 0 15.5 -4.5t3.5 -17.5v-88q0 -15 -4.5 -21t-18.5 -7q-77 -4 -97 -15t-20 -42q0 -120 22 -235.5t66.5 -227t82 -189.5t97.5 -190q13 -23 19 -35q120 230 158 318q127 291 127 559q0 31 -20 42t-98 15q-14 1 -18 7t-4 21v88 q0 13 3.5 17.5t15.5 4.5h443q14 0 17 -3.5t3 -16.5v-91q0 -18 -6 -21q-3 -2 -10 -4q-88 -8 -113 -17.5t-25 -34.5q0 -132 -26 -267.5t-63 -242.5t-95 -224t-104 -194t-107 -170q-14 -21 -41 -21h-117q-25 0 -39 21q-61 93 -107 170t-104 194t-95 224t-63 242.5t-26 267.5 q0 21 -28 32.5t-110 19.5q-9 2 -13 5t-4.5 6t-0.5 14z" />
<glyph unicode="W" horiz-adv-x="2062" d="M32 1190v91q0 15 3 18.5t17 3.5h510q11 0 14 -4.5t3 -19.5v-86q0 -12 -1 -16.5t-5.5 -7.5t-15.5 -4q-78 -4 -99.5 -14t-19.5 -36q3 -128 25 -255.5t61 -249t75.5 -213t87.5 -205.5q238 534 255 923q3 27 -22.5 36t-100.5 14q-14 1 -17 6.5t-3 20.5v89q0 13 4 17.5t16 4.5 h466q12 0 15 -3.5t3 -18.5v-89q0 -20 -7 -23q-3 -1 -9 -2q-67 -8 -94 -13.5t-37 -17.5q19 -264 90 -487t186 -455q108 236 176.5 458.5t78.5 462.5q3 28 -19 37t-104 13q-14 1 -18 7t-4 21v86q0 15 3 19.5t17 4.5h447q13 0 16.5 -4t3.5 -18v-89q0 -14 -3 -19t-15 -6 q-88 -8 -112.5 -17.5t-27.5 -36.5q-23 -490 -341 -1096q-11 -21 -35 -21h-182q-27 0 -36 21q-166 313 -251 610q-84 -294 -240 -610q-11 -21 -36 -21h-186q-26 0 -37 21q-318 616 -339 1096q-3 25 -28.5 35.5t-109.5 18.5q-9 1 -13 4t-4.5 6t-0.5 13z" />
<glyph unicode="X" horiz-adv-x="1299" d="M39 22v86q0 20 5 23q3 2 12 3q76 8 103.5 22t58.5 56l305 414l-318 495q-15 26 -38 34t-96 12q-13 3 -16 7.5t-3 18.5v88q0 14 3.5 18t18.5 4h490q16 0 20 -5t4 -21v-80q0 -19 -4 -25t-24 -7q-67 -4 -81.5 -18.5t9.5 -46.5l180 -277l188 253q28 38 28 58q0 15 -19.5 21.5 t-65.5 9.5q-18 1 -22 7t-4 25v80q0 16 4 21t20 5h424q15 0 19 -4t4 -18v-89q0 -10 -1 -13.5t-4.5 -6.5t-13.5 -5q-69 -7 -103.5 -22.5t-60.5 -51.5l-301 -410l286 -439q41 -59 68.5 -81t58.5 -22q13 0 35.5 3t27.5 3q10 3 17.5 1.5t8.5 -12.5l11 -97q2 -19 -2.5 -26.5 t-23.5 -12.5q-63 -19 -158 -19q-55 0 -94 10.5t-69.5 37.5t-50.5 53t-53 77q-10 16 -16 25l-193 302l-192 -261q-28 -35 -28 -54q0 -15 21 -22.5t70 -10.5q20 -1 24 -7.5t4 -24.5v-80q0 -16 -4 -21t-20 -5h-428q-14 0 -17.5 4t-3.5 18z" />
<glyph unicode="Y" horiz-adv-x="1284" d="M30 1192v91q0 13 3.5 16.5t16.5 3.5h484q12 0 15.5 -4.5t3.5 -17.5v-88q0 -15 -4 -21t-18 -7q-72 -5 -95 -11.5t-23 -25.5q0 -61 20 -126t58 -131.5t74 -118t87 -117.5q119 140 188.5 259t69.5 234q0 19 -22 25.5t-93 11.5q-15 1 -19.5 7t-4.5 21v88q0 14 3 18t17 4h443 q14 0 17.5 -3.5t3.5 -16.5v-91q0 -25 -19 -25q-77 -7 -104.5 -17t-31.5 -35q-18 -159 -113.5 -329.5t-226.5 -312.5v-222h1v-22q0 -57 19 -72t103 -19q14 -1 19.5 -5t6.5 -8.5t1 -18.5v-80q0 -16 -4 -21t-18 -5h-499q-15 0 -18.5 4t-3.5 18v86q0 11 0.5 14.5t4.5 7t13 4.5 q94 10 120 25.5t26 62.5v225q-137 149 -237 326t-110 342q-3 20 -32.5 32t-103.5 20q-9 2 -13 5t-4.5 6t-0.5 14z" />
<glyph unicode="Z" horiz-adv-x="1120" d="M91 19v113q0 14 10 32l629 972h-410q-24 0 -30 -12.5t-11 -62.5l-13 -152q0 -12 -5 -17.5t-19 -5.5h-106q-13 0 -17.5 6.5t-4.5 21.5v369q0 14 3 17t17 3h851q11 0 15.5 -3.5t5.5 -8t1 -16.5v-104q0 -26 -15 -46l-618 -957h443q17 0 26 13.5t13 51.5l13 147q2 16 6.5 21 t20.5 5h106q13 0 17.5 -7t4.5 -23v-356q0 -14 -4 -17t-18 -3h-894q-9 0 -13 3.5t-4 15.5z" />
<glyph unicode="[" horiz-adv-x="623" d="M164 -277v1601q0 14 2 17t13 3h350q8 1 10.5 -1.5t2.5 -11.5v-115q0 -8 -2.5 -10.5t-12.5 -2.5h-138v-1352h136q11 0 14 -2.5t3 -12.5v-113q0 -8 -2.5 -10.5t-10.5 -2.5h-356q-9 0 -9 13z" />
<glyph unicode="\" horiz-adv-x="932" d="M50 1322h233l601 -1354h-234z" />
<glyph unicode="]" horiz-adv-x="621" d="M80 -160q0 9 2.5 11t12.5 2h138v1352h-136q-11 0 -14 2t-3 12v114q0 9 2 11t11 2h356q11 0 11 -13v-1601q0 -13 -2.5 -17t-14.5 -4h-350q-8 -1 -10.5 1.5t-2.5 11.5v116z" />
<glyph unicode="^" horiz-adv-x="1221" d="M84 814l527 499l527 -499l-159 -129l-368 363l-371 -363z" />
<glyph unicode="_" horiz-adv-x="1057" d="M114 0h830v-162h-830v162z" />
<glyph unicode="`" horiz-adv-x="636" d="M63 1594q-14 13 -11.5 22t19.5 9h180q21 0 32 -6t26 -27l143 -183q15 -23 12 -32t-23 -9h-91q-31 0 -73 36z" />
<glyph unicode="a" horiz-adv-x="1079" d="M73 210q0 64 20 111t48 72.5t76.5 43t85 23t94.5 11.5l55.5 6t50 7t48 10.5t38 15t32 21t18 29t7.5 38.5q0 62 -36.5 92.5t-144.5 30.5q-92 0 -160 -23l-16 -143q-1 -12 -5.5 -15.5t-15.5 -3.5h-104q-15 0 -19 3.5t-4 15.5v231q0 24 5.5 35t22.5 19q38 17 122 30.5 t180 13.5q118 0 199 -23.5t126.5 -70.5t65 -109.5t19.5 -148.5v-260q0 -73 16.5 -98t46.5 -25q45 0 45 45q0 10 0.5 13.5t3 9t9 7t18.5 1.5h36q21 0 26 -6.5t5 -28.5q0 -197 -199 -197q-150 0 -201 113q-90 -115 -333 -115q-144 0 -212.5 50t-68.5 169zM303 218 q0 -35 26.5 -49t80.5 -14q102 0 175.5 60.5t73.5 143.5v58q-23 -50 -68.5 -72t-113.5 -32q-12 -2 -38 -5.5t-37 -6t-31 -7t-29 -10.5t-20 -15t-15 -21.5t-4 -29.5z" />
<glyph unicode="b" horiz-adv-x="1154" d="M35 22v86q0 10 0.5 14t5 7.5t13.5 4.5q92 10 118.5 26t26.5 62v858q0 34 -9.5 45t-36.5 13l-86 5q-7 0 -10.5 3t-4 7t-0.5 14v82q0 16 5 21t19 7q156 26 220 26h80q43 0 43 -50v-538q40 84 120.5 126.5t177.5 42.5q118 0 200.5 -60t120.5 -159.5t38 -230.5 q0 -201 -94.5 -323t-283.5 -122q-63 0 -118 12t-104 46t-65 87v-91q0 -17 -1.5 -24.5t-9 -13t-24.5 -5.5h-318q-15 0 -19 4t-4 18zM419 415q0 -119 53 -187t157 -68q110 0 163 73.5t53 196.5q0 122 -52.5 199.5t-159.5 77.5q-104 0 -159 -79.5t-55 -212.5z" />
<glyph unicode="c" horiz-adv-x="949" d="M76 419q0 227 121.5 346t342.5 119q88 0 164.5 -14t118.5 -32q17 -7 22.5 -16.5t5.5 -33.5v-270q0 -12 -4 -15.5t-17 -3.5h-106q-17 0 -20 17l-26 178q-51 25 -127 25q-114 0 -181 -71.5t-67 -219.5q0 -153 76 -212.5t222 -59.5q93 0 244 32q14 3 20 -3t6 -23v-104 q0 -13 -5.5 -19t-20.5 -11q-122 -39 -301 -39q-228 0 -348 102.5t-120 327.5z" />
<glyph unicode="d" horiz-adv-x="1169" d="M78 434q0 131 38.5 230.5t122.5 159.5t204 60q99 0 178 -33.5t116 -105.5v335q0 34 -9.5 45t-36.5 13l-84 5q-11 0 -14 5t-3 19v82q0 16 5 21t19 7q156 26 220 26h80q45 0 45 -50v-985q0 -73 16.5 -98t46.5 -25q45 0 45 45q0 10 0.5 13.5t3 9t9 7.5t18.5 2h36 q21 0 26 -6.5t5 -29.5q0 -197 -188 -197q-160 0 -204 145q-43 -79 -131 -113t-190 -34q-126 0 -212 60t-124 158t-38 229zM307 424q0 -117 57.5 -194t167.5 -77t165 69t55 191q0 140 -55.5 214.5t-167.5 74.5q-111 0 -166.5 -77t-55.5 -201z" />
<glyph unicode="e" horiz-adv-x="994" d="M78 432q0 224 108 338t341 114q374 0 374 -281q0 -158 -95.5 -238t-254.5 -80q-133 0 -227 20q27 -83 94.5 -115t175.5 -32q51 0 99.5 7.5t111 23t79.5 18.5q13 4 19.5 1.5t6.5 -16.5v-99q0 -21 -4.5 -29t-21.5 -16q-51 -24 -139.5 -41.5t-185.5 -17.5q-249 0 -365 106.5 t-116 336.5zM305 488q86 -23 168 -23q92 0 150 34.5t58 105.5q0 55 -41.5 83.5t-110.5 28.5q-204 0 -224 -229z" />
<glyph unicode="f" horiz-adv-x="733" d="M76 22v86q0 16 2.5 20.5t14.5 5.5q86 10 107.5 25t21.5 63v489h-120q-22 0 -22 24v108q0 23 22 23h118v89q0 200 79 283.5t258 83.5q66 0 124.5 -12.5t85.5 -28.5q28 -13 28 -54v-229q0 -14 -3.5 -16.5t-16.5 -2.5h-107q-15 0 -20 17l-26 142q-24 18 -65 18 q-63 0 -89.5 -49t-26.5 -165v-76h205q22 0 22 -24v-107q0 -24 -22 -24h-205v-482q0 -30 5 -45t26.5 -25.5t55.5 -14t103 -6.5q14 0 20 -4t7 -9.5t1 -18.5v-80q0 -16 -3.5 -21t-20.5 -5h-536q-15 0 -19 4t-4 18z" />
<glyph unicode="g" horiz-adv-x="1163" d="M89 434q0 130 39 230t123.5 160t204.5 60q70 0 129.5 -15.5t108 -55t67.5 -100.5v101q0 52 45 52h63q18 0 47 -4.5t85 -14.5t103 -17q15 -2 19.5 -6.5t4.5 -19.5v-82q0 -15 -3 -19.5t-15 -4.5l-90 -5q-43 -4 -46 -51v-549q0 -232 -118.5 -347t-367.5 -115q-212 0 -319 47 q-16 7 -21 16t-5 32v95q0 17 6 22t20 2q181 -44 287 -44q71 0 122.5 13t93 44.5t63 90t21.5 144.5q-92 -106 -291 -106q-187 0 -281.5 123t-94.5 324zM320 424q0 -117 57 -194t167 -77t164.5 68.5t54.5 191.5q0 140 -55.5 214.5t-167.5 74.5q-111 0 -165.5 -77t-54.5 -201z " />
<glyph unicode="h" horiz-adv-x="1202" d="M35 22v86q0 10 0.5 14t5 7.5t13.5 4.5q85 8 113.5 22.5t31.5 52.5v873q0 57 -46 57l-84 6q-11 1 -14 6t-3 18v84q0 15 4.5 19.5t16.5 6.5q47 7 100.5 16t82.5 13.5t47 4.5h62q45 0 45 -51v-555q49 91 133.5 134t186.5 43q132 0 197 -73.5t65 -233.5v-307 q0 -74 16.5 -98.5t47.5 -24.5q25 0 34.5 11t9.5 34q0 12 1 17.5t8.5 9.5t22.5 4h35q22 0 27 -6.5t5 -30.5q0 -197 -199 -197q-229 0 -229 272v290q0 91 -30.5 125.5t-90.5 34.5q-105 0 -168 -86t-63 -260v-136q0 -57 19 -72t104 -19q20 -1 24 -7.5t4 -24.5v-80q0 -16 -4 -21 t-20 -5h-488q-15 0 -19 4t-4 18z" />
<glyph unicode="i" horiz-adv-x="631" d="M47 730v82q0 16 4.5 21t19.5 7q156 26 218 26h82q44 0 44 -51v-545q0 -74 16 -98.5t47 -24.5q45 0 45 45q0 12 1 17.5t8 9.5t21 4h37q21 0 26.5 -7t5.5 -30q0 -197 -199 -197q-229 0 -229 272v381q0 34 -10 45t-37 13l-86 6q-7 0 -10 3t-3.5 6.5t-0.5 14.5zM182 1134 q0 53 34 88t86 35q51 0 86.5 -35t35.5 -88q0 -58 -35 -92.5t-87 -34.5q-53 0 -86.5 34t-33.5 93z" />
<glyph unicode="j" horiz-adv-x="569" d="M-56 -169q0 16 3.5 21t17.5 5h91q8 0 12.5 -3.5t5.5 -6.5t1.5 -10.5t0.5 -9.5q9 -47 58 -47q71 0 71 142v720q0 34 -10 45t-37 13l-84 6q-7 0 -10 3t-3.5 6.5t-0.5 14.5v82q0 16 4.5 21t19.5 7q156 26 218 26h80q44 0 44 -51v-783q0 -208 -62 -302.5t-204 -94.5 q-111 0 -163.5 55.5t-52.5 140.5zM190 1134q0 53 35 88t86 35t87 -35t36 -88q0 -58 -35.5 -92.5t-87.5 -34.5t-86.5 34.5t-34.5 92.5z" />
<glyph unicode="k" horiz-adv-x="1122" d="M35 22v86q0 10 0.5 14t5 7.5t13.5 4.5q92 10 118.5 26t26.5 62v860q0 53 -46 57l-82 6q-13 1 -16 5.5t-3 18.5v84q0 15 5 19.5t19 6.5q46 6 102 15.5t86.5 14t48.5 4.5h61q45 0 45 -51v-787l220 219q31 31 -12 38q-18 3 -48 3q-14 0 -20 4t-7 10t-1 20v71q0 15 4.5 20.5 t19.5 5.5h460q14 0 17.5 -4t3.5 -19v-82q0 -13 -2.5 -17.5t-14.5 -4.5q-72 0 -105.5 -14.5t-73.5 -56.5l-208 -204l171 -220q38 -60 64.5 -83t56.5 -23q61 0 61 56q3 29 32 29h34q21 0 26 -7t5 -34q0 -201 -203 -201q-51 0 -91 12.5t-71.5 40t-50.5 51.5t-47 66l-220 301 v-223q0 -57 19 -72t104 -19q20 -1 24 -7.5t4 -24.5v-80q0 -16 -4 -21t-20 -5h-488q-15 0 -19 4t-4 18z" />
<glyph unicode="l" horiz-adv-x="571" d="M-6 1184v86q0 15 5.5 19.5t19.5 6.5q182 26 217 26h82q24 0 34.5 -15t10.5 -34v-1003q0 -74 16 -98.5t47 -24.5q25 0 34 11t9 34q0 17 5.5 24t26.5 7h37q20 0 25 -6.5t5 -30.5q0 -197 -199 -197q-228 0 -228 272v841q0 31 -10 41.5t-36 12.5l-84 6q-12 0 -14.5 4t-2.5 18 z" />
<glyph unicode="m" horiz-adv-x="1724" d="M71 22v86q0 16 2.5 20.5t14.5 5.5q84 10 107 24t23 54v432q0 54 -47 58l-83 5q-11 1 -14 6.5t-3 18.5v83q0 16 4.5 20.5t17.5 6.5q46 7 100 16t82.5 13t46.5 4h62q44 0 44 -50v-127q71 186 283 186q180 0 237 -149q87 149 301 149q134 0 199.5 -81.5t65.5 -258.5v-272 q0 -74 16 -98.5t47 -24.5q45 0 45 45q0 17 5 24t26 7h36q21 0 26 -6.5t5 -30.5q0 -197 -199 -197q-229 0 -229 272v255q0 106 -31.5 149.5t-95.5 43.5q-85 0 -135.5 -65.5t-53.5 -193.5v-243q1 -43 27 -55.5t116 -15.5q18 -1 22 -7.5t4 -24.5v-80q0 -9 -0.5 -12.5t-2.5 -7.5 t-6.5 -5t-12.5 -1h-466q-14 0 -17 3.5t-3 18.5v86v3q0 19 8 21q3 1 8 2q63 5 82 17.5t21 47.5v341q-4 97 -36 134t-93 37q-89 0 -138.5 -75.5t-50.5 -229.5v-203q2 -37 19 -49.5t77 -15.5q18 -1 22 -7.5t4 -24.5v-80q0 -9 -0.5 -12.5t-2.5 -7.5t-6.5 -5t-12.5 -1h-447 q-13 0 -16.5 4t-3.5 18z" />
<glyph unicode="n" horiz-adv-x="1226" d="M61 22v86q0 10 0.5 14t5 7.5t13.5 4.5q85 8 113.5 22.5t31.5 52.5v435q0 58 -46 58l-84 5q-11 1 -14 6.5t-3 18.5v83q0 16 4.5 20.5t16.5 6.5q46 6 100.5 15.5t83.5 13.5t47 4h61q45 0 45 -50v-118q49 91 133.5 134t186.5 43q132 0 197 -73.5t65 -233.5v-307 q0 -74 16.5 -98.5t47.5 -24.5q25 0 34.5 11t9.5 34q0 12 1 17.5t8.5 9.5t22.5 4h35q22 0 27 -6.5t5 -30.5q0 -197 -199 -197q-229 0 -229 272v290q0 91 -30.5 125.5t-92.5 34.5q-103 0 -166 -86t-63 -260v-136q0 -57 19 -72t104 -19q18 -1 22 -7.5t4 -24.5v-80 q0 -9 -0.5 -12.5t-2.5 -7.5t-6.5 -5t-12.5 -1h-488q-15 0 -19 4t-4 18z" />
<glyph unicode="o" horiz-adv-x="1061" d="M74 438q0 89 24.5 165.5t76.5 141t143.5 102t213.5 37.5q121 0 212 -37.5t142.5 -102t76 -141t24.5 -165.5t-24.5 -166t-76 -142t-143 -103t-212.5 -38t-212.5 38t-143 103t-76.5 142t-25 166zM300 432q0 -121 56.5 -198.5t174.5 -77.5t175 77.5t57 198.5q0 57 -13 107 t-40 90.5t-72.5 64t-105.5 23.5q-80 0 -134 -41.5t-76 -103.5t-22 -140z" />
<glyph unicode="p" horiz-adv-x="1145" d="M37 -246q0 15 3.5 20t15.5 6q86 8 109 21.5t23 53.5v385h2v404q0 54 -47 58l-85 5q-15 2 -15 25v83q0 16 4 20.5t16 6.5q47 7 100.5 16t82.5 13t46 4h64q44 0 44 -50v-129q37 94 120 141t187 47q89 0 158.5 -34t112.5 -95.5t65 -142.5t22 -178q0 -131 -37 -230.5 t-121.5 -161t-208.5 -61.5q-58 0 -112 13t-103 47t-72 84v-250q0 -54 27.5 -70t116.5 -21q18 -1 22 -7t4 -26v-79q0 -16 -4 -21t-18 -5h-499q-15 0 -19 4.5t-4 18.5v85zM410 406q0 -125 53 -200.5t157 -75.5q109 0 162.5 80.5t53.5 208.5t-52.5 208t-159.5 80 q-104 0 -159 -82t-55 -219z" />
<glyph unicode="q" horiz-adv-x="1161" d="M78 436q0 201 96.5 324.5t289.5 123.5q92 0 171 -28.5t123 -92.5v51q0 52 44 52h62q19 0 48 -4.5t84 -14.5t102 -17q15 -2 20 -6.5t5 -19.5v-82q0 -15 -3 -19.5t-14 -4.5l-91 -5q-47 -4 -47 -60v-769q0 -50 19 -63t104 -17q20 -1 24 -7t4 -26v-79q0 -16 -4 -21t-20 -5 h-499q-14 0 -18.5 4.5t-4.5 18.5v85q0 14 4 19t15 7q94 9 124.5 23.5t30.5 62.5v236q-91 -113 -291 -113q-126 0 -212.5 59.5t-126 158t-39.5 229.5zM309 439q0 -120 56 -202t166 -82q108 0 164.5 77t56.5 209q0 129 -56 206t-164 77q-75 0 -126.5 -40.5t-74 -103 t-22.5 -141.5z" />
<glyph unicode="r" horiz-adv-x="962" d="M60 22v86q0 14 3 19.5t15 6.5q93 10 119 26t26 62v422q0 58 -44 58l-86 5q-11 1 -14 6.5t-3 18.5v83q0 16 4.5 20.5t18.5 6.5q47 7 100.5 16t82.5 13t46 4h63q45 0 45 -50v-185h3q68 244 295 244q73 0 135 -28q19 -9 23.5 -19t4.5 -35v-307v-8t-1.5 -5t-1.5 -3t-3.5 -1.5 t-4.5 -0.5h-7h-118q-16 0 -20 16l-24 188q-15 8 -43 8q-209 0 -227 -345v-156q4 -29 27 -38t92 -12q20 -1 24 -7.5t4 -24.5v-80q0 -16 -4 -21t-18 -5h-488q-16 0 -20 3.5t-4 18.5z" />
<glyph unicode="s" horiz-adv-x="930" d="M80 61v209q0 25 6.5 31t27.5 6h98q16 0 22.5 -5t9.5 -25l11 -113q79 -21 190 -21q106 0 150.5 22.5t44.5 82.5q0 34 -23.5 57t-61.5 34.5t-87 22t-100.5 18.5t-100.5 26t-87 43t-61.5 70.5t-23.5 107.5q0 147 88.5 202t291.5 55q219 0 318 -37q17 -7 22.5 -14t5.5 -23 l-9 -197q0 -21 -8 -25.5t-29 -4.5h-84q-17 0 -25 6.5t-9 23.5l-9 98q-60 19 -168 19q-87 0 -127 -17.5t-40 -72.5q0 -28 23.5 -46t61.5 -26t87 -17t99.5 -17t99.5 -28t87 -47.5t61.5 -78t23.5 -117.5t-17.5 -115.5t-49 -78.5t-83.5 -47.5t-111.5 -24t-142.5 -6.5 q-98 0 -200 10t-140 27q-32 12 -32 33z" />
<glyph unicode="t" horiz-adv-x="752" d="M39 734v106q0 15 5 20.5t19 5.5h138l95 262q8 24 34 24h59q14 0 19 -6t5 -21v-259h259q14 0 19 -5.5t5 -20.5v-106q0 -15 -5 -21t-19 -6h-259v-405q0 -91 26 -127.5t82 -36.5q93 0 93 80q0 26 26 26h45q14 0 19 -6.5t5 -21.5q0 -122 -62.5 -178.5t-188.5 -56.5 q-266 0 -266 300v426h-129q-14 0 -19 6t-5 21z" />
<glyph unicode="u" horiz-adv-x="1195" d="M34 741v71q0 16 4.5 21t17.5 7q44 5 83.5 11t56.5 8.5t37.5 4.5t43.5 2h80q43 0 43 -52v-509q0 -100 32.5 -136.5t103.5 -36.5q222 0 222 304v238q-8 33 -45 37l-86 6q-9 1 -11.5 5.5t-2.5 18.5v71q0 16 5 21t19 7q53 6 100.5 13.5t69 10t49.5 2.5h82q43 0 43 -52v-566 q3 -61 18.5 -81t44.5 -20q45 0 45 45q0 12 1 17.5t8 9.5t21 4h37q22 0 27 -6.5t5 -30.5q0 -197 -199 -197q-171 0 -214 149q-48 -78 -120 -115.5t-182 -37.5q-151 0 -222.5 76.5t-71.5 247.5v346q0 27 -13 40.5t-32 15.5l-87 6q-9 1 -11 5.5t-2 18.5z" />
<glyph unicode="v" horiz-adv-x="1087" d="M37 752v97q0 11 3.5 14t13.5 3h436q10 0 13 -3.5t3 -13.5v-95q0 -10 -1 -13.5t-5 -6t-14 -4.5q-64 -4 -82 -13.5t-13 -33.5q8 -186 171 -504q169 314 177 504q7 24 -10 33.5t-81 13.5q-14 3 -17.5 7t-3.5 15v95q0 12 3 15.5t14 3.5h387q14 0 17.5 -3t3.5 -14v-97 q0 -15 -19 -18q-48 -6 -70 -12t-29.5 -14t-10.5 -27q-13 -157 -97 -356.5t-165 -315.5q-11 -13 -32 -13h-171q-21 0 -32 13q-81 119 -165 317t-97 355q-3 22 -22.5 32t-89.5 21q-7 1 -10.5 3.5t-4 5t-0.5 9.5z" />
<glyph unicode="w" horiz-adv-x="1653" d="M34 752v99q0 9 4 12t14 3h445q11 0 15 -3.5t4 -13.5v-95q0 -12 -4 -16.5t-19 -7.5q-62 -4 -81.5 -14t-14.5 -31q9 -195 165 -504q162 319 172 504q5 22 -14 31.5t-85 13.5q-14 3 -17.5 7.5t-3.5 16.5v95q0 10 3.5 13.5t15.5 3.5h398q17 0 17 -15v-99q0 -11 -2 -14t-13 -4 q-67 -9 -91 -17q21 -143 65.5 -263.5t122.5 -272.5q160 317 171 504q5 23 -12 32t-84 13q-14 3 -17.5 7t-3.5 17v95q0 10 3.5 13.5t15.5 3.5h394q11 0 15 -3.5t4 -13.5v-97q0 -15 -19 -18q-72 -9 -90.5 -18t-24.5 -33q-13 -153 -95 -356.5t-158 -317.5q-11 -13 -28 -13h-181 q-22 0 -30 13q-86 123 -169 339q-90 -230 -162 -339q-11 -13 -28 -13h-179q-21 0 -29 13q-76 113 -159 316.5t-96 357.5q-3 20 -26.5 31t-91.5 20q-16 2 -16 18z" />
<glyph unicode="x" horiz-adv-x="1131" d="M41 22v80q0 15 4.5 20t19.5 5q63 0 92.5 14t64.5 51l221 231l-216 257q-27 29 -59.5 42t-85.5 13q-12 0 -15.5 6t-3.5 22v79q0 14 5.5 19t19.5 5h443q14 0 18 -5t4 -21v-69q0 -15 -1 -21t-6.5 -10.5t-18.5 -4.5q-46 0 -54.5 -12t11.5 -36l101 -119l119 123 q20 21 10.5 32.5t-55.5 11.5q-11 0 -15.5 4.5t-5.5 10.5t-1 21v69q0 16 3 21t17 5h387q15 0 19 -4.5t4 -18.5v-80q0 -15 -4 -20.5t-15 -5.5q-91 -3 -147 -57l-220 -224l231 -268q29 -33 62 -47t93 -14q14 0 20 -5.5t6 -19.5v-80q0 -15 -3 -18.5t-18 -3.5h-472q-14 0 -17.5 5 t-3.5 21v71q0 14 1 19t5.5 8.5t15.5 3.5q69 -2 69 18q0 9 -11 22l-123 143l-143 -145q-34 -31 35 -37q16 -1 36 -1q17 0 20.5 -5.5t3.5 -25.5v-71q0 -16 -3.5 -21t-17.5 -5h-406q-14 0 -17 3.5t-3 18.5z" />
<glyph unicode="y" horiz-adv-x="1105" d="M41 752v99q0 9 3.5 12t13.5 3h435q10 0 13.5 -3.5t3.5 -13.5v-95q0 -10 -1 -13.5t-5 -6t-14 -4.5q-64 -4 -81 -13.5t-12 -33.5q5 -85 60.5 -234.5t114.5 -267.5h1q76 169 187 502q9 25 -3.5 32.5t-76.5 14.5q-25 7 -28 14q-2 4 -2 12v82q0 28 30 28h368q20 0 24 -5t4 -21 v-79q0 -13 -4.5 -17.5t-19.5 -9.5q-63 -9 -79.5 -20t-26.5 -42q-85 -270 -184.5 -499.5t-243.5 -490.5q-25 -37 -54.5 -51.5t-79.5 -14.5h-166q-16 0 -19.5 3t-3.5 18v87q0 10 0.5 14t5 6.5t13.5 2.5q97 10 121.5 18.5t46.5 42.5q28 50 104 192h-24q-21 0 -32 13 q-60 84 -154.5 309.5t-107.5 358.5q-3 22 -24.5 33t-87.5 20q-11 1 -13 4t-2 14z" />
<glyph unicode="z" horiz-adv-x="981" d="M84 28v71q0 28 2.5 37t15.5 22l486 566h-286q-20 0 -27.5 -5.5t-8.5 -24.5l-5 -117q-2 -24 -32 -24h-93q-14 0 -19.5 1t-10.5 7.5t-5 19.5v257q0 28 27 28h719q26 0 26 -28v-73q0 -39 -24 -63l-477 -562h319q34 0 37 31l9 121q1 18 8 24t24 6h91q21 0 27.5 -5.5 t6.5 -31.5v-257q0 -28 -25 -28h-757q-28 0 -28 28z" />
<glyph unicode="{" horiz-adv-x="683" d="M50 467v116q0 15 19 18q86 17 114.5 63t28.5 131v266q0 59 11.5 104.5t41 87t87 64t141.5 22.5h103q18 0 18 -15v-106q0 -25 -18 -25h-6q-79 0 -113 -33t-34 -101v-253q0 -123 -32.5 -186t-125.5 -95q93 -34 125.5 -97t32.5 -184v-253q0 -69 34 -101.5t113 -32.5h6 q18 0 18 -26v-105q0 -15 -18 -15h-103q-84 0 -141.5 22.5t-87 64t-41 87t-11.5 104.5v266q0 85 -28.5 131t-114.5 63q-19 3 -19 18z" />
<glyph unicode="|" horiz-adv-x="543" d="M162 -311v1670h218v-1670h-218z" />
<glyph unicode="}" horiz-adv-x="683" d="M69 -169q0 9 0.5 13t5 8.5t13.5 4.5h5q78 0 111.5 32.5t33.5 101.5v253q0 121 32.5 184t124.5 97q-92 32 -124.5 95.5t-32.5 185.5v253q0 68 -34 101t-111 33h-5q-19 0 -19 25v106q0 15 19 15h100q84 0 141.5 -22.5t87 -64t41 -87t11.5 -104.5v-266q0 -85 29 -131 t115 -63q18 -3 18 -18v-116q0 -15 -18 -18q-86 -17 -115 -63t-29 -131v-266q0 -59 -11.5 -104.5t-41 -87t-87 -64t-141.5 -22.5h-100q-19 0 -19 15v105z" />
<glyph unicode="~" horiz-adv-x="1223" d="M102 372q58 114 152.5 177.5t192.5 63.5q56 0 111 -25.5t91 -55.5t80.5 -55.5t82.5 -25.5t75.5 33.5t67.5 98.5l166 -60q-30 -82 -83.5 -138.5t-111.5 -81t-118 -24.5q-46 0 -88.5 17t-74.5 41.5t-61 49t-61 41.5t-63 17q-57 0 -97.5 -30t-81.5 -100z" />
<glyph unicode="&#xa0;" horiz-adv-x="863" d="M119 465v114q0 26 22 26h585q21 0 21 -28v-100q0 -17 -5 -24.5t-20 -7.5h-584q-19 0 -19 20z" />
<glyph unicode="&#xa1;" horiz-adv-x="500" d="M117 756q0 54 37.5 91t91.5 37q52 0 90 -37.5t38 -90.5q0 -59 -37 -94.5t-91 -35.5q-56 0 -92.5 35t-36.5 95zM136 -324l32 877q1 16 9.5 20t25.5 4h112q28 0 28 -26l22 -877q3 -24 -26 -24h-166q-21 0 -29 5t-8 21z" />
<glyph unicode="&#xa2;" horiz-adv-x="984" d="M91 419q0 219 122.5 342t339.5 123q158 0 235.5 -62.5t77.5 -168.5q0 -77 -47.5 -131.5t-148.5 -54.5q-42 0 -87 10q-15 4 -19.5 10.5t-4.5 20.5v30q0 16 5 21t17 5q5 0 16 -2t19 -2q80 0 80 71q0 95 -134 95q-115 0 -179.5 -78.5t-64.5 -219.5q0 -148 76.5 -213.5 t203.5 -65.5q125 0 268 56q15 4 20.5 -1t5.5 -22v-108q0 -12 -5 -18t-21 -13q-155 -62 -326 -62q-219 0 -334 114t-115 324zM417 -341l17 252q0 9 0.5 12.5t5 6.5t14.5 3h142q7 0 10.5 -3t4 -6t0.5 -10l18 -253q3 -22 -11 -22h-190q-15 0 -11 20zM421 1208q-3 21 11 21h190 q8 0 10.5 -4t0.5 -17l-17 -255q0 -1 -0.5 -5t-1 -4.5t-1.5 -3t-2.5 -3t-4 -1.5t-6.5 -1h-142q-14 0 -17 4.5t-3 17.5z" />
<glyph unicode="&#xa3;" horiz-adv-x="1230" d="M84 22v86v10t1 6.5t2.5 5.5t5 2t9.5 2q91 8 117.5 22t26.5 54v341h-127q-18 0 -18 21v113q0 26 22 26h123l2 216q0 111 31.5 188.5t93.5 121.5t142 63.5t187 19.5q212 0 378 -50q16 -5 22 -12.5t7 -13.5t1 -28v-281q0 -16 -3 -19.5t-18 -3.5h-110q-11 0 -15 3t-7 16 l-35 194q-82 18 -203 18q-55 0 -94 -6.5t-75 -24.5t-54.5 -55t-18.5 -93v-253h230q21 0 21 -28v-100q0 -17 -4.5 -24.5t-19.5 -7.5h-227v-367l420 -2q18 0 26 14t15 52l12 119q1 6 3.5 11t4.5 8t6.5 5.5t7 3.5t9.5 1.5t9.5 0.5h11.5h11h67q6 0 10.5 -2t7 -7t4.5 -10t2 -13.5 t0.5 -14.5t0 -16.5t-0.5 -16.5v-297q0 -14 -4 -17t-20 -3h-974q-14 0 -18 4t-4 18z" />
<glyph unicode="&#xa4;" horiz-adv-x="1241" d="M130 141l110 110q-110 119 -110 296q0 179 118 300l-108 112l124 74l107 -98q108 50 249 50q146 0 264 -58l108 101l125 -75l-115 -117q106 -116 106 -289t-104 -290l115 -114l-129 -76l-109 97q-110 -56 -261 -56t-257 54l-104 -99zM363 547q0 -129 70.5 -210.5 t186.5 -81.5q114 0 185.5 81.5t71.5 210.5t-71.5 210t-185.5 81q-117 0 -187 -80.5t-70 -210.5z" />
<glyph unicode="&#xa5;" horiz-adv-x="1346" d="M60 1192v91q0 13 3.5 16.5t16.5 3.5h482q14 0 17.5 -4.5t3.5 -17.5v-88q0 -15 -4.5 -21t-18.5 -7q-72 -5 -94.5 -11.5t-22.5 -25.5q0 -115 64.5 -234t173.5 -259q57 68 95 118.5t79.5 117.5t63 131.5t21.5 125.5q0 19 -22 25.5t-93 11.5q-16 1 -20 7t-4 21v88q0 14 3 18 t17 4h443q13 0 16 -3.5t3 -16.5v-91q0 -25 -17 -25q-77 -7 -105 -17t-33 -35q-26 -234 -225 -502h184q23 0 23 -23v-76q0 -14 -5 -20t-21 -6h-283l-12 -13v-47h298q23 0 23 -20v-78q0 -14 -5.5 -20.5t-20.5 -6.5h-295v-74q0 -57 19.5 -72t103.5 -19q20 -1 24 -7.5t4 -24.5 v-80q0 -16 -4 -21t-20 -5h-497q-15 0 -18.5 4t-3.5 18v86q0 11 0.5 14.5t4.5 7t13 4.5q87 8 114.5 22t30.5 53v94h-297q-19 0 -19 17v90q0 18 22 18h294v17q-20 21 -37 43h-260q-19 0 -19 17v87q0 21 22 21h158q-198 272 -210 502q-3 20 -33.5 32t-104.5 20q-12 3 -14 7 t-2 18z" />
<glyph unicode="&#xa6;" horiz-adv-x="549" d="M166 -266v728h218v-728h-218zM166 577v724h218v-724h-218z" />
<glyph unicode="&#xa7;" horiz-adv-x="1133" d="M104 58q0 18 7.5 24t28.5 6h117q25 0 28 -25l24 -193q125 -25 231 -25q42 0 81 5t82.5 18t69.5 42t26 71q0 49 -22.5 85t-61 57.5t-88.5 38t-105 30t-110.5 29t-105.5 40.5t-88.5 59t-61 89.5t-22.5 128.5q0 152 60 238q-60 76 -60 196q0 103 31 173t92 107.5t135 52.5 t176 15q135 0 230.5 -16.5t136.5 -35.5q22 -10 27.5 -18t5.5 -31v-286q0 -21 -6.5 -25.5t-26.5 -4.5h-118q-4 0 -7 0.5t-5.5 1.5t-4.5 2t-3 2.5t-2 2.5t-1.5 3t-1 3.5t-1 3.5t-0.5 3l-22 190q-67 24 -199 24q-213 0 -213 -124q0 -44 22.5 -75t61 -49.5t88.5 -32t105.5 -27 t110.5 -29.5t105 -44.5t88.5 -67.5t61 -102.5t22.5 -146.5q0 -53 -8 -102.5t-20.5 -78.5t-25.5 -25l-17 5q71 -89 71 -231q0 -86 -27 -150t-69.5 -102t-106.5 -61.5t-127 -31.5t-141 -8q-110 0 -238.5 16t-172.5 36q-36 18 -36 52v298zM357 581q0 -47 25.5 -79.5t73.5 -51.5 t98 -31.5t119.5 -30t117.5 -36.5q8 30 8 52q0 44 -19 78t-47 54.5t-74 38.5t-86.5 28t-98.5 25.5t-96 28.5q-21 -31 -21 -76z" />
<glyph unicode="&#xa8;" horiz-adv-x="707" d="M65 1475q0 45 31 76.5t79 31.5t81 -32t33 -76q0 -45 -32.5 -76t-81.5 -31q-48 0 -79 30.5t-31 76.5zM419 1475q0 45 31.5 76.5t80.5 31.5q48 0 80.5 -32t32.5 -76q0 -45 -32.5 -76t-80.5 -31q-51 0 -81.5 30.5t-30.5 76.5z" />
<glyph unicode="&#xa9;" horiz-adv-x="1502" d="M97 618q0 156 51.5 279.5t141 201t205 118t248.5 40.5q134 0 252.5 -42t211.5 -121.5t147 -206t54 -284.5q0 -122 -34 -224.5t-93.5 -175t-140.5 -123t-176 -75t-199 -24.5q-108 0 -206.5 25.5t-182.5 78t-146 127t-97.5 179t-35.5 227.5zM192 618q0 -174 74.5 -299.5 t202 -187.5t294.5 -62q253 0 399.5 134t146.5 400q0 138 -42 246.5t-117.5 178t-178.5 105.5t-228 36q-253 0 -402 -141t-149 -410zM356 616q0 203 108 309t305 106q80 0 149 -12.5t104 -28.5q15 -5 19.5 -14t4.5 -30v-242q0 -11 -3.5 -14t-14.5 -3h-95q-14 0 -17 15 l-24 160q-45 22 -114 22q-101 0 -160 -64t-59 -196q0 -137 68 -189.5t198 -52.5q81 0 218 28q22 6 22 -23v-93q0 -19 -22 -28q-105 -33 -270 -33q-204 0 -310.5 91t-106.5 292z" />
<glyph unicode="&#xaa;" horiz-adv-x="986" d="M84 974q0 156 86.5 252t248.5 96q147 0 216 -104v65q0 12 6 16t20 4h179q20 0 20 -26v-618q0 -22 -22 -22h-188q-11 0 -13 4.5t-2 19.5v58q-77 -101 -220 -101q-163 0 -247 98.5t-84 257.5zM309 970q0 -97 44 -147t122 -50q76 0 118 52.5t42 144.5q0 91 -43 144t-119 53 t-120 -52t-44 -145z" />
<glyph unicode="&#xab;" horiz-adv-x="1050" d="M67 493l372 399q11 11 14 13t16 -2l106 -78q9 -7 8.5 -10.5t-10.5 -15.5l-288 -322l287 -313q14 -16 14.5 -22t-11.5 -14l-104 -72q-12 -7 -17 -5t-16 14l-369 387q-13 13 -13.5 19.5t11.5 21.5zM449 452q-13 13 -13.5 19.5t13.5 21.5l370 399q11 11 14 13t16 -2l108 -78 q8 -7 7 -10.5t-11 -15.5l-288 -322l286 -313q14 -16 14.5 -22t-10.5 -14l-104 -72q-12 -7 -17.5 -5t-16.5 14z" />
<glyph unicode="&#xac;" horiz-adv-x="1163" d="M121 492v154h914v-402h-216v248h-698z" />
<glyph unicode="&#xad;" horiz-adv-x="865" d="M119 473v113q0 27 22 27h585q21 0 21 -28v-101q0 -17 -5 -24.5t-20 -7.5h-584q-19 0 -19 21z" />
<glyph unicode="&#xae;" horiz-adv-x="1502" d="M97 618q0 156 51.5 279.5t141 201t205 118t248.5 40.5q134 0 252.5 -42t211.5 -121.5t147 -206t54 -284.5q0 -122 -34 -224.5t-93.5 -175t-140.5 -123t-176 -75t-199 -24.5q-108 0 -206.5 25.5t-182.5 78t-146 127t-97.5 179t-35.5 227.5zM192 618q0 -174 74.5 -299.5 t202 -187.5t294.5 -62q253 0 399.5 134t146.5 400q0 138 -42 246.5t-117.5 178t-178.5 105.5t-228 36q-253 0 -402 -141t-149 -410zM456 263v63q0 9 1.5 12.5t9.5 4.5q46 5 60.5 15t14.5 35v499q0 21 -16 31t-61 15q-9 2 -9 17v63q0 8 2 10.5t9 2.5h285q86 0 145 -19.5 t91 -57t45 -83.5t13 -108q0 -180 -115 -240l48 -110q17 -38 33 -52.5t42 -14.5q5 0 13 2.5t13.5 4.5t10.5 0t6 -10l7 -66q1 -14 -1.5 -18.5t-15.5 -7.5q-49 -13 -91 -13q-39 0 -66 9t-46 31t-29.5 43.5t-25.5 62.5l-45 108h-2q-46 0 -88 7v-101q0 -32 11 -41.5t53 -12.5 q9 -1 11 -4.5t2 -15.5v-60q0 -9 -1.5 -12t-9.5 -3h-291q-8 0 -10.5 3t-2.5 11zM694 624q34 -8 73 -8q119 0 119 145q0 82 -33 121.5t-90 39.5h-69v-298z" />
<glyph unicode="&#xaf;" horiz-adv-x="727" d="M119 1404v95q0 14 4.5 18t16.5 4h460q16 0 16 -17v-98q0 -14 -5.5 -18.5t-20.5 -4.5h-450q-13 0 -17 4t-4 17z" />
<glyph unicode="&#xb0;" horiz-adv-x="763" d="M82 1048q0 118 79.5 196t220.5 78q143 0 221 -78.5t78 -195.5q0 -120 -80.5 -196.5t-218.5 -76.5q-142 0 -221 76.5t-79 196.5zM287 1050q0 -65 28 -99.5t72 -34.5q38 0 63 32.5t25 95.5q0 65 -25 100.5t-68 35.5q-42 0 -68.5 -35t-26.5 -95z" />
<glyph unicode="&#xb1;" horiz-adv-x="1158" d="M106 400v159h361v337h220v-337h359v-159h-359v-273h-220v273h-361zM112 -80v160h940v-160h-940z" />
<glyph unicode="&#xb2;" horiz-adv-x="891" d="M71 573v125q0 17 9 26q111 67 195 131t154.5 138.5t108 158.5t37.5 172q0 78 -42 107t-120 29q-80 0 -149 -23l-31 -184q-3 -10 -6 -12.5t-11 -2.5h-104q-13 0 -15 2.5t-2 16.5v268q0 21 4.5 30t19.5 13q160 48 307 48q41 0 71.5 -1.5t69.5 -8t67 -17.5t57 -32t47.5 -49 t30 -70.5t11.5 -96.5q0 -170 -118 -329t-331 -290h304q14 0 21.5 12.5t13.5 40.5l10 89q1 11 2 15t5.5 7.5t14.5 3.5h82q18 0 23 -6.5t5 -32.5v-276q0 -12 -3 -14t-14 -2h-711q-13 0 -13 14z" />
<glyph unicode="&#xb3;" horiz-adv-x="863" d="M67 609v121q0 14 5 18t17 2q5 -1 51.5 -12.5t100.5 -19t116 -7.5q113 0 169.5 39.5t56.5 128.5q0 79 -44 110t-128 31h-83q-17 0 -17 21v117q0 12 7 21l226 268h-265q-15 0 -21 -10.5t-10 -49.5l-8 -97q-1 -9 -2.5 -12.5t-5.5 -5.5t-12 -2h-84q-17 0 -21.5 3.5t-4.5 20.5 v283q0 16 4.5 20t19.5 4h618q11 0 13 -4t2 -18v-95q0 -19 -3 -25.5t-19 -23.5l-237 -270h23q139 0 198.5 -70t59.5 -207q0 -79 -23.5 -140.5t-61 -99t-90 -62t-105 -33.5t-111.5 -9q-197 0 -314 37q-17 5 -17 28z" />
<glyph unicode="&#xb4;" horiz-adv-x="614" d="M127 1400l128 166q14 20 25.5 26.5t32.5 6.5h186q17 0 19 -9t-12 -22l-208 -181q-28 -28 -67 -28h-90q-41 0 -14 41z" />
<glyph unicode="&#xb5;" horiz-adv-x="1262" d="M67 741v71q0 16 5 21t17 7q44 5 83.5 11t57 8.5t38 4.5t43.5 2h80q43 0 43 -52v-509q0 -100 32.5 -136.5t103.5 -36.5q215 0 223 287v255q-8 33 -45 37l-85 6q-11 1 -13 5.5t-2 18.5v71q0 16 4.5 21t17.5 7q44 5 83.5 11t57 8.5t38 4.5t43.5 2h80q43 0 43 -52v-566 q3 -61 18.5 -81t44.5 -20q45 0 45 45q0 10 0.5 13.5t3 9t9 7t18.5 1.5h36q21 0 26 -6.5t5 -30.5q0 -197 -199 -197q-170 0 -214 147q-48 -78 -119.5 -114.5t-180.5 -36.5q-41 0 -74 6v-380q0 -21 -21 -21h-180q-21 0 -21 21v962h2v82q0 52 -46 56l-86 6q-11 1 -13 5.5 t-2 18.5z" />
<glyph unicode="&#xb6;" horiz-adv-x="986" d="M69 933q0 162 109 266t282 104h339v-1539h-162v1415h-103v-1415h-160v793q-137 1 -221 110t-84 266z" />
<glyph unicode="&#xb7;" horiz-adv-x="556" d="M95 467q0 68 51 117t122 49q73 0 126 -49t53 -117q0 -67 -53 -114.5t-126 -47.5q-71 0 -122 47.5t-51 114.5z" />
<glyph unicode="&#xb8;" horiz-adv-x="526" d="M32 -315l11 21q13 23 28 15q38 -13 95 -13q85 0 85 70q0 66 -113 66q-25 0 -27 3q-3 7 4 23l60 130h123l-34 -82q153 -8 153 -134q0 -84 -61.5 -123t-156.5 -39q-82 0 -154 26q-14 6 -17 11t4 26z" />
<glyph unicode="&#xb9;" horiz-adv-x="642" d="M63 577v75q0 8 0.5 11t4 5.5t10.5 3.5q90 5 126.5 17t39.5 39v678q-2 16 -32 2l-117 -62q-14 -6 -19 -3t-5 18v93q0 17 20 28l185 102q35 19 85 19h52q14 0 20 -4.5t6 -17.5v-842q0 -36 29 -48t118 -17q14 -1 17.5 -5.5t3.5 -20.5v-69q0 -13 -3.5 -16.5t-17.5 -3.5h-504 q-12 0 -15.5 3.5t-3.5 14.5z" />
<glyph unicode="&#xba;" horiz-adv-x="1055" d="M73 873q0 89 24.5 165.5t76.5 141.5t143.5 102.5t213.5 37.5q121 0 212 -37.5t142 -102.5t75.5 -141.5t24.5 -165.5t-24.5 -166t-76 -142t-143 -103t-212.5 -38t-212.5 38t-143 103t-76 142t-24.5 166zM298 868q0 -121 56.5 -198.5t174.5 -77.5t175 77.5t57 198.5 q0 57 -13 106.5t-39.5 90t-72 64t-105.5 23.5q-61 0 -107 -23.5t-73 -64t-40 -90t-13 -106.5z" />
<glyph unicode="&#xbb;" horiz-adv-x="1050" d="M91 128q-11 9 -10 14t16 22l287 313l-289 322q-11 11 -11.5 15t9.5 11l106 78q13 4 16 2t14 -13l372 -399q13 -14 12.5 -21t-13.5 -20l-369 -387q-19 -22 -34 -9zM471 128q-11 9 -10 14t16 22l286 313l-288 322q-10 12 -10.5 15.5t8.5 10.5l106 78q13 4 16 2t14 -13 l372 -399q12 -15 11.5 -21.5t-13.5 -19.5l-368 -387q-11 -12 -16.5 -14t-17.5 5z" />
<glyph unicode="&#xbf;" horiz-adv-x="1001" d="M60 -82q0 77 21 130t54 80.5t73.5 47t81 37.5t73.5 42t54 70t21 113v102q0 24 24 24l178 2q23 0 23 -26v-132q0 -89 -21 -151.5t-54.5 -95t-74 -53.5t-81 -35.5t-74 -33t-54.5 -54t-21 -89.5q0 -138 223 -138q138 0 220 24l24 198q1 10 2.5 13t6.5 5t17 2h118 q13 0 18.5 -1t9 -7t3.5 -20v-292q0 -23 -5.5 -32.5t-27.5 -18.5q-47 -20 -150.5 -36.5t-248.5 -16.5q-80 0 -142 8.5t-118.5 31.5t-93 61t-58 98.5t-21.5 142.5zM423 754q0 55 36.5 92.5t91.5 37.5q52 0 91 -38t39 -92q0 -59 -38 -93.5t-92 -34.5q-56 0 -92 34t-36 94z" />
<glyph unicode="&#xc0;" d="M26 22v86q0 26 19 26q92 11 118.5 25t26.5 53v97q0 228 29.5 411t89 319.5t155.5 210.5t223 74q268 0 403 -260.5t135 -754.5v-104q2 -39 24.5 -51.5t98.5 -15.5q18 -1 22 -7.5t4 -24.5v-80q0 -16 -4 -21t-18 -5h-518q-14 0 -17 3.5t-3 18.5v86v3q0 19 8 21q3 1 8 2 q91 10 118.5 25t27.5 53v97q0 52 -2 78h-596v-177q1 -43 23.5 -55t101.5 -17q18 -1 22 -7.5t4 -24.5v-80q0 -16 -3.5 -21t-20.5 -5h-457q-16 0 -19 3t-3 19zM389 572h574q-24 264 -98 414t-187 150t-188 -150t-101 -414zM402 1594q-14 13 -11.5 22t19.5 9h180q21 0 32 -6 t26 -27l143 -183q15 -23 12 -32t-23 -9h-91q-31 0 -73 36z" />
<glyph unicode="&#xc1;" d="M26 22v86q0 26 19 26q92 11 118.5 25t26.5 53v97q0 228 29.5 411t89 319.5t155.5 210.5t223 74q268 0 403 -260.5t135 -754.5v-104q2 -39 24.5 -51.5t98.5 -15.5q18 -1 22 -7.5t4 -24.5v-80q0 -16 -4 -21t-18 -5h-518q-14 0 -17 3.5t-3 18.5v86v3q0 19 8 21q3 1 8 2 q91 10 118.5 25t27.5 53v97q0 52 -2 78h-596v-177q1 -43 23.5 -55t101.5 -17q18 -1 22 -7.5t4 -24.5v-80q0 -16 -3.5 -21t-20.5 -5h-457q-16 0 -19 3t-3 19zM389 572h574q-24 264 -98 414t-187 150t-188 -150t-101 -414zM614 1419l129 165q15 20 26.5 27t31.5 7h186 q17 0 19 -9.5t-12 -22.5l-208 -180q-28 -28 -67 -28h-90q-42 0 -15 41z" />
<glyph unicode="&#xc2;" d="M26 22v86q0 26 19 26q92 11 118.5 25t26.5 53v97q0 228 29.5 411t89 319.5t155.5 210.5t223 74q268 0 403 -260.5t135 -754.5v-104q2 -39 24.5 -51.5t98.5 -15.5q18 -1 22 -7.5t4 -24.5v-80q0 -16 -4 -21t-18 -5h-518q-14 0 -17 3.5t-3 18.5v86v3q0 19 8 21q3 1 8 2 q91 10 118.5 25t27.5 53v97q0 52 -2 78h-596v-177q1 -43 23.5 -55t101.5 -17q18 -1 22 -7.5t4 -24.5v-80q0 -16 -3.5 -21t-20.5 -5h-457q-16 0 -19 3t-3 19zM389 572h574q-24 264 -98 414t-187 150t-188 -150t-101 -414zM413 1370q-7 15 -6 24t12 23l164 173q20 24 63 24h82 q40 0 63 -24l164 -175q12 -14 12 -23.5t-8 -23.5t-32 -3l-240 119h-2l-238 -117q-24 -11 -34 3z" />
<glyph unicode="&#xc3;" d="M26 22v86q0 26 19 26q92 11 118.5 25t26.5 53v97q0 228 29.5 411t89 319.5t155.5 210.5t223 74q268 0 403 -260.5t135 -754.5v-104q2 -39 24.5 -51.5t98.5 -15.5q18 -1 22 -7.5t4 -24.5v-80q0 -16 -4 -21t-18 -5h-518q-14 0 -17 3.5t-3 18.5v86v3q0 19 8 21q3 1 8 2 q91 10 118.5 25t27.5 53v97q0 52 -2 78h-596v-177q1 -43 23.5 -55t101.5 -17q18 -1 22 -7.5t4 -24.5v-80q0 -16 -3.5 -21t-20.5 -5h-457q-16 0 -19 3t-3 19zM389 572h574q-24 264 -98 414t-187 150t-188 -150t-101 -414zM464 1448q25 53 65.5 92t90.5 39q49 0 107.5 -31 t86.5 -31q30 0 48 38q7 18 22 11l64 -28q12 -5 13.5 -10.5t-4.5 -19.5q-23 -53 -63.5 -92.5t-91.5 -39.5t-111 30.5t-80 30.5q-11 0 -20.5 -5.5t-14.5 -11.5t-16 -22q-9 -14 -24 -9l-59 30q-14 6 -16.5 11t3.5 18z" />
<glyph unicode="&#xc4;" d="M26 22v86q0 26 19 26q92 11 118.5 25t26.5 53v97q0 228 29.5 411t89 319.5t155.5 210.5t223 74q268 0 403 -260.5t135 -754.5v-104q2 -39 24.5 -51.5t98.5 -15.5q18 -1 22 -7.5t4 -24.5v-80q0 -16 -4 -21t-18 -5h-518q-14 0 -17 3.5t-3 18.5v86v3q0 19 8 21q3 1 8 2 q91 10 118.5 25t27.5 53v97q0 52 -2 78h-596v-177q1 -43 23.5 -55t101.5 -17q18 -1 22 -7.5t4 -24.5v-80q0 -16 -3.5 -21t-20.5 -5h-457q-16 0 -19 3t-3 19zM389 572h574q-24 264 -98 414t-187 150t-188 -150t-101 -414zM398 1475q0 45 31 76.5t79 31.5t81 -32t33 -76 q0 -45 -32.5 -76t-81.5 -31q-48 0 -79 30.5t-31 76.5zM752 1475q0 45 31.5 76.5t80.5 31.5q48 0 80.5 -32t32.5 -76q0 -45 -32.5 -76t-80.5 -31q-51 0 -81.5 30.5t-30.5 76.5z" />
<glyph unicode="&#xc5;" d="M26 22v86q0 26 19 26q92 11 118.5 25t26.5 53v97q0 228 29.5 411t89 319.5t155.5 210.5t223 74q268 0 403 -260.5t135 -754.5v-104q2 -39 24.5 -51.5t98.5 -15.5q18 -1 22 -7.5t4 -24.5v-80q0 -16 -4 -21t-18 -5h-518q-14 0 -17 3.5t-3 18.5v86v3q0 19 8 21q3 1 8 2 q91 10 118.5 25t27.5 53v97q0 52 -2 78h-596v-177q1 -43 23.5 -55t101.5 -17q18 -1 22 -7.5t4 -24.5v-80q0 -16 -3.5 -21t-20.5 -5h-457q-16 0 -19 3t-3 19zM389 572h574q-24 264 -98 414t-187 150t-188 -150t-101 -414zM439 1499q0 134 248 134t248 -134q0 -59 -56.5 -97.5 t-191.5 -38.5t-191.5 38.5t-56.5 97.5zM601 1499q0 -25 20 -43.5t66 -18.5q45 0 65.5 18.5t20.5 43.5q0 23 -21 41t-65 18q-46 0 -66 -17.5t-20 -41.5z" />
<glyph unicode="&#xc6;" horiz-adv-x="1926" d="M26 22v86q0 26 19 26q92 11 118.5 25t26.5 53v97q0 228 29.5 411t89 319.5t155.5 210.5t223 74q180 0 305 -125v82q0 14 4.5 18t18.5 4h765q11 0 15 -1t6.5 -5t2.5 -14v-320q0 -36 -24 -36h-103q-4 0 -6.5 0.5t-5 0.5t-4 1t-3 1.5t-2.5 2.5t-1.5 2.5t-1.5 3.5t-1 4 t-1 4.5t-1 5.5l-13 118q-6 38 -14 53t-26 15l-374 -1v-393h279q16 0 21.5 -3.5t5.5 -17.5v-123q0 -17 -5.5 -23t-22.5 -6h-278v-146q0 -18 1 -57t1 -60v-104q0 -25 9 -39l390 -2q18 0 25 14.5t15 54.5l13 117q0 1 1.5 6.5t2 7t2.5 5t4.5 4.5t6.5 2t10 1h104q22 0 22 -35 v-321q0 -14 -4 -17t-18 -3h-974q-14 0 -17 3.5t-3 18.5v86v3q0 19 8 21q3 1 8 2q91 10 118.5 25t27.5 53v97q0 52 -2 78h-596v-177q1 -43 23.5 -55t101.5 -17q18 -1 22 -7.5t4 -24.5v-80q0 -16 -3.5 -21t-20.5 -5h-457q-16 0 -19 3t-3 19zM389 572h574q-24 264 -98 414 t-187 150t-188 -150t-101 -414z" />
<glyph unicode="&#xc7;" horiz-adv-x="1262" d="M93 644q0 338 164.5 508t477.5 170q113 0 222.5 -13t165.5 -30q20 -8 25.5 -18.5t5.5 -37.5v-344q0 -15 -4 -19t-18 -4h-132q-14 0 -18 3.5t-6 15.5l-36 251q-76 19 -199 19q-185 0 -297.5 -124.5t-112.5 -380.5q0 -131 36 -225t100.5 -145.5t141.5 -74t173 -22.5 q132 0 378 41q30 6 30 -24v-112q0 -20 -7.5 -30.5t-30.5 -15.5q-160 -44 -366 -49l-21 -50q153 -8 153 -134q0 -84 -61.5 -123t-156.5 -39q-82 0 -154 26q-14 6 -17.5 11t3.5 26l12 21q13 23 28 15q38 -13 95 -13q85 0 85 70q0 66 -113 66q-25 0 -27 3q-4 5 4 23l47 102 q-286 17 -428 178t-142 479z" />
<glyph unicode="&#xc8;" horiz-adv-x="1130" d="M89 341q0 70 18 124.5t44.5 88.5t66.5 58.5t74 36.5t77 21q-222 45 -222 315q0 79 23 139t62 97.5t98 60.5t122.5 31.5t143.5 8.5q222 0 378 -50q16 -5 22 -12t7 -13.5t1 -28.5v-282q0 -16 -3 -19t-18 -3h-110q-11 0 -15 3t-7 16l-36 193q-87 19 -202 19q-54 0 -93 -6.5 t-75 -24.5t-55 -55t-19 -93q0 -116 68.5 -159.5t204.5 -43.5h119q25 0 25 -28v-121q0 -28 -25 -28h-119q-144 0 -222.5 -49t-78.5 -165q0 -111 78 -157t242 -46q81 0 167.5 10t147 21t70.5 12q13 1 17 -3.5t4 -18.5v-140q0 -14 -5.5 -19.5t-22.5 -8.5q-212 -41 -460 -41 q-82 0 -149 8.5t-133 32.5t-110.5 63t-72 104t-27.5 152zM311 1594q-14 13 -12 22t19 9h181q21 0 32 -6t26 -27l143 -183q15 -23 12 -32t-23 -9h-91q-31 0 -73 36z" />
<glyph unicode="&#xc9;" horiz-adv-x="1130" d="M89 341q0 70 18 124.5t44.5 88.5t66.5 58.5t74 36.5t77 21q-222 45 -222 315q0 79 23 139t62 97.5t98 60.5t122.5 31.5t143.5 8.5q222 0 378 -50q16 -5 22 -12t7 -13.5t1 -28.5v-282q0 -16 -3 -19t-18 -3h-110q-11 0 -15 3t-7 16l-36 193q-87 19 -202 19q-54 0 -93 -6.5 t-75 -24.5t-55 -55t-19 -93q0 -116 68.5 -159.5t204.5 -43.5h119q25 0 25 -28v-121q0 -28 -25 -28h-119q-144 0 -222.5 -49t-78.5 -165q0 -111 78 -157t242 -46q81 0 167.5 10t147 21t70.5 12q13 1 17 -3.5t4 -18.5v-140q0 -14 -5.5 -19.5t-22.5 -8.5q-212 -41 -460 -41 q-82 0 -149 8.5t-133 32.5t-110.5 63t-72 104t-27.5 152zM523 1419l129 165q15 20 26 27t31 7h187q17 0 19 -9.5t-12 -22.5l-209 -180q-28 -28 -67 -28h-89q-42 0 -15 41z" />
<glyph unicode="&#xca;" horiz-adv-x="1130" d="M89 341q0 70 18 124.5t44.5 88.5t66.5 58.5t74 36.5t77 21q-222 45 -222 315q0 79 23 139t62 97.5t98 60.5t122.5 31.5t143.5 8.5q222 0 378 -50q16 -5 22 -12t7 -13.5t1 -28.5v-282q0 -16 -3 -19t-18 -3h-110q-11 0 -15 3t-7 16l-36 193q-87 19 -202 19q-54 0 -93 -6.5 t-75 -24.5t-55 -55t-19 -93q0 -116 68.5 -159.5t204.5 -43.5h119q25 0 25 -28v-121q0 -28 -25 -28h-119q-144 0 -222.5 -49t-78.5 -165q0 -111 78 -157t242 -46q81 0 167.5 10t147 21t70.5 12q13 1 17 -3.5t4 -18.5v-140q0 -14 -5.5 -19.5t-22.5 -8.5q-212 -41 -460 -41 q-82 0 -149 8.5t-133 32.5t-110.5 63t-72 104t-27.5 152zM322 1370q-7 15 -6 24t12 23l164 173q20 24 63 24h82q40 0 63 -24l164 -175q12 -14 12 -23.5t-8 -23.5t-32 -3l-240 119h-2l-238 -117q-24 -11 -34 3z" />
<glyph unicode="&#xcb;" horiz-adv-x="1130" d="M89 341q0 70 18 124.5t44.5 88.5t66.5 58.5t74 36.5t77 21q-222 45 -222 315q0 79 23 139t62 97.5t98 60.5t122.5 31.5t143.5 8.5q222 0 378 -50q16 -5 22 -12t7 -13.5t1 -28.5v-282q0 -16 -3 -19t-18 -3h-110q-11 0 -15 3t-7 16l-36 193q-87 19 -202 19q-54 0 -93 -6.5 t-75 -24.5t-55 -55t-19 -93q0 -116 68.5 -159.5t204.5 -43.5h119q25 0 25 -28v-121q0 -28 -25 -28h-119q-144 0 -222.5 -49t-78.5 -165q0 -111 78 -157t242 -46q81 0 167.5 10t147 21t70.5 12q13 1 17 -3.5t4 -18.5v-140q0 -14 -5.5 -19.5t-22.5 -8.5q-212 -41 -460 -41 q-82 0 -149 8.5t-133 32.5t-110.5 63t-72 104t-27.5 152zM307 1475q0 45 31 76.5t79 31.5t81 -32t33 -76q0 -45 -32.5 -76t-81.5 -31q-48 0 -79 30.5t-31 76.5zM661 1475q0 45 31.5 76.5t80.5 31.5q48 0 80.5 -32t32.5 -76q0 -45 -32.5 -76t-80.5 -31q-51 0 -81.5 30.5 t-30.5 76.5z" />
<glyph unicode="&#xcc;" horiz-adv-x="722" d="M76 1594q-14 13 -11.5 22t19.5 9h180q21 0 32 -6t26 -27l143 -183q15 -23 12 -32t-23 -9h-91q-31 0 -73 36zM82 22v86q0 10 0.5 14t5 7.5t13.5 4.5q94 10 119.5 25.5t25.5 62.5v29h2v823q0 57 -19.5 72t-103.5 19q-20 1 -24 7t-4 25v80q0 16 4 21t20 5h499q14 0 17 -3.5 t3 -18.5v-88q0 -11 -0.5 -14t-4.5 -6.5t-13 -5.5q-87 -8 -114.5 -21.5t-30.5 -50.5v-866q0 -57 19 -72t104 -19q14 -1 19.5 -5t6.5 -8.5t1 -18.5v-80q0 -16 -4 -21t-20 -5h-499q-15 0 -18.5 4t-3.5 18z" />
<glyph unicode="&#xcd;" horiz-adv-x="724" d="M82 22v86q0 10 0.5 14t5 7.5t13.5 4.5q87 8 114.5 22t30.5 53v865q0 57 -19 72t-104 19q-19 1 -23.5 7t-4.5 25v80q0 16 4 21t20 5h499q15 0 18 -3.5t3 -18.5v-88q0 -10 -1 -14t-5 -7t-13 -5q-87 -8 -114.5 -21.5t-28.5 -50.5v-905q4 -29 28.5 -39t92.5 -13 q20 -1 24 -7.5t4 -24.5v-80q0 -16 -4.5 -21t-20.5 -5h-497q-15 0 -18.5 4t-3.5 18zM287 1419l128 165q15 20 26.5 27t31.5 7h186q17 0 19.5 -9.5t-11.5 -22.5l-209 -180q-28 -28 -67 -28h-89q-42 0 -15 41z" />
<glyph unicode="&#xce;" horiz-adv-x="722" d="M82 22v86q0 10 0.5 14t5 7.5t13.5 4.5q94 10 119.5 25.5t25.5 62.5v29h2v823q0 57 -19.5 72t-103.5 19q-20 1 -24 7t-4 25v80q0 16 4 21t20 5h499q14 0 17 -3.5t3 -18.5v-88q0 -11 -0.5 -14t-4.5 -6.5t-13 -5.5q-87 -8 -114.5 -21.5t-30.5 -50.5v-866q0 -57 19 -72 t104 -19q14 -1 19.5 -5t6.5 -8.5t1 -18.5v-80q0 -16 -4 -21t-20 -5h-499q-15 0 -18.5 4t-3.5 18zM91 1370q-7 15 -6 24t12 23l164 173q20 24 63 24h82q40 0 63 -24l164 -175q12 -14 12 -23.5t-8 -23.5t-32 -3l-240 119h-2l-238 -117q-24 -11 -34 3z" />
<glyph unicode="&#xcf;" horiz-adv-x="722" d="M73 1475q0 45 30.5 76.5t78.5 31.5t81 -32t33 -76q0 -45 -32.5 -76t-81.5 -31q-48 0 -78.5 30.5t-30.5 76.5zM82 22v86q0 10 0.5 14t5 7.5t13.5 4.5q94 10 119.5 25.5t25.5 62.5v29h2v823q0 57 -19.5 72t-103.5 19q-20 1 -24 7t-4 25v80q0 16 4 21t20 5h499q14 0 17 -3.5 t3 -18.5v-88q0 -11 -0.5 -14t-4.5 -6.5t-13 -5.5q-87 -8 -114.5 -21.5t-30.5 -50.5v-866q0 -57 19 -72t104 -19q14 -1 19.5 -5t6.5 -8.5t1 -18.5v-80q0 -16 -4 -21t-20 -5h-499q-15 0 -18.5 4t-3.5 18zM426 1475q0 45 31.5 76.5t80.5 31.5q48 0 81 -32t33 -76 q0 -45 -32.5 -76t-81.5 -31q-51 0 -81.5 30.5t-30.5 76.5z" />
<glyph unicode="&#xd0;" horiz-adv-x="1457" d="M82 611v115q0 13 4.5 17t14.5 4h150v357q-3 31 -30.5 43t-112.5 20q-14 3 -17 7.5t-3 17.5v89q0 14 4 18t18 4h532q197 0 337.5 -44t224 -131t121.5 -204t38 -274q0 -221 -69.5 -362t-226.5 -214.5t-412 -73.5h-545q-14 0 -18 4t-4 18v86v10t1 6.5t2.5 5.5t5 2t9.5 2 q85 8 113.5 21.5t31.5 45.5v389h-149q-12 0 -16 3.5t-4 17.5zM492 169h154q466 0 466 477q0 240 -114.5 363t-353.5 123h-152v-385h260q15 0 15 -15v-119q0 -14 -5.5 -18.5t-20.5 -4.5h-249v-421z" />
<glyph unicode="&#xd1;" horiz-adv-x="1500" d="M84 1193v88q0 14 4 18t18 4h298q22 0 34.5 -8t25.5 -25l620 -920v739q0 40 -27.5 55t-118.5 23q-12 3 -14 7t-2 19v88q0 15 3 18.5t17 3.5h460q14 0 18 -5t4 -21v-80q0 -14 -1 -19t-6.5 -8.5t-18.5 -4.5q-80 -4 -101.5 -18t-21.5 -60v-1044q0 -13 -1 -20.5t-8 -15 t-20 -7.5h-140q-38 0 -58 24l-612 899v-698q0 -52 20 -67.5t103 -19.5q14 -1 19.5 -5t6.5 -8.5t1 -18.5v-80q0 -16 -4 -21t-20 -5h-447q-16 0 -19 3.5t-3 18.5v86q0 14 4.5 19.5t19.5 6.5q84 8 106.5 23.5t22.5 65.5v879q0 33 -29.5 45.5t-115.5 19.5q-12 3 -14.5 7.5 t-2.5 18.5zM508 1448q25 53 66 92t91 39q49 0 107 -31t86 -31q31 0 49 38q7 18 22 11l63 -28q12 -5 14 -10.5t-4 -19.5q-23 -53 -63.5 -92.5t-91.5 -39.5t-111.5 30.5t-80.5 30.5q-11 0 -20.5 -6t-13.5 -11t-16 -22q-9 -14 -24 -9l-60 30q-14 6 -16.5 11t3.5 18z" />
<glyph unicode="&#xd2;" horiz-adv-x="1496" d="M89 652q0 117 25.5 218t78 184.5t130 142.5t185.5 92t240 33q164 0 291 -50t207 -140.5t121 -212t41 -267.5q0 -147 -41 -268.5t-121 -212t-207 -140.5t-291 -50t-291 50t-207 140.5t-120.5 212t-40.5 268.5zM339 655q0 -225 108 -356t301 -131t300.5 130.5t107.5 356.5 q0 223 -107.5 351t-300.5 128t-301 -128t-108 -351zM462 1594q-14 13 -12 22t19 9h181q21 0 31.5 -6t25.5 -27l144 -183q15 -23 12 -32t-23 -9h-92q-20 0 -34 8t-38 28z" />
<glyph unicode="&#xd3;" horiz-adv-x="1496" d="M89 652q0 117 25.5 218t78 184.5t130 142.5t185.5 92t240 33q164 0 291 -50t207 -140.5t121 -212t41 -267.5q0 -147 -41 -268.5t-121 -212t-207 -140.5t-291 -50t-291 50t-207 140.5t-120.5 212t-40.5 268.5zM339 655q0 -225 108 -356t301 -131t300.5 130.5t107.5 356.5 q0 223 -107.5 351t-300.5 128t-301 -128t-108 -351zM676 1419l128 165q15 20 26.5 27t31.5 7h186q17 0 19.5 -9.5t-11.5 -22.5l-209 -180q-28 -28 -67 -28h-89q-42 0 -15 41z" />
<glyph unicode="&#xd4;" horiz-adv-x="1496" d="M89 652q0 117 25.5 218t78 184.5t130 142.5t185.5 92t240 33q164 0 291 -50t207 -140.5t121 -212t41 -267.5q0 -147 -41 -268.5t-121 -212t-207 -140.5t-291 -50t-291 50t-207 140.5t-120.5 212t-40.5 268.5zM339 655q0 -225 108 -356t301 -131t300.5 130.5t107.5 356.5 q0 223 -107.5 351t-300.5 128t-301 -128t-108 -351zM469 1383q-7 12 11 34l164 173q20 24 63 24h82q41 0 64 -24l164 -175q12 -14 12 -23.5t-9 -23.5q-8 -14 -31 -3l-241 119h-1l-239 -117q-18 -7 -25 -3.5t-14 19.5z" />
<glyph unicode="&#xd5;" horiz-adv-x="1496" d="M89 652q0 117 25.5 218t78 184.5t130 142.5t185.5 92t240 33q164 0 291 -50t207 -140.5t121 -212t41 -267.5q0 -147 -41 -268.5t-121 -212t-207 -140.5t-291 -50t-291 50t-207 140.5t-120.5 212t-40.5 268.5zM339 655q0 -225 108 -356t301 -131t300.5 130.5t107.5 356.5 q0 223 -107.5 351t-300.5 128t-301 -128t-108 -351zM525 1448q25 53 65.5 92t90.5 39q49 0 107.5 -31t86.5 -31q30 0 48 38q7 19 23 11l63 -28q12 -5 13.5 -10.5t-4.5 -19.5q-23 -53 -63 -92.5t-91 -39.5t-111.5 30.5t-80.5 30.5q-11 0 -20.5 -6t-13.5 -11t-16 -22 q-9 -14 -24 -9l-60 30q-14 6 -16.5 11t3.5 18z" />
<glyph unicode="&#xd6;" horiz-adv-x="1496" d="M89 652q0 117 25.5 218t78 184.5t130 142.5t185.5 92t240 33q164 0 291 -50t207 -140.5t121 -212t41 -267.5q0 -147 -41 -268.5t-121 -212t-207 -140.5t-291 -50t-291 50t-207 140.5t-120.5 212t-40.5 268.5zM339 655q0 -225 108 -356t301 -131t300.5 130.5t107.5 356.5 q0 223 -107.5 351t-300.5 128t-301 -128t-108 -351zM460 1475q0 45 31 76.5t79 31.5t80.5 -32t32.5 -76q0 -45 -32.5 -76t-80.5 -31t-79 30.5t-31 76.5zM814 1475q0 45 31 76.5t80 31.5q48 0 81 -32t33 -76q0 -45 -32.5 -76t-81.5 -31q-51 0 -81 30.5t-30 76.5z" />
<glyph unicode="&#xd7;" horiz-adv-x="942" d="M86 734l106 117l275 -261l244 266l116 -106l-244 -266l272 -259l-105 -117l-273 257l-244 -264l-116 106l244 266z" />
<glyph unicode="&#xd8;" horiz-adv-x="1496" d="M89 652q0 117 25.5 218t78 184.5t130 142.5t185.5 92t240 33q84 0 153 -13l26 63q10 21 23 21h199q29 0 18 -25l-54 -132q146 -84 220.5 -235.5t74.5 -348.5q0 -147 -41 -268.5t-121 -212t-207 -140.5t-291 -50q-66 0 -147 12l-33 -84q-5 -13 -12.5 -16t-24.5 -3h-198 q-19 0 -9 19l63 154q-148 82 -223 235t-75 354zM339 655q0 -254 134 -385l354 856q-52 8 -79 8q-193 0 -301 -128t-108 -351zM676 173q30 -5 72 -5q193 0 300.5 130.5t107.5 356.5q0 247 -128 375z" />
<glyph unicode="&#xd9;" horiz-adv-x="1450" d="M61 1197v80q0 16 4.5 21t20.5 5h515q15 0 19 -4t4 -18v-88q0 -10 -1 -14t-5 -7t-13 -5q-84 -8 -113 -21.5t-32 -45.5v-616q0 -150 77.5 -233t222.5 -83q142 0 220 83t78 233v592q0 55 -20 70t-103 19q-20 1 -24 7t-4 25v80q0 16 4 21t20 5h447q16 0 19 -3.5t3 -18.5v-88 q0 -24 -19 -24q-90 -11 -117.5 -26t-27.5 -54v-605q0 -112 -30 -202.5t-89.5 -158.5t-156.5 -105t-225 -37q-260 0 -391.5 127.5t-131.5 375.5v592q0 55 -20 70t-103 19q-20 1 -24 7t-4 25zM475 1594q-14 13 -12 22t19 9h181q21 0 32 -6t26 -27l143 -183q15 -23 12 -32 t-23 -9h-92q-19 0 -33.5 8t-38.5 28z" />
<glyph unicode="&#xda;" horiz-adv-x="1450" d="M61 1197v80q0 16 4.5 21t20.5 5h515q15 0 19 -4t4 -18v-88q0 -10 -1 -14t-5 -7t-13 -5q-84 -8 -113 -21.5t-32 -45.5v-616q0 -150 77.5 -233t222.5 -83q142 0 220 83t78 233v592q0 55 -20 70t-103 19q-20 1 -24 7t-4 25v80q0 16 4 21t20 5h447q16 0 19 -3.5t3 -18.5v-88 q0 -24 -19 -24q-90 -11 -117.5 -26t-27.5 -54v-605q0 -112 -30 -202.5t-89.5 -158.5t-156.5 -105t-225 -37q-260 0 -391.5 127.5t-131.5 375.5v592q0 55 -20 70t-103 19q-20 1 -24 7t-4 25zM687 1419l128 165q15 20 26.5 27t31.5 7h186q17 0 19.5 -9.5t-11.5 -22.5 l-209 -180q-28 -28 -67 -28h-89q-42 0 -15 41z" />
<glyph unicode="&#xdb;" horiz-adv-x="1450" d="M61 1197v80q0 16 4.5 21t20.5 5h515q15 0 19 -4t4 -18v-88q0 -10 -1 -14t-5 -7t-13 -5q-84 -8 -113 -21.5t-32 -45.5v-616q0 -150 77.5 -233t222.5 -83q142 0 220 83t78 233v592q0 55 -20 70t-103 19q-20 1 -24 7t-4 25v80q0 16 4 21t20 5h447q16 0 19 -3.5t3 -18.5v-88 q0 -24 -19 -24q-90 -11 -117.5 -26t-27.5 -54v-605q0 -112 -30 -202.5t-89.5 -158.5t-156.5 -105t-225 -37q-260 0 -391.5 127.5t-131.5 375.5v592q0 55 -20 70t-103 19q-20 1 -24 7t-4 25zM480 1383q-7 11 12 34l163 173q20 24 64 24h82q40 0 63 -24l164 -175 q12 -14 12 -23.5t-9 -23.5q-8 -14 -31 -3l-240 119h-2l-239 -117q-18 -7 -25 -3.5t-14 19.5z" />
<glyph unicode="&#xdc;" horiz-adv-x="1450" d="M61 1197v80q0 16 4.5 21t20.5 5h515q15 0 19 -4t4 -18v-88q0 -10 -1 -14t-5 -7t-13 -5q-84 -8 -113 -21.5t-32 -45.5v-616q0 -150 77.5 -233t222.5 -83q142 0 220 83t78 233v592q0 55 -20 70t-103 19q-20 1 -24 7t-4 25v80q0 16 4 21t20 5h447q16 0 19 -3.5t3 -18.5v-88 q0 -24 -19 -24q-90 -11 -117.5 -26t-27.5 -54v-605q0 -112 -30 -202.5t-89.5 -158.5t-156.5 -105t-225 -37q-260 0 -391.5 127.5t-131.5 375.5v592q0 55 -20 70t-103 19q-20 1 -24 7t-4 25zM471 1475q0 45 31 76.5t79 31.5t80.5 -32t32.5 -76q0 -45 -32.5 -76t-80.5 -31 t-79 30.5t-31 76.5zM825 1475q0 45 31 76.5t80 31.5q48 0 81 -32t33 -76q0 -45 -32.5 -76t-81.5 -31q-51 0 -81 30.5t-30 76.5z" />
<glyph unicode="&#xdd;" horiz-adv-x="1284" d="M30 1192v91q0 13 3.5 16.5t16.5 3.5h484q12 0 15.5 -4.5t3.5 -17.5v-88q0 -15 -4 -21t-18 -7q-72 -5 -95 -11.5t-23 -25.5q0 -61 20 -126t58 -131.5t74 -118t87 -117.5q119 140 188.5 259t69.5 234q0 19 -22 25.5t-93 11.5q-15 1 -19.5 7t-4.5 21v88q0 14 3 18t17 4h443 q14 0 17.5 -3.5t3.5 -16.5v-91q0 -25 -19 -25q-77 -7 -104.5 -17t-31.5 -35q-18 -159 -113.5 -329.5t-226.5 -312.5v-222h1v-22q0 -57 19 -72t103 -19q14 -1 19.5 -5t6.5 -8.5t1 -18.5v-80q0 -16 -4 -21t-18 -5h-499q-15 0 -18.5 4t-3.5 18v86q0 11 0.5 14.5t4.5 7t13 4.5 q94 10 120 25.5t26 62.5v225q-137 149 -237 326t-110 342q-3 20 -32.5 32t-103.5 20q-9 2 -13 5t-4.5 6t-0.5 14zM596 1419l128 165q15 20 26.5 27t31.5 7h186q17 0 19.5 -9.5t-11.5 -22.5l-209 -180q-28 -28 -67 -28h-89q-42 0 -15 41z" />
<glyph unicode="&#xde;" horiz-adv-x="1159" d="M80 22v86q0 10 0.5 14t5 7.5t13.5 4.5q94 10 119.5 25.5t25.5 62.5v852q0 57 -19.5 72t-103.5 19q-20 1 -24 7t-4 25v80q0 16 4 21t20 5h499q14 0 17.5 -4t3.5 -18v-88q0 -10 -1 -14t-5 -7t-13 -5q-87 -8 -114.5 -21.5t-30.5 -50.5v-56h97q126 0 219.5 -20t150 -53.5 t91 -83.5t46.5 -102.5t12 -118.5q0 -97 -26 -174t-80.5 -136.5t-148.5 -91.5t-223 -32q-79 0 -138 11v-29q2 -42 24.5 -55t100.5 -16q18 -1 22 -7.5t4 -24.5v-80q0 -16 -4 -21t-20 -5h-498q-15 0 -18.5 4t-3.5 18zM473 415q12 -5 54 -9t69 -4q121 0 187 64.5t66 185.5 q0 103 -59 165t-185 62h-132v-464z" />
<glyph unicode="&#xdf;" horiz-adv-x="1199" d="M145 28v925q0 369 428 369q87 0 160.5 -17t134 -52.5t94.5 -97.5t34 -146q0 -59 -15 -106t-47.5 -86.5t-59.5 -63.5t-75 -60q164 -51 246.5 -132.5t82.5 -212.5q0 -167 -133.5 -257.5t-385.5 -90.5h-39q-14 0 -19 4.5t-5 14.5v115q0 15 4.5 19.5t22.5 4.5h47 q119 0 197.5 48.5t78.5 143.5q0 35 -13.5 65.5t-31.5 50.5t-51.5 41.5t-56.5 32.5t-65 29t-60 27q-58 31 -73 49q-14 18 -14 40q0 25 19 46t55 47q3 2 20.5 14t22.5 16t21 16t22 18l18.5 18.5t18 22t14 24t12 28t6.5 30.5t3 35q0 158 -182 158q-216 0 -216 -205v-925 q0 -18 -4.5 -23t-19.5 -5h-166q-19 0 -24.5 4.5t-5.5 23.5z" />
<glyph unicode="&#xe0;" horiz-adv-x="1079" d="M73 209q0 64 20.5 110.5t55 71.5t79.5 40.5t94.5 21.5t98.5 10.5t94 11.5t79.5 20.5t55 41.5t20.5 70q0 132 -199 132q-80 0 -149 -26l-26 -169q0 -17 -19 -17h-108q-14 0 -17 3.5t-3 15.5v236q0 24 6 35.5t22 18.5q38 18 123.5 33t183.5 15q223 0 322 -84t99 -247v-283 q0 -74 16 -98.5t47 -24.5q45 0 45 45q0 12 1 17t8 9.5t22 4.5h36q21 0 26.5 -7t5.5 -30q0 -197 -202 -197q-161 0 -208 134q-87 -138 -341 -138q-147 0 -217.5 52.5t-70.5 171.5zM259 1231q-14 13 -12 22t19 9h181q21 0 32 -6t26 -27l143 -183q15 -22 12 -31.5t-23 -9.5h-91 q-31 0 -73 36zM302 212q0 -48 27.5 -70.5t85.5 -22.5q106 0 180 66.5t81 155.5l7 85q-23 -41 -71.5 -61.5t-99.5 -26.5t-99.5 -14t-79.5 -34.5t-31 -77.5z" />
<glyph unicode="&#xe1;" horiz-adv-x="1199" d="M78 436q0 201 96.5 324.5t289.5 123.5q92 0 171 -28.5t123 -92.5v51q0 52 44 52h62q19 0 48 -4.5t84 -14.5t102 -17q15 -2 20 -6.5t5 -19.5v-82q0 -15 -3 -19.5t-14 -4.5l-91 -5q-47 -4 -47 -60v-363q0 -74 16.5 -98.5t48.5 -24.5q24 0 33.5 11t9.5 34q0 12 1 17.5 t8.5 9.5t22.5 4h35q22 0 27 -6.5t5 -30.5q0 -197 -199 -197q-167 0 -213 139q-87 -139 -307 -139q-126 0 -212.5 59.5t-126 158t-39.5 229.5zM309 439q0 -120 56 -202t166 -82q108 0 164.5 77t56.5 209q0 129 -56 206t-164 77q-75 0 -126.5 -40.5t-74 -103t-22.5 -141.5z M505 1056l128 165q15 20 26.5 27t31.5 7h186q17 0 19 -9.5t-12 -22.5l-208 -180q-28 -28 -67 -28h-90q-41 0 -14 41z" />
<glyph unicode="&#xe2;" horiz-adv-x="1079" d="M73 209q0 64 20.5 110.5t55 71.5t79.5 40.5t94.5 21.5t98.5 10.5t94 11.5t79.5 20.5t55 41.5t20.5 70q0 132 -199 132q-80 0 -149 -26l-26 -169q0 -17 -19 -17h-108q-14 0 -17 3.5t-3 15.5v236q0 24 6 35.5t22 18.5q38 18 123.5 33t183.5 15q223 0 322 -84t99 -247v-283 q0 -74 16 -98.5t47 -24.5q45 0 45 45q0 12 1 17t8 9.5t22 4.5h36q21 0 26.5 -7t5.5 -30q0 -197 -202 -197q-161 0 -208 134q-87 -138 -341 -138q-147 0 -217.5 52.5t-70.5 171.5zM264 1020q-7 11 12 34l163 173q20 24 64 24h82q40 0 63 -24l164 -175q12 -14 12 -23.5 t-9 -23.5q-8 -14 -31 -3l-240 119h-2l-239 -117q-18 -7 -25 -3.5t-14 19.5zM302 212q0 -48 27.5 -70.5t85.5 -22.5q106 0 180 66.5t81 155.5l7 85q-23 -41 -71.5 -61.5t-99.5 -26.5t-99.5 -14t-79.5 -34.5t-31 -77.5z" />
<glyph unicode="&#xe3;" horiz-adv-x="1079" d="M73 209q0 64 20.5 110.5t55 71.5t79.5 40.5t94.5 21.5t98.5 10.5t94 11.5t79.5 20.5t55 41.5t20.5 70q0 132 -199 132q-80 0 -149 -26l-26 -169q0 -17 -19 -17h-108q-14 0 -17 3.5t-3 15.5v236q0 24 6 35.5t22 18.5q38 18 123.5 33t183.5 15q223 0 322 -84t99 -247v-283 q0 -74 16 -98.5t47 -24.5q45 0 45 45q0 12 1 17t8 9.5t22 4.5h36q21 0 26.5 -7t5.5 -30q0 -197 -202 -197q-161 0 -208 134q-87 -138 -341 -138q-147 0 -217.5 52.5t-70.5 171.5zM302 212q0 -48 27.5 -70.5t85.5 -22.5q106 0 180 66.5t81 155.5l7 85q-23 -41 -71.5 -61.5 t-99.5 -26.5t-99.5 -14t-79.5 -34.5t-31 -77.5zM320 1085q25 53 66 92t91 39q49 0 107 -31t86 -31q31 0 49 38q7 18 22 11l63 -28q12 -5 14 -10.5t-4 -19.5q-23 -53 -63.5 -92.5t-91.5 -39.5t-111.5 30.5t-80.5 30.5q-11 0 -20.5 -6t-13.5 -11t-16 -22q-9 -14 -24 -9l-60 30 q-14 6 -16.5 11t3.5 18z" />
<glyph unicode="&#xe4;" horiz-adv-x="1079" d="M73 209q0 64 20.5 110.5t55 71.5t79.5 40.5t94.5 21.5t98.5 10.5t94 11.5t79.5 20.5t55 41.5t20.5 70q0 132 -199 132q-80 0 -149 -26l-26 -169q0 -17 -19 -17h-108q-14 0 -17 3.5t-3 15.5v236q0 24 6 35.5t22 18.5q38 18 123.5 33t183.5 15q223 0 322 -84t99 -247v-283 q0 -74 16 -98.5t47 -24.5q45 0 45 45q0 12 1 17t8 9.5t22 4.5h36q21 0 26.5 -7t5.5 -30q0 -197 -202 -197q-161 0 -208 134q-87 -138 -341 -138q-147 0 -217.5 52.5t-70.5 171.5zM255 1112q0 44 31 75.5t79 31.5t80.5 -31.5t32.5 -75.5q0 -45 -32.5 -76t-80.5 -31t-79 30.5 t-31 76.5zM302 212q0 -48 27.5 -70.5t85.5 -22.5q106 0 180 66.5t81 155.5l7 85q-23 -41 -71.5 -61.5t-99.5 -26.5t-99.5 -14t-79.5 -34.5t-31 -77.5zM609 1112q0 45 31.5 76t80.5 31q48 0 80.5 -31.5t32.5 -75.5q0 -45 -32.5 -76t-80.5 -31q-51 0 -81.5 30.5t-30.5 76.5z " />
<glyph unicode="&#xe5;" horiz-adv-x="1079" d="M73 209q0 64 20.5 110.5t55 71.5t79.5 40.5t94.5 21.5t98.5 10.5t94 11.5t79.5 20.5t55 41.5t20.5 70q0 132 -199 132q-80 0 -149 -26l-26 -169q0 -17 -19 -17h-108q-14 0 -17 3.5t-3 15.5v236q0 24 6 35.5t22 18.5q38 18 123.5 33t183.5 15q223 0 322 -84t99 -247v-283 q0 -74 16 -98.5t47 -24.5q45 0 45 45q0 12 1 17t8 9.5t22 4.5h36q21 0 26.5 -7t5.5 -30q0 -197 -202 -197q-161 0 -208 134q-87 -138 -341 -138q-147 0 -217.5 52.5t-70.5 171.5zM296 1136q0 134 248 134q247 0 247 -134q0 -59 -56 -97.5t-191 -38.5t-191.5 38.5t-56.5 97.5 zM302 212q0 -48 27.5 -70.5t85.5 -22.5q106 0 180 66.5t81 155.5l7 85q-23 -41 -71.5 -61.5t-99.5 -26.5t-99.5 -14t-79.5 -34.5t-31 -77.5zM458 1136q0 -25 20 -43.5t66 -18.5q44 0 64.5 18.5t20.5 43.5q0 23 -20.5 41t-64.5 18q-46 0 -66 -17.5t-20 -41.5z" />
<glyph unicode="&#xe6;" horiz-adv-x="1599" d="M73 210q0 46 10.5 83.5t26 63t42 45t51 30.5t61.5 19.5t63.5 12t67.5 7.5l55.5 6t50.5 7t48.5 10.5t38 15t32 21t18.5 29t8 38.5q0 61 -37 92t-144 31q-92 0 -160 -23l-16 -134q-2 -18 -21 -18h-106q-14 0 -17.5 3.5t-3.5 16.5v220q0 24 5.5 35t21.5 19q38 17 121.5 30.5 t179.5 13.5q238 0 332 -100q112 100 324 100q377 0 377 -281q0 -55 -15.5 -97.5t-40 -72t-66 -50t-82 -32t-99.5 -18t-107.5 -8t-117.5 -1.5h-54q25 -97 93.5 -136t178.5 -39q51 0 103.5 10t110.5 26.5t80 21.5q13 4 19.5 1t6.5 -20v-93q0 -24 -5 -32.5t-21 -17.5 q-58 -30 -148.5 -47t-179.5 -17q-299 0 -408 162q-87 -162 -366 -162q-159 0 -235 54t-76 175zM302 216q0 -50 26 -70.5t80 -20.5q102 0 176.5 70t74.5 164v58q-40 -69 -184 -87q-32 -4 -46 -6t-39.5 -7t-37 -12.5t-25.5 -19t-19.5 -29t-5.5 -40.5zM907 458q171 4 234 17 q142 29 142 130q0 60 -42.5 90.5t-110.5 30.5q-217 0 -223 -268z" />
<glyph unicode="&#xe7;" horiz-adv-x="949" d="M76 419q0 227 121.5 346t342.5 119q88 0 164.5 -14t118.5 -32q17 -7 22.5 -16.5t5.5 -33.5v-270q0 -12 -4 -15.5t-17 -3.5h-106q-17 0 -20 17l-26 178q-51 25 -127 25q-114 0 -181 -71.5t-67 -219.5q0 -153 76 -212.5t222 -59.5q93 0 244 32q14 3 20 -3t6 -23v-104 q0 -13 -5.5 -19t-20.5 -11q-102 -33 -244 -37l-22 -58q153 -8 153 -134q0 -84 -61.5 -123t-156.5 -39q-83 0 -155 26q-14 6 -17 11t4 26l11 21q13 23 28 15q38 -13 95 -13q86 0 86 70q0 66 -114 66q-24 0 -26 3q-4 5 4 23l48 106q-197 13 -299.5 116t-102.5 312z" />
<glyph unicode="&#xe8;" horiz-adv-x="994" d="M78 430q0 225 107.5 339.5t337.5 114.5q378 0 378 -281q0 -55 -15.5 -97.5t-40 -72t-66 -50t-82 -32t-100 -18t-108 -8t-117.5 -1.5h-54q25 -97 93.5 -136t178.5 -39q51 0 103.5 10t110.5 26.5t80 21.5q13 4 19.5 1t6.5 -20v-93q0 -24 -5 -32.5t-21 -17.5 q-58 -30 -148 -47t-179 -17q-246 0 -362.5 110.5t-116.5 338.5zM238 1231q-14 13 -11.5 22t19.5 9h180q21 0 32 -6t26 -27l143 -183q15 -22 12 -31.5t-23 -9.5h-91q-31 0 -73 36zM305 458q171 4 234 17q141 30 142 130q0 60 -42 90.5t-110 30.5q-218 0 -224 -268z" />
<glyph unicode="&#xe9;" horiz-adv-x="994" d="M78 430q0 225 107.5 339.5t337.5 114.5q378 0 378 -281q0 -55 -15.5 -97.5t-40 -72t-66 -50t-82 -32t-100 -18t-108 -8t-117.5 -1.5h-54q25 -97 93.5 -136t178.5 -39q51 0 103.5 10t110.5 26.5t80 21.5q13 4 19.5 1t6.5 -20v-93q0 -24 -5 -32.5t-21 -17.5 q-58 -30 -148 -47t-179 -17q-246 0 -362.5 110.5t-116.5 338.5zM305 458q171 4 234 17q141 30 142 130q0 60 -42 90.5t-110 30.5q-218 0 -224 -268zM451 1056l128 165q15 20 26.5 27t31.5 7h186q17 0 19 -9.5t-12 -22.5l-208 -180q-28 -28 -67 -28h-90q-41 0 -14 41z" />
<glyph unicode="&#xea;" horiz-adv-x="994" d="M78 430q0 225 107.5 339.5t337.5 114.5q378 0 378 -281q0 -55 -15.5 -97.5t-40 -72t-66 -50t-82 -32t-100 -18t-108 -8t-117.5 -1.5h-54q25 -97 93.5 -136t178.5 -39q51 0 103.5 10t110.5 26.5t80 21.5q13 4 19.5 1t6.5 -20v-93q0 -24 -5 -32.5t-21 -17.5 q-58 -30 -148 -47t-179 -17q-246 0 -362.5 110.5t-116.5 338.5zM249 1007q-7 15 -6 24t12 23l164 173q20 24 63 24h82q40 0 63 -24l164 -175q12 -14 12 -23.5t-8 -23.5t-32 -3l-240 119h-2l-238 -117q-24 -11 -34 3zM305 458q171 4 234 17q141 30 142 130q0 60 -42 90.5 t-110 30.5q-218 0 -224 -268z" />
<glyph unicode="&#xeb;" horiz-adv-x="994" d="M78 430q0 225 107.5 339.5t337.5 114.5q378 0 378 -281q0 -55 -15.5 -97.5t-40 -72t-66 -50t-82 -32t-100 -18t-108 -8t-117.5 -1.5h-54q25 -97 93.5 -136t178.5 -39q51 0 103.5 10t110.5 26.5t80 21.5q13 4 19.5 1t6.5 -20v-93q0 -24 -5 -32.5t-21 -17.5 q-58 -30 -148 -47t-179 -17q-246 0 -362.5 110.5t-116.5 338.5zM235 1112q0 45 30.5 76t78.5 31t81 -31.5t33 -75.5q0 -45 -32.5 -76t-81.5 -31q-48 0 -78.5 30.5t-30.5 76.5zM305 458q171 4 234 17q141 30 142 130q0 60 -42 90.5t-110 30.5q-218 0 -224 -268zM588 1112 q0 45 31.5 76t80.5 31q48 0 81 -31.5t33 -75.5q0 -45 -32.5 -76t-81.5 -31q-51 0 -81.5 30.5t-30.5 76.5z" />
<glyph unicode="&#xec;" horiz-adv-x="631" d="M20 1231q-14 13 -11.5 22t19.5 9h181q21 0 31.5 -6t25.5 -27l144 -183q27 -41 -12 -41h-91q-19 0 -33.5 8t-38.5 28zM47 730v82q0 16 4.5 21t19.5 7q156 26 218 26h82q44 0 44 -51v-545q0 -74 16 -98.5t47 -24.5q45 0 45 45q0 12 1 17.5t8 9.5t21 4h37q21 0 26.5 -7 t5.5 -30q0 -197 -199 -197q-229 0 -229 272v381q0 34 -10 45t-37 13l-86 6q-7 0 -10 3t-3.5 6.5t-0.5 14.5z" />
<glyph unicode="&#xed;" horiz-adv-x="631" d="M47 730v82q0 16 4.5 21t19.5 7q156 26 218 26h82q44 0 44 -51v-545q0 -74 16 -98.5t47 -24.5q45 0 45 45q0 12 1 17.5t8 9.5t21 4h37q21 0 26.5 -7t5.5 -30q0 -197 -199 -197q-229 0 -229 272v381q0 34 -10 45t-37 13l-86 6q-7 0 -10 3t-3.5 6.5t-0.5 14.5zM231 1056 l128 165q15 20 26.5 27t31.5 7h186q17 0 19.5 -9.5t-11.5 -22.5l-209 -180q-28 -28 -67 -28h-89q-42 0 -15 41z" />
<glyph unicode="&#xee;" horiz-adv-x="631" d="M26 1020q-7 12 11 34l164 173q20 24 63 24h82q41 0 64 -24l163 -175q12 -15 12.5 -24t-8.5 -23q-8 -14 -31 -3l-241 119h-2l-238 -117q-18 -7 -25 -3.5t-14 19.5zM47 730v82q0 16 4.5 21t19.5 7q156 26 218 26h82q44 0 44 -51v-545q0 -74 16 -98.5t47 -24.5q45 0 45 45 q0 12 1 17.5t8 9.5t21 4h37q21 0 26.5 -7t5.5 -30q0 -197 -199 -197q-229 0 -229 272v381q0 34 -10 45t-37 13l-86 6q-7 0 -10 3t-3.5 6.5t-0.5 14.5z" />
<glyph unicode="&#xef;" horiz-adv-x="631" d="M17 1112q0 44 31 75.5t79 31.5t80.5 -31.5t32.5 -75.5q0 -45 -32.5 -76t-80.5 -31t-79 30.5t-31 76.5zM47 730v82q0 16 4.5 21t19.5 7q156 26 218 26h82q44 0 44 -51v-545q0 -74 16 -98.5t47 -24.5q45 0 45 45q0 12 1 17.5t8 9.5t21 4h37q21 0 26.5 -7t5.5 -30 q0 -197 -199 -197q-229 0 -229 272v381q0 34 -10 45t-37 13l-86 6q-7 0 -10 3t-3.5 6.5t-0.5 14.5zM371 1112q0 45 31 76t80 31q48 0 81 -31.5t33 -75.5q0 -45 -32.5 -76t-81.5 -31q-51 0 -81 30.5t-30 76.5z" />
<glyph unicode="&#xf0;" horiz-adv-x="1083" d="M78 417q0 65 12 123.5t40 112t71 92.5t109.5 62t149.5 23q148 0 251 -106q-55 248 -229 350l-69 -124q-7 -13 -24 -6l-104 61q-21 11 -11 30l54 95q-58 11 -118 11h-15q-33 0 -33 39v108q0 19 7 26.5t26 7.5h15q119 0 211 -22l72 128q12 19 34 6l89 -53q15 -9 19 -15.5 t-2 -19.5l-54 -99q133 -62 223.5 -174.5t132.5 -254.5t42 -312q0 -525 -448 -525q-219 0 -335 117.5t-116 318.5zM318 417q0 -131 55.5 -198.5t153.5 -67.5q210 0 210 329v13q-28 86 -78.5 127t-133.5 41q-107 0 -157 -65.5t-50 -178.5z" />
<glyph unicode="&#xf1;" horiz-adv-x="1226" d="M61 22v86q0 10 0.5 14t5 7.5t13.5 4.5q85 8 113.5 22.5t31.5 52.5v435q0 58 -46 58l-84 5q-11 1 -14 6.5t-3 18.5v83q0 16 4.5 20.5t16.5 6.5q46 6 100.5 15.5t83.5 13.5t47 4h61q45 0 45 -50v-118q49 91 133.5 134t186.5 43q132 0 197 -73.5t65 -233.5v-307 q0 -74 16.5 -98.5t47.5 -24.5q25 0 34.5 11t9.5 34q0 12 1 17.5t8.5 9.5t22.5 4h35q22 0 27 -6.5t5 -30.5q0 -197 -199 -197q-229 0 -229 272v290q0 91 -30.5 125.5t-92.5 34.5q-103 0 -166 -86t-63 -260v-136q0 -57 19 -72t104 -19q18 -1 22 -7.5t4 -24.5v-80 q0 -9 -0.5 -12.5t-2.5 -7.5t-6.5 -5t-12.5 -1h-488q-15 0 -19 4t-4 18zM439 1085q25 53 66 92t91 39q49 0 107 -31t86 -31q31 0 49 38q7 18 22 11l63 -28q12 -5 14 -10.5t-4 -19.5q-23 -53 -63.5 -92.5t-91.5 -39.5t-111.5 30.5t-80.5 30.5q-11 0 -20.5 -6t-13.5 -11 t-16 -22q-9 -14 -24 -9l-60 30q-14 6 -16.5 11t3.5 18z" />
<glyph unicode="&#xf2;" horiz-adv-x="1061" d="M74 438q0 89 24.5 165.5t76.5 141t143.5 102t213.5 37.5q121 0 212 -37.5t142.5 -102t76 -141t24.5 -165.5t-24.5 -166t-76 -142t-143 -103t-212.5 -38t-212.5 38t-143 103t-76.5 142t-25 166zM246 1231q-14 13 -12 22t19 9h181q21 0 32 -6t26 -27l143 -183 q15 -22 12 -31.5t-23 -9.5h-92q-20 0 -34 8t-38 28zM300 432q0 -121 56.5 -198.5t174.5 -77.5t175 77.5t57 198.5q0 57 -13 107t-40 90.5t-72.5 64t-105.5 23.5q-80 0 -134 -41.5t-76 -103.5t-22 -140z" />
<glyph unicode="&#xf3;" horiz-adv-x="1061" d="M74 438q0 89 24.5 165.5t76.5 141t143.5 102t213.5 37.5q121 0 212 -37.5t142.5 -102t76 -141t24.5 -165.5t-24.5 -166t-76 -142t-143 -103t-212.5 -38t-212.5 38t-143 103t-76.5 142t-25 166zM300 432q0 -121 56.5 -198.5t174.5 -77.5t175 77.5t57 198.5q0 57 -13 107 t-40 90.5t-72.5 64t-105.5 23.5q-80 0 -134 -41.5t-76 -103.5t-22 -140zM458 1056l128 165q15 20 26.5 27t31.5 7h186q17 0 19.5 -9.5t-11.5 -22.5l-209 -180q-28 -28 -67 -28h-89q-42 0 -15 41z" />
<glyph unicode="&#xf4;" horiz-adv-x="1061" d="M74 438q0 89 24.5 165.5t76.5 141t143.5 102t213.5 37.5q121 0 212 -37.5t142.5 -102t76 -141t24.5 -165.5t-24.5 -166t-76 -142t-143 -103t-212.5 -38t-212.5 38t-143 103t-76.5 142t-25 166zM251 1020q-7 11 12 34l163 173q20 24 64 24h82q40 0 63 -24l164 -175 q12 -14 12 -23.5t-9 -23.5q-8 -14 -31 -3l-240 119h-2l-239 -117q-18 -7 -25 -3.5t-14 19.5zM300 432q0 -121 56.5 -198.5t174.5 -77.5t175 77.5t57 198.5q0 57 -13 107t-40 90.5t-72.5 64t-105.5 23.5q-80 0 -134 -41.5t-76 -103.5t-22 -140z" />
<glyph unicode="&#xf5;" horiz-adv-x="1061" d="M74 438q0 89 24.5 165.5t76.5 141t143.5 102t213.5 37.5q121 0 212 -37.5t142.5 -102t76 -141t24.5 -165.5t-24.5 -166t-76 -142t-143 -103t-212.5 -38t-212.5 38t-143 103t-76.5 142t-25 166zM300 432q0 -121 56.5 -198.5t174.5 -77.5t175 77.5t57 198.5q0 57 -13 107 t-40 90.5t-72.5 64t-105.5 23.5q-80 0 -134 -41.5t-76 -103.5t-22 -140zM307 1085q25 53 66 92t91 39q49 0 107 -31t86 -31q31 0 49 38q7 18 22 11l63 -28q12 -5 14 -10.5t-4 -19.5q-23 -53 -63.5 -92.5t-91.5 -39.5t-111.5 30.5t-80.5 30.5q-11 0 -20.5 -6t-13.5 -11 t-16 -22q-9 -14 -24 -9l-60 30q-14 6 -16.5 11t3.5 18z" />
<glyph unicode="&#xf6;" horiz-adv-x="1061" d="M74 438q0 89 24.5 165.5t76.5 141t143.5 102t213.5 37.5q121 0 212 -37.5t142.5 -102t76 -141t24.5 -165.5t-24.5 -166t-76 -142t-143 -103t-212.5 -38t-212.5 38t-143 103t-76.5 142t-25 166zM242 1112q0 44 31 75.5t79 31.5t80.5 -31.5t32.5 -75.5q0 -45 -32.5 -76 t-80.5 -31t-79 30.5t-31 76.5zM300 432q0 -121 56.5 -198.5t174.5 -77.5t175 77.5t57 198.5q0 57 -13 107t-40 90.5t-72.5 64t-105.5 23.5q-80 0 -134 -41.5t-76 -103.5t-22 -140zM596 1112q0 45 31 76t80 31q48 0 81 -31.5t33 -75.5q0 -45 -32.5 -76t-81.5 -31 q-51 0 -81 30.5t-30 76.5z" />
<glyph unicode="&#xf7;" horiz-adv-x="1210" d="M106 365v188h998v-188h-998zM443 136q0 50 43 85.5t108 35.5t107 -35.5t42 -85.5q0 -51 -42 -86t-107 -35q-66 0 -108.5 35t-42.5 86zM443 791q0 50 44 84.5t107 34.5t106 -34.5t43 -84.5q0 -49 -43 -84t-106 -35t-107 35t-44 84z" />
<glyph unicode="&#xf8;" horiz-adv-x="1061" d="M74 438q0 89 24.5 165.5t76.5 141t143.5 102t213.5 37.5q63 0 121 -11l45 101q9 16 19 16h110q23 0 15 -20l-62 -141q106 -57 156.5 -161t50.5 -230q0 -89 -24.5 -166t-76 -142t-143 -103t-212.5 -38q-59 0 -110 9l-41 -95q-7 -15 -30 -15h-110q-13 0 -7 17l57 134 q-75 37 -125 102.5t-70.5 139t-20.5 157.5zM300 432q0 -139 69 -214l216 493q-26 6 -53 6q-80 0 -134 -41.5t-76 -103.5t-22 -140zM490 158q13 -2 41 -2q118 0 175 77.5t57 198.5q0 131 -63 210z" />
<glyph unicode="&#xf9;" horiz-adv-x="1195" d="M34 741v71q0 16 4.5 21t17.5 7q44 5 83.5 11t56.5 8.5t37.5 4.5t43.5 2h80q43 0 43 -52v-509q0 -100 32.5 -136.5t103.5 -36.5q222 0 222 304v238q-8 33 -45 37l-86 6q-9 1 -11.5 5.5t-2.5 18.5v71q0 16 5 21t19 7q53 6 100.5 13.5t69 10t49.5 2.5h82q43 0 43 -52v-566 q3 -61 18.5 -81t44.5 -20q45 0 45 45q0 12 1 17.5t8 9.5t21 4h37q22 0 27 -6.5t5 -30.5q0 -197 -199 -197q-171 0 -214 149q-48 -78 -120 -115.5t-182 -37.5q-151 0 -222.5 76.5t-71.5 247.5v346q0 27 -13 40.5t-32 15.5l-87 6q-9 1 -11 5.5t-2 18.5zM268 1231 q-14 13 -11.5 22t19.5 9h180q21 0 32 -6t26 -27l143 -183q15 -22 12 -31.5t-23 -9.5h-91q-31 0 -73 36z" />
<glyph unicode="&#xfa;" horiz-adv-x="1195" d="M34 741v71q0 16 4.5 21t17.5 7q44 5 83.5 11t56.5 8.5t37.5 4.5t43.5 2h80q43 0 43 -52v-509q0 -100 32.5 -136.5t103.5 -36.5q222 0 222 304v238q-8 33 -45 37l-86 6q-9 1 -11.5 5.5t-2.5 18.5v71q0 16 5 21t19 7q53 6 100.5 13.5t69 10t49.5 2.5h82q43 0 43 -52v-566 q3 -61 18.5 -81t44.5 -20q45 0 45 45q0 12 1 17.5t8 9.5t21 4h37q22 0 27 -6.5t5 -30.5q0 -197 -199 -197q-171 0 -214 149q-48 -78 -120 -115.5t-182 -37.5q-151 0 -222.5 76.5t-71.5 247.5v346q0 27 -13 40.5t-32 15.5l-87 6q-9 1 -11 5.5t-2 18.5zM480 1056l129 165 q15 20 26.5 27t31.5 7h186q17 0 19 -9.5t-12 -22.5l-208 -180q-28 -28 -67 -28h-90q-42 0 -15 41z" />
<glyph unicode="&#xfb;" horiz-adv-x="1195" d="M34 741v71q0 16 4.5 21t17.5 7q44 5 83.5 11t56.5 8.5t37.5 4.5t43.5 2h80q43 0 43 -52v-509q0 -100 32.5 -136.5t103.5 -36.5q222 0 222 304v238q-8 33 -45 37l-86 6q-9 1 -11.5 5.5t-2.5 18.5v71q0 16 5 21t19 7q53 6 100.5 13.5t69 10t49.5 2.5h82q43 0 43 -52v-566 q3 -61 18.5 -81t44.5 -20q45 0 45 45q0 12 1 17.5t8 9.5t21 4h37q22 0 27 -6.5t5 -30.5q0 -197 -199 -197q-171 0 -214 149q-48 -78 -120 -115.5t-182 -37.5q-151 0 -222.5 76.5t-71.5 247.5v346q0 27 -13 40.5t-32 15.5l-87 6q-9 1 -11 5.5t-2 18.5zM279 1007q-7 15 -6 24 t12 23l164 173q20 24 63 24h82q40 0 63 -24l164 -175q12 -14 12 -23.5t-8 -23.5t-32 -3l-240 119h-2l-238 -117q-24 -11 -34 3z" />
<glyph unicode="&#xfc;" horiz-adv-x="1195" d="M34 741v71q0 16 4.5 21t17.5 7q44 5 83.5 11t56.5 8.5t37.5 4.5t43.5 2h80q43 0 43 -52v-509q0 -100 32.5 -136.5t103.5 -36.5q222 0 222 304v238q-8 33 -45 37l-86 6q-9 1 -11.5 5.5t-2.5 18.5v71q0 16 5 21t19 7q53 6 100.5 13.5t69 10t49.5 2.5h82q43 0 43 -52v-566 q3 -61 18.5 -81t44.5 -20q45 0 45 45q0 12 1 17.5t8 9.5t21 4h37q22 0 27 -6.5t5 -30.5q0 -197 -199 -197q-171 0 -214 149q-48 -78 -120 -115.5t-182 -37.5q-151 0 -222.5 76.5t-71.5 247.5v346q0 27 -13 40.5t-32 15.5l-87 6q-9 1 -11 5.5t-2 18.5zM264 1112q0 44 31 75.5 t79 31.5t81 -31.5t33 -75.5q0 -45 -32.5 -76t-81.5 -31q-48 0 -79 30.5t-31 76.5zM618 1112q0 45 31.5 76t80.5 31q48 0 80.5 -31.5t32.5 -75.5q0 -45 -32.5 -76t-80.5 -31q-51 0 -81.5 30.5t-30.5 76.5z" />
<glyph unicode="&#xfd;" horiz-adv-x="1105" d="M41 752v99q0 9 3.5 12t13.5 3h435q10 0 13.5 -3.5t3.5 -13.5v-95q0 -10 -1 -13.5t-5 -6t-14 -4.5q-64 -4 -81 -13.5t-12 -33.5q5 -85 60.5 -234.5t114.5 -267.5h1q76 169 187 502q9 25 -3.5 32.5t-76.5 14.5q-25 7 -28 14q-2 4 -2 12v82q0 28 30 28h368q20 0 24 -5t4 -21 v-79q0 -13 -4.5 -17.5t-19.5 -9.5q-63 -9 -79.5 -20t-26.5 -42q-85 -270 -184.5 -499.5t-243.5 -490.5q-25 -37 -54.5 -51.5t-79.5 -14.5h-166q-16 0 -19.5 3t-3.5 18v87q0 10 0.5 14t5 6.5t13.5 2.5q97 10 121.5 18.5t46.5 42.5q28 50 104 192h-24q-21 0 -32 13 q-60 84 -154.5 309.5t-107.5 358.5q-3 22 -24.5 33t-87.5 20q-11 1 -13 4t-2 14zM510 1056l129 165q15 20 26 27t31 7h187q17 0 19 -9.5t-12 -22.5l-209 -180q-28 -28 -67 -28h-89q-42 0 -15 41z" />
<glyph unicode="&#xfe;" horiz-adv-x="1098" d="M-7 -246q0 21 6 24q3 1 10 2q86 8 109 21.5t23 53.5l2 385v842q0 53 -44 57l-86 6q-11 1 -14 6t-3 18v84q0 16 4.5 20t18.5 6q47 7 100 16t82 13.5t47 4.5h63q43 0 43 -51v-571q36 97 119 145t190 48q118 0 200 -60t119.5 -159.5t37.5 -230.5t-37 -230.5t-121.5 -161 t-208.5 -61.5q-95 0 -175 35.5t-113 111.5v-253q0 -54 27.5 -70t115.5 -21q20 -1 24 -7t4 -26v-79q0 -16 -4 -21t-20 -5h-497q-15 0 -18.5 4t-3.5 19v85zM365 406q0 -126 52.5 -201t155.5 -75q110 0 163 80.5t53 208.5t-51.5 208t-158.5 80q-105 0 -159.5 -81.5 t-54.5 -219.5z" />
<glyph unicode="&#xff;" horiz-adv-x="1105" d="M41 752v99q0 9 3.5 12t13.5 3h435q10 0 13.5 -3.5t3.5 -13.5v-95q0 -10 -1 -13.5t-5 -6t-14 -4.5q-64 -4 -81 -13.5t-12 -33.5q5 -85 60.5 -234.5t114.5 -267.5h1q76 169 187 502q9 25 -3.5 32.5t-76.5 14.5q-25 7 -28 14q-2 4 -2 12v82q0 28 30 28h368q20 0 24 -5t4 -21 v-79q0 -13 -4.5 -17.5t-19.5 -9.5q-63 -9 -79.5 -20t-26.5 -42q-85 -270 -184.5 -499.5t-243.5 -490.5q-25 -37 -54.5 -51.5t-79.5 -14.5h-166q-16 0 -19.5 3t-3.5 18v87q0 10 0.5 14t5 6.5t13.5 2.5q97 10 121.5 18.5t46.5 42.5q28 50 104 192h-24q-21 0 -32 13 q-60 84 -154.5 309.5t-107.5 358.5q-3 22 -24.5 33t-87.5 20q-11 1 -13 4t-2 14zM294 1112q0 44 31 75.5t79 31.5t81 -31.5t33 -75.5q0 -45 -32.5 -76t-81.5 -31q-48 0 -79 30.5t-31 76.5zM648 1112q0 45 31.5 76t80.5 31q48 0 80.5 -31.5t32.5 -75.5q0 -45 -32.5 -76 t-80.5 -31q-51 0 -81.5 30.5t-30.5 76.5z" />
<glyph unicode="&#x152;" horiz-adv-x="2163" d="M89 652q0 117 25.5 218t78 184.5t130 142.5t185.5 92t240 33q296 0 470 -164q88 164 411 164q222 0 378 -50q16 -5 22 -12t7 -13.5t1 -28.5v-282q0 -16 -3 -19t-18 -3h-109q-12 0 -16 3.5t-7 15.5l-35 193q-87 19 -203 19q-54 0 -93 -6.5t-75 -24.5t-55 -55t-19 -93 q0 -116 68.5 -159.5t204.5 -43.5h120q24 0 24 -28v-121q0 -28 -24 -28h-120q-144 0 -222.5 -49t-78.5 -165q0 -111 78 -157t242 -46q81 0 167.5 10t147.5 21t71 12q12 1 16 -3t4 -19v-140q0 -14 -5.5 -19.5t-22.5 -8.5q-212 -41 -460 -41q-312 0 -424 138 q-166 -138 -442 -138q-164 0 -291 50t-207 140.5t-120.5 212t-40.5 268.5zM339 655q0 -225 108 -356t301 -131t300.5 130.5t107.5 356.5q0 223 -107.5 351t-300.5 128t-301 -128t-108 -351z" />
<glyph unicode="&#x153;" horiz-adv-x="1677" d="M74 438q0 89 24.5 165.5t76.5 141t143.5 102t213.5 37.5q214 0 334 -117q109 117 340 117q378 0 378 -281q0 -55 -15.5 -97.5t-40 -72t-66 -50t-82 -32t-99.5 -18t-107.5 -8t-117.5 -1.5h-54q25 -97 93 -136t178 -39q51 0 103.5 10t111 26.5t80.5 21.5q13 4 19.5 1 t6.5 -20v-93q0 -24 -5 -32.5t-21 -17.5q-58 -30 -148.5 -47t-179.5 -17q-260 0 -376 125q-117 -117 -333 -117q-121 0 -212.5 38t-143 103t-76.5 142t-25 166zM300 432q0 -121 56.5 -198.5t174.5 -77.5q109 0 166 66t64 173v72q-7 108 -64 179t-165 71q-80 0 -134 -41.5 t-76 -103.5t-22 -140zM989 458q171 4 234 17q142 29 142 130q0 60 -42.5 90.5t-110.5 30.5q-217 0 -223 -268z" />
<glyph unicode="&#x178;" horiz-adv-x="1284" d="M30 1192v91q0 13 3.5 16.5t16.5 3.5h484q12 0 15.5 -4.5t3.5 -17.5v-88q0 -15 -4 -21t-18 -7q-72 -5 -95 -11.5t-23 -25.5q0 -61 20 -126t58 -131.5t74 -118t87 -117.5q119 140 188.5 259t69.5 234q0 19 -22 25.5t-93 11.5q-15 1 -19.5 7t-4.5 21v88q0 14 3 18t17 4h443 q14 0 17.5 -3.5t3.5 -16.5v-91q0 -25 -19 -25q-77 -7 -104.5 -17t-31.5 -35q-18 -159 -113.5 -329.5t-226.5 -312.5v-222h1v-22q0 -57 19 -72t103 -19q14 -1 19.5 -5t6.5 -8.5t1 -18.5v-80q0 -16 -4 -21t-18 -5h-499q-15 0 -18.5 4t-3.5 18v86q0 11 0.5 14.5t4.5 7t13 4.5 q94 10 120 25.5t26 62.5v225q-137 149 -237 326t-110 342q-3 20 -32.5 32t-103.5 20q-9 2 -13 5t-4.5 6t-0.5 14zM380 1475q0 45 31 76.5t79 31.5t80.5 -32t32.5 -76q0 -45 -32.5 -76t-80.5 -31t-79 30.5t-31 76.5zM734 1475q0 45 31 76.5t80 31.5q48 0 81 -32t33 -76 q0 -45 -32.5 -76t-81.5 -31q-51 0 -81 30.5t-30 76.5z" />
<glyph unicode="&#x2c6;" horiz-adv-x="673" d="M65 1370q-7 15 -6 24t12 23l164 173q20 24 63 24h82q40 0 63 -24l164 -175q12 -14 12 -23.5t-8 -23.5t-32 -3l-240 119h-2l-238 -117q-24 -11 -34 3z" />
<glyph unicode="&#x2dc;" horiz-adv-x="705" d="M108 1434q25 53 65.5 91.5t90.5 38.5q49 0 107.5 -31t86.5 -31q30 0 48 38q7 19 23 11l63 -28q12 -5 13.5 -10.5t-4.5 -19.5q-23 -53 -63 -92.5t-91 -39.5t-111.5 30.5t-80.5 30.5q-11 0 -20.5 -6t-13.5 -11t-16 -22q-9 -14 -24 -9l-60 30q-13 6 -16 11.5t3 18.5z" />
<glyph unicode="&#x2000;" horiz-adv-x="846" />
<glyph unicode="&#x2001;" horiz-adv-x="1692" />
<glyph unicode="&#x2002;" horiz-adv-x="846" />
<glyph unicode="&#x2003;" horiz-adv-x="1692" />
<glyph unicode="&#x2004;" horiz-adv-x="564" />
<glyph unicode="&#x2005;" horiz-adv-x="423" />
<glyph unicode="&#x2006;" horiz-adv-x="282" />
<glyph unicode="&#x2007;" horiz-adv-x="282" />
<glyph unicode="&#x2008;" horiz-adv-x="211" />
<glyph unicode="&#x2009;" horiz-adv-x="338" />
<glyph unicode="&#x200a;" horiz-adv-x="94" />
<glyph unicode="&#x2010;" horiz-adv-x="865" d="M119 473v113q0 27 22 27h585q21 0 21 -28v-101q0 -17 -5 -24.5t-20 -7.5h-584q-19 0 -19 21z" />
<glyph unicode="&#x2011;" horiz-adv-x="865" d="M119 473v113q0 27 22 27h585q21 0 21 -28v-101q0 -17 -5 -24.5t-20 -7.5h-584q-19 0 -19 21z" />
<glyph unicode="&#x2012;" horiz-adv-x="865" d="M119 473v113q0 27 22 27h585q21 0 21 -28v-101q0 -17 -5 -24.5t-20 -7.5h-584q-19 0 -19 21z" />
<glyph unicode="&#x2013;" horiz-adv-x="1199" d="M119 467v121q0 25 21 25h921q19 0 19 -27v-108q0 -17 -4 -24t-18 -7h-922q-17 0 -17 20z" />
<glyph unicode="&#x2014;" horiz-adv-x="1653" d="M119 467v121q0 25 21 25h1374q12 0 15 -5.5t3 -21.5v-108q0 -12 -1 -17.5t-5.5 -9.5t-15.5 -4h-1374q-17 0 -17 20z" />
<glyph unicode="&#x2018;" horiz-adv-x="489" d="M89 931l134 361q6 19 14 24.5t24 5.5h132q25 0 20 -32l-93 -370q-5 -27 -15 -35t-39 -8h-149q-29 0 -35 11.5t7 42.5z" />
<glyph unicode="&#x2019;" horiz-adv-x="487" d="M91 909l93 370q5 27 15 35t39 8h149q29 0 35 -11.5t-7 -42.5l-134 -361q-7 -19 -14 -24.5t-23 -5.5h-132q-26 0 -21 32z" />
<glyph unicode="&#x201a;" horiz-adv-x="467" d="M41 -179l93 371q5 27 15 35t39 8h149q29 0 35 -11.5t-7 -42.5l-134 -362q-6 -19 -13.5 -24t-23.5 -5h-133q-25 0 -20 31z" />
<glyph unicode="&#x201c;" horiz-adv-x="822" d="M89 931l134 361q6 19 14 24.5t24 5.5h132q25 0 20 -32l-93 -370q-5 -27 -15 -35t-39 -8h-149q-29 0 -35 11.5t7 42.5zM423 931l134 361q7 19 14 24.5t23 5.5h132q26 0 21 -32l-94 -370q-5 -27 -14.5 -35t-38.5 -8h-149q-29 0 -35 11.5t7 42.5z" />
<glyph unicode="&#x201d;" horiz-adv-x="822" d="M91 909l93 370q5 27 15 35t39 8h149q29 0 35 -11.5t-7 -42.5l-134 -361q-7 -19 -14 -24.5t-23 -5.5h-132q-26 0 -21 32zM423 909l93 370q5 27 15 35t39 8h149q29 0 35 -11.5t-7 -42.5l-134 -361q-6 -19 -14 -24.5t-24 -5.5h-132q-25 0 -20 32z" />
<glyph unicode="&#x201e;" horiz-adv-x="863" d="M41 -179l93 371q5 27 15 35t39 8h149q29 0 35 -11.5t-7 -42.5l-134 -362q-6 -19 -13.5 -24t-23.5 -5h-133q-25 0 -20 31zM436 -179l93 371q5 27 15 35t39 8h149q29 0 35 -11.5t-7 -42.5l-134 -362q-6 -18 -14 -23.5t-24 -5.5h-132q-25 0 -20 31z" />
<glyph unicode="&#x2022;" horiz-adv-x="659" d="M151 456q0 57 51.5 96.5t127.5 39.5q75 0 126.5 -39.5t51.5 -96.5q0 -56 -51.5 -96t-126.5 -40q-76 0 -127.5 40t-51.5 96z" />
<glyph unicode="&#x2026;" horiz-adv-x="1513" d="M101 91q0 42 36.5 70.5t89.5 28.5q52 0 89.5 -28.5t37.5 -70.5q0 -47 -36.5 -74.5t-90.5 -27.5q-55 0 -90.5 27.5t-35.5 74.5zM631 91q0 42 36 70.5t89 28.5q52 0 90 -28.5t38 -70.5q0 -46 -37 -74t-91 -28t-89.5 28t-35.5 74zM1160 89q0 43 36.5 72t88.5 29t89 -29 t37 -72q0 -46 -36 -73t-90 -27t-89.5 27t-35.5 73z" />
<glyph unicode="&#x202f;" horiz-adv-x="338" />
<glyph unicode="&#x2039;" horiz-adv-x="670" d="M67 493l372 399q11 11 14 13t16 -2l106 -78q9 -7 8.5 -10.5t-10.5 -15.5l-288 -322l287 -313q14 -17 15 -22.5t-12 -13.5l-104 -72q-12 -7 -17 -5t-16 14l-369 387q-13 13 -13.5 19.5t11.5 21.5z" />
<glyph unicode="&#x203a;" horiz-adv-x="672" d="M93 128q-10 8 -9 14t15 22l286 313l-288 322q-10 12 -10.5 15.5t8.5 10.5l108 78q3 2 5.5 3t4.5 1t4.5 -2t4 -3t5.5 -4.5t6 -5.5l370 -399q13 -15 12.5 -21t-14.5 -20l-366 -387q-12 -12 -18 -14t-18 5z" />
<glyph unicode="&#x205f;" horiz-adv-x="423" />
<glyph unicode="&#x20ac;" horiz-adv-x="1498" d="M78 426l63 88q15 22 36 22h123l-4 65h-205q-17 0 -19.5 6t6.5 17l63 87q6 9 9 12.5t10.5 7.5t16.5 4h123q21 293 183.5 440t454.5 147q113 0 222.5 -13t165.5 -30q20 -8 25.5 -18.5t5.5 -37.5v-344q0 -15 -4 -19t-18 -4h-132q-14 0 -18 3.5t-6 15.5l-36 251 q-76 19 -199 19q-167 0 -275.5 -101t-130.5 -309h559q23 0 25.5 -9.5t-9.5 -19.5l-74 -82q-20 -23 -47 -23h-458l6 -65h402q24 0 28 -9.5t-9 -20.5l-73 -82q-20 -20 -48 -20h-265q96 -231 410 -231q132 0 378 41q30 6 30 -24v-112q0 -20 -7.5 -30.5t-30.5 -15.5 q-179 -49 -411 -49q-261 0 -417 103.5t-207 317.5h-229q-17 0 -19.5 4.5t6.5 17.5z" />
<glyph unicode="&#x2122;" horiz-adv-x="1794" d="M130 1084v206q0 9 2.5 11t10.5 2h524q5 0 7.5 -0.5t4 -3.5t1.5 -9v-206q0 -19 -13 -19h-75q-13 0 -13 17l-7 65q-6 32 -25 32h-67v-498h2v-11q0 -32 9.5 -41.5t44.5 -12.5q9 -1 11 -4.5t2 -15.5v-60q0 -9 -1.5 -12t-9.5 -3h-275q-7 0 -9.5 2.5t-2.5 10.5v64q0 14 10 16 q41 5 55 15.5t14 35.5v515h-67q-19 0 -25 -33l-5 -65q-3 -17 -15 -17h-75q-13 0 -13 19zM711 1227v63q0 8 2 10.5t9 2.5h291q5 0 8.5 -1t6.5 -1.5t5 -3.5l3 -4.5t2.5 -6t2 -7t1.5 -9.5t2 -10q21 -121 63.5 -292.5t82.5 -287.5h2q41 122 80 288t61 292q1 5 2.5 13.5t2 11.5 t2.5 7.5t5 6t8.5 3t13.5 1.5h270q8 0 10.5 -2.5t2.5 -10.5v-63q0 -14 -12 -17q-39 -5 -53 -15t-14 -31v-484q0 -62 36 -62q35 0 35 49v3q0 8 6 8h43q7 0 7 -8v-3q0 -82 -33 -119.5t-99 -37.5q-149 0 -149 173v399q-27 -143 -75.5 -305t-86.5 -243q-9 -13 -21 -13h-126 q-15 0 -21 13q-44 86 -94.5 246.5t-82.5 316.5v-430q0 -29 10 -38.5t43 -12.5q12 -2 13 -8v-7v-5v-60q0 -9 -2 -12t-10 -3h-232q-8 0 -9.5 2t-1.5 11v64q0 14 11 16q33 5 44.5 15.5t11.5 37.5v497q0 21 -14 31t-53 15q-10 2 -10 17z" />
<glyph unicode="&#xe000;" horiz-adv-x="865" d="M0 0v866h866v-866h-866z" />
</font>
</defs>
</svg>
