<?xml version="1.0" standalone="no"?>
<!DOCTYPE svg PUBLIC "-//W3C//DTD SVG 1.1//EN" "http://www.w3.org/Graphics/SVG/1.1/DTD/svg11.dtd" >
<svg xmlns="http://www.w3.org/2000/svg">
<metadata></metadata>
<defs>
<font id="quatie_norm_regular_inormRgIt" horiz-adv-x="1020" >
<font-face units-per-em="2048" ascent="1629" descent="-419" />
<missing-glyph horiz-adv-x="390" />
<glyph unicode="&#xfb01;" horiz-adv-x="1087" d="M19 22l9 45q3 15 7.5 20t16.5 6q80 3 106 11t37 36l135 623h-131q-21 0 -15 19l13 65q6 19 23 19h130l26 121q38 180 138 257.5t272 77.5q78 0 145 -15.5t99 -33.5q14 -8 17.5 -19t-1.5 -35l-41 -189q-5 -19 -22 -19h-65q-8 0 -11 2.5t-2 14.5l15 152q-54 32 -157 32 q-105 0 -165.5 -56t-87.5 -186l-22 -104h460q28 0 22 -30l-78 -365h-2l-26 -123h2l-23 -106q-15 -61 -9.5 -93t17 -42t33.5 -10q46 0 58 44q5 23 8.5 27.5t21.5 4.5h33q16 0 19.5 -5.5t-0.5 -24.5q-19 -83 -63.5 -117.5t-115.5 -34.5q-86 0 -127.5 54t-15.5 175l20 104h-1 l87 404q-1 23 -25.5 29t-106.5 6h-209l-123 -575q-5 -24 -7 -37t3 -25t13 -16.5t31 -9t48 -5.5t73 -2q20 0 23 -6t-1 -24l-9 -37q-3 -17 -7 -21.5t-21 -4.5h-453q-16 0 -19 4t1 18z" />
<glyph unicode="&#xfb02;" horiz-adv-x="1115" d="M9 22l10 45q3 14 8 19t16 7q40 1 61 2t41.5 5t29 9t17.5 16t13 23.5t9 35.5l121 579h-130q-9 0 -13.5 5t-1.5 14l13 65q6 19 22 19h131l28 124q68 332 418 332q77 0 136 -15t133 -56q12 -6 14.5 -14.5t-1.5 -20.5l-207 -974l2 -132q-9 -45 -10 -75t6.5 -44.5t18 -20 t26.5 -5.5q47 0 57 44q5 23 8.5 27.5t21.5 4.5h34q16 0 20 -5.5t0 -24.5q-18 -83 -63.5 -117.5t-116.5 -34.5q-41 0 -71.5 11.5t-53.5 38t-27 70.5t8 109l116 543h-380l-127 -590q-6 -27 -4 -41h-314q-15 0 -18.5 4t-0.5 18zM342 0h136l2 -39h-9q-78 3 -102.5 9t-26.5 30z M480 -39q13 -1 15 -7.5t-2 -22.5l-9 -37zM493 734h380l65 305q-27 14 -49.5 22.5t-49 12.5t-59.5 4q-121 0 -179 -57.5t-89 -205.5z" />
<glyph unicode="&#xfb03;" horiz-adv-x="1606" d="M9 22l10 45q3 14 7.5 19t14.5 7q27 1 40 1.5t31.5 2t26 2.5t19.5 4.5t16 6t11 8t9 10.5t6.5 14.5t6.5 18.5t5 23l123 579h-130q-23 0 -17 19l13 65q6 19 24 19h131l13 59q69 322 400 322q35 0 62 -2t54 -7.5t52.5 -15t51.5 -23.5q54 65 131 94t185 29q78 0 145 -15.5 t99 -33.5q14 -8 17 -19t-2 -35l-41 -189q-3 -12 -7 -15.5t-15 -3.5h-64q-7 0 -9 0.5t-3.5 4.5t-0.5 12l15 152q-54 32 -156 32q-70 0 -119 -23.5t-82.5 -77t-51.5 -141.5l-23 -104h460q28 0 22 -30l-78 -365v-132l-31 -147h-2l-17 -82q-9 -45 -10 -75t6.5 -44.5t18.5 -20 t28 -5.5q46 0 56 44q5 24 8.5 28t20.5 4h34q16 0 20 -5.5t0 -24.5q-18 -83 -63.5 -117.5t-116.5 -34.5q-41 0 -71.5 11.5t-52.5 38t-26 70.5t8 109l108 508q-1 12 -6.5 19t-22 10.5t-38.5 4.5t-65 1h-208l-123 -575q-4 -18 -6 -28.5t-1 -22t3.5 -16.5t12 -11t19.5 -8 t31.5 -4.5t43 -3t57.5 -1.5q20 0 23 -6t-1 -24l-9 -37q-2 -10 -3 -13t-3.5 -7t-7.5 -5t-14 -1h-454q-15 0 -17.5 4t0.5 18l9 45q3 14 8 19t16 7q29 1 44 2t33 3.5t25.5 4t17 7.5t13 10.5t8.5 15.5t7.5 20.5t6.5 27.5l19 91h1l105 488h-380l-123 -575q-9 -41 -8 -56h-314 q-16 0 -19 4t0 18zM342 0h136l2 -39h-9q-78 2 -102.5 8.5t-26.5 30.5zM480 -39q13 -1 15 -7.5t-2 -22.5l-9 -37zM493 734h380l26 121q14 64 34 109q-40 22 -78 31t-92 9q-111 0 -171.5 -48.5t-85.5 -166.5z" />
<glyph unicode="&#xfb04;" horiz-adv-x="1634" d="M7 22l10 45q3 15 7 20t15 6q44 2 62.5 3t41.5 5t29.5 8t16 15.5t13 23.5t8.5 36l117 550h29l13 59q65 304 383 304q142 0 233 -53q107 146 337 146q77 0 135 -15t133 -56q21 -11 15 -35l-207 -974q-15 -61 -9.5 -93t17 -42t33.5 -10q46 0 56 44q5 23 9.5 27.5t22.5 4.5 h31q17 0 21 -5.5t0 -24.5q-19 -83 -63.5 -117.5t-115.5 -34.5q-87 0 -128 53.5t-15 175.5l115 543h-380l-126 -590q-11 -54 8.5 -65.5t114.5 -14.5q20 0 23 -6t-1 -24l-9 -37q-2 -10 -2.5 -13t-3.5 -7t-7.5 -5t-12.5 -1h-429q-15 0 -17 4t1 18l9 45q3 15 7 20t15 6 q60 2 85.5 4t46 12.5t26.5 25.5t14 49l122 579h-385l-123 -575q-5 -21 -6.5 -34t-1.5 -22h-314q-16 0 -19 4t0 18zM188 650l13 65q6 19 22 19h81l-101 -103q-21 0 -15 19zM304 734l29 29l-6 -29h-23zM340 0h137l2 -39h-10q-43 1 -62 2.5t-37 5.5t-23.5 11t-6.5 20zM479 -39 q12 -1 14.5 -8t-1.5 -22l-10 -37zM492 734h385l28 124q11 50 22 80q-31 16 -56.5 25.5t-57.5 15.5t-70 6q-104 0 -159 -44t-79 -152zM1013 734h380l65 305q-42 22 -76.5 30.5t-83.5 8.5q-82 0 -133 -25t-82 -81t-52 -157z" />
<glyph horiz-adv-x="2048" />
<glyph horiz-adv-x="2048" />
<glyph unicode="&#xd;" horiz-adv-x="2048" />
<glyph unicode=" "  horiz-adv-x="390" />
<glyph unicode="&#x09;" horiz-adv-x="390" />
<glyph unicode="&#xa0;" horiz-adv-x="390" />
<glyph unicode="!" horiz-adv-x="500" d="M108 80q7 38 38.5 64.5t71.5 26.5q36 0 57 -27t14 -64q-9 -42 -40.5 -66.5t-69.5 -24.5q-41 0 -61 24t-10 67zM190 309l207 1024q3 19 18 19h104q14 0 17.5 -5t-0.5 -16l-231 -1024q-5 -14 -11 -17t-20 -3h-71q-18 0 -13 22z" />
<glyph unicode="&#x22;" horiz-adv-x="646" d="M263 873l89 421q3 13 13 13h115q9 0 11 -2.5t-1 -12.5l-90 -421q-3 -15 -18 -15h-108q-10 0 -11.5 3.5t0.5 13.5zM482 873l90 421q3 13 14 13h116q8 0 9 -2.5t-2 -12.5l-89 -421q-3 -15 -19 -15h-106q-11 0 -13 3t0 14z" />
<glyph unicode="#" horiz-adv-x="1351" d="M119 417l22 106h287l119 285h-277l22 106h304l162 399h121l-164 -399h274l163 399h120l-160 -399h271l-22 -106h-300l-117 -285h279l-22 -106h-305l-172 -417h-119l171 417h-273l-172 -417h-117l170 417h-265zM549 523h274l119 285h-275z" />
<glyph unicode="$" horiz-adv-x="1092" d="M71 82l56 268q5 16 11.5 21t23.5 5h58q14 0 18 -5.5t2 -18.5l-30 -218q107 -32 270 -32q41 0 79 4.5t87 20t87.5 40.5t71.5 72t46 109q12 61 2.5 107.5t-37 75.5t-67 52.5t-86.5 38t-96 32t-95.5 34.5t-84.5 46t-63.5 66t-33 94.5t7.5 131.5q17 87 59.5 147.5t104 91.5 t127 44t145.5 13q116 0 213 -15t144 -34q18 -8 21.5 -15.5t-0.5 -30.5l-58 -270q-4 -18 -10 -22t-20 -4h-65q-15 0 -18 3.5t-1 16.5l30 224q-104 30 -236 30q-258 0 -298 -187q-12 -60 3 -104t50 -69t83 -45.5t102 -34t107.5 -34.5t99 -47.5t77 -73t41 -110t-9.5 -159.5 q-73 -360 -509 -360q-106 0 -231 16.5t-161 34.5q-15 7 -18.5 18t1.5 32zM354 -333l61 247q1 7 2.5 10.5t6 7t12.5 3.5h87q9 0 9 -13v-4l-46 -249q-3 -19 -11 -19h-114q-10 0 -7 17zM735 1398l47 250q0 16 11 16h114q10 0 3 -18l-59 -251q-4 -15 -17 -15h-87q-16 0 -12 18z " />
<glyph unicode="%" horiz-adv-x="1951" d="M220 931q17 80 52 148.5t90 124.5t137 88t182 32q79 0 139 -21t95 -58t55 -87t19 -107.5t-12 -119.5q-18 -81 -54 -150t-91.5 -125.5t-137.5 -89t-180 -32.5q-80 0 -140.5 21.5t-95 58.5t-54 87.5t-18 108.5t13.5 121zM359 931q-29 -137 18.5 -215.5t156.5 -78.5 q111 0 192 78.5t110 215.5q28 137 -15.5 213.5t-161.5 76.5q-112 0 -191.5 -77t-108.5 -213zM415 20l1143 1276q30 30 54 30h97q21 0 22.5 -7t-18.5 -31l-1141 -1277q-17 -19 -30.5 -25t-35.5 -6h-80q-17 0 -23.5 1.5t-5 10.5t17.5 28zM1121 378q17 80 52 148.5t90 124.5 t136.5 88t181.5 32q79 0 139.5 -21t95.5 -58t55 -87t19.5 -107.5t-11.5 -119.5q-17 -80 -54 -149.5t-93 -126t-138.5 -89t-180.5 -32.5q-80 0 -140.5 21.5t-94.5 58.5t-53 87.5t-17.5 108.5t13.5 121zM1260 378q-29 -137 18.5 -215.5t156.5 -78.5q111 0 192 78.5t110 215.5 q28 137 -15.5 213.5t-161.5 76.5q-112 0 -192 -77t-108 -213z" />
<glyph unicode="&#x26;" horiz-adv-x="1359" d="M140 341q18 84 56 149.5t84.5 103.5t89.5 58.5t86 28.5q-51 11 -83.5 42.5t-44.5 74.5t-11.5 89t11.5 96q20 95 60 162.5t98 105.5t123.5 54.5t146.5 16.5q119 0 223 -43q14 -6 16 -17t-3 -33l-54 -255q-4 -16 -7.5 -19.5t-14.5 -3.5h-61q-9 0 -11 3.5t-1 15.5l21 212 q-39 23 -121 23q-117 0 -186 -48.5t-99 -184.5q-48 -237 209 -237h288l103 228q10 27 33 27h30q25 0 17 -27l-49 -228h211q22 0 14 -26l-13 -63q-3 -15 -8 -19.5t-18 -4.5h-210l-69 -326q-23 -124 -8.5 -166t70.5 -42q78 0 98 87q6 15 11.5 20.5t18.5 5.5h30q14 0 17.5 -7 t0.5 -25q-20 -88 -80 -138t-150 -50q-115 0 -148 80q-168 -80 -392 -80q-52 0 -94 4.5t-81.5 15.5t-68.5 28.5t-51 45.5t-32 65t-10 88t13 113zM292 357q-30 -141 23 -198t199 -57q160 0 328 69q4 67 14 118l71 333h-285q-134 0 -227.5 -65.5t-122.5 -199.5z" />
<glyph unicode="'" horiz-adv-x="426" d="M263 873l89 417q3 13 11 13h115q9 0 11 -3t1 -12l-90 -417q-3 -15 -18 -15h-108q-10 0 -11.5 3.5t0.5 13.5z" />
<glyph unicode="(" horiz-adv-x="571" d="M149 557q44 208 174.5 420.5t316.5 370.5q2 1 9 7t8.5 5.5t7.5 -1.5l46 -45q1 -1 1.5 -3t-0.5 -4l-2 -4t-3.5 -4.5l-4 -4l-4.5 -4.5l-5 -5q-145 -135 -248 -340.5t-143 -397.5q-26 -126 -29.5 -255t23.5 -263t86 -234q9 -15 2 -22l-60 -47q-6 -5 -17 11 q-83 109 -129.5 249.5t-51.5 283.5t23 287z" />
<glyph unicode=")" horiz-adv-x="571" d="M-41 -227q-7 7 9 22q150 149 254.5 354t144.5 398q26 123 30.5 251t-22 262t-86.5 225q-14 22 -4 29l65 45q3 3 6.5 2t5 -2.5t3.5 -5t4 -5.5q120 -157 160 -374t-6 -417q-46 -216 -179 -436.5t-325 -383.5q-2 -1 -7.5 -6t-8 -6t-7.5 1z" />
<glyph unicode="*" horiz-adv-x="804" d="M274 1059l50 99q3 9 15 6l190 -67v193v2v5.5t2.5 3.5t6.5 2h142q6 0 7.5 -2t0.5 -7t-1 -6l-82 -191l214 65q11 2 11 -6l17 -95q0 -11 -13 -11l-214 -20l114 -140q9 -14 1 -22l-117 -66q-10 -7 -13 8l-59 180l-138 -176q-10 -13 -17 -6l-86 58q-3 6 8 15l167 149l-195 20 q-11 0 -13 2t2 7z" />
<glyph unicode="+" horiz-adv-x="1107" d="M128 423l25 113h396l82 386h112l-82 -386h389l-24 -113h-389l-82 -386h-112l82 386h-397z" />
<glyph unicode="," horiz-adv-x="413" d="M-48 -192l162 339q9 22 17 28.5t31 6.5h78q23 0 24.5 -11t-13.5 -35l-186 -330q-8 -14 -14.5 -18t-20.5 -4h-67q-13 0 -16 5t5 19z" />
<glyph unicode="-" horiz-adv-x="904" d="M179 505l15 68q4 21 20 21h594q17 0 13 -21l-13 -61q-3 -13 -8.5 -18.5t-17.5 -5.5h-592q-9 0 -11 4.5t0 12.5z" />
<glyph unicode="." horiz-adv-x="441" d="M80 80q7 38 38.5 64.5t71.5 26.5q36 0 57 -27t14 -64q-9 -42 -40.5 -66.5t-69.5 -24.5q-41 0 -61 24t-10 67z" />
<glyph unicode="/" horiz-adv-x="865" d="M-30 -104l909 1469q11 18 24 18h115q22 0 10 -22l-907 -1465q-9 -15 -33 -15h-114q-14 0 -4 15z" />
<glyph unicode="0" horiz-adv-x="1217" d="M190 652q32 147 86.5 267.5t130 211.5t176 141t216.5 50q103 0 180.5 -33t125 -92t71 -142.5t21 -184.5t-27.5 -218q-32 -147 -86.5 -268.5t-130 -212t-176 -140.5t-217.5 -50q-128 0 -217 50.5t-130.5 140t-48.5 212.5t27 268zM346 655q-55 -260 0.5 -410t213.5 -150 t278 150t175 410q55 259 -1.5 406t-214.5 147t-277 -147t-174 -406z" />
<glyph unicode="1" horiz-adv-x="783" d="M47 22l7 45q3 15 7 20t17 6q67 1 101 3t64 6t42.5 13t20 21.5t12.5 34.5l201 948q7 32 -33 7l-196 -109q-15 -8 -22 -4.5t-4 17.5l15 67q5 23 32 37l264 153q38 16 73 16h32q11 0 14 -4.5t0 -15.5l-236 -1110q-11 -53 18 -65t174 -15q20 0 23 -6t-1 -24l-9 -37 q-3 -16 -7.5 -21t-20.5 -5h-570q-16 0 -19 4t1 18z" />
<glyph unicode="2" horiz-adv-x="1104" d="M43 17l17 74q4 24 16 32q167 90 300.5 181t249 195.5t190 222t100.5 239.5q9 42 9.5 76t-6.5 58.5t-17.5 43t-28.5 29.5t-35 18.5t-41 11t-42.5 4.5t-43.5 1q-133 0 -259 -39l-74 -239q-5 -13 -9 -15.5t-15 -2.5h-65q-14 0 -16 4t3 18l59 285q5 24 11 32t23 13 q164 63 353 63q44 0 81 -3t74.5 -10.5t67.5 -21t56.5 -32.5t43.5 -46.5t26.5 -62.5t8.5 -81.5t-13 -101.5q-51 -241 -262.5 -455t-532.5 -383h514q26 0 39 41l44 162q3 16 9 22.5t21 6.5h56q15 0 18.5 -6.5t-1.5 -28.5l-63 -302q-3 -14 -7.5 -17t-17.5 -3h-824q-20 0 -17 17 z" />
<glyph unicode="3" horiz-adv-x="1053" d="M50 56l13 65q7 29 30 26q3 -1 27.5 -7t51.5 -11t64.5 -11.5t85 -10t95.5 -3.5q326 0 384 281q30 137 -29.5 192.5t-192.5 55.5h-115q-23 0 -15 26l15 69q2 13 11 24l445 428h-440q-17 0 -23.5 -9.5t-18.5 -45.5l-38 -146q-3 -14 -8.5 -19t-19.5 -5h-54q-16 0 -20.5 4 t-1.5 20l65 300q3 16 8 20t20 4h709q13 0 15.5 -6.5t-1.5 -21.5l-12 -57q-2 -9 -3.5 -14t-5.5 -11t-6 -8t-11 -10.5t-15 -14.5l-433 -415h22q190 0 265 -94t33 -288q-22 -104 -72.5 -180t-122 -119t-153 -63t-177.5 -20q-227 0 -356 43q-12 5 -15 11t0 21z" />
<glyph unicode="4" horiz-adv-x="1148" d="M74 346l397 933q5 16 10.5 20t21.5 4h91q14 0 17.5 -4.5t-0.5 -17.5l-356 -836h423l171 802q3 14 7.5 17.5t16.5 3.5h99q21 0 15 -19l-172 -804h235q14 0 18 -4t1 -18l-19 -84q-3 -11 -6.5 -13t-15.5 -2h-239l-29 -145q-5 -22 -6.5 -32t2.5 -21.5t12 -15t30 -8t47.5 -5.5 t72.5 -2q17 -1 19.5 -6.5t-1.5 -19.5l-9 -49q-3 -14 -6.5 -17t-19.5 -3h-545q-14 0 -17.5 4t0.5 15l11 52q1 8 2.5 11.5t6 6t12.5 2.5q63 3 97.5 5t65.5 7t43 9t23 14.5t13.5 19.5t6.5 29l32 149h-563q-14 0 -16.5 4.5t1.5 17.5z" />
<glyph unicode="5" horiz-adv-x="1046" d="M48 67l15 65q6 34 30 26q1 0 13.5 -4.5t23.5 -8t31.5 -9.5t40 -10.5t46 -9.5t51.5 -8.5t55 -6t59 -2.5q52 0 96 6.5t90.5 26t82 50.5t65 84t44.5 123q10 49 11.5 89.5t-7 71t-23.5 54t-40.5 40t-54.5 27t-69 16.5t-81 8.5t-93 2.5h-166q-23 0 -13 28l184 549 q7 19 11 23.5t15 4.5h604q16 0 19.5 -4t0.5 -20l-59 -279q-5 -24 -11.5 -30t-22.5 -6h-54q-16 0 -19.5 7.5t0.5 22.5l21 132q5 34 1 44t-22 10h-385l-128 -366h67q78 0 139.5 -5.5t118 -19t96 -35.5t70 -57t44 -82.5t13 -111.5t-17.5 -144q-81 -378 -523 -378 q-114 0 -208.5 17.5t-141.5 38.5q-25 9 -19 30z" />
<glyph unicode="6" horiz-adv-x="1109" d="M158 512q28 134 82.5 253.5t137.5 222t187.5 176.5t239.5 116t288 42h20q15 0 19.5 -5t1.5 -19l-15 -65q-3 -16 -10 -22t-22 -6h-18q-264 0 -446.5 -147.5t-272.5 -405.5q146 162 337 162q92 0 160.5 -23.5t108.5 -64.5t62.5 -97.5t21 -123t-15.5 -140.5 q-38 -180 -171.5 -282t-334.5 -102q-473 0 -360 531zM302 480q-78 -387 217 -387q136 0 231.5 75.5t128.5 220.5q31 144 -23 228.5t-206 84.5q-213 0 -348 -222z" />
<glyph unicode="7" horiz-adv-x="956" d="M119 24l819 1153h-534l-61 -200q-3 -16 -9 -22.5t-21 -6.5h-54q-13 0 -17 5.5t0 23.5l65 306q3 14 7 17t17 3h767q15 0 18 -6.5t-1 -21.5l-15 -70q-3 -16 -22 -47l-802 -1132q-10 -16 -18.5 -21t-26.5 -5h-101q-29 0 -11 24z" />
<glyph unicode="8" horiz-adv-x="1122" d="M127 417q30 120 117 209t233 122q-48 24 -79 62.5t-42 82.5t-10.5 87t10.5 83q32 121 137.5 189t253.5 68q70 0 126.5 -16t93 -43.5t61 -63.5t34 -76.5t9.5 -81.5t-10 -80q-21 -77 -79 -134t-146 -86q67 -24 111 -66.5t62 -94t21.5 -112t-12.5 -118.5q-16 -72 -52 -134 t-95.5 -116t-153.5 -85.5t-212 -31.5q-101 0 -178 25t-120.5 67t-69 98t-24.5 118.5t14 127.5zM272 397q-10 -46 -11 -90t16 -82.5t46 -67.5t79.5 -45.5t115.5 -16.5q149 0 239.5 79t119.5 195q9 46 9.5 90t-17 83.5t-46 69t-79 47t-115.5 17.5q-146 0 -237.5 -78.5 t-119.5 -200.5zM484 1031q-27 -103 21 -169.5t169 -66.5q104 0 169 50t86 129q9 33 9 65.5t-11 65t-33.5 57.5t-63 40.5t-95.5 15.5q-104 0 -166 -52t-85 -135z" />
<glyph unicode="9" horiz-adv-x="1089" d="M128 6l13 63q6 30 34 30h17q245 0 420.5 140.5t264.5 395.5q-151 -145 -350 -145q-86 0 -149.5 24.5t-99.5 65t-54 97t-17.5 116.5t15.5 127q38 183 171 292.5t328 109.5q123 0 206 -39t121.5 -109t45.5 -169t-22 -219q-38 -173 -113.5 -317.5t-187 -254.5t-266.5 -171.5 t-339 -61.5h-19q-25 0 -19 25zM367 896q-29 -133 23.5 -214t188.5 -81q113 0 197.5 50t150.5 155v8q42 191 -9 293.5t-201 102.5q-130 0 -223.5 -80.5t-126.5 -233.5z" />
<glyph unicode=":" horiz-adv-x="450" d="M82 73q8 38 39 64.5t71 26.5q36 0 57.5 -27t13.5 -64q-9 -42 -40.5 -67t-69.5 -25q-41 0 -61 24.5t-10 67.5zM220 724q8 38 39.5 64.5t71.5 26.5q36 0 56.5 -27t12.5 -64q-8 -42 -39 -66.5t-69 -24.5q-41 0 -60.5 24t-11.5 67z" />
<glyph unicode=";" horiz-adv-x="543" d="M-2 -192l162 339q9 22 17.5 28.5t31.5 6.5h78q23 0 24.5 -11t-13.5 -35l-186 -330q-8 -14 -15 -18t-21 -4h-67q-13 0 -16 5t5 19zM296 793q8 38 39 64.5t71 26.5q36 0 57.5 -27t13.5 -64q-9 -42 -40 -66.5t-68 -24.5q-42 0 -62.5 24t-10.5 67z" />
<glyph unicode="&#x3c;" horiz-adv-x="1007" d="M112 419l26 115l871 388l-26 -123l-683 -322l545 -321l-26 -126z" />
<glyph unicode="=" horiz-adv-x="1072" d="M134 249l24 112h775l-24 -112h-775zM194 518l22 111h773l-23 -111h-772z" />
<glyph unicode="&#x3e;" horiz-adv-x="1007" d="M63 30l26 123l684 324l-546 325l26 120l710 -388l-27 -115z" />
<glyph unicode="?" horiz-adv-x="871" d="M231 957l58 270q4 22 10.5 30t26.5 16q43 19 132.5 34t194.5 15q50 0 90.5 -5.5t79.5 -20t63.5 -38.5t43 -60.5t18 -87t-12.5 -118.5q-18 -87 -49.5 -147t-67.5 -91t-76.5 -53t-81 -42.5t-76.5 -50t-66.5 -85.5t-48.5 -139l-28 -138q-8 -21 -22 -21h-104q-15 0 -12 19 l32 145q21 100 54 169.5t70 105t78 59.5t80.5 43t74 43.5t63.5 73t44 121.5q7 42 6 73.5t-14.5 54t-29.5 36.5t-40.5 22.5t-47.5 11.5t-49 3q-114 0 -220 -30l-65 -224q-1 -2 -2 -5q-4 -13 -11 -14q-4 -1 -11 -1h-66q-10 0 -13.5 1t-6.5 6.5t2 18.5zM249 80q7 38 37.5 64.5 t67.5 26.5q35 0 56 -27t14 -64q-9 -42 -40.5 -66.5t-68.5 -24.5q-38 0 -57 24t-9 67z" />
<glyph unicode="@" horiz-adv-x="1530" d="M173 596q35 165 123 300t204 218.5t246.5 128.5t260.5 45q284 0 426 -159t88 -407q-45 -201 -160.5 -328.5t-284.5 -127.5q-65 0 -104.5 26.5t-44.5 70.5q-44 -41 -112 -70t-135 -29q-114 0 -172 78.5t-30 216.5q17 78 58 152t103 137t151 101t189 38q71 0 120.5 -21.5 t70.5 -57t28 -81.5t-6 -95q-12 -60 -56.5 -143.5t-81.5 -139.5q-22 -37 -6 -60.5t60 -23.5q97 0 178.5 107t113.5 256q43 206 -71 335t-333 129q-81 0 -166 -23.5t-170.5 -73.5t-157.5 -120t-128.5 -171.5t-81.5 -220.5q-57 -268 70.5 -417t384.5 -149q121 0 223 23.5 t212 76.5q19 10 21 -3l16 -58q2 -16 -20 -26q-208 -110 -473 -110q-148 0 -265 43.5t-194 129t-103 212t9 291.5zM596 559q-20 -93 11 -145.5t110 -52.5q56 0 110.5 30t95 74.5t73.5 96t51.5 93.5t24.5 69q34 168 -130 168q-121 0 -219.5 -101.5t-126.5 -231.5z" />
<glyph unicode="A" horiz-adv-x="1355" d="M-20 22l9 45q3 12 7 18t7 7t8 1q75 3 105.5 9t44.5 20.5t21 48.5l19 90q50 238 117.5 429.5t151.5 334t188.5 220t220.5 77.5q157 0 238.5 -130.5t82 -366.5t-67.5 -564l-20 -99q-8 -45 12.5 -55.5t111.5 -13.5q18 0 21.5 -6t-0.5 -24l-10 -37q-3 -16 -7.5 -21t-18.5 -5 h-443q-15 0 -17.5 3t0.5 19l10 45q3 16 6.5 20.5t15.5 5.5q73 2 105.5 9t45.5 21t20 48l19 90q3 15 8.5 41.5t10 48t7.5 40.5h-655q-18 -72 -30 -130l-21 -99q-8 -44 13 -55t112 -14q20 0 23.5 -6t-0.5 -24l-10 -37q-3 -17 -7 -21.5t-21 -4.5h-417q-14 0 -16.5 3t0.5 19z M387 510h641q46 318 1.5 505.5t-174.5 187.5q-131 0 -254 -185t-214 -508z" />
<glyph unicode="B" horiz-adv-x="1221" d="M41 22l9 45q3 16 7 20.5t17 5.5q74 2 104.5 8.5t42.5 20.5t19 49l207 974q10 41 -12.5 51.5t-121.5 13.5q-13 2 -16.5 6t-0.5 17l11 50q3 14 7 17t19 3h466q401 0 329 -344q-22 -102 -77 -164.5t-129 -90.5q141 -22 189.5 -111t14.5 -250q-37 -173 -178 -258t-414 -85 h-474q-15 0 -18.5 4t-0.5 18zM369 110h208q104 0 177.5 17t118 52t68.5 78.5t38 105.5q14 54 9 101t-26.5 82t-76.5 55.5t-140 20.5h-268zM501 734h236q97 0 163 68.5t87 167.5q21 102 -22.5 162.5t-167.5 60.5h-197z" />
<glyph unicode="C" horiz-adv-x="1232" d="M184 650q144 672 719 672q246 0 384 -39q18 -7 21 -15.5t-3 -34.5l-63 -304q-4 -16 -8 -19t-18 -3h-73q-14 0 -18 3.5t-2 14.5l31 257q-98 24 -247 24q-220 0 -367 -140.5t-209 -428.5q-26 -117 -21.5 -205t30 -150t78 -100.5t121 -56t159.5 -17.5q142 0 382 43 q15 3 20.5 -2t1.5 -19l-11 -57q-4 -21 -13 -29.5t-32 -13.5q-209 -45 -365 -45q-315 0 -443 160t-54 505z" />
<glyph unicode="D" horiz-adv-x="1387" d="M41 22l9 45q3 16 7 20.5t17 5.5q95 3 123 13.5t39 46.5l211 992q10 41 -12.5 51.5t-121.5 13.5q-13 2 -16.5 6t-0.5 17l11 50q3 14 7 17t19 3h443q705 0 561 -676q-67 -316 -266.5 -471.5t-551.5 -155.5h-459q-15 0 -18.5 4t-0.5 18zM374 112h158q273 0 435 132t219 402 q119 546 -425 546h-156z" />
<glyph unicode="E" horiz-adv-x="1079" d="M119 367q15 67 45 119.5t64 85t79.5 56t83.5 34.5t84 19q-29 6 -56 20.5t-53 40.5t-40.5 63t-20 89t9.5 117q15 72 46 126.5t72.5 89t96.5 56.5t112 30.5t125 8.5q214 0 346 -45q23 -8 25.5 -16.5t-4.5 -31.5l-54 -255q-5 -17 -8.5 -20t-17.5 -3h-60q-11 0 -13.5 3 t-1.5 16l19 212q-90 23 -233 23q-50 0 -89 -5t-77.5 -18.5t-66 -35.5t-49 -58.5t-31.5 -85.5q-30 -141 38.5 -201t216.5 -60h129q22 0 17 -28l-13 -61q-5 -26 -28 -26h-129q-354 0 -409 -261q-30 -140 44.5 -201.5t258.5 -61.5q77 0 162 10.5t145.5 22.5t63.5 12 q13 3 16 -1.5t-1 -17.5l-17 -80q-3 -12 -9.5 -16.5t-24.5 -9.5q-145 -41 -363 -41q-64 0 -117 5t-105 16.5t-89 31t-69 49t-45.5 70t-18 94t13.5 120.5z" />
<glyph unicode="F" horiz-adv-x="1063" d="M37 22l10 45q3 15 7 20t17 6q110 3 135.5 16t39.5 75l173 818h-2l28 130q10 30 2 46.5t-37 23t-99 8.5q-13 1 -15 7t2 19l9 45q3 14 7.5 18t18.5 4h838q11 0 14.5 -0.5t7 -5t-0.5 -14.5l-67 -319q-6 -24 -30 -24h-54q-16 0 -20.5 5.5t-2.5 17.5l30 197q3 26 -2 32.5 t-22 6.5l-424 -2l-103 -480h339q16 0 21.5 -4.5t2.5 -18.5l-15 -65q-3 -19 -9 -25t-24 -6h-339l-93 -434q-8 -46 22 -57t162 -14q18 0 21.5 -6t-0.5 -24l-10 -37q-2 -10 -2.5 -13t-3.5 -7t-7.5 -5t-12.5 -1h-493q-15 0 -18.5 4t-0.5 18z" />
<glyph unicode="G" horiz-adv-x="1351" d="M182 663q69 320 268.5 489.5t497.5 169.5q259 0 417 -73q21 -9 24 -21.5t-4 -41.5l-59 -277q-3 -14 -7.5 -17.5t-18.5 -3.5h-69q-11 0 -13.5 2.5t-1.5 14.5l28 247q-117 54 -296 54q-238 0 -393 -143.5t-216 -427.5q-57 -271 39 -403.5t354 -132.5q172 0 294 41l76 355 h-255q-28 0 -22 28l13 62q6 28 33 28h365q27 0 21 -28l-103 -492q-5 -21 -13.5 -32t-32.5 -20q-151 -60 -389 -60q-334 0 -472 169.5t-65 512.5z" />
<glyph unicode="H" horiz-adv-x="1392" d="M34 22l9 45q3 15 7 20t17 6q102 3 129.5 13.5t39.5 55.5l203 953q5 25 7.5 37t-0.5 24.5t-8.5 17t-23 9t-37 5.5t-57.5 2q-20 0 -23.5 6t1.5 24l7 37q3 9 4.5 12.5t4.5 7.5t8 5t13 1h434q15 0 18.5 -4t0.5 -18l-10 -45q-3 -15 -7 -20t-17 -6q-101 -3 -129 -13t-40 -52 l-112 -531h558l112 529q8 44 -13 54t-112 13q-19 0 -22 6t2 24l7 37q5 16 9.5 21t18.5 5h434q16 0 19 -4t0 -18l-10 -45q-3 -15 -7 -20t-17 -6q-41 -1 -63 -2t-43 -5.5t-29 -9t-17 -16.5t-12.5 -24t-8.5 -36l-195 -918q-21 -100 50 -100q69 0 85 74q3 15 19 15h56 q14 0 11 -20q-42 -175 -208 -175q-198 0 -153 214l63 294h-558l-73 -343q-8 -43 13 -53t112 -12q20 0 23 -6t-1 -24l-9 -37q-3 -16 -7.5 -21t-20.5 -5h-434q-15 0 -18 4t0 18z" />
<glyph unicode="I" horiz-adv-x="685" d="M37 22l10 45q3 15 6.5 20t15.5 6q103 3 129.5 13.5t39.5 55.5l203 953q6 25 8 37t-0.5 25t-8.5 17t-23 8.5t-37 5.5t-58 2q-19 0 -22 6t2 24l7 37q5 16 9.5 21t18.5 5h436q14 0 16.5 -4t-0.5 -18l-9 -45q-3 -15 -6.5 -20t-15.5 -6q-101 -3 -129.5 -13t-40.5 -52 l-203 -957q-6 -25 -8 -37t1 -24.5t8.5 -17t23 -9t37.5 -5.5t58 -2q18 0 21 -6t-1 -24l-9 -37q-3 -16 -7.5 -21t-20.5 -5h-432q-16 0 -19 4t0 18z" />
<glyph unicode="J" horiz-adv-x="664" d="M-78 -255q-3 27 28 41l74 35q94 39 128 80t58 159l226 1055q6 25 8 37t-0.5 25t-8.5 17t-23 8.5t-37 5.5t-58 2q-20 0 -24 6t1 24l8 37q3 10 4 13t4.5 7t8 5t12.5 1h434q15 0 18.5 -4t0.5 -18l-9 -45q-3 -14 -7.5 -19.5t-17.5 -6.5q-102 -3 -129 -14t-38 -57l-240 -1130 q-13 -59 -28.5 -96t-47.5 -71t-81 -60t-130 -56l-97 -37q-15 -5 -21 -2t-7 17z" />
<glyph unicode="K" horiz-adv-x="1303" d="M34 22l9 45q3 15 7 20t17 6q110 3 135.5 16t39.5 75l197 931q5 25 7.5 37t-0.5 24.5t-8.5 17t-23 9t-37 5.5t-57.5 2q-20 0 -23.5 6t1.5 24l7 37q3 9 4.5 12.5t4.5 7.5t8 5t13 1h434q15 0 18.5 -4t0.5 -18l-10 -45q-3 -15 -7 -20t-17 -6q-101 -3 -129 -13t-40 -52 l-101 -475l577 507q17 20 -3 26q-14 4 -84 7q-25 0 -29 5t1 25l7 37q5 17 10.5 21.5t25.5 4.5h407q18 0 22 -4t1 -18l-10 -45q-3 -15 -7.5 -20t-20.5 -6q-25 -1 -43 -2t-31.5 -2t-25.5 -4.5t-17.5 -4.5t-15.5 -8t-12.5 -8.5t-14.5 -12t-16 -14.5l-62 -52h-2l-506 -439h2 l307 -464q40 -62 73.5 -86.5t77.5 -24.5q45 0 85 14q18 5 25 2.5t3 -16.5l-9 -53q-4 -16 -11 -23t-24 -12q-57 -19 -112 -19q-91 0 -135 31t-105 133l-332 508l-98 -465q-5 -25 -7.5 -37t0.5 -24.5t8.5 -17t23 -9t37 -5.5t57.5 -2q20 0 23 -6t-1 -24l-9 -37q-3 -16 -7.5 -21 t-20.5 -5h-434q-15 0 -18 4t0 18z" />
<glyph unicode="L" horiz-adv-x="1100" d="M39 22l9 45q3 15 7 20t18 6q96 3 124 12.5t39 45.5l198 936l5 28q6 25 8 37t-0.5 25t-8.5 17t-23 8.5t-37 5.5t-58 2q-19 0 -22 6t2 24l7 37q5 16 9.5 21t18.5 5h436q15 0 17.5 -4t-0.5 -18l-10 -45q-3 -15 -6.5 -20t-15.5 -6q-103 -3 -131 -14t-39 -57l-217 -1018 l476 -2q17 0 24.5 8.5t14.5 32.5l49 166q5 18 11 24t24 6h47q16 0 18 -7.5t-3 -28.5l-64 -300q-3 -14 -7.5 -17t-18.5 -3h-882q-15 0 -18.5 4t-0.5 18z" />
<glyph unicode="M" horiz-adv-x="1770" d="M52 22l9 45q3 15 9.5 19.5t24.5 6.5q42 1 63.5 3.5t38.5 6.5t24.5 15.5t12 24t10.5 39.5l201 950q4 23 4 34t-4 21t-20.5 13.5t-38.5 6t-64 3.5q-14 1 -16.5 7t1.5 19l10 45q3 14 7.5 18t18.5 4h277q39 0 48 -12t10 -48v-10q3 -147 68 -527.5t114 -562.5h4 q139 217 316 538t283 552q3 7 8 19t7.5 16.5t7 12t9.5 10.5t12.5 6.5t17.5 4.5t24 1h289q19 0 22.5 -4t-0.5 -18l-9 -45q-3 -15 -8 -20t-20 -6q-100 -3 -124.5 -15t-34.5 -63l-199 -933q-21 -100 51 -100q69 0 85 74q3 15 19 15h56q14 0 11 -20q-42 -175 -209 -175 q-197 0 -152 214l182 860q-100 -227 -301.5 -574t-297.5 -473q-16 -20 -49 -20h-78q-11 0 -16.5 1t-10.5 5.5t-8 13.5q-51 144 -114 456.5t-86 560.5l-182 -858q-13 -57 3.5 -70t102.5 -16q23 0 27 -6t-1 -24l-9 -37q-3 -16 -8.5 -21t-23.5 -5h-382q-19 0 -22.5 4t0.5 18z " />
<glyph unicode="N" horiz-adv-x="1444" d="M41 22l9 45q3 14 8.5 19.5t19.5 6.5q57 2 83 4t44.5 13t24 25t12.5 47l205 963q8 40 -16.5 51t-123.5 14q-13 1 -15 7t2 19l9 45q3 14 8 18t19 4h221q37 0 52 -33l436 -1075l199 937q10 30 1 46.5t-38 23t-101 8.5q-12 1 -13.5 7t2.5 19l9 45q3 14 7.5 18t17.5 4h419 q15 0 18 -5.5t-2 -20.5l-7 -37q-3 -12 -4 -15.5t-4.5 -8t-9 -5.5t-16.5 -1q-96 -3 -119.5 -15t-34.5 -65l-233 -1087q-9 -43 -37 -43h-62q-42 0 -52 24l-424 1037l-186 -877q-5 -23 -6.5 -34t0.5 -23t8.5 -16.5t22 -9t36 -6t56.5 -2.5q20 0 23 -6t-1 -24l-9 -37 q-3 -16 -7.5 -21t-20.5 -5h-413q-15 0 -17.5 4t0.5 18z" />
<glyph unicode="O" horiz-adv-x="1442" d="M184 680q30 140 91 256t151 203t213 135t268 48q128 0 226.5 -34t160.5 -96t97 -148.5t35 -192.5t-24 -227q-31 -143 -92.5 -260t-151.5 -203t-213 -133t-269 -47q-128 0 -226.5 34t-159.5 96t-95.5 148.5t-34.5 192.5t24 228zM335 655q-55 -258 36.5 -405.5 t308.5 -147.5q213 0 364.5 147.5t206.5 405.5q55 256 -37 401t-309 145q-212 0 -363.5 -145t-206.5 -401z" />
<glyph unicode="P" horiz-adv-x="1089" d="M37 22l10 45q3 15 7 20t17 6q102 3 129.5 13.5t39.5 55.5l207 970q10 30 1.5 46.5t-37.5 23t-100 8.5q-13 1 -15 7t2 19l9 45q3 14 7.5 18t18.5 4h393q116 0 199 -24.5t128 -64.5t66 -100t20 -122.5t-16 -140.5q-37 -180 -177 -283t-365 -103q-71 0 -134 12l-67 -319 q-8 -43 13 -53t112 -12q20 0 23 -6t-1 -24l-9 -37q-3 -16 -7.5 -21t-20.5 -5h-434q-15 0 -18.5 4t-0.5 18zM471 592q22 -13 129 -13q150 0 247 75.5t125 211.5q71 331 -233 331h-139z" />
<glyph unicode="Q" horiz-adv-x="1444" d="M184 680q30 140 91 256t151 203t213 135t268 48q128 0 226.5 -34t160.5 -96t97 -148.5t35 -192.5t-24 -227q-50 -225 -172 -383t-307 -221l12 -50q13 -77 50.5 -109t111.5 -32q41 0 74 7h3h5.5t4 -1.5t1.5 -5t-1 -10.5l-11 -57q-3 -21 -32 -26q-48 -10 -113 -10 q-205 0 -239 227l-3 36q-47 -8 -110 -8q-128 0 -226.5 34t-159.5 96t-95.5 148.5t-34.5 192.5t24 228zM335 655q-40 -190 -0.5 -321.5t151.5 -190.5q-3 24 4 58q12 60 59 99t125 39q94 0 147 -43.5t78 -146.5q131 60 222 190.5t130 315.5q55 256 -37 401t-309 145 q-212 0 -363.5 -145t-206.5 -401zM572 186q-10 -52 35 -80q44 -4 73 -4q51 0 91 8v7q-5 48 -15.5 77.5t-27.5 42.5t-32 16.5t-39 3.5q-32 0 -56 -20t-29 -51z" />
<glyph unicode="R" horiz-adv-x="1187" d="M35 22l10 45q3 15 7 20t17 6q102 3 129.5 13.5t39.5 55.5l207 970q10 30 1.5 46.5t-37.5 23t-100 8.5q-13 1 -15 7t2 19l9 45q3 14 7.5 18t18.5 4h432q121 0 205 -32.5t125 -91t52.5 -140t-11.5 -179.5q-30 -141 -117 -240t-228 -138l73 -275q18 -68 39.5 -93t66.5 -25 q29 0 75 17q14 5 19.5 2.5t8.5 -17.5l-2 -44q3 -20 -5 -28t-34 -17q-76 -21 -131 -21q-40 0 -69 10t-46 24t-29.5 39.5t-18.5 47t-14 57.5q-2 9 -3 14l-73 285h-41q-82 0 -162 15l-59 -285q-5 -25 -7.5 -37t0.5 -24.5t8.5 -17t23 -9t37 -5.5t57.5 -2q20 0 23 -6t-1 -24 l-9 -37q-3 -16 -7.5 -21t-20.5 -5h-434q-15 0 -18.5 4t-0.5 18zM469 592q91 -17 155 -17q150 0 243 77.5t122 222.5q34 158 -28.5 238t-200.5 80h-162z" />
<glyph unicode="S" horiz-adv-x="1091" d="M69 82l56 268q5 16 11.5 21t23.5 5h58q14 0 18 -5.5t2 -18.5l-29 -218q107 -32 269 -32q41 0 79 4.5t87 20t87.5 40.5t71.5 72t46 109q12 61 2.5 107.5t-37 75.5t-67 52.5t-86.5 38t-96 32t-95.5 34.5t-84.5 46t-63.5 66t-33 94.5t7.5 131.5q17 87 59.5 147.5t104 91.5 t127 44t145.5 13q116 0 213 -15t144 -34q18 -8 21.5 -15.5t-0.5 -30.5l-58 -270q-4 -18 -10 -22t-20 -4h-65q-15 0 -18 3.5t-1 16.5l30 224q-104 30 -236 30q-258 0 -298 -187q-12 -60 3 -104t50 -69t83 -45.5t102 -34t107.5 -34.5t99 -47.5t77 -73t41 -110t-9.5 -159.5 q-73 -360 -509 -360q-106 0 -231 16.5t-161 34.5q-15 7 -18.5 18t1.5 32z" />
<glyph unicode="T" horiz-adv-x="1120" d="M218 963l69 320q3 14 8 17t20 3h906q11 0 14.5 -0.5t7 -5t-0.5 -14.5l-69 -320q-4 -21 -26 -21h-54q-11 0 -16 3t-5.5 6t-0.5 12l27 193q2 18 -2 25t-20 7h-261l-212 -1000q-5 -25 -7.5 -37t0.5 -24.5t8.5 -17t23 -9t37 -5.5t57.5 -2q19 0 22.5 -5.5t0.5 -24.5l-10 -37 q-3 -16 -8 -21t-20 -5h-433q-16 0 -19 4t0 18l9 45q3 14 7.5 19.5t17.5 6.5q102 3 129.5 13.5t39.5 55.5l218 1026h-265q-15 0 -22.5 -7t-14.5 -25l-54 -193q-3 -8 -4.5 -11.5t-6.5 -6.5t-15 -3h-58q-22 0 -18 21z" />
<glyph unicode="U" horiz-adv-x="1416" d="M272 460l149 700q1 31 -22 39t-105 11q-20 0 -23.5 6t1.5 24l7 37q3 9 4.5 12.5t4.5 7.5t8 5t13 1h443q15 0 17.5 -4t-0.5 -18l-9 -45q-3 -15 -7 -20t-18 -6q-98 -3 -127.5 -15t-39.5 -50l-145 -685q-36 -174 29.5 -266t225.5 -92q159 0 262.5 92.5t139.5 265.5l139 659 q5 23 7 35t-1 24t-8.5 16t-23 8.5t-37 5.5t-56.5 2q-19 0 -22 6t2 24l7 37q6 21 13 24q5 2 17 2h413q15 0 17.5 -4t-0.5 -18l-9 -45q-3 -12 -7.5 -18t-7.5 -7t-9 -1q-70 -3 -100.5 -8.5t-45.5 -17.5t-22 -39l-145 -685q-47 -227 -182 -353t-356 -126q-244 0 -342 124.5 t-49 354.5z" />
<glyph unicode="V" horiz-adv-x="1318" d="M233 1231l11 54q3 11 7.5 14.5t14.5 3.5h414q19 0 13 -18l-12 -52q-3 -23 -24 -23q-63 -2 -91.5 -6t-36 -10t-10.5 -21q-19 -91 -27 -182.5t-8 -163.5t11.5 -158.5t21.5 -139t34 -136.5t36 -120t40 -117q181 232 258 349q220 334 290 668q2 8 2 12t-3 8.5t-10 6.5 t-21 4.5t-35 3.5t-52 2q-18 0 -15 23l11 52q3 11 6.5 14.5t13.5 3.5h395q12 0 15 -3.5t0 -14.5l-11 -54q-3 -13 -6 -16.5t-15 -4.5q-68 -2 -99 -6t-39.5 -10t-10.5 -19q-38 -177 -103 -338t-170.5 -321.5t-162.5 -236.5t-184 -231q-15 -19 -22 -28q-18 -20 -43 -20h-50 q-26 0 -34 20q-34 83 -50.5 125.5t-47 132.5t-44.5 152t-30.5 159t-18 181.5t7 191t31.5 213.5q2 12 -4.5 18t-36 10.5t-91.5 6.5q-14 1 -16.5 5.5t1.5 15.5z" />
<glyph unicode="W" horiz-adv-x="1917" d="M235 1229l11 54q3 13 6.5 16.5t15.5 3.5h434q14 0 9 -22l-11 -48q0 -2 -1 -5q-3 -15 -11 -17q-4 -1 -10 -1q-93 -3 -116 -9t-28 -28q-31 -159 -39.5 -307.5t5.5 -282.5t32 -228.5t49 -214.5q73 107 113.5 168.5t109 178t112 209.5t90 221t74.5 256q5 22 -18.5 28 t-108.5 9q-21 0 -15 19l12 54q3 12 7.5 16t14.5 4h409q12 0 14 -3t0 -17l-12 -52q-1 -2 -1.5 -5.5t-1 -5t-1.5 -3.5t-1.5 -2.5l-2 -2t-3.5 -2t-5 -0.5q-87 -5 -118 -10.5t-39 -19.5h2q-32 -163 -40 -313t6 -280.5t35.5 -231.5t56.5 -214q72 107 112 168t108.5 177t112 209.5 t90 221.5t74.5 256q7 24 -11.5 29t-115.5 8q-20 0 -15 23l12 48q3 15 6 18.5t12 3.5h406q8 0 11 -1t6 -5.5t0 -13.5l-11 -52q-3 -12 -7 -16t-16 -5q-73 -3 -101.5 -6.5t-39 -9.5t-15.5 -21q-17 -76 -40 -152t-44.5 -138t-56 -135.5t-56.5 -122t-64 -120t-62.5 -107 t-67.5 -106t-63 -93.5t-65 -93.5t-58 -83.5q-14 -22 -36 -22h-83q-25 0 -30 22q-2 8 -15 56t-16.5 61.5t-15.5 60t-16.5 67.5t-14.5 66t-14 73t-11 72t-10 79t-6 78.5t-4 85.5q-24 -52 -51.5 -106t-49.5 -95.5t-56 -98t-51 -85.5t-56 -88.5t-50.5 -76t-53.5 -79.5t-47 -70 q-14 -22 -36 -22h-87q-24 0 -32 22q-66 249 -85 346q-78 404 0 805q3 11 0.5 17t-17.5 10.5t-41.5 6t-77.5 3.5q-12 0 -14.5 4t1.5 15z" />
<glyph unicode="X" horiz-adv-x="1271" d="M-24 22l9 45q0 2 1 5q2 12 5.5 16t15.5 5q89 3 120 16.5t72 61.5l427 490l-198 503q-6 21 -15 29t-35.5 12t-87.5 5q-13 1 -15 7t2 19l10 45q3 15 7 18.5t19 3.5h421q16 0 18.5 -5.5t-2.5 -20.5l-7 -37q-3 -12 -4 -15t-4.5 -8t-8.5 -6t-15 -1q-88 -1 -107 -14t-3 -51 l140 -352l283 326q43 49 45 63q4 15 -18 20.5t-79 7.5q-19 0 -22.5 6t1.5 24l8 37q5 16 9.5 21t18.5 5h394q15 0 18.5 -4t0.5 -18l-11 -48q-4 -18 -10 -20q-3 -2 -12 -3q-76 -3 -118 -18.5t-74 -53.5l-393 -451l199 -501q23 -58 47.5 -76.5t51.5 -18.5q18 0 47.5 5t36.5 5 q8 2 12 -0.5t3 -12.5l-6 -53q-3 -18 -9 -25t-25 -14q-48 -15 -119 -15q-44 0 -74 9.5t-50.5 33t-32 45.5t-27.5 63l-168 423l-322 -371q-39 -46 -41 -59q-2 -8 2.5 -14t17.5 -9.5t34 -5.5t54 -3q18 0 21.5 -6t-0.5 -24l-10 -37q-3 -16 -7.5 -21t-18.5 -5h-404q-14 0 -17.5 4 t-0.5 18z" />
<glyph unicode="Y" horiz-adv-x="1241" d="M233 1231l11 54q3 11 7 14.5t15 3.5h414q17 0 11 -18l-11 -52q-3 -23 -23 -23q-77 -2 -104.5 -8t-31.5 -22q-12 -57 -13 -113t9 -107t25.5 -97t40 -93t47.5 -84t53 -81q82 72 135.5 125t119 129t107 156.5t59.5 164.5q2 8 -2.5 13.5t-19.5 9t-38 5t-61 2.5 q-12 0 -15.5 5.5t-1.5 17.5l11 52q6 18 21 18h397q11 0 14 -3.5t0 -14.5l-11 -54q-3 -21 -22 -21q-81 -3 -112 -10t-35 -25q-25 -100 -78 -198t-127 -186.5t-142 -156.5t-156 -144l-58 -276h2l-5 -26q-6 -25 -8 -37t0.5 -25t8.5 -17t23 -8.5t37 -5.5t58 -2q20 0 23 -6 t-1 -24l-9 -37q-3 -16 -7.5 -21t-20.5 -5h-434q-16 0 -19 4t1 18l9 45q3 15 7 20t17 6q41 1 63 2t43 5.5t29 8.5t17 16t12.5 23.5t8.5 35.5l63 298q-30 41 -54.5 78.5t-51.5 85.5t-46.5 93t-36 98.5t-24 106t-6.5 112.5t13 119q2 17 -28 24.5t-106 10.5q-12 1 -14.5 5.5 t1.5 15.5z" />
<glyph unicode="Z" horiz-adv-x="1061" d="M45 19l11 59q5 16 15 32l879 1085h-496q-19 0 -26.5 -11t-16.5 -45l-48 -180q-6 -21 -28 -21h-54q-24 0 -18 23l68 322q3 14 7 17t18 3h761q14 0 16.5 -6.5t-1.5 -21.5l-11 -56q-5 -24 -24 -46l-861 -1065h527q27 0 39 41l51 186q5 15 10.5 19.5t20.5 4.5h56 q11 0 13.5 -6.5t-2.5 -21.5l-65 -309q-3 -14 -7.5 -18t-14.5 -4h-810q-13 0 -9 19z" />
<glyph unicode="[" horiz-adv-x="584" d="M54 -279l341 1603q1 9 2 12.5t4.5 5.5t9.5 2h293q4 0 5.5 -0.5t3.5 -2.5t0 -6l-19 -86q-1 -7 -3.5 -8t-10.5 -1h-164l-304 -1426h162q10 0 12 -1.5t1 -9.5l-18 -84q-2 -9 -13 -9h-298q-6 0 -4 11z" />
<glyph unicode="\" horiz-adv-x="850" d="M270 1322h143l308 -1354h-148z" />
<glyph unicode="]" horiz-adv-x="584" d="M-37 -279l17 85q2 10 11 10h165l304 1424h-164q-9 0 -10.5 1.5t-0.5 9.5l18 84q2 9 12 9h298q10 0 7 -9l-341 -1605q-3 -13 -6 -16.5t-12 -3.5h-293q-5 0 -6 2t1 9z" />
<glyph unicode="^" horiz-adv-x="1228" d="M212 806l613 503l402 -503l-114 -80l-322 423l-502 -423z" />
<glyph unicode="_" horiz-adv-x="1092" d="M45 -114l24 114h821l-24 -114h-821z" />
<glyph unicode="`" horiz-adv-x="629" d="M419 1592q-9 13 -5.5 20.5t18.5 7.5h100q19 0 26.5 -5t14.5 -21l131 -201q19 -30 -15 -30h-58q-14 0 -23.5 6t-24.5 24z" />
<glyph unicode="a" horiz-adv-x="1145" d="M123 462q40 189 157 305.5t303 116.5q211 0 272 -137l16 78q5 22 15 31.5t30 9.5h69q14 0 35.5 -2t60 -6t77.5 -7q15 0 18.5 -5t0.5 -19l-10 -45q-3 -9 -4 -12.5t-4 -7t-6 -4t-10 -0.5l-106 -2q-50 -4 -60 -60l-100 -473q-14 -75 -1 -100.5t47 -25.5q46 0 56 44 q5 23 8.5 27.5t21.5 4.5h34q15 0 18 -5.5t0 -24.5q-18 -83 -63 -117.5t-114 -34.5q-154 0 -154 150q-104 -150 -309 -150q-101 0 -171 35.5t-103 98.5t-40.5 149.5t16.5 187.5zM264 438q-16 -64 -11.5 -124.5t23 -108t64.5 -76t114 -28.5q127 0 213 90.5t121 247.5 q32 153 -14 245t-174 92q-68 0 -126 -27.5t-98.5 -75t-68.5 -107t-43 -128.5z" />
<glyph unicode="b" horiz-adv-x="1098" d="M-22 22l9 45q2 14 6 19.5t16 6.5q108 3 133.5 16.5t39.5 74.5l202 954q8 39 2.5 47t-36.5 10l-93 4q-12 0 -13.5 5.5t2.5 18.5l9 41q3 16 9.5 22t20.5 6q91 11 149 11h85q40 0 30 -37l-121 -573q60 93 150 142t189 49q88 0 149.5 -36t90 -100t35 -150t-17.5 -187 q-19 -92 -56 -167.5t-91.5 -134t-132 -90.5t-171.5 -32q-102 0 -177.5 41t-84.5 125l-24 -110q-4 -18 -7 -24.5t-12 -12.5t-26 -6h-248q-15 0 -17 4t1 18zM372 410q-31 -143 14.5 -230t170.5 -87q131 0 212 92t114 247q17 70 14.5 131t-20.5 107t-61.5 72.5t-109.5 26.5 q-126 0 -212.5 -98t-121.5 -261z" />
<glyph unicode="c" horiz-adv-x="906" d="M117 473q45 202 172.5 306.5t323.5 104.5q84 0 157.5 -13.5t108.5 -30.5q15 -7 18 -16t-1 -33l-53 -247q-5 -19 -24 -19h-63q-16 0 -13 17l28 205q-63 28 -157 28q-133 0 -226 -77.5t-127 -245.5q-15 -71 -17 -125.5t11.5 -93t36 -64.5t58 -41t76 -21t93.5 -6 q91 0 231 33q14 4 18 -2.5t1 -23.5l-11 -54q-3 -13 -9.5 -19t-22.5 -11q-96 -33 -233 -33q-74 0 -132.5 10t-109 32.5t-82.5 59.5t-52.5 90.5t-18.5 125t19 164.5z" />
<glyph unicode="d" horiz-adv-x="1113" d="M121 449q41 195 155 315t288 120q70 0 126 -15.5t97.5 -53.5t52.5 -96l87 419q8 39 3 47t-36 10l-93 4q-12 0 -14 5.5t2 18.5l10 41q3 16 9.5 22t20.5 6q91 11 148 11h88q38 0 28 -37l-218 -1026q-15 -61 -10 -93t16.5 -42t34.5 -10q46 0 56 45q3 11 4 14.5t5 9t10.5 6.5 t17.5 1h22q21 0 25.5 -6.5t-0.5 -23.5q-33 -150 -183 -150q-146 0 -143 147q-58 -80 -143.5 -114.5t-176.5 -34.5q-96 0 -164 35t-100.5 96.5t-40 145.5t15.5 183zM261 430q-17 -91 -7.5 -164t60.5 -119t138 -46q132 0 215 82t115 230q36 177 -10.5 264.5t-181.5 87.5 q-130 0 -214 -91.5t-115 -243.5z" />
<glyph unicode="e" horiz-adv-x="940" d="M119 428q47 222 166.5 339t323.5 117q170 0 243 -75.5t44 -216.5q-55 -257 -382 -257q-155 0 -263 39q-11 -82 0.5 -138.5t46 -87t80.5 -43t112 -12.5q117 0 251 47q8 3 22 7.5t17 5.5q15 5 20 0.5t2 -17.5l-11 -56q-5 -18 -10.5 -24.5t-24.5 -14.5q-125 -58 -294 -58 q-226 0 -309 109t-34 336zM277 492q101 -41 213 -41q237 0 266 141q20 90 -24 135.5t-134 45.5q-242 0 -321 -281z" />
<glyph unicode="f" horiz-adv-x="646" d="M-186 -313l11 52q8 31 32 25q47 -10 91 -10q40 0 67 9t46.5 25.5t35.5 52.5t27 76.5t27 110.5l156 735h-130q-21 0 -15 19l13 65q6 19 22 19h131l18 84q14 66 31 116.5t45 100.5t64 82.5t89 52.5t119 20q108 0 157 -21.5t39 -66.5l-39 -191q-4 -14 -8 -16.5t-16 -2.5h-64 q-11 0 -13 3t-2 14l19 154q-29 17 -80 17q-76 0 -124 -56t-75 -186l-23 -104h205q20 0 17 -21l-13 -61q-6 -21 -24 -21h-205l-149 -702q-27 -126 -53.5 -202t-67 -127t-93.5 -70t-134 -19q-23 0 -42.5 1.5t-44 5t-37.5 13.5t-10 24z" />
<glyph unicode="g" horiz-adv-x="1105" d="M20 -277l10 46q5 18 11 23t20 1q116 -38 184 -46q36 -4 75 -4q85 0 144.5 14.5t109.5 52t83.5 105t55.5 169.5l8 33q-109 -128 -306 -128q-96 0 -163.5 35t-100 96.5t-40 145.5t15.5 183q41 195 155 315t288 120q114 0 191.5 -44t85.5 -138l26 123q5 22 15 31.5t30 9.5 h69q13 0 34.5 -2t60.5 -6t78 -7q14 0 17.5 -5t-0.5 -19l-10 -45q-5 -16 -8 -20t-14 -4l-106 -2q-50 -4 -60 -60l-130 -612q-52 -252 -173 -353.5t-352 -101.5q-186 0 -287 47q-15 7 -18.5 15.5t1.5 31.5zM266 430q-17 -66 -12 -126t25.5 -105t66.5 -71.5t112 -26.5 q132 0 215 82t115 230q36 177 -10.5 264.5t-183.5 87.5q-129 0 -213 -92t-115 -243z" />
<glyph unicode="h" horiz-adv-x="1111" d="M-24 22l9 45q3 14 7.5 19.5t16.5 6.5q108 3 133.5 16.5t39.5 74.5l202 954q12 59 -32 59l-97 2q-9 0 -10 4.5t3 17.5l9 47q5 17 8 21t16 5q36 2 74.5 5.5l60.5 5.5t33 2h69q22 0 28 -10.5t0 -30.5l-114 -536q64 79 148 116.5t174 37.5q132 0 180 -68.5t17 -214.5 l-76 -359q-15 -61 -9.5 -93t17 -42t33.5 -10q46 0 56 44q5 23 9.5 27.5t22.5 4.5h31q17 0 21 -5.5t0 -24.5q-19 -83 -63.5 -117.5t-115.5 -34.5q-87 0 -128 53.5t-15 175.5l78 370q21 100 -5.5 140.5t-95.5 40.5q-123 0 -216.5 -100.5t-137.5 -305.5l-42 -207q-8 -43 12 -53 t112 -12q18 0 21.5 -6t-0.5 -24l-9 -37q-3 -16 -8 -21t-19 -5h-430q-16 0 -19 4t1 18z" />
<glyph unicode="i" horiz-adv-x="577" d="M153 786l9 41q3 16 9.5 22t20.5 6q91 11 149 11h87q38 0 28 -39l-125 -585q-15 -61 -9.5 -93t17.5 -42t35 -10q46 0 56 44q6 27 12 30q4 2 18 2h33q17 0 20 -5.5t-1 -24.5q-19 -83 -63.5 -117.5t-115.5 -34.5q-86 0 -127.5 54t-15.5 175l104 497q4 25 -3 32t-34 9l-93 3 q-12 0 -13.5 6t2.5 19zM367 1132q7 37 35.5 61.5t64.5 24.5q34 0 53 -24.5t12 -61.5q-8 -38 -37.5 -62t-64.5 -24q-36 0 -53.5 23.5t-9.5 62.5z" />
<glyph unicode="j" horiz-adv-x="521" d="M-141 -192q3 15 8 20.5t18 5.5h61q5 0 8 -2t3 -7t-0.5 -9t-2 -10.5t-1.5 -10.5q-2 -26 13 -40t49 -14q36 0 66 30t49 117l172 812q8 39 2.5 47.5t-36.5 10.5l-93 3q-12 0 -13.5 6t2.5 19l9 41q3 16 9.5 22t20.5 6q91 11 149 11h87q38 0 28 -39l-190 -888 q-34 -161 -93.5 -228.5t-168.5 -67.5q-104 0 -138 47t-18 118zM372 1132q7 37 36 61.5t65 24.5q34 0 53 -24.5t12 -61.5q-8 -38 -37.5 -62t-64.5 -24q-36 0 -54 23.5t-10 62.5z" />
<glyph unicode="k" d="M-24 22l9 45q3 14 7.5 19.5t16.5 6.5q108 3 133.5 16.5t39.5 74.5l202 954q12 56 -32 59l-93 2q-11 2 -13.5 5.5t0.5 16.5l9 47q4 15 10 19.5t20 6.5q36 2 74.5 5.5t60 5.5t32.5 2h69q22 0 28 -10.5t0 -30.5l-169 -793l339 264q27 23 16 29q-12 7 -91 7q-18 0 -21 6.5 t1 24.5l7 36q3 9 4.5 12.5t4.5 7.5t8 5t13 1h395q14 0 17 -4.5t-1 -18.5l-11 -48q-2 -12 -5.5 -16t-14.5 -4q-80 0 -111 -10.5t-87 -55.5l-318 -247l177 -285q24 -49 41.5 -69t44.5 -20q66 0 80 61q5 30 35 30h19q21 0 25 -6t-1 -32q-35 -160 -199 -160q-32 0 -58 8.5 t-41.5 19t-31.5 32.5t-22.5 34.5t-20.5 39.5l-195 341l-58 -268q-6 -25 -8 -37t0.5 -25t8.5 -17t23 -8.5t37 -5.5t58 -2q18 0 21.5 -6t-0.5 -24l-9 -37q-3 -16 -8 -21t-19 -5h-430q-16 0 -19 4t1 18z" />
<glyph unicode="l" horiz-adv-x="521" d="M147 220l199 942q6 35 1 42.5t-34 9.5l-95 2q-12 0 -14 3.5t1 16.5l9 51q4 16 10 20t20 4q138 11 149 11h89q36 0 28 -34l-223 -1046q-15 -61 -9.5 -93t17.5 -42t35 -10q45 0 55 44q5 24 9 28t23 4h32q17 0 20 -5.5t0 -24.5q-19 -83 -63.5 -117.5t-115.5 -34.5 q-87 0 -128 53.5t-15 175.5z" />
<glyph unicode="m" horiz-adv-x="1606" d="M13 22l9 45q3 15 7 20t16 6q95 3 120 15.5t36 62.5l112 529q12 57 -32 60l-97 1q-9 0 -10.5 5t1.5 18l9 46q4 16 8 20t17 6q36 2 74.5 5.5l60.5 5.5t34 2h69q21 0 26.5 -10.5t-0.5 -29.5l-21 -94q108 149 289 149q175 0 199 -145q115 145 307 145q130 0 177 -81.5 t10 -258.5l-66 -302q-15 -61 -9.5 -93t17 -42t33.5 -10q46 0 56 44q5 23 9.5 27.5t22.5 4.5h32q17 0 20 -5.5t0 -24.5q-19 -83 -63.5 -117.5t-115.5 -34.5q-87 0 -128 53.5t-15 175.5l65 312q27 129 0 184t-106 55q-96 0 -166 -67t-100 -196l-69 -316q-6 -26 -8 -38.5 t1.5 -25.5t10.5 -17.5t26.5 -9.5t42.5 -6t66 -2q18 0 21.5 -6t-0.5 -24l-9 -37q-2 -10 -2.5 -13t-3.5 -7t-7.5 -5t-12.5 -1h-417q-14 0 -17 4t0 18l9 45q3 15 7 20t15 6q63 2 88 10t33.5 24t18.5 65l78 367q21 119 -8 165.5t-102 46.5q-215 0 -290 -345l-50 -242 q-15 -58 0 -73t100 -16q20 -1 23.5 -7.5t-0.5 -24.5l-10 -37q-3 -16 -7.5 -21t-20.5 -5h-396q-13 0 -16.5 4t-0.5 18z" />
<glyph unicode="n" horiz-adv-x="1137" d="M4 22l9 45q3 14 7.5 19.5t16.5 6.5q108 3 133.5 16.5t39.5 74.5l108 516q13 60 -31 60l-97 1q-9 0 -10.5 5t2.5 18l10 46q5 17 8 21t16 5q36 2 74.5 5.5l60.5 5.5t33 2h68q23 0 28.5 -10.5t-0.5 -29.5l-20 -99q64 79 148 116.5t174 37.5q132 0 180 -68.5t17 -214.5 l-76 -359q-15 -61 -9.5 -93t17 -42t33.5 -10q46 0 56 44q5 23 9 27.5t22 4.5h32q17 0 21 -5.5t0 -24.5q-19 -83 -63.5 -117.5t-115.5 -34.5q-87 0 -128.5 53.5t-15.5 175.5l79 370q21 100 -5.5 140.5t-95.5 40.5q-123 0 -216.5 -100.5t-137.5 -305.5l-42 -207q-8 -43 12 -53 t112 -12q18 0 21.5 -6t-0.5 -24l-10 -37q-3 -16 -7.5 -21t-18.5 -5h-430q-16 0 -19 4t1 18z" />
<glyph unicode="o" d="M119 462q15 67 40.5 126.5t67 114.5t94.5 94.5t125.5 63t156.5 23.5q80 0 143 -18t104.5 -50.5t69 -76t38 -96.5t10 -109t-14.5 -117q-18 -84 -56 -157.5t-96.5 -135t-145 -97.5t-190.5 -36q-80 0 -143.5 18.5t-104.5 51.5t-68 77t-37 97.5t-8 109.5t15 117zM259 434 q-16 -66 -11.5 -126.5t25.5 -106.5t70.5 -73t123.5 -27q137 0 225 94.5t118 238.5q17 66 11.5 127.5t-26 109t-70 76t-122.5 28.5q-93 0 -167 -50t-115.5 -124.5t-61.5 -166.5z" />
<glyph unicode="p" horiz-adv-x="1092" d="M-97 -331l9 44q3 14 7.5 19.5t15.5 6.5q46 1 70 3.5t43.5 6.5t28 15t13.5 24t11 39q89 411 188 882q8 48 -36 51l-95 1q-9 0 -10.5 5t1.5 18l9 46q5 17 8 21t16 5q36 2 75 5.5t61 5.5t34 2h69q21 0 27 -9.5t1 -30.5l-30 -144q55 97 143.5 147.5t185.5 50.5 q93 0 157.5 -36t95 -99.5t37 -149.5t-17.5 -187q-42 -192 -155.5 -311t-289.5 -119q-99 0 -176 42.5t-90 125.5l-67 -315q-5 -24 -7 -37t2 -25t10 -16.5t25 -9t39 -5.5t58 -2q20 0 23 -5.5t-3 -23.5l-7 -38q-3 -16 -8.5 -21t-21.5 -5h-432q-15 0 -17.5 4.5t0.5 18.5z M369 406q-31 -147 12.5 -233.5t169.5 -86.5q130 0 211.5 93t114.5 247q17 71 15 133.5t-20 109t-61.5 73.5t-108.5 27q-127 0 -212.5 -98.5t-120.5 -264.5z" />
<glyph unicode="q" horiz-adv-x="1105" d="M121 462q40 189 157 305.5t303 116.5q211 0 272 -137l16 78q5 22 15 31.5t30 9.5h69q14 0 35.5 -2t60 -6t77.5 -7q15 0 18.5 -5t0.5 -19l-10 -45q-3 -9 -4 -12.5t-4 -7t-6 -4t-10 -0.5l-106 -2q-22 -2 -38 -17t-21 -43l-185 -865q-5 -24 -7 -35.5t1 -24t9 -16.5 t23.5 -8.5t38 -5.5t58.5 -2q19 0 22.5 -5.5t-1.5 -23.5l-8 -38q-3 -15 -9 -20.5t-22 -5.5h-434q-14 0 -16.5 4.5t1.5 18.5l9 44q3 15 7 20t15 6q109 3 137 16.5t40 75.5l64 297q-105 -137 -300 -137q-101 0 -171 35.5t-103 98.5t-40.5 149.5t16.5 187.5zM263 438 q-16 -64 -12 -124.5t22.5 -108t64.5 -76t114 -28.5q127 0 213 90.5t121 247.5q32 153 -14 245t-174 92q-68 0 -125.5 -27t-98 -75t-68.5 -107t-43 -129z" />
<glyph unicode="r" horiz-adv-x="880" d="M4 22l9 45q3 15 6.5 20t15.5 6q101 3 129 14t41 55l113 538q13 60 -31 60l-97 1q-9 0 -10.5 5t1.5 18l9 46q4 16 8 20t16 6q36 2 75 5.5t61.5 5.5t33.5 2h68q23 0 28.5 -10.5t-0.5 -29.5l-35 -166q128 221 339 221q67 0 112 -24q15 -8 17.5 -18t-3.5 -36l-55 -255 q-3 -13 -7 -16t-16 -3h-69q-15 0 -13 17l30 205q-22 9 -56 9q-254 0 -363 -517l-22 -105q-3 -31 19.5 -38.5t106.5 -9.5q20 0 23.5 -6t-0.5 -24l-10 -37q-3 -17 -7.5 -21.5t-19.5 -4.5h-429q-16 0 -19 4t1 18z" />
<glyph unicode="s" horiz-adv-x="867" d="M43 54l43 201q4 24 11 30.5t26 6.5h50q8 0 10 -0.5t6.5 -3t2.5 -8.5t-2 -17l-21 -146q93 -24 209 -24q114 0 171.5 28t74.5 108q10 51 -5.5 85.5t-49.5 50.5t-79 28.5t-93.5 19.5t-93 23.5t-76.5 40.5t-45.5 70.5t0.5 113.5q25 123 109.5 173t246.5 50q37 0 70.5 -1 t57.5 -3t46.5 -5t36 -5t28 -5.5t20 -5.5t14.5 -5t10 -3q15 -7 18.5 -15t-1.5 -22l-45 -198q-3 -11 -8.5 -15.5t-11 -5.5t-17.5 -1h-45q-15 0 -18.5 6t0.5 24l20 134q-78 20 -184 20q-97 0 -146.5 -21.5t-64.5 -91.5q-10 -48 13.5 -77.5t68 -42t99 -21.5t107.5 -24t94.5 -42 t59 -83t0.5 -139q-13 -62 -38 -107t-58 -72t-81 -42.5t-96.5 -20.5t-114.5 -5q-96 0 -184.5 10t-124.5 25q-25 10 -20 30z" />
<glyph unicode="t" horiz-adv-x="681" d="M155 780l13 62q3 15 8 19.5t18 4.5h130l104 255q9 26 32 26h33q15 0 18.5 -6.5t-1.5 -21.5l-54 -253h257q13 0 16.5 -5t0.5 -19l-13 -62q-5 -15 -8.5 -18.5t-17.5 -3.5h-257l-99 -462q-23 -126 -5 -167t81 -41q90 0 105 74q5 24 28 24h35q14 0 17 -6t0 -22 q-35 -177 -218 -177q-130 0 -173.5 74t-9.5 234q23 89 59.5 262.5t43.5 206.5h-127q-14 0 -17 4t1 18z" />
<glyph unicode="u" horiz-adv-x="1113" d="M140 789l7 40q4 16 10 21t18 5q40 2 65 4.5t32 3.5t20 2t36 1h87q20 0 25 -11t-1 -32l-111 -529q-25 -119 4.5 -162t112.5 -43q121 0 202.5 73t121.5 242l69 324q-3 31 -37 35l-97 2q-16 0 -10 24l8 40q4 16 10 21t18 5q40 2 65 4.5t32 3.5t20 2t36 1h87q20 0 25 -11 t-1 -32l-123 -581q-15 -61 -9.5 -93t17.5 -42t35 -10q46 0 56 44q6 27 12 30q4 2 18 2h33q16 0 20.5 -5.5t0.5 -24.5q-18 -83 -63.5 -117.5t-115.5 -34.5q-151 0 -154 143q-112 -147 -308 -147q-150 0 -203.5 72t-17.5 239l57 275h2l30 138q9 48 -35 52l-97 2q-9 0 -11 5.5 t2 18.5z" />
<glyph unicode="v" horiz-adv-x="1007" d="M145 788l15 65q2 13 17 13h370q15 0 12 -15l-13 -62q-3 -11 -7 -14.5t-16 -3.5q-76 -1 -95 -6.5t-22 -25.5q-17 -88 -18.5 -173t14.5 -169.5t29.5 -136.5t39.5 -137q61 81 98.5 136t88 138t85 168.5t54.5 173.5q6 19 -7 24q-16 5 -94 8q-18 0 -15 17l13 61q3 10 6.5 13.5 t12.5 3.5h345q14 0 17 -4.5t-1 -12.5l-11 -60q-6 -16 -22 -16q-83 -4 -100.5 -9t-22.5 -25q-26 -107 -73.5 -214.5t-110 -203.5t-113 -163.5t-113.5 -142.5q-12 -15 -31 -15h-80q-20 0 -28 15q-24 63 -40.5 109.5t-37.5 126.5t-30 150t-8.5 160.5t17.5 177.5q1 13 -3.5 18 t-30 8.5t-81.5 3.5q-14 0 -10 19z" />
<glyph unicode="w" horiz-adv-x="1565" d="M141 788l15 65q1 9 5 11t14 2h397q16 0 13 -15l-13 -62q-6 -18 -25 -18q-72 -2 -98 -7t-26 -23q-17 -86 -18.5 -171.5t12.5 -166.5t29 -140t40 -135q78 104 130.5 182t111 198t84.5 233q4 6 2 11q0 10 -24 13.5t-94 5.5q-16 0 -13 17l15 63q3 15 17 15h372q9 0 12.5 -2.5 t2.5 -10.5l-15 -65q-1 -6 -2 -9t-4.5 -4.5t-9.5 -1.5q-108 -5 -129 -15q-12 -76 -14.5 -149.5t3.5 -133t20.5 -124.5t29.5 -113.5t37 -109.5q78 104 130.5 182t111 198t84.5 233l2 11q0 10 -22 14t-91 5q-18 0 -15 17l15 63q3 15 16 15h367q10 0 14 -3.5t3 -11.5l-15 -63 q-3 -15 -21 -15q-89 -4 -108.5 -9t-26.5 -23q-76 -322 -408 -726q-10 -15 -26 -15h-93q-20 0 -25 15q-85 204 -108 409q-103 -188 -281 -409q-10 -15 -28 -15h-91q-16 0 -24 15q-158 396 -97 726q2 15 -22 21.5t-103 10.5q-18 0 -15 15z" />
<glyph unicode="x" horiz-adv-x="1042" d="M-11 22l9 41q3 15 8 20t20 5q71 0 98.5 9.5t65.5 47.5l281 287l-158 294q-14 29 -43 39t-84 10q-11 0 -13.5 5.5t0.5 20.5l9 42q3 14 8.5 18.5t18.5 4.5h361q15 0 18 -5.5t-2 -20.5l-5 -30q-4 -15 -6 -20.5t-8 -10t-18 -4.5q-66 0 -80.5 -9.5t-1.5 -39.5l105 -192 l189 196q27 29 17 37t-76 8q-15 0 -18 8.5t3 26.5l6 30q3 10 4 13t4 7t7 5t11 1h344q14 0 18 -4.5t1 -18.5l-10 -42q-3 -15 -8 -20.5t-16 -5.5q-54 0 -89 -10.5t-63 -38.5l-280 -281l166 -304q18 -35 41 -44t89 -9q15 0 19.5 -5t1.5 -20l-10 -41q-4 -19 -9 -21q-4 -1 -13 -1 h-369q-13 0 -15.5 5.5t1.5 20.5l7 32q6 25 13 28q4 2 13 2q89 -2 91 16q1 6 -5 17l-119 223l-222 -223q-22 -21 -5 -27q18 -6 96 -6q16 0 19 -6t-2 -24l-7 -32q-2 -10 -2.5 -13t-3 -7t-6.5 -5t-11 -1h-370q-14 0 -16 4t1 18z" />
<glyph unicode="y" horiz-adv-x="1040" d="M28 -359l13 54q1 7 2.5 10.5t6.5 5.5t15 2q108 12 127 19q22 8 43 33q157 221 167 235q-21 0 -26 15q-45 108 -86 337.5t-13 386.5q2 17 -17.5 23.5t-93.5 10.5q-11 0 -13 3t0 12l15 65q2 13 16 13h373q14 0 11 -15l-13 -62q-3 -11 -7 -14.5t-16 -3.5q-52 -1 -77 -5.5 t-30 -9.5t-6 -17q-23 -119 3.5 -308t61.5 -308q157 240 348 611q11 21 2 26q-14 8 -95 11q-13 1 -15.5 4.5t0.5 13.5l11 58q5 19 23 19h342q14 0 17.5 -4t-0.5 -15l-11 -56q-3 -10 -7 -13.5t-15 -6.5q-55 -2 -78 -6.5t-32.5 -12.5t-20.5 -30q-139 -279 -291.5 -525 t-348.5 -512q-33 -38 -62.5 -49.5t-71.5 -11.5h-131q-16 0 -19 2t-1 15z" />
<glyph unicode="z" horiz-adv-x="906" d="M35 28l10 43q5 24 20 39l641 659h-354q-19 0 -27.5 -6t-13.5 -24l-32 -136q-7 -22 -30 -22h-54q-10 0 -14.5 0.5t-8 6t-1.5 15.5l51 235q6 28 31 28h626q24 0 18 -28l-9 -45q-6 -25 -24 -43l-635 -655h380q34 0 44 30l38 145q5 18 12 24t21 6h51q16 0 19 -6t-1 -31 l-48 -235q-8 -28 -28 -28h-661q-27 0 -21 28z" />
<glyph unicode="{" horiz-adv-x="653" d="M91 488l15 69q3 13 21 16q105 17 150.5 62t65.5 140l65 307q11 54 31 95.5t55 78.5t92.5 57t134.5 20h52q6 0 8 -0.5t4 -3.5t-1 -9l-15 -71q-3 -18 -19 -18h-5q-167 0 -198 -149l-63 -302q-26 -115 -72.5 -174t-135.5 -85q79 -25 101 -85.5t-3 -171.5l-65 -301 q-15 -74 16.5 -111.5t117.5 -37.5h6q14 0 11 -19l-15 -71q-2 -13 -17 -13h-52q-62 0 -106 14t-67.5 36.5t-34 56t-9.5 68t10 77.5l66 307q20 95 -6 139.5t-125 61.5q-16 2 -13 17z" />
<glyph unicode="|" horiz-adv-x="498" d="M47 -311l355 1670h136l-356 -1670h-135z" />
<glyph unicode="}" horiz-adv-x="653" d="M-43 -276l15 71q3 19 17 19h4q87 0 134.5 37t62.5 112l65 301q25 114 71 173t136 84q-80 26 -101.5 86t4.5 173l63 302q15 75 -16 112t-118 37h-4q-10 0 -12 5t1 13l15 71q4 13 19 13h52q77 0 126 -20.5t67 -55.5t22 -80t-10 -95l-65 -307q-20 -94 6.5 -139.5 t123.5 -62.5q16 -3 13 -16l-15 -69q-3 -14 -20 -17q-104 -17 -150 -62t-66 -139l-66 -307q-12 -54 -31 -95.5t-54 -79t-92 -57.5t-134 -20h-52h-4.5t-4 1.5t-2.5 4v7.5z" />
<glyph unicode="~" horiz-adv-x="1275" d="M147 372q79 112 180.5 173.5t197.5 61.5q50 0 92 -21.5t71 -52.5t56 -61.5t59.5 -52t69.5 -21.5q49 0 104.5 43t109.5 125l97 -43q-69 -117 -160.5 -176.5t-176.5 -59.5q-51 0 -92.5 21.5t-69.5 52t-53.5 61t-57 52t-66.5 21.5q-70 0 -130 -38.5t-123 -123.5z" />
<glyph unicode="&#xa0;" horiz-adv-x="902" d="M177 493l15 69q4 21 20 21h594q17 0 13 -21l-13 -61q-3 -13 -8.5 -18.5t-17.5 -5.5h-592q-9 0 -11 4t0 12z" />
<glyph unicode="&#xa1;" horiz-adv-x="469" d="M28 -317l216 941q4 14 10 17t20 3h70q18 0 13 -22l-188 -940q-3 -21 -20 -21h-102q-14 0 -18 4.5t-1 17.5zM238 793q8 38 39 64.5t71 26.5q36 0 57.5 -27t13.5 -64q-9 -42 -40 -66.5t-68 -24.5q-42 0 -62.5 24t-10.5 67z" />
<glyph unicode="&#xa2;" horiz-adv-x="958" d="M136 419q46 214 186.5 339.5t338.5 125.5q134 0 196.5 -55.5t39.5 -154.5q-10 -49 -37 -87.5t-74 -63t-106 -24.5q-48 0 -75 9q-19 6 -20.5 19.5t5.5 31.5q6 26 28 26q6 0 22.5 -3t29.5 -3q94 0 110 84q13 61 -26.5 87t-109.5 26q-137 0 -232.5 -94t-130.5 -261 q-38 -174 27 -251t202 -77q127 0 278 62q15 5 19 -0.5t1 -22.5l-13 -59q-3 -12 -9.5 -18.5t-22.5 -13.5q-145 -60 -305 -60q-199 0 -282.5 116t-39.5 322zM305 -326l58 240q0 1 1.5 4t1.5 4t1.5 3.5t2 3t2 2.5t3.5 2.5l4 1t5 0.5h89q8 0 7 -13v-4l-42 -242q0 -1 -1 -3 q-2 -4 -2.5 -6.5t-2.5 -5t-4 -3.5t-5 -1h-114q-12 0 -4 17zM585 953l44 240q1 7 2.5 10.5t4.5 6t8 2.5h112q6 0 6.5 -5.5t-1.5 -13.5l-59 -243q-1 -1 -2.5 -4t-2.5 -4.5t-2.5 -3.5t-4 -2.5t-5.5 -0.5h-87q-11 0 -13.5 5.5t0.5 12.5z" />
<glyph unicode="&#xa3;" horiz-adv-x="1182" d="M37 22l10 45q3 16 6.5 20.5t15.5 5.5q48 1 72.5 3t45 5.5t29 13t14 21t10.5 33.5l86 401h-144q-16 0 -13 16l15 69q8 21 23 21h141l52 244q24 116 67 194.5t107.5 123t142 63.5t182.5 19q195 0 317 -45q23 -7 25 -16t-5 -32l-56 -255q-3 -16 -6 -19t-16 -3h-61 q-10 0 -12.5 3t-2.5 15l20 212q-93 25 -221 25q-64 0 -114 -9.5t-94.5 -33t-74.5 -68t-43 -109.5l-65 -309h311q19 0 11 -21l-13 -61q-3 -14 -7.5 -19t-16.5 -5h-308l-96 -449l476 -2q17 0 24.5 8.5t16.5 32.5l47 166q6 20 16 25t32 5h34q20 0 18 -21q-1 -2 -7 -33l-60 -282 q-3 -14 -7.5 -17t-18.5 -3h-886q-15 0 -18.5 4t-0.5 18z" />
<glyph unicode="&#xa4;" horiz-adv-x="1225" d="M121 143l128 108q-82 121 -44 296q38 183 182 304l-76 106l95 50l74 -93q126 71 272 71q161 0 257 -80l119 95l75 -52l-134 -110q79 -119 44 -291q-38 -174 -165 -292l85 -108l-104 -56l-82 90q-127 -73 -281 -73q-153 0 -248 71l-117 -93zM348 547q-32 -149 34 -243 t206 -94q136 0 243 94.5t139 242.5q32 147 -35.5 241.5t-204.5 94.5q-141 0 -245 -93t-137 -243z" />
<glyph unicode="&#xa5;" horiz-adv-x="1303" d="M242 346l13 62q5 16 21 16h327l11 56q-2 2 -13 21h-309q-15 0 -15 15l13 61q5 17 21 17h227q-187 304 -130 581q2 8 -4 14t-22 10t-41.5 6.5t-64.5 4.5q-14 1 -16.5 5.5t1.5 15.5l11 54q3 11 8 14.5t16 3.5h411q20 0 14 -18l-12 -52q-3 -23 -24 -23q-76 -2 -104 -8 t-32 -22q-12 -57 -13 -113t9.5 -107.5t25.5 -97t40 -93t47.5 -84t52.5 -80.5q65 58 108 98t101 102.5t95.5 116t71 122t47.5 136.5q2 8 -2.5 13.5t-19.5 9t-38 5t-61 2.5q-12 0 -15.5 5.5t-1.5 17.5l11 52q3 11 7 14.5t14 3.5h394q12 0 15 -3.5t0 -14.5l-11 -54 q-1 -8 -2 -11.5t-5.5 -6.5t-12.5 -3q-81 -3 -112 -10t-35 -25q-74 -284 -390 -581h241q16 0 13 -19l-11 -52q-3 -22 -25 -22h-318l-13 -11l-13 -66h331q16 0 13 -18l-11 -54q-6 -21 -26 -21h-328l-29 -143q-6 -25 -8 -37t0.5 -25t8.5 -17t23 -8.5t37 -5.5t58 -2q18 0 21 -6 t-1 -24l-9 -37q-3 -16 -7.5 -21t-18.5 -5h-436q-15 0 -17.5 4t0.5 18l10 45q3 15 6.5 20t15.5 6q42 1 64 2t43 5.5t29.5 8.5t17.5 16t12.5 23.5t8.5 35.5l6 30h2l24 117h-328q-16 0 -13 15z" />
<glyph unicode="&#xa6;" horiz-adv-x="504" d="M60 -266l154 728h136l-155 -728h-135zM238 577l155 724h136l-155 -724h-136z" />
<glyph unicode="&#xa7;" horiz-adv-x="1061" d="M24 -153l56 261q3 14 10 19t24 5h61q24 0 17 -22l-30 -209q93 -29 244 -29q47 0 90.5 6t95.5 22.5t89 53.5t49 91q13 61 0.5 107t-43.5 72.5t-74 48t-92.5 34.5t-98.5 31.5t-91.5 39.5t-72 58t-39.5 87t6 127q28 129 95 201q-37 70 -13 186q17 84 58.5 142t102.5 88 t126.5 42.5t148.5 12.5q101 0 183.5 -14.5t116.5 -32.5q16 -8 19.5 -15.5t-1.5 -26.5l-56 -263q-4 -18 -9.5 -22t-21.5 -4h-62q-6 0 -10 1.5t-5 4.5t-1.5 5t0.5 5v4l27 213q-51 18 -91 23.5t-111 5.5q-242 0 -274 -150q-11 -54 2.5 -93t45 -61t75.5 -40.5t93.5 -31 t98.5 -31.5t90.5 -43t70 -66t37 -99.5t-8.5 -143.5q-15 -67 -41 -124.5t-46 -67.5q31 -77 4 -195q-66 -309 -483 -309q-93 0 -202.5 14.5t-143.5 31.5q-23 17 -15 50zM365 668q-14 -66 8 -109.5t73 -67.5t106.5 -40t123.5 -40t110 -55q14 27 24 72q13 47 5.5 85t-21.5 63 t-43 46t-58.5 34.5t-69.5 27t-74.5 23.5t-73.5 25.5t-67 32.5q-33 -40 -43 -97z" />
<glyph unicode="&#xa8;" horiz-adv-x="698" d="M348 1454q5 32 30.5 55t60.5 23t53.5 -23t13.5 -55q-7 -33 -34.5 -54.5t-63.5 -21.5q-35 0 -51 21.5t-9 54.5zM676 1454q5 32 33 55t64 23q35 0 52.5 -23t12.5 -55q-7 -32 -35 -54t-64 -22q-37 0 -53.5 21.5t-9.5 54.5z" />
<glyph unicode="&#xa9;" horiz-adv-x="1534" d="M182 618q33 157 108.5 281t179 202t227.5 118.5t260 40.5q139 0 248 -41t182.5 -123t97 -205t-8.5 -286q-33 -154 -107.5 -275t-177 -197t-225.5 -115.5t-259 -39.5q-139 0 -249.5 40.5t-184 120.5t-98.5 200t7 279zM270 618q-28 -139 -8.5 -244.5t81.5 -176t158 -106 t221 -35.5q167 0 301 59t230.5 184t135.5 306q58 279 -67 428t-382 149q-166 0 -301 -61t-232.5 -189.5t-136.5 -313.5zM449 672q40 184 157.5 280t296.5 96q78 0 145.5 -12.5t98.5 -28.5q14 -5 16.5 -13.5t-3.5 -30.5l-47 -226q-3 -12 -6 -15t-14 -3h-58q-15 0 -13 16 l26 187q-56 26 -143 26q-122 0 -207 -70.5t-117 -224.5q-14 -65 -15 -115.5t10.5 -85.5t32 -59t53 -37.5t70 -19.5t85.5 -6q79 0 213 31q12 4 15.5 -2t0.5 -22l-11 -48q-1 -12 -6.5 -17.5t-21.5 -10.5q-95 -32 -212 -32q-81 0 -143 13.5t-112.5 44.5t-75.5 82t-32 126 t17 177z" />
<glyph unicode="&#xaa;" horiz-adv-x="936" d="M244 974q34 157 137.5 252.5t260.5 95.5q68 0 119 -30t77 -84l17 79q3 12 7.5 14t16.5 2h104q17 0 11 -18l-134 -632q-2 -16 -18 -16h-112q-10 0 -11 4.5t3 15.5l15 71q-101 -110 -240 -110q-162 0 -224.5 98.5t-28.5 257.5zM384 970q-26 -122 15.5 -184t138.5 -62 q91 0 158.5 66.5t91.5 179.5q24 112 -16 179t-132 67q-94 0 -162.5 -65.5t-93.5 -180.5z" />
<glyph unicode="&#xab;" horiz-adv-x="960" d="M108 452q-10 14 -9 21t16 20l451 399q16 12 19 13.5t13 -0.5l54 -49q7 -6 5 -9t-17 -17l-389 -353l239 -345q10 -17 10 -23t-7 -12l-72 -43q-11 -6 -17.5 -4t-14.5 15zM424 452q-10 14 -8.5 21t16.5 20l452 399q3 2 6.5 5t5.5 4.5l4 3t3.5 2t3.5 1t3.5 -0.5t3.5 -2 l56 -49q5 -5 3 -9.5t-16 -16.5l-389 -353l238 -345q12 -19 11.5 -24t-9.5 -11l-71 -43q-12 -6 -16.5 -4t-13.5 15z" />
<glyph unicode="&#xac;" horiz-adv-x="1126" d="M197 536l23 110h826l-65 -311h-134l43 201h-693z" />
<glyph unicode="&#xad;" horiz-adv-x="904" d="M179 505l15 68q4 21 20 21h594q17 0 13 -21l-13 -61q-3 -13 -8.5 -18.5t-17.5 -5.5h-592q-9 0 -11 4.5t0 12.5z" />
<glyph unicode="&#xae;" horiz-adv-x="1534" d="M182 618q33 157 108.5 281t179 202t227.5 118.5t260 40.5q139 0 248 -41t182.5 -123t97 -205t-8.5 -286q-33 -154 -107.5 -275t-177 -197t-225.5 -115.5t-259 -39.5q-139 0 -249.5 40.5t-184 120.5t-98.5 200t7 279zM270 618q-28 -139 -8.5 -244.5t81.5 -176t158 -106 t221 -35.5q167 0 301 59t230.5 184t135.5 306q58 279 -67 428t-382 149q-166 0 -301 -61t-232.5 -189.5t-136.5 -313.5zM467 266l10 41q1 7 2 9t3.5 4.5t7.5 3.5q59 3 74 11t22 41l103 479h-2l13 63q5 27 -7.5 36t-65.5 10q-12 2 -7 17l7 41q2 13 17 13h268q280 0 224 -259 q-38 -188 -188 -242l35 -143q8 -39 21 -54t39 -15q21 0 37 9q10 3 13.5 2t3.5 -9l-2 -43q-1 -13 -5.5 -17t-18.5 -9q-43 -13 -84 -13q-27 0 -46.5 7t-30.5 16t-19.5 28.5t-11.5 33.5t-8 42l-35 147h-13q-59 0 -97 7l-30 -143q-8 -36 2 -45.5t62 -10.5q11 0 12.5 -4t-1.5 -15 l-8 -37q-3 -15 -16 -15h-270q-9 0 -10.5 2.5t0.5 10.5zM747 614q42 -7 83 -7q155 0 192 168q19 89 -13.5 133.5t-105.5 44.5h-86z" />
<glyph unicode="&#xaf;" horiz-adv-x="718" d="M378 1419l15 63q3 19 24 19h404q14 0 11 -15l-13 -65q-5 -21 -26 -21h-398q-12 0 -15.5 3.5t-1.5 15.5z" />
<glyph unicode="&#xb0;" horiz-adv-x="735" d="M261 1048q25 117 111.5 195.5t208.5 78.5q123 0 175.5 -79t27.5 -195q-26 -119 -114 -196t-205 -77q-123 0 -176.5 76.5t-27.5 196.5zM393 1050q-17 -82 11.5 -128.5t85.5 -46.5q51 0 97 45.5t63 123.5q16 78 -9 127.5t-81 49.5q-54 0 -102.5 -48.5t-64.5 -122.5z" />
<glyph unicode="&#xb1;" horiz-adv-x="1143" d="M60 -58l24 114h871l-24 -114h-871zM156 423l25 113h368l73 343h136l-73 -343h365l-24 -113h-365l-63 -296h-136l63 296h-369z" />
<glyph unicode="&#xb2;" horiz-adv-x="871" d="M132 572l15 70q3 18 15 26q275 150 448.5 314.5t214.5 352.5q21 101 -20.5 138t-137.5 37q-109 0 -200 -32l-61 -186q-2 -15 -19 -15h-61q-11 0 -12.5 2t1.5 15l50 235q4 19 9.5 25.5t18.5 11.5q146 50 298 50q28 0 49.5 -1t49 -4t48 -8.5t42.5 -16t37.5 -24t28 -34.5 t18 -47t5 -60.5t-9.5 -76.5q-40 -192 -206.5 -365t-419.5 -309h393q12 0 19.5 8.5t14.5 27.5l33 123q1 1 2.5 5.5l2 6t2 4.5t3 3.5t4 2t5.5 2t7 0.5h52q11 0 13.5 -6t-1.5 -24l-53 -248q-3 -12 -6 -14t-12 -2h-669q-14 0 -11 13z" />
<glyph unicode="&#xb3;" horiz-adv-x="835" d="M140 605l13 65q5 25 22 21q2 0 44.5 -10.5t99 -18t117.5 -7.5q126 0 198.5 54.5t97.5 169.5q21 100 -23.5 139.5t-146.5 39.5h-91q-16 0 -11 20l13 67q4 13 11 19l343 329h-335q-15 0 -22 -9t-14 -36l-30 -113q-3 -12 -7 -16.5t-15 -4.5h-52q-13 0 -16.5 3.5t-0.5 17.5 l52 246q3 15 6.5 17.5t16.5 2.5h577q11 0 13 -4.5t-2 -17.5l-13 -56q-1 -7 -2 -11.5t-4.5 -9t-5 -6t-9.5 -9t-13 -11.5l-335 -318h21q155 0 208.5 -65.5t22.5 -208.5q-16 -76 -47.5 -135.5t-72.5 -97.5t-93.5 -62.5t-106 -34.5t-114.5 -10q-180 0 -283 35q-10 3 -12 8t1 18z " />
<glyph unicode="&#xb4;" horiz-adv-x="608" d="M389 1389l183 173q23 26 50 26h113q9 0 13 -4t1 -10.5t-12 -13.5l-238 -184q-26 -17 -48 -17h-56q-16 0 -18 7.5t12 22.5z" />
<glyph unicode="&#xb5;" horiz-adv-x="1176" d="M76 -395l138 644q3 25 9 49l58 275h4l30 138q9 48 -34 52l-99 2q-9 0 -10 5.5t3 18.5l7 40q4 16 9.5 21t18.5 5q39 2 64 4.5t32 3.5t19.5 2t35.5 1h88q20 0 25 -11t-1 -32l-121 -575q-14 -91 17.5 -125t108.5 -34q123 0 205 77.5t121 256.5l64 296q2 40 -36 44l-97 2 q-9 0 -11 5.5t2 18.5l8 40q5 17 10 21.5t19 4.5q38 2 63 4.5t32 3.5t20 2t36 1h88q20 0 25 -11t-1 -32l-28 -140h4l-95 -441q-15 -61 -9.5 -93t17 -42t33.5 -10q47 0 57 44q5 23 8.5 27.5t21.5 4.5h32q17 0 20.5 -5.5t-0.5 -24.5q-19 -83 -63 -117.5t-115 -34.5 q-152 0 -155 147q-113 -151 -309 -151q-94 0 -143 24l-88 -406q-3 -15 -13 -15h-113q-15 0 -12 15z" />
<glyph unicode="&#xb6;" horiz-adv-x="906" d="M216 940q34 158 150 260.5t265 102.5h281l-326 -1539h-113l305 1441h-121l-305 -1441h-114l168 793q-82 1 -134 54t-64 138t8 191z" />
<glyph unicode="&#xb7;" horiz-adv-x="549" d="M192 469q8 42 45.5 71.5t82.5 29.5t70.5 -29.5t17.5 -71.5t-47 -71t-84 -29t-69 29t-16 71z" />
<glyph unicode="&#xb8;" horiz-adv-x="521" d="M-99 -322l17 24q12 17 26 11q38 -15 93 -15q92 0 108 82q6 30 -15 47.5t-85 17.5q-5 0 -13 -0.5t-10.5 -0.5t-5 2.5t0.5 8t9 15.5l86 130h98l-59 -95q71 -1 97.5 -36t15.5 -87q-18 -81 -79.5 -119.5t-141.5 -38.5q-71 0 -134 22q-1 1 -3.5 2t-4 2t-3.5 2t-2.5 2.5t-1.5 3 t-1 3.5t1 4.5t2.5 5.5t4.5 7z" />
<glyph unicode="&#xb9;" horiz-adv-x="621" d="M130 577l8 41q1 2 2 6t1.5 5.5t1.5 4t2.5 3t4 1.5t6.5 1q122 5 153 14.5t39 48.5l158 745q3 14 -3 14.5t-26 -9.5l-151 -84q-13 -7 -19.5 -4t-3.5 14l14 61q2 16 27 30l211 117q27 15 63 15h28q20 0 15 -17l-186 -880q-10 -42 14.5 -52t134.5 -12q15 0 17.5 -5t-1.5 -19 l-7 -37q-3 -13 -7.5 -16.5t-18.5 -3.5h-464q-12 0 -13.5 3.5t0.5 14.5z" />
<glyph unicode="&#xba;" horiz-adv-x="1012" d="M209 897q18 84 55 157t94.5 134t144 96.5t190.5 35.5q80 0 143 -18t104.5 -50.5t69 -76t38 -96.5t9.5 -109t-14 -117q-18 -84 -56.5 -157.5t-97 -135.5t-145 -98t-189.5 -36q-80 0 -143.5 18.5t-104.5 51.5t-68 77t-37 97.5t-8 109.5t15 117zM348 869 q-16 -66 -11.5 -126.5t26 -106.5t71 -73t123.5 -27q137 0 224.5 94.5t117.5 238.5q11 54 12 102.5t-11 93t-37 76t-68 50.5t-102 19q-70 0 -130 -28.5t-102 -77t-70.5 -108t-42.5 -127.5z" />
<glyph unicode="&#xbb;" horiz-adv-x="962" d="M56 99q-7 5 -4 10t22 23l386 345l-240 353q-10 13 -10 17t8 9l76 49q10 7 24 -13l285 -399q8 -13 6 -20t-17 -21l-447 -387q-15 -13 -20.5 -15t-12.5 4zM372 99q-6 5 -2.5 10.5t23.5 22.5l382 345l-239 353q-10 13 -10 17t8 9l77 49q10 7 24 -13l283 -399q10 -13 8 -20 t-19 -21l-445 -387q-15 -13 -21 -15t-13 4z" />
<glyph unicode="&#xbf;" horiz-adv-x="929" d="M-17 -101q15 71 42.5 123.5t60.5 80.5t72 51t77 36t77 35t71.5 48.5t59 75.5t41.5 116l28 138q3 14 7.5 17.5t14.5 3.5h101q16 0 13 -19l-32 -145q-20 -93 -54.5 -157.5t-75 -98t-85.5 -56t-89 -40t-82 -40.5t-68.5 -67.5t-44.5 -112.5q-11 -52 4 -88t52 -53t75.5 -23.5 t86.5 -6.5q80 0 128.5 6t126.5 24l63 223q5 13 8.5 16t18.5 3h61q16 0 19.5 -3.5t-0.5 -20.5l-54 -270q-6 -22 -12.5 -30.5t-28.5 -16.5q-47 -19 -147 -33.5t-211 -14.5q-46 0 -85 3.5t-77.5 12.5t-66.5 24t-53 38t-35.5 54t-15 72.5t8.5 94.5zM531 793q8 38 38.5 64.5 t70.5 26.5q36 0 57.5 -27t13.5 -64q-9 -43 -39.5 -67t-68.5 -24q-42 0 -62 23.5t-10 67.5z" />
<glyph unicode="&#xc0;" horiz-adv-x="1355" d="M-20 22l9 45q3 12 7 18t7 7t8 1q75 3 105.5 9t44.5 20.5t21 48.5l19 90q50 238 117.5 429.5t151.5 334t188.5 220t220.5 77.5q157 0 238.5 -130.5t82 -366.5t-67.5 -564l-20 -99q-8 -45 12.5 -55.5t111.5 -13.5q18 0 21.5 -6t-0.5 -24l-10 -37q-3 -16 -7.5 -21t-18.5 -5 h-443q-15 0 -17.5 3t0.5 19l10 45q3 16 6.5 20.5t15.5 5.5q73 2 105.5 9t45.5 21t20 48l19 90q3 15 8.5 41.5t10 48t7.5 40.5h-655q-18 -72 -30 -130l-21 -99q-8 -44 13 -55t112 -14q20 0 23.5 -6t-0.5 -24l-10 -37q-3 -17 -7 -21.5t-21 -4.5h-417q-14 0 -16.5 3t0.5 19z M387 510h641q46 318 1.5 505.5t-174.5 187.5q-131 0 -254 -185t-214 -508zM704 1592q-9 13 -5.5 20.5t18.5 7.5h100q19 0 26.5 -5t14.5 -21l131 -201q9 -15 5 -22.5t-20 -7.5h-58q-14 0 -23.5 6t-24.5 24z" />
<glyph unicode="&#xc1;" horiz-adv-x="1355" d="M-20 22l9 45q3 12 7 18t7 7t8 1q75 3 105.5 9t44.5 20.5t21 48.5l19 90q50 238 117.5 429.5t151.5 334t188.5 220t220.5 77.5q157 0 238.5 -130.5t82 -366.5t-67.5 -564l-20 -99q-8 -45 12.5 -55.5t111.5 -13.5q18 0 21.5 -6t-0.5 -24l-10 -37q-3 -16 -7.5 -21t-18.5 -5 h-443q-15 0 -17.5 3t0.5 19l10 45q3 16 6.5 20.5t15.5 5.5q73 2 105.5 9t45.5 21t20 48l19 90q3 15 8.5 41.5t10 48t7.5 40.5h-655q-18 -72 -30 -130l-21 -99q-8 -44 13 -55t112 -14q20 0 23.5 -6t-0.5 -24l-10 -37q-3 -17 -7 -21.5t-21 -4.5h-417q-14 0 -16.5 3t0.5 19z M387 510h641q46 318 1.5 505.5t-174.5 187.5q-131 0 -254 -185t-214 -508zM834 1408l183 173q23 26 50 26h113q9 0 13 -4t1 -10.5t-12 -13.5l-238 -184q-26 -17 -48 -17h-56q-16 0 -18 7.5t12 22.5z" />
<glyph unicode="&#xc2;" horiz-adv-x="1355" d="M-20 22l9 45q3 12 7 18t7 7t8 1q75 3 105.5 9t44.5 20.5t21 48.5l19 90q50 238 117.5 429.5t151.5 334t188.5 220t220.5 77.5q157 0 238.5 -130.5t82 -366.5t-67.5 -564l-20 -99q-8 -45 12.5 -55.5t111.5 -13.5q18 0 21.5 -6t-0.5 -24l-10 -37q-3 -16 -7.5 -21t-18.5 -5 h-443q-15 0 -17.5 3t0.5 19l10 45q3 16 6.5 20.5t15.5 5.5q73 2 105.5 9t45.5 21t20 48l19 90q3 15 8.5 41.5t10 48t7.5 40.5h-655q-18 -72 -30 -130l-21 -99q-8 -44 13 -55t112 -14q20 0 23.5 -6t-0.5 -24l-10 -37q-3 -17 -7 -21.5t-21 -4.5h-417q-14 0 -16.5 3t0.5 19z M387 510h641q46 318 1.5 505.5t-174.5 187.5q-131 0 -254 -185t-214 -508zM650 1381q-5 17 17 32l197 162q25 19 48 19h54q30 0 43 -19l130 -162q4 -4 6 -8t1.5 -8t-1 -6.5t-3.5 -7l-4 -6t-6 -7.5q-9 -9 -15 -9t-15 6l-184 128l-233 -127q-19 -6 -23 -3.5t-12 16.5z" />
<glyph unicode="&#xc3;" horiz-adv-x="1355" d="M-20 22l9 45q3 12 7 18t7 7t8 1q75 3 105.5 9t44.5 20.5t21 48.5l19 90q50 238 117.5 429.5t151.5 334t188.5 220t220.5 77.5q157 0 238.5 -130.5t82 -366.5t-67.5 -564l-20 -99q-8 -45 12.5 -55.5t111.5 -13.5q18 0 21.5 -6t-0.5 -24l-10 -37q-3 -16 -7.5 -21t-18.5 -5 h-443q-15 0 -17.5 3t0.5 19l10 45q3 16 6.5 20.5t15.5 5.5q73 2 105.5 9t45.5 21t20 48l19 90q3 15 8.5 41.5t10 48t7.5 40.5h-655q-18 -72 -30 -130l-21 -99q-8 -44 13 -55t112 -14q20 0 23.5 -6t-0.5 -24l-10 -37q-3 -17 -7 -21.5t-21 -4.5h-417q-14 0 -16.5 3t0.5 19z M387 510h641q46 318 1.5 505.5t-174.5 187.5q-131 0 -254 -185t-214 -508zM711 1435q77 103 153 103q36 0 65.5 -15.5t53.5 -31t47 -15.5q29 0 59 43q12 18 21 10l41 -21q7 -7 6.5 -9.5t-6.5 -14.5q-74 -108 -149 -108q-46 0 -94 31.5t-68 31.5q-17 0 -29 -9t-36 -34 q-11 -13 -25 -7l-37 20q-13 8 -2 26z" />
<glyph unicode="&#xc4;" horiz-adv-x="1355" d="M-20 22l9 45q3 12 7 18t7 7t8 1q75 3 105.5 9t44.5 20.5t21 48.5l19 90q50 238 117.5 429.5t151.5 334t188.5 220t220.5 77.5q157 0 238.5 -130.5t82 -366.5t-67.5 -564l-20 -99q-8 -45 12.5 -55.5t111.5 -13.5q18 0 21.5 -6t-0.5 -24l-10 -37q-3 -16 -7.5 -21t-18.5 -5 h-443q-15 0 -17.5 3t0.5 19l10 45q3 16 6.5 20.5t15.5 5.5q73 2 105.5 9t45.5 21t20 48l19 90q3 15 8.5 41.5t10 48t7.5 40.5h-655q-18 -72 -30 -130l-21 -99q-8 -44 13 -55t112 -14q20 0 23.5 -6t-0.5 -24l-10 -37q-3 -17 -7 -21.5t-21 -4.5h-417q-14 0 -16.5 3t0.5 19z M387 510h641q46 318 1.5 505.5t-174.5 187.5q-131 0 -254 -185t-214 -508zM668 1454q5 32 31 55t61 23t53.5 -23t13.5 -55q-7 -32 -35 -54t-64 -22q-35 0 -51 21.5t-9 54.5zM996 1454q5 32 33 55t64 23q35 0 52.5 -23t12.5 -55q-7 -32 -35 -54t-64 -22q-37 0 -53.5 21.5 t-9.5 54.5z" />
<glyph unicode="&#xc5;" horiz-adv-x="1355" d="M-20 22l9 45q3 12 7 18t7 7t8 1q75 3 105.5 9t44.5 20.5t21 48.5l19 90q50 238 117.5 429.5t151.5 334t188.5 220t220.5 77.5q157 0 238.5 -130.5t82 -366.5t-67.5 -564l-20 -99q-8 -45 12.5 -55.5t111.5 -13.5q18 0 21.5 -6t-0.5 -24l-10 -37q-3 -16 -7.5 -21t-18.5 -5 h-443q-15 0 -17.5 3t0.5 19l10 45q3 16 6.5 20.5t15.5 5.5q73 2 105.5 9t45.5 21t20 48l19 90q3 15 8.5 41.5t10 48t7.5 40.5h-655q-18 -72 -30 -130l-21 -99q-8 -44 13 -55t112 -14q20 0 23.5 -6t-0.5 -24l-10 -37q-3 -17 -7 -21.5t-21 -4.5h-417q-14 0 -16.5 3t0.5 19z M387 510h641q46 318 1.5 505.5t-174.5 187.5q-131 0 -254 -185t-214 -508zM707 1502q13 58 71.5 96.5t171.5 38.5q112 0 153.5 -38.5t28.5 -96.5t-69.5 -96.5t-168.5 -38.5q-114 0 -157 39t-30 96zM817 1502q-6 -29 12.5 -48.5t77.5 -19.5q55 0 83 20t34 48q5 27 -14.5 47.5 t-73.5 20.5q-105 0 -119 -68z" />
<glyph unicode="&#xc6;" horiz-adv-x="1843" d="M-20 22l9 45q3 12 7 18t7 7t8 1q75 3 105.5 9t44.5 20.5t21 48.5l19 90q50 238 117.5 429.5t151.5 334t188.5 220t220.5 77.5q211 0 286 -235l41 196q3 13 7 16.5t18 3.5h651q11 0 14.5 -0.5t7 -5t-0.5 -14.5l-62 -291q-4 -12 -6.5 -18.5t-9 -11.5t-15.5 -5h-49 q-16 0 -20 4.5t-2 17.5l22 162q4 25 0.5 37t-20.5 12l-414 -2l-100 -471h285q16 0 20.5 -3.5t1.5 -17.5l-15 -69q-3 -17 -9 -22t-24 -5h-283l-43 -198q-9 -59 -28 -141l-20 -99q-9 -34 1 -47l430 -1q17 0 24.5 10t16.5 38l47 162q1 2 3 5.5t3 5t4 4.5t5.5 4t7 2t10.5 1h49 q22 0 15 -35l-62 -291q-3 -14 -7.5 -17t-18.5 -3h-862q-15 0 -17.5 3t0.5 19l10 45q3 16 6.5 20.5t15.5 5.5q73 2 105.5 9t45.5 21t20 48l19 90q3 15 8.5 41.5t10 48t7.5 40.5h-655q-18 -72 -30 -130l-21 -99q-8 -44 13 -55t112 -14q20 0 23.5 -6t-0.5 -24l-10 -37 q-3 -17 -7 -21.5t-21 -4.5h-417q-14 0 -16.5 3t0.5 19zM387 510h641q46 318 1.5 505.5t-174.5 187.5q-131 0 -254 -185t-214 -508z" />
<glyph unicode="&#xc7;" horiz-adv-x="1228" d="M182 650q144 672 719 672q246 0 384 -39q18 -7 21 -15.5t-3 -34.5l-63 -304q-4 -16 -8 -19t-18 -3h-73q-14 0 -18 3.5t-2 14.5l31 257q-98 24 -247 24q-220 0 -366.5 -140.5t-208.5 -428.5q-26 -117 -21.5 -205t30 -150t77.5 -100.5t120.5 -56t159.5 -17.5q142 0 382 43 q15 3 20.5 -2t1.5 -19l-11 -57q-4 -21 -13 -29.5t-32 -13.5q-209 -45 -364 -45h-10l-41 -65q73 -1 99.5 -36t14.5 -87q-17 -81 -79 -119.5t-143 -38.5q-71 0 -134 22q-9 4 -12 6t-3.5 9t6.5 17l19 24q12 17 26 11q41 -15 95 -15q92 0 108 82q6 30 -15.5 47.5t-85.5 17.5 q-4 0 -9.5 -0.5t-8.5 -0.5h-6.5t-4.5 1.5t-1 4.5t2.5 8t7.5 12l68 106q-257 25 -357.5 185t-33.5 474z" />
<glyph unicode="&#xc8;" horiz-adv-x="1079" d="M119 367q15 67 45 119.5t64 85t79.5 56t83.5 34.5t84 19q-29 6 -56 20.5t-53 40.5t-40.5 63t-20 89t9.5 117q15 72 46 126.5t72.5 89t96.5 56.5t112 30.5t125 8.5q214 0 346 -45q23 -8 25.5 -16.5t-4.5 -31.5l-54 -255q-5 -17 -8.5 -20t-17.5 -3h-60q-11 0 -13.5 3 t-1.5 16l19 212q-90 23 -233 23q-50 0 -89 -5t-77.5 -18.5t-66 -35.5t-49 -58.5t-31.5 -85.5q-30 -141 38.5 -201t216.5 -60h129q22 0 17 -28l-13 -61q-5 -26 -28 -26h-129q-354 0 -409 -261q-30 -140 44.5 -201.5t258.5 -61.5q77 0 162 10.5t145.5 22.5t63.5 12 q13 3 16 -1.5t-1 -17.5l-17 -80q-3 -12 -9.5 -16.5t-24.5 -9.5q-145 -41 -363 -41q-64 0 -117 5t-105 16.5t-89 31t-69 49t-45.5 70t-18 94t13.5 120.5zM616 1592q-9 13 -5.5 20.5t18.5 7.5h101q19 0 26.5 -5t14.5 -21l130 -201q19 -30 -15 -30h-57q-23 0 -49 30z" />
<glyph unicode="&#xc9;" horiz-adv-x="1079" d="M119 367q15 67 45 119.5t64 85t79.5 56t83.5 34.5t84 19q-29 6 -56 20.5t-53 40.5t-40.5 63t-20 89t9.5 117q15 72 46 126.5t72.5 89t96.5 56.5t112 30.5t125 8.5q214 0 346 -45q23 -8 25.5 -16.5t-4.5 -31.5l-54 -255q-5 -17 -8.5 -20t-17.5 -3h-60q-11 0 -13.5 3 t-1.5 16l19 212q-90 23 -233 23q-50 0 -89 -5t-77.5 -18.5t-66 -35.5t-49 -58.5t-31.5 -85.5q-30 -141 38.5 -201t216.5 -60h129q22 0 17 -28l-13 -61q-5 -26 -28 -26h-129q-354 0 -409 -261q-30 -140 44.5 -201.5t258.5 -61.5q77 0 162 10.5t145.5 22.5t63.5 12 q13 3 16 -1.5t-1 -17.5l-17 -80q-3 -12 -9.5 -16.5t-24.5 -9.5q-145 -41 -363 -41q-64 0 -117 5t-105 16.5t-89 31t-69 49t-45.5 70t-18 94t13.5 120.5zM747 1408l182 173q23 26 50 26h114q9 0 13 -4t1 -10.5t-12 -13.5l-239 -184q-26 -17 -48 -17h-56q-35 0 -5 30z" />
<glyph unicode="&#xca;" horiz-adv-x="1079" d="M119 367q15 67 45 119.5t64 85t79.5 56t83.5 34.5t84 19q-29 6 -56 20.5t-53 40.5t-40.5 63t-20 89t9.5 117q15 72 46 126.5t72.5 89t96.5 56.5t112 30.5t125 8.5q214 0 346 -45q23 -8 25.5 -16.5t-4.5 -31.5l-54 -255q-5 -17 -8.5 -20t-17.5 -3h-60q-11 0 -13.5 3 t-1.5 16l19 212q-90 23 -233 23q-50 0 -89 -5t-77.5 -18.5t-66 -35.5t-49 -58.5t-31.5 -85.5q-30 -141 38.5 -201t216.5 -60h129q22 0 17 -28l-13 -61q-5 -26 -28 -26h-129q-354 0 -409 -261q-30 -140 44.5 -201.5t258.5 -61.5q77 0 162 10.5t145.5 22.5t63.5 12 q13 3 16 -1.5t-1 -17.5l-17 -80q-3 -12 -9.5 -16.5t-24.5 -9.5q-145 -41 -363 -41q-64 0 -117 5t-105 16.5t-89 31t-69 49t-45.5 70t-18 94t13.5 120.5zM562 1381q-5 17 17 32l197 162q25 19 49 19h54q30 0 43 -19l130 -162q5 -7 7 -12.5t-0.5 -11t-5.5 -9l-9 -10.5 q-9 -9 -14.5 -9t-14.5 6l-185 128l-232 -127q-5 -2 -8.5 -3t-6 -1.5t-5 0.5t-3.5 1t-3.5 2.5t-3 3.5t-3 5t-3.5 5z" />
<glyph unicode="&#xcb;" horiz-adv-x="1079" d="M119 367q15 67 45 119.5t64 85t79.5 56t83.5 34.5t84 19q-29 6 -56 20.5t-53 40.5t-40.5 63t-20 89t9.5 117q15 72 46 126.5t72.5 89t96.5 56.5t112 30.5t125 8.5q214 0 346 -45q23 -8 25.5 -16.5t-4.5 -31.5l-54 -255q-5 -17 -8.5 -20t-17.5 -3h-60q-11 0 -13.5 3 t-1.5 16l19 212q-90 23 -233 23q-50 0 -89 -5t-77.5 -18.5t-66 -35.5t-49 -58.5t-31.5 -85.5q-30 -141 38.5 -201t216.5 -60h129q22 0 17 -28l-13 -61q-5 -26 -28 -26h-129q-354 0 -409 -261q-30 -140 44.5 -201.5t258.5 -61.5q77 0 162 10.5t145.5 22.5t63.5 12 q13 3 16 -1.5t-1 -17.5l-17 -80q-3 -12 -9.5 -16.5t-24.5 -9.5q-145 -41 -363 -41q-64 0 -117 5t-105 16.5t-89 31t-69 49t-45.5 70t-18 94t13.5 120.5zM581 1454q5 32 30.5 55t60.5 23t53.5 -23t13.5 -55q-7 -32 -35 -54t-64 -22q-35 0 -50.5 21.5t-8.5 54.5zM909 1454 q5 32 32.5 55t63.5 23q35 0 53 -23t13 -55q-7 -32 -35 -54t-64 -22q-37 0 -53.5 21.5t-9.5 54.5z" />
<glyph unicode="&#xcc;" horiz-adv-x="685" d="M35 22l10 45q3 15 7 20t17 6q110 3 135.5 16t39.5 75l203 961h2q7 42 -13.5 52t-111.5 13q-19 0 -22.5 6t1.5 24l8 37q5 16 9.5 21t18.5 5h436q15 0 17 -4t-1 -18l-9 -45q-3 -15 -7 -20t-17 -6q-41 -1 -63 -2t-43 -5.5t-29 -9t-17 -16.5t-12.5 -24t-8.5 -36l-6 -30h-2 l-192 -899q-6 -25 -8 -37t1 -24.5t8.5 -17t23 -9t37.5 -5.5t58 -2q18 0 21 -6t-1 -24l-9 -37q-3 -16 -7.5 -21t-20.5 -5h-432q-17 0 -20.5 4t-0.5 18zM376 1592q-9 13 -5.5 20.5t18.5 7.5h101q19 0 26.5 -5t14.5 -21l130 -201q9 -15 5 -22.5t-20 -7.5h-58q-14 0 -23.5 6 t-24.5 24z" />
<glyph unicode="&#xcd;" horiz-adv-x="685" d="M35 22l10 45q3 15 7 20t17 6q102 3 129.5 13.5t39.5 55.5l209 983h2q7 42 -13.5 52t-111.5 13q-20 0 -23.5 6t1.5 24l7 37q3 9 4.5 12.5t4.5 7.5t8 5t13 1h434q15 0 18 -4t0 -18l-9 -45q-3 -15 -7 -20t-17 -6q-101 -3 -129.5 -13t-40.5 -52l-212 -1000q-3 -33 20 -41.5 t107 -10.5q20 0 23 -6t-1 -24l-9 -37q-3 -16 -7.5 -21t-20.5 -5h-434q-15 0 -18.5 4t-0.5 18zM506 1408l183 173q23 26 50 26h114q9 0 13 -4t1 -10.5t-12 -13.5l-239 -184q-26 -17 -48 -17h-56q-16 0 -18 7.5t12 22.5z" />
<glyph unicode="&#xce;" horiz-adv-x="685" d="M35 22l10 45q3 15 7 20t17 6q110 3 135.5 16t39.5 75l203 961h2q7 42 -13.5 52t-111.5 13q-19 0 -22.5 6t1.5 24l8 37q5 16 9.5 21t18.5 5h436q15 0 17 -4t-1 -18l-9 -45q-3 -15 -7 -20t-17 -6q-41 -1 -63 -2t-43 -5.5t-29 -9t-17 -16.5t-12.5 -24t-8.5 -36l-6 -30h-2 l-192 -899q-6 -25 -8 -37t1 -24.5t8.5 -17t23 -9t37.5 -5.5t58 -2q18 0 21 -6t-1 -24l-9 -37q-3 -16 -7.5 -21t-20.5 -5h-432q-17 0 -20.5 4t-0.5 18zM324 1381q-5 17 17 32l197 162q25 19 48 19h54q30 0 43 -19l131 -162q7 -8 6.5 -16.5t-3.5 -12.5t-11 -14q-9 -9 -15 -9 t-15 6l-184 128l-233 -127q-5 -2 -8.5 -3t-6 -1.5t-4.5 0t-3.5 1t-3.5 3t-2.5 3.5t-3 4.5t-3.5 5.5z" />
<glyph unicode="&#xcf;" horiz-adv-x="685" d="M35 22l10 45q3 15 7 20t17 6q110 3 135.5 16t39.5 75l203 961h2q7 42 -13.5 52t-111.5 13q-19 0 -22.5 6t1.5 24l8 37q5 16 9.5 21t18.5 5h436q15 0 17 -4t-1 -18l-9 -45q-3 -15 -7 -20t-17 -6q-41 -1 -63 -2t-43 -5.5t-29 -9t-17 -16.5t-12.5 -24t-8.5 -36l-6 -30h-2 l-192 -899q-6 -25 -8 -37t1 -24.5t8.5 -17t23 -9t37.5 -5.5t58 -2q18 0 21 -6t-1 -24l-9 -37q-3 -16 -7.5 -21t-20.5 -5h-432q-17 0 -20.5 4t-0.5 18zM341 1454q5 32 30.5 55t60.5 23t53.5 -23t13.5 -55q-7 -32 -35 -54t-64 -22q-35 0 -50.5 21.5t-8.5 54.5zM668 1454 q5 32 33 55t64 23q35 0 52.5 -23t12.5 -55q-7 -33 -34.5 -54.5t-63.5 -21.5q-37 0 -54 21.5t-10 54.5z" />
<glyph unicode="&#xd0;" horiz-adv-x="1388" d="M45 22l9 45q3 16 6.5 20.5t15.5 5.5q95 3 124 13.5t40 46.5l103 478h-161q-9 0 -12.5 3.5t-0.5 15.5l15 71q2 16 21 16h160l87 419q5 33 -19.5 42t-115.5 12q-14 1 -17 5.5t0 17.5l11 50q3 14 7 17t17 3h445q705 0 561 -676q-67 -316 -267.5 -471.5t-552.5 -155.5h-460 q-13 0 -16 4t0 18zM378 112h156q274 0 435.5 131.5t218.5 402.5q30 126 20 227t-57 172t-145 109t-243 38h-154l-97 -455h264q15 0 12 -13l-15 -74q-4 -19 -26 -19h-257z" />
<glyph unicode="&#xd1;" horiz-adv-x="1444" d="M41 22l9 45q3 14 8.5 19.5t19.5 6.5q57 2 83 4t44.5 13t24 25t12.5 47l205 963q8 40 -16.5 51t-123.5 14q-13 1 -15 7t2 19l9 45q3 14 8 18t19 4h221q37 0 52 -33l436 -1075l199 937q10 30 1 46.5t-38 23t-101 8.5q-12 1 -13.5 7t2.5 19l9 45q3 14 7.5 18t17.5 4h419 q15 0 18 -5.5t-2 -20.5l-7 -37q-3 -12 -4 -15.5t-4.5 -8t-9 -5.5t-16.5 -1q-96 -3 -119.5 -15t-34.5 -65l-233 -1087q-9 -43 -37 -43h-62q-42 0 -52 24l-424 1037l-186 -877q-5 -23 -6.5 -34t0.5 -23t8.5 -16.5t22 -9t36 -6t56.5 -2.5q20 0 23 -6t-1 -24l-9 -37 q-3 -16 -7.5 -21t-20.5 -5h-413q-15 0 -17.5 4t0.5 18zM747 1435q77 103 152 103q45 0 93 -31t73 -31q30 0 60 43q11 18 20 10l41 -21q7 -7 6.5 -9.5t-6.5 -14.5q-74 -108 -149 -108q-36 0 -66.5 16t-53.5 31.5t-42 15.5q-17 0 -29 -9t-36 -34q-11 -13 -24 -7l-38 20 q-12 8 -1 26z" />
<glyph unicode="&#xd2;" horiz-adv-x="1442" d="M184 680q30 140 91 256t151 203t213 135t268 48q128 0 226.5 -34t160.5 -96t97 -148.5t35 -192.5t-24 -227q-31 -143 -92.5 -260t-151.5 -203t-213 -133t-269 -47q-128 0 -226.5 34t-159.5 96t-95.5 148.5t-34.5 192.5t24 228zM335 655q-55 -258 36.5 -405.5 t308.5 -147.5q213 0 364.5 147.5t206.5 405.5q55 256 -37 401t-309 145q-212 0 -363.5 -145t-206.5 -401zM754 1592q-9 13 -5.5 20.5t18.5 7.5h101q19 0 26.5 -5t14.5 -21l130 -201q19 -30 -15 -30h-58q-14 0 -23.5 6t-24.5 24z" />
<glyph unicode="&#xd3;" horiz-adv-x="1442" d="M184 680q30 140 91 256t151 203t213 135t268 48q128 0 226.5 -34t160.5 -96t97 -148.5t35 -192.5t-24 -227q-31 -143 -92.5 -260t-151.5 -203t-213 -133t-269 -47q-128 0 -226.5 34t-159.5 96t-95.5 148.5t-34.5 192.5t24 228zM335 655q-55 -258 36.5 -405.5 t308.5 -147.5q213 0 364.5 147.5t206.5 405.5q55 256 -37 401t-309 145q-212 0 -363.5 -145t-206.5 -401zM884 1408l183 173q23 26 50 26h114q9 0 13 -4t1 -10.5t-12 -13.5l-239 -184q-26 -17 -48 -17h-56q-16 0 -18 7.5t12 22.5z" />
<glyph unicode="&#xd4;" horiz-adv-x="1442" d="M184 680q30 140 91 256t151 203t213 135t268 48q128 0 226.5 -34t160.5 -96t97 -148.5t35 -192.5t-24 -227q-31 -143 -92.5 -260t-151.5 -203t-213 -133t-269 -47q-128 0 -226.5 34t-159.5 96t-95.5 148.5t-34.5 192.5t24 228zM335 655q-55 -258 36.5 -405.5 t308.5 -147.5q213 0 364.5 147.5t206.5 405.5q55 256 -37 401t-309 145q-212 0 -363.5 -145t-206.5 -401zM700 1381q-5 17 17 32l197 162q25 19 49 19h54q29 0 42 -19l131 -162q7 -9 7 -17t-3.5 -12.5t-11.5 -13.5q-9 -9 -15 -9t-15 6l-184 128l-233 -127q-5 -2 -8.5 -3 t-6 -1.5t-4.5 0t-3.5 1t-3.5 3t-2.5 3.5t-3 4.5t-3.5 5.5z" />
<glyph unicode="&#xd5;" horiz-adv-x="1442" d="M184 680q30 140 91 256t151 203t213 135t268 48q128 0 226.5 -34t160.5 -96t97 -148.5t35 -192.5t-24 -227q-31 -143 -92.5 -260t-151.5 -203t-213 -133t-269 -47q-128 0 -226.5 34t-159.5 96t-95.5 148.5t-34.5 192.5t24 228zM335 655q-55 -258 36.5 -405.5 t308.5 -147.5q213 0 364.5 147.5t206.5 405.5q55 256 -37 401t-309 145q-212 0 -363.5 -145t-206.5 -401zM761 1435q77 103 153 103q36 0 65.5 -15.5t53.5 -31t47 -15.5q29 0 59 43q12 18 21 10l41 -21q7 -7 6.5 -9.5t-6.5 -14.5q-74 -108 -149 -108q-46 0 -94 31.5 t-68 31.5q-17 0 -29 -9t-36 -34q-11 -13 -24 -7l-38 20q-13 8 -2 26z" />
<glyph unicode="&#xd6;" horiz-adv-x="1442" d="M184 680q30 140 91 256t151 203t213 135t268 48q128 0 226.5 -34t160.5 -96t97 -148.5t35 -192.5t-24 -227q-31 -143 -92.5 -260t-151.5 -203t-213 -133t-269 -47q-128 0 -226.5 34t-159.5 96t-95.5 148.5t-34.5 192.5t24 228zM335 655q-55 -258 36.5 -405.5 t308.5 -147.5q213 0 364.5 147.5t206.5 405.5q55 256 -37 401t-309 145q-212 0 -363.5 -145t-206.5 -401zM719 1454q5 32 30.5 55t60.5 23t53.5 -23t13.5 -55q-7 -32 -35 -54t-64 -22q-35 0 -50.5 21.5t-8.5 54.5zM1046 1454q5 32 33 55t64 23q35 0 52.5 -23t12.5 -55 q-7 -33 -34.5 -54.5t-63.5 -21.5q-37 0 -54 21.5t-10 54.5z" />
<glyph unicode="&#xd7;" horiz-adv-x="955" d="M117 192l317 283l-231 275l93 84l229 -275l317 283l65 -75l-315 -285l227 -273l-91 -84l-229 273l-317 -283z" />
<glyph unicode="&#xd8;" horiz-adv-x="1442" d="M184 680q30 140 91 256t151 203t213 135t268 48q116 0 212 -30l48 76q9 19 25 19h115q19 0 7 -22l-78 -127q129 -85 170.5 -247.5t-4.5 -366.5q-31 -143 -92.5 -260t-151.5 -203t-213 -133t-269 -47q-111 0 -203 26l-65 -108q-8 -14 -34 -14h-113q-13 0 -4 14l99 161 q-133 84 -176.5 248t4.5 372zM335 655q-35 -165 -10.5 -286t105.5 -188l618 998q-60 22 -143 22q-212 0 -363.5 -145t-206.5 -401zM544 119q63 -17 136 -17q213 0 364.5 147.5t206.5 405.5q34 160 11 276.5t-100 185.5z" />
<glyph unicode="&#xd9;" horiz-adv-x="1416" d="M272 460l149 700q1 31 -22 39t-105 11q-20 0 -23.5 6t1.5 24l7 37q3 9 4.5 12.5t4.5 7.5t8 5t13 1h443q15 0 17.5 -4t-0.5 -18l-9 -45q-3 -15 -7 -20t-18 -6q-98 -3 -127.5 -15t-39.5 -50l-145 -685q-36 -174 29.5 -266t225.5 -92q159 0 262.5 92.5t139.5 265.5l139 659 q5 23 7 35t-1 24t-8.5 16t-23 8.5t-37 5.5t-56.5 2q-19 0 -22 6t2 24l7 37q6 21 13 24q5 2 17 2h413q15 0 17.5 -4t-0.5 -18l-9 -45q-3 -12 -7.5 -18t-7.5 -7t-9 -1q-70 -3 -100.5 -8.5t-45.5 -17.5t-22 -39l-145 -685q-47 -227 -182 -353t-356 -126q-244 0 -342 124.5 t-49 354.5zM758 1592q-9 13 -5.5 20.5t18.5 7.5h100q19 0 26.5 -5t14.5 -21l131 -201q19 -30 -15 -30h-58q-14 0 -23.5 6t-24.5 24z" />
<glyph unicode="&#xda;" horiz-adv-x="1416" d="M272 460l149 700q1 31 -22 39t-105 11q-20 0 -23.5 6t1.5 24l7 37q3 9 4.5 12.5t4.5 7.5t8 5t13 1h443q15 0 17.5 -4t-0.5 -18l-9 -45q-3 -15 -7 -20t-18 -6q-98 -3 -127.5 -15t-39.5 -50l-145 -685q-36 -174 29.5 -266t225.5 -92q159 0 262.5 92.5t139.5 265.5l139 659 q5 23 7 35t-1 24t-8.5 16t-23 8.5t-37 5.5t-56.5 2q-19 0 -22 6t2 24l7 37q6 21 13 24q5 2 17 2h413q15 0 17.5 -4t-0.5 -18l-9 -45q-3 -12 -7.5 -18t-7.5 -7t-9 -1q-70 -3 -100.5 -8.5t-45.5 -17.5t-22 -39l-145 -685q-47 -227 -182 -353t-356 -126q-244 0 -342 124.5 t-49 354.5zM888 1408l183 173q23 26 50 26h113q9 0 13 -4t1 -10.5t-12 -13.5l-238 -184q-26 -17 -48 -17h-56q-16 0 -18 7.5t12 22.5z" />
<glyph unicode="&#xdb;" horiz-adv-x="1414" d="M272 460l149 700q1 31 -22 39t-105 11q-20 0 -23.5 6t1.5 24l7 37q3 9 4.5 12.5t4.5 7.5t8 5t13 1h443q15 0 17.5 -4t-0.5 -18l-9 -45q-3 -15 -7 -20t-18 -6q-98 -3 -127.5 -15t-39.5 -50l-145 -685q-36 -174 29.5 -266t225.5 -92q159 0 262.5 92.5t139.5 265.5l139 659 q5 23 7 35t-1 24t-8.5 16t-23 8.5t-37 5.5t-56.5 2q-19 0 -22 6t2 24l7 37q6 21 13 24q5 2 17 2h413q15 0 17.5 -4t-0.5 -18l-9 -45q-3 -12 -7.5 -18t-7.5 -7t-9 -1q-70 -3 -100.5 -8.5t-45.5 -17.5t-22 -39l-145 -685q-47 -227 -182 -353t-356 -126q-244 0 -342 124.5 t-49 354.5zM702 1381q-5 17 17 32l197 162q25 19 48 19h54q30 0 43 -19l131 -162q5 -6 6.5 -11.5t-1.5 -12t-4.5 -9t-8.5 -10.5q-9 -9 -15 -9t-15 6l-184 128l-233 -127q-19 -6 -23 -3.5t-12 16.5z" />
<glyph unicode="&#xdc;" horiz-adv-x="1416" d="M272 460l149 700q1 31 -22 39t-105 11q-20 0 -23.5 6t1.5 24l7 37q3 9 4.5 12.5t4.5 7.5t8 5t13 1h443q15 0 17.5 -4t-0.5 -18l-9 -45q-3 -15 -7 -20t-18 -6q-98 -3 -127.5 -15t-39.5 -50l-145 -685q-36 -174 29.5 -266t225.5 -92q159 0 262.5 92.5t139.5 265.5l139 659 q5 23 7 35t-1 24t-8.5 16t-23 8.5t-37 5.5t-56.5 2q-19 0 -22 6t2 24l7 37q6 21 13 24q5 2 17 2h413q15 0 17.5 -4t-0.5 -18l-9 -45q-3 -12 -7.5 -18t-7.5 -7t-9 -1q-70 -3 -100.5 -8.5t-45.5 -17.5t-22 -39l-145 -685q-47 -227 -182 -353t-356 -126q-244 0 -342 124.5 t-49 354.5zM722 1454q5 32 31 55t61 23t53.5 -23t13.5 -55q-7 -32 -35 -54t-64 -22q-35 0 -51 21.5t-9 54.5zM1050 1454q5 32 33 55t64 23q35 0 52.5 -23t12.5 -55q-7 -32 -35 -54t-64 -22q-37 0 -53.5 21.5t-9.5 54.5z" />
<glyph unicode="&#xdd;" horiz-adv-x="1241" d="M233 1231l11 54q3 11 7 14.5t15 3.5h414q17 0 11 -18l-11 -52q-3 -23 -23 -23q-77 -2 -104.5 -8t-31.5 -22q-12 -57 -13 -113t9 -107t25.5 -97t40 -93t47.5 -84t53 -81q82 72 135.5 125t119 129t107 156.5t59.5 164.5q2 8 -2.5 13.5t-19.5 9t-38 5t-61 2.5 q-12 0 -15.5 5.5t-1.5 17.5l11 52q6 18 21 18h397q11 0 14 -3.5t0 -14.5l-11 -54q-3 -21 -22 -21q-81 -3 -112 -10t-35 -25q-25 -100 -78 -198t-127 -186.5t-142 -156.5t-156 -144l-58 -276h2l-5 -26q-6 -25 -8 -37t0.5 -25t8.5 -17t23 -8.5t37 -5.5t58 -2q20 0 23 -6 t-1 -24l-9 -37q-3 -16 -7.5 -21t-20.5 -5h-434q-16 0 -19 4t1 18l9 45q3 15 7 20t17 6q41 1 63 2t43 5.5t29 8.5t17 16t12.5 23.5t8.5 35.5l63 298q-30 41 -54.5 78.5t-51.5 85.5t-46.5 93t-36 98.5t-24 106t-6.5 112.5t13 119q2 17 -28 24.5t-106 10.5q-12 1 -14.5 5.5 t1.5 15.5zM797 1408l182 173q23 26 51 26h113q9 0 13 -4t1 -10.5t-12 -13.5l-238 -184q-26 -17 -49 -17h-56q-35 0 -5 30z" />
<glyph unicode="&#xde;" horiz-adv-x="1089" d="M35 22l10 45q3 11 4 14.5t6 7t14 4.5q42 1 65 2.5t44.5 6t30.5 10t18 18.5t12 27t7 40l-4 2l179 838h3l17 78q5 25 7.5 37t-0.5 24.5t-8.5 17t-23 9t-37 5.5t-57.5 2q-20 0 -23.5 6t1.5 24l7 37q3 9 4.5 12.5t4.5 7.5t8 5t13 1h434q15 0 18 -4t0 -18l-9 -45 q-3 -15 -7 -20t-17 -6q-102 -3 -130.5 -14t-39.5 -57l-22 -102h116q95 0 167 -15t116.5 -43t72.5 -64t37.5 -83.5t7.5 -95t-14 -103.5q-40 -188 -178 -294t-362 -106q-77 0 -132 11l-17 -80q-8 -46 12 -57t113 -14q20 0 23 -6t-1 -24l-9 -37q-3 -16 -7.5 -21t-20.5 -5h-434 q-15 0 -18.5 4t-0.5 18zM421 359q7 -6 49 -9.5t76 -3.5q99 0 176.5 37t127 105t70.5 162q7 44 9 85t-11.5 76.5t-39 62t-72.5 42t-112 15.5h-152z" />
<glyph unicode="&#xdf;" horiz-adv-x="1104" d="M101 24l204 961q36 171 154.5 254t288.5 83q72 0 130 -15.5t102.5 -48t62 -90.5t0.5 -137q-11 -52 -34.5 -97.5t-49 -77t-67 -64.5t-70.5 -52t-77 -47q169 -53 236 -134.5t37 -217.5q-34 -163 -167.5 -252t-347.5 -89h-39q-11 0 -15 3.5t-2 11.5l17 74q3 14 8.5 18.5 t20.5 4.5h43q123 0 219 58t120 171q5 26 5 49t-3 41t-14.5 36t-19.5 30t-27.5 26t-29.5 21.5t-35.5 19.5t-34.5 16t-37.5 15t-34.5 14q-20 9 -30.5 14.5t-23 15t-16.5 20.5t-1 24q3 16 18.5 32.5t30 26t41.5 25.5q41 23 69.5 42t66 51.5t62.5 75t36 92.5q9 53 1 88.5 t-34.5 57.5t-59.5 31t-74 9q-107 0 -185 -57.5t-102 -171.5l-205 -963q-3 -14 -7.5 -18t-18.5 -4h-89q-17 0 -21 4.5t-1 19.5z" />
<glyph unicode="&#xe0;" horiz-adv-x="1003" d="M65 209q17 81 61.5 132.5t102.5 73.5t125 32.5t132.5 16.5t121 17.5t96 44.5t52.5 90q16 77 -32.5 122.5t-166.5 45.5q-93 0 -183 -32l-56 -188q-3 -11 -6.5 -14t-13.5 -3h-65q-13 0 -15.5 4.5t0.5 14.5l46 216q8 42 38 54q34 18 112 33t167 15q198 0 269.5 -81 t37.5 -237l-69 -324q-15 -61 -9.5 -93t17 -42t33.5 -10q48 0 58 44q3 14 4.5 19t9 9t21.5 4h23q21 0 25 -6.5t-1 -23.5q-34 -152 -192 -152q-150 0 -141 158q-131 -162 -380 -162q-135 0 -190.5 54t-31.5 168zM207 209q-14 -65 16.5 -94t106.5 -29q133 0 240.5 83.5 t133.5 182.5l24 106q-37 -43 -100.5 -63t-127.5 -25t-125.5 -15t-107.5 -45t-60 -101zM456 1270q-9 13 -4.5 20.5t19.5 7.5h101q18 0 25 -5t16 -21l130 -201q17 -30 -17 -30h-58q-14 0 -23.5 6.5t-22.5 23.5z" />
<glyph unicode="&#xe1;" horiz-adv-x="1145" d="M123 462q40 189 157 305.5t303 116.5q211 0 272 -137l16 78q5 22 15 31.5t30 9.5h69q14 0 35.5 -2t60 -6t77.5 -7q15 0 18.5 -5t0.5 -19l-10 -45q-3 -9 -4 -12.5t-4 -7t-6 -4t-10 -0.5l-106 -2q-50 -4 -60 -60l-100 -473q-14 -75 -1 -100.5t47 -25.5q46 0 56 44 q5 23 8.5 27.5t21.5 4.5h34q15 0 18.5 -5.5t-0.5 -24.5q-18 -83 -63 -117.5t-114 -34.5q-154 0 -154 150q-104 -150 -309 -150q-101 0 -171 35.5t-103 98.5t-40.5 149.5t16.5 187.5zM264 438q-16 -64 -11.5 -124.5t23 -108t64.5 -76t114 -28.5q127 0 213 90.5t121 247.5 q32 153 -14 245t-174 92q-68 0 -126 -27.5t-98.5 -75t-68.5 -107t-43 -128.5zM655 1085l183 174q23 26 50 26h114q15 0 16 -8.5t-14 -19.5l-239 -185q-22 -16 -48 -16h-56q-35 0 -6 29z" />
<glyph unicode="&#xe2;" horiz-adv-x="1003" d="M65 209q17 81 61.5 132.5t102.5 73.5t125 32.5t132.5 16.5t121 17.5t96 44.5t52.5 90q16 77 -32.5 122.5t-166.5 45.5q-93 0 -183 -32l-56 -188q-3 -11 -6.5 -14t-13.5 -3h-65q-13 0 -15.5 4.5t0.5 14.5l46 216q8 42 38 54q34 18 112 33t167 15q198 0 269.5 -81 t37.5 -237l-69 -324q-15 -61 -9.5 -93t17 -42t33.5 -10q48 0 58 44q3 14 4.5 19t9 9t21.5 4h23q21 0 25 -6.5t-1 -23.5q-34 -152 -192 -152q-150 0 -141 158q-131 -162 -380 -162q-135 0 -190.5 54t-31.5 168zM207 209q-14 -65 16.5 -94t106.5 -29q133 0 240.5 83.5 t133.5 182.5l24 106q-37 -43 -100.5 -63t-127.5 -25t-125.5 -15t-107.5 -45t-60 -101zM400 1059q-5 17 17 32l199 162q22 19 49 19h54q26 0 42 -19l129 -162q14 -17 -2 -38t-35 -9l-185 129l-232 -127q-5 -2 -8.5 -3t-6 -1.5t-5 0.5t-3.5 1t-3.5 2.5t-3 3.5t-3 5t-3.5 5z " />
<glyph unicode="&#xe3;" horiz-adv-x="1003" d="M65 209q17 81 61.5 132.5t102.5 73.5t125 32.5t132.5 16.5t121 17.5t96 44.5t52.5 90q16 77 -32.5 122.5t-166.5 45.5q-93 0 -183 -32l-56 -188q-3 -11 -6.5 -14t-13.5 -3h-65q-13 0 -15.5 4.5t0.5 14.5l46 216q8 42 38 54q34 18 112 33t167 15q198 0 269.5 -81 t37.5 -237l-69 -324q-15 -61 -9.5 -93t17 -42t33.5 -10q48 0 58 44q3 14 4.5 19t9 9t21.5 4h23q21 0 25 -6.5t-1 -23.5q-34 -152 -192 -152q-150 0 -141 158q-131 -162 -380 -162q-135 0 -190.5 54t-31.5 168zM207 209q-14 -65 16.5 -94t106.5 -29q133 0 240.5 83.5 t133.5 182.5l24 106q-37 -43 -100.5 -63t-127.5 -25t-125.5 -15t-107.5 -45t-60 -101zM464 1113q74 103 150 103q36 0 65.5 -15.5t53.5 -31t47 -15.5q30 0 60 43q11 17 20 9l41 -20q8 -6 7.5 -10t-7.5 -14q-74 -108 -149 -108q-46 0 -94 31.5t-68 31.5q-21 0 -47 -25 l-18 -18q-11 -13 -24 -7l-36 20q-8 5 -8.5 10t7.5 16z" />
<glyph unicode="&#xe4;" horiz-adv-x="1003" d="M65 209q17 81 61.5 132.5t102.5 73.5t125 32.5t132.5 16.5t121 17.5t96 44.5t52.5 90q16 77 -32.5 122.5t-166.5 45.5q-93 0 -183 -32l-56 -188q-3 -11 -6.5 -14t-13.5 -3h-65q-13 0 -15.5 4.5t0.5 14.5l46 216q8 42 38 54q34 18 112 33t167 15q198 0 269.5 -81 t37.5 -237l-69 -324q-15 -61 -9.5 -93t17 -42t33.5 -10q48 0 58 44q3 14 4.5 19t9 9t21.5 4h23q21 0 25 -6.5t-1 -23.5q-34 -152 -192 -152q-150 0 -141 158q-131 -162 -380 -162q-135 0 -190.5 54t-31.5 168zM207 209q-14 -65 16.5 -94t106.5 -29q133 0 240.5 83.5 t133.5 182.5l24 106q-37 -43 -100.5 -63t-127.5 -25t-125.5 -15t-107.5 -45t-60 -101zM419 1132q5 32 31.5 55t61.5 23t52.5 -23t12.5 -55q-7 -32 -35 -54t-64 -22q-35 0 -50.5 21.5t-8.5 54.5zM747 1132q5 32 33 55t65 23q35 0 52 -23t12 -55q-7 -32 -35 -54t-64 -22 q-37 0 -53.5 21.5t-9.5 54.5z" />
<glyph unicode="&#xe5;" horiz-adv-x="1003" d="M65 209q17 81 61.5 132.5t102.5 73.5t125 32.5t132.5 16.5t121 17.5t96 44.5t52.5 90q16 77 -32.5 122.5t-166.5 45.5q-93 0 -183 -32l-56 -188q-3 -11 -6.5 -14t-13.5 -3h-65q-13 0 -15.5 4.5t0.5 14.5l46 216q8 42 38 54q34 18 112 33t167 15q198 0 269.5 -81 t37.5 -237l-69 -324q-15 -61 -9.5 -93t17 -42t33.5 -10q48 0 58 44q3 14 4.5 19t9 9t21.5 4h23q21 0 25 -6.5t-1 -23.5q-34 -152 -192 -152q-150 0 -141 158q-131 -162 -380 -162q-135 0 -190.5 54t-31.5 168zM207 209q-14 -65 16.5 -94t106.5 -29q133 0 240.5 83.5 t133.5 182.5l24 106q-37 -43 -100.5 -63t-127.5 -25t-125.5 -15t-107.5 -45t-60 -101zM460 1180q13 57 71.5 95.5t172.5 38.5q112 0 152.5 -38t27.5 -96q-11 -58 -68.5 -97t-169.5 -39q-113 0 -155 39t-31 97zM570 1180q-6 -30 12.5 -49t76.5 -19q55 0 83.5 20t33.5 48 q6 27 -13 47t-74 20q-103 0 -119 -67z" />
<glyph unicode="&#xe6;" horiz-adv-x="1513" d="M63 199q7 34 19.5 62.5t27 50t35.5 40t39.5 31t46 23t47.5 16.5t51.5 11.5t51.5 8.5t53 7q40 5 64 8.5t58.5 11t55.5 18.5t44 28t36.5 41.5t20.5 56.5q10 36 7 65.5t-19 51.5t-58.5 34t-111.5 12q-109 0 -175 -26l-47 -164q-3 -12 -7.5 -16t-16.5 -4h-60q-14 0 -17 4 t-1 16l42 202q5 24 13.5 35t26.5 19q36 17 108 29.5t158 12.5q251 0 292 -132q129 132 345 132q166 0 236.5 -68t42.5 -196q-11 -54 -37 -96.5t-59 -71.5t-82.5 -49.5t-95.5 -31.5t-111.5 -17.5t-118 -8t-125.5 -1.5h-19q-13 -140 48 -196.5t185 -56.5q35 0 67.5 3.5 t67.5 12.5t54 14.5t59.5 19.5t50.5 17q13 5 19 0t2 -22l-9 -43q-4 -21 -11 -29t-25 -17q-63 -31 -147.5 -48.5t-166.5 -17.5q-294 0 -336 211q-61 -100 -163.5 -155.5t-234.5 -55.5q-134 0 -189 53.5t-31 164.5zM207 199q-12 -60 15 -87.5t93 -27.5q124 0 227 86.5 t125 190.5l16 82q-39 -46 -96 -65t-142 -30q-35 -5 -48 -7t-42.5 -7.5t-43 -11.5t-34.5 -17.5t-32 -25t-22 -34t-16 -46.5zM838 441q52 0 74 0.5t71 2.5t72.5 5t64.5 9.5t63 15t51.5 22.5t45.5 31.5t30.5 41.5t20.5 53q17 77 -27.5 115.5t-134.5 38.5q-133 0 -214 -83 t-117 -252z" />
<glyph unicode="&#xe7;" horiz-adv-x="906" d="M117 473q45 202 172.5 306.5t323.5 104.5q84 0 157.5 -13.5t108.5 -30.5q15 -7 18 -16t-1 -33l-53 -247q-5 -19 -24 -19h-63q-16 0 -13 17l28 205q-63 28 -157 28q-133 0 -226 -77.5t-127 -245.5q-15 -71 -16.5 -125.5t11.5 -93t35.5 -64.5t58 -41t76 -21t93.5 -6 q91 0 231 33q14 4 18 -2.5t1 -23.5l-11 -54q-3 -13 -9.5 -19t-22.5 -11q-96 -33 -233 -33h-9l-43 -71q73 -1 99.5 -36t14.5 -87q-17 -81 -79 -119.5t-143 -38.5q-71 0 -134 22q-9 4 -12 6t-3.5 9t6.5 17l19 24q12 17 26 11q41 -15 95 -15q92 0 108 82q6 30 -15.5 47.5 t-85.5 17.5q-4 0 -9.5 -0.5t-8.5 -0.5h-6.5t-4.5 1.5t-1 4.5t2.5 8t7.5 12l72 111q-85 10 -144.5 40t-99 87t-45 142.5t16.5 207.5z" />
<glyph unicode="&#xe8;" horiz-adv-x="938" d="M119 426q97 458 499 458q166 0 236.5 -68t42.5 -196q-11 -54 -37 -96.5t-59 -71.5t-82.5 -49.5t-95.5 -31.5t-111.5 -17.5t-118 -8t-125.5 -1.5h-19q-13 -140 48 -196.5t185 -56.5q35 0 67.5 3.5t68 12.5t54 14.5t60 19.5t50.5 17q13 5 18.5 0t1.5 -22l-9 -43 q-4 -21 -10.5 -29t-24.5 -17q-63 -31 -148 -48.5t-167 -17.5q-213 0 -292 110t-32 335zM264 441q52 0 74 0.5t71 2.5t72.5 5t65 9.5t63 15t51.5 22.5t46 31.5t30.5 41.5t20.5 53q17 77 -27.5 115.5t-134.5 38.5q-133 0 -214.5 -83.5t-117.5 -251.5zM460 1270 q-9 13 -4.5 20.5t19.5 7.5h100q18 0 25 -5t16 -21l131 -201q16 -30 -17 -30h-58q-14 0 -23.5 6.5t-22.5 23.5z" />
<glyph unicode="&#xe9;" horiz-adv-x="938" d="M119 426q97 458 499 458q166 0 236.5 -68t42.5 -196q-11 -54 -37 -96.5t-59 -71.5t-82.5 -49.5t-95.5 -31.5t-111.5 -17.5t-118 -8t-125.5 -1.5h-19q-13 -140 48 -196.5t185 -56.5q35 0 67.5 3.5t68 12.5t54 14.5t60 19.5t50.5 17q13 5 18.5 0t1.5 -22l-9 -43 q-4 -21 -10.5 -29t-24.5 -17q-63 -31 -148 -48.5t-167 -17.5q-213 0 -292 110t-32 335zM264 441q52 0 74 0.5t71 2.5t72.5 5t65 9.5t63 15t51.5 22.5t46 31.5t30.5 41.5t20.5 53q17 77 -27.5 115.5t-134.5 38.5q-133 0 -214.5 -83.5t-117.5 -251.5zM592 1085l183 174 q23 26 50 26h113q15 0 16 -8.5t-14 -19.5l-238 -185q-22 -16 -49 -16h-55q-35 0 -6 29z" />
<glyph unicode="&#xea;" horiz-adv-x="938" d="M119 426q97 458 499 458q166 0 236.5 -68t42.5 -196q-11 -54 -37 -96.5t-59 -71.5t-82.5 -49.5t-95.5 -31.5t-111.5 -17.5t-118 -8t-125.5 -1.5h-19q-13 -140 48 -196.5t185 -56.5q35 0 67.5 3.5t68 12.5t54 14.5t60 19.5t50.5 17q13 5 18.5 0t1.5 -22l-9 -43 q-4 -21 -10.5 -29t-24.5 -17q-63 -31 -148 -48.5t-167 -17.5q-213 0 -292 110t-32 335zM264 441q52 0 74 0.5t71 2.5t72.5 5t65 9.5t63 15t51.5 22.5t46 31.5t30.5 41.5t20.5 53q17 77 -27.5 115.5t-134.5 38.5q-133 0 -214.5 -83.5t-117.5 -251.5zM406 1059q-5 17 17 32 l199 162q22 19 48 19h54q27 0 43 -19l129 -162q14 -17 -2.5 -38t-35.5 -9l-184 129l-233 -127q-19 -6 -23 -3.5t-12 16.5z" />
<glyph unicode="&#xeb;" horiz-adv-x="938" d="M119 426q97 458 499 458q166 0 236.5 -68t42.5 -196q-11 -54 -37 -96.5t-59 -71.5t-82.5 -49.5t-95.5 -31.5t-111.5 -17.5t-118 -8t-125.5 -1.5h-19q-13 -140 48 -196.5t185 -56.5q35 0 67.5 3.5t68 12.5t54 14.5t60 19.5t50.5 17q13 5 18.5 0t1.5 -22l-9 -43 q-4 -21 -10.5 -29t-24.5 -17q-63 -31 -148 -48.5t-167 -17.5q-213 0 -292 110t-32 335zM264 441q52 0 74 0.5t71 2.5t72.5 5t65 9.5t63 15t51.5 22.5t46 31.5t30.5 41.5t20.5 53q17 77 -27.5 115.5t-134.5 38.5q-133 0 -214.5 -83.5t-117.5 -251.5zM424 1132q5 32 32 55 t62 23t52.5 -23t12.5 -55q-7 -32 -35 -54t-64 -22q-35 0 -51 21.5t-9 54.5zM752 1132q5 32 33.5 55t65.5 23q35 0 52 -23t11 -55q-7 -32 -35 -54t-64 -22q-37 0 -53.5 21.5t-9.5 54.5z" />
<glyph unicode="&#xec;" horiz-adv-x="577" d="M155 786l9 41q3 16 9.5 22t20.5 6q91 11 149 11h87q38 0 28 -39l-76 -356h-2l-49 -229q-15 -61 -9 -93t18 -42t34 -10q48 0 58 44q5 23 8.5 27.5t21.5 4.5h31q17 0 21 -5.5t0 -24.5q-19 -83 -63.5 -117.5t-115.5 -34.5q-87 0 -128 53.5t-15 175.5l108 512q0 16 -8 20 t-33 6l-93 3q-11 0 -13 6t2 19zM248 1270q-9 13 -4.5 20.5t19.5 7.5h100q18 0 25 -5t16 -21l130 -201q17 -30 -16 -30h-58q-24 0 -47 30z" />
<glyph unicode="&#xed;" horiz-adv-x="577" d="M155 786l9 41q3 16 9.5 22t20.5 6q91 11 149 11h87q38 0 28 -39l-76 -356h-2l-49 -229q-15 -61 -9 -93t18 -42t34 -10q48 0 58 44q5 23 8.5 27.5t21.5 4.5h31q17 0 21 -5.5t0 -24.5q-19 -83 -63.5 -117.5t-115.5 -34.5q-87 0 -128 53.5t-15 175.5l108 512q0 16 -8 20 t-33 6l-93 3q-11 0 -13 6t2 19zM378 1085l182 174q23 26 51 26h113q15 0 16 -8.5t-14 -19.5l-238 -185q-22 -16 -49 -16h-55q-35 0 -6 29z" />
<glyph unicode="&#xee;" horiz-adv-x="577" d="M155 786l9 41q3 16 9.5 22t20.5 6q91 11 149 11h87q38 0 28 -39l-76 -356h-2l-49 -229q-15 -61 -9 -93t18 -42t34 -10q48 0 58 44q5 23 8.5 27.5t21.5 4.5h31q17 0 21 -5.5t0 -24.5q-19 -83 -63.5 -117.5t-115.5 -34.5q-87 0 -128 53.5t-15 175.5l108 512q0 16 -8 20 t-33 6l-93 3q-11 0 -13 6t2 19zM194 1059q-5 17 16 32l200 162q22 19 48 19h54q27 0 43 -19l128 -162q14 -17 -2 -38t-35 -9l-184 129l-233 -127q-19 -6 -23 -3.5t-12 16.5z" />
<glyph unicode="&#xef;" horiz-adv-x="577" d="M155 786l9 41q3 16 9.5 22t20.5 6q91 11 149 11h87q38 0 28 -39l-76 -356h-2l-49 -229q-15 -61 -9 -93t18 -42t34 -10q48 0 58 44q5 23 8.5 27.5t21.5 4.5h31q17 0 21 -5.5t0 -24.5q-19 -83 -63.5 -117.5t-115.5 -34.5q-87 0 -128 53.5t-15 175.5l108 512q0 16 -8 20 t-33 6l-93 3q-11 0 -13 6t2 19zM212 1132q5 32 31.5 55t61.5 23t53 -23t13 -55q-7 -32 -35 -54t-64 -22q-35 0 -51 21.5t-9 54.5zM540 1132q5 32 33.5 55t65.5 23q35 0 52 -23t11 -55q-7 -32 -35 -54t-64 -22q-37 0 -53.5 21.5t-9.5 54.5z" />
<glyph unicode="&#xf0;" horiz-adv-x="1018" d="M114 402q18 81 51.5 151t85.5 130.5t131 95.5t175 35q171 0 251 -142q14 167 -27 287.5t-135 183.5l-106 -145q-10 -13 -19 -4l-63 39q-11 9 -2 23l97 130q-74 19 -140 19h-16q-25 0 -19 29l15 64q6 24 26 24h19q106 0 195 -26l106 141q10 15 22 6l54 -35q9 -7 9.5 -12 t-5.5 -15l-91 -126q109 -60 168.5 -172t66.5 -255.5t-28 -317.5q-53 -248 -181 -388.5t-335 -140.5q-187 0 -266.5 113.5t-38.5 307.5zM263 408q-33 -154 16 -234.5t162 -80.5q130 0 214.5 103t124.5 294l2 5q-14 106 -67 156.5t-151 50.5q-120 0 -196.5 -80.5 t-104.5 -213.5z" />
<glyph unicode="&#xf1;" horiz-adv-x="1137" d="M4 22l9 45q3 14 7.5 19.5t16.5 6.5q108 3 133.5 16.5t39.5 74.5l108 516q13 60 -31 60l-97 1q-9 0 -10.5 5t2.5 18l10 46q5 17 8 21t16 5q36 2 74.5 5.5l60.5 5.5t33 2h68q23 0 28.5 -10.5t-0.5 -29.5l-20 -99q64 79 148 116.5t174 37.5q132 0 180 -68.5t17 -214.5 l-76 -359q-15 -61 -9.5 -93t17 -42t33.5 -10q46 0 56 44q5 23 9 27.5t22 4.5h32q17 0 21 -5.5t0 -24.5q-19 -83 -63.5 -117.5t-115.5 -34.5q-87 0 -128.5 53.5t-15.5 175.5l79 370q21 100 -5.5 140.5t-95.5 40.5q-123 0 -216.5 -100.5t-137.5 -305.5l-42 -207q-8 -43 12 -53 t112 -12q18 0 21.5 -6t-0.5 -24l-10 -37q-3 -16 -7.5 -21t-18.5 -5h-430q-16 0 -19 4t1 18zM594 1113q74 103 151 103q36 0 65.5 -15.5t53 -31t46.5 -15.5q30 0 60 43q11 17 20 9l41 -20q8 -6 7.5 -10t-7.5 -14q-74 -108 -148 -108q-36 0 -66.5 16t-53.5 31.5t-42 15.5 q-16 0 -28 -8.5t-38 -34.5q-11 -13 -24 -7l-35 20q-15 8 -2 26z" />
<glyph unicode="&#xf2;" d="M119 462q15 67 40.5 126.5t67 114.5t94.5 94.5t125.5 63t156.5 23.5q80 0 143 -18t104.5 -50.5t69 -76t38 -96.5t9.5 -109t-14 -117q-18 -84 -56 -157.5t-96.5 -135t-145 -97.5t-190.5 -36q-80 0 -143.5 18.5t-104.5 51.5t-68 77t-37 97.5t-8 109.5t15 117zM259 434 q-16 -66 -11.5 -126.5t25.5 -106.5t70.5 -73t123.5 -27q137 0 225 94.5t118 238.5q17 66 11.5 127.5t-26 109t-70 76t-122.5 28.5q-93 0 -167 -50t-115.5 -124.5t-61.5 -166.5zM471 1270q-9 13 -4.5 20.5t19.5 7.5h100q18 0 25 -5t16 -21l131 -201q16 -30 -17 -30h-58 q-14 0 -23.5 6.5t-22.5 23.5z" />
<glyph unicode="&#xf3;" d="M119 462q15 67 40.5 126.5t67 114.5t94.5 94.5t125.5 63t156.5 23.5q80 0 143 -18t104.5 -50.5t69 -76t38 -96.5t9.5 -109t-14 -117q-18 -84 -56 -157.5t-96.5 -135t-145 -97.5t-190.5 -36q-80 0 -143.5 18.5t-104.5 51.5t-68 77t-37 97.5t-8 109.5t15 117zM259 434 q-16 -66 -11.5 -126.5t25.5 -106.5t70.5 -73t123.5 -27q137 0 225 94.5t118 238.5q17 66 11.5 127.5t-26 109t-70 76t-122.5 28.5q-93 0 -167 -50t-115.5 -124.5t-61.5 -166.5zM603 1085l183 174q23 26 50 26h114q9 0 13 -4t1 -10.5t-13 -13.5l-238 -185q-22 -16 -48 -16 h-56q-35 0 -6 29z" />
<glyph unicode="&#xf4;" d="M119 462q15 67 40.5 126.5t67 114.5t94.5 94.5t125.5 63t156.5 23.5q80 0 143 -18t104.5 -50.5t69 -76t38 -96.5t9.5 -109t-14 -117q-18 -84 -56 -157.5t-96.5 -135t-145 -97.5t-190.5 -36q-80 0 -143.5 18.5t-104.5 51.5t-68 77t-37 97.5t-8 109.5t15 117zM259 434 q-16 -66 -11.5 -126.5t25.5 -106.5t70.5 -73t123.5 -27q137 0 225 94.5t118 238.5q17 66 11.5 127.5t-26 109t-70 76t-122.5 28.5q-93 0 -167 -50t-115.5 -124.5t-61.5 -166.5zM417 1059q-5 17 17 32l199 162q22 19 48 19h54q27 0 43 -19l129 -162q14 -18 -2.5 -38.5 t-35.5 -8.5l-184 129l-233 -127q-5 -2 -9 -3.5t-7 -1t-4.5 0.5t-4 2.5t-3 3.5t-3.5 5t-4 6z" />
<glyph unicode="&#xf5;" d="M119 462q15 67 40.5 126.5t67 114.5t94.5 94.5t125.5 63t156.5 23.5q80 0 143 -18t104.5 -50.5t69 -76t38 -96.5t9.5 -109t-14 -117q-18 -84 -56 -157.5t-96.5 -135t-145 -97.5t-190.5 -36q-80 0 -143.5 18.5t-104.5 51.5t-68 77t-37 97.5t-8 109.5t15 117zM259 434 q-16 -66 -11.5 -126.5t25.5 -106.5t70.5 -73t123.5 -27q137 0 225 94.5t118 238.5q17 66 11.5 127.5t-26 109t-70 76t-122.5 28.5q-93 0 -167 -50t-115.5 -124.5t-61.5 -166.5zM480 1113q74 103 151 103q45 0 93 -31t73 -31q29 0 59 43q11 17 21 9l41 -20q8 -6 7.5 -10 t-7.5 -14q-74 -108 -149 -108q-36 0 -66.5 16t-53.5 31.5t-42 15.5q-21 0 -47 -25l-18 -18q-11 -13 -24 -7l-36 20q-15 8 -2 26z" />
<glyph unicode="&#xf6;" d="M119 462q15 67 40.5 126.5t67 114.5t94.5 94.5t125.5 63t156.5 23.5q80 0 143 -18t104.5 -50.5t69 -76t38 -96.5t9.5 -109t-14 -117q-18 -84 -56 -157.5t-96.5 -135t-145 -97.5t-190.5 -36q-80 0 -143.5 18.5t-104.5 51.5t-68 77t-37 97.5t-8 109.5t15 117zM259 434 q-16 -66 -11.5 -126.5t25.5 -106.5t70.5 -73t123.5 -27q137 0 225 94.5t118 238.5q17 66 11.5 127.5t-26 109t-70 76t-122.5 28.5q-93 0 -167 -50t-115.5 -124.5t-61.5 -166.5zM436 1132q5 32 31.5 55t61.5 23t52.5 -23t12.5 -55q-7 -32 -35 -54t-64 -22q-35 0 -50.5 21.5 t-8.5 54.5zM763 1132q5 32 33.5 55t65.5 23q35 0 52 -23t11 -55q-7 -33 -34.5 -54.5t-63.5 -21.5q-37 0 -54 21.5t-10 54.5z" />
<glyph unicode="&#xf7;" horiz-adv-x="1202" d="M156 398l26 125h924l-26 -125h-924zM451 140q9 35 42.5 59t79.5 24q44 0 67 -24.5t15 -58.5q-7 -35 -40 -59.5t-77 -24.5q-46 0 -70 24.5t-17 59.5zM588 780q7 36 41.5 60t79.5 24q42 0 66.5 -24t17.5 -60q-7 -32 -42 -56t-77 -24q-44 0 -68.5 23.5t-17.5 56.5z" />
<glyph unicode="&#xf8;" d="M119 462q15 67 40.5 126.5t67 114.5t94.5 94.5t125.5 63t156.5 23.5q92 0 155 -22l91 143q17 17 22 17h80q19 0 8 -20l-117 -181q59 -40 91 -106.5t34 -140.5t-14 -157q-18 -84 -56 -157.5t-96.5 -135t-145 -97.5t-190.5 -36q-76 0 -143 18l-86 -132q-7 -13 -26 -13h-78 q-14 0 -4 15l108 168q-64 40 -97.5 108t-35 144.5t15.5 162.5zM259 434q-41 -195 46 -279l388 606q-40 14 -90 14q-93 0 -167 -50t-115.5 -124.5t-61.5 -166.5zM387 110q33 -9 80 -9q137 0 225 94.5t118 238.5q38 184 -41 273z" />
<glyph unicode="&#xf9;" horiz-adv-x="1113" d="M140 789l7 40q4 16 10 21t18 5q40 2 65 4.5t32 3.5t20 2t36 1h87q20 0 25 -11t-1 -32l-111 -529q-25 -119 4.5 -162t112.5 -43q124 0 206.5 77.5t121.5 256.5l65 305q-3 31 -37 35l-97 2q-16 0 -10 24l8 40q4 16 10 21t18 5q40 2 65 4.5t32 3.5t20 2t36 1h87q20 0 25 -11 t-1 -32l-28 -140h2l-100 -471h-2q-12 -68 2 -91.5t46 -23.5q46 0 56 44q6 27 12 30q4 2 18 2h33q16 0 20.5 -5.5t0.5 -24.5q-18 -83 -63.5 -117.5t-115.5 -34.5q-151 0 -154 143q-112 -147 -308 -147q-150 0 -203.5 72t-17.5 239l57 275h2l30 138q9 48 -35 52l-97 2 q-9 0 -11 5.5t2 18.5zM473 1270q-9 13 -4.5 20.5t19.5 7.5h100q18 0 25 -5t16 -21l131 -201q17 -30 -17 -30h-58q-14 0 -23.5 6.5t-22.5 23.5z" />
<glyph unicode="&#xfa;" horiz-adv-x="1113" d="M140 789l7 40q4 16 10 21t18 5q40 2 65 4.5t32 3.5t20 2t36 1h87q20 0 25 -11t-1 -32l-111 -529q-25 -119 4.5 -162t112.5 -43q124 0 206.5 77.5t121.5 256.5l65 305q-3 31 -37 35l-97 2q-16 0 -10 24l8 40q4 16 10 21t18 5q40 2 65 4.5t32 3.5t20 2t36 1h87q20 0 25 -11 t-1 -32l-28 -140h2l-100 -471h-2q-12 -68 2 -91.5t46 -23.5q46 0 56 44q6 27 12 30q4 2 18 2h33q16 0 20.5 -5.5t0.5 -24.5q-18 -83 -63.5 -117.5t-115.5 -34.5q-151 0 -154 143q-112 -147 -308 -147q-150 0 -203.5 72t-17.5 239l57 275h2l30 138q9 48 -35 52l-97 2 q-9 0 -11 5.5t2 18.5zM605 1085l183 174q23 26 50 26h113q15 0 16 -8.5t-14 -19.5l-238 -185q-22 -16 -48 -16h-56q-35 0 -6 29z" />
<glyph unicode="&#xfb;" horiz-adv-x="1113" d="M140 789l7 40q4 16 10 21t18 5q40 2 65 4.5t32 3.5t20 2t36 1h87q20 0 25 -11t-1 -32l-111 -529q-25 -119 4.5 -162t112.5 -43q124 0 206.5 77.5t121.5 256.5l65 305q-3 31 -37 35l-97 2q-16 0 -10 24l8 40q4 16 10 21t18 5q40 2 65 4.5t32 3.5t20 2t36 1h87q20 0 25 -11 t-1 -32l-28 -140h2l-100 -471h-2q-12 -68 2 -91.5t46 -23.5q46 0 56 44q6 27 12 30q4 2 18 2h33q16 0 20.5 -5.5t0.5 -24.5q-18 -83 -63.5 -117.5t-115.5 -34.5q-151 0 -154 143q-112 -147 -308 -147q-150 0 -203.5 72t-17.5 239l57 275h2l30 138q9 48 -35 52l-97 2 q-9 0 -11 5.5t2 18.5zM419 1059q-5 17 17 32l199 162q22 19 48 19h54q27 0 43 -19l129 -162q14 -17 -2.5 -38t-35.5 -9l-184 129l-233 -127q-19 -6 -23 -3.5t-12 16.5z" />
<glyph unicode="&#xfc;" horiz-adv-x="1113" d="M140 789l7 40q4 16 10 21t18 5q40 2 65 4.5t32 3.5t20 2t36 1h87q20 0 25 -11t-1 -32l-111 -529q-25 -119 4.5 -162t112.5 -43q124 0 206.5 77.5t121.5 256.5l65 305q-3 31 -37 35l-97 2q-16 0 -10 24l8 40q4 16 10 21t18 5q40 2 65 4.5t32 3.5t20 2t36 1h87q20 0 25 -11 t-1 -32l-28 -140h2l-100 -471h-2q-12 -68 2 -91.5t46 -23.5q46 0 56 44q6 27 12 30q4 2 18 2h33q16 0 20.5 -5.5t0.5 -24.5q-18 -83 -63.5 -117.5t-115.5 -34.5q-151 0 -154 143q-112 -147 -308 -147q-150 0 -203.5 72t-17.5 239l57 275h2l30 138q9 48 -35 52l-97 2 q-9 0 -11 5.5t2 18.5zM438 1132q5 32 31.5 55t61.5 23t52.5 -23t12.5 -55q-7 -32 -35 -54t-64 -22q-35 0 -50.5 21.5t-8.5 54.5zM765 1132q5 32 33.5 55t65.5 23q35 0 52 -23t11 -55q-7 -33 -34.5 -54.5t-63.5 -21.5q-37 0 -54 21.5t-10 54.5z" />
<glyph unicode="&#xfd;" horiz-adv-x="1040" d="M28 -359l13 54q1 7 2.5 10.5t6.5 5.5t15 2q108 12 127 19q22 8 43 33q157 221 167 235q-21 0 -26 15q-45 108 -86 337.5t-13 386.5q2 17 -17.5 23.5t-93.5 10.5q-11 0 -13 3t0 12l15 65q2 13 16 13h373q14 0 11 -15l-13 -62q-3 -11 -7 -14.5t-16 -3.5q-52 -1 -77 -5.5 t-30 -9.5t-6 -17q-23 -119 3.5 -308t61.5 -308q157 240 348 611q11 21 2 26q-14 8 -95 11q-13 1 -15.5 4.5t0.5 13.5l11 58q5 19 23 19h342q14 0 17.5 -4t-0.5 -15l-11 -56q-3 -10 -7 -13.5t-15 -6.5q-55 -2 -78 -6.5t-32.5 -12.5t-20.5 -30q-139 -279 -291.5 -525 t-348.5 -512q-33 -38 -62.5 -49.5t-71.5 -11.5h-131q-16 0 -19 2t-1 15zM637 1085l182 174q23 26 50 26h114q15 0 16 -8.5t-14 -19.5l-238 -185q-22 -16 -49 -16h-56q-34 0 -5 29z" />
<glyph unicode="&#xfe;" horiz-adv-x="1050" d="M-138 -331l10 44q3 15 7 20t15 6q46 1 70 3.5t43.5 6.5t28 15t13.5 24t11 39l277 1311q12 56 -34 59l-94 2q-11 0 -13 4.5t1 17.5l10 47q4 16 8.5 20t17.5 6q36 2 74 5.5t60 5.5t33 2h69q22 0 28 -10.5t0 -30.5l-125 -586q58 100 147.5 151.5t186.5 51.5q93 0 158 -36 t95 -99.5t36 -149.5t-18 -187q-40 -191 -154 -310.5t-289 -119.5q-64 0 -119.5 16.5t-97.5 56t-51 97.5l-67 -317q-14 -64 6 -78t123 -17q18 0 21 -5.5t-3 -23.5l-7 -38q-3 -16 -8 -21t-20 -5h-432q-16 0 -18.5 4.5t1.5 18.5zM326 406q-31 -147 13.5 -233.5t170.5 -86.5 q130 0 210.5 92.5t113.5 247.5q17 71 15.5 133.5t-19.5 109t-61 73.5t-108 27q-127 0 -213.5 -99t-121.5 -264z" />
<glyph unicode="&#xff;" horiz-adv-x="1040" d="M28 -359l13 54q1 7 2.5 10.5t6.5 5.5t15 2q108 12 127 19q22 8 43 33q157 221 167 235q-21 0 -26 15q-45 108 -86 337.5t-13 386.5q2 17 -17.5 23.5t-93.5 10.5q-11 0 -13 3t0 12l15 65q2 13 16 13h373q14 0 11 -15l-13 -62q-3 -11 -7 -14.5t-16 -3.5q-52 -1 -77 -5.5 t-30 -9.5t-6 -17q-23 -119 3.5 -308t61.5 -308q157 240 348 611q11 21 2 26q-14 8 -95 11q-13 1 -15.5 4.5t0.5 13.5l11 58q5 19 23 19h342q14 0 17.5 -4t-0.5 -15l-11 -56q-3 -10 -7 -13.5t-15 -6.5q-55 -2 -78 -6.5t-32.5 -12.5t-20.5 -30q-139 -279 -291.5 -525 t-348.5 -512q-33 -38 -62.5 -49.5t-71.5 -11.5h-131q-16 0 -19 2t-1 15zM469 1132q5 32 31.5 55t61.5 23t52.5 -23t12.5 -55q-7 -33 -34.5 -54.5t-63.5 -21.5q-35 0 -51 21.5t-9 54.5zM797 1132q5 32 33.5 55t65.5 23q35 0 52 -23t11 -55q-7 -32 -35 -54t-64 -22 q-37 0 -53.5 21.5t-9.5 54.5z" />
<glyph unicode="&#x152;" horiz-adv-x="2116" d="M184 680q30 140 91 256t151 203t213 135t268 48q344 0 463 -237q91 237 432 237q215 0 347 -45q23 -7 25 -16t-5 -32l-54 -255q-5 -17 -8.5 -20t-17.5 -3h-60q-11 0 -13.5 3t-1.5 16l19 212q-90 23 -233 23q-63 0 -110 -8.5t-90 -30t-71 -62.5t-41 -102 q-30 -141 38.5 -201t216.5 -60h128q22 0 17 -28l-13 -61q-5 -26 -28 -26h-129q-253 0 -355 -136q-34 -90 -54 -129q-29 -138 45.5 -198.5t257.5 -60.5q77 0 162 10.5t145.5 22.5t63.5 12q13 3 16 -1.5t-1 -17.5l-17 -80q-3 -12 -10 -16.5t-24 -9.5q-145 -41 -363 -41 q-171 0 -281 40t-147 139q-190 -179 -480 -179q-128 0 -226.5 34t-159.5 96t-95.5 148.5t-34.5 192.5t24 228zM335 655q-55 -258 36.5 -405.5t308.5 -147.5q158 0 284 82.5t205 234.5q15 42 36 80q30 77 46 156q55 256 -37 401t-309 145q-212 0 -363.5 -145t-206.5 -401z M1408 655q47 16 96 26q-47 10 -85 45z" />
<glyph unicode="&#x153;" horiz-adv-x="1625" d="M119 462q15 67 40.5 126.5t67 114.5t94.5 94.5t125.5 63t156.5 23.5q247 0 330 -165q131 165 372 165q166 0 236.5 -68t42.5 -196q-11 -54 -37 -96.5t-59 -71.5t-82.5 -49.5t-95.5 -31.5t-111.5 -17.5t-118 -8t-125.5 -1.5h-19q-13 -140 48 -196.5t185 -56.5 q35 0 67.5 3.5t68 12.5t54 14.5t60 19.5t50.5 17q13 5 18.5 0t1.5 -22l-9 -43q-4 -21 -10.5 -29t-24.5 -17q-63 -31 -148 -48.5t-167 -17.5q-250 0 -318 155q-135 -145 -347 -145q-80 0 -143.5 18.5t-104.5 51.5t-68 77t-37 97.5t-8 109.5t15 117zM259 434 q-16 -66 -11.5 -126.5t25.5 -106.5t70.5 -73t123.5 -27q126 0 211 81t121 209l16 80q14 84 -1 150.5t-68.5 110t-142.5 43.5q-93 0 -167 -50t-115.5 -124.5t-61.5 -166.5zM959 441q52 0 82 1t79 3.5t79 7.5t70 13.5t65 22t50 31.5t40 44t21 58q17 77 -27.5 115.5 t-134.5 38.5q-121 0 -198.5 -68.5t-120.5 -208.5z" />
<glyph unicode="&#x178;" horiz-adv-x="1241" d="M233 1231l11 54q3 11 7 14.5t15 3.5h414q17 0 11 -18l-11 -52q-3 -23 -23 -23q-77 -2 -104.5 -8t-31.5 -22q-12 -57 -13 -113t9 -107t25.5 -97t40 -93t47.5 -84t53 -81q82 72 135.5 125t119 129t107 156.5t59.5 164.5q2 8 -2.5 13.5t-19.5 9t-38 5t-61 2.5 q-12 0 -15.5 5.5t-1.5 17.5l11 52q6 18 21 18h397q11 0 14 -3.5t0 -14.5l-11 -54q-3 -21 -22 -21q-81 -3 -112 -10t-35 -25q-25 -100 -78 -198t-127 -186.5t-142 -156.5t-156 -144l-58 -276h2l-5 -26q-6 -25 -8 -37t0.5 -25t8.5 -17t23 -8.5t37 -5.5t58 -2q20 0 23 -6 t-1 -24l-9 -37q-3 -16 -7.5 -21t-20.5 -5h-434q-16 0 -19 4t1 18l9 45q3 15 7 20t17 6q41 1 63 2t43 5.5t29 8.5t17 16t12.5 23.5t8.5 35.5l63 298q-30 41 -54.5 78.5t-51.5 85.5t-46.5 93t-36 98.5t-24 106t-6.5 112.5t13 119q2 17 -28 24.5t-106 10.5q-12 1 -14.5 5.5 t1.5 15.5zM631 1454q5 32 30.5 55t60.5 23t53.5 -23t13.5 -55q-7 -33 -34.5 -54.5t-63.5 -21.5q-35 0 -51 21.5t-9 54.5zM959 1454q5 32 33 55t64 23q35 0 52.5 -23t12.5 -55q-7 -32 -35 -54t-64 -22q-37 0 -53.5 21.5t-9.5 54.5z" />
<glyph unicode="&#x2c6;" horiz-adv-x="666" d="M315 1381q-5 17 16 32l198 162q25 19 48 19h54q30 0 43 -19l130 -162q7 -8 7 -16t-3 -12.5t-11 -14.5q-9 -9 -15 -9t-15 6l-184 128l-233 -127q-19 -6 -23 -3.5t-12 16.5z" />
<glyph unicode="&#x2dc;" horiz-adv-x="662" d="M365 1430q77 102 151 102q46 0 93 -30.5t72 -30.5q30 0 60 43q13 15 20 9l41 -21q8 -6 7.5 -10t-7.5 -14q-74 -108 -149 -108q-36 0 -66 16t-53 32t-42 16q-16 0 -28 -8.5t-38 -34.5q-11 -14 -24 -8l-35 21q-15 8 -2 26z" />
<glyph unicode="&#x2000;" horiz-adv-x="832" />
<glyph unicode="&#x2001;" horiz-adv-x="1664" />
<glyph unicode="&#x2002;" horiz-adv-x="832" />
<glyph unicode="&#x2003;" horiz-adv-x="1664" />
<glyph unicode="&#x2004;" horiz-adv-x="554" />
<glyph unicode="&#x2005;" horiz-adv-x="416" />
<glyph unicode="&#x2006;" horiz-adv-x="277" />
<glyph unicode="&#x2007;" horiz-adv-x="277" />
<glyph unicode="&#x2008;" horiz-adv-x="208" />
<glyph unicode="&#x2009;" horiz-adv-x="332" />
<glyph unicode="&#x200a;" horiz-adv-x="92" />
<glyph unicode="&#x2010;" horiz-adv-x="904" d="M179 505l15 68q4 21 20 21h594q17 0 13 -21l-13 -61q-3 -13 -8.5 -18.5t-17.5 -5.5h-592q-9 0 -11 4.5t0 12.5z" />
<glyph unicode="&#x2011;" horiz-adv-x="904" d="M179 505l15 68q4 21 20 21h594q17 0 13 -21l-13 -61q-3 -13 -8.5 -18.5t-17.5 -5.5h-592q-9 0 -11 4.5t0 12.5z" />
<glyph unicode="&#x2012;" horiz-adv-x="904" d="M179 505l15 68q4 21 20 21h594q17 0 13 -21l-13 -61q-3 -13 -8.5 -18.5t-17.5 -5.5h-592q-9 0 -11 4.5t0 12.5z" />
<glyph unicode="&#x2013;" horiz-adv-x="1228" d="M177 495l18 84q4 17 19 17h920q15 0 9 -19l-15 -76q-3 -12 -7.5 -16.5t-16.5 -4.5h-918q-8 0 -9.5 3.5t0.5 11.5z" />
<glyph unicode="&#x2014;" horiz-adv-x="1651" d="M177 495l18 84q4 17 19 17h1342q9 0 10.5 -4.5t-2.5 -14.5l-15 -76q-3 -12 -7 -16.5t-15 -4.5h-1341q-8 0 -9.5 3.5t0.5 11.5z" />
<glyph unicode="&#x2018;" horiz-adv-x="444" d="M255 970l186 330q8 14 15 18t21 4h67q13 0 16 -5t-3 -19l-164 -339q-9 -22 -17.5 -29t-31.5 -7h-78q-23 0 -24 11.5t13 35.5z" />
<glyph unicode="&#x2019;" horiz-adv-x="443" d="M248 948l162 339q11 23 18 29t30 6h78q23 0 24.5 -11.5t-13.5 -35.5l-186 -329q-8 -14 -15 -18.5t-20 -4.5h-67q-13 0 -15.5 5.5t4.5 19.5z" />
<glyph unicode="&#x201a;" horiz-adv-x="413" d="M-48 -192l162 339q9 22 17 28.5t31 6.5h78q23 0 24.5 -11t-13.5 -35l-186 -330q-8 -14 -14.5 -18t-20.5 -4h-67q-13 0 -16 5t5 19z" />
<glyph unicode="&#x201c;" horiz-adv-x="703" d="M255 970l186 330q8 14 15 18t21 4h67q13 0 16 -5t-3 -19l-164 -339q-9 -22 -17.5 -29t-31.5 -7h-78q-23 0 -24 11.5t13 35.5zM514 970l186 330q8 14 14.5 18t20.5 4h67q13 0 16 -5t-3 -19l-163 -339q-9 -22 -17.5 -29t-31.5 -7h-78q-23 0 -24 11.5t13 35.5z" />
<glyph unicode="&#x201d;" horiz-adv-x="703" d="M248 948l162 339q11 23 18 29t30 6h78q23 0 24.5 -11.5t-13.5 -35.5l-186 -329q-8 -14 -15 -18.5t-20 -4.5h-67q-13 0 -15.5 5.5t4.5 19.5zM506 948l162 339q10 23 18 29t31 6h78q23 0 24.5 -11.5t-13.5 -35.5l-186 -329q-8 -14 -15 -18.5t-20 -4.5h-67q-24 0 -12 25z " />
<glyph unicode="&#x201e;" horiz-adv-x="720" d="M-48 -192l162 339q9 22 17 28.5t31 6.5h78q23 0 24.5 -11t-13.5 -35l-186 -330q-8 -14 -14.5 -18t-20.5 -4h-67q-13 0 -16 5t5 19zM259 -192l162 339q9 22 17 28.5t31 6.5h78q23 0 25 -11t-13 -35l-187 -330q-8 -14 -14.5 -18t-20.5 -4h-67q-13 0 -16 5t5 19z" />
<glyph unicode="&#x2022;" horiz-adv-x="595" d="M212 456q7 38 45.5 64t88.5 26q49 0 77.5 -26t21.5 -64q-8 -36 -49 -62.5t-89 -26.5q-49 0 -76 26t-19 63z" />
<glyph unicode="&#x2026;" horiz-adv-x="1323" d="M80 80q7 38 38.5 64.5t71.5 26.5q36 0 57 -27t14 -64q-9 -42 -40.5 -66.5t-69.5 -24.5q-41 0 -61 24t-10 67zM521 80q7 38 38 64.5t70 26.5q37 0 58.5 -26.5t14.5 -64.5q-9 -42 -41 -66.5t-71 -24.5q-40 0 -59.5 24t-9.5 67zM963 80q7 38 38 64.5t71 26.5q36 0 57 -27 t14 -64q-9 -42 -40.5 -66.5t-69.5 -24.5q-41 0 -60.5 24t-9.5 67z" />
<glyph unicode="&#x202f;" horiz-adv-x="332" />
<glyph unicode="&#x2039;" horiz-adv-x="646" d="M108 452q-10 14 -9 21t16 20l451 399q16 12 19 13.5t13 -0.5l54 -49q7 -6 5 -9t-17 -17l-389 -353l239 -345q11 -18 12 -22.5t-9 -10.5l-72 -45q-11 -6 -17.5 -4t-14.5 15z" />
<glyph unicode="&#x203a;" horiz-adv-x="647" d="M60 99q-6 4 -3.5 10t21.5 23l386 345l-241 353q-9 12 -9 16.5t8 9.5l76 49q10 7 24 -13l285 -399q8 -13 6 -20t-17 -21l-447 -387q-15 -13 -21 -15t-13 4z" />
<glyph unicode="&#x205f;" horiz-adv-x="416" />
<glyph unicode="&#x20ac;" horiz-adv-x="1448" d="M114 441l61 64q16 16 34 16h134l11 82h-194q-14 0 -15.5 4.5t6.5 12.5l63 63q16 19 34 19h130q155 620 706 620q245 0 383 -39q18 -7 21 -15.5t-2 -34.5l-64 -304q-4 -16 -8.5 -19t-17.5 -3h-72q-14 0 -18 3.5t-3 14.5l32 257q-98 24 -248 24q-207 0 -349.5 -125.5 t-208.5 -378.5h612q15 0 17 -6t-11 -16l-71 -60q-17 -17 -37 -17h-534q-4 -18 -7.5 -47.5t-4.5 -34.5h471q15 0 17 -6t-11 -16l-67 -60q-18 -15 -39 -15h-374q7 -167 106 -241.5t283 -74.5q141 0 381 43q15 3 21 -2t2 -19l-11 -57q-4 -21 -13 -29.5t-32 -13.5 q-209 -45 -365 -45q-258 0 -391 106t-134 333h-214q-15 0 -16.5 3.5t7.5 13.5z" />
<glyph unicode="&#x2122;" horiz-adv-x="1722" d="M315 1093l42 197q1 9 4 11t11 2h484h6t4.5 -1.5t2 -4t-0.5 -7.5l-43 -197q-4 -15 -13 -15h-51q-15 0 -11 15l13 97q6 24 -13 24h-100l-121 -566q-7 -37 1 -46t51 -10q9 0 10.5 -4t-1.5 -15l-7 -37q0 -1 -1 -3q-8 -11 -14 -12h-244q-8 0 -9 2.5t2 10.5l7 41q3 15 13 17 q50 3 63.5 11t20.5 41l121 570h-101q-16 0 -26 -24l-26 -99q-4 -13 -15 -13h-50q-13 0 -9 15zM754 534l7 41q3 14 17 17q41 3 53.5 11.5t19.5 40.5l115 542q5 28 -5.5 37t-53.5 10q-6 1 -7.5 3.5t0.5 7.5q1 3 1 5l9 41q2 13 12 13h210q6 0 10 -1t7 -1.5t4.5 -3.5t2.5 -4.5 t1.5 -6t0.5 -7v-9.5v-10q-3 -101 13 -305.5t34 -319.5h1q62 107 156 311t137 314q2 4 5.5 13t5 11.5t4.5 8t6.5 6.5t9 2.5t12.5 1.5h208q8 0 9.5 -2.5t-0.5 -10.5l-9 -41q-2 -14 -13 -16q-48 -3 -62.5 -11t-19.5 -36l-112 -529q-16 -67 28 -67q37 0 49 50v4q0 3 2.5 5.5 t4.5 2.5h37q4 0 4 -8v-4q-29 -130 -139 -130q-127 0 -95 151l100 471q-59 -144 -154.5 -334t-145.5 -264q-11 -13 -24 -13h-78q-19 0 -19 13q-25 82 -46 258.5t-24 332.5l-103 -481q-7 -34 0.5 -42.5t46.5 -9.5q11 0 12.5 -4t-1.5 -15l-8 -37q-5 -13 -9 -14q-2 -1 -7 -1 h-211q-9 0 -10.5 2.5t1.5 10.5z" />
<glyph unicode="&#xe000;" horiz-adv-x="865" d="M0 0v866h866v-866h-866z" />
</font>
</defs>
</svg>
