<?xml version="1.0" standalone="no"?>
<!DOCTYPE svg PUBLIC "-//W3C//DTD SVG 1.1//EN" "http://www.w3.org/Graphics/SVG/1.1/DTD/svg11.dtd" >
<svg xmlns="http://www.w3.org/2000/svg">
<metadata></metadata>
<defs>
<font id="quatie_cond_bookcond_book" horiz-adv-x="1184" >
<font-face units-per-em="2048" ascent="1629" descent="-419" />
<missing-glyph horiz-adv-x="322" />
<glyph unicode="&#xfb01;" horiz-adv-x="889" d="M65 22v32q0 15 3 20.5t12 5.5q74 3 92.5 13t19.5 52v633h-108q-15 0 -15 17v52q0 19 15 19h108v128q0 174 70.5 251t206.5 77q63 0 120 -15.5t87 -33.5q20 -15 20 -54v-180q0 -19 -15 -19h-50q-7 0 -10.5 3t-6.5 14l-11 158q-57 32 -134 32q-87 0 -126.5 -57.5 t-39.5 -192.5v-111h377q22 0 22 -30v-603q0 -88 15 -118.5t43 -30.5q41 0 41 43q0 22 3.5 27.5t20.5 5.5h18q17 0 21 -4.5t4 -23.5q0 -139 -129 -139q-149 0 -149 216v525q-3 29 -23 36.5t-92 7.5h-172v-631q1 -44 25 -53.5t123 -11.5q11 0 15.5 -3.5t5.5 -9t1 -19.5v-24 q0 -9 -0.5 -12.5t-2 -7.5t-5.5 -5t-11 -1h-370q-14 0 -16.5 3.5t-2.5 18.5z" />
<glyph unicode="&#xfb02;" horiz-adv-x="910" d="M60 22v32q0 26 14 26q87 3 105 16.5t18 78.5v603h-108q-15 0 -15 17v52q0 19 15 19h108v134q0 161 74.5 241.5t210.5 80.5q63 0 113.5 -13.5t119.5 -51.5q17 -10 17 -32v-992q0 -89 15 -119t44 -30q38 0 38 43q0 22 3.5 27.5t20.5 5.5h18q17 0 21 -4.5t4 -23.5 q0 -77 -34 -108t-93 -31q-71 0 -109 49.5t-38 166.5v569h-315v-618q0 -54 18 -65t99 -13q16 -1 19.5 -6.5t3.5 -25.5v-24q0 -16 -3.5 -21t-17.5 -5h-348q-7 0 -10.5 0.5t-5.5 4t-2 6v11.5zM307 866h315v318q-68 41 -140 41q-100 0 -137.5 -58t-37.5 -214v-87z" />
<glyph unicode="&#xfb03;" horiz-adv-x="1316" d="M58 22v32q0 26 15 26q36 2 50.5 2.5t32.5 5t22.5 8.5t10.5 16.5t6 25v37.5v603h-106q-16 0 -16 17v52q0 19 16 19h106v61q0 170 70.5 244.5t201.5 74.5q108 0 190 -49q63 125 237 125q63 0 119.5 -15.5t84.5 -33.5q25 -16 25 -54v-180q0 -19 -15 -19h-52q-7 0 -10.5 3 t-4.5 14l-13 158q-54 32 -134 32q-87 0 -126.5 -57.5t-39.5 -192.5v-111h376q22 0 22 -30v-603q0 -88 15.5 -118.5t44.5 -30.5q39 0 39 43q0 22 3.5 27.5t20.5 5.5h19q17 0 21.5 -5t4.5 -23q0 -139 -130 -139q-147 0 -147 216v521q-1 32 -22 40t-96 8h-171v-601 q0 -25 0.5 -38t7 -25.5t13 -17t26.5 -8.5t40.5 -4.5l61.5 -1.5q11 0 15.5 -3.5t5.5 -9t1 -19.5v-24q0 -9 -0.5 -12.5t-2 -7.5t-5.5 -5t-12 -1h-371q-12 0 -15 3.5t-3 18.5v32q0 15 3 20.5t12 5.5q33 2 47 3t30.5 5.5t21 8t9.5 16.5t5 24.5v37.5v603h-313v-601q0 -26 0.5 -39 t5.5 -25.5t10.5 -17t22 -8t31.5 -4t48 -1.5q16 -1 19 -6.5t3 -25.5v-24q0 -9 -0.5 -12.5t-2 -7.5t-5.5 -5t-11 -1h-350q-7 0 -10.5 0.5t-5.5 4t-2 6v11.5zM305 866h313v128q0 68 9 112q-74 43 -147 43q-91 0 -133 -50t-42 -174v-59z" />
<glyph unicode="&#xfb04;" horiz-adv-x="1336" d="M58 22v32q0 26 15 26q36 2 50.5 2.5t32.5 5t22.5 8.5t10.5 16.5t6 25v37.5v603h-106q-16 0 -16 17v52q0 19 16 19h106v61q0 161 67 230.5t194 69.5q115 0 199 -50q63 145 254 145q63 0 113 -13.5t119 -51.5q17 -10 17 -32v-992q0 -88 15 -118.5t43 -30.5q39 0 39 43 q0 22 3.5 27.5t20.5 5.5h17q19 0 22.5 -4.5t3.5 -23.5q0 -77 -34 -108t-95 -31q-147 0 -147 216v569h-312v-618q0 -54 18 -65t99 -13q16 -1 19 -6.5t3 -25.5v-24q0 -9 -0.5 -12.5t-2 -7.5t-5.5 -5t-12 -1h-350q-12 0 -14.5 3.5t-2.5 18.5v32q0 16 3 21t12 5q87 3 105 16.5 t18 78.5v603h-319v-601q0 -26 0.5 -39t5.5 -25.5t10.5 -17t22 -8t31.5 -4t48 -1.5q16 -1 19 -6.5t3 -25.5v-24q0 -9 -0.5 -12.5t-2 -7.5t-5.5 -5t-11 -1h-350q-7 0 -10.5 0.5t-5.5 4t-2 6v11.5zM305 866h319v134q0 52 5 84q-78 46 -162 46q-85 0 -123.5 -45.5t-38.5 -159.5 v-59zM734 866h312v318q-66 41 -137 41q-100 0 -137.5 -58t-37.5 -214v-87z" />
<glyph horiz-adv-x="2048" />
<glyph horiz-adv-x="2048" />
<glyph unicode="&#xd;" horiz-adv-x="2048" />
<glyph unicode=" "  horiz-adv-x="322" />
<glyph unicode="&#x09;" horiz-adv-x="322" />
<glyph unicode="&#xa0;" horiz-adv-x="322" />
<glyph unicode="!" horiz-adv-x="409" d="M132 71q0 33 20.5 56.5t52.5 23.5q29 0 50.5 -24t21.5 -56q0 -39 -20.5 -60.5t-51.5 -21.5q-33 0 -53 21.5t-20 60.5zM147 1335q0 17 13 17h84q12 0 15.5 -4t3.5 -15l-14 -1039q0 -9 -2.5 -13.5t-6 -5.5t-11.5 -1h-56q-15 0 -15 22z" />
<glyph unicode="&#x22;" horiz-adv-x="528" d="M119 875v419q0 11 9 11h94q9 0 9 -13v-419q0 -13 -11 -13h-88q-13 0 -13 15zM298 875v419q0 11 9 11h93q7 0 8.5 -2.5t1.5 -10.5v-419q0 -13 -12 -13h-85q-9 0 -12 3t-3 12z" />
<glyph unicode="#" horiz-adv-x="1109" d="M80 423v96h237l48 295h-229v96h249l66 403h96l-65 -403h227l64 403h98l-63 -403h222v-96h-244l-47 -295h229v-96h-251l-69 -423h-97l71 423h-227l-69 -423h-95l67 423h-218zM415 519h225l49 295h-227z" />
<glyph unicode="$" horiz-adv-x="895" d="M99 80v259q0 14 4.5 19t19.5 5h46q21 0 21 -22l13 -226q93 -31 227 -31q33 0 63.5 4.5t69 21t66 43.5t46.5 76.5t19 116.5q0 86 -31.5 144.5t-81.5 89t-110 52.5t-120.5 46t-110.5 58t-81.5 99.5t-31.5 160.5q0 97 26 163.5t74 100.5t103 48t126 14q86 0 161 -14.5 t111 -32.5q15 -8 18.5 -15.5t3.5 -28.5v-265q0 -10 -0.5 -15t-4.5 -7t-5.5 -2h-9.5h-50q-13 0 -16 3t-3 16l-15 231q-51 19 -87 25t-103 6q-41 0 -76 -8.5t-70 -30t-55 -66.5t-20 -109q0 -75 31.5 -125t81.5 -75.5t110 -45t120.5 -45t110.5 -64t81.5 -113.5t31.5 -182 q0 -378 -368 -378q-80 0 -180 16t-133 33q-14 6 -18 17t-4 33zM404 -326l6 242q0 19 13 19h72q10 0 10 -15l5 -244q0 -19 -7 -19h-92q-7 0 -7 17zM408 1640q0 15 7 15h91q8 0 8 -17l-6 -243q0 -15 -11 -15h-71q-3 0 -5 1l-3 1.5t-2 3t-1 3.5t-1 4.5t-1 4.5z" />
<glyph unicode="%" horiz-adv-x="1599" d="M73 931q0 80 17 148.5t52.5 124.5t97 88t142.5 32q65 0 118 -21.5t88.5 -58t59.5 -87t34.5 -107t10.5 -119.5q0 -80 -17.5 -149.5t-53.5 -126t-97.5 -89t-142.5 -32.5t-142.5 32.5t-97 89t-52.5 125.5t-17 150zM186 931q0 -142 52.5 -223.5t143.5 -81.5t144 81.5 t53 223.5q0 141 -50 221.5t-147 80.5q-92 0 -144 -80.5t-52 -221.5zM391 13l721 1287q11 26 33 26h80q16 0 18.5 -6t-9.5 -28l-715 -1286q-9 -17 -18.5 -21.5t-27.5 -4.5h-63q-19 0 -24 5t5 28zM907 378q0 80 17 148.5t52 124.5t96 88t142 32t142.5 -32t98 -88t54.5 -124.5 t18 -148.5t-18 -149.5t-54.5 -126t-98 -89t-142.5 -32.5t-142 32.5t-96 89t-52 125.5t-17 150zM1020 378q0 -142 52 -223.5t142 -81.5q92 0 144.5 81t52.5 224q0 141 -50 221.5t-147 80.5q-92 0 -143 -80t-51 -222z" />
<glyph unicode="&#x26;" horiz-adv-x="1115" d="M112 341q0 85 19.5 151.5t51.5 104.5t63.5 58.5t64.5 27.5q-44 12 -76 44t-49.5 75.5t-25 89t-7.5 95.5q0 335 294 335q92 0 188 -41q14 -5 17 -14.5t3 -33.5v-248q0 -16 -2.5 -19t-12.5 -3h-48q-8 0 -9.5 2.5t-3.5 15.5l-20 216q-15 10 -46 17t-57 7q-97 0 -145 -51.5 t-48 -192.5q0 -245 212 -245h236l43 219q3 28 22 28h25q18 0 18 -28v-219h173q19 0 19 -25v-52q0 -14 -3.5 -18t-15.5 -4h-173v-339q0 -127 20.5 -174t67.5 -47q67 0 67 89q0 13 3.5 18.5t14.5 5.5h25q12 0 16 -7t4 -24q0 -79 -41 -126.5t-113 -47.5q-90 0 -136 82 q-47 -31 -127 -56.5t-181 -25.5q-76 0 -131.5 15.5t-101.5 53.5t-70 111t-24 180zM231 352q0 -146 54.5 -207t174.5 -61q127 0 257 72q-10 65 -10 134v343h-232q-111 0 -177.5 -70.5t-66.5 -210.5z" />
<glyph unicode="'" horiz-adv-x="350" d="M119 875v415q0 13 9 13h94q9 0 9 -13v-417q0 -13 -11 -13h-88q-13 0 -13 15z" />
<glyph unicode="(" horiz-adv-x="469" d="M82 557q0 208 69 421t193 370q2 2 6.5 7.5t6 5.5t6.5 -2l45 -35q8 -6 -8 -30q-97 -133 -145 -341.5t-48 -405.5t49 -404.5t146 -358.5q12 -14 6 -20l-39 -38q-2 -1 -3.5 -1.5t-3.5 1.5t-3 3.5t-2.5 4t-2.5 3.5q-131 163 -201.5 383.5t-70.5 436.5z" />
<glyph unicode=")" horiz-adv-x="467" d="M60 -236q-7 7 5 20q98 152 148 360t50 403q0 194 -49 403.5t-145 343.5q-18 23 -8 30l43 35q6 1 7.5 1.5t6 -5.5t5.5 -7q126 -157 195 -369.5t69 -421.5q0 -215 -71 -436t-201 -384q-1 -1 -2.5 -3.5t-3 -4l-3.5 -3.5t-3.5 -1.5t-3.5 1.5z" />
<glyph unicode="*" horiz-adv-x="657" d="M97 1069l22 87q3 8 13 6l166 -60l-32 188q-4 13 6 13h113q9 0 8 -12v-3l-34 -186l164 58q10 3 13 -6l28 -83q5 -12 -7 -12l-173 -18l117 -140q12 -15 4 -20l-82 -58q-7 -6 -13 7l-80 177l-81 -173q-5 -8 -6.5 -8.5t-7.5 3.5l-79 50q-5 3 2 13l114 149l-164 18 q-9 2 -11.5 3.5t0.5 6.5z" />
<glyph unicode="+" horiz-adv-x="910" d="M88 430v99h325v393h92v-393h318v-99h-318v-393h-92v393h-325z" />
<glyph unicode="," horiz-adv-x="338" d="M48 -195l75 331q5 20 10.5 26t22.5 6h64q20 0 23 -11t-5 -32l-97 -320q-3 -14 -8 -18.5t-16 -4.5h-54q-20 0 -15 23z" />
<glyph unicode="-" horiz-adv-x="742" d="M115 514v58q0 16 13 16h488q13 0 13 -18v-51q0 -22 -16 -22h-485q-13 0 -13 17z" />
<glyph unicode="." horiz-adv-x="361" d="M108 71q0 33 20.5 56.5t52.5 23.5q29 0 50.5 -24t21.5 -56q0 -39 -20.5 -60.5t-51.5 -21.5q-33 0 -53 21.5t-20 60.5z" />
<glyph unicode="/" horiz-adv-x="709" d="M48 -104l490 1471q7 16 19 16h93q15 0 9 -22l-490 -1467q-4 -13 -20 -13h-95q-16 0 -6 15z" />
<glyph unicode="0" horiz-adv-x="997" d="M99 652q0 146 25 267.5t73.5 212t125.5 140.5t176 50q130 0 222 -88t135 -237t43 -345q0 -197 -43.5 -346t-135 -237t-221.5 -88q-131 0 -222.5 88t-134.5 237t-43 346zM223 655q0 -269 73 -423t203 -154t203 154t73 423q0 267 -72.5 418.5t-203.5 151.5t-203.5 -151.5 t-72.5 -418.5z" />
<glyph unicode="1" horiz-adv-x="642" d="M89 22v32q0 10 0.5 14.5t4 8t10.5 3.5q125 3 154 14.5t29 63.5v978q0 30 -30 7l-142 -117q-24 -21 -24 11v54q0 21 21 37l191 159q23 16 56 16h25q16 0 16 -18v-1125q0 -20 1 -31t8.5 -21t16 -14t31.5 -7t46 -3.5l69 -1.5q16 -1 19 -6.5t3 -25.5v-24q0 -16 -3.5 -21 t-17.5 -5h-465q-14 0 -16.5 3.5t-2.5 18.5z" />
<glyph unicode="2" horiz-adv-x="906" d="M89 17v54q0 24 8 31q543 421 543 877q0 66 -14 113t-33 71.5t-50.5 38t-55 16.5t-57.5 3q-113 0 -207 -42l-18 -239q-3 -13 -5 -15.5t-12 -2.5h-52q-11 0 -13 3.5t-2 18.5v272q0 22 3.5 30t15.5 13q131 63 292 63q58 0 102.5 -7.5t88.5 -29t73 -57.5t46.5 -97t17.5 -144 q0 -257 -135.5 -482.5t-369.5 -400.5h425q21 0 24 36l9 175q0 16 4 22.5t17 6.5h44q11 0 15 -6.5t4 -24.5v-293q0 -14 -3 -17t-12 -3h-676q-17 0 -17 17z" />
<glyph unicode="3" horiz-adv-x="865" d="M89 54v47q0 26 19 26q3 -1 24.5 -7t44.5 -11t55.5 -11.5t72 -10t79.5 -3.5q266 0 266 300q0 147 -59 204.5t-168 57.5h-95q-17 0 -17 26v52q0 16 6 23l292 450h-363q-14 0 -18.5 -9.5t-7.5 -40.5l-6 -151q0 -14 -3.5 -19t-15.5 -5h-42q-14 0 -18.5 4t-4.5 18v287 q0 14 3.5 18t15.5 4h581q12 0 14.5 -5.5t2.5 -22.5v-44q0 -9 -0.5 -13.5t-2.5 -10t-3.5 -8t-7 -10.5t-9.5 -14l-286 -434h22q166 0 236.5 -81t70.5 -273q0 -110 -28.5 -190.5t-80 -126.5t-115.5 -67.5t-143 -21.5q-180 0 -292 43q-12 5 -15.5 10t-3.5 20z" />
<glyph unicode="4" horiz-adv-x="943" d="M56 348l164 935q4 17 9 19q4 1 13 1h73q12 0 15 -4t1 -16l-145 -853h350v834q0 11 3.5 15t13.5 4h78q15 0 15 -19v-834h194q11 0 14.5 -4t3.5 -18v-67q0 -11 -3 -13t-13 -2h-196v-164q0 -21 0.5 -31t6.5 -21t12.5 -14.5t26 -7t39.5 -4.5t60 -2q16 0 19.5 -4.5t3.5 -19.5 v-38q0 -13 -3 -16.5t-16 -3.5h-447q-12 0 -15 3.5t-3 15.5v41v7t0.5 5t2 5t4.5 2t7 1q52 2 79 3.5t52.5 5.5t34.5 7.5t17 13.5t8.5 19.5t0.5 28.5v168h-463q-12 0 -14.5 4t-2.5 18z" />
<glyph unicode="5" horiz-adv-x="858" d="M84 67v47q0 33 20 26q1 0 22 -8t45 -16t56.5 -16.5t71 -14t75.5 -5.5q43 0 78.5 7.5t71 29t59.5 56.5t39 94t15 137q0 79 -16 135t-43.5 90t-73.5 53.5t-95 26t-119 6.5h-135q-18 0 -15 26l55 534q3 20 5.5 24t11.5 4h494q13 0 16.5 -3.5t3.5 -18.5v-270q0 -23 -4 -28.5 t-18 -5.5h-43q-13 0 -17 6.5t-4 23.5l-5 140q-2 30 -6.5 40t-19.5 10h-317l-43 -383h54q91 0 158 -10t125.5 -37t94.5 -72.5t56.5 -118.5t20.5 -174q0 -89 -16 -159.5t-45.5 -115t-64 -75t-79 -45t-82 -20.5t-80.5 -6q-167 0 -287 56q-20 8 -20 30z" />
<glyph unicode="6" horiz-adv-x="910" d="M99 512q0 134 23.5 253.5t73.5 222t122.5 176.5t175.5 116t228 42h17q12 0 16.5 -4.5t4.5 -16.5v-54q0 -15 -4.5 -19.5t-18.5 -4.5h-15q-111 0 -200 -43.5t-149.5 -122t-97.5 -183.5t-50 -234q48 80 118.5 124t155.5 44q69 0 124.5 -21t93 -57.5t62.5 -88t36.5 -110.5 t11.5 -127q0 -199 -94 -311t-266 -112q-185 0 -276.5 135.5t-91.5 395.5zM220 484q3 -406 247 -406q112 0 176 83t64 241q0 143 -56 227t-173 84q-182 0 -258 -229z" />
<glyph unicode="7" horiz-adv-x="783" d="M84 996v287q0 14 3 17t14 3h629q12 0 14.5 -5.5t2.5 -22.5v-54q0 -12 -12 -46l-458 -1153q-5 -14 -12 -18t-23 -4h-80q-22 0 -13 20l473 1175h-441l-15 -197q0 -17 -4 -23.5t-17 -6.5h-43q-10 0 -14 5.5t-4 22.5z" />
<glyph unicode="8" horiz-adv-x="919" d="M91 380q0 121 57 221.5t172 139.5q-76 34 -113.5 107t-37.5 165q0 129 74.5 218t216.5 89q73 0 129.5 -25.5t90.5 -69t51 -97.5t17 -115q0 -92 -36 -164t-112 -106q60 -20 104.5 -57t70.5 -86t38 -103t12 -115q0 -78 -20 -146.5t-61 -127t-114.5 -93t-171.5 -34.5 q-80 0 -144 23t-105 61t-68 90.5t-38.5 108t-11.5 116.5zM209 378q0 -61 14 -113t42.5 -95t78 -67.5t114.5 -24.5q125 0 188 86.5t63 215.5t-63 217t-186 88q-127 0 -189 -87.5t-62 -219.5zM276 1005q0 -97 44.5 -157t139.5 -60q92 0 138 60.5t46 156.5q0 95 -46.5 160.5 t-137.5 65.5q-93 0 -138.5 -65.5t-45.5 -160.5z" />
<glyph unicode="9" horiz-adv-x="895" d="M80 905q0 192 94.5 304.5t261.5 112.5q94 0 164.5 -38t113 -109.5t63 -166.5t20.5 -215q0 -140 -22.5 -261.5t-70.5 -223t-118 -174t-169.5 -113t-219.5 -40.5h-16q-21 0 -21 23v50q0 26 21 26h16q203 0 323 149t148 413q-97 -147 -264 -147q-88 0 -153 35t-101 95.5 t-53 130t-17 149.5zM199 897q0 -139 57.5 -223t169.5 -84q93 0 154.5 53.5t97.5 164.5v2q0 199 -61 308t-185 109q-107 0 -170 -84.5t-63 -245.5z" />
<glyph unicode=":" horiz-adv-x="368" d="M110 63q0 33 20 56.5t52 23.5q29 0 51 -24t22 -56q0 -39 -21 -60.5t-52 -21.5q-33 0 -52.5 21t-19.5 61zM110 728q0 33 20 56.5t52 23.5q29 0 51 -24t22 -56q0 -39 -21 -60.5t-52 -21.5q-33 0 -52.5 21t-19.5 61z" />
<glyph unicode=";" horiz-adv-x="446" d="M88 -195l74 331q5 20 10.5 26t22.5 6h64q20 0 23 -11t-5 -32l-96 -320q-3 -14 -8.5 -18.5t-16.5 -4.5h-54q-19 0 -14 23zM164 804q0 33 20 56.5t52 23.5q29 0 51 -24t22 -56q0 -39 -21 -60.5t-52 -21.5q-33 0 -52.5 21t-19.5 61z" />
<glyph unicode="&#x3c;" horiz-adv-x="824" d="M74 424v105l648 393v-108l-506 -337l506 -336v-111z" />
<glyph unicode="=" horiz-adv-x="878" d="M121 263v98h637v-98h-637zM123 518v98h635v-98h-635z" />
<glyph unicode="&#x3e;" horiz-adv-x="824" d="M102 30v110l507 337l-507 340v105l648 -393v-105z" />
<glyph unicode="?" horiz-adv-x="714" d="M80 966v265q0 20 4 27.5t17 16.5q35 19 105.5 33t154.5 14q50 0 90 -8t78 -29.5t63 -56.5t40.5 -92t15.5 -134q0 -89 -15 -150.5t-39.5 -93.5t-54 -54.5t-59 -44t-54 -52t-39.5 -89t-15 -144.5v-147q0 -18 -13 -18l-83 -2q-13 0 -13 18v147q0 102 15 173t39 107 t53.5 60.5t58.5 44.5t53 46t39 77.5t15 128.5q0 214 -179 214q-59 0 -93 -6.5t-83 -24.5l-13 -231q0 -13 -3 -16t-16 -3h-50h-8.5t-5.5 2t-4.5 7t-0.5 15zM246 71q0 33 20.5 56.5t50.5 23.5q28 0 50 -24t22 -56q0 -39 -21 -60.5t-51 -21.5q-32 0 -51.5 21.5t-19.5 60.5z" />
<glyph unicode="@" horiz-adv-x="1254" d="M97 579q0 169 50.5 307.5t134 224t186 131.5t212.5 46q221 0 358 -155t137 -396q0 -135 -29.5 -239t-94 -168t-157.5 -64q-54 0 -90.5 26t-49.5 71q-29 -39 -80.5 -69t-105.5 -30q-94 0 -155 78.5t-61 216.5q0 78 21 152t61 137t105.5 101t147.5 38q58 0 102 -21 t69 -57.5t37 -80.5t12 -94q0 -59 -22.5 -151t-42.5 -144q-12 -37 5.5 -61t53.5 -24q53 0 94 53t62 137.5t21 183.5q0 210 -113.5 341.5t-288.5 131.5q-67 0 -134.5 -23.5t-130.5 -74.5t-111 -122.5t-77 -175t-29 -224.5q0 -270 131 -422t342 -152q98 0 177 24.5t161 78.5 q13 7 19 -2l22 -54q6 -12 -11 -23q-1 -1 -2 -1q-150 -110 -366 -110q-121 0 -224.5 43t-180.5 124.5t-121 208t-44 283.5zM447 557q0 -98 34 -151.5t100 -53.5q57 0 104.5 47.5t73 113.5t39.5 124t14 91q0 173 -138 173q-100 0 -163.5 -104t-63.5 -240z" />
<glyph unicode="A" horiz-adv-x="1113" d="M35 22v32q0 12 2.5 18t5 7t7.5 1q85 3 105 15.5t20 62.5v90q0 241 22.5 435t67.5 338t117.5 222.5t168.5 78.5q126 0 214 -134.5t130.5 -373.5t42.5 -566v-105q1 -42 20 -50.5t96 -10.5q11 0 15.5 -3.5t5.5 -9t1 -19.5v-24q0 -16 -3 -21t-17 -5h-360q-14 0 -16 2.5 t-2 19.5v32q0 11 0.5 15.5t4 7.5t10.5 3q78 3 100.5 13.5t25.5 46.5v108q0 98 -2 145h-538q-2 -47 -2 -145v-77q0 -63 16 -75t98 -14q11 0 15.5 -3.5t5.5 -9t1 -19.5v-24v-13t-1.5 -7t-5.5 -5t-11 -1h-341q-14 0 -16.5 3t-2.5 19zM283 493h529q-18 339 -87 533.5t-178 194.5 t-177.5 -194t-86.5 -534z" />
<glyph unicode="B" horiz-adv-x="1001" d="M82 22v32q0 11 0.5 15.5t4 7.5t10.5 3q81 3 103 13t23 47v1018q0 43 -19 52.5t-105 12.5q-11 0 -14 4t-3 17v39q0 14 3.5 17t15.5 3h383q158 0 242 -78.5t84 -239.5q0 -215 -123 -281q118 -19 172.5 -103t54.5 -238q0 -179 -100 -271t-322 -92h-391q-12 0 -15.5 4 t-3.5 18zM339 95h171q86 0 143.5 18t88.5 55t43 83t12 112q0 60 -10 105.5t-35.5 84.5t-73.5 59.5t-119 20.5h-220v-538zM339 730h195q78 0 120 72t42 175q0 104 -47 167.5t-148 63.5h-162v-478z" />
<glyph unicode="C" horiz-adv-x="1010" d="M97 640q0 338 130.5 510t372.5 172q178 0 286 -39q18 -5 22 -13t4 -34v-294q0 -16 -3 -19t-15 -3h-58q-12 0 -15.5 3t-3.5 15l-20 259q-73 26 -196 26q-179 0 -282 -147.5t-103 -438.5q0 -288 101 -418t294 -130q113 0 303 43q12 3 17 -0.5t5 -17.5v-43q0 -21 -5.5 -28.5 t-23.5 -12.5q-168 -43 -311 -43q-252 0 -375.5 155t-123.5 498z" />
<glyph unicode="D" horiz-adv-x="1137" d="M82 22v32q0 11 0.5 15.5t4 7.5t10.5 3q81 3 103 13t23 47v1018q0 43 -19 52.5t-105 12.5q-11 0 -14 4t-3 17v39q0 14 3.5 17t15.5 3h364q298 0 436 -168.5t138 -484.5q0 -327 -136.5 -488.5t-424.5 -161.5h-377q-12 0 -15.5 4t-3.5 18zM343 97h128q227 0 337 135t110 414 q0 562 -449 562h-126v-1111z" />
<glyph unicode="E" horiz-adv-x="886" d="M93 337q0 73 15 131t37 93.5t55 61.5t62.5 38.5t65.5 21.5q-187 47 -187 315q0 93 25.5 158t73 100t105.5 50.5t133 15.5q155 0 269 -43l10 -5t7 -5t4.5 -4t2 -5.5t0.5 -6v-9.5v-11v-248q0 -16 -2.5 -19t-14.5 -3h-48q-9 0 -12.5 3t-4.5 15l-19 216q-65 24 -186 24 q-53 0 -92.5 -10t-73 -34.5t-50.5 -70.5t-17 -114q0 -138 67 -198t190 -60h105q10 0 14 -5.5t4 -21.5v-44q0 -28 -18 -28h-105q-292 0 -292 -289q0 -138 69.5 -200t213.5 -62q66 0 137 10.5t121 22t51 11.5q9 3 11 0t2 -16v-65q0 -11 -4.5 -15.5t-17.5 -9.5 q-129 -41 -326 -41q-85 0 -149 15.5t-118.5 53t-83.5 110t-29 177.5z" />
<glyph unicode="F" horiz-adv-x="871" d="M84 22v32q0 10 0.5 14.5t4 8t10.5 3.5q83 3 103 13.5t21 57.5v1011q-2 36 -24 47t-100 14q-7 0 -10.5 3.5t-4 8t-0.5 14.5v32q0 14 3.5 18t14.5 4h687q9 0 12 -1t5 -5t2 -14v-306q0 -22 -19 -22h-44q-23 0 -23 22l-9 203q-1 22 -6.5 28t-19.5 6l-348 -2v-499h279 q12 0 17 -4t5 -18v-49q0 -19 -4 -25t-18 -6h-279v-458q1 -49 26.5 -59t135.5 -12q11 0 15.5 -3.5t5.5 -9t1 -19.5v-24v-13t-1.5 -7t-5.5 -5t-11 -1h-403q-7 0 -10.5 0.5t-5.5 4t-2 6v11.5z" />
<glyph unicode="G" horiz-adv-x="1109" d="M97 635q0 336 135.5 511.5t385.5 175.5q193 0 339 -71q19 -11 23.5 -22.5t4.5 -42.5v-264q0 -12 -4.5 -16.5t-14.5 -4.5h-54q-9 0 -12 2.5t-4 14.5l-21 249q-98 56 -251 56q-195 0 -298.5 -150t-103.5 -440q0 -277 102.5 -415t314.5 -138q138 0 234 43v378h-210 q-23 0 -23 28v44q0 28 23 28h300q22 0 22 -28v-476q0 -14 -1.5 -22t-8.5 -17t-20 -15q-134 -62 -324 -62q-534 0 -534 654z" />
<glyph unicode="H" horiz-adv-x="1141" d="M80 22v32q0 10 0.5 14.5t4 8t10.5 3.5q85 3 105.5 13.5t21.5 57.5v975q0 26 -0.5 38t-5 25.5t-9.5 17t-20 8t-31 5l-48 1.5q-11 0 -15.5 3.5t-5.5 9t-1 19.5v24q0 16 3 21t15 5h356q12 0 14.5 -3.5t2.5 -18.5v-32q0 -10 -0.5 -14.5t-4 -8t-10.5 -3.5q-86 -3 -106 -14.5 t-21 -63.5v-536h460v517v38.5t-4.5 25t-9.5 17t-20.5 8t-32 5t-48.5 1.5q-16 0 -19.5 6t-3.5 26v24q0 16 3.5 21t15.5 5h355q14 0 16.5 -3.5t2.5 -18.5v-32q0 -10 -0.5 -14.5t-4 -8t-10.5 -3.5q-90 -3 -108 -16.5t-18 -78.5v-942q0 -102 57 -102q24 0 42 16.5t18 52.5v7 q0 13 11 13h47q11 0 11 -13v-7q0 -78 -38.5 -119t-110.5 -41q-151 0 -151 201v320h-460v-337q0 -26 0.5 -38t5 -25.5t9.5 -17t20.5 -8t32 -5t48.5 -1.5q11 0 15.5 -3.5t5.5 -9t1 -19.5v-24q0 -16 -3.5 -21t-17.5 -5h-353q-14 0 -16.5 3.5t-2.5 18.5z" />
<glyph unicode="I" horiz-adv-x="560" d="M82 22v32q0 10 0.5 14.5t4 8t10.5 3.5q91 3 108.5 16t17.5 79v970q-1 53 -18 63.5t-95 12.5q-11 0 -15.5 3.5t-5.5 9t-1 19.5v24q0 16 3 21t15 5h356q12 0 14 -3.5t2 -18.5v-32q0 -11 -0.5 -15t-3.5 -7.5t-10 -3.5q-86 -3 -106 -14.5t-21 -63.5v-998q1 -45 19 -54t96 -11 q16 0 19.5 -6t3.5 -26v-24q0 -16 -3.5 -21t-17.5 -5h-353q-14 0 -16.5 3.5t-2.5 18.5z" />
<glyph unicode="J" horiz-adv-x="543" d="M35 -261q-9 27 17 41l54 30q49 26 70.5 48.5t32.5 65.5t11 123v1083q0 64 -16.5 76.5t-101.5 14.5q-11 0 -15.5 3.5t-5.5 9t-1 19.5v24q0 16 3.5 21t17.5 5h353q14 0 16.5 -3.5t2.5 -18.5v-32q0 -10 -0.5 -14.5t-4 -8t-10.5 -3.5q-86 -3 -105.5 -14.5t-19.5 -65.5v-1141 q0 -58 -6 -94.5t-25.5 -70.5t-55.5 -59.5t-97 -51.5l-73 -31q-13 -5 -18 -2t-10 17z" />
<glyph unicode="K" horiz-adv-x="1068" d="M80 22v32q0 10 0.5 14.5t4 8t10.5 3.5q91 3 109 16t18 79v951q0 26 -0.5 38t-5 25.5t-9.5 17t-20 8t-31 5l-48 1.5q-11 0 -15.5 3.5t-5.5 9t-1 19.5v24q0 16 3 21t15 5h356q12 0 14.5 -3.5t2.5 -18.5v-32q0 -10 -0.5 -14.5t-4 -8t-10.5 -3.5q-86 -3 -106 -14.5t-21 -63.5 v-473l341 445h-4l26 39q30 38 30 49q0 12 -38 14q-8 1 -30 1l-18 1q-19 1 -22.5 6t-3.5 26v24q0 17 3.5 21.5t20.5 4.5h334q14 0 17 -3.5t3 -18.5v-32q0 -17 -2.5 -21.5t-14.5 -4.5q-76 -3 -100 -15l-419 -545l337 -479q43 -62 75 -86.5t68 -24.5q30 0 69 16q13 5 18.5 2 t5.5 -17v-40q0 -17 -4.5 -23t-22.5 -13q-43 -17 -95 -17q-69 0 -110.5 28.5t-102.5 120.5l-361 522v-475q0 -26 0.5 -38t5 -25.5t9.5 -17t20.5 -8t32 -5t48.5 -1.5q11 0 15.5 -3.5t5.5 -9t1 -19.5v-24q0 -16 -3.5 -21t-17.5 -5h-353q-14 0 -16.5 3.5t-2.5 18.5z" />
<glyph unicode="L" horiz-adv-x="901" d="M80 22v32q0 11 0.5 15.5t4 7.5t10.5 3q83 3 104.5 11.5t22.5 46.5v1018q-1 44 -20 53.5t-94 11.5q-11 0 -15.5 3.5t-5.5 9t-1 19.5v24q0 16 3 21t15 5h356q12 0 14.5 -3.5t2.5 -18.5v-32q0 -10 -0.5 -14.5t-4 -8t-10.5 -3.5q-90 -3 -108.5 -16.5t-18.5 -78.5v-1026 l393 -1q14 0 18.5 7t7.5 28l9 177q0 19 5 24.5t20 5.5h37q14 0 16 -5t2 -31v-287q0 -14 -3.5 -17t-14.5 -3h-726q-12 0 -15.5 4t-3.5 18z" />
<glyph unicode="M" horiz-adv-x="1450" d="M89 1249v32q0 14 3.5 18t15.5 4h225q15 0 25 -3.5t15 -6t9.5 -15t5.5 -18l5 -27.5q31 -151 154 -552t188 -560h2q74 202 164 533.5t140 578.5q2 9 4 21.5t3.5 18t5 13t8.5 10.5t14 5t22 2h235q15 0 18.5 -4t3.5 -18v-32q0 -16 -3 -21t-15 -5q-83 -3 -100.5 -14t-17.5 -64 v-959q0 -102 58 -102q24 0 42 16.5t18 52.5v7q0 13 13 13h45q11 0 11 -13v-7q0 -77 -38.5 -118.5t-108.5 -41.5q-153 0 -153 201v899q-44 -234 -150.5 -596.5t-160.5 -476.5q-9 -20 -37 -20h-62q-14 0 -19.5 3t-11.5 17q-64 138 -171.5 459t-171.5 573v-884q0 -60 15 -72 t87 -14q20 0 24 -6t4 -26v-24q0 -16 -4 -21t-20 -5h-314q-16 0 -19.5 3.5t-3.5 18.5v32q0 16 4.5 21t19.5 5q76 3 91.5 16t15.5 73v976q0 53 -16.5 64t-99.5 14q-12 0 -14.5 5.5t-2.5 20.5z" />
<glyph unicode="N" horiz-adv-x="1185" d="M82 1249v32q0 14 3.5 18t15.5 4h197q32 0 46 -33l529 -1117v992q0 26 -3 38.5t-16.5 22t-37 12.5t-68.5 5q-7 0 -10 3.5t-3.5 7.5t-0.5 15v32q0 15 2.5 18.5t13.5 3.5h343q12 0 15.5 -5t3.5 -21v-24q0 -20 -3.5 -26t-19.5 -6q-78 -2 -95.5 -13.5t-17.5 -64.5v-1100 q0 -43 -25 -43h-67q-34 0 -46 24l-514 1074v-927q0 -34 1.5 -48t14.5 -25t33 -13t66 -3q16 0 19.5 -6t3.5 -26v-24q0 -16 -3.5 -21t-15.5 -5h-341q-12 0 -14 3.5t-2 18.5v32q0 15 3.5 20.5t14.5 5.5q47 2 67.5 4t34 12.5t15.5 24.5t2 48v989q0 41 -21 51.5t-105 13.5 q-7 0 -10.5 3.5t-4 8t-0.5 14.5z" />
<glyph unicode="O" d="M93 652q0 196 54 345t168 237t277 88t277 -88t168 -237t54 -345q0 -197 -54 -346t-168 -237t-277 -88t-277 88t-168 237t-54 346zM216 655q0 -266 100 -418.5t276 -152.5t276 152.5t100 418.5q0 264 -100 414t-276 150q-177 0 -276.5 -150t-99.5 -414z" />
<glyph unicode="P" horiz-adv-x="891" d="M82 1249v32q0 14 3.5 18t15.5 4h335q92 0 161 -21.5t110.5 -57t66.5 -88.5t34 -107t9 -122q0 -201 -92 -314t-274 -113q-60 0 -112 12v-345q1 -45 19 -54t96 -11q16 0 19.5 -6t3.5 -26v-24q0 -16 -3.5 -21t-17.5 -5h-354q-7 0 -10.5 0.5t-5.5 4t-2 6v11.5v32 q0 10 0.5 14.5t4 8t10.5 3.5q83 3 103 13.5t21 57.5v994q0 49 -19.5 62t-106.5 16q-7 0 -10.5 3.5t-4 8t-0.5 14.5zM339 590q19 -13 106 -13q123 0 188 86.5t65 239.5q0 64 -11 116t-36 97t-72.5 70.5t-113.5 25.5h-126v-622z" />
<glyph unicode="Q" d="M93 652q0 196 54 345t168 237t277 88t277 -88t168 -237t54 -345q0 -227 -73.5 -391.5t-215.5 -234.5l23 -61q25 -82 61.5 -116.5t96.5 -34.5q37 0 60 7q7 3 11 0.5t4 -15.5v-44q0 -36 -112 -36q-167 0 -235 227l-13 40q-58 -12 -106 -12q-163 0 -277 88t-168 237t-54 346 zM216 655q0 -195 54.5 -331.5t155.5 -196.5q-3 19 -3 42q0 60 34 102t98 42q77 0 125 -40.5t85 -140.5q97 64 150 198.5t53 324.5q0 264 -100 414t-276 150q-177 0 -276.5 -150t-99.5 -414zM492 164q0 -56 46 -76q17 -4 54 -4q48 0 76 7l-1 11q-13 46 -27 74t-30 40.5 t-28.5 15.5t-32.5 3q-26 0 -41.5 -20t-15.5 -51z" />
<glyph unicode="R" horiz-adv-x="973" d="M82 22v32q0 10 0.5 14.5t4 8t10.5 3.5q83 3 104 13.5t22 57.5v994q0 49 -20 62t-106 16q-7 0 -10.5 3.5t-4 8t-0.5 14.5v32q0 14 3.5 18t15.5 4h366q365 0 365 -424q0 -146 -54 -247t-165 -140l113 -298q27 -70 48.5 -95t59.5 -25q9 0 18.5 2.5t14.5 4.5t14 6.5l11 5.5 q19 10 26 -13l4 -33q4 -21 0 -28.5t-23 -16.5q-57 -21 -102 -21q-40 0 -68.5 12t-49 40.5t-31 50t-27.5 67.5q-2 4 -3 7l-2 6l-117 305h-30q-76 0 -132 13v-335q1 -45 19 -54t96 -11q16 0 19.5 -6t3.5 -26v-24q0 -16 -3.5 -21t-17.5 -5h-353q-14 0 -16.5 3.5t-2.5 18.5z M337 586q67 -18 130 -18q123 0 185.5 80.5t62.5 230.5q0 162 -65.5 245.5t-178.5 83.5h-134v-622z" />
<glyph unicode="S" horiz-adv-x="893" d="M99 80v259q0 14 4.5 19t19.5 5h46q21 0 21 -22l13 -226q93 -31 227 -31q33 0 63.5 4.5t69 21t66 43.5t46.5 76.5t19 116.5q0 86 -31.5 144.5t-81.5 89t-110 52.5t-120.5 46t-110.5 58t-81.5 99.5t-31.5 160.5q0 97 26 163.5t74 100.5t103 48t126 14q86 0 161 -14.5 t111 -32.5q15 -8 18.5 -15.5t3.5 -28.5v-265q0 -10 -0.5 -15t-4.5 -7t-5.5 -2h-9.5h-50q-13 0 -16 3t-3 16l-15 231q-51 19 -87 25t-103 6q-41 0 -76 -8.5t-70 -30t-55 -66.5t-20 -109q0 -75 31.5 -125t81.5 -75.5t110 -45t120.5 -45t110.5 -64t81.5 -113.5t31.5 -182 q0 -378 -368 -378q-80 0 -180 16t-133 33q-14 6 -18 17t-4 33z" />
<glyph unicode="T" horiz-adv-x="919" d="M69 968v315q0 14 3.5 17t15.5 3h744q9 0 12 -1t5 -5t2 -14v-315q0 -9 -3.5 -13.5t-15.5 -4.5h-43q-14 0 -17 4t-3 14l-11 211q-3 16 -7.5 21.5t-16.5 5.5h-218v-1001h2v-28v-38.5t4.5 -25t9.5 -17t20.5 -8t32 -5t48.5 -1.5q11 0 15.5 -3.5t5.5 -9t1 -19.5v-24 q0 -16 -3 -21t-15 -5h-358q-12 0 -15 3.5t-3 18.5v32q0 10 0.5 14.5t4 8t10.5 3.5q92 3 110 16.5t18 78.5v1031h-218q-13 0 -17.5 -6t-6.5 -21l-11 -211q-1 -6 -1.5 -7.5t-2.5 -5t-5.5 -4.5t-9.5 -1h-46q-12 0 -14.5 4t-2.5 14z" />
<glyph unicode="U" horiz-adv-x="1163" d="M63 1253v24q0 16 3.5 21t15.5 5h363q13 0 16 -4t3 -18v-32q0 -17 -2 -21.5t-13 -4.5q-82 -3 -105 -14t-24 -51v-706q0 -179 71 -273.5t205 -94.5q130 0 199 95t69 273v680q0 63 -16.5 75t-99.5 14q-11 0 -15.5 3.5t-5.5 9t-1 19.5v24q0 16 3.5 21t17.5 5h337 q7 0 10.5 -0.5t5.5 -4t2 -6v-11.5v-32q0 -13 -3 -19t-5 -6.5t-7 -0.5q-86 -3 -106 -15.5t-20 -62.5v-693q0 -214 -95 -342.5t-280 -128.5q-189 0 -287 123t-98 348v680q0 63 -16 75t-99 14q-16 0 -19.5 6t-3.5 26z" />
<glyph unicode="V" horiz-adv-x="1081" d="M32 1242v43q0 11 3 14.5t13 3.5h336q9 0 11.5 -3.5t2.5 -14.5v-41q0 -23 -16 -23q-52 -1 -73.5 -4t-27 -8t-5.5 -17q0 -165 23 -319.5t69 -296.5t82.5 -232.5t95.5 -218.5q59 126 96.5 218t83 233t68.5 295.5t23 320.5q0 12 -5.5 17t-27 8t-73.5 4q-17 0 -17 23v41 q0 10 3 14t12 4h324q15 0 15 -18v-43q0 -12 -2 -15.5t-13 -3.5q-80 -3 -97.5 -8t-17.5 -23q0 -110 -12 -220t-27.5 -195t-47 -186t-52.5 -161t-64 -155.5t-61.5 -133.5t-63.5 -128q-8 -20 -31 -20h-38q-23 0 -31 20q-45 90 -63.5 128t-61.5 133.5t-64 155.5t-52.5 161 t-47 186t-27.5 195t-12 220q0 16 -19.5 22t-95.5 9q-11 0 -13 3.5t-2 15.5z" />
<glyph unicode="W" horiz-adv-x="1571" d="M35 1240v43q0 13 2.5 16.5t10.5 3.5h356q11 0 11 -20v-39q0 -9 -0.5 -13t-4 -7t-10.5 -3q-78 -1 -94.5 -6t-16.5 -25q2 -167 21.5 -323t55.5 -294.5t68 -236t78 -217.5q218 576 225 1071q0 20 -20.5 24.5t-90.5 6.5q-15 0 -15 19v43q0 12 3.5 16t12.5 4h334q6 0 9 -1 t4.5 -5.5t1.5 -13.5v-41q0 -9 -0.5 -12t-3.5 -5.5t-9 -3.5q-74 -1 -96.5 -7.5t-24.5 -23.5v-4h1q8 -544 233 -1069q45 118 78 219t68.5 239.5t55.5 294.5t22 320q0 21 -15.5 25t-96.5 6q-15 0 -15 21v39q0 14 2 18t9 4h333q7 0 10.5 -1t6 -5.5t2.5 -13.5v-41q0 -11 -3.5 -15 t-13.5 -6q-83 -1 -102 -6t-19 -25q-1 -76 -7 -153.5t-12.5 -139.5t-22.5 -139.5t-24.5 -122.5t-32.5 -123.5t-32 -108.5t-37 -110t-34.5 -95t-37 -97.5t-32.5 -85.5q-7 -22 -28 -22h-65q-20 0 -28 22q-7 18 -37.5 97t-43 112t-38.5 108.5t-41 128t-33.5 126.5t-31.5 145 q-9 -47 -20 -93.5t-24 -95.5t-23 -85t-27 -88.5t-24.5 -77.5t-27 -79.5t-24 -68t-25 -70t-21.5 -59.5q-8 -22 -28 -22h-69q-20 0 -29 22q-6 15 -37 95t-41 107.5t-38 106.5t-40 123t-34 123t-32 142t-23 144t-18.5 164t-6.5 170q0 11 -3 16t-17 8.5t-35 4.5t-65 2 q-9 1 -11 4t-2 15z" />
<glyph unicode="X" horiz-adv-x="1044" d="M32 22v32v5q0 9 0.5 12.5t4 6t10.5 2.5q72 3 95 16t48 62l266 507l-249 512q-11 21 -19.5 28.5t-31 12t-72.5 5.5q-7 0 -10.5 3.5t-4 8t-0.5 14.5v32q0 14 3 18t14 4h342q14 0 17.5 -5t3.5 -21v-24q0 -19 -3.5 -25t-19.5 -7q-72 0 -85.5 -13t7.5 -52l175 -363l179 339 q26 55 26 65q0 14 -17.5 18t-68.5 6q-16 1 -19 7t-3 25v24q0 16 3 21t17 5h321q7 0 10.5 -0.5t5.5 -4t2 -6v-11.5v-37q0 -14 -2 -17.5t-13 -3.5q-63 -3 -93 -19t-50 -55l-244 -464l250 -514q21 -41 40.5 -63.5t31 -27t26.5 -4.5q14 0 37.5 6t29.5 6q13 4 15 -14l4 -40 q2 -18 -2 -24.5t-20 -13.5q-43 -15 -92 -15q-68 0 -103.5 32.5t-71.5 105.5l-214 436l-201 -384q-24 -45 -24 -59q0 -16 21 -22t74 -8q16 -1 19 -6.5t3 -25.5v-24v-13t-1.5 -7t-5.5 -5t-11 -1h-334q-11 0 -13.5 3.5t-2.5 18.5z" />
<glyph unicode="Y" horiz-adv-x="1018" d="M32 1242v43q0 11 3 14.5t12 3.5h337q9 0 11.5 -3.5t2.5 -14.5v-41q0 -23 -16 -23q-61 0 -83.5 -5.5t-22.5 -20.5q0 -92 19.5 -178t57.5 -163.5t73 -133.5t86 -126q42 55 72 98.5t65.5 106t57 119.5t36.5 130t15 147q0 15 -22.5 20.5t-83.5 5.5q-17 0 -17 23v41 q0 18 13 18h324q17 0 17 -18v-43q0 -12 -2.5 -15.5t-12.5 -3.5q-67 -3 -91 -9t-25 -22q-3 -105 -29 -204.5t-72 -188.5t-88.5 -154.5t-102.5 -143.5v-296h2v-28v-38.5t4.5 -25t9.5 -17t20.5 -8t32 -5t48.5 -1.5q16 0 19.5 -6t3.5 -26v-24q0 -16 -3.5 -21t-17.5 -5h-355 q-13 0 -16 4t-3 18v32q0 10 0.5 14.5t4 8t10.5 3.5q91 3 108.5 16t17.5 79v317q-60 79 -102.5 145t-88.5 156.5t-71.5 191.5t-27.5 207q0 15 -25 21.5t-90 9.5q-11 0 -13 3.5t-2 15.5z" />
<glyph unicode="Z" horiz-adv-x="871" d="M88 19v44q0 19 7 32l532 1117h-409q-14 0 -17.5 -9t-6.5 -41l-8 -190q0 -19 -20 -19h-43q-19 0 -19 21v309q0 14 3 17t12 3h626q7 0 10.5 -3.5t4 -8t0.5 -16.5v-42q0 -26 -10 -47l-521 -1095h436q19 0 22 36l9 195q1 11 2.5 15.5t5.5 6.5t13 2h44q17 0 17 -26v-298 q0 -14 -4 -18t-13 -4h-660q-13 0 -13 19z" />
<glyph unicode="[" horiz-adv-x="480" d="M149 -279v1603q0 9 0.5 12.5t2.5 5.5t6 2h240q10 0 10 -9v-76q0 -10 -10 -10h-135v-1444h134q7 0 9 -2t2 -10v-74q0 -9 -10 -9h-243q-6 0 -6 11z" />
<glyph unicode="\" horiz-adv-x="698" d="M48 1322h116l488 -1354h-118z" />
<glyph unicode="]" horiz-adv-x="478" d="M71 -203q0 8 11 8h136v1444h-134q-9 0 -11 1.5t-2 9.5v77q0 7 9 7h242q9 0 9 -9v-1605q0 -12 -1.5 -16t-9.5 -4h-240h-4t-2.5 1t-2 3t-0.5 5v78z" />
<glyph unicode="^" horiz-adv-x="1009" d="M89 804l417 505l416 -505l-77 -65l-339 438l-340 -438z" />
<glyph unicode="_" horiz-adv-x="897" d="M112 0h674v-101h-674v101z" />
<glyph unicode="`" horiz-adv-x="517" d="M123 1592q-17 26 7 26h82q14 0 20.5 -4.5t16.5 -19.5l144 -207q15 -26 -8 -26h-46q-18 0 -45 28z" />
<glyph unicode="a" horiz-adv-x="822" d="M73 195q0 43 8.5 77.5t20.5 57.5t34.5 41.5t41 29t50 19.5t51 12.5t54.5 8.5q39 6 61.5 11t53 18t46.5 30t28 47t12 71q0 42 -6 70t-24 53t-54.5 37.5t-93.5 12.5q-90 0 -138 -26l-11 -175q0 -9 -2 -13.5t-5.5 -5.5t-9.5 -1h-47q-12 0 -15 4.5t-3 15.5v198q0 25 4 36 t16 18q27 17 84 29.5t128 12.5q89 0 148 -21.5t90 -65.5t43 -98.5t12 -134.5v-329q0 -89 15 -120t44 -31q39 0 39 44q0 19 4 25.5t21 6.5h18q16 0 20 -6t4 -22q0 -139 -128 -139q-123 0 -143 147q-77 -147 -263 -147q-105 0 -156.5 48t-51.5 154zM188 195q0 -58 28 -82.5 t82 -24.5q102 0 172 86t70 187v88q-23 -49 -67.5 -68.5t-113.5 -30.5q-85 -16 -113 -32q-58 -35 -58 -123z" />
<glyph unicode="b" horiz-adv-x="899" d="M32 22v32q0 26 15 26q90 3 108 16.5t18 78.5v979q0 40 -6 48t-33 10l-76 2q-9 0 -11 5t-2 19v30q0 28 18 28q55 7 119 7h73q30 0 30 -35v-583q33 97 99 148t147 51q142 0 216 -124.5t74 -325.5q0 -131 -30.5 -228t-99.5 -156t-172 -59q-51 0 -97 15t-86 54t-55 98v-115 q0 -17 -1 -24.5t-7.5 -13t-19.5 -5.5h-203q-7 0 -10.5 0.5t-5.5 4t-2 6v11.5zM289 408q0 -149 51.5 -234.5t156.5 -85.5q207 0 207 344q0 104 -19 180.5t-65.5 125t-118.5 48.5q-104 0 -158 -102.5t-54 -275.5z" />
<glyph unicode="c" horiz-adv-x="744" d="M78 421q0 229 90.5 346t257.5 117q63 0 118.5 -12.5t84.5 -29.5q14 -7 18.5 -17t4.5 -34v-240q0 -19 -17 -19h-50q-15 0 -15 17l-13 212q-52 28 -121 28q-244 0 -244 -368q0 -100 18.5 -167.5t56 -104t84.5 -51t113 -14.5q77 0 182 35q12 4 17 -2.5t5 -23.5v-41 q0 -12 -4.5 -17t-17.5 -11q-80 -33 -203 -33q-87 0 -150.5 20.5t-113.5 68.5t-75.5 133t-25.5 208z" />
<glyph unicode="d" horiz-adv-x="912" d="M78 434q0 131 31.5 230.5t99.5 159.5t165 60q86 0 153 -42t93 -131v443q0 39 -6.5 47.5t-32.5 10.5l-76 2q-7 0 -10.5 3t-4 7t-0.5 14v30q0 16 4.5 22t15.5 6q52 7 119 7h71q32 0 32 -35v-1037q0 -89 14 -119t43 -30q38 0 38 43q0 14 1 19.5t6.5 9.5t18.5 4h16 q18 0 22.5 -5.5t4.5 -22.5q0 -77 -32.5 -108t-90.5 -31q-124 0 -144 149q-36 -82 -103 -116.5t-144 -34.5q-151 0 -227.5 122.5t-76.5 322.5zM192 432q0 -148 56 -247t162 -99q109 0 162.5 86t53.5 241q0 371 -222 371q-107 0 -159.5 -96t-52.5 -256z" />
<glyph unicode="e" horiz-adv-x="768" d="M80 428q0 456 333 456q133 0 201.5 -66.5t68.5 -191.5q0 -138 -75.5 -208t-201.5 -70q-110 0 -212 43q3 -91 22 -152.5t53 -94t74.5 -45.5t97.5 -13q65 0 115.5 15t111.5 44q11 5 16 1t5 -18v-42q0 -19 -3 -25t-18 -14q-105 -56 -244 -56q-176 0 -260 106t-84 331z M194 490q90 -43 184 -43q89 0 141.5 45t52.5 134q0 81 -43.5 121.5t-117.5 40.5q-103 0 -156 -74t-61 -224z" />
<glyph unicode="f" horiz-adv-x="547" d="M65 22v32q0 15 3 20.5t12 5.5q33 2 47 2.5t30.5 5.5t20.5 8.5t9 16.5t5 24.5v37.5v603h-108q-15 0 -15 17v52q0 19 15 19h108v128q0 173 59.5 250.5t172.5 77.5q88 0 142 -32q12 -7 16 -18t4 -36v-180q0 -13 -2.5 -16t-11.5 -3h-53q-13 0 -13 17l-13 156q-26 17 -69 17 q-63 0 -92 -58t-29 -192v-111h166q19 0 19 -21v-48q0 -19 -19 -19h-166v-625q1 -49 26 -59t129 -12q11 0 15.5 -3.5t5.5 -9t1 -19.5v-24v-13t-1.5 -7t-5.5 -5t-11 -1h-378q-14 0 -16.5 3.5t-2.5 18.5z" />
<glyph unicode="g" horiz-adv-x="908" d="M84 434q0 131 31.5 230.5t99.5 159.5t165 60q89 0 157 -44.5t92 -141.5v131q0 37 30 37h56q13 0 143 -10q12 0 15.5 -4.5t3.5 -19.5v-33q0 -15 -2.5 -19.5t-10.5 -4.5l-89 -2q-16 0 -26.5 -13t-11.5 -36v-642q0 -227 -89 -340.5t-274 -113.5q-140 0 -231 48 q-13 7 -17.5 16t-4.5 31v33q0 18 4.5 23t17.5 1q122 -52 222 -52q50 0 87.5 9t71.5 33t56 63.5t34.5 102t12.5 146.5v41q-71 -134 -240 -134q-151 0 -227 122.5t-76 322.5zM197 432q0 -148 56 -247t162 -99q109 0 162.5 86t53.5 241q0 371 -221 371q-107 0 -160 -96.5 t-53 -255.5z" />
<glyph unicode="h" horiz-adv-x="910" d="M32 22v32q0 26 15 26q83 3 104 13.5t22 57.5v1001q0 60 -37 60l-78 2q-8 0 -10.5 3.5t-2.5 16.5v38q0 16 3 20t13 6q39 1 81.5 4t52.5 3h56q17 0 23.5 -8.5t6.5 -28.5v-581q34 100 101 148.5t149 48.5q101 0 150 -66t49 -209v-376q0 -88 15 -118.5t43 -30.5q39 0 39 43 q0 22 3.5 27.5t20.5 5.5h18q17 0 21 -4.5t4 -23.5q0 -77 -34 -108t-95 -31q-147 0 -147 216v391q0 105 -28 146.5t-85 41.5q-101 0 -160.5 -104.5t-59.5 -318.5v-224q1 -41 19 -49t94 -10q16 0 19.5 -6t3.5 -26v-24q0 -16 -3.5 -21t-15.5 -5h-352q-7 0 -10.5 0.5t-5.5 4 t-2 6v11.5z" />
<glyph unicode="i" horiz-adv-x="472" d="M45 801v29q0 17 3.5 22.5t14.5 5.5q63 8 121 8h71q30 0 30 -36v-597q0 -89 15 -119t44 -30q38 0 38 43q0 22 3.5 27.5t22.5 5.5h16q17 0 21 -4.5t4 -23.5q0 -77 -34 -108t-93 -31q-71 0 -109 49.5t-38 166.5v508q0 39 -7 47.5t-32 10.5l-78 1q-9 0 -11 5t-2 20zM160 1132 q0 33 18.5 53.5t48.5 20.5q27 0 47 -20.5t20 -53.5q0 -34 -19.5 -54t-47.5 -20q-30 0 -48.5 19.5t-18.5 54.5z" />
<glyph unicode="j" horiz-adv-x="426" d="M-28 -197q0 14 3 19t12 5h52q5 0 8 -2t4 -7.5t1.5 -9t0 -12t-0.5 -10.5q7 -54 62 -54q14 0 24 4.5t21 18t17 45t6 79.5v838q0 40 -6 48t-33 10l-78 1q-8 0 -9.5 5t-1.5 20v29q0 16 4.5 22t15.5 6q60 8 118 8h72q28 0 28 -36v-918q0 -145 -40.5 -206.5t-128.5 -61.5 q-79 0 -115 46.5t-36 112.5zM164 1132q0 33 18.5 53.5t48.5 20.5q27 0 47 -20.5t20 -53.5q0 -34 -19.5 -54t-47.5 -20q-30 0 -48.5 19.5t-18.5 54.5z" />
<glyph unicode="k" horiz-adv-x="835" d="M32 22v32q0 26 15 26q90 3 108 16.5t18 78.5v977q0 60 -37 60l-76 2q-11 1 -13 4.5t-2 17.5v36q0 15 3.5 19.5t14.5 6.5q40 1 82.5 4t51.5 3h56q19 0 25.5 -8.5t6.5 -28.5v-795l231 275q20 24 10 30t-77 6q-14 0 -17.5 5.5t-3.5 24.5v26q0 16 3.5 21t15.5 5h324 q11 0 13 -4t2 -19v-39q0 -9 -0.5 -12.5t-3.5 -5.5t-9 -2q-68 0 -90.5 -9.5t-58.5 -52.5l-220 -260l197 -304q26 -45 44.5 -65t41.5 -20q52 0 52 63q0 17 5.5 23.5t18.5 6.5h15q17 0 21.5 -5.5t4.5 -30.5q0 -149 -134 -149q-31 0 -56.5 9.5t-46 31t-31.5 37.5t-30 47 l-221 346v-275v-38.5t4.5 -25t9 -17.5t20 -8t31.5 -5t48 -1q16 0 19.5 -6t3.5 -26v-24q0 -16 -3.5 -21t-15.5 -5h-352q-7 0 -10.5 0.5t-5.5 4t-2 6v11.5z" />
<glyph unicode="l" horiz-adv-x="426" d="M7 1251v39q0 15 4 19.5t15 4.5q95 8 121 8h73q28 0 28 -30v-1059q0 -89 15 -119t44 -30q37 0 37 43q0 22 4 27.5t23 5.5h16q17 0 20.5 -4.5t3.5 -23.5q0 -77 -33.5 -108t-92.5 -31q-71 0 -109 49.5t-38 166.5v970q0 35 -7 42.5t-32 7.5l-75 2q-12 0 -14.5 3.5t-2.5 16.5z " />
<glyph unicode="m" horiz-adv-x="1316" d="M63 22v32q0 11 0.5 15.5t3.5 7.5t9 3q79 3 97.5 14.5t18.5 63.5v557q0 60 -37 60l-79 1q-8 0 -10.5 4t-2.5 17v37q0 16 2.5 20t12.5 6q40 1 83 4.5t51 3.5h58q18 0 24 -8.5t6 -29.5v-123q54 177 208 177q143 0 186 -147q69 147 229 147q107 0 159 -81.5t52 -258.5v-309 q0 -89 15.5 -120t43.5 -31q40 0 40 43q0 22 3.5 27.5t20.5 5.5h18q18 0 21.5 -4t3.5 -24q0 -139 -129 -139q-149 0 -149 216v327q0 135 -30.5 193.5t-95.5 58.5q-80 0 -127 -68t-50 -197v-372q1 -47 22 -57t110 -12q14 0 17 -6t3 -26v-24v-13t-1.5 -7t-5 -5t-9.5 -1h-341 q-12 0 -14.5 3.5t-2.5 18.5v32q0 26 13 26q64 2 81 13t18 54v391q0 140 -32.5 195t-96.5 55q-175 0 -178 -356v-292q1 -38 18 -47t82 -11q14 -1 17.5 -7t3.5 -25v-24q0 -16 -2.5 -21t-14.5 -5h-326q-10 0 -13.5 4t-3.5 18z" />
<glyph unicode="n" horiz-adv-x="932" d="M56 22v32q0 10 0.5 14.5t4 8t10.5 3.5q89 3 106.5 16.5t17.5 78.5v540q0 60 -37 60l-78 1q-8 0 -9.5 3.5t-1.5 17.5v37q0 16 2.5 20t12.5 6q40 1 83 4.5t51 3.5h58q17 0 22 -8.5t5 -29.5v-145q36 101 103.5 150t148.5 49q99 0 148 -66t49 -209v-376q0 -88 15 -118.5 t43 -30.5q41 0 41 43q0 22 3.5 27.5t20.5 5.5h19q16 0 20 -5t4 -23q0 -139 -129 -139q-149 0 -149 216v391q0 105 -28 146.5t-83 41.5q-101 0 -161.5 -104.5t-60.5 -318.5v-188v-38t4.5 -25t9.5 -17.5t20.5 -8t31.5 -5l48 -1.5q11 0 15.5 -3.5t5.5 -9t1 -19.5v-24 q0 -9 -0.5 -12.5t-2 -7.5t-5.5 -5t-11 -1h-350q-7 0 -10.5 0.5t-5.5 4t-2 6v11.5z" />
<glyph unicode="o" horiz-adv-x="834" d="M76 439q0 88 19 165t58 141t107 101.5t157 37.5q90 0 158 -37.5t107.5 -101.5t58.5 -141t19 -165t-19.5 -165.5t-59 -142t-108 -102.5t-158.5 -38q-72 0 -130 25t-96.5 67.5t-64.5 100.5t-37 121.5t-11 133.5zM190 434q0 -72 12.5 -133t38.5 -110.5t70.5 -78t103.5 -28.5 q78 0 132 50.5t76.5 126.5t22.5 173q0 96 -22.5 173.5t-76 129.5t-130.5 52t-130 -52t-75 -129.5t-22 -173.5z" />
<glyph unicode="p" horiz-adv-x="895" d="M32 -300q0 15 3 20.5t12 5.5q86 3 103.5 16t17.5 76v908q-6 49 -38 49l-78 1q-7 0 -9 4t-2 17v37q0 16 2.5 20t12.5 6q40 1 83 4.5t51 3.5h56q18 0 24 -8.5t6 -29.5v-150q31 99 98.5 151.5t150.5 52.5q142 0 216 -124.5t74 -325.5q0 -131 -30 -230.5t-98 -161t-169 -61.5 q-77 0 -145 43t-94 127v-328q0 -24 1 -38t6.5 -25.5t11.5 -16.5t22.5 -9t33 -4.5t48.5 -1.5q8 0 12.5 -1t6.5 -5.5t2.5 -9t0.5 -15.5v-25q0 -16 -3 -21t-17 -5h-354q-7 0 -10.5 0.5t-5.5 4t-2 6.5v12v31zM283 406q0 -151 52.5 -242t157.5 -91q107 0 157 96.5t50 258.5 q0 161 -49.5 259.5t-153.5 98.5t-159 -103.5t-55 -276.5z" />
<glyph unicode="q" horiz-adv-x="906" d="M78 438q0 97 18.5 176.5t55.5 141t98 95t141 33.5q164 0 236 -137v82q0 20 6 28.5t22 8.5h58q19 0 142 -10q14 0 17 -4.5t3 -19.5v-33q0 -15 -2.5 -19.5t-12.5 -4.5l-85 -2q-40 0 -40 -60v-493h-1v-399q0 -66 15.5 -79t99.5 -14q8 0 12.5 -1t6.5 -5.5t2.5 -9t0.5 -15.5 v-25q0 -16 -3 -21t-15 -5h-356q-12 0 -14.5 4t-2.5 19v31q0 11 0.5 15.5t4 7.5t10.5 3q89 3 109 17t20 78v311q-68 -141 -239 -141q-152 0 -229.5 123.5t-77.5 323.5zM194 438q0 -70 12.5 -131t37.5 -111.5t68 -80t99 -29.5q104 0 159.5 95t55.5 258q0 161 -54.5 256.5 t-160.5 95.5q-73 0 -123.5 -50.5t-72 -128t-21.5 -174.5z" />
<glyph unicode="r" horiz-adv-x="722" d="M56 22v32q0 10 0.5 14.5t4 8t10.5 3.5q89 3 106.5 16.5t17.5 78.5v540q0 60 -37 60l-78 1q-8 0 -9.5 3.5t-1.5 17.5v37q0 16 2.5 20t12.5 6q40 1 83 4.5t51 3.5h58q17 0 22 -8.5t5 -29.5v-190h4v-5q60 249 237 249q53 0 95 -22q14 -8 17 -17t3 -37v-242q0 -14 -2.5 -16.5 t-12.5 -2.5h-54q-13 0 -15 17l-11 211q-19 9 -48 9q-209 0 -209 -546v-97q1 -40 19.5 -48.5t94.5 -10.5q11 0 15.5 -3.5t5.5 -9t1 -19.5v-24q0 -9 -0.5 -12.5t-2 -7.5t-5.5 -5t-11 -1h-350q-7 0 -10.5 0.5t-5.5 4t-2 6v11.5z" />
<glyph unicode="s" horiz-adv-x="711" d="M82 52v199q0 25 4.5 31.5t19.5 6.5h41q8 0 11 -1t6 -7.5t4 -21.5l7 -155q75 -24 175 -24q93 0 136 34t43 130q0 59 -24 96.5t-63 54t-85.5 26.5t-93 21.5t-85.5 31.5t-63 64.5t-24 113.5q0 127 62.5 179.5t198.5 52.5q165 0 227 -33q14 -6 17.5 -13.5t3.5 -23.5l-2 -196 q-1 -14 -6.5 -17t-19.5 -3h-36q-22 0 -22 28l-6 145q-67 20 -154 20q-80 0 -117.5 -26.5t-37.5 -111.5q0 -45 24 -71t63 -37t85.5 -18.5t93 -21.5t85.5 -40t63 -81t24 -136q0 -64 -13.5 -110.5t-37 -75t-61 -45t-78 -22.5t-95.5 -6q-75 0 -146.5 10.5t-101.5 24.5 q-13 6 -17.5 11t-4.5 17z" />
<glyph unicode="t" horiz-adv-x="558" d="M47 793v50q0 15 3.5 19t14.5 4h106l41 253q3 26 21 26h28q12 0 15 -5.5t3 -22.5v-251h211q10 0 14 -5t4 -19v-49q0 -15 -3 -18.5t-15 -3.5h-211v-477q0 -126 23.5 -173.5t75.5 -47.5q73 0 73 72q0 26 22 26h24q19 0 19 -28q0 -81 -42 -121.5t-120 -40.5 q-95 0 -140.5 76.5t-45.5 232.5v481h-103q-11 0 -14.5 4t-3.5 18z" />
<glyph unicode="u" horiz-adv-x="912" d="M34 802v30q0 16 3.5 21t14.5 5q31 2 50.5 4t25 2.5t15 1t28.5 0.5h73q17 0 22.5 -9t5.5 -30v-535q0 -126 31.5 -170t102.5 -44q101 0 155.5 79.5t54.5 263.5v313q-5 42 -37 42l-80 2q-8 0 -9.5 5t-1.5 19v30q0 16 4 21t14 5q31 2 51.5 4t26 2.5t15 1t28.5 0.5h73 q16 0 21 -9t5 -30v-594q0 -88 15.5 -118.5t44.5 -30.5q39 0 39 43q0 22 3.5 27.5t22.5 5.5h17q18 0 22 -5t4 -23q0 -139 -131 -139q-120 0 -143 143q-69 -149 -236 -149q-115 0 -168.5 71.5t-53.5 237.5v430q0 50 -37 50l-80 2q-8 0 -9.5 5t-1.5 19z" />
<glyph unicode="v" horiz-adv-x="824" d="M37 797v56q0 13 13 13h304q9 0 9 -15v-52q0 -10 -1.5 -13.5t-9.5 -3.5q-66 -1 -80.5 -5t-12.5 -21q1 -97 14.5 -190t39.5 -179.5t49 -148t57 -139.5q72 167 115.5 321t46.5 336q1 9 -0.5 13t-12 7t-26.5 4t-50 2q-9 0 -12 3t-3 12v52q0 17 13 17h281q12 0 14.5 -3.5 t2.5 -13.5v-48q0 -16 -15 -19q-36 -1 -52.5 -2t-27 -4t-12.5 -7.5t-3 -14.5q-2 -114 -21.5 -223t-56.5 -212.5t-62.5 -162.5t-68.5 -149q-8 -14 -24 -14h-63q-19 0 -25 14q-41 84 -69 148t-63.5 164.5t-55.5 210.5t-22 224q0 17 -14.5 21t-84.5 7q-11 2 -11 15z" />
<glyph unicode="w" horiz-adv-x="1282" d="M35 799v54q0 9 3 11t10 2h324q13 0 13 -15v-52q0 -17 -14 -17q-63 -1 -82 -6.5t-17 -19.5q1 -178 45 -334t115 -321q70 162 113.5 319t46.5 336q2 16 -14 20.5t-85 5.5q-15 0 -15 17v52q0 15 14 15h305q13 0 13 -13v-56q0 -13 -11 -15q-93 -3 -105 -11q6 -192 52.5 -353 t121.5 -316q71 162 115 319.5t47 334.5q2 17 -12.5 21t-84.5 5q-15 0 -15 17v52q0 15 11 15h302q13 0 13 -15v-52q0 -15 -13 -17q-52 -1 -73 -3.5t-26.5 -7t-6.5 -15.5q-2 -110 -22 -220t-56.5 -214.5t-62 -165.5t-66.5 -149q-8 -14 -22 -14h-73q-14 0 -22 14 q-116 240 -161 421q-50 -188 -160 -421q-8 -14 -20 -14h-75q-12 0 -20 14q-39 82 -66.5 148t-63 167.5t-55.5 212t-22 221.5q-1 15 -22 19.5t-88 6.5q-13 2 -13 17z" />
<glyph unicode="x" horiz-adv-x="854" d="M45 22v32q0 15 3.5 19.5t14.5 4.5q61 0 81 8.5t42 45.5l181 298l-179 309q-17 29 -41 37t-71 8q-9 0 -12 6t-3 22v31q0 14 3.5 18.5t13.5 4.5h302q11 0 14 -5t3 -21v-19q0 -15 -0.5 -20.5t-5 -10t-13.5 -4.5q-56 0 -66 -9t8 -40l114 -197l119 199q19 31 9.5 39t-65.5 8 q-12 0 -14.5 7t-2.5 28v19q0 16 2 21t13 5h283q12 0 14.5 -4t2.5 -19v-31q0 -16 -3 -21t-12 -5q-48 -2 -73 -10.5t-42 -36.5l-179 -290l188 -321q20 -35 41 -43.5t76 -8.5q12 0 15.5 -4t3.5 -18v-32q0 -15 -2 -18.5t-13 -3.5h-305q-13 0 -16 5t-3 21v22q0 19 2.5 23.5 t16.5 4.5q72 -2 72 14q0 6 -9 18l-134 231l-142 -231q-13 -21 7 -27q19 -5 75 -5q14 0 16.5 -4.5t2.5 -23.5v-22q0 -16 -2 -21t-13 -5h-303q-11 0 -13 3.5t-2 18.5z" />
<glyph unicode="y" horiz-adv-x="852" d="M45 797v56q0 9 3 11t10 2h303q11 0 11 -15v-52q0 -7 -0.5 -9.5t-3.5 -5t-9 -2.5q-44 -1 -64 -4.5t-23.5 -7.5t-3.5 -14q3 -129 58.5 -332t101.5 -314q91 254 183 637q6 22 -6 28t-76 7q-11 2 -14 4.5t-3 12.5v50q0 17 15 17h283q11 0 13 -3t2 -14v-50q0 -14 -13 -17 q-64 -1 -79 -9t-22 -38q-125 -539 -344 -1050q-20 -38 -42 -48.5t-59 -10.5h-106q-13 0 -15 2t-2 15v44v3q0 6 0.5 8t4 4t10.5 2q13 2 32 4.5t26.5 3.5t19.5 3t16.5 3.5t11.5 5t10.5 7.5t7 9.5t7.5 13.5q71 174 98 246q-14 0 -24 15q-57 114 -130 345t-78 394q0 17 -17.5 22 t-81.5 6q-11 2 -11 15z" />
<glyph unicode="z" horiz-adv-x="741" d="M80 28v33q0 22 9 34l416 685h-295q-16 0 -21 -5.5t-7 -22.5l-3 -143q0 -19 -21 -19h-41q-9 0 -13 0.5t-7.5 5t-3.5 13.5v229q0 28 21 28h512q18 0 18 -28v-36q0 -18 -13 -37l-411 -683h320q27 0 30 30l7 151q0 17 4.5 23t16.5 6h39q14 0 18 -6t4 -31v-227q0 -28 -17 -28 h-541q-21 0 -21 28z" />
<glyph unicode="{" horiz-adv-x="536" d="M47 493v56q0 15 13 17q84 18 113.5 61.5t29.5 141.5v318q0 53 8.5 93t30.5 76t65 55.5t106 19.5h45q6 0 7.5 -1.5t1.5 -9.5v-63v-7t-1 -4.5t-3 -3t-5 -0.5h-6q-72 0 -103.5 -38.5t-31.5 -114.5v-316q0 -113 -28.5 -170.5t-100.5 -81.5q72 -24 100.5 -81t28.5 -170v-317 q0 -75 31.5 -112.5t103.5 -37.5h6q9 0 9 -17v-62q0 -9 -1.5 -11t-7.5 -2h-45q-63 0 -106 19.5t-65 55.5t-30.5 76t-8.5 93v321q0 96 -29.5 139.5t-113.5 61.5q-13 2 -13 16z" />
<glyph unicode="|" horiz-adv-x="405" d="M149 -311v1670h110v-1670h-110z" />
<glyph unicode="}" horiz-adv-x="536" d="M67 -214q0 17 13 17h4q138 0 138 150v317q0 112 27.5 169.5t96.5 81.5q-69 24 -96.5 81.5t-27.5 170.5v316q0 153 -138 153h-4q-13 0 -13 15v63q0 11 13 11h41q64 0 108 -19.5t66 -55.5t31 -76t9 -93v-318q0 -98 29 -141.5t113 -61.5q13 -2 13 -17v-56q0 -14 -13 -16 q-84 -18 -113 -61t-29 -140v-321q0 -53 -9 -93t-31 -76t-66 -55.5t-108 -19.5h-41h-5t-4 1.5t-3 4t-1 7.5v62z" />
<glyph unicode="~" horiz-adv-x="1046" d="M112 372q46 112 117.5 172.5t150.5 60.5q42 0 80.5 -23t67.5 -55.5t56.5 -64.5t59 -55t62.5 -23q39 0 76.5 45t68.5 131l85 -37q-36 -116 -99.5 -175t-134.5 -59q-42 0 -80 23t-66 55.5t-54 64.5t-56 55t-59 23q-57 0 -101 -41t-79 -130z" />
<glyph unicode="&#xa0;" horiz-adv-x="741" d="M115 501v58q0 16 13 16h488q13 0 13 -18v-51q0 -22 -16 -22h-485q-13 0 -13 17z" />
<glyph unicode="&#xa1;" horiz-adv-x="385" d="M115 804q0 33 20.5 56.5t52.5 23.5q29 0 51 -24t22 -56q0 -39 -21 -60.5t-52 -21.5q-33 0 -53 21.5t-20 60.5zM136 -315l11 959q0 13 5 16t16 3h59q13 0 13 -21l11 -959q0 -18 -15 -18h-81q-12 0 -15.5 4t-3.5 16z" />
<glyph unicode="&#xa2;" horiz-adv-x="787" d="M95 419q0 213 93.5 339t256.5 126q109 0 169 -53t60 -151q0 -75 -38 -124.5t-109 -49.5q-30 0 -65 10q-13 4 -17 10.5t-4 20.5v17q0 12 3.5 18t6.5 7t9 1t19.5 -2.5t23.5 -2.5q76 0 76 85q0 65 -36.5 93t-93.5 28q-114 0 -177 -99t-63 -273q0 -181 68 -262t181 -81 q102 0 216 65q12 5 15.5 0.5t3.5 -22.5v-46q0 -13 -3.5 -19t-15.5 -13q-107 -60 -240 -60q-163 0 -251 116.5t-88 321.5zM365 -320l6 236q0 19 13 19h70q10 0 10 -15l5 -240q0 -17 -5 -17h-93q-9 0 -6 17zM365 1190q0 16 7 16h92q7 0 7 -18l-6 -238q0 -15 -9 -15h-72 q-13 0 -13 18z" />
<glyph unicode="&#xa3;" horiz-adv-x="968" d="M82 22v32q0 11 0.5 15.5t4 7.5t10.5 3q89 3 107.5 14t18.5 64v417h-119q-13 0 -13 17v58q0 17 13 17h119v251q0 116 21.5 195t67 124t106 64t146.5 19q155 0 266 -43q8 -3 12.5 -6t7.5 -4.5t4 -6.5t1.5 -6.5t0 -10t-0.5 -12.5v-248q0 -16 -2.5 -19t-14.5 -3h-47 q-9 0 -11 2t-5 16l-21 216q-65 24 -184 24q-112 0 -172.5 -49.5t-60.5 -179.5v-323h255q13 0 13 -19v-50q0 -23 -17 -23h-251v-473l393 -1q14 0 18.5 7t7.5 28l9 177q3 20 10.5 25t25.5 5h26q13 0 15.5 -7.5t2.5 -29.5v-8v-278q0 -14 -3 -17t-15 -3h-726q-12 0 -15.5 4 t-3.5 18z" />
<glyph unicode="&#xa4;" horiz-adv-x="1005" d="M128 547q0 180 99 306l-84 104l71 45l75 -90q94 73 212 73q130 0 227 -84l80 91l67 -46l-89 -108q85 -118 85 -291t-85 -294l91 -106l-75 -48l-81 83q-91 -74 -220 -74q-122 0 -216 73l-80 -90l-75 52l86 108q-88 121 -88 296zM246 547q0 -154 70 -251t185 -97 q113 0 185 97.5t72 250.5q0 152 -72 249.5t-185 97.5q-116 0 -185.5 -96.5t-69.5 -250.5z" />
<glyph unicode="&#xa5;" horiz-adv-x="1068" d="M56 1242v43q0 11 3 14.5t12 3.5h337q9 0 12 -4t3 -14v-41q0 -23 -17 -23q-61 0 -83.5 -5.5t-22.5 -20.5q0 -92 19.5 -178t58 -163.5t73.5 -133.5t87 -126q53 71 89 126.5t75.5 133.5t59.5 163.5t20 177.5q0 15 -22.5 20.5t-85.5 5.5q-15 0 -15 23v41q0 18 13 18h324 q9 0 12 -3.5t3 -14.5v-43q0 -12 -2 -15.5t-13 -3.5q-67 -3 -90 -9t-23 -22q-6 -170 -68 -316.5t-162 -287.5h209q15 0 15 -16v-47q0 -20 -19 -20h-266q0 -1 -1 -2t-1 -2v-78h272q15 0 15 -19v-45q0 -20 -19 -20h-268v-162q0 -26 0.5 -38t5 -25.5t9.5 -17t21 -8t32 -5 t49 -1.5q16 0 19.5 -6t3.5 -26v-24q0 -16 -3.5 -21t-17.5 -5h-355q-13 0 -16 4t-3 18v32q0 10 0.5 14.5t4 8t10.5 3.5q91 3 109 16t18 79v164h-270q-13 0 -13 15v52q0 17 15 17h268v69l-10 13h-260q-13 0 -13 14v53q0 16 15 16h197q-99 141 -158 287.5t-62 316.5 q-1 15 -25.5 21.5t-89.5 9.5q-11 0 -13 3.5t-2 15.5z" />
<glyph unicode="&#xa6;" horiz-adv-x="413" d="M153 -266v728h108v-728h-108zM153 577v724h108v-724h-108z" />
<glyph unicode="&#xa7;" horiz-adv-x="871" d="M104 121q0 14 4.5 19t18.5 5h48q19 0 19 -22l13 -214q91 -32 204 -32q30 0 57.5 3.5t61 15t58 31t41.5 54.5t17 82q0 64 -17.5 112t-47.5 76.5t-69 50t-82 37t-86 31.5t-82 40t-69 57t-47.5 87t-17.5 126q0 119 41 193q-41 71 -41 181q0 80 24 135t69 83t96 39t119 11 q82 0 151.5 -13.5t101.5 -31.5q14 -7 18 -14.5t4 -28.5v-253q0 -17 -4.5 -20.5t-17.5 -3.5h-49q-18 0 -18 19l-15 217q-47 19 -80.5 25.5t-88.5 6.5q-200 0 -200 -158q0 -56 17.5 -97.5t47.5 -65.5t69 -42t82 -32.5t86 -31t82 -43.5t69 -64.5t47.5 -99t17.5 -142.5 q0 -64 -10.5 -118.5t-24.5 -67.5q35 -76 35 -189q0 -297 -341 -297q-76 0 -168.5 14.5t-121.5 31.5q-21 13 -21 49v249zM238 693q0 -59 19.5 -101.5t50 -65.5t74.5 -43t85.5 -33t90 -35.5t82.5 -49.5q6 30 6 71q0 66 -19 114.5t-48.5 76t-72.5 50.5t-83 36.5t-88.5 33.5 t-81.5 42q-15 -35 -15 -96z" />
<glyph unicode="&#xa8;" horiz-adv-x="571" d="M88 1448q0 29 16.5 49t46.5 20q27 0 46 -20.5t19 -48.5t-18.5 -47.5t-46.5 -19.5q-30 0 -46.5 19t-16.5 48zM356 1448q0 29 18.5 49t48.5 20q27 0 46 -20.5t19 -48.5t-18.5 -47.5t-48.5 -19.5t-47.5 19t-17.5 48z" />
<glyph unicode="&#xa9;" horiz-adv-x="1260" d="M99 618q0 157 40 281t111.5 202t166.5 118.5t207 40.5q114 0 211 -41.5t170.5 -121.5t115 -206.5t41.5 -285.5q0 -155 -40 -276t-111 -197.5t-165 -116t-206 -39.5q-114 0 -212 41.5t-171.5 120t-115.5 202t-42 278.5zM171 618q0 -272 129 -419t339 -147 q209 0 329.5 140.5t120.5 412.5q0 280 -127.5 430.5t-337.5 150.5q-208 0 -330.5 -145.5t-122.5 -422.5zM318 624q0 212 83 320t238 108q118 0 188 -39q13 -7 16.5 -15.5t3.5 -31.5v-221q0 -17 -15 -17h-46q-15 0 -15 15l-11 195q-48 26 -112 26q-225 0 -225 -340 q0 -92 17 -154t51.5 -95t78 -46.5t104.5 -13.5q74 0 168 31q12 4 16 -2t4 -22v-37q0 -11 -3.5 -16t-16.5 -10q-77 -32 -187 -32q-80 0 -139 19t-105 63t-69.5 123t-23.5 192z" />
<glyph unicode="&#xaa;" horiz-adv-x="765" d="M86 974q0 156 68.5 252t197.5 96q111 0 180 -116v82q0 15 17 15h84q13 0 13 -16v-635q0 -15 -13 -15h-87q-9 0 -11.5 3.5t-2.5 14.5v75q-67 -112 -176 -112q-89 0 -151 48t-90.5 126.5t-28.5 181.5zM199 970q0 -128 46 -193.5t126 -65.5q75 0 118 69.5t43 189.5 q0 119 -43.5 189t-119.5 70q-77 0 -123.5 -69.5t-46.5 -189.5z" />
<glyph unicode="&#xab;" horiz-adv-x="787" d="M65 493l302 399q12 20 22 13l52 -39q6 -5 5 -9.5t-10 -18.5l-259 -361l257 -354q12 -17 13 -23t-6 -11l-50 -37q-8 -4 -13 -2t-13 15l-298 387q-12 15 -12.5 21.5t10.5 19.5zM324 493l302 399q14 20 22 13l52 -39q5 -5 4.5 -9.5t-10.5 -18.5l-258 -361l257 -354 q12 -17 13 -23t-6 -11l-50 -37q-7 -5 -11.5 -2.5t-14.5 15.5l-298 387q-11 14 -11.5 21t9.5 20z" />
<glyph unicode="&#xac;" horiz-adv-x="925" d="M125 547v99h677v-285h-109v186h-568z" />
<glyph unicode="&#xad;" horiz-adv-x="744" d="M115 514v58q0 16 13 16h488q13 0 13 -18v-51q0 -22 -16 -22h-485q-13 0 -13 17z" />
<glyph unicode="&#xae;" horiz-adv-x="1260" d="M99 618q0 157 40 281t111.5 202t166.5 118.5t207 40.5q114 0 211 -41.5t170.5 -121.5t115 -206.5t41.5 -285.5q0 -155 -40 -276t-111 -197.5t-165 -116t-206 -39.5q-114 0 -212 41.5t-171.5 120t-115.5 202t-42 278.5zM171 618q0 -272 129 -419t339 -147 q209 0 329.5 140.5t120.5 412.5q0 280 -127.5 430.5t-337.5 150.5q-208 0 -330.5 -145.5t-122.5 -422.5zM395 268v34q0 16 9 16q48 3 59.5 11t11.5 43v484h-2v71q0 27 -12.5 36.5t-56.5 10.5q-9 0 -9 16v34q0 8 2 10.5t9 2.5h220q124 0 176.5 -68t52.5 -189 q0 -189 -118 -240l58 -153q14 -40 27 -55t34 -15q5 0 11.5 2.5t11.5 4.5t10 3.5t8 -1t4 -8.5l4 -35q1 -13 -1.5 -17t-13.5 -9q-32 -13 -65 -13q-26 0 -45 8t-31 24t-20.5 34.5t-18.5 45.5l-3 9l-57 158h-6q-48 0 -82 8v-175q1 -25 12 -30.5t50 -7.5q9 0 11 -3t2 -15v-30 q0 -15 -11 -15h-220q-8 0 -9.5 2t-1.5 11zM562 614q30 -9 71 -9q63 0 95.5 44.5t32.5 128.5q0 92 -35 138.5t-93 46.5h-71v-349z" />
<glyph unicode="&#xaf;" horiz-adv-x="590" d="M121 1424v52q0 19 15 19h331q13 0 13 -15v-56q0 -12 -3.5 -16t-12.5 -4h-328q-9 0 -12 4t-3 16z" />
<glyph unicode="&#xb0;" horiz-adv-x="603" d="M88 1048q0 117 57 195.5t157 78.5q101 0 157.5 -78.5t56.5 -195.5q0 -119 -59 -196t-155 -77q-100 0 -157 76.5t-57 196.5zM195 1050q0 -87 31.5 -136.5t78.5 -49.5q43 0 73 49t30 131q0 83 -29.5 136t-76.5 53q-44 0 -75.5 -52.5t-31.5 -130.5z" />
<glyph unicode="&#xb1;" horiz-adv-x="936" d="M110 430v99h303v344h110v-344h300v-99h-300v-303h-110v303h-303zM114 48h715v-98h-715v98z" />
<glyph unicode="&#xb2;" horiz-adv-x="713" d="M65 572v55q0 20 6 26q430 330 430 686q0 108 -42 147t-122 39q-79 0 -156 -34l-17 -190q-1 -9 -3.5 -11.5t-9.5 -2.5h-50q-8 0 -10 2.5t-2 15.5v224q0 19 3 24.5t14 10.5q108 52 235 52q43 0 74 -3.5t70.5 -19t64 -43t42 -79.5t17.5 -125q0 -200 -107 -377.5t-290 -313.5 h322q20 0 23 32l5 130q0 14 3 19.5t14 5.5h41q11 0 14 -5t3 -23v-239q0 -12 -2 -14t-9 -2h-548q-13 0 -13 13z" />
<glyph unicode="&#xb3;" horiz-adv-x="687" d="M63 603v50q0 13 4.5 18t12.5 3q4 -1 27.5 -7t48 -11.5t64 -10.5t78.5 -5q105 0 155 58.5t50 180.5q0 105 -44.5 147.5t-127.5 42.5h-72q-15 0 -15 20v52q0 13 5 19l226 346h-280q-11 0 -14 -7.5t-6 -35.5l-2 -117q-1 -8 -2 -11t-5 -5.5t-11 -2.5h-40q-11 0 -13.5 3 t-2.5 16v237q0 10 1.5 13.5t3.5 4t10 0.5h471q9 0 11 -4t2 -18v-45q0 -6 -0.5 -10t-1 -6.5t-3 -6.5t-3.5 -5.5t-5.5 -7.5t-7.5 -9l-220 -333h17q128 0 184 -63.5t56 -209.5q0 -92 -23.5 -160t-66 -106t-94 -55.5t-113.5 -17.5q-146 0 -239 35q-15 5 -15 24z" />
<glyph unicode="&#xb4;" horiz-adv-x="500" d="M132 1385l121 177q9 14 16 19t21 5h92q13 0 14 -8.5t-9 -19.5l-164 -184q-12 -15 -33 -15h-49q-12 0 -15 6.5t6 19.5z" />
<glyph unicode="&#xb5;" horiz-adv-x="966" d="M61 802v30q0 16 4 21t15 5q31 2 50.5 4t25 2.5t15 1t28.5 0.5h73q17 0 22.5 -9t5.5 -30v-535q0 -126 31.5 -170t102.5 -44q101 0 155.5 79.5t54.5 263.5v313q-5 42 -37 42l-80 2q-8 0 -9.5 5t-1.5 19v30q0 16 4 21t14 5q31 2 51.5 4t26 2.5t15 1t28.5 0.5h73q16 0 21 -9 t5 -30v-594q0 -88 15.5 -118.5t44.5 -30.5q39 0 39 43q0 22 3.5 27.5t22.5 5.5h17q18 0 22 -5t4 -23q0 -139 -131 -139q-120 0 -143 143q-69 -149 -237 -149q-67 0 -111 22v-406q0 -13 -10 -13h-93q-7 0 -7 13v1123q0 50 -37 50l-80 2q-8 0 -10 5t-2 19z" />
<glyph unicode="&#xb6;" horiz-adv-x="741" d="M69 942q0 157 78 259t199 102h229v-1539h-91v1448h-100v-1448h-92v793q-67 1 -118.5 54t-78 140t-26.5 191z" />
<glyph unicode="&#xb7;" horiz-adv-x="450" d="M132 469q0 35 25 58.5t61 23.5t61.5 -23.5t25.5 -58.5t-25.5 -58.5t-61.5 -23.5t-61 23.5t-25 58.5z" />
<glyph unicode="&#xb8;" horiz-adv-x="428" d="M28 -324l13 26q4 9 8 10.5t11 -1.5q33 -14 80 -14q74 0 74 85q0 63 -95 63q-3 0 -12 -1t-9.5 0.5t-1 7.5t4.5 18l48 130h80l-34 -97q59 -1 86.5 -35.5t27.5 -85.5q0 -81 -43.5 -119.5t-109.5 -38.5q-58 0 -117 22q-20 9 -11 30z" />
<glyph unicode="&#xb9;" horiz-adv-x="510" d="M61 577v32q0 20 12 20q94 3 119 11t28 41v782q-2 11 -7.5 10.5t-18.5 -10.5l-110 -89q-19 -12 -19 9v52q0 16 17 30l153 121q17 15 48 15h22q17 0 17 -17v-890q0 -43 20.5 -52t113.5 -11q12 0 14.5 -4.5t2.5 -19.5v-28q0 -13 -3 -16.5t-14 -3.5h-380q-10 0 -12.5 3.5 t-2.5 14.5z" />
<glyph unicode="&#xba;" horiz-adv-x="830" d="M76 875q0 88 19 165t58 141t107 101.5t157 37.5q90 0 158 -37.5t107.5 -101.5t58.5 -141t19 -165t-19.5 -165.5t-59 -142.5t-108 -103t-158.5 -38q-72 0 -130 25.5t-96.5 68t-64.5 100.5t-37 121.5t-11 133.5zM190 869q0 -72 12.5 -133t38.5 -110.5t70.5 -78t103.5 -28.5 q78 0 132 50.5t76.5 126.5t22.5 173q0 71 -13.5 133t-40 113t-71.5 80.5t-104 29.5t-103.5 -29.5t-71 -80.5t-39.5 -113t-13 -133z" />
<glyph unicode="&#xbb;" horiz-adv-x="787" d="M84 91q-6 4 -4.5 9.5t13.5 22.5l257 354l-259 361q-9 14 -10 18.5t5 9.5l52 39q8 7 22 -13l302 -399q10 -13 9.5 -20t-11.5 -21l-298 -387q-10 -13 -14.5 -15.5t-11.5 2.5zM343 91q-7 5 -5 9.5t16 22.5l255 354l-259 361q-10 15 -11 18.5t5 9.5l53 39q10 7 22 -13 l302 -399q11 -13 10.5 -19.5t-12.5 -21.5l-298 -387q-8 -13 -13 -15.5t-13 2.5z" />
<glyph unicode="&#xbf;" horiz-adv-x="757" d="M60 -106q0 83 17 139.5t44.5 86t61 50.5t66.5 41t60.5 48t44.5 81.5t17 132.5v147q0 14 2.5 17t11.5 3h80q13 0 13 -16v-149q0 -94 -17 -159.5t-44.5 -99t-60 -56t-65.5 -41t-60.5 -42.5t-44.5 -72t-17 -119q0 -182 211 -182q65 0 104.5 7t98.5 26l15 229q0 13 3 17t15 4 h49q12 0 15 -3.5t3 -20.5v-265q0 -22 -3.5 -29.5t-18.5 -14.5q-36 -19 -115 -33t-172 -14q-68 0 -120 12t-98 42t-71 89t-25 144zM354 802q0 34 20 58t52 24q29 0 51 -24t22 -58q0 -37 -21 -58.5t-52 -21.5q-33 0 -52.5 21t-19.5 59z" />
<glyph unicode="&#xc0;" horiz-adv-x="1113" d="M35 22v32q0 12 2.5 18t5 7t7.5 1q85 3 105 15.5t20 62.5v90q0 241 22.5 435t67.5 338t117.5 222.5t168.5 78.5q126 0 214 -134.5t130.5 -373.5t42.5 -566v-105q1 -42 20 -50.5t96 -10.5q11 0 15.5 -3.5t5.5 -9t1 -19.5v-24q0 -16 -3 -21t-17 -5h-360q-14 0 -16 2.5 t-2 19.5v32q0 11 0.5 15.5t4 7.5t10.5 3q78 3 100.5 13.5t25.5 46.5v108q0 98 -2 145h-538q-2 -47 -2 -145v-77q0 -63 16 -75t98 -14q11 0 15.5 -3.5t5.5 -9t1 -19.5v-24v-13t-1.5 -7t-5.5 -5t-11 -1h-341q-14 0 -16.5 3t-2.5 19zM283 493h529q-18 339 -87 533.5t-178 194.5 t-177.5 -194t-86.5 -534zM356 1592q-17 26 7 26h82q14 0 20.5 -4.5t16.5 -19.5l144 -207q15 -26 -8 -26h-46q-18 0 -45 28z" />
<glyph unicode="&#xc1;" horiz-adv-x="1113" d="M35 22v32q0 12 2.5 18t5 7t7.5 1q85 3 105 15.5t20 62.5v90q0 241 22.5 435t67.5 338t117.5 222.5t168.5 78.5q126 0 214 -134.5t130.5 -373.5t42.5 -566v-105q1 -42 20 -50.5t96 -10.5q11 0 15.5 -3.5t5.5 -9t1 -19.5v-24q0 -16 -3 -21t-17 -5h-360q-14 0 -16 2.5 t-2 19.5v32q0 11 0.5 15.5t4 7.5t10.5 3q78 3 100.5 13.5t25.5 46.5v108q0 98 -2 145h-538q-2 -47 -2 -145v-77q0 -63 16 -75t98 -14q11 0 15.5 -3.5t5.5 -9t1 -19.5v-24v-13t-1.5 -7t-5.5 -5t-11 -1h-341q-14 0 -16.5 3t-2.5 19zM283 493h529q-18 339 -87 533.5t-178 194.5 t-177.5 -194t-86.5 -534zM495 1404l121 177q9 14 16 19t21 5h92q13 0 14 -8.5t-9 -19.5l-164 -184q-12 -15 -33 -15h-48q-12 0 -15.5 6.5t5.5 19.5z" />
<glyph unicode="&#xc2;" horiz-adv-x="1113" d="M35 22v32q0 12 2.5 18t5 7t7.5 1q85 3 105 15.5t20 62.5v90q0 241 22.5 435t67.5 338t117.5 222.5t168.5 78.5q126 0 214 -134.5t130.5 -373.5t42.5 -566v-105q1 -42 20 -50.5t96 -10.5q11 0 15.5 -3.5t5.5 -9t1 -19.5v-24q0 -16 -3 -21t-17 -5h-360q-14 0 -16 2.5 t-2 19.5v32q0 11 0.5 15.5t4 7.5t10.5 3q78 3 100.5 13.5t25.5 46.5v108q0 98 -2 145h-538q-2 -47 -2 -145v-77q0 -63 16 -75t98 -14q11 0 15.5 -3.5t5.5 -9t1 -19.5v-24v-13t-1.5 -7t-5.5 -5t-11 -1h-341q-14 0 -16.5 3t-2.5 19zM283 493h529q-18 339 -87 533.5t-178 194.5 t-177.5 -194t-86.5 -534zM350 1381q-8 17 7 32l136 158q14 17 36 17h44q22 0 36 -17l136 -158q15 -18 2 -41q-10 -19 -25 -4l-173 131l-169 -131q-5 -4 -9.5 -5t-9 3t-5.5 5.5t-6 9.5z" />
<glyph unicode="&#xc3;" horiz-adv-x="1113" d="M35 22v32q0 12 2.5 18t5 7t7.5 1q85 3 105 15.5t20 62.5v90q0 241 22.5 435t67.5 338t117.5 222.5t168.5 78.5q126 0 214 -134.5t130.5 -373.5t42.5 -566v-105q1 -42 20 -50.5t96 -10.5q11 0 15.5 -3.5t5.5 -9t1 -19.5v-24q0 -16 -3 -21t-17 -5h-360q-14 0 -16 2.5 t-2 19.5v32q0 11 0.5 15.5t4 7.5t10.5 3q78 3 100.5 13.5t25.5 46.5v108q0 98 -2 145h-538q-2 -47 -2 -145v-77q0 -63 16 -75t98 -14q11 0 15.5 -3.5t5.5 -9t1 -19.5v-24v-13t-1.5 -7t-5.5 -5t-11 -1h-341q-14 0 -16.5 3t-2.5 19zM283 493h529q-18 339 -87 533.5t-178 194.5 t-177.5 -194t-86.5 -534zM389 1432q42 97 106 97q37 0 81 -32t64 -32q14 0 23 9.5t20 35.5q5 15 15 9l36 -18q11 -7 5 -23q-40 -100 -104 -100q-38 0 -82 31.5t-60 31.5q-14 0 -23 -9.5t-23 -35.5q-7 -14 -19 -7l-33 19q-13 9 -6 24z" />
<glyph unicode="&#xc4;" horiz-adv-x="1113" d="M35 22v32q0 12 2.5 18t5 7t7.5 1q85 3 105 15.5t20 62.5v90q0 241 22.5 435t67.5 338t117.5 222.5t168.5 78.5q126 0 214 -134.5t130.5 -373.5t42.5 -566v-105q1 -42 20 -50.5t96 -10.5q11 0 15.5 -3.5t5.5 -9t1 -19.5v-24q0 -16 -3 -21t-17 -5h-360q-14 0 -16 2.5 t-2 19.5v32q0 11 0.5 15.5t4 7.5t10.5 3q78 3 100.5 13.5t25.5 46.5v108q0 98 -2 145h-538q-2 -47 -2 -145v-77q0 -63 16 -75t98 -14q11 0 15.5 -3.5t5.5 -9t1 -19.5v-24v-13t-1.5 -7t-5.5 -5t-11 -1h-341q-14 0 -16.5 3t-2.5 19zM283 493h529q-18 339 -87 533.5t-178 194.5 t-177.5 -194t-86.5 -534zM352 1448q0 29 16.5 49t46.5 20q27 0 46 -20.5t19 -48.5t-18.5 -47.5t-46.5 -19.5q-30 0 -46.5 19t-16.5 48zM620 1448q0 29 18.5 49t48.5 20q27 0 46 -20.5t19 -48.5t-18.5 -47.5t-48.5 -19.5t-47.5 19t-17.5 48z" />
<glyph unicode="&#xc5;" horiz-adv-x="1113" d="M35 22v32q0 12 2.5 18t5 7t7.5 1q85 3 105 15.5t20 62.5v90q0 241 22.5 435t67.5 338t117.5 222.5t168.5 78.5q126 0 214 -134.5t130.5 -373.5t42.5 -566v-105q1 -42 20 -50.5t96 -10.5q11 0 15.5 -3.5t5.5 -9t1 -19.5v-24q0 -16 -3 -21t-17 -5h-360q-14 0 -16 2.5 t-2 19.5v32q0 11 0.5 15.5t4 7.5t10.5 3q78 3 100.5 13.5t25.5 46.5v108q0 98 -2 145h-538q-2 -47 -2 -145v-77q0 -63 16 -75t98 -14q11 0 15.5 -3.5t5.5 -9t1 -19.5v-24v-13t-1.5 -7t-5.5 -5t-11 -1h-341q-14 0 -16.5 3t-2.5 19zM283 493h529q-18 339 -87 533.5t-178 194.5 t-177.5 -194t-86.5 -534zM374 1502q0 58 41 96.5t132 38.5q93 0 134 -38.5t41 -96.5t-41 -96.5t-134 -38.5q-91 0 -132 38.5t-41 96.5zM462 1502q0 -70 85 -70q47 0 66.5 20.5t19.5 49.5q0 28 -19.5 48.5t-66.5 20.5t-66 -20.5t-19 -48.5z" />
<glyph unicode="&#xc6;" horiz-adv-x="1513" d="M35 22v32q0 12 2.5 18t5 7t7.5 1q85 3 105 15.5t20 62.5v90q0 241 22.5 435t67.5 338t117.5 222.5t168.5 78.5q171 0 272 -246v207q0 13 2 16.5t13 3.5h534q9 0 12 -1t5 -5t2 -14v-283q0 -36 -19 -36h-39q-4 0 -6.5 0.5t-4.5 1t-3.5 2l-2 2t-1.5 3.5t-1 4t-0.5 5t-0.5 5 l-12 175q-5 33 -11 38q-4 3 -13 3l-341 -2v-492h235q9 0 12.5 -1t6 -5t2.5 -14v-54q0 -17 -4 -22.5t-19 -5.5h-233v-218q2 -47 2 -141v-105q0 -28 10 -41l355 -1q14 0 17 7.5t7 32.5l12 176q0 1 0.5 4t1 4t1 3.5t1 3.5t2 2.5t3.5 2.5t5 1.5t6 0.5h39q21 0 21 -36v-283 q0 -14 -4 -17t-17 -3h-702q-14 0 -16 2.5t-2 19.5v32q0 11 0.5 15.5t4 7.5t10.5 3q78 3 100.5 13.5t25.5 46.5v108q0 98 -2 145h-538q-2 -47 -2 -145v-77q0 -63 16 -75t98 -14q11 0 15.5 -3.5t5.5 -9t1 -19.5v-24v-13t-1.5 -7t-5.5 -5t-11 -1h-341q-14 0 -16.5 3t-2.5 19z M283 493h529q-18 339 -87 533.5t-178 194.5t-177.5 -194t-86.5 -534z" />
<glyph unicode="&#xc7;" horiz-adv-x="1007" d="M97 640q0 338 130.5 510t372.5 172q178 0 286 -39q18 -5 22 -13t4 -34v-294q0 -16 -3 -19t-15 -3h-58q-12 0 -15.5 3t-3.5 15l-20 259q-73 26 -196 26q-179 0 -282 -147.5t-103 -438.5q0 -288 101 -418t294 -130q113 0 303 43q12 3 17 -0.5t5 -17.5v-43q0 -21 -5.5 -28.5 t-23.5 -12.5q-150 -40 -294 -43l-25 -69q59 -1 86.5 -35.5t27.5 -85.5q0 -81 -43.5 -119.5t-109.5 -38.5q-58 0 -117 22q-20 9 -11 30l13 26q4 9 7.5 10.5t10.5 -1.5q35 -15 80 -15q75 0 75 86q0 63 -95 63q-2 0 -12 -1t-10.5 0.5t-1 7.5t4.5 18l39 106q-219 17 -327 172.5 t-108 476.5z" />
<glyph unicode="&#xc8;" horiz-adv-x="886" d="M93 337q0 73 15 131t37 93.5t55 61.5t62.5 38.5t65.5 21.5q-187 47 -187 315q0 93 25.5 158t73 100t105.5 50.5t133 15.5q155 0 269 -43l10 -5t7 -5t4.5 -4t2 -5.5t0.5 -6v-9.5v-11v-248q0 -16 -2.5 -19t-14.5 -3h-48q-9 0 -12.5 3t-4.5 15l-19 216q-65 24 -186 24 q-53 0 -92.5 -10t-73 -34.5t-50.5 -70.5t-17 -114q0 -138 67 -198t190 -60h105q10 0 14 -5.5t4 -21.5v-44q0 -28 -18 -28h-105q-292 0 -292 -289q0 -138 69.5 -200t213.5 -62q66 0 137 10.5t121 22t51 11.5q9 3 11 0t2 -16v-65q0 -11 -4.5 -15.5t-17.5 -9.5 q-129 -41 -326 -41q-85 0 -149 15.5t-118.5 53t-83.5 110t-29 177.5zM283 1592q-17 26 7 26h82q14 0 21 -4.5t17 -19.5l143 -207q15 -26 -7 -26h-47q-18 0 -45 28z" />
<glyph unicode="&#xc9;" horiz-adv-x="886" d="M93 337q0 73 15 131t37 93.5t55 61.5t62.5 38.5t65.5 21.5q-187 47 -187 315q0 93 25.5 158t73 100t105.5 50.5t133 15.5q155 0 269 -43l10 -5t7 -5t4.5 -4t2 -5.5t0.5 -6v-9.5v-11v-248q0 -16 -2.5 -19t-14.5 -3h-48q-9 0 -12.5 3t-4.5 15l-19 216q-65 24 -186 24 q-53 0 -92.5 -10t-73 -34.5t-50.5 -70.5t-17 -114q0 -138 67 -198t190 -60h105q10 0 14 -5.5t4 -21.5v-44q0 -28 -18 -28h-105q-292 0 -292 -289q0 -138 69.5 -200t213.5 -62q66 0 137 10.5t121 22t51 11.5q9 3 11 0t2 -16v-65q0 -11 -4.5 -15.5t-17.5 -9.5 q-129 -41 -326 -41q-85 0 -149 15.5t-118.5 53t-83.5 110t-29 177.5zM424 1404l122 177q9 14 16 19t21 5h91q13 0 14.5 -8.5t-8.5 -19.5l-164 -184q-12 -15 -34 -15h-48q-12 0 -15.5 6.5t5.5 19.5z" />
<glyph unicode="&#xca;" horiz-adv-x="886" d="M93 337q0 73 15 131t37 93.5t55 61.5t62.5 38.5t65.5 21.5q-187 47 -187 315q0 93 25.5 158t73 100t105.5 50.5t133 15.5q155 0 269 -43l10 -5t7 -5t4.5 -4t2 -5.5t0.5 -6v-9.5v-11v-248q0 -16 -2.5 -19t-14.5 -3h-48q-9 0 -12.5 3t-4.5 15l-19 216q-65 24 -186 24 q-53 0 -92.5 -10t-73 -34.5t-50.5 -70.5t-17 -114q0 -138 67 -198t190 -60h105q10 0 14 -5.5t4 -21.5v-44q0 -28 -18 -28h-105q-292 0 -292 -289q0 -138 69.5 -200t213.5 -62q66 0 137 10.5t121 22t51 11.5q9 3 11 0t2 -16v-65q0 -11 -4.5 -15.5t-17.5 -9.5 q-129 -41 -326 -41q-85 0 -149 15.5t-118.5 53t-83.5 110t-29 177.5zM277 1381q-8 16 8 32l136 158q14 17 35 17h45q21 0 35 -17l136 -158q16 -20 2 -41q-10 -18 -24 -4l-173 131l-170 -131q-5 -4 -9.5 -5t-9 3t-5.5 5.5t-6 9.5z" />
<glyph unicode="&#xcb;" horiz-adv-x="886" d="M93 337q0 73 15 131t37 93.5t55 61.5t62.5 38.5t65.5 21.5q-187 47 -187 315q0 93 25.5 158t73 100t105.5 50.5t133 15.5q155 0 269 -43l10 -5t7 -5t4.5 -4t2 -5.5t0.5 -6v-9.5v-11v-248q0 -16 -2.5 -19t-14.5 -3h-48q-9 0 -12.5 3t-4.5 15l-19 216q-65 24 -186 24 q-53 0 -92.5 -10t-73 -34.5t-50.5 -70.5t-17 -114q0 -138 67 -198t190 -60h105q10 0 14 -5.5t4 -21.5v-44q0 -28 -18 -28h-105q-292 0 -292 -289q0 -138 69.5 -200t213.5 -62q66 0 137 10.5t121 22t51 11.5q9 3 11 0t2 -16v-65q0 -11 -4.5 -15.5t-17.5 -9.5 q-129 -41 -326 -41q-85 0 -149 15.5t-118.5 53t-83.5 110t-29 177.5zM279 1448q0 29 17 49t47 20q27 0 46 -20.5t19 -48.5t-18.5 -47.5t-46.5 -19.5q-30 0 -47 19t-17 48zM547 1448q0 29 18.5 49t48.5 20q27 0 46.5 -20.5t19.5 -48.5t-18.5 -47.5t-48.5 -19.5t-48 19t-18 48 z" />
<glyph unicode="&#xcc;" horiz-adv-x="560" d="M82 22v32q0 10 0.5 14.5t4 8t10.5 3.5q91 3 108.5 16t17.5 79v970q-1 53 -18 63.5t-95 12.5q-11 0 -15.5 3.5t-5.5 9t-1 19.5v24q0 16 3 21t15 5h356q12 0 14 -3.5t2 -18.5v-32q0 -11 -0.5 -15t-3.5 -7.5t-10 -3.5q-86 -3 -106 -14.5t-21 -63.5v-998q1 -45 19 -54t96 -11 q16 0 19.5 -6t3.5 -26v-24q0 -16 -3.5 -21t-17.5 -5h-353q-14 0 -16.5 3.5t-2.5 18.5zM86 1592q-17 26 7 26h82q14 0 20.5 -4.5t16.5 -19.5l144 -207q15 -26 -8 -26h-46q-18 0 -45 28z" />
<glyph unicode="&#xcd;" horiz-adv-x="560" d="M82 22v32q0 10 0.5 14.5t4 8t10.5 3.5q90 3 108 16.5t18 78.5v970q-1 53 -18 63.5t-95 12.5q-11 0 -15.5 3.5t-5.5 9t-1 19.5v24q0 16 3 21t15 5h356q12 0 14 -3.5t2 -18.5v-32q0 -11 -0.5 -15t-3.5 -7.5t-10 -3.5q-86 -3 -106 -14.5t-21 -63.5v-998q1 -45 19 -54t96 -11 q16 0 19.5 -6t3.5 -26v-24q0 -16 -3.5 -21t-17.5 -5h-353q-14 0 -16.5 3.5t-2.5 18.5zM225 1404l121 177q16 24 38 24h91q13 0 14 -8.5t-9 -19.5l-163 -184q-12 -15 -34 -15h-48q-12 0 -15.5 6.5t5.5 19.5z" />
<glyph unicode="&#xce;" horiz-adv-x="560" d="M82 22v32q0 10 0.5 14.5t4 8t10.5 3.5q91 3 108.5 16t17.5 79v970q-1 53 -18 63.5t-95 12.5q-11 0 -15.5 3.5t-5.5 9t-1 19.5v24q0 16 3 21t15 5h356q12 0 14 -3.5t2 -18.5v-32q0 -11 -0.5 -15t-3.5 -7.5t-10 -3.5q-86 -3 -106 -14.5t-21 -63.5v-998q1 -45 19 -54t96 -11 q16 0 19.5 -6t3.5 -26v-24q0 -16 -3.5 -21t-17.5 -5h-353q-14 0 -16.5 3.5t-2.5 18.5zM82 1381q-8 17 7 32l136 158q14 17 36 17h44q22 0 36 -17l136 -158q9 -13 9 -21t-8 -20q-10 -18 -24 -4l-173 131l-169 -131q-5 -4 -9.5 -5t-9 3t-5.5 5.5t-6 9.5z" />
<glyph unicode="&#xcf;" horiz-adv-x="560" d="M82 22v32q0 10 0.5 14.5t4 8t10.5 3.5q91 3 108.5 16t17.5 79v970q-1 53 -18 63.5t-95 12.5q-11 0 -15.5 3.5t-5.5 9t-1 19.5v24q0 16 3 21t15 5h356q12 0 14 -3.5t2 -18.5v-32q0 -11 -0.5 -15t-3.5 -7.5t-10 -3.5q-86 -3 -106 -14.5t-21 -63.5v-998q1 -45 19 -54t96 -11 q16 0 19.5 -6t3.5 -26v-24q0 -16 -3.5 -21t-17.5 -5h-353q-14 0 -16.5 3.5t-2.5 18.5zM82 1448q0 29 16.5 49t46.5 20q27 0 46 -20.5t19 -48.5t-18.5 -47.5t-46.5 -19.5q-30 0 -46.5 19t-16.5 48zM350 1448q0 29 18.5 49t48.5 20q27 0 46 -20.5t19 -48.5t-18.5 -47.5 t-48.5 -19.5t-47.5 19t-17.5 48z" />
<glyph unicode="&#xd0;" horiz-adv-x="1139" d="M82 659v60q0 16 13 16h132v423q0 42 -20 52t-105 13q-11 0 -13.5 4t-2.5 17v39q0 14 2.5 17t13.5 3h365q152 0 263.5 -44.5t179.5 -130.5t100.5 -204.5t32.5 -273.5q0 -327 -136.5 -488.5t-424.5 -161.5h-380q-11 0 -13.5 3.5t-2.5 18.5v32q0 11 0.5 15.5t4 7.5t10.5 3 q79 3 101 13t25 47v502h-130q-9 0 -12 3t-3 14zM344 97h131q225 0 335 135t110 414q0 562 -447 562h-129v-473h218q11 0 11 -13v-61q0 -12 -3.5 -15.5t-12.5 -3.5h-213v-545z" />
<glyph unicode="&#xd1;" horiz-adv-x="1185" d="M82 1249v32q0 14 3.5 18t15.5 4h197q32 0 46 -33l529 -1117v992q0 26 -3 38.5t-16.5 22t-37 12.5t-68.5 5q-7 0 -10 3.5t-3.5 7.5t-0.5 15v32q0 15 2.5 18.5t13.5 3.5h343q12 0 15.5 -5t3.5 -21v-24q0 -20 -3.5 -26t-19.5 -6q-78 -2 -95.5 -13.5t-17.5 -64.5v-1100 q0 -43 -25 -43h-67q-34 0 -46 24l-514 1074v-927q0 -34 1.5 -48t14.5 -25t33 -13t66 -3q16 0 19.5 -6t3.5 -26v-24q0 -16 -3.5 -21t-15.5 -5h-341q-12 0 -14 3.5t-2 18.5v32q0 15 3.5 20.5t14.5 5.5q47 2 67.5 4t34 12.5t15.5 24.5t2 48v989q0 41 -21 51.5t-105 13.5 q-7 0 -10.5 3.5t-4 8t-0.5 14.5zM421 1432q42 97 106 97q37 0 81 -32t64 -32q14 0 23 9.5t20 35.5q5 15 15 9l35 -18q12 -7 6 -23q-40 -100 -104 -100q-38 0 -82 31.5t-60 31.5q-14 0 -23.5 -9.5t-23.5 -35.5q-7 -13 -18 -7l-34 19q-12 8 -5 24z" />
<glyph unicode="&#xd2;" d="M93 652q0 196 54 345t168 237t277 88t277 -88t168 -237t54 -345q0 -197 -54 -346t-168 -237t-277 -88t-277 88t-168 237t-54 346zM216 655q0 -266 100 -418.5t276 -152.5t276 152.5t100 418.5q0 264 -100 414t-276 150q-177 0 -276.5 -150t-99.5 -414zM397 1592 q-17 26 7 26h82q14 0 20.5 -4.5t16.5 -19.5l144 -207q15 -26 -8 -26h-46q-18 0 -45 28z" />
<glyph unicode="&#xd3;" d="M93 652q0 196 54 345t168 237t277 88t277 -88t168 -237t54 -345q0 -197 -54 -346t-168 -237t-277 -88t-277 88t-168 237t-54 346zM216 655q0 -266 100 -418.5t276 -152.5t276 152.5t100 418.5q0 264 -100 414t-276 150q-177 0 -276.5 -150t-99.5 -414zM536 1404l121 177 q9 14 16 19t21 5h92q13 0 14 -8.5t-9 -19.5l-164 -184q-12 -15 -33 -15h-48q-12 0 -15.5 6.5t5.5 19.5z" />
<glyph unicode="&#xd4;" d="M93 652q0 196 54 345t168 237t277 88t277 -88t168 -237t54 -345q0 -197 -54 -346t-168 -237t-277 -88t-277 88t-168 237t-54 346zM216 655q0 -266 100 -418.5t276 -152.5t276 152.5t100 418.5q0 264 -100 414t-276 150q-177 0 -276.5 -150t-99.5 -414zM391 1381 q-8 17 7 32l136 158q14 17 36 17h44q22 0 36 -17l136 -158q15 -18 2 -41q-10 -19 -25 -4l-173 131l-169 -131q-5 -4 -9.5 -5t-9 3t-5.5 5.5t-6 9.5z" />
<glyph unicode="&#xd5;" d="M93 652q0 196 54 345t168 237t277 88t277 -88t168 -237t54 -345q0 -197 -54 -346t-168 -237t-277 -88t-277 88t-168 237t-54 346zM216 655q0 -266 100 -418.5t276 -152.5t276 152.5t100 418.5q0 264 -100 414t-276 150q-177 0 -276.5 -150t-99.5 -414zM430 1432 q42 97 106 97q29 0 56 -16t49 -32t40 -16q14 0 23 9.5t20 35.5q5 15 15 9l36 -18q11 -7 5 -23q-40 -100 -104 -100q-38 0 -82 31.5t-60 31.5q-14 0 -23 -9.5t-23 -35.5q-7 -14 -19 -7l-33 19q-13 9 -6 24z" />
<glyph unicode="&#xd6;" d="M93 652q0 196 54 345t168 237t277 88t277 -88t168 -237t54 -345q0 -197 -54 -346t-168 -237t-277 -88t-277 88t-168 237t-54 346zM216 655q0 -266 100 -418.5t276 -152.5t276 152.5t100 418.5q0 264 -100 414t-276 150q-177 0 -276.5 -150t-99.5 -414zM393 1448 q0 29 16.5 49t46.5 20q27 0 46 -20.5t19 -48.5t-18.5 -47.5t-46.5 -19.5q-30 0 -46.5 19t-16.5 48zM661 1448q0 29 18.5 49t48.5 20q27 0 46 -20.5t19 -48.5t-18.5 -47.5t-48.5 -19.5t-47.5 19t-17.5 48z" />
<glyph unicode="&#xd7;" horiz-adv-x="783" d="M91 754l62 75l236 -280l211 289l67 -67l-213 -289l239 -277l-62 -75l-236 278l-211 -287l-65 67l211 289z" />
<glyph unicode="&#xd8;" d="M93 652q0 196 54 345t168 237t277 88q81 0 158 -24l25 70q8 17 18 17h93q16 0 10 -22l-40 -119q115 -81 175 -235.5t60 -356.5q0 -197 -54 -346t-168 -237t-277 -88q-68 0 -151 23l-35 -108q-4 -13 -21 -13h-95q-15 0 -5 15l50 154q-119 80 -180.5 236t-61.5 364z M216 655q0 -342 158 -489l343 1029q-62 24 -125 24q-177 0 -276.5 -150t-99.5 -414zM475 102q48 -18 117 -18q176 0 276 152.5t100 418.5q0 327 -151 475z" />
<glyph unicode="&#xd9;" horiz-adv-x="1163" d="M63 1253v24q0 16 3.5 21t15.5 5h363q13 0 16 -4t3 -18v-32q0 -17 -2 -21.5t-13 -4.5q-82 -3 -105 -14t-24 -51v-706q0 -179 71 -273.5t205 -94.5q130 0 199 95t69 273v680q0 63 -16.5 75t-99.5 14q-11 0 -15.5 3.5t-5.5 9t-1 19.5v24q0 16 3.5 21t17.5 5h337 q7 0 10.5 -0.5t5.5 -4t2 -6v-11.5v-32q0 -13 -3 -19t-5 -6.5t-7 -0.5q-86 -3 -106 -15.5t-20 -62.5v-693q0 -214 -95 -342.5t-280 -128.5q-189 0 -287 123t-98 348v680q0 63 -16 75t-99 14q-16 0 -19.5 6t-3.5 26zM398 1592q-17 26 8 26h82q14 0 20.5 -4.5t16.5 -19.5 l143 -207q15 -26 -7 -26h-47q-12 0 -20 5.5t-24 22.5z" />
<glyph unicode="&#xda;" horiz-adv-x="1163" d="M63 1253v24q0 16 3.5 21t15.5 5h363q13 0 16 -4t3 -18v-32q0 -17 -2 -21.5t-13 -4.5q-82 -3 -105 -14t-24 -51v-706q0 -179 71 -273.5t205 -94.5q130 0 199 95t69 273v680q0 63 -16.5 75t-99.5 14q-11 0 -15.5 3.5t-5.5 9t-1 19.5v24q0 16 3.5 21t17.5 5h337 q7 0 10.5 -0.5t5.5 -4t2 -6v-11.5v-32q0 -13 -3 -19t-5 -6.5t-7 -0.5q-86 -3 -106 -15.5t-20 -62.5v-693q0 -214 -95 -342.5t-280 -128.5q-189 0 -287 123t-98 348v680q0 63 -16 75t-99 14q-16 0 -19.5 6t-3.5 26zM538 1404l121 177q9 14 16 19t21 5h92q13 0 14 -8.5 t-9 -19.5l-164 -184q-12 -15 -33 -15h-49q-12 0 -15 6.5t6 19.5z" />
<glyph unicode="&#xdb;" horiz-adv-x="1161" d="M63 1253v24q0 16 3.5 21t15.5 5h363q13 0 16 -4t3 -18v-32q0 -17 -2 -21.5t-13 -4.5q-82 -3 -105 -14t-24 -51v-706q0 -179 71 -273.5t205 -94.5q130 0 199 95t69 273v680q0 63 -16.5 75t-99.5 14q-11 0 -15.5 3.5t-5.5 9t-1 19.5v24q0 16 3.5 21t17.5 5h337 q7 0 10.5 -0.5t5.5 -4t2 -6v-11.5v-32q0 -13 -3 -19t-5 -6.5t-7 -0.5q-86 -3 -106 -15.5t-20 -62.5v-693q0 -214 -95 -342.5t-280 -128.5q-189 0 -287 123t-98 348v680q0 63 -16 75t-99 14q-16 0 -19.5 6t-3.5 26zM391 1381q-8 17 7 32l136 158q14 17 36 17h44q22 0 36 -17 l136 -158q15 -18 2 -41q-10 -19 -25 -4l-173 131l-169 -131q-5 -4 -9.5 -5t-9 3t-5.5 5.5t-6 9.5z" />
<glyph unicode="&#xdc;" horiz-adv-x="1163" d="M63 1253v24q0 16 3.5 21t15.5 5h363q13 0 16 -4t3 -18v-32q0 -17 -2 -21.5t-13 -4.5q-82 -3 -105 -14t-24 -51v-706q0 -179 71 -273.5t205 -94.5q130 0 199 95t69 273v680q0 63 -16.5 75t-99.5 14q-11 0 -15.5 3.5t-5.5 9t-1 19.5v24q0 16 3.5 21t17.5 5h337 q7 0 10.5 -0.5t5.5 -4t2 -6v-11.5v-32q0 -13 -3 -19t-5 -6.5t-7 -0.5q-86 -3 -106 -15.5t-20 -62.5v-693q0 -214 -95 -342.5t-280 -128.5q-189 0 -287 123t-98 348v680q0 63 -16 75t-99 14q-16 0 -19.5 6t-3.5 26zM395 1448q0 29 16.5 49t46.5 20q27 0 46 -20.5t19 -48.5 t-18.5 -47.5t-46.5 -19.5q-30 0 -46.5 19t-16.5 48zM663 1448q0 29 18.5 49t48.5 20q27 0 46 -20.5t19 -48.5t-18.5 -47.5t-48.5 -19.5t-47.5 19t-17.5 48z" />
<glyph unicode="&#xdd;" horiz-adv-x="1018" d="M32 1242v43q0 11 3 14.5t12 3.5h337q9 0 11.5 -3.5t2.5 -14.5v-41q0 -23 -16 -23q-61 0 -83.5 -5.5t-22.5 -20.5q0 -92 19.5 -178t57.5 -163.5t73 -133.5t86 -126q42 55 72 98.5t65.5 106t57 119.5t36.5 130t15 147q0 15 -22.5 20.5t-83.5 5.5q-17 0 -17 23v41 q0 18 13 18h324q17 0 17 -18v-43q0 -12 -2.5 -15.5t-12.5 -3.5q-67 -3 -91 -9t-25 -22q-3 -105 -29 -204.5t-72 -188.5t-88.5 -154.5t-102.5 -143.5v-296h2v-28v-38.5t4.5 -25t9.5 -17t20.5 -8t32 -5t48.5 -1.5q16 0 19.5 -6t3.5 -26v-24q0 -16 -3.5 -21t-17.5 -5h-355 q-13 0 -16 4t-3 18v32q0 10 0.5 14.5t4 8t10.5 3.5q91 3 108.5 16t17.5 79v317q-60 79 -102.5 145t-88.5 156.5t-71.5 191.5t-27.5 207q0 15 -25 21.5t-90 9.5q-11 0 -13 3.5t-2 15.5zM464 1404l121 177q9 14 16 19t21 5h91q13 0 14.5 -8.5t-8.5 -19.5l-164 -184 q-12 -15 -34 -15h-48q-12 0 -15 6.5t6 19.5z" />
<glyph unicode="&#xde;" horiz-adv-x="891" d="M80 22v32q0 10 0.5 14.5t4 8t10.5 3.5q91 3 109 16t18 79v951q0 26 -0.5 38t-5 25.5t-9.5 17t-20 8t-31 5l-48 1.5q-11 0 -15.5 3.5t-5.5 9t-1 19.5v24q0 16 3 21t15 5h356q12 0 14.5 -3.5t2.5 -18.5v-32q0 -10 -0.5 -14.5t-4 -8t-10.5 -3.5q-86 -3 -106 -14.5t-21 -63.5 v-108h97q92 0 161.5 -21t111 -55.5t67 -86t34.5 -104t9 -117.5q0 -199 -92.5 -308.5t-275.5 -109.5q-64 0 -112 11v-82q0 -57 17 -68.5t99 -13.5q11 0 15.5 -3.5t5.5 -9t1 -19.5v-24q0 -16 -3.5 -21t-17.5 -5h-353q-14 0 -16.5 3.5t-2.5 18.5zM335 344q19 -13 108 -13 q121 0 187 84.5t66 232.5q0 61 -11 111t-36 94t-72.5 68.5t-114.5 24.5h-127v-602z" />
<glyph unicode="&#xdf;" horiz-adv-x="902" d="M136 24v968q0 168 82 249t221 81q58 0 108 -14.5t92 -46t66.5 -88.5t24.5 -134q0 -66 -15 -119.5t-46 -96.5t-57 -69t-68 -61q149 -55 217.5 -136t68.5 -218q0 -161 -94.5 -250t-268.5 -89h-31q-17 0 -17 15v61q0 14 4 18.5t16 4.5h36q102 0 171 60.5t69 179.5 q0 50 -14.5 91t-35.5 67t-53 48t-60 35.5t-62 27.5q-9 3 -13 5q-17 8 -26.5 13.5t-21.5 14.5t-17.5 19.5t-5.5 22.5q0 16 10 32t20 24.5t29 23.5q29 24 49.5 44t46 53.5t39 78t13.5 96.5q0 102 -49.5 148t-122.5 46q-87 0 -141 -59.5t-54 -177.5v-972q0 -12 -3.5 -16 t-13.5 -4h-73q-14 0 -17 4t-3 20z" />
<glyph unicode="&#xe0;" horiz-adv-x="824" d="M73 209q0 71 21.5 120t56.5 71.5t79.5 37t91 18t91 13t79.5 22t56.5 45.5t21.5 84q0 80 -48.5 127.5t-145.5 47.5q-82 0 -145 -34l-13 -191q0 -10 -3 -13.5t-12 -3.5h-52q-7 0 -10.5 2.5t-4 5.5t-0.5 11v210q0 25 4 36.5t18 17.5q27 19 88.5 33.5t133.5 14.5 q160 0 231.5 -80.5t71.5 -235.5v-335q0 -88 15.5 -118.5t44.5 -30.5q39 0 39 43q0 14 1 19.5t6.5 9.5t18.5 4h17q17 0 21.5 -6t4.5 -22q0 -139 -130 -139q-129 0 -146 160q-38 -80 -110.5 -123t-172.5 -43q-219 0 -219 222zM188 209q0 -70 30 -101.5t93 -31.5q73 0 133.5 45 t92 108t33.5 127l3 109q-17 -32 -48 -50.5t-66 -25.5t-73.5 -11t-73 -12t-63 -23t-45 -48.5t-16.5 -85.5zM207 1281q-17 26 7 26h82q14 0 20.5 -4.5t16.5 -19.5l144 -207q15 -26 -8 -26h-46q-18 0 -45 28z" />
<glyph unicode="&#xe1;" horiz-adv-x="940" d="M78 438q0 97 18.5 176.5t55.5 141t98 95t141 33.5q164 0 236 -137v82q0 20 6 28.5t22 8.5h58q19 0 142 -10q14 0 17 -4.5t3 -19.5v-33q0 -15 -2.5 -19.5t-12.5 -4.5l-85 -2q-40 0 -40 -60v-493q1 -81 16 -108.5t42 -27.5q39 0 39 43q0 22 3.5 27.5t20.5 5.5h17 q19 0 22.5 -4.5t3.5 -23.5q0 -77 -33.5 -108t-94.5 -31q-124 0 -144 147q-65 -149 -242 -149q-152 0 -229.5 123.5t-77.5 323.5zM194 438q0 -70 12.5 -131t37.5 -111.5t68 -80t99 -29.5q104 0 159.5 95t55.5 258q0 161 -54.5 256.5t-160.5 95.5q-73 0 -123.5 -50.5t-72 -128 t-21.5 -174.5zM406 1093l121 177q9 14 16 19t21 5h91q13 0 14.5 -8.5t-8.5 -19.5l-164 -184q-12 -15 -33 -15h-49q-12 0 -15 6.5t6 19.5z" />
<glyph unicode="&#xe2;" horiz-adv-x="824" d="M73 209q0 71 21.5 120t56.5 71.5t79.5 37t91 18t91 13t79.5 22t56.5 45.5t21.5 84q0 80 -48.5 127.5t-145.5 47.5q-82 0 -145 -34l-13 -191q0 -10 -3 -13.5t-12 -3.5h-52q-7 0 -10.5 2.5t-4 5.5t-0.5 11v210q0 25 4 36.5t18 17.5q27 19 88.5 33.5t133.5 14.5 q160 0 231.5 -80.5t71.5 -235.5v-335q0 -88 15.5 -118.5t44.5 -30.5q39 0 39 43q0 14 1 19.5t6.5 9.5t18.5 4h17q17 0 21.5 -6t4.5 -22q0 -139 -130 -139q-129 0 -146 160q-38 -80 -110.5 -123t-172.5 -43q-219 0 -219 222zM188 209q0 -70 30 -101.5t93 -31.5q73 0 133.5 45 t92 108t33.5 127l3 109q-17 -32 -48 -50.5t-66 -25.5t-73.5 -11t-73 -12t-63 -23t-45 -48.5t-16.5 -85.5zM203 1071q-8 16 7 31l136 158q14 17 36 17h44q22 0 36 -17l136 -158q9 -13 9 -20t-7 -21q-10 -18 -25 -3l-173 130l-169 -130q-6 -8 -13 -5t-9 6z" />
<glyph unicode="&#xe3;" horiz-adv-x="824" d="M73 209q0 71 21.5 120t56.5 71.5t79.5 37t91 18t91 13t79.5 22t56.5 45.5t21.5 84q0 80 -48.5 127.5t-145.5 47.5q-82 0 -145 -34l-13 -191q0 -10 -3 -13.5t-12 -3.5h-52q-7 0 -10.5 2.5t-4 5.5t-0.5 11v210q0 25 4 36.5t18 17.5q27 19 88.5 33.5t133.5 14.5 q160 0 231.5 -80.5t71.5 -235.5v-335q0 -88 15.5 -118.5t44.5 -30.5q39 0 39 43q0 14 1 19.5t6.5 9.5t18.5 4h17q17 0 21.5 -6t4.5 -22q0 -139 -130 -139q-129 0 -146 160q-38 -80 -110.5 -123t-172.5 -43q-219 0 -219 222zM188 209q0 -70 30 -101.5t93 -31.5q73 0 133.5 45 t92 108t33.5 127l3 109q-17 -32 -48 -50.5t-66 -25.5t-73.5 -11t-73 -12t-63 -23t-45 -48.5t-16.5 -85.5zM244 1121q42 97 106 97q29 0 56 -16t49 -32t40 -16q14 0 23 9.5t20 35.5q5 15 15 9l35 -18q12 -7 6 -23q-40 -100 -104 -100q-38 0 -82 31.5t-60 31.5q-14 0 -23 -9.5 t-23 -35.5q-7 -14 -19 -7l-34 19q-12 8 -5 24z" />
<glyph unicode="&#xe4;" horiz-adv-x="824" d="M73 209q0 71 21.5 120t56.5 71.5t79.5 37t91 18t91 13t79.5 22t56.5 45.5t21.5 84q0 80 -48.5 127.5t-145.5 47.5q-82 0 -145 -34l-13 -191q0 -10 -3 -13.5t-12 -3.5h-52q-7 0 -10.5 2.5t-4 5.5t-0.5 11v210q0 25 4 36.5t18 17.5q27 19 88.5 33.5t133.5 14.5 q160 0 231.5 -80.5t71.5 -235.5v-335q0 -88 15.5 -118.5t44.5 -30.5q39 0 39 43q0 14 1 19.5t6.5 9.5t18.5 4h17q17 0 21.5 -6t4.5 -22q0 -139 -130 -139q-129 0 -146 160q-38 -80 -110.5 -123t-172.5 -43q-219 0 -219 222zM188 209q0 -70 30 -101.5t93 -31.5q73 0 133.5 45 t92 108t33.5 127l3 109q-17 -32 -48 -50.5t-66 -25.5t-73.5 -11t-73 -12t-63 -23t-45 -48.5t-16.5 -85.5zM205 1138q0 29 16.5 48.5t46.5 19.5q27 0 46 -20t19 -48t-18.5 -47.5t-46.5 -19.5q-30 0 -46.5 19t-16.5 48zM473 1138q0 29 18.5 48.5t48.5 19.5q27 0 46 -20t19 -48 t-18.5 -47.5t-48.5 -19.5t-47.5 19t-17.5 48z" />
<glyph unicode="&#xe5;" horiz-adv-x="824" d="M73 209q0 71 21.5 120t56.5 71.5t79.5 37t91 18t91 13t79.5 22t56.5 45.5t21.5 84q0 80 -48.5 127.5t-145.5 47.5q-82 0 -145 -34l-13 -191q0 -10 -3 -13.5t-12 -3.5h-52q-7 0 -10.5 2.5t-4 5.5t-0.5 11v210q0 25 4 36.5t18 17.5q27 19 88.5 33.5t133.5 14.5 q160 0 231.5 -80.5t71.5 -235.5v-335q0 -88 15.5 -118.5t44.5 -30.5q39 0 39 43q0 14 1 19.5t6.5 9.5t18.5 4h17q17 0 21.5 -6t4.5 -22q0 -139 -130 -139q-129 0 -146 160q-38 -80 -110.5 -123t-172.5 -43q-219 0 -219 222zM188 209q0 -70 30 -101.5t93 -31.5q73 0 133.5 45 t92 108t33.5 127l3 109q-17 -32 -48 -50.5t-66 -25.5t-73.5 -11t-73 -12t-63 -23t-45 -48.5t-16.5 -85.5zM229 1192q0 57 41 95.5t132 38.5q93 0 134 -38.5t41 -95.5q0 -58 -41 -97t-134 -39q-91 0 -132 39t-41 97zM317 1192q0 -29 19 -50t66 -21t66.5 21t19.5 50 q0 28 -19.5 48t-66.5 20t-66 -20t-19 -48z" />
<glyph unicode="&#xe6;" horiz-adv-x="1241" d="M73 195q0 43 8.5 77.5t20.5 57.5t34.5 41.5t41 29t50 19.5t51 12.5t54.5 8.5q39 6 61.5 11t53 18t46.5 30t28 47t12 71q0 42 -6 70t-24 53t-54.5 37.5t-93.5 12.5q-90 0 -138 -26l-11 -173q0 -20 -17 -20h-49q-10 0 -13 4.5t-3 15.5v196q0 25 4 36t16 18q27 17 84 29.5 t128 12.5q210 0 265 -132q80 132 259 132q136 0 204.5 -66t68.5 -192q0 -54 -14 -96.5t-36.5 -71.5t-59.5 -49.5t-73 -31.5t-88.5 -17.5t-95 -8t-102.5 -1.5q-1 0 -9.5 -1t-8.5 1q13 -152 74.5 -213t165.5 -61q46 0 93 12.5t70.5 23t68.5 33.5q11 5 16 0.5t5 -22.5v-30 q0 -21 -4 -29.5t-17 -15.5q-45 -32 -111 -49.5t-134 -17.5q-241 0 -313 216q-32 -103 -107 -159.5t-182 -56.5q-219 0 -219 214zM188 195q0 -124 110 -124q68 0 125 45.5t87 112t30 132.5v88q-23 -46 -67.5 -65t-113.5 -30q-29 -6 -38.5 -7.5t-33.5 -8.5t-33.5 -13 t-25.5 -18t-22.5 -26.5t-12 -36.5t-5.5 -49zM665 438q36 0 54.5 0.5t53 2t53.5 4t49 7.5t47 12t39 17t34.5 24t25 31t17.5 40t5 50q0 81 -44 123t-118 42q-111 0 -163.5 -87.5t-52.5 -265.5z" />
<glyph unicode="&#xe7;" horiz-adv-x="744" d="M78 421q0 229 90.5 346t257.5 117q63 0 118.5 -12.5t84.5 -29.5q14 -7 18.5 -17t4.5 -34v-240q0 -19 -17 -19h-50q-15 0 -15 17l-13 212q-52 28 -121 28q-244 0 -244 -368q0 -100 18.5 -167.5t56 -104t84.5 -51t113 -14.5q77 0 182 35q12 4 17 -2.5t5 -23.5v-41 q0 -12 -4.5 -17t-17.5 -11q-74 -29 -188 -33l-24 -73q59 -1 86 -35.5t27 -85.5q0 -81 -43 -119.5t-109 -38.5q-59 0 -118 22q-20 9 -11 30l13 26q4 9 8 10.5t11 -1.5q35 -15 80 -15q74 0 74 86q0 63 -95 63q-3 0 -12 -1t-9.5 0.5t-1 7.5t4.5 18l39 109q-146 14 -223 112.5 t-77 314.5z" />
<glyph unicode="&#xe8;" horiz-adv-x="768" d="M80 426q0 458 330 458q136 0 204.5 -66t68.5 -192q0 -54 -14 -96.5t-36.5 -71.5t-59.5 -49.5t-73 -31.5t-88.5 -17.5t-95 -8t-102.5 -1.5h-19q13 -152 75 -213t166 -61q46 0 93 12.5t70.5 23t68.5 33.5q11 5 16 0.5t5 -22.5v-30q0 -21 -4 -29.5t-17 -15.5 q-45 -32 -111 -49.5t-134 -17.5q-174 0 -258.5 110.5t-84.5 334.5zM194 438q36 0 54.5 0.5t53 2t53.5 4t49 7.5t47 12t39 17t34.5 24t25 31t17.5 40t5 50q0 81 -44 123t-118 42q-111 0 -163.5 -87.5t-52.5 -265.5zM212 1281q-17 26 8 26h82q14 0 20.5 -4.5t16.5 -19.5 l143 -207q15 -26 -7 -26h-47q-12 0 -20 5.5t-24 22.5z" />
<glyph unicode="&#xe9;" horiz-adv-x="768" d="M80 426q0 458 330 458q136 0 204.5 -66t68.5 -192q0 -54 -14 -96.5t-36.5 -71.5t-59.5 -49.5t-73 -31.5t-88.5 -17.5t-95 -8t-102.5 -1.5h-19q13 -152 75 -213t166 -61q46 0 93 12.5t70.5 23t68.5 33.5q11 5 16 0.5t5 -22.5v-30q0 -21 -4 -29.5t-17 -15.5 q-45 -32 -111 -49.5t-134 -17.5q-174 0 -258.5 110.5t-84.5 334.5zM194 438q36 0 54.5 0.5t53 2t53.5 4t49 7.5t47 12t39 17t34.5 24t25 31t17.5 40t5 50q0 81 -44 123t-118 42q-111 0 -163.5 -87.5t-52.5 -265.5zM352 1093l121 177q9 14 16 19t21 5h91q13 0 14.5 -8.5 t-8.5 -19.5l-164 -184q-12 -15 -33 -15h-49q-12 0 -15 6.5t6 19.5z" />
<glyph unicode="&#xea;" horiz-adv-x="768" d="M80 426q0 458 330 458q136 0 204.5 -66t68.5 -192q0 -54 -14 -96.5t-36.5 -71.5t-59.5 -49.5t-73 -31.5t-88.5 -17.5t-95 -8t-102.5 -1.5h-19q13 -152 75 -213t166 -61q46 0 93 12.5t70.5 23t68.5 33.5q11 5 16 0.5t5 -22.5v-30q0 -21 -4 -29.5t-17 -15.5 q-45 -32 -111 -49.5t-134 -17.5q-174 0 -258.5 110.5t-84.5 334.5zM194 438q36 0 54.5 0.5t53 2t53.5 4t49 7.5t47 12t39 17t34.5 24t25 31t17.5 40t5 50q0 81 -44 123t-118 42q-111 0 -163.5 -87.5t-52.5 -265.5zM207 1071q-8 16 7 31l136 158q14 17 35 17h45q21 0 35 -17 l136 -158q10 -12 10 -20.5t-8 -20.5q-9 -18 -24 -3l-173 130l-170 -130q-13 -7 -17.5 -3.5t-11.5 16.5z" />
<glyph unicode="&#xeb;" horiz-adv-x="768" d="M80 426q0 458 330 458q136 0 204.5 -66t68.5 -192q0 -54 -14 -96.5t-36.5 -71.5t-59.5 -49.5t-73 -31.5t-88.5 -17.5t-95 -8t-102.5 -1.5h-19q13 -152 75 -213t166 -61q46 0 93 12.5t70.5 23t68.5 33.5q11 5 16 0.5t5 -22.5v-30q0 -21 -4 -29.5t-17 -15.5 q-45 -32 -111 -49.5t-134 -17.5q-174 0 -258.5 110.5t-84.5 334.5zM194 438q36 0 54.5 0.5t53 2t53.5 4t49 7.5t47 12t39 17t34.5 24t25 31t17.5 40t5 50q0 81 -44 123t-118 42q-111 0 -163.5 -87.5t-52.5 -265.5zM209 1138q0 29 16.5 48.5t46.5 19.5q27 0 46 -20t19 -48 t-18.5 -47.5t-46.5 -19.5q-30 0 -46.5 19t-16.5 48zM477 1138q0 29 18.5 48.5t48.5 19.5q27 0 46 -20t19 -48t-18.5 -47.5t-48.5 -19.5t-47.5 19t-17.5 48z" />
<glyph unicode="&#xec;" horiz-adv-x="471" d="M35 1281q-17 26 8 26h82q14 0 20.5 -4.5t16.5 -19.5l143 -207q15 -26 -7 -26h-47q-12 0 -20 5.5t-24 22.5zM45 801v29q0 17 3.5 22.5t14.5 5.5q63 8 121 8h71q30 0 30 -36v-597q0 -89 15 -119t44 -30q38 0 38 43q0 22 3.5 27.5t22.5 5.5h16q17 0 21 -4.5t4 -23.5 q0 -77 -34 -108t-93 -31q-71 0 -109 49.5t-38 166.5v508q0 39 -7 47.5t-32 10.5l-78 1q-9 0 -11 5t-2 20z" />
<glyph unicode="&#xed;" horiz-adv-x="471" d="M45 801v29q0 17 3.5 22.5t14.5 5.5q63 8 121 8h71q30 0 30 -36v-597q0 -89 15 -119t44 -30q38 0 38 43q0 22 3.5 27.5t22.5 5.5h16q17 0 21 -4.5t4 -23.5q0 -77 -34 -108t-93 -31q-71 0 -109 49.5t-38 166.5v508q0 39 -7 47.5t-32 10.5l-78 1q-9 0 -11 5t-2 20zM175 1093 l121 177q9 14 16 19t21 5h91q13 0 14.5 -8.5t-8.5 -19.5l-164 -184q-12 -15 -33 -15h-49q-12 0 -15 6.5t6 19.5z" />
<glyph unicode="&#xee;" horiz-adv-x="471" d="M28 1071q-8 16 7 31l136 158q14 17 36 17h44q22 0 36 -17l136 -158q9 -13 9 -20.5t-8 -20.5q-9 -18 -24 -3l-173 130l-169 -130q-6 -8 -13 -5t-9 6zM45 801v29q0 17 3.5 22.5t14.5 5.5q63 8 121 8h71q30 0 30 -36v-597q0 -46 4 -77t13 -46t18.5 -20.5t23.5 -5.5 q38 0 38 43q0 22 3.5 27.5t22.5 5.5h16q9 0 14 -1t7.5 -4.5t3 -8t0.5 -14.5q0 -40 -9.5 -68t-27.5 -43t-40 -21.5t-50 -6.5q-71 0 -109 49.5t-38 166.5v508q0 39 -7 47.5t-32 10.5l-78 1q-9 0 -11 5t-2 20z" />
<glyph unicode="&#xef;" horiz-adv-x="471" d="M30 1138q0 29 16.5 48.5t46.5 19.5q27 0 46 -20t19 -48t-18.5 -47.5t-46.5 -19.5q-30 0 -46.5 19t-16.5 48zM45 801v29q0 17 3.5 22.5t14.5 5.5q63 8 121 8h71q30 0 30 -36v-597q0 -89 15 -119t44 -30q38 0 38 43q0 22 3.5 27.5t22.5 5.5h16q17 0 21 -4.5t4 -23.5 q0 -77 -34 -108t-93 -31q-71 0 -109 49.5t-38 166.5v508q0 39 -7 47.5t-32 10.5l-78 1q-9 0 -11 5t-2 20zM298 1138q0 29 18.5 48.5t48.5 19.5q27 0 46 -20t19 -48t-18.5 -47.5t-48.5 -19.5t-47.5 19t-17.5 48z" />
<glyph unicode="&#xf0;" horiz-adv-x="835" d="M80 398q0 63 9 120t30.5 111t54 93t83.5 62.5t115 23.5q140 0 233 -143q-37 361 -216 493l-63 -147q-8 -9 -17 -4l-56 36q-11 6 -5 18l59 140q-54 22 -121 22h-15q-18 0 -18 26v51q0 22 18 22h15q89 0 162 -26l63 143q6 17 17 6l50 -30q15 -9 10 -24l-58 -134 q150 -88 226 -285t76 -462q0 -120 -19 -215t-57.5 -166.5t-102.5 -109.5t-149 -38q-153 0 -238.5 112.5t-85.5 304.5zM199 406q0 -161 55 -245.5t148 -84.5q106 0 158.5 108.5t52.5 307.5q-30 113 -82.5 167t-135.5 54q-98 0 -147 -83.5t-49 -223.5z" />
<glyph unicode="&#xf1;" horiz-adv-x="932" d="M56 22v32q0 10 0.5 14.5t4 8t10.5 3.5q89 3 106.5 16.5t17.5 78.5v540q0 60 -37 60l-78 1q-8 0 -9.5 3.5t-1.5 17.5v37q0 16 2.5 20t12.5 6q40 1 83 4.5t51 3.5h58q17 0 22 -8.5t5 -29.5v-145q36 101 103.5 150t148.5 49q99 0 148 -66t49 -209v-376q0 -88 15 -118.5 t43 -30.5q41 0 41 43q0 22 3.5 27.5t20.5 5.5h19q16 0 20 -5t4 -23q0 -139 -129 -139q-149 0 -149 216v391q0 105 -28 146.5t-83 41.5q-101 0 -161.5 -104.5t-60.5 -318.5v-188v-38t4.5 -25t9.5 -17.5t20.5 -8t31.5 -5l48 -1.5q11 0 15.5 -3.5t5.5 -9t1 -19.5v-24 q0 -9 -0.5 -12.5t-2 -7.5t-5.5 -5t-11 -1h-350q-7 0 -10.5 0.5t-5.5 4t-2 6v11.5zM350 1121q42 97 106 97q29 0 56 -16t49 -32t40 -16q14 0 23 9.5t20 35.5q5 15 15 9l35 -18q12 -7 6 -23q-40 -100 -104 -100q-38 0 -82 31.5t-60 31.5q-14 0 -23 -9.5t-23 -35.5 q-7 -14 -19 -7l-33 19q-13 9 -6 24z" />
<glyph unicode="&#xf2;" horiz-adv-x="834" d="M76 439q0 88 19 165t58 141t107 101.5t157 37.5q90 0 158 -37.5t107.5 -101.5t58.5 -141t19 -165t-19.5 -165.5t-59 -142t-108 -102.5t-158.5 -38q-72 0 -130 25t-96.5 67.5t-64.5 100.5t-37 121.5t-11 133.5zM190 434q0 -72 12.5 -133t38.5 -110.5t70.5 -78t103.5 -28.5 q78 0 132 50.5t76.5 126.5t22.5 173q0 96 -22.5 173.5t-76 129.5t-130.5 52t-130 -52t-75 -129.5t-22 -173.5zM222 1281q-17 26 7 26h82q14 0 20.5 -4.5t16.5 -19.5l144 -207q15 -26 -8 -26h-46q-18 0 -45 28z" />
<glyph unicode="&#xf3;" horiz-adv-x="834" d="M76 439q0 88 19 165t58 141t107 101.5t157 37.5q90 0 158 -37.5t107.5 -101.5t58.5 -141t19 -165t-19.5 -165.5t-59 -142t-108 -102.5t-158.5 -38q-72 0 -130 25t-96.5 67.5t-64.5 100.5t-37 121.5t-11 133.5zM190 434q0 -72 12.5 -133t38.5 -110.5t70.5 -78t103.5 -28.5 q78 0 132 50.5t76.5 126.5t22.5 173q0 96 -22.5 173.5t-76 129.5t-130.5 52t-130 -52t-75 -129.5t-22 -173.5zM363 1093l121 177q9 14 16 19t21 5h92q13 0 14 -8.5t-9 -19.5l-164 -184q-12 -15 -33 -15h-49q-12 0 -15 6.5t6 19.5z" />
<glyph unicode="&#xf4;" horiz-adv-x="834" d="M76 439q0 88 19 165t58 141t107 101.5t157 37.5q90 0 158 -37.5t107.5 -101.5t58.5 -141t19 -165t-19.5 -165.5t-59 -142t-108 -102.5t-158.5 -38q-72 0 -130 25t-96.5 67.5t-64.5 100.5t-37 121.5t-11 133.5zM190 434q0 -72 12.5 -133t38.5 -110.5t70.5 -78t103.5 -28.5 q78 0 132 50.5t76.5 126.5t22.5 173q0 96 -22.5 173.5t-76 129.5t-130.5 52t-130 -52t-75 -129.5t-22 -173.5zM216 1071q-8 16 7 31l136 158q14 17 36 17h44q22 0 36 -17l136 -158q9 -13 9 -20t-7 -21q-10 -18 -25 -3l-173 130l-169 -130q-6 -8 -13 -5t-9 6z" />
<glyph unicode="&#xf5;" horiz-adv-x="834" d="M76 439q0 88 19 165t58 141t107 101.5t157 37.5q90 0 158 -37.5t107.5 -101.5t58.5 -141t19 -165t-19.5 -165.5t-59 -142t-108 -102.5t-158.5 -38q-72 0 -130 25t-96.5 67.5t-64.5 100.5t-37 121.5t-11 133.5zM190 434q0 -72 12.5 -133t38.5 -110.5t70.5 -78t103.5 -28.5 q78 0 132 50.5t76.5 126.5t22.5 173q0 96 -22.5 173.5t-76 129.5t-130.5 52t-130 -52t-75 -129.5t-22 -173.5zM257 1121q42 97 106 97q29 0 56 -16t49 -32t40 -16q14 0 23 9.5t20 35.5q5 15 15 9l35 -18q12 -7 6 -23q-40 -100 -104 -100q-38 0 -82 31.5t-60 31.5 q-14 0 -23 -9.5t-23 -35.5q-7 -14 -19 -7l-33 19q-13 9 -6 24z" />
<glyph unicode="&#xf6;" horiz-adv-x="834" d="M76 439q0 88 19 165t58 141t107 101.5t157 37.5q90 0 158 -37.5t107.5 -101.5t58.5 -141t19 -165t-19.5 -165.5t-59 -142t-108 -102.5t-158.5 -38q-72 0 -130 25t-96.5 67.5t-64.5 100.5t-37 121.5t-11 133.5zM190 434q0 -72 12.5 -133t38.5 -110.5t70.5 -78t103.5 -28.5 q78 0 132 50.5t76.5 126.5t22.5 173q0 96 -22.5 173.5t-76 129.5t-130.5 52t-130 -52t-75 -129.5t-22 -173.5zM218 1138q0 29 16.5 48.5t46.5 19.5q27 0 46 -20t19 -48t-18.5 -47.5t-46.5 -19.5q-30 0 -46.5 19t-16.5 48zM486 1138q0 29 18.5 48.5t48.5 19.5q27 0 46 -20 t19 -48t-18.5 -47.5t-48.5 -19.5t-47.5 19t-17.5 48z" />
<glyph unicode="&#xf7;" horiz-adv-x="986" d="M115 408v108h756v-108h-756zM402 140q0 31 23.5 52.5t60.5 21.5q36 0 60 -21.5t24 -52.5q0 -30 -24 -50.5t-60 -20.5q-37 0 -60.5 20.5t-23.5 50.5zM402 776q0 33 24 54t60 21t60 -21t24 -54q0 -28 -24.5 -48.5t-59.5 -20.5t-59.5 20.5t-24.5 48.5z" />
<glyph unicode="&#xf8;" horiz-adv-x="834" d="M76 439q0 88 19 165t58 141t107 101.5t157 37.5q63 0 112 -16l50 145q8 17 15 17h65q14 0 8 -21l-64 -180q80 -57 118.5 -161t38.5 -229q0 -88 -19.5 -165.5t-59 -142t-108 -102.5t-158.5 -38q-45 0 -97 13l-46 -134q-4 -13 -21 -13h-63q-13 0 -6 15l58 167 q-83 56 -123.5 163t-40.5 237zM190 434q0 -200 86 -293l219 632q-32 16 -78 16q-77 0 -130 -52t-75 -129.5t-22 -173.5zM350 93q29 -9 65 -9q78 0 132 50.5t76.5 126.5t22.5 173q0 189 -80 285z" />
<glyph unicode="&#xf9;" horiz-adv-x="912" d="M34 802v30q0 16 3.5 21t14.5 5q31 2 50.5 4t25 2.5t15 1t28.5 0.5h73q17 0 22.5 -9t5.5 -30v-535q0 -126 31.5 -170t102.5 -44q101 0 155.5 79.5t54.5 263.5v313q-5 42 -37 42l-80 2q-8 0 -9.5 5t-1.5 19v30q0 16 4 21t14 5q31 2 51.5 4t26 2.5t15 1t28.5 0.5h73 q16 0 21 -9t5 -30v-594q0 -88 15.5 -118.5t44.5 -30.5q39 0 39 43q0 22 3.5 27.5t22.5 5.5h17q18 0 22 -5t4 -23q0 -139 -131 -139q-120 0 -143 143q-69 -149 -236 -149q-115 0 -168.5 71.5t-53.5 237.5v430q0 50 -37 50l-80 2q-8 0 -9.5 5t-1.5 19zM223 1281q-17 26 8 26 h82q14 0 20.5 -4.5t16.5 -19.5l143 -207q15 -26 -7 -26h-47q-12 0 -20 5.5t-24 22.5z" />
<glyph unicode="&#xfa;" horiz-adv-x="912" d="M34 802v30q0 16 3.5 21t14.5 5q31 2 50.5 4t25 2.5t15 1t28.5 0.5h73q17 0 22.5 -9t5.5 -30v-535q0 -126 31.5 -170t102.5 -44q101 0 155.5 79.5t54.5 263.5v313q-5 42 -37 42l-80 2q-8 0 -9.5 5t-1.5 19v30q0 16 4 21t14 5q31 2 51.5 4t26 2.5t15 1t28.5 0.5h73 q16 0 21 -9t5 -30v-594q0 -88 15.5 -118.5t44.5 -30.5q39 0 39 43q0 22 3.5 27.5t22.5 5.5h17q18 0 22 -5t4 -23q0 -139 -131 -139q-120 0 -143 143q-69 -149 -236 -149q-115 0 -168.5 71.5t-53.5 237.5v430q0 50 -37 50l-80 2q-8 0 -9.5 5t-1.5 19zM363 1093l121 177 q9 14 16 19t21 5h92q13 0 14 -8.5t-9 -19.5l-164 -184q-12 -15 -33 -15h-49q-12 0 -15 6.5t6 19.5z" />
<glyph unicode="&#xfb;" horiz-adv-x="912" d="M34 802v30q0 16 3.5 21t14.5 5q31 2 50.5 4t25 2.5t15 1t28.5 0.5h73q17 0 22.5 -9t5.5 -30v-535q0 -126 31.5 -170t102.5 -44q101 0 155.5 79.5t54.5 263.5v313q-5 42 -37 42l-80 2q-8 0 -9.5 5t-1.5 19v30q0 16 4 21t14 5q31 2 51.5 4t26 2.5t15 1t28.5 0.5h73 q16 0 21 -9t5 -30v-594q0 -88 15.5 -118.5t44.5 -30.5q39 0 39 43q0 22 3.5 27.5t22.5 5.5h17q18 0 22 -5t4 -23q0 -139 -131 -139q-120 0 -143 143q-69 -149 -236 -149q-115 0 -168.5 71.5t-53.5 237.5v430q0 50 -37 50l-80 2q-8 0 -9.5 5t-1.5 19zM216 1071q-8 16 7 31 l136 158q14 17 36 17h44q22 0 36 -17l136 -158q9 -13 9 -20t-7 -21q-10 -18 -25 -3l-173 130l-169 -130q-6 -8 -13 -5t-9 6z" />
<glyph unicode="&#xfc;" horiz-adv-x="912" d="M34 802v30q0 16 3.5 21t14.5 5q31 2 50.5 4t25 2.5t15 1t28.5 0.5h73q17 0 22.5 -9t5.5 -30v-535q0 -126 31.5 -170t102.5 -44q101 0 155.5 79.5t54.5 263.5v313q-5 42 -37 42l-80 2q-8 0 -9.5 5t-1.5 19v30q0 16 4 21t14 5q31 2 51.5 4t26 2.5t15 1t28.5 0.5h73 q16 0 21 -9t5 -30v-594q0 -88 15.5 -118.5t44.5 -30.5q39 0 39 43q0 22 3.5 27.5t22.5 5.5h17q18 0 22 -5t4 -23q0 -139 -131 -139q-120 0 -143 143q-69 -149 -236 -149q-115 0 -168.5 71.5t-53.5 237.5v430q0 50 -37 50l-80 2q-8 0 -9.5 5t-1.5 19zM218 1138 q0 29 16.5 48.5t46.5 19.5q27 0 46 -20t19 -48t-18.5 -47.5t-46.5 -19.5q-30 0 -46.5 19t-16.5 48zM486 1138q0 29 18.5 48.5t48.5 19.5q27 0 46 -20t19 -48t-18.5 -47.5t-48.5 -19.5t-47.5 19t-17.5 48z" />
<glyph unicode="&#xfd;" horiz-adv-x="852" d="M45 797v56q0 9 3 11t10 2h303q11 0 11 -15v-52q0 -7 -0.5 -9.5t-3.5 -5t-9 -2.5q-44 -1 -64 -4.5t-23.5 -7.5t-3.5 -14q3 -129 58.5 -332t101.5 -314q91 254 183 637q6 22 -6 28t-76 7q-11 2 -14 4.5t-3 12.5v50q0 17 15 17h283q11 0 13 -3t2 -14v-50q0 -14 -13 -17 q-64 -1 -79 -9t-22 -38q-125 -539 -344 -1050q-20 -38 -42 -48.5t-59 -10.5h-106q-13 0 -15 2t-2 15v44v3q0 6 0.5 8t4 4t10.5 2q13 2 32 4.5t26.5 3.5t19.5 3t16.5 3.5t11.5 5t10.5 7.5t7 9.5t7.5 13.5q71 174 98 246q-14 0 -24 15q-57 114 -130 345t-78 394q0 17 -17.5 22 t-81.5 6q-11 2 -11 15zM389 1093l121 177q9 14 16 19t21 5h92q13 0 14 -8.5t-9 -19.5l-164 -184q-12 -15 -33 -15h-49q-12 0 -15 6.5t6 19.5z" />
<glyph unicode="&#xfe;" horiz-adv-x="862" d="M-4 -300q0 15 3 20.5t12 5.5q86 3 103.5 16t17.5 76l2 433v901q0 60 -37 60l-80 2q-7 0 -9 3.5t-2 16.5v38q0 17 2 21t12 5q40 1 84 4t51 3h57q18 0 23 -8t5 -29v-594q30 101 98.5 155.5t151.5 54.5q143 0 216.5 -124.5t73.5 -325.5q0 -202 -74.5 -327.5t-223.5 -125.5 q-77 0 -143.5 43t-92.5 127v-328q0 -24 1 -38t6 -26t11 -16.5t22.5 -8.5t32.5 -4.5l48 -1.5q8 0 12.5 -1t6.5 -5.5t2.5 -9t0.5 -15.5v-25q0 -16 -3 -21t-17 -5h-354q-14 0 -16.5 4t-2.5 19v31zM249 406q0 -151 53 -242t156 -91q73 0 121 48t68 125t20 182q0 160 -50 259 t-153 99q-105 0 -160 -103t-55 -277z" />
<glyph unicode="&#xff;" horiz-adv-x="852" d="M45 797v56q0 9 3 11t10 2h303q11 0 11 -15v-52q0 -7 -0.5 -9.5t-3.5 -5t-9 -2.5q-44 -1 -64 -4.5t-23.5 -7.5t-3.5 -14q3 -129 58.5 -332t101.5 -314q91 254 183 637q6 22 -6 28t-76 7q-11 2 -14 4.5t-3 12.5v50q0 17 15 17h283q11 0 13 -3t2 -14v-50q0 -14 -13 -17 q-64 -1 -79 -9t-22 -38q-125 -539 -344 -1050q-20 -38 -42 -48.5t-59 -10.5h-106q-13 0 -15 2t-2 15v44v3q0 6 0.5 8t4 4t10.5 2q13 2 32 4.5t26.5 3.5t19.5 3t16.5 3.5t11.5 5t10.5 7.5t7 9.5t7.5 13.5q71 174 98 246q-14 0 -24 15q-57 114 -130 345t-78 394q0 17 -17.5 22 t-81.5 6q-11 2 -11 15zM244 1138q0 29 16.5 48.5t46.5 19.5q27 0 46 -20t19 -48t-18.5 -47.5t-46.5 -19.5q-30 0 -46.5 19t-16.5 48zM512 1138q0 29 18.5 48.5t48.5 19.5q27 0 46 -20t19 -48t-18.5 -47.5t-48.5 -19.5t-47.5 19t-17.5 48z" />
<glyph unicode="&#x152;" horiz-adv-x="1737" d="M93 652q0 196 54 345t168 237t277 88q138 0 240 -62.5t164 -177.5q11 68 40.5 116t74.5 74.5t97.5 38t118.5 11.5q155 0 269 -43l10 -5t7 -5t4.5 -4t2 -5.5t0.5 -6v-9.5v-11v-248q0 -16 -2.5 -19t-14.5 -3h-48q-9 0 -12.5 3t-4.5 15l-19 216q-65 24 -186 24 q-53 0 -92.5 -10t-73 -34.5t-50.5 -70.5t-17 -114q0 -138 67 -198t190 -60h105q10 0 14 -5.5t4 -21.5v-44q0 -28 -18 -28h-105q-292 0 -292 -289q0 -138 69.5 -200t213.5 -62q66 0 137 10.5t121 22t51 11.5q9 3 11 0t2 -16v-65q0 -11 -4.5 -15.5t-17.5 -9.5 q-129 -41 -326 -41q-65 0 -117 8.5t-100 29.5t-83.5 59t-55.5 93q-131 -190 -374 -190q-163 0 -277 88t-168 237t-54 346zM216 655q0 -266 100 -418.5t276 -152.5t276 152.5t100 418.5q0 264 -100 414t-276 150q-177 0 -276.5 -150t-99.5 -414zM1089 724q0 -12 1 -36t1 -36 q33 18 86 31q-48 10 -88 41z" />
<glyph unicode="&#x153;" horiz-adv-x="1334" d="M76 439q0 88 19 165t58 141t107 101.5t157 37.5q191 0 281 -165q78 165 276 165q136 0 204.5 -66t68.5 -192q0 -54 -14 -96.5t-36.5 -71.5t-59.5 -49.5t-73 -31.5t-88.5 -17.5t-95 -8t-102.5 -1.5q-1 0 -9.5 -1t-8.5 1q13 -152 74.5 -213t165.5 -61q46 0 93 12t71.5 23 t68.5 34q11 5 15.5 0.5t4.5 -22.5v-30q0 -21 -3.5 -29.5t-16.5 -15.5q-45 -32 -111.5 -49.5t-134.5 -17.5q-213 0 -294 170q-91 -160 -278 -160q-72 0 -130 25t-96.5 67.5t-64.5 100.5t-37 121.5t-11 133.5zM190 434q0 -72 12.5 -133t38.5 -110.5t70.5 -78t103.5 -28.5 q107 0 164.5 85.5t64.5 219.5v82q-4 88 -28 157.5t-75.5 115t-123.5 45.5q-77 0 -130 -52t-75 -129.5t-22 -173.5zM758 477q2 -13 2 -38v-1q50 1 78 1.5t73.5 4.5t72.5 11.5t59.5 21t50 33t30 49t12.5 67.5q0 81 -44 123t-118 42q-205 0 -216 -314z" />
<glyph unicode="&#x178;" horiz-adv-x="1018" d="M32 1242v43q0 11 3 14.5t12 3.5h337q9 0 11.5 -3.5t2.5 -14.5v-41q0 -23 -16 -23q-61 0 -83.5 -5.5t-22.5 -20.5q0 -92 19.5 -178t57.5 -163.5t73 -133.5t86 -126q42 55 72 98.5t65.5 106t57 119.5t36.5 130t15 147q0 15 -22.5 20.5t-83.5 5.5q-17 0 -17 23v41 q0 18 13 18h324q17 0 17 -18v-43q0 -12 -2.5 -15.5t-12.5 -3.5q-67 -3 -91 -9t-25 -22q-3 -105 -29 -204.5t-72 -188.5t-88.5 -154.5t-102.5 -143.5v-296h2v-28v-38.5t4.5 -25t9.5 -17t20.5 -8t32 -5t48.5 -1.5q16 0 19.5 -6t3.5 -26v-24q0 -16 -3.5 -21t-17.5 -5h-355 q-13 0 -16 4t-3 18v32q0 10 0.5 14.5t4 8t10.5 3.5q91 3 108.5 16t17.5 79v317q-60 79 -102.5 145t-88.5 156.5t-71.5 191.5t-27.5 207q0 15 -25 21.5t-90 9.5q-11 0 -13 3.5t-2 15.5zM320 1448q0 29 17 49t47 20q27 0 46 -20.5t19 -48.5t-18.5 -47.5t-46.5 -19.5 q-30 0 -47 19t-17 48zM588 1448q0 29 18.5 49t48.5 20q27 0 46.5 -20.5t19.5 -48.5t-19 -47.5t-49 -19.5t-47.5 19t-17.5 48z" />
<glyph unicode="&#x2c6;" horiz-adv-x="545" d="M74 1381q-8 16 8 32l136 158q14 17 35 17h45q21 0 35 -17l136 -158q16 -20 2 -41q-10 -18 -24 -4l-173 131l-170 -131q-5 -4 -9.5 -5t-9 3t-5.5 5.5t-6 9.5z" />
<glyph unicode="&#x2dc;" horiz-adv-x="541" d="M106 1428q42 97 106 97q29 0 56 -15.5t49 -31.5t40 -16q14 0 23 9t20 35q6 15 15 10l36 -19q11 -7 5 -22q-40 -101 -104 -101q-38 0 -82 31.5t-60 31.5q-14 0 -23 -9t-23 -35q-8 -14 -19 -8l-33 19q-13 9 -6 24z" />
<glyph unicode="&#x2000;" horiz-adv-x="827" />
<glyph unicode="&#x2001;" horiz-adv-x="1655" />
<glyph unicode="&#x2002;" horiz-adv-x="827" />
<glyph unicode="&#x2003;" horiz-adv-x="1655" />
<glyph unicode="&#x2004;" horiz-adv-x="551" />
<glyph unicode="&#x2005;" horiz-adv-x="413" />
<glyph unicode="&#x2006;" horiz-adv-x="275" />
<glyph unicode="&#x2007;" horiz-adv-x="275" />
<glyph unicode="&#x2008;" horiz-adv-x="206" />
<glyph unicode="&#x2009;" horiz-adv-x="331" />
<glyph unicode="&#x200a;" horiz-adv-x="91" />
<glyph unicode="&#x2010;" horiz-adv-x="742" d="M115 514v58q0 16 13 16h488q13 0 13 -18v-51q0 -22 -16 -22h-485q-13 0 -13 17z" />
<glyph unicode="&#x2011;" horiz-adv-x="742" d="M115 514v58q0 16 13 16h488q13 0 13 -18v-51q0 -22 -16 -22h-485q-13 0 -13 17z" />
<glyph unicode="&#x2012;" horiz-adv-x="742" d="M115 514v58q0 16 13 16h488q13 0 13 -18v-51q0 -22 -16 -22h-485q-13 0 -13 17z" />
<glyph unicode="&#x2013;" horiz-adv-x="1009" d="M115 503v72q0 15 12 15h756q11 0 11 -17v-65q0 -12 -2 -15t-13 -3h-754q-10 0 -10 13z" />
<glyph unicode="&#x2014;" horiz-adv-x="1355" d="M115 503v72q0 15 12 15h1100q13 0 13 -17v-65q0 -11 -2.5 -14.5t-12.5 -3.5h-1100q-10 0 -10 13z" />
<glyph unicode="&#x2018;" horiz-adv-x="363" d="M93 979l97 321q3 14 8 18t16 4h54q20 0 15 -22l-74 -332q-5 -19 -11 -25.5t-23 -6.5h-63q-20 0 -23.5 11t4.5 32z" />
<glyph unicode="&#x2019;" horiz-adv-x="363" d="M95 959l74 331q5 19 11 25.5t23 6.5h63q20 0 23.5 -11t-4.5 -32l-97 -320q-3 -14 -8 -18.5t-16 -4.5h-54q-20 0 -15 23z" />
<glyph unicode="&#x201a;" horiz-adv-x="338" d="M48 -195l75 331q5 20 10.5 26t22.5 6h64q20 0 23 -11t-5 -32l-97 -320q-3 -14 -8 -18.5t-16 -4.5h-54q-20 0 -15 23z" />
<glyph unicode="&#x201c;" horiz-adv-x="575" d="M93 979l97 321q3 14 8 18t16 4h54q20 0 15 -22l-74 -332q-5 -19 -11 -25.5t-23 -6.5h-63q-20 0 -23.5 11t4.5 32zM303 979l97 321q3 14 8 18t16 4h54q20 0 15 -22l-74 -332q-5 -19 -11 -25.5t-23 -6.5h-63q-20 0 -23.5 11t4.5 32z" />
<glyph unicode="&#x201d;" horiz-adv-x="575" d="M95 959l74 331q5 19 11 25.5t23 6.5h63q20 0 23.5 -11t-4.5 -32l-97 -320q-3 -14 -8 -18.5t-16 -4.5h-54q-20 0 -15 23zM303 959l75 331q5 20 10.5 26t22.5 6h64q20 0 23 -11t-5 -32l-96 -320q-3 -14 -8.5 -18.5t-16.5 -4.5h-54q-20 0 -15 23z" />
<glyph unicode="&#x201e;" horiz-adv-x="590" d="M48 -195l75 331q5 20 10.5 26t22.5 6h64q20 0 23 -11t-5 -32l-97 -320q-3 -14 -8 -18.5t-16 -4.5h-54q-20 0 -15 23zM300 -195l74 331q5 19 11 25.5t23 6.5h63q20 0 23.5 -11t-4.5 -32l-97 -320q-3 -14 -8 -18.5t-16 -4.5h-54q-20 0 -15 23z" />
<glyph unicode="&#x2022;" horiz-adv-x="487" d="M149 456q0 32 27.5 54t67.5 22q39 0 67 -22t28 -54q0 -31 -28 -53.5t-67 -22.5q-40 0 -67.5 22.5t-27.5 53.5z" />
<glyph unicode="&#x2026;" horiz-adv-x="1223" d="M106 58q0 27 22 46t54 19q29 0 52 -19.5t23 -45.5q0 -32 -22 -50.5t-53 -18.5q-33 0 -54.5 18t-21.5 51zM536 58q0 26 22 45.5t53 19.5t53.5 -19.5t22.5 -45.5q0 -31 -22 -50t-54 -19t-53.5 19t-21.5 50zM966 56q0 28 22 47.5t53 19.5t52.5 -19.5t21.5 -47.5 q0 -31 -21 -49t-53 -18t-53.5 18t-21.5 49z" />
<glyph unicode="&#x202f;" horiz-adv-x="331" />
<glyph unicode="&#x2039;" horiz-adv-x="530" d="M65 493l302 399q12 20 22 13l52 -39q6 -5 5 -9.5t-10 -18.5l-259 -361l257 -354q13 -18 14.5 -22.5t-5.5 -9.5l-52 -39q-8 -5 -13 -2.5t-13 15.5l-298 387q-12 15 -12.5 21.5t10.5 19.5z" />
<glyph unicode="&#x203a;" horiz-adv-x="530" d="M86 91q-5 5 -3.5 9.5t14.5 22.5l257 354l-259 361q-10 15 -11 18.5t5 9.5l52 39q8 7 23 -13l301 -399q10 -13 10 -20t-11 -21l-298 -387q-10 -13 -14.5 -15.5t-11.5 2.5z" />
<glyph unicode="&#x205f;" horiz-adv-x="413" />
<glyph unicode="&#x20ac;" horiz-adv-x="1187" d="M74 445l38 56q11 17 24 17h113q-3 42 -3 87h-164q-20 0 -8 15l38 56q11 17 24 17h110q11 313 140.5 471t361.5 158q179 0 287 -39q18 -5 22 -13t4 -34v-294q0 -16 -3 -19t-15 -3h-58q-13 0 -16 3t-3 15l-20 259q-73 26 -196 26q-170 0 -272 -133t-113 -397h504 q26 0 8 -21l-45 -52q-15 -15 -28 -15h-439q0 -45 6 -87h385q27 0 9 -21l-44 -52q-15 -15 -30 -15h-309q62 -341 378 -341q113 0 303 43q12 3 17 -0.5t5 -17.5v-43q0 -21 -5.5 -28.5t-23.5 -12.5q-168 -43 -311 -43q-210 0 -330.5 105.5t-155.5 337.5h-177q-20 0 -8 15z" />
<glyph unicode="&#x2122;" horiz-adv-x="1409" d="M125 1097v193q0 9 2.5 11t8.5 2h395q4 0 5.5 -0.5t2.5 -3.5t1 -9v-193q0 -15 -9 -15h-41q-10 0 -10 15l-5 106q0 20 -17 20h-82v-601q1 -24 10 -29.5t42 -7.5q11 0 11 -19v-30v-7t-1 -4.5t-3 -3t-5 -0.5h-199q-6 0 -7.5 2t-1.5 11v34q0 17 7 17q36 2 47.5 8t12.5 29v601 h-84q-15 0 -15 -20l-6 -108q0 -13 -9 -13h-41q-9 0 -9 15zM575 1257v33q0 13 10 13h171q6 0 10 -1.5t6.5 -3t4.5 -6.5t2.5 -7.5t2 -11.5t2.5 -13q15 -104 64.5 -316.5t84.5 -321.5h2q30 98 70 304t60 334q1 5 2.5 15.5t2.5 13t4 7.5t8 6t13 1h167q7 0 8.5 -2.5t1.5 -10.5 v-33q0 -7 -0.5 -10.5t-3 -5t-6.5 -1.5q-38 -3 -48.5 -11.5t-10.5 -35.5v-543q0 -67 37 -67q30 0 30 50v6q0 5 5 5h30q6 0 6 -5v-6q0 -123 -92 -123q-104 0 -104 145v490q-22 -145 -68.5 -343t-74.5 -268q-5 -13 -17 -13h-63q-12 0 -17 13q-34 83 -82.5 263.5t-79.5 336.5 v-497q0 -35 7.5 -42.5t40.5 -9.5q9 0 11.5 -3.5t2.5 -15.5v-30q0 -9 -2 -12t-10 -3h-173q-8 0 -9.5 2t-1.5 11v34q0 17 11 17q33 3 41.5 11.5t8.5 42.5v554q0 28 -10 37t-47 10q-8 0 -8 14v1.5v1.5z" />
<glyph unicode="&#xe000;" horiz-adv-x="865" d="M0 0v866h866v-866h-866z" />
</font>
</defs>
</svg>
