<?xml version="1.0" standalone="no"?>
<!DOCTYPE svg PUBLIC "-//W3C//DTD SVG 1.1//EN" "http://www.w3.org/Graphics/SVG/1.1/DTD/svg11.dtd" >
<svg xmlns="http://www.w3.org/2000/svg">
<metadata></metadata>
<defs>
<font id="quatie_cond_exbold_condexBdIt" horiz-adv-x="1199" >
<font-face units-per-em="2048" ascent="1629" descent="-419" />
<missing-glyph horiz-adv-x="296" />
<glyph unicode="&#xfb01;" horiz-adv-x="1094" d="M-4 22l28 133q3 14 6 18t15 8q45 11 66.5 23.5t31.5 33.5l88 417h-73q-26 0 -17 28l32 157q6 26 30 26h73l13 57q25 115 59 187.5t94 121.5t147.5 69.5t218.5 20.5q191 0 302 -49q14 -6 16 -18t-3 -36l-58 -271q-3 -12 -6.5 -15.5t-14.5 -3.5h-147q-13 0 -16 17l-6 128 q-38 21 -115 21q-49 0 -79.5 -9t-50 -34t-29.5 -54.5t-22 -85.5l-11 -46h471q17 0 9 -30l-78 -365h-2l-35 -171q-11 -43 -8.5 -65.5t8 -29t17.5 -6.5q18 0 27.5 11t16.5 36q5 19 11 24.5t19 5.5h50q15 0 17.5 -9t-2.5 -34q-51 -246 -270 -246q-244 0 -179 316l66 302 q-2 26 -18.5 37.5t-60.5 12.5h-104l-80 -383q-10 -45 11 -62t92 -24q14 -3 16 -10t-2 -25l-28 -125q0 -2 -1 -6t-1 -5.5t-1 -4t-1.5 -3.5t-1.5 -2.5t-2.5 -2t-3.5 -1.5t-4.5 -1h-5.5h-499q-13 0 -15.5 4t0.5 18z" />
<glyph unicode="&#xfb02;" horiz-adv-x="1126" d="M-2 22l28 133q2 10 4.5 14.5t5 6t11.5 5.5q51 14 73.5 29.5t28.5 50.5l84 394h-75q-24 0 -15 28l32 157q6 26 28 26h73l13 57q21 97 57.5 169t81.5 115.5t105 69.5t119.5 35.5t133.5 9.5q125 0 198.5 -24.5t141.5 -78.5q32 -23 21 -68l-184 -870q-9 -35 -5.5 -53.5 t10 -23.5t17.5 -5q18 0 28 11t17 36q5 20 10 25t19 5h49q16 0 19.5 -9t-2.5 -34q-51 -246 -270 -246q-235 0 -185 289l80 379h-231l-81 -385q-9 -47 3 -61t56 -23q15 -5 17 -9.5t-2 -25.5l-28 -125q-3 -17 -6.5 -21.5t-17.5 -4.5h-447q-12 0 -15 4t0 18zM564 866h231l43 197 q-42 30 -112 30q-73 0 -102 -41t-51 -143z" />
<glyph unicode="&#xfb03;" horiz-adv-x="1619" d="M-4 22l26 133q2 10 4.5 14.5t5 6t11.5 5.5q52 14 75 29.5t29 50.5l84 394h-76q-24 0 -15 28l31 157q6 26 28 26h77l7 33q80 365 424 365q91 0 141.5 -10t99.5 -40q60 57 152 82.5t235 25.5q191 0 302 -49q12 -7 15 -18.5t-2 -35.5l-58 -271q-3 -12 -6.5 -15.5t-14.5 -3.5 h-147q-13 0 -16 17l-6 128q-39 21 -115 21q-50 0 -81 -9t-50.5 -34t-29.5 -54.5t-22 -85.5l-11 -46h473q15 0 7 -30l-113 -536q-11 -43 -9 -65.5t8 -29t19 -6.5q18 0 26.5 11t16.5 36q5 19 11 24.5t21 5.5h46q17 0 20 -9t-3 -34q-51 -246 -268 -246q-118 0 -166 74t-13 242 l58 269q10 50 -6.5 66.5t-84.5 16.5h-88l-80 -383q-10 -45 11.5 -62t91.5 -24q14 -3 16 -10t-2 -25l-27 -125q-2 -10 -2.5 -13t-3 -7t-6.5 -5t-11 -1h-499q-12 0 -15 4t0 18l28 133q3 13 6.5 17.5t14.5 8.5q46 11 68 23.5t32 33.5l88 417h-239l-80 -383q-10 -48 2.5 -62.5 t55.5 -23.5q15 -5 17 -9.5t-2 -25.5l-28 -125q-3 -17 -6.5 -21.5t-17.5 -4.5h-451q-10 0 -13 4t0 18zM564 866h238l13 57q11 52 19 79q-53 33 -119 33q-39 0 -64 -8t-41 -29t-23.5 -44t-16.5 -64z" />
<glyph unicode="&#xfb04;" horiz-adv-x="1677" d="M-6 22l28 133q2 10 4.5 14.5t5 6t11.5 5.5q52 14 75 29.5t29 50.5l84 394h-76q-24 0 -15 28l31 157q6 26 28 26h77l7 33q76 347 423 347q95 0 146 -12.5t107 -51.5q67 78 160.5 109t217.5 31q127 0 200.5 -24.5t141.5 -78.5q32 -23 21 -68l-181 -851q-11 -43 -8.5 -65.5 t8.5 -29t19 -6.5q18 0 26.5 11t16.5 36q5 19 11 24.5t20 5.5h47q17 0 20 -9t-3 -34q-51 -246 -268 -246q-237 0 -187 289l80 379h-229l-82 -385q-9 -47 3 -61t55 -23q15 -5 17 -9.5t-2 -25.5l-28 -125q0 -2 -1 -6t-1 -5.5t-1 -4t-1.5 -3.5t-1.5 -2.5t-2.5 -2t-3.5 -1.5 t-4.5 -1h-5.5h-449q-12 0 -15 4t0 18l28 133q2 10 4.5 14.5t5 6t11.5 5.5q52 14 75 29.5t29 50.5l84 394h-267l-80 -383q-10 -48 2.5 -62.5t55.5 -23.5q15 -5 17 -9.5t-2 -25.5l-28 -125q-3 -17 -6.5 -21.5t-17.5 -4.5h-451q-12 0 -15 4t0 18zM564 866h266l23 100 q-63 51 -142 51q-75 0 -100 -27.5t-41 -99.5zM1117 866h229l43 197q-42 30 -112 30q-73 0 -101 -40.5t-50 -143.5z" />
<glyph horiz-adv-x="2048" />
<glyph horiz-adv-x="2048" />
<glyph unicode="&#xd;" horiz-adv-x="2048" />
<glyph unicode=" "  horiz-adv-x="296" />
<glyph unicode="&#x09;" horiz-adv-x="296" />
<glyph unicode="&#xa0;" horiz-adv-x="296" />
<glyph unicode="!" horiz-adv-x="472" d="M48 160q15 72 69.5 121t120.5 49q63 0 98.5 -49.5t20.5 -120.5q-16 -77 -71 -124t-120 -47q-67 0 -100.5 46.5t-17.5 124.5zM140 406l162 914q5 32 42 32h218q25 0 35.5 -6.5t5.5 -27.5l-242 -912q-7 -32 -48 -32h-145q-33 0 -28 32z" />
<glyph unicode="&#x22;" horiz-adv-x="767" d="M184 860l93 440q3 13 6.5 16.5t14.5 3.5h251q17 0 20.5 -6t-1.5 -22l-93 -436q-3 -24 -21 -24h-253q-16 0 -19 6t2 22zM521 860l93 440q3 13 7 16.5t16 3.5h251q17 0 20.5 -6t-1.5 -22l-93 -436q-3 -24 -23 -24h-251q-17 0 -20.5 6t1.5 22z" />
<glyph unicode="#" horiz-adv-x="1031" d="M54 372l39 187h203l67 204h-169l39 187h208l136 363h227l-136 -363h97l136 363h225l-134 -363h134l-39 -187h-175l-69 -204h138l-39 -187h-179l-136 -372h-225l136 372h-97l-136 -372h-223l134 372h-162zM523 559h93l69 204h-99z" />
<glyph unicode="$" horiz-adv-x="1003" d="M11 97l71 337q4 22 12.5 28.5t30.5 6.5h171q16 0 21 -4.5t5 -19.5l-9 -179q6 -5 51.5 -11.5t100.5 -6.5q27 0 52.5 4.5t55.5 16t52 36.5t30 62q10 49 -2 84.5t-41 56.5t-68.5 38.5t-84 30t-88 32t-81 43.5t-63 64.5t-33 95.5t8.5 136q22 111 63.5 185t104.5 114.5 t137 56.5t177 16q287 0 386 -60q19 -12 22.5 -22t-2.5 -32l-67 -316q-5 -24 -13 -29t-30 -5h-167q-9 0 -14 1t-7 5.5t-2 7v11.5l10 169q-22 17 -136 17q-131 0 -151 -103q-8 -42 11 -69.5t56.5 -41t86 -27.5t99.5 -29t96 -45.5t76 -76t40 -121.5t-13 -182q-20 -94 -56 -164 t-81.5 -113t-107.5 -69t-124.5 -35.5t-140.5 -9.5q-119 0 -248 17t-171 41q-35 20 -26 58zM205 -391l89 298q4 11 6 15.5t7.5 7.5t16.5 3h184q12 0 14 -5.5t-1 -16.5l-33 -300q-1 -16 -5 -20t-14 -4h-259q-15 0 -5 22zM629 1404l38 298q0 22 14 22h259q9 0 10.5 -3.5 t-2.5 -18.5l-93 -302q-3 -13 -7.5 -17.5t-17.5 -4.5h-184q-14 0 -16.5 5t-0.5 21z" />
<glyph unicode="%" horiz-adv-x="1941" d="M169 931q17 80 54 148.5t95 124.5t144 88t191 32q84 0 147.5 -21t101 -58t59.5 -87t22 -107.5t-11 -119.5q-17 -80 -55 -149.5t-96.5 -126t-144.5 -89t-190 -32.5q-84 0 -148 21.5t-101 58.5t-59 87.5t-21 108.5t12 121zM387 4q2 11 39 65l924 1199q29 37 49 47.5 t51 10.5h220q17 0 25 -4.5t3.5 -21.5t-28.5 -47l-925 -1205q-34 -44 -59 -56t-73 -12h-162q-38 0 -53 4.5t-11 19.5zM465 931q-21 -97 -4 -150t68 -53q101 0 145 203q41 199 -61 199q-52 0 -90.5 -51.5t-57.5 -147.5zM1117 378q17 80 53.5 148.5t94.5 124.5t143.5 88 t190.5 32q84 0 147.5 -21t101 -58t59.5 -87t22 -107.5t-11 -119.5q-17 -80 -55 -149.5t-96.5 -126t-144.5 -89t-190 -32.5q-84 0 -148 21.5t-100.5 58.5t-58 87.5t-20.5 108.5t12 121zM1411 378q-20 -98 -2.5 -150.5t66.5 -52.5q50 0 88 52.5t59 150.5q20 94 3.5 146.5 t-67.5 52.5q-52 0 -89.5 -51.5t-57.5 -147.5z" />
<glyph unicode="&#x26;" horiz-adv-x="1193" d="M60 343q54 253 208 314q-98 44 -45 306q23 107 61.5 180t91.5 111t109 53t129 15q86 0 166.5 -18t105.5 -36q12 -8 13 -22t-5 -40l-65 -310q-4 -16 -7 -19.5t-10 -3.5h-166q-7 0 -9 3.5t-4 15.5l-4 180q-2 0 -12.5 4t-22.5 4q-66 0 -102 -162q-11 -52 -11.5 -86t9.5 -50 t23 -22t34 -6h257l201 302q21 24 39 24h88q17 0 11 -28l-63 -296h153q17 0 11 -28l-34 -155q-7 -27 -22 -27h-153l-45 -218h-1q-15 -61 -14 -97.5t23 -36.5q24 0 37 20.5t26 64.5q13 28 23 28h52q3 0 6 -3.5t4.5 -10t-1.5 -16.5q-61 -296 -289 -296q-94 0 -141 54 q-69 -19 -174.5 -36.5t-201.5 -17.5q-41 0 -75 4t-69 14.5t-61 27.5t-47 45t-31.5 65t-10 89.5t14.5 116.5zM400 397q-20 -90 0.5 -122.5t77.5 -32.5q90 0 209 37l13 62h2l43 205h-242q-72 0 -103 -149z" />
<glyph unicode="'" horiz-adv-x="428" d="M184 860l90 423q3 13 6 16.5t14 3.5h252q17 0 20 -5.5t-2 -22.5l-89 -419q-3 -24 -21 -24h-253q-16 0 -19 6t2 22z" />
<glyph unicode="(" horiz-adv-x="525" d="M86 557q44 207 169.5 420t301.5 371q13 16 26 4l100 -103q3 -2 4.5 -4.5t3 -4t1.5 -4v-3.5t-1.5 -4l-2 -4t-3.5 -5.5t-4 -5.5q-95 -138 -169 -316.5t-110 -350.5q-22 -104 -34.5 -183t-19.5 -173.5t5 -174t44 -139.5q9 -14 -10 -30l-143 -115q-3 -2 -5.5 -3.5t-4.5 -1.5 h-3.5t-3.5 2l-2.5 2.5t-2.5 3.5t-2 4q-75 109 -116 249t-44 282.5t26 286.5z" />
<glyph unicode=")" horiz-adv-x="525" d="M-61 -153q-9 16 1 30q58 60 103.5 139t78.5 174.5t53 172.5t43 184q37 175 39.5 346.5t-34.5 320.5q-4 12 -2 19t15 16l146 103q19 14 22 -4q110 -158 145.5 -374t-9.5 -417q-46 -215 -173 -435t-307 -383q-9 -9 -13 -11t-15 4z" />
<glyph unicode="*" horiz-adv-x="789" d="M184 990l108 177q6 14 15 6l158 -114l-9 229q-1 6 -0.5 9.5t3 4.5t8.5 1h270q11 0 11.5 -3t-5.5 -13l-108 -228l201 110q10 4 10.5 3.5t2.5 -8.5l41 -175q3 -10 2 -11.5t-9 -3.5l-233 -30l138 -145l2 -2q9 -8 -2 -16q-1 0 -2 -1l-237 -134q-8 -5 -11 9l-30 211l-117 -207 q-7 -10 -10.5 -10.5t-11.5 4.5l-174 125q-8 7 6 19l197 147l-206 30q-13 2 -13 4q-1 3 5 12z" />
<glyph unicode="+" horiz-adv-x="809" d="M48 376l45 207h274l72 339h188l-72 -339h274l-45 -207h-274l-71 -339h-188l71 339h-274z" />
<glyph unicode="," horiz-adv-x="444" d="M-88 -164l157 404q13 33 25.5 42.5t46.5 9.5h215q30 0 33.5 -13t-15.5 -50l-216 -397q-12 -23 -20.5 -29t-25.5 -6h-192q-24 0 -8 39z" />
<glyph unicode="-" horiz-adv-x="633" d="M91 438l36 162q7 26 18 31q6 2 13 2h455q12 0 14.5 -9.5t-1.5 -25.5l-32 -144q-3 -14 -4 -18t-5 -11.5t-9 -9.5t-14 -2h-454q-22 0 -17 25z" />
<glyph unicode="." horiz-adv-x="389" d="M7 160q15 72 69.5 121t120.5 49q64 0 99.5 -49.5t20.5 -120.5q-16 -77 -71.5 -124t-120.5 -47q-67 0 -100.5 46.5t-17.5 124.5z" />
<glyph unicode="/" horiz-adv-x="871" d="M-56 -97l797 1458q13 22 26 22h272q35 0 19 -28l-794 -1452q-6 -11 -12.5 -15.5t-12.5 -5.5t-19 -1h-268q-18 0 -8 22z" />
<glyph unicode="0" horiz-adv-x="1037" d="M115 652q32 148 84 268t123.5 211t168 141t209.5 50q105 0 182.5 -33t123.5 -92t67.5 -143t18.5 -184.5t-29 -217.5q-31 -148 -83 -268.5t-124.5 -211.5t-169 -141t-208.5 -50q-105 0 -182.5 33t-124 92t-67.5 143t-18 184.5t29 218.5zM452 655q-43 -197 -31 -314.5 t78 -117.5t125 115.5t102 316.5q43 196 32 310.5t-77 114.5t-126 -113.5t-103 -311.5z" />
<glyph unicode="1" horiz-adv-x="673" d="M-17 22l26 133q3 14 6 18t15 8q48 12 73 19t55 22.5t36 32.5l158 745q3 14 -7 15t-30 -8l-93 -50q-19 -8 -24.5 -1t-0.5 27l32 155q5 23 26 33l205 108q58 28 132 28h93q22 0 28.5 -7t1.5 -27l-214 -1003q-13 -69 102 -84q14 -4 16.5 -10.5t-1.5 -24.5l-28 -125 q-3 -17 -7 -21.5t-17 -4.5h-570q-10 0 -13 4t0 18z" />
<glyph unicode="2" horiz-adv-x="932" d="M-7 19l46 223q6 18 17 32q120 79 208 147t171 151.5t136 175.5t75 192q15 73 -4.5 100t-66.5 27q-14 0 -25 -1t-21 -3.5t-15 -4t-15.5 -5.5t-14.5 -5l-95 -227q-4 -10 -5.5 -13t-5 -4.5t-11.5 -1.5h-173q-14 0 -16 3t3 20l80 380q6 28 14 40t28 17q216 60 352 60 q39 0 70.5 -2.5t68.5 -8.5t64.5 -18.5t54.5 -31.5t43.5 -48.5t26.5 -67.5t8.5 -91.5t-15.5 -117.5q-36 -178 -172 -348t-366 -320h158q19 0 33.5 20.5t35.5 70.5l24 69q5 11 6 13.5t5.5 8.5t9 7t11.5 1h137q25 0 29 -7.5t-4 -46.5l-82 -384q-3 -14 -7 -17t-16 -3h-774 q-15 0 -11 19z" />
<glyph unicode="3" horiz-adv-x="912" d="M-7 69l46 216q9 34 34 26q12 -3 57 -19t92 -24.5t108 -8.5q89 0 143 31t71 108q15 73 -7.5 103t-74.5 30h-71q-18 0 -11 28l43 202q8 22 15 30l206 261h-149q-12 0 -19 -4t-18.5 -25t-25.5 -64l-30 -99l-3 -6q-8 -20 -18 -23q-4 -1 -10 -1h-138q-23 0 -26.5 6t2.5 35 l83 395q5 23 12.5 30t28.5 7h684q10 0 11.5 -6.5t-2.5 -21.5l-36 -165q-1 -7 -2.5 -12.5t-2.5 -9.5t-3 -8l-3 -6t-4 -6l-4.5 -6t-6.5 -7.5t-7 -8.5l-244 -279h15q79 0 121 -55t43 -148t-23 -216q-19 -87 -64.5 -154.5t-100 -106.5t-122 -64t-125 -33.5t-114.5 -8.5 q-219 0 -341 51q-15 7 -9 37z" />
<glyph unicode="4" horiz-adv-x="927" d="M20 328l293 931q9 28 18 36t38 8h206q21 0 26 -6.5t-1 -30.5l-215 -702h107l117 553q6 32 13 38.5t30 6.5h221q20 0 24.5 -6t1.5 -24l-121 -568h121q18 0 11 -28l-46 -214q-3 -12 -7 -14.5t-14 -2.5h-121q-4 -21 -6.5 -32.5t-3 -24.5t0.5 -19t6 -14t10.5 -11t18 -8 t24.5 -7.5t34 -7.5q12 -3 13.5 -10t-2.5 -22l-28 -129q-1 -2 -1.5 -6t-1 -5l-1.5 -3t-2 -3t-2.5 -2t-4 -1h-5.5h-585q-18 0 -13 19l28 134q0 1 1 4q3 10 5.5 13.5t10.5 4.5q5 1 15 4q41 10 59 15t44.5 12.5t35 11.5t23 11.5t18 13t10 16t8.5 20.5t5 26h-406q-12 0 -13.5 5 t3.5 18z" />
<glyph unicode="5" horiz-adv-x="891" d="M-4 71l41 199q10 34 34 26q17 -4 54.5 -19.5t79.5 -25t97 -9.5q96 0 146.5 32t70.5 124q21 98 -13.5 136t-110.5 38h-250q-21 0 -11 28l197 675q1 4 2.5 9t2 7t2 5t3 4t4.5 2t7 1h620q21 0 27.5 -7.5t2.5 -29.5l-73 -344q-10 -41 -16.5 -49.5t-29.5 -8.5h-142 q-12 0 -14.5 6.5t-0.5 23.5l8 67q5 43 0.5 63t-9 24t-16.5 4h-182l-65 -244h33q81 0 139 -8t106 -28t76 -55t42 -87.5t10 -126.5t-25 -172q-18 -85 -61.5 -150t-96 -102t-120 -60t-125 -30.5t-118.5 -7.5q-197 0 -320 53q-15 7 -6 37z" />
<glyph unicode="6" horiz-adv-x="943" d="M82 506q37 174 110 319.5t180 258t257 175.5t328 63h11q22 0 28.5 -10t1.5 -33l-34 -156q-6 -27 -16.5 -39t-33.5 -12h-9q-263 0 -406 -309q97 86 188 86q74 0 128 -26t84 -69.5t43.5 -104t11 -127.5t-17.5 -142q-37 -184 -165.5 -291.5t-336.5 -107.5q-247 0 -328 130.5 t-24 394.5zM391 419q-42 -205 61 -205q53 0 97.5 50t64.5 144q22 94 3.5 152t-79.5 58q-104 0 -145 -199h-2z" />
<glyph unicode="7" horiz-adv-x="862" d="M22 45l659 990h-253l-71 -208q-11 -24 -18 -27q-5 -3 -15 -3h-155q-8 0 -11 4.5t-2 11t4 19.5l95 451q3 14 7 17t17 3h764q13 0 15 -6.5t-2 -21.5l-43 -206q-7 -22 -23 -47l-642 -968q-25 -38 -39 -46t-54 -8h-221q-24 0 -27 8.5t15 36.5z" />
<glyph unicode="8" horiz-adv-x="958" d="M58 423q23 113 96.5 202.5t199.5 132.5q-123 87 -88 283q11 55 38.5 103t74 89.5t120 65t166.5 23.5q71 0 128 -14.5t94 -41t62 -60.5t35 -75t10.5 -82.5t-9.5 -85.5q-34 -151 -183 -216q97 -53 127.5 -154.5t3.5 -225.5q-15 -73 -53 -138.5t-100 -121.5t-158 -89 t-214 -33q-80 0 -143.5 17.5t-104 49t-67.5 72.5t-37.5 91t-10 101.5t12.5 106.5zM371 406q-18 -83 2 -133.5t87 -50.5t109 50t60 132q9 51 7 93.5t-26 70.5t-68 28q-68 0 -111.5 -53.5t-59.5 -136.5zM527 987q-26 -142 65 -142q50 0 81.5 36.5t43.5 97.5q28 136 -64 136 q-100 0 -126 -128z" />
<glyph unicode="9" horiz-adv-x="934" d="M37 24l34 157q5 26 17 38t35 12h9q130 0 239 66t186 202q-70 -45 -153 -45q-74 0 -127.5 25t-83 67t-42.5 100.5t-10.5 122.5t17.5 136q39 193 165.5 305t329.5 112q459 0 337 -555q-38 -169 -113.5 -310t-187.5 -248.5t-268.5 -167.5t-342.5 -60h-11q-23 0 -29 9.5 t-1 33.5zM477 875q-21 -84 -5 -137t81 -53q39 0 64.5 27.5t54.5 89.5l8 32q29 127 20 192t-65 65q-110 0 -158 -216z" />
<glyph unicode=":" horiz-adv-x="420" d="M19 153q15 71 69.5 120t120.5 49q64 0 99 -49t20 -120q-16 -77 -71.5 -124.5t-120.5 -47.5q-67 0 -100 47t-17 125zM136 706q15 71 69.5 120t120.5 49q64 0 99 -49t20 -120q-16 -77 -70.5 -124.5t-119.5 -47.5q-67 0 -101 47t-18 125z" />
<glyph unicode=";" horiz-adv-x="452" d="M-106 -164l156 404q13 33 26 42.5t47 9.5h214q30 0 34 -13t-15 -50l-216 -397q-12 -23 -21 -29t-26 -6h-192q-12 0 -14 7.5t7 31.5zM184 715q15 71 69.5 120t120.5 49q64 0 99 -49t20 -120q-16 -77 -70.5 -124t-119.5 -47q-67 0 -101 46.5t-18 124.5z" />
<glyph unicode="&#x3c;" horiz-adv-x="843" d="M52 380l41 193l812 352l-52 -244l-421 -204l333 -209l-50 -238z" />
<glyph unicode="=" horiz-adv-x="776" d="M35 153l45 208h637l-45 -208h-637zM115 518l43 204h635l-43 -204h-635z" />
<glyph unicode="&#x3e;" horiz-adv-x="841" d="M4 30l46 223l425 224l-330 221l49 224l662 -350l-41 -190z" />
<glyph unicode="?" horiz-adv-x="835" d="M164 890l67 316q5 22 12 31t31 23q104 60 363 60q65 0 113 -7t88 -24.5t64 -46.5t36.5 -72.5t10 -103.5t-19.5 -139q-15 -72 -39.5 -122.5t-53 -77t-59.5 -45t-61.5 -34.5t-58 -37t-50 -60.5t-34.5 -98.5l-13 -65q-3 -12 -11.5 -19t-17.5 -7l-257 -4q-25 0 -17 32l26 119 q18 85 45 146t56 93t60.5 52.5t61.5 32.5t55.5 25.5t45 39.5t28.5 66q23 104 -69 104q-102 0 -110 -17l-61 -169q-3 -8 -4.5 -11t-5 -7.5t-8.5 -5.5t-14 -1h-171q-11 0 -15.5 0.5t-10 3.5t-4 10t1.5 20zM218 160q15 72 68.5 121t117.5 49q62 0 97 -49.5t20 -120.5 q-16 -77 -71 -124t-119 -47q-66 0 -97.5 46.5t-15.5 124.5z" />
<glyph unicode="@" horiz-adv-x="1349" d="M110 596q35 167 118.5 300.5t197 218t246.5 129t274 44.5q168 0 283 -71.5t159 -197t10 -284.5q-20 -98 -58 -181t-94.5 -149.5t-137.5 -104t-179 -37.5q-62 0 -104.5 25t-53.5 68q-99 -93 -198 -93q-92 0 -136 79t-16 217q17 78 55 152t94 137t135.5 101t167.5 38 q68 0 114.5 -22.5t67 -60.5t26.5 -86t-7 -99q-13 -58 -47 -129t-37 -82q-21 -67 14 -67q42 0 97 89t79 198q37 177 -43 285t-234 108q-213 0 -368.5 -135.5t-208.5 -389.5q-38 -173 -1.5 -285.5t126 -167t225.5 -54.5q119 0 209 18.5t193 73.5q15 5 17.5 2.5t6.5 -15.5 l19 -103q2 -13 -0.5 -20t-16.5 -15q-204 -110 -465 -110q-145 0 -258 43.5t-186 129t-96.5 212t11.5 291.5zM629 572q-15 -64 -3 -103t48 -39q55 0 113.5 87t78.5 176q26 128 -41 128q-62 0 -119.5 -77.5t-76.5 -171.5z" />
<glyph unicode="A" d="M-63 22l28 133q3 11 8.5 17t9.5 6l4 1q55 18 81 33.5t34 40.5l25 108q46 216 108 389.5t141.5 304t179.5 201t213 70.5q272 0 353 -237.5t-25 -727.5l-26 -113q-4 -30 9.5 -43.5t51.5 -18.5q14 -3 16.5 -10t-1.5 -25l-28 -125q-3 -17 -6.5 -21.5t-15.5 -4.5h-514 q-12 0 -15 4t0 18l28 133q3 15 5.5 18.5t14.5 7.5q55 13 83 29.5t36 42.5l28 131h-391l-22 -112q-10 -45 1.5 -62t54.5 -24q14 -3 16.5 -10t-1.5 -25l-28 -125q-3 -17 -7 -21.5t-17 -4.5h-417q-12 0 -14.5 3.5t-0.5 18.5zM439 639h365q25 197 2 310.5t-93 113.5 q-68 0 -140 -112.5t-134 -311.5z" />
<glyph unicode="B" horiz-adv-x="1094" d="M-13 22l28 133q3 15 5.5 18.5t14.5 7.5q99 24 114 72l169 793q5 27 -14.5 45t-68.5 32q-11 4 -12.5 8.5t2.5 17.5l28 132q3 14 7.5 18t15.5 4h458q228 0 325 -89.5t56 -280.5q-40 -186 -177 -229q76 -17 112.5 -66.5t37 -124t-20.5 -174.5q-73 -339 -575 -339h-492 q-11 0 -13.5 4t0.5 18zM449 218h130q84 0 121.5 38.5t53.5 112.5q7 44 8.5 79.5t-27.5 58t-91 22.5h-128zM564 761h52q53 0 89.5 11t58 34.5t32.5 49.5t19 66q19 89 -4 126t-107 37h-71z" />
<glyph unicode="C" horiz-adv-x="1051" d="M112 681q73 331 224 486t427 155q110 0 235.5 -15t159.5 -32q16 -8 18.5 -22t-3.5 -39l-82 -389q-3 -14 -8 -18.5t-16 -4.5h-190q-9 0 -12 3.5t-5 15.5l8 244q-18 7 -24.5 9t-24 4t-48.5 2q-123 0 -205 -100.5t-132 -337.5q-15 -83 -15.5 -144.5t18.5 -105.5t43 -72 t58.5 -44.5t65 -23t61.5 -6.5q33 0 63 1.5t67.5 6.5t55 7.5t68 11t64.5 10.5q12 3 17 -6t0 -24l-36 -167q-7 -41 -39 -54q-130 -51 -333 -51q-292 0 -423 178t-57 522z" />
<glyph unicode="D" horiz-adv-x="1256" d="M-13 22l28 133q3 15 5.5 18.5t14.5 7.5q99 24 114 72l169 793q5 27 -14.5 45t-68.5 32q-11 4 -12.5 8.5t2.5 17.5l28 132q3 14 7.5 18t15.5 4h541q138 0 235.5 -31.5t154 -88t81 -143.5t21 -190t-31.5 -236q-34 -159 -86.5 -269t-137.5 -190t-210.5 -117.5t-298.5 -37.5 h-544q-11 0 -13.5 4t0.5 18zM469 233h116q125 0 220.5 103t138.5 310q46 212 -5 316.5t-179 104.5h-114z" />
<glyph unicode="E" horiz-adv-x="964" d="M43 348q14 66 40 117.5t53 82.5t64 54.5t63.5 34t60.5 20.5q-62 16 -90.5 60.5t-27 109.5t18.5 149q18 83 52 145t77 100t101.5 61t117.5 31.5t133 8.5q118 0 197 -13t158 -43q14 -5 16.5 -19t-3.5 -41l-65 -310q-4 -16 -7 -19.5t-13 -3.5h-160q-8 0 -10.5 3.5t-4.5 15.5 l-8 175q-48 13 -123 13q-30 0 -50.5 -3.5t-47 -15.5t-45 -41t-28.5 -74q-7 -35 -7.5 -60.5t6.5 -42.5t18 -28t29.5 -17t38 -8t47.5 -2h84q23 0 17 -28l-39 -187q-6 -27 -28 -27h-84q-81 0 -130.5 -33t-66.5 -116q-19 -89 26 -122t156 -33q91 0 207 19.5t128 19.5 q11 0 14.5 -5t0.5 -19l-45 -205q-5 -25 -28 -30q-198 -41 -400 -41q-40 0 -76.5 2.5t-75 8.5t-71.5 15.5t-64.5 25t-55.5 35.5t-43 47.5t-28.5 61.5t-9.5 77.5t11 93.5z" />
<glyph unicode="F" horiz-adv-x="977" d="M-15 22l26 133q3 14 6 18t15 8q55 13 83 30t38 44l158 747h-2l9 42q5 29 -14 47t-69 32q-11 4 -12.5 8.5t2.5 17.5l28 132q3 15 6.5 18.5t14.5 3.5h867q9 0 12 -0.5t5.5 -5t-0.5 -14.5l-89 -421q-7 -33 -28 -33h-153q-15 0 -18 6.5t1 20.5l17 140q7 67 2.5 78t-32.5 11 h-223l-73 -342h224q12 0 16.5 -4t1.5 -18l-43 -196q-3 -19 -8 -25.5t-19 -6.5h-224l-46 -221q-10 -44 13 -61t102 -25q15 -1 17 -9t-2 -26l-28 -125q0 -2 -1 -6t-1 -5.5t-1 -4t-1.5 -3.5t-1.5 -2.5t-2.5 -2t-3.5 -1.5t-4.5 -1h-5.5h-546q-10 0 -13 4t0 18z" />
<glyph unicode="G" horiz-adv-x="1189" d="M106 681q66 310 259.5 475.5t472.5 165.5q134 0 224 -16.5t211 -59.5q15 -5 17.5 -20t-3.5 -42l-81 -378q-5 -17 -7.5 -19.5t-16.5 -2.5h-190q-12 0 -14 3t-2 15l5 241q-66 28 -154 28q-125 0 -222 -101.5t-147 -330.5q-43 -209 13.5 -308.5t181.5 -99.5q82 0 148 28 l39 182h-134q-23 0 -17 28l41 196q9 28 30 28h402q24 0 15 -28l-114 -550q-9 -40 -41 -50q-128 -48 -213 -66t-189 -18q-329 0 -457.5 179t-56.5 521z" />
<glyph unicode="H" horiz-adv-x="1293" d="M-22 22l28 133q3 15 5.5 18.5t14.5 7.5q58 15 86 32.5t33 47.5l164 770q10 45 -1.5 62t-54.5 24q-15 3 -17 10t4 25l26 125q1 2 2.5 7.5t2 6.5t1.5 4.5t2.5 4t3.5 2t5 1.5h7h485q11 0 14 -4t0 -18l-28 -132q-3 -13 -6 -17.5t-14 -8.5q-58 -15 -86.5 -31.5t-34.5 -43.5 l-84 -396h332l80 379q10 46 -0.5 62.5t-55.5 23.5q-16 3 -18 10t3 25l26 125q3 10 4 13t3.5 7t6.5 5t10 1h484q12 0 15 -4t0 -18l-28 -132q-3 -13 -6 -17.5t-14 -8.5q-57 -15 -86 -32t-35 -43l-159 -750q-22 -95 32 -95q25 0 42 15t27 63q0 15 15 15h73q14 0 9 -20 q-33 -151 -106.5 -218t-193.5 -67q-269 0 -203 314l24 108h-331l-30 -141q-10 -46 0.5 -62.5t55.5 -23.5q14 -3 16.5 -10t-1.5 -25l-28 -125q-3 -17 -6.5 -21.5t-15.5 -4.5h-484q-12 0 -15 4t0 18z" />
<glyph unicode="I" horiz-adv-x="629" d="M-19 22l28 133q3 14 6 18t15 8q102 24 119 74l164 776q10 45 -1.5 62t-54.5 24q-16 3 -18 10t3 25l26 125q3 10 4 13t3.5 7t6.5 5t10 1h484q13 0 15.5 -4t-0.5 -18l-28 -132q-3 -13 -6 -17.5t-14 -8.5q-56 -15 -84.5 -31.5t-34.5 -43.5l-164 -776q-10 -46 0.5 -62.5 t55.5 -23.5q14 -3 16.5 -10t-1.5 -25l-28 -125q-3 -16 -7 -21t-16 -5h-484q-13 0 -15.5 4t0.5 18z" />
<glyph unicode="J" horiz-adv-x="605" d="M-132 -212q-3 13 3.5 22.5t22.5 20.5l87 67q47 33 67 57t35.5 67t35.5 138l181 853h-2q14 49 4.5 73t-58.5 31q-16 3 -18 10t3 25l26 125q3 10 4 13t4 7t7 5t11 1h484q10 0 13 -4t0 -18l-28 -132q-3 -13 -6 -17.5t-14 -8.5q-57 -15 -86 -32t-35 -43l-211 -988 q-10 -49 -17 -75.5t-23 -58.5t-35.5 -50.5t-57 -45t-85 -50t-122.5 -57.5l-142 -66q-13 -5 -18 -2t-6 17z" />
<glyph unicode="K" horiz-adv-x="1131" d="M-22 22l28 133q3 15 5.5 18.5t14.5 7.5q102 24 119 74l164 776q10 45 -1.5 62t-54.5 24q-15 3 -17 10t4 25l26 125q1 2 2.5 7.5t2 6.5t1.5 4.5t2.5 4t3.5 2t5 1.5h7h485q11 0 14 -4t0 -18l-28 -132q-3 -13 -6 -17.5t-14 -8.5q-58 -15 -86.5 -31.5t-34.5 -43.5l-76 -361 l273 328h-18l15 18q29 42 28 60.5t-32 23.5q-14 4 -17 10.5t2 24.5l26 125q3 10 4 13t3.5 7t6.5 5t10 1h455q10 0 13 -4t0 -18l-28 -132q-3 -14 -6.5 -18.5t-14.5 -7.5q-39 -10 -63 -21l-350 -439h2l89 -356q13 -65 28.5 -89t47.5 -24q8 0 16 1t16.5 3t12.5 3q2 0 6 1t6.5 1 t5.5 0.5t4 0t3 -2t1.5 -4t-0.5 -5.5l-31 -149q-5 -21 -9.5 -27.5t-18.5 -11.5q-64 -23 -159 -23q-39 0 -69 5.5t-52 14t-38.5 26t-28 34.5t-21.5 47.5t-17 57t-17 69.5q0 2 -0.5 3t-1 3t-0.5 3l-95 382l-75 -354q-10 -46 0.5 -62.5t55.5 -23.5q14 -3 16.5 -10t-1.5 -25 l-28 -125q-3 -17 -6.5 -21.5t-15.5 -4.5h-484q-12 0 -15 4t0 18z" />
<glyph unicode="L" horiz-adv-x="996" d="M-19 22l28 133q2 10 3.5 13.5t5 6.5t12.5 6q36 9 58.5 18t37.5 21t21 29l160 764q5 23 7 35.5t1 26t-7.5 20.5t-19 13t-33.5 9q-16 3 -18 10t3 25l26 125q3 10 4 13t3.5 7t6.5 5t10 1h485q13 0 15 -4t-1 -18l-28 -132q-3 -13 -6 -17.5t-14 -8.5q-58 -15 -86 -32.5 t-33 -47.5l-8 -30h-1l-162 -762l255 -2q16 0 30 21.5t35 72.5l24 68q2 4 6 12.5t6 10.5t7 4.5t13 2.5h156q17 0 11 -35l-82 -386q-3 -14 -6.5 -17t-15.5 -3h-894q-12 0 -15 4t0 18z" />
<glyph unicode="M" horiz-adv-x="1740" d="M0 22l28 133q3 12 7.5 16.5t16.5 9.5q49 14 71 31.5t30 57.5l165 774q5 29 -15 46.5t-72 32.5q-10 3 -11.5 8t2.5 18l27 132q3 14 7 18t14 4h573q20 0 28 -7t8.5 -22.5t-2.5 -40.5q-11 -188 -16 -302t-5 -298t13 -315h2q240 466 399 915q3 8 8 21.5t7 18.5t6.5 12.5 t9.5 10t13 5t19 2.5h525q10 0 13 -4t0 -18l-28 -132q-6 -22 -18 -26q-59 -15 -87.5 -33t-33.5 -46l-159 -746q-22 -95 30 -95q25 0 43 15t28 63q0 15 13 15h72q17 0 12 -20q-33 -151 -106.5 -218t-193.5 -67q-271 0 -205 314l123 574q-103 -255 -218 -486.5t-210 -372.5 q-13 -20 -36 -20h-270q-20 0 -27 20q-41 147 -60.5 396.5t-7.5 506.5l-137 -651q-10 -45 1 -62t56 -24q14 -3 16.5 -10t-1.5 -25l-28 -125q-3 -17 -7 -21.5t-17 -4.5h-402q-12 0 -14 4t1 18z" />
<glyph unicode="N" horiz-adv-x="1271" d="M-4 22l28 133q3 12 7.5 16.5t16.5 9.5q48 14 69.5 31.5t29.5 57.5l168 788q5 23 -16 36.5t-70 28.5q-10 4 -11.5 9t2.5 17l28 132q3 14 7 18t15 4h249q17 0 25 -8t16 -25l369 -754l114 528q5 29 -15 47t-73 32q-10 4 -11.5 9t2.5 17l28 132q3 14 7 18t15 4h421 q14 0 17 -5.5t-2 -20.5l-26 -125q-5 -20 -9.5 -26t-20.5 -9q-46 -7 -65 -22t-26 -52l-214 -1000q-9 -43 -32 -43h-121q-32 0 -43 24l-376 752l-106 -504q-10 -45 1.5 -62t54.5 -24q14 -3 16.5 -10t-1.5 -25l-28 -125q-3 -16 -7.5 -21t-17.5 -5h-402q-12 0 -14 4t1 18z" />
<glyph unicode="O" horiz-adv-x="1264" d="M112 704q28 135 85.5 246.5t142 195t202 130t255.5 46.5q111 0 199.5 -24.5t150 -70t101.5 -110t57 -145.5t14 -174t-25 -198q-29 -136 -86.5 -247.5t-142.5 -195.5t-202.5 -130t-257.5 -46q-132 0 -232 35t-161 99t-94 153.5t-32 199.5t26 236zM445 655 q-40 -193 6.5 -304t179.5 -111q118 0 204 111.5t126 303.5q41 190 -6.5 299t-181.5 109q-115 0 -201 -109t-127 -299z" />
<glyph unicode="P" horiz-adv-x="1024" d="M-17 22l28 133q3 14 6 18t15 8q60 15 88 32.5t33 47.5l167 783q5 29 -14.5 47t-70.5 32q-11 4 -12.5 8.5t2.5 17.5l28 132q3 15 6.5 18.5t14.5 3.5h452q119 0 201.5 -25t127.5 -67.5t63.5 -107.5t15.5 -135t-22 -160q-17 -80 -42 -144t-66.5 -124t-96.5 -100t-135.5 -64 t-179.5 -24q-67 0 -110 11l-18 -91q-10 -45 0.5 -62t53.5 -24q14 -3 16 -10t-2 -25l-27 -125q-3 -16 -7 -21t-16 -5h-484q-12 0 -15 4t0 18zM534 607q6 -5 35.5 -9t48.5 -4q55 0 100.5 58.5t70.5 177.5q24 128 0.5 191.5t-80.5 63.5h-74z" />
<glyph unicode="Q" horiz-adv-x="1264" d="M112 704q28 135 85.5 246.5t142 195t202 130t255.5 46.5q111 0 199.5 -24.5t150 -70t101.5 -110t57 -145.5t14 -174t-25 -198q-38 -180 -126.5 -317.5t-221.5 -215.5l17 -54q9 -45 30 -62.5t59 -17.5q16 0 26.5 1t19 3t12.5 3q4 0 5.5 -0.5t2.5 -5t-3 -14.5l-28 -138 q-5 -21 -15 -29.5t-33 -13.5q-51 -18 -149 -18q-115 0 -176 56t-66 180l-2 26q-15 -2 -41 -2q-132 0 -232 35t-161 99t-94 153.5t-32 199.5t26 236zM436 404q21 64 75 102t126 38q84 0 133.5 -41t84.5 -123q74 112 106 275q41 190 -6.5 299t-181.5 109q-115 0 -201 -109 t-127 -299q-31 -153 -9 -251zM527 356q-13 -60 20 -101q40 -15 82 -15q-7 124 -14 154t-30 30q-19 0 -35 -19t-23 -49z" />
<glyph unicode="R" horiz-adv-x="1104" d="M-15 22l28 133q3 14 6 18t15 8q55 13 83 30t38 44l167 795q3 25 -17.5 41.5t-68.5 31.5q-10 4 -11.5 9t2.5 17l28 132q3 15 6.5 18.5t14.5 3.5h469q118 0 199.5 -23t125.5 -62t62.5 -99.5t16 -125.5t-20.5 -150q-61 -283 -236 -391l22 -150q11 -62 30 -85t61 -23 q15 0 23 5q13 4 20 1t4 -18l-15 -135q-6 -31 -13 -36q-5 -5 -20 -9q-74 -21 -166 -21q-56 0 -95.5 12t-64 30.5t-40 55t-23 71.5t-15.5 94l-17 138q-33 0 -95 11l-24 -121q-10 -45 1 -62t54 -24q14 -3 16.5 -10t-1.5 -25l-28 -125q-3 -17 -6.5 -21.5t-15.5 -4.5h-484 q-12 0 -15 4t0 18zM540 637q14 -11 89 -11q59 0 107.5 55t71.5 162q51 242 -95 242h-78z" />
<glyph unicode="S" horiz-adv-x="992" d="M11 97l71 337q4 22 12.5 28.5t30.5 6.5h171q16 0 21 -4.5t5 -19.5l-9 -179q6 -5 51.5 -11.5t100.5 -6.5q27 0 52.5 4.5t55.5 16t52 36.5t30 62q10 49 -2 84.5t-41 56.5t-68.5 38.5t-84 30t-88 32t-81 43.5t-63 64.5t-33 95.5t8.5 136q22 111 63.5 185t104.5 114.5 t137 56.5t177 16q287 0 386 -60q19 -12 22.5 -22t-2.5 -32l-67 -316q-5 -24 -13 -29t-30 -5h-167q-9 0 -14 1t-7 5.5t-2 7v11.5l10 169q-22 17 -136 17q-131 0 -151 -103q-8 -42 11 -69.5t56.5 -41t86 -27.5t99.5 -29t96 -45.5t76 -76t40 -121.5t-13 -182q-20 -94 -56 -164 t-81.5 -113t-107.5 -69t-124.5 -35.5t-140.5 -9.5q-119 0 -248 17t-171 41q-35 20 -26 58z" />
<glyph unicode="T" horiz-adv-x="988" d="M156 927l77 356q3 14 6.5 17t15.5 3h896q7 0 9.5 -0.5t5.5 -2t2 -6t-1 -11.5l-76 -356q-3 -17 -8.5 -25t-17.5 -8h-153q-8 0 -12.5 1t-6 6.5t-1.5 7v13.5l5 74q3 60 -33 60h-60l-162 -766h2q-5 -23 -7 -35.5t-1 -26t7.5 -20.5t19 -13t33.5 -9q14 -3 16.5 -10t-1.5 -25 l-28 -125q-3 -17 -6.5 -21.5t-15.5 -4.5h-484q-13 0 -15.5 4t0.5 18l28 133q3 15 5.5 18.5t14.5 7.5q54 13 82 30t38 44l169 801h-60q-36 0 -59 -60l-24 -74q-5 -16 -11 -22t-21 -6h-153q-22 0 -15 33z" />
<glyph unicode="U" d="M162 510q10 46 51.5 240t63.5 298q4 35 -7 48.5t-50 20.5q-16 3 -18 10t3 25l26 125q3 10 4 13t3.5 7t6.5 5t10 1h514q10 0 13 -4t0 -18l-28 -132q-3 -13 -6 -17.5t-14 -8.5q-57 -15 -86 -31.5t-35 -41.5l-114 -540q-27 -126 8.5 -198t129.5 -72q89 0 159 73.5t96 196.5 l110 521q10 45 -1.5 62t-56.5 24q-15 3 -17 10t4 25l26 125q1 2 2.5 7.5t2 6.5t1.5 4.5t2.5 4t3.5 2t5 1.5h7h404q12 0 14 -4t-1 -18l-28 -132q-3 -11 -8 -17t-8 -6l-4 -1q-60 -20 -86.5 -35t-32.5 -40l-114 -540q-25 -118 -69.5 -212.5t-110.5 -166.5t-159 -111t-206 -39 q-263 0 -365 130.5t-45 398.5z" />
<glyph unicode="V" horiz-adv-x="1145" d="M192 1149l28 132q3 15 6.5 18.5t15.5 3.5h482q14 0 17 -5.5t-2 -20.5l-26 -126q-4 -13 -6 -18t-7.5 -9.5t-16.5 -6.5q-47 -7 -66 -23t-27 -55q-10 -48 -16.5 -99t-10 -89t-2 -95t1 -84t6.5 -92t9 -83t11.5 -92.5t11.5 -86.5h8q10 18 48.5 87.5t50 91.5t44 83.5t46 91 t38 84.5t37.5 94.5t28.5 90t25.5 98.5q8 40 -3.5 55.5t-55.5 22.5q-16 3 -19 10.5t2 23.5l26 126q3 10 4 13t4 7t7 5t11 1h417q14 0 16.5 -4t-1.5 -18l-28 -132q-3 -14 -6 -18.5t-14 -7.5q-66 -17 -91 -30t-31 -43q-30 -142 -90 -292.5t-137 -285.5t-150 -243.5t-151 -208.5 q-15 -20 -37 -20h-189q-22 0 -29 20q-36 99 -63 208t-46.5 244t-16 285.5t33.5 292.5q5 25 -16 41t-73 32q-10 3 -11.5 8t2.5 18z" />
<glyph unicode="W" horiz-adv-x="1841" d="M188 1147l30 134q3 16 5.5 19t14.5 3h510q14 0 17 -5.5t-2 -20.5l-26 -126q-5 -19 -9.5 -25t-21.5 -9q-46 -7 -65.5 -21t-22.5 -44q-56 -362 0 -795h4q232 427 344 795q11 32 -4 45.5t-61 19.5q-16 3 -19 11t2 23l26 126q0 2 1 5q6 17 13 20l12 1h445q14 0 16.5 -4.5 t-1.5 -17.5l-28 -132q-3 -14 -6.5 -19t-15.5 -9q-64 -16 -87 -32q-23 -243 -15 -432t48 -400q237 428 345 795q11 32 -5 45.5t-61 19.5q-15 3 -17.5 11t2.5 23l27 126q6 21 12 24q5 2 14 2h411q13 0 15 -4.5t-2 -17.5l-28 -132q0 -2 -1 -6.5t-1.5 -5.5t-1.5 -4t-2 -4l-3 -3 t-4.5 -3t-6.5 -2q-61 -16 -83 -28.5t-33 -44.5q-75 -244 -227.5 -545t-273.5 -483q-14 -20 -35 -20h-281q-25 0 -30 20q-47 202 -65 483q-136 -280 -261 -483q-12 -20 -35 -20h-285q-23 0 -28 20q-19 82 -36.5 194t-32 260t-14.5 290t16 284q4 28 -14.5 43t-71.5 30 q-7 3 -8 9t1 17z" />
<glyph unicode="X" horiz-adv-x="1070" d="M-32 22l26 133q3 13 7.5 18t15.5 8q47 12 68.5 27t54.5 51l284 318l-165 499q-9 32 -71 47q-10 4 -11.5 9t2.5 17l28 132q0 1 1 4q3 16 10 17l11 1h486q13 0 15.5 -5.5t-2.5 -20.5l-26 -125q-3 -12 -4 -15t-4 -8.5t-8 -7.5t-14 -4q-65 -10 -46 -65l61 -183l145 162 q13 13 21 25.5t11.5 25.5t-5 22.5t-29.5 12.5q-15 4 -17.5 10.5t2.5 24.5l27 125q1 2 2.5 7.5t2 6.5t1.5 4.5t2.5 4t3.5 2t5 1.5h7h381q13 0 15.5 -4t-0.5 -18l-28 -132q-3 -14 -6 -18.5t-14 -7.5q-50 -12 -77.5 -29t-56.5 -50l-328 -364l129 -375q14 -37 20.5 -51.5 t17 -31.5t21.5 -22t28 -5q5 0 22 3t25 1t7 -11l-15 -145q0 -18 -5 -26t-23 -15q-70 -21 -190 -21q-35 0 -62 5t-47 11t-37 22.5t-26.5 27t-22 38.5t-18 43t-18.5 54.5t-20 59.5l-48 143l-101 -113q-29 -29 -32 -50q-9 -29 32 -36q14 -4 16.5 -10.5t-1.5 -24.5l-28 -125 q-3 -17 -6.5 -21.5t-15.5 -4.5h-371q-12 0 -15 4t0 18z" />
<glyph unicode="Y" horiz-adv-x="1081" d="M188 1149l28 132q3 15 6.5 18.5t15.5 3.5h483q14 0 16.5 -5.5t-2.5 -20.5l-26 -126q-4 -14 -5.5 -18.5t-7 -9t-16.5 -6.5q-48 -4 -64.5 -13t-21.5 -32q-24 -118 33 -404h6q215 292 238 404q5 23 -8.5 32t-58.5 13q-16 3 -18 10.5t3 23.5l26 126q6 21 12 24q4 2 13 2h419 q13 0 15 -4t-2 -18l-28 -132q-8 -26 -21 -26q-58 -13 -81 -27t-38 -46q-55 -126 -159 -289t-213 -288l-41 -201q-10 -46 0.5 -62.5t55.5 -23.5q14 -3 16 -10t-2 -25l-27 -125q-3 -16 -7.5 -21t-17.5 -5h-482q-13 0 -15.5 4t0.5 18l28 133q3 14 6 18t15 8q58 15 86 32.5 t33 47.5l31 149q-63 129 -100.5 315t-25.5 325q2 26 -17 42t-71 31q-10 3 -11.5 8t2.5 18z" />
<glyph unicode="Z" horiz-adv-x="971" d="M-11 19l35 173q4 14 15 31l654 848h-207q-26 0 -35.5 -14.5t-29.5 -79.5l-39 -121q-4 -12 -6 -16t-7.5 -7.5t-16.5 -3.5h-155q-12 0 -13.5 9t2.5 24l90 421q3 14 6.5 17t17.5 3h797q14 0 16.5 -6.5t-1.5 -21.5l-34 -156q-6 -29 -22 -47l-650 -839h236q20 0 34 18t31 73 l34 104q4 13 6.5 17.5t8.5 8.5t17 4h154q12 0 13.5 -9.5t-2.5 -24.5l-85 -404q-3 -14 -7 -17t-16 -3h-832q-7 0 -9 3t0 16z" />
<glyph unicode="[" horiz-adv-x="547" d="M-20 -274l340 1598q3 14 6 17t15 3h355q11 3 13 -1.5t-2 -15.5l-31 -147q-1 -11 -5 -13.5t-14 -2.5h-72l-270 -1274h70q12 0 14 -2.5t-1 -15.5l-31 -148q-1 -10 -4.5 -12t-14.5 -2h-361q-7 0 -8.5 2.5t0.5 8.5q1 3 1 5z" />
<glyph unicode="\" horiz-adv-x="852" d="M244 1322h305l201 -1354h-307z" />
<glyph unicode="]" horiz-adv-x="543" d="M-69 -272l30 147q3 13 6 16t13 3h70l272 1273h-71q-11 0 -13.5 3t0.5 16l30 145q3 11 6 14t13 3h361q9 0 10 -4.5t-3 -12.5l-338 -1597q-4 -18 -9 -20q-4 -1 -10 -1h-356q-10 -3 -12 1t1 14z" />
<glyph unicode="^" horiz-adv-x="960" d="M140 823l553 491l340 -491l-249 -183l-171 300l-300 -300z" />
<glyph unicode="_" horiz-adv-x="794" d="M-52 -214l46 214h674l-46 -214h-674z" />
<glyph unicode="`" horiz-adv-x="515" d="M207 1596q-10 14 -6.5 25.5t19.5 11.5h249q23 0 32.5 -8t17.5 -37l47 -160q7 -32 1 -42t-29 -10h-115q-46 0 -77 39z" />
<glyph unicode="a" horiz-adv-x="1027" d="M63 486q19 85 54.5 156t86 126t120 85.5t149.5 30.5q72 0 132.5 -22t88.5 -71q14 75 62 75h41q23 0 53.5 -6.5t94.5 -23.5t111 -28q20 -3 15 -26l-27 -123q-3 -14 -7 -19.5t-13 -6.5l-52 -9q-37 -3 -50 -58l-60 -285q-9 -35 -5.5 -53.5t9.5 -23.5t18 -5q18 0 26.5 11 t16.5 36q5 19 11 24.5t21 5.5h46q17 0 20 -9t-3 -34q-51 -246 -268 -246q-158 0 -186 123q-99 -123 -263 -123q-114 0 -180.5 65.5t-78 176.5t16.5 257zM371 439q-12 -61 -12.5 -111.5t21 -83t59.5 -32.5q61 0 106 61.5t68 167.5q23 101 4 164t-81 63q-56 0 -101 -66.5 t-64 -162.5z" />
<glyph unicode="b" horiz-adv-x="997" d="M-37 22l26 133q3 15 5.5 18.5t14.5 7.5q58 15 86 32.5t33 47.5l162 757q10 54 -26 58l-52 9q-13 0 -7 25l26 123q4 15 9.5 20t16.5 7q219 43 285 43h54q27 0 34 -23.5t-1 -39.5l-106 -499q49 74 118 108.5t145 34.5q96 0 150.5 -64.5t62 -172.5t-19.5 -249 q-39 -184 -144 -296.5t-263 -112.5q-80 0 -137.5 28.5t-60.5 97.5l-15 -72q-4 -15 -5 -19t-5 -12t-10.5 -10t-16.5 -2h-346q-11 0 -13.5 4t0.5 18zM447 423q-21 -92 -5 -150.5t68 -58.5q57 0 102 61.5t64 152.5q21 86 2.5 150t-75.5 64q-52 0 -94 -60.5t-62 -158.5z" />
<glyph unicode="c" horiz-adv-x="813" d="M60 458q43 206 171 316t313 110q97 0 179.5 -15t116.5 -33q14 -7 16.5 -17.5t-3.5 -34.5l-64 -296q-3 -13 -6.5 -16t-13.5 -3h-145q-15 0 -15 17l-4 153q-14 12 -25.5 15t-37.5 3q-60 0 -108.5 -56.5t-70.5 -161.5q-27 -124 13 -173.5t129 -49.5q83 0 229 30q13 3 17 -3 t1 -23l-33 -157q-3 -14 -10 -20t-22 -11q-125 -43 -287 -43q-220 0 -305 116t-35 353z" />
<glyph unicode="d" horiz-adv-x="1007" d="M63 436q43 199 145.5 323.5t247.5 124.5q73 0 128.5 -26.5t76.5 -82.5l52 243q10 54 -26 58l-52 9q-14 0 -8 25l26 123q4 15 10 20t17 7q219 43 283 43h54q50 0 33 -63l-199 -940q-11 -43 -9 -65.5t8 -29t19 -6.5q18 0 27.5 11.5t15.5 35.5q4 30 30 30h50q16 0 20 -9 t-3 -34q-51 -246 -253 -246q-157 0 -175 141q-98 -141 -309 -141q-103 0 -160.5 59.5t-65.5 159.5t17 230zM363 419q-19 -91 1 -150.5t83 -59.5q56 0 98 55t62 149q23 97 5 158.5t-76 61.5q-61 0 -107.5 -61.5t-65.5 -152.5z" />
<glyph unicode="e" horiz-adv-x="863" d="M61 434q48 229 171 339.5t338 110.5q188 0 259.5 -74.5t38.5 -224.5q-16 -77 -47.5 -130.5t-68 -83.5t-91.5 -46.5t-102 -20.5t-116 -4q-60 0 -82 2q27 -92 166 -92q49 0 139.5 23.5t117.5 25.5q3 0 9 1t7 0.5t3.5 -4t-1.5 -12.5l-31 -149q-5 -25 -12 -35t-22 -17 q-55 -28 -142.5 -45t-166.5 -17q-243 0 -329.5 109t-37.5 344zM371 475q30 1 49 2.5t50 8t50.5 17t37 32t23.5 51.5q9 42 -6 64t-41 22q-54 0 -96.5 -51t-66.5 -146z" />
<glyph unicode="f" horiz-adv-x="653" d="M-181 -328l34 153q6 29 26 24q34 -9 61 -9q62 0 87 41t51 162l131 612h-77q-24 0 -15 28l32 157q6 26 28 26h74l12 52q50 232 140.5 318t277.5 86q116 0 177.5 -27t51.5 -74l-57 -271q-3 -14 -6 -16.5t-15 -2.5h-145q-18 0 -15 17l-9 128q-7 19 -23 19q-33 0 -48.5 -36.5 t-38.5 -146.5l-11 -46h162q24 0 18 -28l-31 -155q-9 -28 -32 -28h-162l-130 -618q-28 -128 -62 -207t-87.5 -124.5t-118.5 -61.5t-166 -16q-16 0 -32 1.5t-38 5t-34.5 13.5t-9.5 24z" />
<glyph unicode="g" horiz-adv-x="1003" d="M-17 -272l32 149q4 17 10 21.5t18 2.5q3 -1 39 -9.5t50 -11t44.5 -8.5t56 -8t50.5 -2q91 0 154.5 44.5t96.5 154.5q-97 -74 -247 -74q-102 0 -159 59.5t-65 159.5t17 230q43 200 144.5 324t246.5 124q90 0 150 -38t64 -120l17 76q14 64 61 64h39q23 0 53.5 -6.5 t94.5 -23.5t111 -28q20 -3 15 -26l-26 -123q-3 -14 -7 -19.5t-13 -6.5l-53 -9q-35 -4 -48 -51l-100 -471q-51 -240 -183 -354.5t-365 -114.5q-208 0 -285 45q-12 7 -14.5 15.5t1.5 34.5zM380 419q-21 -85 -1 -147.5t83 -62.5q56 0 98 55t62 149q23 97 5 158.5t-76 61.5 q-61 0 -106.5 -61t-64.5 -153z" />
<glyph unicode="h" horiz-adv-x="1077" d="M-39 22l28 133q3 15 5.5 18.5t14.5 7.5q58 15 86 32.5t33 47.5l164 767q5 46 -24 50l-50 9q-15 2 -9 26l26 123q3 16 7.5 20t16.5 6q57 11 123.5 27t102 23.5t57.5 7.5h41q47 0 33 -63l-104 -492q125 119 302 119q119 0 159.5 -79.5t3.5 -253.5l-52 -251 q-11 -43 -8.5 -65.5t8 -29t17.5 -6.5q19 0 28 11t17 36q5 19 10.5 24.5t19.5 5.5h48q17 0 20 -9t-3 -34q-51 -246 -270 -246q-76 0 -121.5 30t-63.5 100.5t8 185.5l45 205q13 56 8 86.5t-18 41t-39 10.5q-59 0 -109 -69.5t-81 -211.5l-18 -93q-10 -45 1 -62t54 -24 q14 -3 16.5 -10t-1.5 -25l-28 -125q-3 -17 -7 -21.5t-17 -4.5h-465q-13 0 -15.5 4t0.5 18z" />
<glyph unicode="i" horiz-adv-x="575" d="M99 672l26 123q4 16 9 21t15 7q219 43 285 43h56q27 0 33 -24t-2 -40l-106 -502q-11 -43 -8.5 -65.5t8.5 -29t19 -6.5q18 0 26.5 11t16.5 36q5 19 11 24.5t20 5.5h47q17 0 20 -9t-3 -34q-51 -246 -269 -246q-118 0 -165.5 74t-12.5 242l59 278q5 27 -3.5 41.5t-22.5 16.5 l-54 9q-11 0 -5 24zM300 1134q15 71 68 118.5t116 47.5q62 0 97 -48t20 -118q-16 -77 -70 -123.5t-118 -46.5q-65 0 -97 46t-16 124z" />
<glyph unicode="j" horiz-adv-x="517" d="M-171 -147q5 20 9 25t17 5h110q16 0 18 -7.5t-2 -15.5q-3 -14 -1 -22.5t6 -12.5t8 -4q22 0 38 31t33 105l132 624q5 27 -3.5 41.5t-22.5 16.5l-54 9q-11 0 -5 24l26 123q4 16 9.5 21t16.5 7q219 43 281 43h56q20 0 29 -11.5t7.5 -26t-3.5 -26.5l-141 -670 q-17 -80 -31.5 -136t-33.5 -112.5t-40 -93.5t-49.5 -70.5t-63.5 -52t-80.5 -29t-101.5 -10.5q-104 0 -144.5 63.5t-19.5 161.5zM313 1134q15 71 68 118.5t116 47.5q64 0 98 -47.5t19 -118.5q-16 -77 -69.5 -123.5t-118.5 -46.5t-97 46t-16 124z" />
<glyph unicode="k" horiz-adv-x="1033" d="M-39 22l28 133q3 15 5.5 18.5t14.5 7.5q58 15 86 32.5t33 47.5l162 759q12 54 -24 58l-50 9q-15 2 -9 26l26 123q3 15 8 19.5t18 6.5q51 10 126.5 27t113 24t60.5 7h39q47 0 33 -63l-164 -773l125 164q14 20 11 33t-18 13q-17 0 -20 9t3 27l22 110q3 10 4 13t4 7t7 5 t11 1h455q14 0 16 -4.5t-2 -18.5l-26 -119q-5 -20 -12 -23q-3 -1 -8 -1q-94 0 -153 -76l-125 -159l28 -143q6 -43 15 -70t20.5 -39t21 -15.5t23.5 -3.5q15 0 25 3.5t16 11.5t9 14.5t6 18.5q11 30 34 30h48q16 0 18.5 -9.5t-3.5 -35.5q-51 -246 -270 -246q-58 0 -99 14.5 t-67 45t-41 66t-26 87.5l-61 247l-35 -169q-10 -45 1 -62t54 -24q14 -3 16.5 -10t-1.5 -25l-28 -125q-3 -17 -7 -21.5t-17 -4.5h-465q-13 0 -15.5 4t0.5 18z" />
<glyph unicode="l" horiz-adv-x="523" d="M78 303l157 734q5 27 -3.5 41.5t-24.5 14.5l-51 11q-13 0 -7 24l26 123q4 16 9 20.5t17 7.5q229 43 281 43h56q28 0 35 -23t-1 -40l-203 -959q-11 -43 -9 -65.5t8 -29t19 -6.5q18 0 26.5 11t16.5 36q5 19 11 24.5t21 5.5h46q17 0 20 -9t-3 -34q-51 -246 -268 -246 q-118 0 -166 74t-13 242z" />
<glyph unicode="m" horiz-adv-x="1532" d="M-13 22l28 133q3 14 6 18.5t14 7.5q56 15 78.5 31.5t27.5 46.5l69 324q11 52 -24 57l-50 10q-9 1 -10.5 7t2.5 19l27 123q3 16 7.5 20t16.5 6q55 11 122 27t102.5 23.5t58.5 7.5h39q47 0 33 -64l-29 -139q54 107 133.5 155.5t169.5 48.5q155 0 168 -152q111 152 303 152 q113 0 151.5 -81.5t1.5 -258.5l-52 -244q-9 -42 -9 -65.5t6.5 -29.5t18.5 -6q18 0 26.5 11t16.5 36q5 19 11 24.5t21 5.5h48q16 0 18.5 -9t-3.5 -34q-51 -246 -268 -246q-118 0 -166.5 74.5t-14.5 241.5l43 198q16 88 8 116.5t-38 28.5q-50 0 -95.5 -59.5t-73.5 -178.5 l-28 -134q-10 -46 4.5 -63.5t66.5 -24.5q14 -3 16.5 -10t-1.5 -25l-28 -125q-2 -10 -2.5 -13t-3 -7t-6.5 -5t-11 -1h-435q-12 0 -15 4t0 18l28 133q3 14 6 18.5t14 7.5q60 14 71 61l56 259q15 89 6.5 117t-40.5 28q-50 0 -96 -66t-75 -198l-28 -131q-5 -34 0.5 -47t29.5 -16 q14 -5 16.5 -12t-1.5 -25l-28 -125q-3 -17 -6.5 -21.5t-15.5 -4.5h-421q-12 0 -15 4t0 18z" />
<glyph unicode="n" horiz-adv-x="1094" d="M-24 22l28 133q3 15 5.5 18.5t14.5 7.5q59 15 87.5 33t33.5 47l69 322q6 28 -1 41.5t-21 15.5l-51 10q-15 2 -9 26l26 123q3 16 7.5 20t16.5 6q57 11 123.5 27t102 23.5t57.5 7.5h40q49 0 35 -64l-11 -54q125 119 300 119q119 0 159.5 -79.5t3.5 -253.5l-52 -251 q-11 -43 -8.5 -65.5t8.5 -29t19 -6.5q18 0 26.5 11t16.5 36q5 19 11 24.5t20 5.5h47q17 0 20 -9t-3 -34q-51 -246 -268 -246q-118 0 -166 74t-13 242l44 205q14 86 2.5 112t-50.5 26q-58 0 -108.5 -70t-81.5 -211l-18 -93q-10 -45 1 -62t56 -24q14 -3 16.5 -10t-1.5 -25 l-28 -125q-3 -17 -7 -21.5t-17 -4.5h-467q-12 0 -15 4t0 18z" />
<glyph unicode="o" horiz-adv-x="904" d="M60 473q14 66 38 123.5t63 111t89 92t121 61.5t154 23q87 0 154.5 -18.5t111.5 -52.5t72.5 -78.5t39 -99.5t8 -112.5t-14.5 -120.5q-17 -82 -52 -153t-90.5 -131.5t-139 -95.5t-186.5 -35q-87 0 -154.5 19t-111 53.5t-71 79.5t-37.5 100.5t-8.5 113t14.5 120.5zM354 430 q-48 -214 93 -214q56 0 95.5 60t60.5 156q10 59 9.5 108.5t-28 82t-78.5 32.5q-56 0 -94 -63.5t-58 -161.5z" />
<glyph unicode="p" horiz-adv-x="983" d="M-104 -331l26 132q4 19 10 22q3 2 8 4q45 13 67.5 25.5t27.5 33.5l75 345h2l74 352q11 52 -24 57l-50 10q-9 1 -10.5 7t2.5 19l26 123q3 15 8 19.5t17 6.5q57 11 123 27t101.5 23.5t58.5 7.5h39q47 0 33 -64l-24 -117q46 93 124 137.5t165 44.5q96 0 150 -64.5t61 -172.5 t-20 -249q-40 -185 -141.5 -301t-251.5 -116q-70 0 -125 28t-72 90l-39 -181q-9 -41 14 -59.5t73 -26.5q16 -3 18 -10t-3 -25l-26 -125q-3 -16 -7.5 -21t-16.5 -5h-480q-11 0 -13.5 4.5t0.5 18.5zM432 406q-23 -99 -8 -162t68 -63q57 0 101.5 66t65.5 164q24 92 7 161.5 t-76 69.5q-52 0 -93.5 -64.5t-64.5 -171.5z" />
<glyph unicode="q" horiz-adv-x="997" d="M61 486q40 176 146 287t264 111q168 0 222 -93q3 32 18 53.5t43 21.5h41q23 0 53.5 -6.5t94.5 -23.5t111 -28q20 -3 15 -26l-26 -123q-6 -24 -21 -26l-52 -9q-35 -4 -48 -51l-144 -672q-7 -36 5 -50t55 -19q16 -3 18 -10t-3 -25l-26 -125q-3 -16 -7.5 -21t-18.5 -5h-484 q-10 0 -12.5 4.5t0.5 18.5l28 132q3 13 6.5 17.5t14.5 8.5q10 3 33 9t34.5 10t27 11.5t24 19t11.5 26.5l35 158q-92 -74 -216 -74q-114 0 -180.5 65.5t-78 176.5t16.5 257zM369 439q-12 -61 -11.5 -111.5t21.5 -83t59 -32.5q61 0 105.5 61.5t67.5 167.5q23 101 4 164t-81 63 q-56 0 -101 -66.5t-64 -162.5z" />
<glyph unicode="r" horiz-adv-x="876" d="M-22 22l28 133q3 15 5.5 18.5t14.5 7.5q59 15 87.5 33t33.5 47l69 322q12 53 -24 57l-49 10q-15 2 -9 26l26 123q3 16 7.5 20t16.5 6q55 11 122.5 27t103 23.5t57.5 7.5h39q26 0 34 -18.5t2 -45.5l-26 -123q109 188 283 188q81 0 132 -33q20 -14 11 -54l-76 -361 q-3 -13 -6.5 -16t-14.5 -3h-160q-9 0 -12 2.5t-3 14.5l4 169q-6 6 -11 6q-132 0 -201 -246l-28 -132q1 -21 15 -30.5t48 -14.5q14 -3 16.5 -10t-1.5 -25l-28 -125q-3 -17 -7 -21.5t-17 -4.5h-467q-12 0 -15 4t0 18z" />
<glyph unicode="s" horiz-adv-x="828" d="M-13 71l45 216q5 25 12.5 31t26.5 6h145q17 0 22 -6t4 -24l-6 -80q38 -17 118 -17q75 0 101.5 11.5t32.5 39.5q4 22 -18 36t-59.5 21t-84 18.5t-90 28t-77 49t-46.5 82t2 126.5q14 68 39.5 116t60.5 79t87.5 48.5t113 24.5t144.5 7q223 0 298 -41q16 -7 20 -14t-1 -23 l-54 -199q-6 -24 -15.5 -29.5t-31.5 -5.5h-123q-16 0 -22.5 6t-6.5 22l2 61q-28 17 -101 17q-56 0 -83.5 -9.5t-33.5 -39.5q-4 -20 18.5 -33t60 -19.5t83.5 -17.5t89.5 -27.5t76.5 -49t46 -82.5t-2 -128q-19 -87 -53 -142t-92 -86t-130 -42t-181 -11q-85 0 -187 10.5 t-130 28.5q-28 17 -20 41z" />
<glyph unicode="t" horiz-adv-x="696" d="M86 683l31 155q6 28 28 28h121l194 270q18 24 43 24h82q22 0 16 -28l-57 -266h210q23 0 17 -28l-32 -155q-8 -28 -30 -28h-210l-73 -346q-25 -115 45 -115q81 0 97 83q6 28 28 28h54q23 0 17 -28q-32 -157 -111 -226.5t-212 -69.5q-128 0 -188.5 71t-28.5 224l13 65h1 l68 314h-108q-24 0 -15 28z" />
<glyph unicode="u" horiz-adv-x="1063" d="M95 689l22 106q3 11 7 16.5t7.5 7.5t11.5 4q226 43 281 43h54q27 0 34.5 -24t-0.5 -40l-102 -484q-15 -86 -4.5 -112.5t48.5 -26.5q58 0 108.5 66.5t79.5 203.5l38 177q-5 22 -28 29l-52 10q-13 4 -8 24l22 106q3 11 7 16.5t7.5 7.5t11.5 4q226 43 282 43h54q27 0 34 -24 t-1 -40l-24 -119h2l-91 -428q-4 -33 3 -44.5t23 -11.5q18 0 27.5 11t16.5 36q5 19 11 24.5t19 5.5h47q17 0 21 -9t-3 -34q-51 -246 -270 -246q-169 0 -190 147q-59 -76 -121 -110.5t-150 -34.5q-146 0 -197 78t-14 255l54 251h2l6 25q9 50 -26 57l-54 10q-11 3 -6 24z" />
<glyph unicode="v" horiz-adv-x="973" d="M101 713l27 136q3 12 6 14.5t13 2.5h434q13 0 15.5 -4t-0.5 -17l-28 -130q-3 -16 -7 -20.5t-19 -7.5q-35 -7 -50.5 -21.5t-14.5 -41.5q-6 -195 26 -376h3q106 178 190 376q15 28 6 41t-43 22q-15 3 -17 8t2 20l28 130q0 2 1 5q2 12 5 14t16 2h365q11 0 13 -3.5t-1 -13.5 l-28 -136q-5 -18 -19 -22q-45 -14 -63 -27.5t-32 -43.5q-46 -115 -167 -326t-181 -281q-9 -13 -28 -13h-263q-20 0 -26 13q-29 70 -61 281t-30 326q0 63 -67 63q-10 0 -5 30z" />
<glyph unicode="w" horiz-adv-x="1433" d="M99 713l28 136q5 17 18 17h423q13 0 15.5 -4t-0.5 -17l-28 -130q-3 -16 -7 -20.5t-21 -7.5q-52 -10 -58 -45q-1 -3 0.5 -9t1.5 -9q-17 -186 13 -376q37 67 74 144t67.5 145.5t39.5 86.5q2 4 3 11t2 9q9 31 -41 43q-14 3 -16.5 7t1.5 17l28 134q3 13 7 17t18 4h351 q11 0 12.5 -3.5t-2.5 -13.5l-28 -136q-3 -11 -5.5 -14.5t-11.5 -7.5l-24 -10q0 -22 -1 -96t0 -107t7 -98.5t18 -131.5q38 67 73 140.5t69.5 152t36.5 83.5q1 1 7 20q8 31 -39 43q-15 3 -17 7t2 17l28 134q0 2 1 5.5t1.5 5t1 3.5t1.5 3t2.5 2t3.5 1t4.5 0.5t6.5 0.5h352 q12 0 14.5 -3.5t-1.5 -13.5l-28 -136q-3 -10 -6 -14t-12 -8q-42 -16 -58.5 -28.5t-30.5 -42.5q-49 -116 -166 -329.5t-170 -279.5q-11 -13 -28 -13h-266q-15 0 -22 13q-14 38 -47 231q-117 -207 -137 -231q-13 -13 -30 -13h-263q-15 0 -22 13q-26 69 -53 282t-25 327 q0 25 -12.5 40.5t-47.5 30.5q-7 5 -8.5 8.5t1.5 13.5z" />
<glyph unicode="x" horiz-adv-x="970" d="M-34 22l27 134q3 14 8.5 20t18.5 6q50 3 86 21.5t80 53.5l147 128l-80 203q-7 19 -20 31.5t-33.5 18.5t-33.5 8t-38 4q-10 2 -11.5 5.5t2.5 24.5l30 137q3 16 6.5 21t17.5 9q87 19 145 19q105 0 159 -35.5t80 -119.5l29 -108l32 26q22 22 19 41q-1 8 -10 8 q-17 0 -19.5 8.5t3.5 26.5l26 127q3 10 4 13t4 7t7 5t11 1h372q14 0 16.5 -4.5t-1.5 -18.5l-30 -134q-1 -10 -2 -14.5t-5 -8t-11 -3.5q-33 -2 -63.5 -14.5t-45.5 -23t-48 -36.5l-175 -153l34 -134q19 -78 39 -103t45 -25q18 0 29.5 6.5t15.5 13t9 20t7 17.5q11 23 26 23h50 q16 0 18.5 -9.5t-3.5 -35.5q-54 -248 -268 -248q-58 0 -98.5 14.5t-66.5 46t-40 64.5t-29 86l-14 52l-11 -9q-11 -10 -12.5 -21.5t1.5 -18.5l2 -7q17 0 20 -8.5t-3 -26.5l-28 -127q-3 -17 -6.5 -21.5t-17.5 -4.5h-391q-11 0 -13 4t1 18z" />
<glyph unicode="y" horiz-adv-x="968" d="M37 -369l28 127q3 15 6.5 19.5t12.5 4.5q80 9 104 21t54 54l101 143h-56q-17 0 -24 13q-32 62 -63 274t-31 333q2 24 -13 40t-52 31q-10 7 -5 22l28 136q0 2 1 5t1.5 4l1.5 3t2 2.5t2.5 1.5t4 1h5.5h434q13 0 15.5 -4t-0.5 -17l-28 -130q-3 -16 -7 -20.5t-19 -7.5 q-36 -7 -51 -21.5t-14 -41.5q-7 -212 20 -373q74 129 194 378q13 25 9 36t-33 22q-24 8 -27 14q-2 6 1 18l22 110q4 22 13.5 29.5t29.5 7.5h329q24 0 28.5 -7t-0.5 -27l-22 -102q-5 -17 -10.5 -23.5t-26.5 -17.5q-35 -12 -50 -25.5t-30 -45.5q-130 -264 -254 -476t-296 -464 q-29 -37 -57.5 -53t-81.5 -16h-179q-15 0 -17.5 2.5t0.5 19.5z" />
<glyph unicode="z" horiz-adv-x="882" d="M-13 28l20 102q9 39 16 51.5t27 32.5l445 464h-115q-17 0 -24.5 -6t-14.5 -28l-28 -95q-5 -17 -12 -22.5t-25 -5.5h-133q-13 0 -18.5 1.5t-10.5 9.5t1 25l60 281q6 28 32 28h698q24 0 18 -28l-22 -103q-6 -31 -14.5 -48.5t-31.5 -42.5l-432 -456h147q26 0 37 34l30 96 q5 18 12 24t23 6h132q21 0 25.5 -5.5t-0.5 -31.5l-58 -283q-8 -28 -28 -28h-736q-26 0 -20 28z" />
<glyph unicode="{" horiz-adv-x="584" d="M60 445l35 166q3 10 7 13.5t15 6.5q28 9 48 27t32.5 47.5t19 51t14.5 60.5l46 220q14 64 35.5 114.5t57.5 96.5t93 71t131 25h151q6 0 8.5 -0.5t6 -4.5t1.5 -13l-29 -140q-10 -34 -28 -34h-4q-52 0 -78 -27.5t-39 -89.5l-43 -199q-29 -137 -68 -202.5t-137 -106.5 q42 -21 65 -47.5t28.5 -67.5t0.5 -82.5t-19 -109.5l-43 -200q-13 -62 1 -89.5t66 -27.5h4q19 0 14 -33l-29 -140q-4 -19 -25 -19h-150q-254 0 -187 308l47 219q7 30 10 47.5t4.5 44t-2.5 42t-15.5 30.5t-31.5 22q-9 3 -11.5 6.5t-1.5 14.5z" />
<glyph unicode="|" horiz-adv-x="495" d="M-30 -311l356 1670h287l-356 -1670h-287z" />
<glyph unicode="}" horiz-adv-x="584" d="M-84 -270l28 140q5 33 24 33h4q51 0 77.5 27.5t39.5 89.5l43 200q12 56 21 90t24.5 71.5t35.5 61t51 45.5t73 39q-35 17 -56.5 39.5t-31.5 46t-9.5 61.5t6 71.5t17.5 90.5l42 199q13 62 -1.5 89.5t-65.5 27.5h-3q-23 0 -13 34l29 140q4 18 25 18h150q252 0 185 -307 l-47 -220q-6 -27 -8.5 -40t-5.5 -37t-1 -37t6.5 -29.5t16 -26.5t29.5 -16q13 -6 13 -11q0 -4 -1 -9l-36 -166q-1 -7 -4 -11.5t-6 -5.5t-10 -4q-29 -9 -49.5 -26.5t-33.5 -48.5t-18.5 -50.5t-14.5 -60.5l-46 -219q-11 -51 -26 -92.5t-40.5 -83t-58 -69.5t-81.5 -45.5 t-109 -17.5h-149q-19 0 -15 19z" />
<glyph unicode="~" horiz-adv-x="901" d="M48 372q74 116 170.5 182t176.5 66q37 0 73 -18t58.5 -39.5t48.5 -39.5t47 -18q17 0 40.5 25.5t44.5 72.5l198 -80q-62 -125 -155 -187t-182 -62q-36 0 -66.5 18t-49 39.5t-41.5 39.5t-46 18q-24 0 -44 -19t-62 -76z" />
<glyph unicode="&#xa0;" horiz-adv-x="633" d="M91 436l36 162q4 33 31 33h455q12 0 14.5 -9.5t-1.5 -25.5l-32 -144q-4 -16 -6.5 -23t-9.5 -12.5t-18 -5.5h-454q-20 0 -15 25z" />
<glyph unicode="&#xa1;" horiz-adv-x="444" d="M-65 -330l218 805q7 31 46 31h145q34 0 30 -31l-139 -806q-5 -32 -43 -32h-218q-25 0 -34.5 6t-4.5 27zM147 715q15 71 69.5 120t120.5 49q64 0 99 -49t20 -120q-16 -77 -70.5 -124t-119.5 -47q-67 0 -101 46.5t-18 124.5z" />
<glyph unicode="&#xa2;" horiz-adv-x="817" d="M60 419q48 224 184.5 344.5t332.5 120.5q83 0 138 -20t77.5 -54.5t29 -80.5t-6.5 -98q-8 -37 -22.5 -68.5t-39 -62t-64.5 -48.5t-91 -18q-20 0 -46.5 4t-32.5 7q-11 4 -14 11t0 21l7 39q5 16 9.5 21t16.5 5h6q45 0 57 58q8 39 -5.5 55.5t-51.5 16.5q-58 0 -108 -62.5 t-73 -173.5q-46 -227 145 -227q91 0 227 50q13 3 17 -2t0 -21l-33 -160q-3 -14 -8.5 -19.5t-19.5 -11.5q-164 -64 -319 -64q-201 0 -279 112t-33 326zM153 -357l82 264q3 10 4 12.5t4.5 7t8 5.5t12.5 1h187q10 0 12 -5.5t-1 -16.5l-26 -267q-3 -16 -6 -20t-11 -4h-261 q-16 0 -5 23zM465 961l28 264q3 22 19 22h259q9 0 10 -3.5t-5 -20.5l-83 -266q-5 -13 -9 -17.5t-16 -4.5h-186q-14 0 -16.5 5t-0.5 21z" />
<glyph unicode="&#xa3;" horiz-adv-x="1046" d="M-17 22l26 133q3 14 6 18t15 8q55 14 82.5 30t32.5 42l60 276h-71q-24 0 -15 24l34 162q7 26 18 31q6 2 13 2h69l39 187q22 105 71 182t117.5 120t145.5 63t167 20q115 0 194 -13t164 -43q14 -5 16.5 -19t-3.5 -40l-66 -311q-4 -16 -8 -19.5t-14 -3.5h-160q-15 0 -15 19 l-9 175q-41 13 -123 13q-28 0 -49 -4t-46.5 -16t-44 -41.5t-28.5 -74.5l-41 -194h79q12 0 14.5 -9t-1.5 -26l-30 -143q-4 -16 -6.5 -23t-9.5 -12.5t-18 -5.5h-74l-60 -278l253 -2q15 0 29 20.5t39 73.5l22 68q5 11 12 18t17.5 9.5t16.5 3t20 0t18 -0.5h104q9 0 11.5 -9.5 t0.5 -24t-5 -29t-7 -28t-4 -17.5l-67 -313q-3 -14 -6.5 -17t-15.5 -3h-896q-10 0 -13 4t0 18z" />
<glyph unicode="&#xa4;" horiz-adv-x="1014" d="M28 140l119 111q-69 116 -30 296q40 188 159 298l-75 118l173 96l82 -104q88 30 192 30q101 0 186 -34l127 107l132 -97l-130 -123q64 -111 27 -291q-35 -170 -147 -288l75 -119l-171 -99l-79 102q-97 -35 -206 -35q-106 0 -186 32l-118 -99zM424 547q-23 -107 -1 -175.5 t80 -68.5q59 0 109 68t73 176q23 107 2 175.5t-80 68.5q-60 0 -110 -68t-73 -176z" />
<glyph unicode="&#xa5;" horiz-adv-x="1131" d="M201 292l24 119q1 1 2 5.5t2.5 6.5t4.5 5t7.5 4.5t11.5 1.5h171q-4 6 -9 20t-7 19h-151q-12 0 -14 6t1 13l24 115q1 8 2.5 12t8 9t17.5 5h60q-63 241 -47 417q2 26 -16.5 42t-70.5 31q-11 3 -12.5 8t2.5 18l28 132q3 15 6.5 18.5t16.5 3.5h482q14 0 17 -5.5t-2 -20.5 l-26 -126q-4 -13 -6 -18t-7.5 -9.5t-16.5 -6.5q-48 -4 -64.5 -13t-21.5 -32q-23 -115 34 -404h5q217 294 239 404q5 23 -8.5 32t-58.5 13q-16 3 -18 10.5t3 23.5l26 126q1 2 2.5 7.5t2 6.5t1.5 4.5t2.5 4t3.5 2t5 1.5h7h419q13 0 15 -4t-2 -18l-28 -132q-8 -26 -21 -26 q-58 -13 -81 -27t-38 -46q-90 -203 -245 -417h102q14 0 17.5 -6.5t-0.5 -19.5l-23 -104q-3 -16 -9.5 -23t-21.5 -7h-192l-8 -39h194q23 0 17 -24l-23 -105q-3 -17 -8.5 -24t-20.5 -7h-192l-8 -34q-1 -26 12.5 -37.5t49.5 -16.5q14 -3 16.5 -10t-1.5 -25l-28 -125 q-3 -17 -6.5 -21.5t-15.5 -4.5h-485q-13 0 -15 4t1 18l28 133q3 15 5.5 18.5t14.5 7.5q58 15 86 32.5t33 47.5l4 13h-190q-13 0 -15.5 5.5t0.5 12.5z" />
<glyph unicode="&#xa6;" horiz-adv-x="497" d="M-19 -266l155 728h287l-155 -728h-287zM160 577l155 724h286l-154 -724h-287z" />
<glyph unicode="&#xa7;" horiz-adv-x="1005" d="M-80 -333l69 337q4 22 12.5 28.5t30.5 6.5h173q14 0 19 -5.5t5 -18.5l-9 -177q104 -19 156 -19q168 0 190 93q10 46 -16 76.5t-73 45t-106 31t-115 35.5t-100 58.5t-61 100t2 160.5q38 181 115 274q-40 77 -13 208q27 124 72 207t112.5 129t146 64.5t187.5 18.5 q265 0 357 -60q20 -13 24 -21.5t-1 -32.5l-67 -314q-5 -23 -13.5 -28.5t-31.5 -5.5h-168q-9 0 -13.5 1t-6.5 6t-2 6.5v11.5l9 167q-19 17 -139 17q-131 0 -153 -97q-9 -42 17.5 -68.5t74.5 -38t107 -27t115 -36.5t99 -66t58.5 -115t-7.5 -183q-11 -55 -30 -109.5t-36.5 -86 t-25.5 -28.5l-42 17q69 -101 31 -276q-20 -97 -58 -168.5t-85.5 -115t-112.5 -70.5t-131 -36.5t-149 -9.5q-111 0 -231.5 17t-159.5 41q-33 22 -26 56zM410 488q-5 -25 2 -44t21 -30.5t41.5 -22.5t51 -17t61.5 -16t63 -17q9 14 15 37q7 36 -2.5 60.5t-45.5 43t-57 25.5 t-82 23q-29 8 -44 12q-15 -22 -24 -54z" />
<glyph unicode="&#xa8;" horiz-adv-x="573" d="M248 1497q13 57 58.5 98.5t101.5 41.5t85.5 -42t16.5 -98q-13 -60 -59 -100t-103 -40t-85 40t-15 100zM560 1497q13 57 59 98.5t103 41.5q56 0 87 -42t18 -98q-13 -60 -60 -100t-104 -40q-58 0 -87 40t-16 100z" />
<glyph unicode="&#xa9;" horiz-adv-x="1152" d="M110 618q26 123 78 228t118 179t144.5 126t159.5 77t161 25q101 0 186 -41t145.5 -122.5t79.5 -203.5t-13 -283q-32 -150 -102 -270.5t-160 -195t-190 -113.5t-199 -39q-102 0 -188.5 40t-148.5 119.5t-82 198t11 275.5zM197 618q-53 -252 42.5 -394t298.5 -142 q201 0 343 129.5t197 391.5q57 266 -35.5 409.5t-294.5 143.5q-200 0 -348 -138t-203 -400zM305 644q37 179 149 275t272 96q86 0 158 -13.5t99 -29.5q12 -5 14.5 -14.5t-3.5 -30.5l-54 -257q-3 -11 -6.5 -14t-11.5 -3h-127q-11 0 -11 15l-4 133q-18 16 -56 16 q-53 0 -95 -49t-61 -141q-22 -107 12.5 -150t112.5 -43q85 0 197 26q12 2 16.5 -3t0.5 -19l-28 -136q-5 -22 -28 -28q-111 -38 -250 -38q-192 0 -265.5 100.5t-30.5 307.5z" />
<glyph unicode="&#xaa;" horiz-adv-x="852" d="M175 974q34 157 126 252.5t228 95.5q127 0 147 -95l9 50q5 26 37 26h244q24 0 19 -31l-129 -605q-8 -30 -33 -30h-259q-9 0 -10.5 6t3.5 24l7 40q-46 -52 -90.5 -70.5t-104.5 -18.5q-67 0 -114 27.5t-68.5 75.5t-25.5 113t14 140zM471 970q-30 -145 47 -145q72 0 102 145 q15 67 4.5 106t-45.5 39q-36 0 -64.5 -38t-43.5 -107z" />
<glyph unicode="&#xab;" horiz-adv-x="956" d="M69 452q-8 12 -7.5 19.5t14.5 21.5l386 399q1 1 5 5.5t5.5 5.5t5 3t6.5 0.5t6 -5.5l123 -112q9 -9 -4 -24l-255 -288l132 -280q8 -15 6 -20t-17 -15l-162 -104q-13 -8 -18 -6t-10 13zM458 452q-8 12 -7.5 19.5t14.5 21.5l386 399q1 1 5 5.5t5.5 5.5t4.5 2.5t5.5 0.5 t5.5 -5l123 -112q7 -8 6 -11.5t-10 -12.5l-253 -288l132 -280q6 -11 7 -16t-2.5 -9t-13.5 -10l-166 -104q-14 -8 -17.5 -6.5t-8.5 13.5z" />
<glyph unicode="&#xac;" horiz-adv-x="977" d="M80 445l43 201h849l-106 -499h-281l63 298h-568z" />
<glyph unicode="&#xad;" horiz-adv-x="633" d="M91 438l36 162q7 26 18 31q6 2 13 2h455q12 0 14.5 -9.5t-1.5 -25.5l-32 -144q-3 -14 -4 -18t-5 -11.5t-9 -9.5t-14 -2h-454q-22 0 -17 25z" />
<glyph unicode="&#xae;" horiz-adv-x="1152" d="M110 618q26 123 78 228t118 179t144.5 126t159.5 77t161 25q101 0 186 -41t145.5 -122.5t79.5 -203.5t-13 -283q-32 -150 -102 -270.5t-160 -195t-190 -113.5t-199 -39q-102 0 -188.5 40t-148.5 119.5t-82 198t11 275.5zM197 618q-53 -252 42.5 -394t298.5 -142 q201 0 343 129.5t197 391.5q57 266 -35.5 409.5t-294.5 143.5q-200 0 -348 -138t-203 -400zM317 257l18 87q2 13 11 17q51 22 56 47l93 437h-2q7 24 1 37.5t-32 26.5q-8 5 -6 16l19 88q2 13 15 13h247q64 0 107 -14t65.5 -37t30.5 -60.5t5 -76t-14 -90.5q-35 -165 -119 -232 l5 -80q1 -37 11.5 -52t31.5 -15q1 0 4 1.5t4 1.5t3 1q8 4 8 -5v-7l-11 -89q-3 -14 -6 -18.5t-13 -7.5q-51 -13 -91 -13q-75 0 -98.5 36.5t-28.5 128.5l-4 67l-29 6l-13 -67q-3 -19 1 -26.5t19 -12.5q7 -3 8.5 -7t-0.5 -15l-19 -84q-3 -15 -13 -15h-259q-5 0 -6 2.5t1 10.5z M633 631q-2 -5 35 -7q19 0 40.5 31.5t34.5 89.5q27 141 -28 141h-28z" />
<glyph unicode="&#xaf;" horiz-adv-x="590" d="M283 1387l28 132q3 14 8 18.5t16 4.5h443q13 0 10 -17l-30 -134q-3 -16 -9 -21t-21 -5h-430q-13 0 -15.5 4t0.5 18z" />
<glyph unicode="&#xb0;" horiz-adv-x="646" d="M186 1048q27 120 119 197t231 77q140 0 199 -78.5t34 -195.5q-27 -122 -118 -197.5t-230 -75.5q-142 0 -201 77t-34 196zM451 1050q-18 -91 13 -91q20 0 39 85q20 92 -6 92q-28 0 -46 -86z" />
<glyph unicode="&#xb1;" horiz-adv-x="940" d="M-41 -106l47 212h843l-47 -212h-843zM58 376l44 207h278l71 333h290l-71 -333h274l-45 -207h-273l-53 -249h-290l52 249h-277z" />
<glyph unicode="&#xb2;" horiz-adv-x="739" d="M97 575l39 183q1 6 15 28q94 60 164.5 114.5t136 120t107.5 138.5t59 152q22 95 -56 95q-26 0 -67 -13l-76 -181q-7 -15 -19 -15h-143q-10 0 -11 2t2 17l65 305q6 25 12 35t23 14q163 46 279 46q33 0 58 -1.5t55 -5.5t52 -13t44 -22.5t35 -34.5t21.5 -49t7 -67t-11.5 -86 q-66 -311 -430 -559h123q26 0 56 73l20 52q1 2 3.5 8.5t3.5 8t3.5 5t5.5 4t8 0.5h112q20 0 22.5 -6t-3.5 -40l-65 -308q-3 -12 -6.5 -14t-14.5 -2h-622h-2.5t-2.5 0.5t-2.5 2.5t-0.5 5t1 8z" />
<glyph unicode="&#xb3;" horiz-adv-x="722" d="M101 614l37 179q3 14 9 19t19 2q12 -3 46 -14.5t71.5 -19t85.5 -7.5q73 0 115.5 22t55.5 84q12 56 -6.5 78t-60.5 22h-54q-16 0 -9 23l35 169q4 12 13 24l158 200h-111q-10 0 -16.5 -3t-16.5 -19.5t-21 -50.5l-25 -80q-3 -9 -4 -11t-3.5 -6.5t-5.5 -5t-9 -0.5h-112 q-20 0 -22 4t2 28l69 320q5 20 10 25t23 5h548q8 0 9 -4.5t-2 -17.5l-30 -138q-5 -21 -8.5 -28t-17.5 -22l-192 -218h23q61 0 90.5 -37t28.5 -99t-17 -143q-17 -83 -54.5 -147t-82 -101.5t-98 -61.5t-98.5 -32t-89 -8q-179 0 -280 41q-9 5 -3 29z" />
<glyph unicode="&#xb4;" horiz-adv-x="493" d="M287 1411l113 157q22 29 35 36.5t38 7.5h248q26 0 10 -22q-5 -7 -14 -15l-214 -179q-50 -37 -95 -37h-116q-24 0 -26 10t21 42z" />
<glyph unicode="&#xb5;" horiz-adv-x="1120" d="M-2 -382l209 980q9 50 -26 57l-54 10q-11 3 -6 24l22 106q3 11 7 16.5t7.5 7.5t11.5 4q226 43 283 43h53q20 0 29 -11.5t7.5 -26t-3.5 -26.5l-48 -229h3l-54 -255q-15 -86 -4 -112.5t49 -26.5q54 0 103.5 59.5t79.5 182.5l37 177q9 49 -24 57l-54 10q-13 4 -8 24l22 106 q3 10 7.5 16t8 7.5t11.5 4.5q226 43 283 43h54q27 0 33 -24t-2 -40l-11 -54h6l-10 -13l-9 -52h4l-92 -428q-5 -33 2 -44.5t23 -11.5q18 0 27.5 11t16.5 36q5 19 11 24.5t19 5.5h47q17 0 20.5 -9t-2.5 -34q-51 -246 -270 -246q-169 0 -190 143q-56 -72 -117 -106t-145 -35 l-78 -371q-5 -17 -10 -22.5t-20 -5.5h-240q-15 0 -19 6t0 22z" />
<glyph unicode="&#xb6;" horiz-adv-x="893" d="M162 927q35 164 164.5 270t297.5 106h352l-326 -1539h-198l295 1385h-53l-294 -1385h-195l167 793q-85 1 -141.5 52t-72 133t3.5 185z" />
<glyph unicode="&#xb7;" horiz-adv-x="452" d="M19 467q21 96 103.5 165.5t177.5 69.5q96 0 152 -70t36 -165q-21 -95 -107 -163t-182 -68q-95 0 -148 67.5t-32 163.5z" />
<glyph unicode="&#xb8;" horiz-adv-x="426" d="M-110 -307q3 4 8 12t8 12t8 9.5t8 5l9 -1.5q22 -13 67 -13q64 0 75 60q6 31 -9.5 49t-65.5 18q-16 0 -17 3t10 23l74 130h132l-33 -69q82 -6 104.5 -44t7.5 -103q-18 -85 -88.5 -125.5t-163.5 -40.5q-66 0 -132 32q-12 5 -13 12t11 31z" />
<glyph unicode="&#xb9;" horiz-adv-x="539" d="M91 577l23 110q2 16 14 20q93 26 115 42q14 10 16 22l125 583q2 8 -1.5 11t-10 2t-15.5 -6l-78 -39q-14 -8 -18.5 -1.5t0.5 21.5l26 129q5 16 24 26l162 84q51 24 108 24h76q30 0 24 -28l-173 -806q-3 -27 20.5 -41t59.5 -21q13 -3 14.5 -7t-2.5 -21l-21 -102 q-3 -13 -7 -16.5t-15 -3.5h-456q-7 0 -9 3.5t-1 14.5z" />
<glyph unicode="&#xba;" horiz-adv-x="899" d="M153 909q14 66 38 123.5t63 111t89 92t121 61.5t154 23q87 0 154.5 -18.5t111.5 -52.5t72.5 -78.5t39 -99.5t8.5 -112.5t-15 -120.5q-17 -82 -52 -153t-90.5 -131.5t-139 -95.5t-186.5 -35q-87 0 -154.5 19t-111 53.5t-71 79.5t-37.5 100.5t-8.5 113t14.5 120.5zM445 866 q-45 -214 95 -214q56 0 95.5 60t60.5 156q10 59 9.5 108.5t-27.5 82t-78 32.5q-56 0 -94.5 -63t-60.5 -162z" />
<glyph unicode="&#xbb;" horiz-adv-x="958" d="M26 162q-12 10 -11.5 14.5t15.5 20.5l251 280l-130 288q-6 8 -5 13t12 11l168 112q6 5 10 5.5t5 -1t3.5 -6.5l3.5 -7l218 -399q6 -16 4 -22t-15 -19l-380 -387q-12 -12 -16 -13.5t-16 6.5zM415 162q-12 10 -11.5 14.5t15.5 20.5l251 280l-132 288q-5 8 -3.5 12.5 t12.5 11.5l166 112q7 5 11 5t5.5 -1t4 -6l3.5 -7l218 -399q6 -16 4 -22t-15 -19l-380 -387q-12 -12 -16 -13.5t-17 6.5z" />
<glyph unicode="&#xbf;" horiz-adv-x="899" d="M-52 -61q15 71 42.5 121t60 76t68.5 44.5t71.5 34t66.5 36t56 60t37 97.5l13 65q6 26 32 26l251 4q25 0 17 -32l-24 -119q-18 -84 -47.5 -144.5t-63 -92t-70 -51.5t-71.5 -32t-64.5 -25t-51.5 -38.5t-31 -65.5q-22 -100 110 -100q120 0 143 16l62 170q6 15 11 19.5 t22 4.5h170h13t8 -1.5t6 -5t1 -10t-2 -16.5l-65 -317q-4 -22 -11.5 -31t-33.5 -23q-120 -60 -397 -60q-69 0 -120.5 7t-95.5 24t-71.5 46t-43 72t-15 103t16.5 138zM411 713q15 73 69.5 122t119.5 49q64 0 100 -49.5t21 -121.5q-16 -77 -71 -123t-121 -46t-100 45.5 t-18 123.5z" />
<glyph unicode="&#xc0;" d="M-63 22l28 133q3 11 8.5 17t9.5 6l4 1q55 18 81 33.5t34 40.5l25 108q46 216 108 389.5t141.5 304t179.5 201t213 70.5q272 0 353 -237.5t-25 -727.5l-26 -113q-4 -30 9.5 -43.5t51.5 -18.5q14 -3 16.5 -10t-1.5 -25l-28 -125q-3 -17 -6.5 -21.5t-15.5 -4.5h-514 q-12 0 -15 4t0 18l28 133q3 15 5.5 18.5t14.5 7.5q55 13 83 29.5t36 42.5l28 131h-391l-22 -112q-10 -45 1.5 -62t54.5 -24q14 -3 16.5 -10t-1.5 -25l-28 -125q-3 -17 -7 -21.5t-17 -4.5h-417q-12 0 -14.5 3.5t-0.5 18.5zM439 639h365q25 197 2 310.5t-93 113.5 q-68 0 -140 -112.5t-134 -311.5zM551 1596q-10 14 -6.5 25.5t19.5 11.5h250q23 0 32.5 -8t17.5 -37l46 -160q8 -32 2 -42t-29 -10h-116q-45 0 -76 39z" />
<glyph unicode="&#xc1;" d="M-63 22l28 133q3 11 8.5 17t9.5 6l4 1q55 18 81 33.5t34 40.5l25 108q46 216 108 389.5t141.5 304t179.5 201t213 70.5q272 0 353 -237.5t-25 -727.5l-26 -113q-4 -30 9.5 -43.5t51.5 -18.5q14 -3 16.5 -10t-1.5 -25l-28 -125q-3 -17 -6.5 -21.5t-15.5 -4.5h-514 q-12 0 -15 4t0 18l28 133q3 15 5.5 18.5t14.5 7.5q55 13 83 29.5t36 42.5l28 131h-391l-22 -112q-10 -45 1.5 -62t54.5 -24q14 -3 16.5 -10t-1.5 -25l-28 -125q-3 -17 -7 -21.5t-17 -4.5h-417q-12 0 -14.5 3.5t-0.5 18.5zM439 639h365q25 197 2 310.5t-93 113.5 q-68 0 -140 -112.5t-134 -311.5zM737 1430l116 156q21 29 33.5 37t36.5 8h248q24 0 14 -18q-6 -10 -18 -19l-214 -179q-50 -37 -95 -37h-115q-24 0 -26.5 10t20.5 42z" />
<glyph unicode="&#xc2;" d="M-63 22l28 133q3 11 8.5 17t9.5 6l4 1q55 18 81 33.5t34 40.5l25 108q46 216 108 389.5t141.5 304t179.5 201t213 70.5q272 0 353 -237.5t-25 -727.5l-26 -113q-4 -30 9.5 -43.5t51.5 -18.5q14 -3 16.5 -10t-1.5 -25l-28 -125q-3 -17 -6.5 -21.5t-15.5 -4.5h-514 q-12 0 -15 4t0 18l28 133q3 15 5.5 18.5t14.5 7.5q55 13 83 29.5t36 42.5l28 131h-391l-22 -112q-10 -45 1.5 -62t54.5 -24q14 -3 16.5 -10t-1.5 -25l-28 -125q-3 -17 -7 -21.5t-17 -4.5h-417q-12 0 -14.5 3.5t-0.5 18.5zM439 639h365q25 197 2 310.5t-93 113.5 q-68 0 -140 -112.5t-134 -311.5zM527 1383q0 16 20 36l172 186q18 19 34.5 24.5t45.5 5.5h104q28 0 43.5 -5.5t25.5 -24.5l89 -186q13 -22 2.5 -45.5t-35.5 -10.5l-213 106h-1l-255 -104q-28 -13 -28 3z" />
<glyph unicode="&#xc3;" d="M-63 22l28 133q3 11 8.5 17t9.5 6l4 1q55 18 81 33.5t34 40.5l25 108q46 216 108 389.5t141.5 304t179.5 201t213 70.5q272 0 353 -237.5t-25 -727.5l-26 -113q-4 -30 9.5 -43.5t51.5 -18.5q14 -3 16.5 -10t-1.5 -25l-28 -125q-3 -17 -6.5 -21.5t-15.5 -4.5h-514 q-12 0 -15 4t0 18l28 133q3 15 5.5 18.5t14.5 7.5q55 13 83 29.5t36 42.5l28 131h-391l-22 -112q-10 -45 1.5 -62t54.5 -24q14 -3 16.5 -10t-1.5 -25l-28 -125q-3 -17 -7 -21.5t-17 -4.5h-417q-12 0 -14.5 3.5t-0.5 18.5zM439 639h365q25 197 2 310.5t-93 113.5 q-68 0 -140 -112.5t-134 -311.5zM596 1463q25 53 83 106t110 53q34 0 62.5 -15.5t53 -31t48.5 -15.5q25 0 41 34q6 9 9 10.5t17 -1.5l71 -33q11 -5 11.5 -12.5t-7.5 -23.5q-31 -56 -88 -108t-110 -52q-46 0 -96 30.5t-67 30.5q-21 0 -41 -37q-11 -17 -23 -9l-63 39 q-15 9 -17.5 14t6.5 21z" />
<glyph unicode="&#xc4;" d="M-63 22l28 133q3 11 8.5 17t9.5 6l4 1q55 18 81 33.5t34 40.5l25 108q46 216 108 389.5t141.5 304t179.5 201t213 70.5q272 0 353 -237.5t-25 -727.5l-26 -113q-4 -30 9.5 -43.5t51.5 -18.5q14 -3 16.5 -10t-1.5 -25l-28 -125q-3 -17 -6.5 -21.5t-15.5 -4.5h-514 q-12 0 -15 4t0 18l28 133q3 15 5.5 18.5t14.5 7.5q55 13 83 29.5t36 42.5l28 131h-391l-22 -112q-10 -45 1.5 -62t54.5 -24q14 -3 16.5 -10t-1.5 -25l-28 -125q-3 -17 -7 -21.5t-17 -4.5h-417q-12 0 -14.5 3.5t-0.5 18.5zM439 639h365q25 197 2 310.5t-93 113.5 q-68 0 -140 -112.5t-134 -311.5zM532 1497q13 57 59 98.5t102 41.5t85.5 -42t16.5 -98q-13 -60 -59 -100t-103 -40t-85.5 40t-15.5 100zM845 1497q13 57 59 98.5t103 41.5q56 0 87 -42t18 -98q-13 -60 -60 -100t-104 -40q-58 0 -87 40t-16 100z" />
<glyph unicode="&#xc5;" d="M-63 22l28 133q3 11 8.5 17t9.5 6l4 1q55 18 81 33.5t34 40.5l25 108q46 216 108 389.5t141.5 304t179.5 201t213 70.5q272 0 353 -237.5t-25 -727.5l-26 -113q-4 -30 9.5 -43.5t51.5 -18.5q14 -3 16.5 -10t-1.5 -25l-28 -125q-3 -17 -6.5 -21.5t-15.5 -4.5h-514 q-12 0 -15 4t0 18l28 133q3 15 5.5 18.5t14.5 7.5q55 13 83 29.5t36 42.5l28 131h-391l-22 -112q-10 -45 1.5 -62t54.5 -24q14 -3 16.5 -10t-1.5 -25l-28 -125q-3 -17 -7 -21.5t-17 -4.5h-417q-12 0 -14.5 3.5t-0.5 18.5zM439 639h365q25 197 2 310.5t-93 113.5 q-68 0 -140 -112.5t-134 -311.5zM575 1495q13 60 73.5 97t200.5 37q72 0 120.5 -11.5t68.5 -30.5t28 -43t-1 -49q-26 -136 -272 -136q-140 0 -185 38t-33 98zM810 1441q19 0 34 16.5t20 37.5q5 18 -4 34t-28 16q-32 0 -50 -37t2 -57q9 -10 26 -10z" />
<glyph unicode="&#xc6;" horiz-adv-x="1645" d="M-63 22l28 133q3 11 8.5 17t9.5 6l4 1q37 12 58.5 21.5t36.5 22.5t20 30l25 108q46 216 108 389.5t141.5 304t179.5 201t213 70.5q124 0 212 -53v4q4 17 10.5 21.5t19.5 4.5h761q7 0 9.5 -0.5t6 -2t2.5 -6t-1 -11.5l-74 -352q-2 -7 -3.5 -11.5t-4 -9.5t-5 -7.5t-6.5 -4.5 t-9 -2h-155q-16 0 -18 12v10v5l3 71q0 49 -5.5 70t-22.5 21l-242 -1l-65 -309h213q12 0 16 -4.5t0 -18.5l-37 -179q-5 -19 -10.5 -25t-19.5 -6h-212l-7 -39q-4 -27 -14.5 -77t-13.5 -65l-26 -113q-8 -16 0 -28l247 -2q33 0 69 91l24 71l3.5 7t3 7t2.5 5t3.5 4t4 2.5t6 2 t7.5 0.5h155q18 0 11 -36l-75 -352q-3 -14 -6.5 -17t-15.5 -3h-927q-12 0 -15 4t0 18l28 133q3 15 5.5 18.5t14.5 7.5q55 13 83 29.5t36 42.5l28 131h-391l-22 -112q-10 -45 1.5 -62t54.5 -24q14 -3 16.5 -10t-1.5 -25l-28 -125q-3 -17 -7 -21.5t-17 -4.5h-417 q-12 0 -14.5 3.5t-0.5 18.5zM439 639h365q25 197 2 310.5t-93 113.5q-68 0 -140 -112.5t-134 -311.5z" />
<glyph unicode="&#xc7;" horiz-adv-x="1051" d="M112 681q37 165 89 281.5t130 198.5t184.5 121.5t247.5 39.5q110 0 235.5 -15t159.5 -32q16 -8 18.5 -22t-3.5 -39l-82 -389q-3 -14 -8 -18.5t-16 -4.5h-190q-9 0 -12 3.5t-5 15.5l8 244q-2 1 -5 2q-14 6 -22 8t-24.5 3.5t-45.5 1.5q-82 0 -143 -41t-110.5 -139 t-83.5 -258q-15 -69 -15.5 -126t10 -97t31 -71.5t44.5 -50t53 -30.5t55 -16.5t53 -4.5q33 0 63 1.5t67.5 6.5t55 7.5t68 11t64.5 10.5q12 3 17 -6t0 -24l-36 -167q-7 -41 -39 -54q-121 -48 -316 -51l-17 -35q43 -3 70 -16t37 -32.5t12 -45t-5 -53.5q-12 -58 -52 -96.5 t-90.5 -54t-109.5 -15.5q-67 0 -136 32q-25 12 12 58q11 19 15.5 23t11.5 -1q26 -13 71 -13q61 0 75 59q6 30 -10.5 49t-66.5 19q-16 0 -17 3.5t10 22.5l59 104q-236 33 -335 208t-31 484z" />
<glyph unicode="&#xc8;" horiz-adv-x="964" d="M43 348q14 66 40 117.5t53 82.5t64 54.5t63.5 34t60.5 20.5q-62 16 -90.5 60.5t-27 109.5t18.5 149q18 83 52 145t77 100t101.5 61t117.5 31.5t133 8.5q118 0 197 -13t158 -43q14 -5 16.5 -19t-3.5 -41l-65 -310q-4 -16 -7 -19.5t-13 -3.5h-160q-8 0 -10.5 3.5t-4.5 15.5 l-8 175q-48 13 -123 13q-30 0 -50.5 -3.5t-47 -15.5t-45 -41t-28.5 -74q-7 -35 -7.5 -60.5t6.5 -42.5t18 -28t29.5 -17t38 -8t47.5 -2h84q23 0 17 -28l-39 -187q-6 -27 -28 -27h-84q-81 0 -130.5 -33t-66.5 -116q-19 -89 26 -122t156 -33q91 0 207 19.5t128 19.5 q11 0 14.5 -5t0.5 -19l-45 -205q-5 -25 -28 -30q-198 -41 -400 -41q-40 0 -76.5 2.5t-75 8.5t-71.5 15.5t-64.5 25t-55.5 35.5t-43 47.5t-28.5 61.5t-9.5 77.5t11 93.5zM473 1596q-10 14 -6.5 25.5t19.5 11.5h249q23 0 33 -8.5t18 -36.5l46 -160q7 -32 1 -42t-29 -10h-115 q-45 0 -76 39z" />
<glyph unicode="&#xc9;" horiz-adv-x="964" d="M43 348q14 66 40 117.5t53 82.5t64 54.5t63.5 34t60.5 20.5q-62 16 -90.5 60.5t-27 109.5t18.5 149q18 83 52 145t77 100t101.5 61t117.5 31.5t133 8.5q118 0 197 -13t158 -43q14 -5 16.5 -19t-3.5 -41l-65 -310q-4 -16 -7 -19.5t-13 -3.5h-160q-8 0 -10.5 3.5t-4.5 15.5 l-8 175q-48 13 -123 13q-30 0 -50.5 -3.5t-47 -15.5t-45 -41t-28.5 -74q-7 -35 -7.5 -60.5t6.5 -42.5t18 -28t29.5 -17t38 -8t47.5 -2h84q23 0 17 -28l-39 -187q-6 -27 -28 -27h-84q-81 0 -130.5 -33t-66.5 -116q-19 -89 26 -122t156 -33q91 0 207 19.5t128 19.5 q11 0 14.5 -5t0.5 -19l-45 -205q-5 -25 -28 -30q-198 -41 -400 -41q-40 0 -76.5 2.5t-75 8.5t-71.5 15.5t-64.5 25t-55.5 35.5t-43 47.5t-28.5 61.5t-9.5 77.5t11 93.5zM657 1430l116 156q21 29 33.5 37t36.5 8h248q24 0 14 -18q-6 -10 -18 -19l-214 -179q-50 -37 -95 -37 h-115q-24 0 -26.5 10t20.5 42z" />
<glyph unicode="&#xca;" horiz-adv-x="964" d="M43 348q14 66 40 117.5t53 82.5t64 54.5t63.5 34t60.5 20.5q-62 16 -90.5 60.5t-27 109.5t18.5 149q18 83 52 145t77 100t101.5 61t117.5 31.5t133 8.5q118 0 197 -13t158 -43q14 -5 16.5 -19t-3.5 -41l-65 -310q-4 -16 -7 -19.5t-13 -3.5h-160q-8 0 -10.5 3.5t-4.5 15.5 l-8 175q-48 13 -123 13q-30 0 -50.5 -3.5t-47 -15.5t-45 -41t-28.5 -74q-7 -35 -7.5 -60.5t6.5 -42.5t18 -28t29.5 -17t38 -8t47.5 -2h84q23 0 17 -28l-39 -187q-6 -27 -28 -27h-84q-81 0 -130.5 -33t-66.5 -116q-19 -89 26 -122t156 -33q91 0 207 19.5t128 19.5 q11 0 14.5 -5t0.5 -19l-45 -205q-5 -25 -28 -30q-198 -41 -400 -41q-40 0 -76.5 2.5t-75 8.5t-71.5 15.5t-64.5 25t-55.5 35.5t-43 47.5t-28.5 61.5t-9.5 77.5t11 93.5zM449 1383q0 16 20 36l171 186q18 19 35 24.5t46 5.5h104q28 0 43.5 -5.5t25.5 -24.5l89 -186 q13 -22 2.5 -45.5t-35.5 -10.5l-213 106h-2l-255 -104q-28 -13 -28 3z" />
<glyph unicode="&#xcb;" horiz-adv-x="964" d="M43 348q14 66 40 117.5t53 82.5t64 54.5t63.5 34t60.5 20.5q-62 16 -90.5 60.5t-27 109.5t18.5 149q18 83 52 145t77 100t101.5 61t117.5 31.5t133 8.5q118 0 197 -13t158 -43q14 -5 16.5 -19t-3.5 -41l-65 -310q-4 -16 -7 -19.5t-13 -3.5h-160q-8 0 -10.5 3.5t-4.5 15.5 l-8 175q-48 13 -123 13q-30 0 -50.5 -3.5t-47 -15.5t-45 -41t-28.5 -74q-7 -35 -7.5 -60.5t6.5 -42.5t18 -28t29.5 -17t38 -8t47.5 -2h84q23 0 17 -28l-39 -187q-6 -27 -28 -27h-84q-81 0 -130.5 -33t-66.5 -116q-19 -89 26 -122t156 -33q91 0 207 19.5t128 19.5 q11 0 14.5 -5t0.5 -19l-45 -205q-5 -25 -28 -30q-198 -41 -400 -41q-40 0 -76.5 2.5t-75 8.5t-71.5 15.5t-64.5 25t-55.5 35.5t-43 47.5t-28.5 61.5t-9.5 77.5t11 93.5zM452 1497q13 57 59 98.5t102 41.5t85.5 -42t16.5 -98q-13 -60 -59 -100t-103 -40t-85.5 40t-15.5 100z M765 1497q13 57 59 98.5t103 41.5q56 0 86.5 -42t17.5 -98q-13 -60 -59.5 -100t-103.5 -40q-58 0 -87 40t-16 100z" />
<glyph unicode="&#xcc;" horiz-adv-x="627" d="M-20 22l27 133q3 14 6 18t15 8q58 15 86 32.5t33 47.5l8 29h1l164 771q1 26 -13 38.5t-48 17.5q-16 3 -18 10t3 25l26 125q1 2 2.5 7.5t2 6.5t1.5 4.5t2.5 4t3.5 2t5 1.5h7h484q11 0 13.5 -4t-0.5 -18l-28 -132q-3 -13 -6 -17.5t-14 -8.5q-56 -15 -84.5 -31.5 t-34.5 -43.5l-172 -810q-1 -25 12.5 -36t49.5 -16q14 -3 16.5 -10t-1.5 -25l-28 -125q-3 -16 -7 -21t-16 -5h-484q-11 0 -14 4t0 18zM292 1596q-10 14 -6.5 25.5t19.5 11.5h250q23 0 32.5 -8t17.5 -37l47 -160q7 -32 1 -42t-29 -10h-116q-45 0 -76 39z" />
<glyph unicode="&#xcd;" horiz-adv-x="629" d="M-22 22l28 133q3 15 5.5 18.5t14.5 7.5q58 15 86 32.5t33 47.5l8 29h2l163 771q1 26 -13 38.5t-48 17.5q-16 3 -18 10t3 25l26 125q3 10 4 13t4 7t7 5t11 1h484q10 0 13 -4t0 -18l-28 -132q-3 -13 -6 -17.5t-14 -8.5q-58 -15 -86.5 -31.5t-34.5 -43.5l-171 -810 q-1 -25 12 -36t49 -16q14 -3 16.5 -10t-1.5 -25l-28 -125q-3 -17 -6.5 -21.5t-15.5 -4.5h-484q-12 0 -15 4t0 18zM477 1430l115 156q21 29 34 37t37 8h247q24 0 14 -18q-6 -10 -17 -19l-214 -179q-50 -37 -95 -37h-116q-24 0 -26 10t21 42z" />
<glyph unicode="&#xce;" horiz-adv-x="627" d="M-20 22l27 133q3 14 6 18t15 8q58 15 86 32.5t33 47.5l8 29h1l164 771q1 26 -13 38.5t-48 17.5q-16 3 -18 10t3 25l26 125q1 2 2.5 7.5t2 6.5t1.5 4.5t2.5 4t3.5 2t5 1.5h7h484q11 0 13.5 -4t-0.5 -18l-28 -132q-3 -13 -6 -17.5t-14 -8.5q-56 -15 -84.5 -31.5 t-34.5 -43.5l-172 -810q-1 -25 12.5 -36t49.5 -16q14 -3 16.5 -10t-1.5 -25l-28 -125q-3 -16 -7 -21t-16 -5h-484q-11 0 -14 4t0 18zM276 1383q0 16 20 36l171 186q18 19 34.5 24.5t45.5 5.5h105q28 0 43.5 -5.5t25.5 -24.5l89 -186q13 -22 2 -45.5t-36 -10.5l-212 106h-2 l-255 -104q-28 -13 -28 3z" />
<glyph unicode="&#xcf;" horiz-adv-x="627" d="M-20 22l27 133q3 14 6 18t15 8q58 15 86 32.5t33 47.5l8 29h1l164 771q1 26 -13 38.5t-48 17.5q-16 3 -18 10t3 25l26 125q1 2 2.5 7.5t2 6.5t1.5 4.5t2.5 4t3.5 2t5 1.5h7h484q11 0 13.5 -4t-0.5 -18l-28 -132q-3 -13 -6 -17.5t-14 -8.5q-56 -15 -84.5 -31.5 t-34.5 -43.5l-172 -810q-1 -25 12.5 -36t49.5 -16q14 -3 16.5 -10t-1.5 -25l-28 -125q-3 -16 -7 -21t-16 -5h-484q-11 0 -14 4t0 18zM274 1497q13 57 58.5 98.5t101.5 41.5t85.5 -42t16.5 -98q-13 -60 -59 -100t-103 -40t-85 40t-15 100zM586 1497q13 57 59 98.5t103 41.5 q56 0 87 -42t18 -98q-13 -60 -60 -100t-104 -40q-58 0 -87 40t-16 100z" />
<glyph unicode="&#xd0;" horiz-adv-x="1254" d="M-13 22l28 133q3 15 5.5 18.5t14.5 7.5q99 24 114 72l63 293h-102q-13 0 -15.5 4t0.5 18l35 166q7 22 25 22h102l61 290q5 27 -14.5 45t-68.5 32q-11 4 -12.5 8.5t2.5 17.5l28 132q3 14 7.5 18t15.5 4h541q138 0 235.5 -31.5t154 -88t81 -143.5t21 -190t-31.5 -236 q-34 -159 -86.5 -269t-137.5 -190t-210.5 -117.5t-298.5 -37.5h-542q-12 0 -15 4t0 18zM469 233h116q125 0 220.5 103t138.5 310q46 212 -5 316.5t-179 104.5h-114l-65 -311h201q12 0 9 -17l-35 -167q-4 -16 -10.5 -21t-21.5 -5h-188z" />
<glyph unicode="&#xd1;" horiz-adv-x="1271" d="M-4 22l28 133q3 12 7.5 16.5t16.5 9.5q48 14 69.5 31.5t29.5 57.5l168 788q5 23 -16 36.5t-70 28.5q-10 4 -11.5 9t2.5 17l28 132q3 14 7 18t15 4h249q17 0 25 -8t16 -25l369 -754l114 528q5 29 -15 47t-73 32q-10 4 -11.5 9t2.5 17l28 132q3 14 7 18t15 4h421 q14 0 17 -5.5t-2 -20.5l-26 -125q-5 -20 -9.5 -26t-20.5 -9q-46 -7 -65 -22t-26 -52l-214 -1000q-9 -43 -32 -43h-121q-32 0 -43 24l-376 752l-106 -504q-10 -45 1.5 -62t54.5 -24q14 -3 16.5 -10t-1.5 -25l-28 -125q-3 -16 -7.5 -21t-17.5 -5h-402q-12 0 -14 4t1 18z M642 1463q24 52 83 105.5t111 53.5q42 0 89 -31t75 -31q25 0 41 34q6 9 9 10.5t17 -1.5l71 -33q11 -5 11.5 -12.5t-8.5 -23.5q-31 -56 -87.5 -108t-109.5 -52q-46 0 -96.5 30.5t-67.5 30.5q-21 0 -41 -37q-11 -16 -22 -9l-64 39q-15 9 -17.5 14t6.5 21z" />
<glyph unicode="&#xd2;" horiz-adv-x="1264" d="M112 704q28 135 85.5 246.5t142 195t202 130t255.5 46.5q111 0 199.5 -24.5t150 -70t101.5 -110t57 -145.5t14 -174t-25 -198q-29 -136 -86.5 -247.5t-142.5 -195.5t-202.5 -130t-257.5 -46q-132 0 -232 35t-161 99t-94 153.5t-32 199.5t26 236zM445 655 q-40 -193 6.5 -304t179.5 -111q118 0 204 111.5t126 303.5q41 190 -6.5 299t-181.5 109q-115 0 -201 -109t-127 -299zM613 1596q-10 14 -6.5 25.5t19.5 11.5h249q23 0 32.5 -8t17.5 -37l47 -160q7 -32 1 -42t-29 -10h-115q-46 0 -77 39z" />
<glyph unicode="&#xd3;" horiz-adv-x="1264" d="M112 704q28 135 85.5 246.5t142 195t202 130t255.5 46.5q111 0 199.5 -24.5t150 -70t101.5 -110t57 -145.5t14 -174t-25 -198q-29 -136 -86.5 -247.5t-142.5 -195.5t-202.5 -130t-257.5 -46q-132 0 -232 35t-161 99t-94 153.5t-32 199.5t26 236zM445 655 q-40 -193 6.5 -304t179.5 -111q118 0 204 111.5t126 303.5q41 190 -6.5 299t-181.5 109q-115 0 -201 -109t-127 -299zM799 1430l115 156q21 29 34 37t37 8h248q24 0 14 -18q-6 -10 -18 -19l-214 -179q-50 -37 -95 -37h-116q-24 0 -26 10t21 42z" />
<glyph unicode="&#xd4;" horiz-adv-x="1264" d="M112 704q28 135 85.5 246.5t142 195t202 130t255.5 46.5q111 0 199.5 -24.5t150 -70t101.5 -110t57 -145.5t14 -174t-25 -198q-29 -136 -86.5 -247.5t-142.5 -195.5t-202.5 -130t-257.5 -46q-132 0 -232 35t-161 99t-94 153.5t-32 199.5t26 236zM445 655 q-40 -193 6.5 -304t179.5 -111q118 0 204 111.5t126 303.5q41 190 -6.5 299t-181.5 109q-115 0 -201 -109t-127 -299zM588 1383q0 15 21 36l171 186q18 19 34.5 24.5t45.5 5.5h104q28 0 43.5 -5.5t25.5 -24.5l90 -186q13 -22 2 -45.5t-36 -10.5l-212 106h-2l-255 -104 q-28 -13 -28 3z" />
<glyph unicode="&#xd5;" horiz-adv-x="1264" d="M112 704q28 135 85.5 246.5t142 195t202 130t255.5 46.5q111 0 199.5 -24.5t150 -70t101.5 -110t57 -145.5t14 -174t-25 -198q-29 -136 -86.5 -247.5t-142.5 -195.5t-202.5 -130t-257.5 -46q-132 0 -232 35t-161 99t-94 153.5t-32 199.5t26 236zM445 655 q-40 -193 6.5 -304t179.5 -111q118 0 204 111.5t126 303.5q41 190 -6.5 299t-181.5 109q-115 0 -201 -109t-127 -299zM659 1463q24 52 83 105.5t111 53.5q34 0 62.5 -15.5t53 -31t48.5 -15.5q25 0 41 34q6 9 9 10.5t17 -1.5l70 -33q11 -5 11.5 -12.5t-7.5 -23.5 q-31 -56 -87.5 -108t-109.5 -52q-46 0 -96.5 30.5t-67.5 30.5q-21 0 -41 -37q-11 -16 -22 -9l-64 39q-15 9 -17.5 14t6.5 21z" />
<glyph unicode="&#xd6;" horiz-adv-x="1264" d="M112 704q28 135 85.5 246.5t142 195t202 130t255.5 46.5q111 0 199.5 -24.5t150 -70t101.5 -110t57 -145.5t14 -174t-25 -198q-29 -136 -86.5 -247.5t-142.5 -195.5t-202.5 -130t-257.5 -46q-132 0 -232 35t-161 99t-94 153.5t-32 199.5t26 236zM445 655 q-40 -193 6.5 -304t179.5 -111q118 0 204 111.5t126 303.5q41 190 -6.5 299t-181.5 109q-115 0 -201 -109t-127 -299zM592 1497q13 57 58.5 98.5t101.5 41.5t86 -42t17 -98q-13 -60 -59 -100t-103 -40t-85.5 40t-15.5 100zM905 1497q13 57 59 98.5t103 41.5q56 0 86.5 -42 t17.5 -98q-13 -60 -60 -100t-104 -40q-58 0 -86.5 39.5t-15.5 100.5z" />
<glyph unicode="&#xd7;" horiz-adv-x="733" d="M35 223l233 248l-149 246l158 152l151 -243l229 245l110 -139l-229 -246l143 -244l-156 -153l-149 241l-231 -246z" />
<glyph unicode="&#xd8;" horiz-adv-x="1264" d="M112 704q28 135 85.5 246.5t142 195t202 130t255.5 46.5q61 0 108 -8l33 64q10 22 26 22h272q35 0 19 -28l-88 -162q108 -92 139.5 -252t-12.5 -358q-29 -136 -86.5 -247.5t-142.5 -195.5t-202.5 -130t-257.5 -46q-38 0 -106 8l-37 -69q-6 -11 -13 -15.5t-13 -5.5t-19 -1 h-268q-18 0 -8 22l95 173q-109 92 -139.5 253t15.5 358zM428 445l337 618q-113 -4 -196.5 -112.5t-123.5 -295.5q-26 -122 -17 -210zM637 240q115 3 199.5 114t124.5 301q25 116 16 207z" />
<glyph unicode="&#xd9;" d="M162 510q10 46 51.5 240t63.5 298q4 35 -7 48.5t-50 20.5q-16 3 -18 10t3 25l26 125q3 10 4 13t3.5 7t6.5 5t10 1h514q10 0 13 -4t0 -18l-28 -132q-3 -13 -6 -17.5t-14 -8.5q-57 -15 -86 -31.5t-35 -41.5l-114 -540q-27 -126 8.5 -198t129.5 -72q89 0 159 73.5t96 196.5 l110 521q10 45 -1.5 62t-56.5 24q-15 3 -17 10t4 25l26 125q1 2 2.5 7.5t2 6.5t1.5 4.5t2.5 4t3.5 2t5 1.5h7h404q12 0 14 -4t-1 -18l-28 -132q-3 -11 -8 -17t-8 -6l-4 -1q-60 -20 -86.5 -35t-32.5 -40l-114 -540q-25 -118 -69.5 -212.5t-110.5 -166.5t-159 -111t-206 -39 q-263 0 -365 130.5t-45 398.5zM633 1596q-10 14 -6.5 25.5t19.5 11.5h250q23 0 32.5 -8t17.5 -37l46 -160q7 -32 1 -42t-29 -10h-115q-45 0 -76 39z" />
<glyph unicode="&#xda;" d="M162 510q10 46 51.5 240t63.5 298q4 35 -7 48.5t-50 20.5q-16 3 -18 10t3 25l26 125q3 10 4 13t3.5 7t6.5 5t10 1h514q10 0 13 -4t0 -18l-28 -132q-3 -13 -6 -17.5t-14 -8.5q-57 -15 -86 -31.5t-35 -41.5l-114 -540q-27 -126 8.5 -198t129.5 -72q89 0 159 73.5t96 196.5 l110 521q10 45 -1.5 62t-56.5 24q-15 3 -17 10t4 25l26 125q1 2 2.5 7.5t2 6.5t1.5 4.5t2.5 4t3.5 2t5 1.5h7h404q12 0 14 -4t-1 -18l-28 -132q-3 -11 -8 -17t-8 -6l-4 -1q-60 -20 -86.5 -35t-32.5 -40l-114 -540q-25 -118 -69.5 -212.5t-110.5 -166.5t-159 -111t-206 -39 q-263 0 -365 130.5t-45 398.5zM819 1430l116 156q21 29 33.5 37t36.5 8h248q24 0 14 -18q-6 -10 -18 -19l-214 -179q-50 -37 -95 -37h-115q-24 0 -26.5 10t20.5 42z" />
<glyph unicode="&#xdb;" horiz-adv-x="1200" d="M162 510q10 46 51.5 240t63.5 298q4 35 -7 48.5t-50 20.5q-16 3 -18 10t3 25l26 125q3 10 4 13t3.5 7t6.5 5t10 1h514q10 0 13 -4t0 -18l-28 -132q-3 -13 -6 -17.5t-14 -8.5q-57 -15 -86 -31.5t-35 -41.5l-114 -540q-27 -126 8.5 -198t129.5 -72q89 0 159 73.5t96 196.5 l110 521q10 45 -1.5 62t-56.5 24q-15 3 -17 10t4 25l26 125q1 2 2.5 7.5t2 6.5t1.5 4.5t2.5 4t3.5 2t5 1.5h7h404q12 0 14 -4t-1 -18l-28 -132q-3 -11 -8 -17t-8 -6l-4 -1q-60 -20 -86.5 -35t-32.5 -40l-114 -540q-25 -118 -69.5 -212.5t-110.5 -166.5t-159 -111t-206 -39 q-263 0 -365 130.5t-45 398.5zM611 1383q0 16 20 36l171 186q18 19 35 24.5t46 5.5h104q28 0 43.5 -5.5t25.5 -24.5l89 -186q13 -22 2.5 -45.5t-35.5 -10.5l-213 106h-2l-255 -104q-28 -13 -28 3z" />
<glyph unicode="&#xdc;" d="M162 510q10 46 51.5 240t63.5 298q4 35 -7 48.5t-50 20.5q-16 3 -18 10t3 25l26 125q3 10 4 13t3.5 7t6.5 5t10 1h514q10 0 13 -4t0 -18l-28 -132q-3 -13 -6 -17.5t-14 -8.5q-57 -15 -86 -31.5t-35 -41.5l-114 -540q-27 -126 8.5 -198t129.5 -72q89 0 159 73.5t96 196.5 l110 521q10 45 -1.5 62t-56.5 24q-15 3 -17 10t4 25l26 125q1 2 2.5 7.5t2 6.5t1.5 4.5t2.5 4t3.5 2t5 1.5h7h404q12 0 14 -4t-1 -18l-28 -132q-3 -11 -8 -17t-8 -6l-4 -1q-60 -20 -86.5 -35t-32.5 -40l-114 -540q-25 -118 -69.5 -212.5t-110.5 -166.5t-159 -111t-206 -39 q-263 0 -365 130.5t-45 398.5zM614 1497q13 57 59 98.5t102 41.5t85.5 -42t16.5 -98q-13 -60 -59 -100t-103 -40t-85.5 40t-15.5 100zM927 1497q13 57 59 98.5t103 41.5q56 0 86.5 -42t17.5 -98q-13 -60 -59.5 -100t-103.5 -40q-58 0 -87 40t-16 100z" />
<glyph unicode="&#xdd;" horiz-adv-x="1081" d="M188 1149l28 132q3 15 6.5 18.5t15.5 3.5h483q14 0 16.5 -5.5t-2.5 -20.5l-26 -126q-4 -14 -5.5 -18.5t-7 -9t-16.5 -6.5q-48 -4 -64.5 -13t-21.5 -32q-24 -118 33 -404h6q215 292 238 404q5 23 -8.5 32t-58.5 13q-16 3 -18 10.5t3 23.5l26 126q6 21 12 24q4 2 13 2h419 q13 0 15 -4t-2 -18l-28 -132q-8 -26 -21 -26q-58 -13 -81 -27t-38 -46q-55 -126 -159 -289t-213 -288l-41 -201q-10 -46 0.5 -62.5t55.5 -23.5q14 -3 16 -10t-2 -25l-27 -125q-3 -16 -7.5 -21t-17.5 -5h-482q-13 0 -15.5 4t0.5 18l28 133q3 14 6 18t15 8q58 15 86 32.5 t33 47.5l31 149q-63 129 -100.5 315t-25.5 325q2 26 -17 42t-71 31q-10 3 -11.5 8t2.5 18zM748 1430l116 156q21 29 34 37t37 8h247q24 0 14 -18q-6 -10 -17 -19l-215 -179q-50 -37 -95 -37h-115q-24 0 -26.5 10t20.5 42z" />
<glyph unicode="&#xde;" horiz-adv-x="1020" d="M-22 22l28 133q3 15 5.5 18.5t14.5 7.5q58 15 86 32.5t33 47.5l8 29h2l1 10l-1 2l156 737h2l2 5q5 36 -8 51t-52 22q-16 3 -18 10t3 25l26 125q3 10 4 13t4 7t7 5t11 1h484q11 0 13.5 -4t-0.5 -18l-28 -132q-4 -19 -10 -22q-3 -2 -8 -4q-60 -15 -88 -32.5t-33 -47.5 l-2 -4h43q85 0 152.5 -11t114 -30t78 -48t48.5 -62t23 -76t2.5 -86t-14.5 -95q-15 -72 -38.5 -130t-63.5 -111.5t-94.5 -89.5t-133.5 -57t-178 -21q-63 0 -108 9q2 -21 14.5 -31t46.5 -14q14 -3 16.5 -10t-1.5 -25l-28 -125q-3 -17 -6.5 -21.5t-15.5 -4.5h-484q-12 0 -15 4 t0 18zM501 475q20 -11 82 -11q57 0 100.5 46.5t63.5 142.5q17 79 -13.5 123.5t-87.5 44.5h-73z" />
<glyph unicode="&#xdf;" horiz-adv-x="1085" d="M26 30l190 890q44 210 167.5 306t337.5 96q93 0 165 -18.5t124 -57.5t71.5 -105.5t0.5 -155.5q-15 -69 -45 -125t-58 -87.5t-80 -79.5q211 -106 162 -337q-36 -171 -187.5 -263.5t-404.5 -92.5h-30q-16 0 -20.5 5t-1.5 15l34 162q5 18 10 22.5t21 4.5h45q86 0 150.5 38 t80.5 112q8 41 -6.5 75.5t-36.5 53.5t-60.5 48t-56.5 47q-2 2 -10.5 9.5t-10.5 10t-8.5 9t-8.5 10t-6.5 10t-5.5 11.5t-2.5 12t-1 14.5t2.5 15.5q4 20 17.5 39.5t26.5 32t38 32.5q8 7 34.5 27t36 29.5t27 29t27 42.5t15.5 53q15 74 -7.5 102t-78.5 28q-76 0 -115.5 -41.5 t-59.5 -138.5l-190 -886q-4 -22 -10 -28t-23 -6h-233q-18 0 -24 5t-2 25z" />
<glyph unicode="&#xe0;" horiz-adv-x="958" d="M11 209q18 83 55 136.5t83.5 76t98.5 32.5t102.5 14.5t94 13.5t75 36.5t42.5 77.5q9 49 -9.5 72t-81.5 23q-38 0 -86 -21l-65 -149q-2 -16 -22 -16h-143q-13 0 -15 2.5t1 15.5l56 259q5 24 12 35.5t22 18.5q40 18 126.5 33t176.5 15q212 0 287.5 -87t38.5 -257l-52 -246 q-10 -41 -7.5 -62t8 -27t18.5 -6q33 0 44 47q4 30 30 30h49q17 0 19.5 -9t-3.5 -34q-51 -246 -268 -246q-149 0 -182 114q-77 -120 -296 -120q-132 0 -183.5 51.5t-25.5 176.5zM315 216q-7 -31 0 -45.5t31 -14.5q44 0 92 47t76 125l26 67q-20 -39 -49 -61t-55.5 -29 t-51 -13.5t-43.5 -24t-26 -51.5zM397 1188q-10 14 -6.5 25.5t19.5 11.5h249q23 0 33 -8.5t17 -36.5l47 -160q7 -32 1 -42t-29 -10h-115q-46 0 -77 39z" />
<glyph unicode="&#xe1;" horiz-adv-x="1027" d="M63 486q19 85 54.5 156t86 126t120 85.5t149.5 30.5q72 0 132.5 -22t88.5 -71q14 75 62 75h41q23 0 53.5 -6.5t94.5 -23.5t111 -28q20 -3 15 -26l-27 -123q-3 -14 -7 -19.5t-13 -6.5l-52 -9q-37 -3 -50 -58l-60 -285q-9 -35 -5.5 -53.5t9.5 -23.5t18 -5q18 0 26.5 11 t16.5 36q5 19 11 24.5t21 5.5h46q17 0 20 -9t-3 -34q-51 -246 -268 -246q-158 0 -186 123q-99 -123 -263 -123q-114 0 -180.5 65.5t-78 176.5t16.5 257zM371 439q-12 -61 -12 -111.5t21 -83t59 -32.5q61 0 106 61.5t68 167.5q23 101 4 164t-81 63q-56 0 -101 -66.5 t-64 -162.5zM566 1022l115 157q22 29 34.5 36.5t36.5 7.5h248q24 0 13 -19q-5 -9 -15 -18l-216 -179q-48 -37 -95 -37h-115q-24 0 -26.5 10t20.5 42z" />
<glyph unicode="&#xe2;" horiz-adv-x="958" d="M11 209q18 83 55 136.5t83.5 76t98.5 32.5t102.5 14.5t94 13.5t75 36.5t42.5 77.5q9 49 -9.5 72t-81.5 23q-38 0 -86 -21l-65 -149q-2 -16 -22 -16h-143q-13 0 -15 2.5t1 15.5l56 259q5 24 12 35.5t22 18.5q40 18 126.5 33t176.5 15q212 0 287.5 -87t38.5 -257l-52 -246 q-10 -41 -7.5 -62t8 -27t18.5 -6q33 0 44 47q4 30 30 30h49q17 0 19.5 -9t-3.5 -34q-51 -246 -268 -246q-149 0 -182 114q-77 -120 -296 -120q-132 0 -183.5 51.5t-25.5 176.5zM315 216q-7 -31 0 -45.5t31 -14.5q44 0 92 47t76 125l26 67q-20 -39 -49 -61t-55.5 -29 t-51 -13.5t-43.5 -24t-26 -51.5zM376 961q-2 18 2 27.5t17 22.5l169 186q12 13 25.5 20t25 8.5t31.5 1.5h104q28 0 42.5 -5.5t24.5 -24.5l92 -186q13 -21 1.5 -45t-35.5 -11l-212 106h-2l-255 -104q-28 -11 -30 4z" />
<glyph unicode="&#xe3;" horiz-adv-x="958" d="M11 209q18 83 55 136.5t83.5 76t98.5 32.5t102.5 14.5t94 13.5t75 36.5t42.5 77.5q9 49 -9.5 72t-81.5 23q-38 0 -86 -21l-65 -149q-2 -16 -22 -16h-143q-13 0 -15 2.5t1 15.5l56 259q5 24 12 35.5t22 18.5q40 18 126.5 33t176.5 15q212 0 287.5 -87t38.5 -257l-52 -246 q-10 -41 -7.5 -62t8 -27t18.5 -6q33 0 44 47q4 30 30 30h49q17 0 19.5 -9t-3.5 -34q-51 -246 -268 -246q-149 0 -182 114q-77 -120 -296 -120q-132 0 -183.5 51.5t-25.5 176.5zM315 216q-7 -31 0 -45.5t31 -14.5q44 0 92 47t76 125l26 67q-20 -39 -49 -61t-55.5 -29 t-51 -13.5t-43.5 -24t-26 -51.5zM443 1056q27 53 84.5 105.5t109.5 52.5q34 0 62.5 -15.5t53 -31t48.5 -15.5t42 34q8 17 25 9l70 -33q12 -5 12.5 -12t-8.5 -24q-32 -57 -87 -108.5t-108 -51.5q-46 0 -96.5 31t-67.5 31q-20 0 -41 -38q-11 -17 -23 -9l-65 39q-15 8 -17 14.5 t6 21.5z" />
<glyph unicode="&#xe4;" horiz-adv-x="958" d="M11 209q18 83 55 136.5t83.5 76t98.5 32.5t102.5 14.5t94 13.5t75 36.5t42.5 77.5q9 49 -9.5 72t-81.5 23q-38 0 -86 -21l-65 -149q-2 -16 -22 -16h-143q-13 0 -15 2.5t1 15.5l56 259q5 24 12 35.5t22 18.5q40 18 126.5 33t176.5 15q212 0 287.5 -87t38.5 -257l-52 -246 q-10 -41 -7.5 -62t8 -27t18.5 -6q33 0 44 47q4 30 30 30h49q17 0 19.5 -9t-3.5 -34q-51 -246 -268 -246q-149 0 -182 114q-77 -120 -296 -120q-132 0 -183.5 51.5t-25.5 176.5zM315 216q-7 -31 0 -45.5t31 -14.5q44 0 92 47t76 125l26 67q-20 -39 -49 -61t-55.5 -29 t-51 -13.5t-43.5 -24t-26 -51.5zM378 1089q11 57 57.5 98.5t102.5 41.5t85 -41.5t17 -98.5q-13 -60 -59 -99.5t-103 -39.5t-85 39.5t-15 99.5zM691 1089q12 57 58.5 98.5t103.5 41.5q56 0 85.5 -41.5t18.5 -98.5q-13 -60 -60 -99.5t-104 -39.5q-58 0 -86.5 39.5t-15.5 99.5z " />
<glyph unicode="&#xe5;" horiz-adv-x="958" d="M11 209q18 83 55 136.5t83.5 76t98.5 32.5t102.5 14.5t94 13.5t75 36.5t42.5 77.5q9 49 -9.5 72t-81.5 23q-38 0 -86 -21l-65 -149q-2 -16 -22 -16h-143q-13 0 -15 2.5t1 15.5l56 259q5 24 12 35.5t22 18.5q40 18 126.5 33t176.5 15q212 0 287.5 -87t38.5 -257l-52 -246 q-10 -41 -7.5 -62t8 -27t18.5 -6q33 0 44 47q4 30 30 30h49q17 0 19.5 -9t-3.5 -34q-51 -246 -268 -246q-149 0 -182 114q-77 -120 -296 -120q-132 0 -183.5 51.5t-25.5 176.5zM315 216q-7 -31 0 -45.5t31 -14.5q44 0 92 47t76 125l26 67q-20 -39 -49 -61t-55.5 -29 t-51 -13.5t-43.5 -24t-26 -51.5zM421 1087q26 134 273 134q137 0 182.5 -37t33.5 -97q-30 -136 -273 -136q-74 0 -122.5 12t-68 31t-27 43.5t1.5 49.5zM622 1087q-5 -22 2.5 -38t28.5 -16q19 0 35 16.5t21 37.5q3 18 -6 34.5t-27 16.5q-21 0 -36 -16t-18 -35z" />
<glyph unicode="&#xe6;" horiz-adv-x="1387" d="M15 223q14 68 41 117.5t55.5 77t71 44.5t75 23t79.5 10q126 13 163 26q53 19 62 60q9 40 -8 59t-70 19q-61 0 -117 -19l-41 -98q-8 -19 -23 -19h-145q-12 0 -14 3t1 16l52 240q8 43 36 54q41 17 129 32.5t176 15.5q180 0 263 -74q114 74 288 74q188 0 259.5 -74.5 t38.5 -224.5q-16 -77 -47.5 -130.5t-67.5 -83.5t-91 -46.5t-102 -20.5t-116 -4q-60 0 -82 2q27 -92 165 -92q49 0 139.5 23.5t117.5 25.5q3 0 9.5 1t7.5 0.5t3.5 -4t-1.5 -12.5l-32 -149q-5 -25 -11.5 -35t-21.5 -17q-55 -28 -142.5 -45t-166.5 -17q-251 0 -337 118 q-105 -118 -343 -118q-159 0 -220 54.5t-33 187.5zM318 233q-7 -39 0 -50.5t32 -11.5q51 0 109.5 52t76.5 136l6 32q-41 -70 -116 -82q-22 -3 -32 -4.5t-25.5 -6.5t-23 -12.5t-15.5 -20.5t-12 -32zM890 475q30 1 49 2.5t50 8t50.5 17t37 32t23.5 51.5q9 42 -5.5 64t-40.5 22 q-54 0 -97 -51.5t-67 -145.5z" />
<glyph unicode="&#xe7;" horiz-adv-x="813" d="M60 458q43 206 171 316t313 110q97 0 179.5 -15t116.5 -33q14 -7 16.5 -17.5t-3.5 -34.5l-64 -296q-3 -13 -6.5 -16t-13.5 -3h-145q-15 0 -15 17l-4 153q-14 12 -25.5 15t-37.5 3q-60 0 -108.5 -56.5t-70.5 -161.5q-27 -124 13 -173.5t129 -49.5q83 0 229 30q13 3 17 -3 t1 -23l-33 -157q-3 -14 -10 -20t-22 -11q-105 -37 -216 -41l-20 -45q82 -6 104 -43.5t9 -103.5q-18 -85 -88 -125.5t-163 -40.5q-67 0 -136 32q-24 11 11 58q11 19 16.5 23t11.5 -1q26 -13 71 -13q60 0 74 59q6 31 -10 49.5t-66 18.5q-16 0 -17.5 3.5t9.5 22.5l62 108 q-369 28 -279 465z" />
<glyph unicode="&#xe8;" horiz-adv-x="865" d="M61 434q48 229 171 339.5t338 110.5q188 0 259.5 -74.5t38.5 -224.5q-16 -77 -47.5 -130.5t-68 -83.5t-91.5 -46.5t-102 -20.5t-116 -4q-60 0 -82 2q27 -92 166 -92q49 0 139.5 23.5t117.5 25.5q3 0 9 1t7 0.5t3.5 -4t-1.5 -12.5l-31 -149q-5 -25 -12 -35t-22 -17 q-55 -28 -142.5 -45t-166.5 -17q-243 0 -329.5 109t-37.5 344zM343 1188q-10 14 -6.5 25.5t19.5 11.5h249q23 0 33 -8.5t17 -36.5l47 -160q7 -32 1 -42t-29 -10h-115q-46 0 -77 39zM371 475q30 1 49 2.5t50 8t50.5 17t37 32t23.5 51.5q9 42 -6 64t-41 22q-54 0 -96.5 -51 t-66.5 -146z" />
<glyph unicode="&#xe9;" horiz-adv-x="865" d="M61 434q48 229 171 339.5t338 110.5q188 0 259.5 -74.5t38.5 -224.5q-16 -77 -47.5 -130.5t-68 -83.5t-91.5 -46.5t-102 -20.5t-116 -4q-60 0 -82 2q27 -92 166 -92q49 0 139.5 23.5t117.5 25.5q3 0 9 1t7 0.5t3.5 -4t-1.5 -12.5l-31 -149q-5 -25 -12 -35t-22 -17 q-55 -28 -142.5 -45t-166.5 -17q-243 0 -329.5 109t-37.5 344zM371 475q30 1 49 2.5t50 8t50.5 17t37 32t23.5 51.5q9 42 -6 64t-41 22q-54 0 -96.5 -51t-66.5 -146zM531 1022l115 157q22 29 34.5 36.5t36.5 7.5h247q12 0 15.5 -5.5t-1 -14t-15.5 -17.5l-216 -179 q-48 -37 -95 -37h-116q-24 0 -26 10t21 42z" />
<glyph unicode="&#xea;" horiz-adv-x="865" d="M61 434q48 229 171 339.5t338 110.5q188 0 259.5 -74.5t38.5 -224.5q-16 -77 -47.5 -130.5t-68 -83.5t-91.5 -46.5t-102 -20.5t-116 -4q-60 0 -82 2q27 -92 166 -92q49 0 139.5 23.5t117.5 25.5q3 0 9 1t7 0.5t3.5 -4t-1.5 -12.5l-31 -149q-5 -25 -12 -35t-22 -17 q-55 -28 -142.5 -45t-166.5 -17q-243 0 -329.5 109t-37.5 344zM324 961q-2 18 2 27.5t17 22.5l169 186q12 13 25.5 20t25 8.5t31.5 1.5h104q28 0 42.5 -5.5t24.5 -24.5l91 -186q13 -21 2 -45t-35 -11l-212 106h-2l-255 -104q-28 -11 -30 4zM371 475q24 1 40 2t42 4.5 t43.5 11t36.5 19t31 30.5t17 44q9 42 -6 64t-41 22q-54 0 -96.5 -51t-66.5 -146z" />
<glyph unicode="&#xeb;" horiz-adv-x="865" d="M61 434q48 229 171 339.5t338 110.5q188 0 259.5 -74.5t38.5 -224.5q-16 -77 -47.5 -130.5t-68 -83.5t-91.5 -46.5t-102 -20.5t-116 -4q-60 0 -82 2q27 -92 166 -92q49 0 139.5 23.5t117.5 25.5q3 0 9 1t7 0.5t3.5 -4t-1.5 -12.5l-31 -149q-5 -25 -12 -35t-22 -17 q-55 -28 -142.5 -45t-166.5 -17q-243 0 -329.5 109t-37.5 344zM326 1089q11 57 57.5 98.5t102.5 41.5t85 -41.5t17 -98.5q-13 -60 -59 -99.5t-103 -39.5t-85 39.5t-15 99.5zM371 475q30 1 49 2.5t50 8t50.5 17t37 32t23.5 51.5q9 42 -6 64t-41 22q-54 0 -96.5 -51 t-66.5 -146zM639 1089q12 57 58.5 98.5t103.5 41.5q56 0 85.5 -41.5t18.5 -98.5q-13 -60 -60 -99.5t-104 -39.5q-58 0 -86.5 39.5t-15.5 99.5z" />
<glyph unicode="&#xec;" horiz-adv-x="577" d="M99 672l26 123q4 16 9 21t15 7q219 43 285 43h56q27 0 34 -24t-1 -40l-106 -502q-11 -43 -9 -65.5t7.5 -29t18.5 -6.5q18 0 27.5 11t16.5 36q5 19 11 24.5t19 5.5h47q17 0 20.5 -9t-2.5 -34q-51 -246 -270 -246q-118 0 -165.5 74t-12.5 242l59 278q5 27 -3.5 41.5 t-22.5 16.5l-52 9q-13 0 -7 24zM168 1188q-10 14 -6.5 25.5t19.5 11.5h249q23 0 33 -8.5t17 -36.5l47 -160q7 -32 1 -42t-29 -10h-115q-46 0 -77 39z" />
<glyph unicode="&#xed;" horiz-adv-x="577" d="M99 672l26 123q4 16 9 21t15 7q219 43 285 43h56q27 0 34 -24t-1 -40l-106 -502q-11 -43 -9 -65.5t7.5 -29t18.5 -6.5q18 0 27.5 11t16.5 36q5 19 11 24.5t19 5.5h47q17 0 20.5 -9t-2.5 -34q-51 -246 -270 -246q-118 0 -165.5 74t-12.5 242l59 278q5 27 -3.5 41.5 t-22.5 16.5l-52 9q-13 0 -7 24zM352 1022l115 157q22 29 34.5 36.5t36.5 7.5h248q24 0 13 -19q-5 -9 -15 -18l-216 -179q-48 -37 -95 -37h-116q-24 0 -26 10t21 42z" />
<glyph unicode="&#xee;" horiz-adv-x="577" d="M99 672l26 123q4 16 9 21t15 7q219 43 285 43h56q27 0 34 -24t-1 -40l-106 -502q-11 -43 -9 -65.5t7.5 -29t18.5 -6.5q18 0 27.5 11t16.5 36q5 19 11 24.5t19 5.5h47q17 0 20.5 -9t-2.5 -34q-51 -246 -270 -246q-118 0 -165.5 74t-12.5 242l59 278q5 27 -3.5 41.5 t-22.5 16.5l-52 9q-13 0 -7 24zM149 961q-2 18 2 27.5t17 22.5l169 186q12 13 25.5 20t25 8.5t31.5 1.5h104q28 0 42.5 -5.5t24.5 -24.5l91 -186q13 -21 2 -45t-35 -11l-212 106h-2l-255 -104q-28 -11 -30 4z" />
<glyph unicode="&#xef;" horiz-adv-x="575" d="M99 672l26 123q4 16 9 21t15 7q219 43 285 43h56q27 0 34 -24t-1 -40l-106 -502q-11 -43 -9 -65.5t7.5 -29t18.5 -6.5q18 0 27.5 11t16.5 36q5 19 11 24.5t19 5.5h47q17 0 20.5 -9t-2.5 -34q-51 -246 -270 -246q-118 0 -165.5 74t-12.5 242l59 278q5 27 -3.5 41.5 t-22.5 16.5l-52 9q-13 0 -7 24zM156 1089q11 57 58 98.5t103 41.5t85 -41.5t17 -98.5q-13 -60 -59 -99.5t-103 -39.5t-85.5 39.5t-15.5 99.5zM469 1089q12 57 58.5 98.5t103.5 41.5q56 0 85.5 -41.5t18.5 -98.5q-13 -60 -59.5 -99.5t-103.5 -39.5q-58 0 -87 39.5t-16 99.5z " />
<glyph unicode="&#xf0;" horiz-adv-x="953" d="M61 434q18 84 50.5 155t83.5 131t126.5 94.5t168.5 34.5q84 0 137 -48q-18 115 -85 189l-67 -93q-11 -17 -28 -5l-110 82q-22 17 -7 39l41 56q-30 3 -62 3h-9q-23 0 -29.5 12t-0.5 39l32 154q6 25 15.5 35t32.5 10h11q96 0 179 -17l78 114q16 23 39 3l101 -70 q15 -11 17.5 -19t-6.5 -26l-50 -67q111 -65 172.5 -176.5t69.5 -252t-26 -308.5q-111 -522 -535 -522q-218 0 -301 122t-38 331zM378 426q-22 -107 -3.5 -160.5t74.5 -53.5q58 0 94.5 62.5t63.5 194.5l4 21q2 66 -14.5 97t-60.5 31q-66 0 -102 -49.5t-56 -142.5z" />
<glyph unicode="&#xf1;" horiz-adv-x="1094" d="M-24 22l28 133q3 15 5.5 18.5t14.5 7.5q59 15 87.5 33t33.5 47l69 322q6 28 -1 41.5t-21 15.5l-51 10q-15 2 -9 26l26 123q3 16 7.5 20t16.5 6q57 11 123.5 27t102 23.5t57.5 7.5h40q49 0 35 -64l-11 -54q125 119 300 119q119 0 159.5 -79.5t3.5 -253.5l-52 -251 q-11 -43 -8.5 -65.5t8.5 -29t19 -6.5q18 0 26.5 11t16.5 36q5 19 11 24.5t20 5.5h47q17 0 20 -9t-3 -34q-51 -246 -268 -246q-118 0 -166 74t-13 242l44 205q14 86 2.5 112t-50.5 26q-58 0 -108.5 -70t-81.5 -211l-18 -93q-10 -45 1 -62t56 -24q14 -3 16.5 -10t-1.5 -25 l-28 -125q-3 -17 -7 -21.5t-17 -4.5h-467q-12 0 -15 4t0 18zM523 1056q27 53 84.5 105.5t109.5 52.5q42 0 89.5 -31t74.5 -31q24 0 42 34q8 17 25 9l70 -33q12 -5 12.5 -12t-8.5 -24q-32 -57 -87 -108.5t-108 -51.5q-46 0 -96.5 31t-67.5 31q-20 0 -41 -38q-11 -16 -22 -9 l-66 39q-15 8 -17 14.5t6 21.5z" />
<glyph unicode="&#xf2;" horiz-adv-x="904" d="M60 473q14 66 38 123.5t63 111t89 92t121 61.5t154 23q87 0 154.5 -18.5t111.5 -52.5t72.5 -78.5t39 -99.5t8.5 -112.5t-15 -120.5q-17 -82 -52 -153t-90.5 -131.5t-139 -95.5t-186.5 -35q-87 0 -154.5 19t-111 53.5t-71 79.5t-37.5 100.5t-8.5 113t14.5 120.5zM344 1188 q-10 14 -6.5 25.5t19.5 11.5h250q23 0 33 -8.5t17 -36.5l47 -160q7 -32 1 -42t-29 -10h-116q-45 0 -76 39zM354 430q-48 -214 93 -214q56 0 95.5 60t60.5 156q10 59 9.5 108.5t-28 82t-78.5 32.5q-56 0 -94 -63.5t-58 -161.5z" />
<glyph unicode="&#xf3;" horiz-adv-x="904" d="M60 473q14 66 38 123.5t63 111t89 92t121 61.5t154 23q87 0 154.5 -18.5t111.5 -52.5t72.5 -78.5t39 -99.5t8.5 -112.5t-15 -120.5q-17 -82 -52 -153t-90.5 -131.5t-139 -95.5t-186.5 -35q-87 0 -154.5 19t-111 53.5t-71 79.5t-37.5 100.5t-8.5 113t14.5 120.5zM354 430 q-48 -214 93 -214q56 0 95.5 60t60.5 156q10 59 9.5 108.5t-28 82t-78.5 32.5q-56 0 -94 -63.5t-58 -161.5zM531 1022l115 157q22 29 34.5 36.5t36.5 7.5h247q12 0 15.5 -5.5t-1 -14t-15.5 -17.5l-216 -179q-48 -37 -95 -37h-116q-24 0 -26 10t21 42z" />
<glyph unicode="&#xf4;" horiz-adv-x="904" d="M60 473q14 66 38 123.5t63 111t89 92t121 61.5t154 23q87 0 154.5 -18.5t111.5 -52.5t72.5 -78.5t39 -99.5t8.5 -112.5t-15 -120.5q-17 -82 -52 -153t-90.5 -131.5t-139 -95.5t-186.5 -35q-87 0 -154.5 19t-111 53.5t-71 79.5t-37.5 100.5t-8.5 113t14.5 120.5zM322 961 q-2 18 2 27.5t17 22.5l169 186q12 13 25.5 20t25 8.5t31.5 1.5h104q28 0 42.5 -5.5t24.5 -24.5l92 -186q13 -21 1.5 -45t-35.5 -11l-212 106h-2l-255 -104q-28 -11 -30 4zM354 430q-10 -45 -11.5 -82t7.5 -67.5t33.5 -47.5t63.5 -17q56 0 95.5 60t60.5 156q9 45 9.5 83.5 t-8.5 70.5t-34 50.5t-64 18.5q-38 0 -69.5 -33t-50.5 -81t-32 -111z" />
<glyph unicode="&#xf5;" horiz-adv-x="904" d="M60 473q14 66 38 123.5t63 111t89 92t121 61.5t154 23q87 0 154.5 -18.5t111.5 -52.5t72.5 -78.5t39 -99.5t8.5 -112.5t-15 -120.5q-17 -82 -52 -153t-90.5 -131.5t-139 -95.5t-186.5 -35q-87 0 -154.5 19t-111 53.5t-71 79.5t-37.5 100.5t-8.5 113t14.5 120.5zM354 430 q-48 -214 93 -214q56 0 95.5 60t60.5 156q10 59 9.5 108.5t-28 82t-78.5 32.5q-56 0 -94 -63.5t-58 -161.5zM391 1056q27 53 84.5 105.5t109.5 52.5q43 0 89 -31t74 -31q25 0 43 34q7 17 24 9l71 -33q12 -5 12.5 -12t-8.5 -24q-32 -57 -87.5 -108.5t-108.5 -51.5 q-46 0 -96 31t-67 31q-20 0 -41 -38q-11 -17 -23 -9l-65 39q-15 8 -17 14.5t6 21.5z" />
<glyph unicode="&#xf6;" horiz-adv-x="904" d="M60 473q14 66 38 123.5t63 111t89 92t121 61.5t154 23q87 0 154.5 -18.5t111.5 -52.5t72.5 -78.5t39 -99.5t8.5 -112.5t-15 -120.5q-17 -82 -52 -153t-90.5 -131.5t-139 -95.5t-186.5 -35q-87 0 -154.5 19t-111 53.5t-71 79.5t-37.5 100.5t-8.5 113t14.5 120.5zM326 1089 q11 57 57.5 98.5t102.5 41.5t85 -41.5t17 -98.5q-13 -60 -59 -99.5t-103 -39.5t-85 39.5t-15 99.5zM354 430q-48 -214 93 -214q56 0 95.5 60t60.5 156q10 59 9.5 108.5t-28 82t-78.5 32.5q-56 0 -94 -63.5t-58 -161.5zM639 1089q12 57 58.5 98.5t103.5 41.5q56 0 85.5 -41.5 t18.5 -98.5q-13 -60 -60 -99.5t-104 -39.5q-58 0 -86.5 39.5t-15.5 99.5z" />
<glyph unicode="&#xf7;" horiz-adv-x="973" d="M39 330l54 256h897l-54 -256h-897zM249 132q15 68 76.5 114t143.5 46q80 0 122.5 -46.5t28.5 -113.5q-15 -68 -77.5 -115t-142.5 -47q-82 0 -124 47t-27 115zM391 802q14 67 78.5 114t141.5 47q76 0 120 -47t30 -114t-77.5 -113.5t-139.5 -46.5q-77 0 -122 47t-31 113z " />
<glyph unicode="&#xf8;" horiz-adv-x="904" d="M60 473q14 66 38 123.5t63 111t89 92t121 61.5t154 23q60 0 115 -11l38 67q9 17 18 17h131q25 0 13 -21l-64 -113q64 -42 98 -110.5t36.5 -146t-14.5 -164.5q-17 -82 -52 -153t-90.5 -131.5t-139 -95.5t-186.5 -35q-60 0 -111 9l-34 -63q-6 -13 -12.5 -16t-21.5 -3h-126 q-15 0 -2 19l61 112q-66 42 -100.5 112t-36 148.5t14.5 167.5zM343 333l176 320q-2 0 -6.5 1t-6.5 1q-56 0 -94 -63.5t-58 -161.5q-13 -66 -11 -97zM439 216h8q49 0 87 50t56.5 118t23.5 145z" />
<glyph unicode="&#xf9;" horiz-adv-x="1063" d="M95 689l22 106q3 11 7 16.5t7.5 7.5t11.5 4q226 43 281 43h54q27 0 34.5 -24t-0.5 -40l-102 -484q-15 -86 -4.5 -112.5t48.5 -26.5q58 0 108.5 66.5t79.5 203.5l38 177q-5 22 -28 29l-52 10q-13 4 -8 24l22 106q3 11 7 16.5t7.5 7.5t11.5 4q226 43 282 43h54q27 0 34 -24 t-1 -40l-24 -119h2l-91 -428q-4 -33 3 -44.5t23 -11.5q18 0 27.5 11t16.5 36q5 19 11 24.5t19 5.5h47q17 0 20.5 -9t-2.5 -34q-51 -246 -270 -246q-169 0 -190 147q-59 -76 -121 -110.5t-150 -34.5q-146 0 -197 78t-14 255l54 251h2l6 25q9 50 -26 57l-54 10q-11 3 -6 24z M393 1188q-10 14 -6.5 25.5t19.5 11.5h249q24 0 34.5 -8.5t16.5 -36.5l46 -160q7 -32 1 -42t-29 -10h-115q-46 0 -77 39z" />
<glyph unicode="&#xfa;" horiz-adv-x="1063" d="M95 689l22 106q3 11 7 16.5t7.5 7.5t11.5 4q226 43 281 43h54q27 0 34.5 -24t-0.5 -40l-102 -484q-15 -86 -4.5 -112.5t48.5 -26.5q58 0 108.5 66.5t79.5 203.5l38 177q-5 22 -28 29l-52 10q-13 4 -8 24l22 106q3 11 7 16.5t7.5 7.5t11.5 4q226 43 282 43h54q27 0 34 -24 t-1 -40l-24 -119h2l-91 -428q-4 -33 3 -44.5t23 -11.5q18 0 27.5 11t16.5 36q5 19 11 24.5t19 5.5h47q17 0 20.5 -9t-2.5 -34q-51 -246 -270 -246q-169 0 -190 147q-59 -76 -121 -110.5t-150 -34.5q-146 0 -197 78t-14 255l54 251h2l6 25q9 50 -26 57l-54 10q-11 3 -6 24z M581 1022l115 157q22 29 34.5 36.5t36.5 7.5h248q24 0 13 -19q-5 -9 -15 -18l-216 -179q-48 -37 -95 -37h-116q-24 0 -26 10t21 42z" />
<glyph unicode="&#xfb;" horiz-adv-x="1063" d="M95 689l22 106q3 11 7 16.5t7.5 7.5t11.5 4q226 43 281 43h54q27 0 34.5 -24t-0.5 -40l-102 -484q-15 -86 -4.5 -112.5t48.5 -26.5q58 0 108.5 66.5t79.5 203.5l38 177q-5 22 -28 29l-52 10q-13 4 -8 24l22 106q3 11 7 16.5t7.5 7.5t11.5 4q226 43 282 43h54q27 0 34 -24 t-1 -40l-24 -119h2l-91 -428q-4 -33 3 -44.5t23 -11.5q18 0 27.5 11t16.5 36q5 19 11 24.5t19 5.5h47q17 0 20.5 -9t-2.5 -34q-51 -246 -270 -246q-169 0 -190 147q-59 -76 -121 -110.5t-150 -34.5q-146 0 -197 78t-14 255l54 251h2l6 25q9 50 -26 57l-54 10q-11 3 -6 24z M371 961q-4 28 18 50l170 186q18 19 35 24.5t46 5.5h105q28 0 42.5 -5.5t24.5 -24.5l91 -186q14 -25 -4 -52q-8 -16 -30 -4l-212 106h-2l-255 -104q-27 -11 -29 4z" />
<glyph unicode="&#xfc;" horiz-adv-x="1063" d="M95 689l22 106q3 11 7 16.5t7.5 7.5t11.5 4q226 43 281 43h54q27 0 34.5 -24t-0.5 -40l-102 -484q-15 -86 -4.5 -112.5t48.5 -26.5q58 0 108.5 66.5t79.5 203.5l38 177q-5 22 -28 29l-52 10q-13 4 -8 24l22 106q3 11 7 16.5t7.5 7.5t11.5 4q226 43 282 43h54q27 0 34 -24 t-1 -40l-24 -119h2l-91 -428q-4 -33 3 -44.5t23 -11.5q18 0 27.5 11t16.5 36q5 19 11 24.5t19 5.5h47q17 0 20.5 -9t-2.5 -34q-51 -246 -270 -246q-169 0 -190 147q-59 -76 -121 -110.5t-150 -34.5q-146 0 -197 78t-14 255l54 251h2l6 25q9 50 -26 57l-54 10q-11 3 -6 24z M374 1089q11 57 57.5 98.5t102.5 41.5t85 -41.5t18 -98.5q-13 -60 -59 -99.5t-103 -39.5t-85.5 39.5t-15.5 99.5zM687 1089q12 57 58.5 98.5t103.5 41.5q56 0 85.5 -41.5t18.5 -98.5q-13 -60 -60 -99.5t-104 -39.5q-58 0 -86.5 39.5t-15.5 99.5z" />
<glyph unicode="&#xfd;" horiz-adv-x="968" d="M37 -369l28 127q3 15 6.5 19.5t12.5 4.5q80 9 104 21t54 54l101 143h-56q-17 0 -24 13q-32 62 -63 274t-31 333q2 24 -13 40t-52 31q-10 7 -5 22l28 136q0 2 1 5t1.5 4l1.5 3t2 2.5t2.5 1.5t4 1h5.5h434q13 0 15.5 -4t-0.5 -17l-28 -130q-3 -16 -7 -20.5t-19 -7.5 q-36 -7 -51 -21.5t-14 -41.5q-7 -212 20 -373q74 129 194 378q13 25 9 36t-33 22q-24 8 -27 14q-2 6 1 18l22 110q4 22 13.5 29.5t29.5 7.5h329q24 0 28.5 -7t-0.5 -27l-22 -102q-5 -17 -10.5 -23.5t-26.5 -17.5q-35 -12 -50 -25.5t-30 -45.5q-130 -264 -254 -476t-296 -464 q-29 -37 -57.5 -53t-81.5 -16h-179q-15 0 -17.5 2.5t0.5 19.5zM600 1022l115 157q22 29 34.5 36.5t36.5 7.5h247q24 0 13 -19q-5 -9 -15 -18l-216 -179q-48 -37 -94 -37h-116q-24 0 -26 10t21 42z" />
<glyph unicode="&#xfe;" horiz-adv-x="940" d="M-145 -331l28 132q0 2 1 5.5t1 4t1 3t1.5 3.5t1.5 2.5t2 2l3 1.5l4 2t5 2q28 8 45 15t30 18.5t16 25.5q32 144 242 1134q12 54 -24 58l-50 9q-9 1 -10 7t3 19l26 123q3 16 7.5 20t16.5 6q57 11 123.5 27t102 23.5t57.5 7.5h41q47 0 33 -63l-117 -555q47 93 124.5 137.5 t165.5 44.5q95 0 149 -64.5t61 -172.5t-20 -249q-40 -185 -141.5 -301t-251.5 -116q-70 0 -125 28t-72 90l-39 -181q-9 -42 14.5 -60t74.5 -26q16 -3 18 -10t-3 -25l-26 -125q-3 -16 -7.5 -21t-18.5 -5h-480q-11 0 -13.5 4.5t0.5 18.5zM391 406q-23 -99 -8 -162t68 -63 q57 0 102.5 66t66.5 164q13 63 12 114.5t-22 84t-59 32.5q-53 0 -95 -64.5t-65 -171.5z" />
<glyph unicode="&#xff;" horiz-adv-x="968" d="M37 -369l28 127q3 15 6.5 19.5t12.5 4.5q80 9 104 21t54 54l101 143h-56q-17 0 -24 13q-32 62 -63 274t-31 333q2 24 -13 40t-52 31q-10 7 -5 22l28 136q0 2 1 5t1.5 4l1.5 3t2 2.5t2.5 1.5t4 1h5.5h434q13 0 15.5 -4t-0.5 -17l-28 -130q-3 -16 -7 -20.5t-19 -7.5 q-36 -7 -51 -21.5t-14 -41.5q-7 -212 20 -373q74 129 194 378q13 25 9 36t-33 22q-24 8 -27 14q-2 6 1 18l22 110q4 22 13.5 29.5t29.5 7.5h329q24 0 28.5 -7t-0.5 -27l-22 -102q-5 -17 -10.5 -23.5t-26.5 -17.5q-35 -12 -50 -25.5t-30 -45.5q-130 -264 -254 -476t-296 -464 q-29 -37 -57.5 -53t-81.5 -16h-179q-15 0 -17.5 2.5t0.5 19.5zM397 1089q11 57 57.5 98.5t102.5 41.5t85 -41.5t17 -98.5q-13 -60 -59 -99.5t-103 -39.5t-85 39.5t-15 99.5zM709 1089q12 57 58.5 98.5t103.5 41.5q56 0 86 -41.5t19 -98.5q-13 -60 -60 -99.5t-104 -39.5 q-58 0 -87 39.5t-16 99.5z" />
<glyph unicode="&#x152;" horiz-adv-x="1785" d="M112 704q28 135 85.5 246.5t142 195t202 130t255.5 46.5q235 0 368 -112q116 112 362 112q118 0 197 -13t158 -43q14 -5 16.5 -19t-3.5 -41l-65 -310q-4 -16 -7 -19.5t-13 -3.5h-160q-8 0 -10.5 3.5t-4.5 15.5l-8 175q-48 13 -123 13q-30 0 -50.5 -3.5t-47 -15.5t-45 -41 t-28.5 -74q-7 -35 -7.5 -60.5t6.5 -42.5t18 -28t29.5 -17t38 -8t47.5 -2h84q23 0 17 -28l-39 -187q-6 -27 -28 -27h-84q-100 0 -149 -49q-24 -78 -54 -136q-4 -68 42 -93.5t146 -25.5q91 0 207 19.5t128 19.5q11 0 14.5 -5t0.5 -19l-45 -205q-5 -25 -28 -30 q-198 -41 -400 -41q-228 0 -337 82q-150 -82 -335 -82q-132 0 -232 35t-161 99t-94 153.5t-32 199.5t26 236zM445 655q-40 -193 6.5 -304t179.5 -111q118 0 204 111.5t126 303.5q41 190 -6.5 299t-181.5 109q-115 0 -201 -109t-127 -299z" />
<glyph unicode="&#x153;" horiz-adv-x="1403" d="M60 473q14 66 38 123.5t63 111t89 92t121 61.5t154 23q185 0 281 -83q116 83 302 83q188 0 259.5 -74.5t38.5 -224.5q-16 -77 -47.5 -130.5t-68 -83.5t-91.5 -46.5t-102 -20.5t-116 -4q-60 0 -82 2q27 -92 166 -92q49 0 139.5 23.5t117.5 25.5q3 0 9.5 1t7.5 0.5t3.5 -4 t-1.5 -12.5l-32 -149q-5 -25 -12 -35t-22 -17q-55 -28 -142.5 -45t-166.5 -17q-197 0 -290 73q-104 -67 -248 -67q-87 0 -154.5 19t-111 53.5t-71 79.5t-37.5 100.5t-8.5 113t14.5 120.5zM354 430q-48 -214 93 -214q91 0 143 162q2 15 10 56l9 46q9 78 -15 126.5t-88 48.5 q-56 0 -94 -63.5t-58 -161.5zM909 475q30 1 49 2.5t50 8t50.5 17t37 32t23.5 51.5q9 42 -6 64t-41 22q-54 0 -96.5 -51t-66.5 -146z" />
<glyph unicode="&#x178;" horiz-adv-x="1081" d="M188 1149l28 132q3 15 6.5 18.5t15.5 3.5h483q14 0 16.5 -5.5t-2.5 -20.5l-26 -126q-4 -14 -5.5 -18.5t-7 -9t-16.5 -6.5q-48 -4 -64.5 -13t-21.5 -32q-24 -118 33 -404h6q215 292 238 404q5 23 -8.5 32t-58.5 13q-16 3 -18 10.5t3 23.5l26 126q6 21 12 24q4 2 13 2h419 q13 0 15 -4t-2 -18l-28 -132q-8 -26 -21 -26q-58 -13 -81 -27t-38 -46q-55 -126 -159 -289t-213 -288l-41 -201q-10 -46 0.5 -62.5t55.5 -23.5q14 -3 16 -10t-2 -25l-27 -125q-3 -16 -7.5 -21t-17.5 -5h-482q-13 0 -15.5 4t0.5 18l28 133q3 14 6 18t15 8q58 15 86 32.5 t33 47.5l31 149q-63 129 -100.5 315t-25.5 325q2 26 -17 42t-71 31q-10 3 -11.5 8t2.5 18zM544 1497q13 57 58.5 98.5t101.5 41.5t85.5 -42t16.5 -98q-13 -60 -59 -100t-103 -40t-85 40t-15 100zM856 1497q13 57 59 98.5t103 41.5q56 0 87 -42t18 -98q-13 -60 -60 -100 t-104 -40q-58 0 -87 40t-16 100z" />
<glyph unicode="&#x2c6;" horiz-adv-x="547" d="M231 1383q0 16 20 36l172 186q18 19 34.5 24.5t45.5 5.5h104q28 0 43.5 -5.5t25.5 -24.5l89 -186q13 -22 2.5 -45.5t-35.5 -10.5l-213 106h-1l-255 -104q-28 -13 -28 3z" />
<glyph unicode="&#x2dc;" horiz-adv-x="618" d="M294 1439q27 53 84.5 105.5t109.5 52.5q42 0 89 -30.5t75 -30.5q24 0 42 34q8 17 25 9l70 -34q11 -5 11.5 -12t-7.5 -23q-32 -57 -87 -108.5t-108 -51.5q-46 0 -96.5 30.5t-67.5 30.5q-19 0 -43 -37q-10 -15 -22 -9l-64 39q-15 9 -17.5 14t6.5 21z" />
<glyph unicode="&#x2000;" horiz-adv-x="862" />
<glyph unicode="&#x2001;" horiz-adv-x="1724" />
<glyph unicode="&#x2002;" horiz-adv-x="862" />
<glyph unicode="&#x2003;" horiz-adv-x="1724" />
<glyph unicode="&#x2004;" horiz-adv-x="574" />
<glyph unicode="&#x2005;" horiz-adv-x="431" />
<glyph unicode="&#x2006;" horiz-adv-x="287" />
<glyph unicode="&#x2007;" horiz-adv-x="287" />
<glyph unicode="&#x2008;" horiz-adv-x="215" />
<glyph unicode="&#x2009;" horiz-adv-x="344" />
<glyph unicode="&#x200a;" horiz-adv-x="95" />
<glyph unicode="&#x2010;" horiz-adv-x="633" d="M91 438l36 162q7 26 18 31q6 2 13 2h455q12 0 14.5 -9.5t-1.5 -25.5l-32 -144q-3 -14 -4 -18t-5 -11.5t-9 -9.5t-14 -2h-454q-22 0 -17 25z" />
<glyph unicode="&#x2011;" horiz-adv-x="633" d="M91 438l36 162q7 26 18 31q6 2 13 2h455q12 0 14.5 -9.5t-1.5 -25.5l-32 -144q-3 -14 -4 -18t-5 -11.5t-9 -9.5t-14 -2h-454q-22 0 -17 25z" />
<glyph unicode="&#x2012;" horiz-adv-x="633" d="M91 438l36 162q7 26 18 31q6 2 13 2h455q12 0 14.5 -9.5t-1.5 -25.5l-32 -144q-3 -14 -4 -18t-5 -11.5t-9 -9.5t-14 -2h-454q-22 0 -17 25z" />
<glyph unicode="&#x2013;" horiz-adv-x="914" d="M91 438l36 162q7 26 18 31q6 2 13 2h734q21 0 15 -35l-32 -144q-5 -23 -12 -33t-23 -10h-734q-20 0 -15 27z" />
<glyph unicode="&#x2014;" horiz-adv-x="1316" d="M91 438l36 162q7 26 18 31q6 2 13 2h1138q12 0 14.5 -9.5t-1.5 -25.5l-32 -144q-4 -17 -6 -23.5t-9 -13t-18 -6.5h-1138q-20 0 -15 27z" />
<glyph unicode="&#x2018;" horiz-adv-x="452" d="M158 890l214 397q14 23 22 29t25 6h194q25 0 9 -39l-158 -404q-13 -33 -26 -42.5t-47 -9.5h-214q-30 0 -34.5 12.5t15.5 50.5z" />
<glyph unicode="&#x2019;" horiz-adv-x="448" d="M158 866l159 404q13 33 25.5 42.5t46.5 9.5h214q30 0 34.5 -13t-15.5 -50l-214 -397q-14 -23 -22 -29t-25 -6h-193q-12 0 -14.5 7.5t4.5 31.5z" />
<glyph unicode="&#x201a;" horiz-adv-x="444" d="M-88 -164l157 404q13 33 25.5 42.5t46.5 9.5h215q30 0 33.5 -13t-15.5 -50l-216 -397q-12 -23 -20.5 -29t-25.5 -6h-192q-24 0 -8 39z" />
<glyph unicode="&#x201c;" horiz-adv-x="819" d="M158 890l214 397q14 23 22 29t25 6h194q25 0 9 -39l-158 -404q-13 -33 -26 -42.5t-47 -9.5h-214q-30 0 -34.5 12.5t15.5 50.5zM527 890l214 397q14 23 22 29t25 6h193q25 0 9 -39l-158 -404q-13 -33 -25.5 -42.5t-46.5 -9.5h-214q-30 0 -34.5 12.5t15.5 50.5z" />
<glyph unicode="&#x201d;" horiz-adv-x="817" d="M158 866l159 404q13 33 25.5 42.5t46.5 9.5h214q30 0 34.5 -13t-15.5 -50l-214 -397q-14 -23 -22 -29t-25 -6h-193q-12 0 -14.5 7.5t4.5 31.5zM527 866l158 404q13 33 26 42.5t47 9.5h214q30 0 34 -13t-16 -50l-214 -397q-14 -24 -21.5 -29.5t-24.5 -5.5h-194 q-12 0 -14.5 7.5t5.5 31.5z" />
<glyph unicode="&#x201e;" horiz-adv-x="882" d="M-88 -164l157 404q13 33 25.5 42.5t46.5 9.5h215q30 0 33.5 -13t-15.5 -50l-216 -397q-12 -23 -20.5 -29t-25.5 -6h-192q-24 0 -8 39zM346 -164l159 404q13 33 25.5 42.5t46.5 9.5h214q30 0 34 -13t-15 -50l-216 -397q-12 -23 -21 -29t-26 -6h-193q-24 0 -8 39z" />
<glyph unicode="&#x2022;" horiz-adv-x="610" d="M108 456q17 80 93 134t173 54q96 0 151 -54.5t39 -133.5q-17 -77 -95.5 -131.5t-174.5 -54.5t-149.5 54.5t-36.5 131.5z" />
<glyph unicode="&#x2026;" horiz-adv-x="1169" d="M7 160q15 72 69.5 121t120.5 49q64 0 99.5 -49.5t20.5 -120.5q-16 -77 -71.5 -124t-120.5 -47q-67 0 -100.5 46.5t-17.5 124.5zM398 160q15 71 69.5 120.5t118.5 49.5t100 -49.5t21 -120.5q-16 -77 -72 -124t-121 -47q-66 0 -99 46.5t-17 124.5zM788 160q15 72 69 121 t120 49q64 0 99.5 -49.5t20.5 -120.5q-16 -77 -71.5 -124t-120.5 -47q-67 0 -100 46.5t-17 124.5z" />
<glyph unicode="&#x202f;" horiz-adv-x="344" />
<glyph unicode="&#x2039;" horiz-adv-x="567" d="M69 452q-8 12 -7.5 19.5t14.5 21.5l386 399q1 1 5 5.5t5.5 5.5t5 3t6.5 0.5t6 -5.5l123 -112q9 -9 -4 -24l-255 -288l132 -280q8 -15 6 -20t-19 -15l-160 -104q-13 -8 -18 -6t-10 13z" />
<glyph unicode="&#x203a;" horiz-adv-x="567" d="M24 162q-11 10 -10 14.5t14 20.5l251 280l-130 288q-5 8 -4 12.5t11 11.5l168 112q6 5 10 5.5t5.5 -1t4 -6.5t4.5 -7l218 -399q6 -16 4 -22t-15 -19l-380 -387q-2 -1 -5 -4.5t-4.5 -4t-4 -2.5t-3.5 -2t-3.5 -0.5t-4 0.5t-4 2.5t-5.5 3.5z" />
<glyph unicode="&#x205f;" horiz-adv-x="431" />
<glyph unicode="&#x20ac;" horiz-adv-x="1262" d="M67 410l93 113q26 30 47 30h67q0 26 5 47h-160q-13 0 -16.5 3t-0.5 8.5t12 15.5l93 114q2 2 6.5 7.5t6 7.5t6 5.5t7.5 5t8 3t10 1.5h64q78 284 225.5 417.5t405.5 133.5q110 0 235.5 -15t159.5 -32q15 -8 17.5 -22t-3.5 -39l-82 -389q-3 -14 -8 -18.5t-16 -4.5h-190 q-5 0 -7.5 0.5t-4.5 3.5t-2.5 5.5t-1.5 9.5l7 244q-18 7 -24.5 9t-24 4t-48.5 2q-106 0 -180.5 -72t-124.5 -237h369q53 0 16 -37l-108 -108q-15 -15 -26.5 -20.5t-32.5 -5.5h-257q-6 -26 -6 -47h226q53 0 16 -37l-106 -108q-27 -26 -61 -26h-56q17 -39 44 -67t59 -42.5 t61.5 -20.5t60.5 -6q33 0 63 1.5t67.5 6.5t55 7.5t68 11t64.5 10.5q12 3 17 -6t0 -24l-35 -167q-7 -41 -39 -54q-130 -51 -333 -51q-220 0 -351 101t-152 300h-199q-19 0 -19.5 7t13.5 21z" />
<glyph unicode="&#x2122;" horiz-adv-x="1530" d="M222 534l16 88q5 14 11 17q51 19 60 41l99 463h-8q-20 0 -37 -41l-9 -31q-1 -3 -3 -7t-2.5 -5.5t-2 -3.5t-3 -2.5t-4.5 -0.5h-95q-11 0 -8 22l47 216q1 9 4 11t9 2h471q4 0 5 -0.5t2 -3.5t-1 -9l-47 -216q-3 -22 -13 -22h-93q-14 0 -11 19l2 31q0 39 -17 39h-6l-95 -448 q-5 -24 0.5 -34.5t22.5 -16.5q8 -4 3 -22l-16 -84q-1 -1 -1 -4q-6 -11 -12 -11h-263q-10 0 -5 13zM637 534l16 88q5 11 14 17q23 11 33.5 21t14.5 31l97 448q5 24 -41 47q-5 3 -2 17l19 87q5 13 7 13h341q13 0 15 -10.5t-2 -32.5q-1 -12 -24 -220t-21 -312h2 q41 90 72.5 171.5t74.5 205.5t54 155q2 4 4.5 11.5l3.5 10.5t3 7.5t3.5 6l4 4t6 3t7.5 0.5h303q10 0 8 -13l-19 -87q-3 -13 -11 -17q-53 -21 -58 -47l-93 -435q-13 -58 6 -58q26 0 37 48v4q4 8 5 8h45q8 0 4 -8v-4q-22 -99 -63 -141.5t-107 -42.5q-147 0 -106 197l69 323 q-140 -366 -221 -496q-10 -13 -19 -13h-168q-11 0 -11 13q-37 164 -4 531l-78 -372q-5 -25 0.5 -35.5t24.5 -15.5q9 -2 5 -15q-1 -4 -2 -7l-17 -84q-1 -1 -1 -4q-6 -11 -12 -11h-216q-8 0 -3 13z" />
<glyph unicode="&#xe000;" horiz-adv-x="865" d="M0 0v866h866v-866h-866z" />
</font>
</defs>
</svg>
