<?xml version="1.0" standalone="no"?>
<!DOCTYPE svg PUBLIC "-//W3C//DTD SVG 1.1//EN" "http://www.w3.org/Graphics/SVG/1.1/DTD/svg11.dtd" >
<svg xmlns="http://www.w3.org/2000/svg">
<metadata></metadata>
<defs>
<font id="quatie_cond_lightcond_light" horiz-adv-x="1107" >
<font-face units-per-em="2048" ascent="1629" descent="-419" />
<missing-glyph horiz-adv-x="323" />
<glyph unicode="&#xfb01;" horiz-adv-x="875" d="M67 22v26q0 16 2 20.5t13 5.5q34 1 47.5 1t30 4t20.5 8t9 17t5 25.5v39.5v617h-110q-13 0 -13 18v45q0 17 13 17h110v134q0 322 266 322q61 0 117.5 -16t81.5 -33q21 -15 21 -54v-173q0 -11 -3 -14.5t-12 -3.5h-43h-5t-4 0.5t-4 2.5t-2 5t-2 8l-11 159q-56 35 -134 35 q-87 0 -127.5 -59.5t-40.5 -197.5v-115h371q22 0 22 -30v-607q0 -91 16 -123t44 -32q41 0 41 45q0 22 3.5 27t20.5 5h15q18 0 22 -4t4 -22q0 -132 -123 -132q-142 0 -142 208v525q0 19 -2 28t-6.5 17t-20 10.5t-34 3.5t-56.5 1h-175v-617q0 -27 0.5 -39t6 -25.5t12.5 -17.5 t27.5 -8t41.5 -4.5t63 -0.5q16 0 19 -5t3 -24v-19v-13t-1.5 -7t-5.5 -5t-11 -1h-361q-14 0 -16.5 3.5t-2.5 18.5z" />
<glyph unicode="&#xfb02;" horiz-adv-x="895" d="M60 22v26q0 14 3 19t11 7q35 0 52 0.5t34 4.5t23 8.5t11.5 17t6 25.5t0.5 39v617h-110q-17 0 -17 18v45q0 17 17 17h110v139q0 156 71.5 236.5t202.5 80.5q59 0 107 -13t116 -50q15 -7 15 -28v-1002q0 -91 16 -123t46 -32q39 0 39 45q0 22 3.5 27t20.5 5h17q18 0 21 -3.5 t3 -22.5q0 -132 -121 -132q-68 0 -105 48t-37 160v585h-318v-635q0 -54 18.5 -65.5t100.5 -11.5q16 0 19 -5t3 -24v-19v-13t-1.5 -7t-5.5 -5t-11 -1h-343q-7 0 -10.5 0.5t-5.5 4t-2 6v11.5zM298 866h318v327q-40 24 -69.5 33.5t-69.5 9.5q-102 0 -140.5 -59.5t-38.5 -219.5 v-91z" />
<glyph unicode="&#xfb03;" horiz-adv-x="1293" d="M58 22v26q0 23 15 26q38 1 53 1t34 4t23 8t10 17t6 25.5v39.5v617h-110q-16 0 -16 18v45q0 17 16 17h110v63q0 171 69 243t196 72q103 0 186 -47q60 125 227 125q61 0 116 -15.5t83 -33.5q22 -16 22 -54v-173q0 -11 -3 -14.5t-11 -3.5h-47h-1q-5 0 -6.5 0.5t-3 4 t-2.5 11.5l-11 159q-56 35 -136 35q-86 0 -127 -59.5t-41 -197.5v-115h369q14 0 19 -6.5t5 -23.5v-607q0 -91 16 -123t46 -32q39 0 39 45q0 22 3.5 27t20.5 5h15q18 0 22 -4t4 -22q0 -132 -123 -132q-140 0 -140 208v525q0 42 -18 51t-103 9h-175v-646q1 -46 26 -56t125 -10 q16 0 19.5 -5t3.5 -24v-19q0 -9 -0.5 -12.5t-2 -7.5t-5.5 -5t-11 -1h-363q-13 0 -16 4t-3 18v26q0 15 2.5 20t12.5 6q34 1 48 1t31.5 4t21.5 8t9.5 17t5.5 25.5v39.5v617h-317v-617q0 -26 0.5 -39t5.5 -26t10 -17t21 -8t32.5 -4.5t49.5 -0.5q16 0 19.5 -5t3.5 -24v-19 q0 -9 -0.5 -12.5t-2 -7.5t-5.5 -5t-11 -1h-343q-7 0 -10.5 0.5t-5.5 4t-2 6v11.5zM296 866h317v134q0 62 9 113q-72 45 -147 45q-93 0 -136 -51t-43 -178v-63z" />
<glyph unicode="&#xfb04;" horiz-adv-x="1312" d="M58 22v26q0 23 15 26q85 2 105 11t21 55v646h-110q-16 0 -16 18v45q0 17 16 17h110v63q0 161 65.5 228.5t187.5 67.5q112 0 194 -50q61 147 246 147q60 0 107.5 -12.5t117.5 -50.5q15 -8 15 -28v-1002q0 -91 15.5 -123t44.5 -32q39 0 39 45q0 22 3.5 27t20.5 5h15 q19 0 22.5 -3.5t3.5 -22.5q0 -132 -123 -132q-142 0 -142 208v585h-316v-635q0 -54 19 -65.5t100 -11.5q16 0 19 -5t3 -24v-19q0 -9 -0.5 -12.5t-2 -7.5t-5.5 -5t-12 -1h-343q-12 0 -14 3.5t-2 18.5v26q0 15 2.5 20t12.5 6q34 0 51 0.5t33.5 4.5t22.5 8t11 17t5.5 26t0.5 39 v617h-320v-617q0 -26 0.5 -39t5.5 -26t10 -17t21 -8t32.5 -4.5t49.5 -0.5q16 0 19.5 -5t3.5 -24v-19q0 -9 -0.5 -12.5t-2 -7.5t-5.5 -5t-11 -1h-343q-7 0 -10.5 0.5t-5.5 4t-2 6v11.5zM296 866h320v139q0 46 6 88q-75 46 -162 46q-86 0 -125 -47t-39 -163v-63zM715 866h316 v327q-69 43 -137 43q-102 0 -140.5 -59.5t-38.5 -219.5v-91z" />
<glyph horiz-adv-x="2048" />
<glyph horiz-adv-x="2048" />
<glyph unicode="&#xd;" horiz-adv-x="2048" />
<glyph unicode=" "  horiz-adv-x="323" />
<glyph unicode="&#x09;" horiz-adv-x="323" />
<glyph unicode="&#xa0;" horiz-adv-x="323" />
<glyph unicode="!" horiz-adv-x="405" d="M134 63q0 31 19.5 53t49.5 22q26 0 45.5 -22t19.5 -53q0 -35 -18.5 -54.5t-46.5 -19.5q-31 0 -50 19.5t-19 54.5zM153 1335q0 17 11 17h74q15 0 15 -19l-11 -1048q0 -12 -4 -14.5t-15 -2.5h-50q-13 0 -13 19z" />
<glyph unicode="&#x22;" horiz-adv-x="510" d="M123 875v417q0 13 9 13h80q10 0 10 -13v-417q0 -13 -12 -13h-74q-13 0 -13 13zM290 875v417q0 13 10 13h80q9 0 9 -13v-417q0 -13 -11 -13h-73q-9 0 -12 3t-3 10z" />
<glyph unicode="#" horiz-adv-x="1115" d="M84 426v90h238l50 301h-232v90h251l65 406h90l-68 -406h237l63 406h90l-64 -406h229v-90h-249l-49 -301h237v-90h-257l-69 -426h-89l72 426h-236l-71 -426h-86l69 426h-221zM410 516h236l48 301h-234z" />
<glyph unicode="$" horiz-adv-x="888" d="M102 78v253q0 15 4.5 20t18.5 5h37q12 0 16 -5.5t4 -17.5l13 -229q94 -33 231 -33q34 0 65.5 5t70.5 22t67 45t47.5 80t19.5 121q0 79 -24.5 136t-64 87.5t-90.5 55.5t-104 40.5t-104 42t-90.5 59.5t-64 94t-24.5 145q0 76 18 133.5t47 92t72.5 56t87.5 29t99 7.5 q81 0 155 -14t108 -33q15 -7 19.5 -14t4.5 -28v-261q0 -8 -1 -12.5t-1.5 -7t-5 -3.5t-5 -1h-7.5h-43q-12 0 -14.5 3t-2.5 15l-15 237q-57 19 -93 25t-99 6q-34 0 -63 -5t-61 -19.5t-54 -38.5t-36.5 -65t-14.5 -95q0 -61 19.5 -106t52 -71.5t75 -45.5t89.5 -34.5t94 -33 t89.5 -45.5t75 -67t52 -103t19.5 -149q0 -375 -361 -375q-79 0 -177 16t-130 33q-13 6 -17 16.5t-4 31.5zM408 -322l3 238q0 19 13 19h64q9 0 9 -15l4 -240q0 -17 -6 -17h-82q-5 0 -5 15zM411 1635q0 16 6 16h80q8 0 8 -16l-6 -242q0 -13 -9 -13h-62q-13 0 -13 16z" />
<glyph unicode="%" horiz-adv-x="1573" d="M74 931q0 80 17 148.5t52 124.5t95 88t140 32t140 -32t94.5 -88t51.5 -124.5t17 -148.5q0 -81 -17 -150t-51.5 -125.5t-94.5 -89t-140 -32.5t-140 32.5t-95 89t-52 125.5t-17 150zM175 931q0 -146 54.5 -229.5t148.5 -83.5t148.5 83.5t54.5 229.5t-51 227.5t-152 81.5 q-96 0 -149.5 -81.5t-53.5 -227.5zM385 9l723 1292q12 25 31 25h69q16 0 18 -5t-8 -25l-719 -1294q-8 -14 -16.5 -18t-24.5 -4h-58q-17 0 -21 4t6 25zM892 378q0 80 16.5 148.5t51 124.5t94 88t139.5 32t140.5 -32t95.5 -88t52.5 -124.5t17.5 -148.5q0 -81 -17.5 -150 t-52.5 -125.5t-95.5 -89t-140.5 -32.5t-139.5 32.5t-94 89t-51 125.5t-16.5 150zM992 378q0 -146 54 -229.5t147 -83.5q95 0 150 83.5t55 229.5t-52 227.5t-153 81.5q-95 0 -148 -81.5t-53 -227.5z" />
<glyph unicode="&#x26;" horiz-adv-x="1109" d="M115 341q0 69 14 126.5t35 94.5t49.5 64t54.5 40t52 19q-45 12 -78.5 44t-51.5 76t-26 89.5t-8 94.5q0 333 295 333q96 0 180 -41q14 -5 17.5 -14.5t3.5 -32.5v-244q0 -16 -2.5 -19t-12.5 -3h-41q-7 0 -9.5 3t-3.5 16l-17 219q-16 10 -48.5 18.5t-59.5 8.5q-50 0 -85 -11 t-63 -38t-41.5 -77t-13.5 -124q0 -253 222 -253h234l36 214q3 28 22 28h20q17 0 17 -28v-214h175q19 0 19 -24v-45q0 -14 -3.5 -18t-15.5 -4h-175v-345q0 -131 21.5 -180t71.5 -49q67 0 67 90q3 24 19 24h24q12 0 16.5 -7.5t4.5 -26.5q0 -73 -40.5 -118.5t-108.5 -45.5 q-94 0 -136 84q-119 -84 -304 -84q-61 0 -107.5 9t-89 33t-70 64t-43.5 104t-16 150zM220 348q0 -151 56 -213t180 -62q130 0 263 76q-12 70 -12 141v349h-230q-116 0 -186.5 -72.5t-70.5 -218.5z" />
<glyph unicode="'" horiz-adv-x="344" d="M123 875v417q0 11 9 11h80q10 0 10 -13v-415q0 -13 -12 -13h-74q-13 0 -13 13z" />
<glyph unicode="(" horiz-adv-x="463" d="M84 557q0 208 69 421t193 370q3 1 6 6t5 7t6 0l39 -32q7 -5 -9 -29q-98 -134 -148 -345.5t-50 -407.5q0 -194 52 -404t150 -366q10 -15 5 -19l-33 -34q-2 -2 -4 0.5t-5.5 6.5t-5.5 6q-129 163 -199.5 383.5t-70.5 436.5z" />
<glyph unicode=")" horiz-adv-x="463" d="M61 -242q-4 4 6 19q100 155 151.5 365t51.5 405q0 196 -50.5 407.5t-148.5 345.5q-15 23 -8 29l38 32q4 2 6 0.5t6 -7t6 -6.5q124 -157 192.5 -369.5t68.5 -421.5q0 -215 -70 -436t-198 -384q-1 -1 -4.5 -6t-6.5 -7t-6 0z" />
<glyph unicode="*" horiz-adv-x="647" d="M101 1076l20 80q1 4 1.5 4.5t3 2t6.5 -0.5l166 -56l-32 184q0 13 6 13h102q8 0 8 -15l-30 -182l162 54q8 2 13 -6l22 -78q5 -11 -7 -11l-168 -17l114 -139q11 -16 4 -23l-75 -50q-6 -6 -11 6l-80 175l-82 -172q-6 -11 -13 -5l-69 44q-6 4 2 15l108 149l-160 17 q-13 2 -11 11z" />
<glyph unicode="+" horiz-adv-x="916" d="M91 434v91h330v397h84v-397h322v-91h-322v-397h-84v397h-330z" />
<glyph unicode="," horiz-adv-x="331" d="M52 -197l75 325q3 11 4 14.5t4.5 8.5t8 6t12.5 1h54q18 0 21 -11t-4 -30l-93 -314q-7 -21 -24 -21h-45q-19 0 -13 21z" />
<glyph unicode="-" horiz-adv-x="750" d="M117 519v51q0 15 15 15h490q11 0 11 -17v-45q0 -20 -15 -20h-486q-15 0 -15 16z" />
<glyph unicode="." horiz-adv-x="359" d="M112 63q0 31 19.5 53t49.5 22q26 0 45.5 -22t19.5 -53q0 -35 -18.5 -54.5t-46.5 -19.5q-31 0 -50 19.5t-19 54.5z" />
<glyph unicode="/" horiz-adv-x="698" d="M48 -106l492 1473q7 16 17 16h80q15 0 9 -20l-490 -1469q-4 -13 -20 -13h-82q-13 0 -6 13z" />
<glyph unicode="0" horiz-adv-x="994" d="M102 652q0 196 43 345t133.5 237t218.5 88t218.5 -88t133.5 -237t43 -345q0 -197 -43 -346t-133.5 -237t-218.5 -88t-218.5 88t-133.5 237t-43 346zM212 655q0 -274 75 -431t210 -157t210 157t75 431q0 272 -75 426.5t-210 154.5t-210 -154.5t-75 -426.5z" />
<glyph unicode="1" horiz-adv-x="640" d="M91 22v26q0 10 0.5 14t4 7.5t10.5 4.5q127 0 156 10.5t30 60.5v1000q0 31 -28 7l-147 -122q-22 -19 -22 11v48q0 21 20 36l192 163q23 15 50 15h21q15 0 15 -18v-1140q0 -18 1 -28.5t8.5 -19.5t16.5 -12.5t31.5 -6.5t46.5 -3.5t69 -0.5q16 0 19 -5t3 -24v-19v-13t-1.5 -7 t-5.5 -5t-11 -1h-460q-13 0 -16 4t-3 18z" />
<glyph unicode="2" horiz-adv-x="904" d="M91 17v43q0 23 8 31q551 425 551 890q0 69 -14.5 118t-34.5 74.5t-53 39.5t-57.5 17t-60.5 3q-117 0 -214 -45l-19 -240q-1 -13 -4 -16t-11 -3h-42q-11 0 -14 4t-3 18v265q0 23 3.5 30.5t16.5 12.5q124 63 289 63q47 0 85 -5.5t76 -18.5t66 -37.5t50 -60.5t33.5 -90 t11.5 -123q0 -261 -138 -489t-374 -405h443q22 0 22 30l8 182q1 12 2.5 17t6 9t13.5 4h38q11 0 14.5 -6t3.5 -24v-285q0 -14 -3 -17t-12 -3h-670q-17 0 -17 17z" />
<glyph unicode="3" horiz-adv-x="862" d="M93 54v32q0 17 4.5 22.5t12.5 3.5q3 0 45.5 -11t105.5 -20.5t126 -9.5q270 0 270 313q0 151 -60.5 211t-173.5 60h-97q-17 0 -17 26v40q0 15 6 22l301 465h-378q-13 0 -17 -9t-7 -39l-5 -155q0 -13 -3 -17.5t-14 -4.5h-37q-12 0 -16.5 4t-4.5 17v277q0 16 2.5 19t14.5 3 h573q7 0 10.5 -3.5t4 -8t0.5 -16.5v-35q0 -8 -0.5 -12t-0.5 -7.5t-2 -7.5l-3 -6t-6 -10t-8 -13l-295 -445h23q169 0 241 -80t72 -274q0 -212 -98.5 -308t-263.5 -96q-178 0 -286 41q-11 5 -15 11t-4 21z" />
<glyph unicode="4" horiz-adv-x="943" d="M60 350l167 935q3 13 6 15.5t15 2.5h63q20 0 17 -18l-153 -864h369v854q0 15 15 15h68q13 0 13 -15v-854h198q12 0 16 -4.5t4 -18.5v-55q0 -11 -3 -13t-13 -2h-202v-177q0 -24 2.5 -34.5t8 -20.5t24.5 -13t42 -4.5t71 -2.5q16 -1 19 -5.5t3 -20.5v-30q0 -13 -3 -16.5 t-16 -3.5h-435q-13 0 -16 3.5t-3 15.5v33q0 8 0.5 11.5t4 6.5t10.5 3q139 4 165.5 15t26.5 61v179h-468q-12 0 -14 4t-2 18z" />
<glyph unicode="5" horiz-adv-x="856" d="M88 67v35q0 18 5 23.5t13 2.5q1 0 13.5 -5t25.5 -9.5t33.5 -11t43 -12t47.5 -10.5t53.5 -8t55.5 -3q43 0 79 8t72 30t61 58t40.5 97t15.5 142q0 82 -16.5 140t-45 93t-75.5 55t-98 27t-124 7h-129q-18 0 -15 26l56 523q3 19 6 23.5t11 4.5h484q14 0 17.5 -3t3.5 -19v-264 q0 -20 -4.5 -25t-16.5 -5h-37q-13 0 -17 6.5t-4 23.5l-3 145q-3 28 -7.5 37t-18.5 9h-328l-43 -393h56q91 0 157.5 -10t125 -37t94.5 -72.5t56.5 -119t20.5 -174.5q0 -107 -24 -186t-59 -123t-86.5 -70.5t-96 -34t-97.5 -7.5q-87 0 -164 18t-117 38q-12 7 -16 12.5t-4 17.5z " />
<glyph unicode="6" horiz-adv-x="908" d="M102 514q0 133 23.5 252t73.5 221.5t122 176.5t174.5 116t225.5 42h18q11 0 15 -4t4 -15v-46q0 -15 -4 -19t-17 -4h-16q-115 0 -207 -46t-153 -128.5t-98 -190t-49 -238.5q106 173 279 173q85 0 149.5 -31.5t103 -87.5t57 -127t18.5 -156q0 -199 -93 -310t-261 -111 q-183 0 -274 136t-91 397zM209 490q3 -421 258 -421q116 0 183 84t67 247q0 146 -59 233.5t-180 87.5q-187 0 -269 -231z" />
<glyph unicode="7" horiz-adv-x="778" d="M86 1009v274q0 14 3 17t13 3h620q12 0 14.5 -5.5t2.5 -22.5v-42q0 -19 -11 -47l-460 -1166q-5 -13 -11 -16.5t-21 -3.5h-68q-23 0 -13 19l474 1187h-456l-13 -197v-5q-2 -21 -11 -24l-9 -1h-36q-10 0 -14 5.5t-4 24.5z" />
<glyph unicode="8" horiz-adv-x="916" d="M95 380q0 120 57.5 220.5t171.5 140.5q-76 34 -113.5 106.5t-37.5 165.5q0 128 73.5 217.5t211.5 89.5q93 0 159 -44.5t95 -112.5t29 -150q0 -92 -36.5 -165t-110.5 -107q79 -25 131 -83t72 -126.5t20 -151.5q0 -78 -19.5 -146t-60 -126.5t-113 -92.5t-168.5 -34 q-98 0 -170.5 34t-112.5 92.5t-59 126.5t-19 146zM199 376q0 -85 24.5 -152t84 -112t148.5 -45q88 0 148 45t85.5 113t25.5 153q0 63 -15 118t-45 100t-80.5 71t-116.5 26q-89 0 -149 -46t-85 -115t-25 -156zM268 1007q0 -99 46 -161t144 -62q96 0 143 62.5t47 160.5 q0 97 -47.5 165t-142.5 68t-142.5 -68t-47.5 -165z" />
<glyph unicode="9" horiz-adv-x="891" d="M84 907q0 191 92 303t256 112q124 0 205.5 -69t116.5 -184.5t35 -277.5q0 -139 -22.5 -260t-69.5 -222.5t-115.5 -174t-166 -113t-216.5 -40.5h-15q-18 0 -18 21v43q0 24 18 24h15q208 0 330 154.5t149 424.5q-102 -149 -272 -149q-70 0 -126 23.5t-92 62t-60 92 t-34 110.5t-10 120zM188 899q0 -143 59.5 -229.5t175.5 -86.5q97 0 160.5 55.5t101.5 169.5q0 204 -64 316t-193 112q-109 0 -174.5 -86.5t-65.5 -250.5z" />
<glyph unicode=":" horiz-adv-x="364" d="M114 56q0 31 19 52.5t49 21.5q27 0 46.5 -22t19.5 -52q0 -35 -19 -55t-47 -20q-31 0 -49.5 19.5t-18.5 55.5zM114 730q0 31 19 52.5t49 21.5q27 0 46.5 -22t19.5 -52q0 -35 -19 -55t-47 -20q-31 0 -49.5 19.5t-18.5 55.5z" />
<glyph unicode=";" horiz-adv-x="444" d="M95 -197l74 325q4 13 6 18t7.5 8.5t16.5 3.5h54q18 0 21 -11t-4 -30l-93 -314q-7 -21 -24 -21h-45q-19 0 -13 21zM166 810q0 31 19.5 52.5t49.5 21.5q26 0 45.5 -21.5t19.5 -52.5q0 -35 -19 -55t-46 -20q-31 0 -50 20t-19 55z" />
<glyph unicode="&#x3c;" horiz-adv-x="824" d="M78 428v97l641 397v-97l-516 -348l516 -345v-102z" />
<glyph unicode="=" horiz-adv-x="886" d="M125 270v91h636v-91h-636zM127 518v91h634v-91h-634z" />
<glyph unicode="&#x3e;" horiz-adv-x="824" d="M106 30v100l516 347l-516 348v97l641 -397v-97z" />
<glyph unicode="?" horiz-adv-x="707" d="M82 972v261q0 21 3.5 28t16.5 14q35 19 104.5 33t150.5 14q60 0 106.5 -13.5t88 -46.5t63.5 -97.5t22 -157.5q0 -90 -15 -152.5t-39.5 -94.5t-54 -54.5t-59 -44.5t-54 -53t-39.5 -91t-15 -148v-153q0 -19 -13 -19l-72 -2q-12 0 -12 17v151q0 103 15 174.5t39.5 108t54 61 t59 45t54 47.5t39.5 80t15 132q0 67 -17 113.5t-46 69t-58.5 31.5t-64.5 9q-62 0 -96.5 -6.5t-84.5 -26.5l-13 -235q0 -12 -3 -15t-14 -3h-42h-8.5t-5.5 2t-4.5 7t-0.5 15zM246 63q0 31 18 53t47 22q26 0 45.5 -22.5t19.5 -52.5q0 -34 -19 -54t-46 -20q-30 0 -47.5 19.5 t-17.5 54.5z" />
<glyph unicode="@" horiz-adv-x="1247" d="M99 579q0 169 50.5 307.5t133 224t184 131.5t209.5 46q218 0 353.5 -155t135.5 -396q0 -135 -29.5 -239.5t-92.5 -168t-153 -63.5q-53 0 -88.5 27t-47.5 72q-28 -39 -80.5 -70t-107.5 -31q-94 0 -155 78.5t-61 216.5q0 61 13 121.5t40 116t65.5 98t94 67.5t120.5 25 q112 0 165 -72.5t53 -180.5q0 -58 -23.5 -151.5t-43.5 -146.5q-12 -38 6.5 -63t55.5 -25q82 0 131 111.5t49 268.5q0 213 -114 345.5t-292 132.5q-66 0 -132.5 -24t-129.5 -75t-112 -123t-78.5 -176.5t-29.5 -226.5q0 -272 132 -425.5t343 -153.5q96 0 175 24.5t160 77.5 q13 9 17 -2l22 -48q6 -12 -11 -23q-1 -1 -2 -1q-147 -110 -361 -110q-120 0 -222 43t-178.5 124.5t-120 208t-43.5 283.5zM438 557q0 -101 35 -157t102 -56q59 0 108 49.5t75.5 118t41 128t14.5 92.5q0 175 -144 175q-101 0 -166.5 -106.5t-65.5 -243.5z" />
<glyph unicode="A" d="M37 22v26q0 12 2.5 18t5 7t7.5 1q88 2 108.5 14t20.5 65v85q0 244 21.5 439.5t65.5 341t115.5 224.5t165.5 79q123 0 209 -136.5t127.5 -377.5t41.5 -570v-102q1 -44 20.5 -53t98.5 -9q16 0 19.5 -5t3.5 -24v-19q0 -16 -3.5 -21t-17.5 -5h-350q-13 0 -15.5 3t-2.5 19v26 v3q0 14 2 18t12 5q80 0 103 10.5t26 49.5v104q0 55 -4 155h-545q-2 -50 -2 -155v-72q0 -31 2 -44t6 -25.5t19 -16t32.5 -5t55.5 -1.5q16 0 19.5 -5t3.5 -24v-19q0 -9 -0.5 -12.5t-2 -7.5t-5.5 -5t-11 -1h-335q-13 0 -16 3t-3 19zM277 482h540q-18 351 -88 551t-183 200 q-111 0 -181 -200.5t-88 -550.5z" />
<glyph unicode="B" horiz-adv-x="994" d="M86 22v26q0 16 2 20.5t13 5.5q49 0 72 2t37 11.5t16.5 22.5t2.5 43v1014q0 44 -19 52t-108 10q-11 1 -13.5 5t-2.5 17v32q0 14 3 17t15 3h376q154 0 236.5 -79t82.5 -239q0 -209 -123 -281q119 -19 174 -103t55 -238q0 -177 -97 -270t-320 -93h-384q-11 0 -14.5 4 t-3.5 18zM328 86h175q89 0 149 18.5t92 56.5t44.5 85.5t12.5 114.5q0 63 -10.5 110t-36.5 87t-76 61t-123 21h-227v-554zM328 728h206q52 0 89.5 37t55 93.5t17.5 122.5q0 105 -48 171t-151 66h-169v-490z" />
<glyph unicode="C" horiz-adv-x="1007" d="M101 639q0 339 130 511t369 172q177 0 283 -37q16 -7 20 -14t4 -33v-288q0 -15 -3.5 -19t-13.5 -4h-48q-12 0 -15.5 3.5t-5.5 15.5l-17 262q-90 26 -203 26q-185 0 -290.5 -151t-105.5 -448q0 -293 101 -425t299 -132q118 0 304 43q11 4 16.5 0.5t5.5 -17.5v-33 q0 -22 -5.5 -29t-24.5 -12q-168 -43 -307 -43q-248 0 -370.5 154.5t-122.5 497.5z" />
<glyph unicode="D" horiz-adv-x="1130" d="M86 22v26q0 16 2 20.5t13 5.5q82 0 104.5 9.5t23.5 48.5v1035q0 44 -19 52t-108 10q-11 1 -13.5 5t-2.5 17v32q0 14 3 17t15 3h350q574 0 574 -653q0 -326 -137 -488t-422 -162h-365q-11 0 -14.5 4t-3.5 18zM331 88h131q233 0 346.5 137.5t113.5 420.5q0 573 -462 573 h-129v-1131z" />
<glyph unicode="E" horiz-adv-x="878" d="M97 335q0 92 20.5 159t58 104.5t74 56.5t83.5 30q-188 47 -188 315q0 91 25 155.5t72 100t104.5 51t131.5 15.5q155 0 259 -43q7 -2 11 -4t7 -4.5t4 -4t2 -5.5t0.5 -6.5t-0.5 -9v-11.5v-244q0 -16 -2.5 -19t-13.5 -3h-39q-10 0 -13 3t-4 16l-17 219q-77 27 -190 27 q-115 0 -177.5 -52t-62.5 -185q0 -266 263 -266h108q9 0 12.5 -5t3.5 -21v-36q0 -16 -3.5 -21t-12.5 -5h-108q-300 0 -300 -299q0 -143 70 -206.5t217 -63.5q30 0 62.5 2.5t61 6t54 8t48.5 9.5t38.5 9t28.5 7.5t14 3.5q10 1 12.5 -2t2.5 -16v-54q0 -16 -23 -25 q-125 -41 -316 -41q-86 0 -150 15.5t-118 53.5t-82 109.5t-28 175.5z" />
<glyph unicode="F" horiz-adv-x="863" d="M86 22v26q0 10 0.5 14t4 7.5t10.5 4.5q85 0 106 10t22 59v1008q0 28 -2.5 41t-16.5 22.5t-37.5 12t-71.5 2.5q-7 1 -10.5 4.5t-4 7.5t-0.5 14v26q0 14 3.5 18t14.5 4h674q9 0 12 -1t5 -5t2 -14v-296q0 -23 -19 -23h-35q-22 0 -22 21l-10 210q-1 18 -6.5 23t-17.5 5 l-359 -2v-510h283q12 0 17 -4t5 -18v-39q0 -19 -4 -25.5t-18 -6.5h-283v-475q1 -49 26.5 -59t138.5 -10q16 0 19.5 -5t3.5 -24v-19q0 -9 -0.5 -12.5t-2 -7.5t-5.5 -5t-11 -1h-393q-7 0 -10.5 0.5t-5.5 4t-2 6v11.5z" />
<glyph unicode="G" horiz-adv-x="1102" d="M101 637q0 334 133.5 509.5t381.5 175.5q99 0 187.5 -20.5t146.5 -50.5q18 -11 22.5 -23t4.5 -42v-255q0 -14 -4 -18t-14 -4h-45q-9 0 -12.5 3t-4.5 15l-18 250q-102 57 -259 57q-200 0 -305.5 -153t-105.5 -448q0 -283 104.5 -423.5t323.5 -140.5q142 0 242 45v392h-216 q-23 0 -23 28v32q0 28 23 28h292q22 0 22 -28v-471q0 -39 -29 -54q-135 -60 -319 -60q-528 0 -528 656z" />
<glyph unicode="H" horiz-adv-x="1130" d="M84 22v26q0 10 0.5 14t4 7.5t10.5 4.5q85 0 105 10.5t21 60.5v1000q0 59 -16.5 71.5t-98.5 12.5q-16 0 -19 5.5t-3 24.5v18q0 16 3 21t15 5h346q12 0 14.5 -3.5t2.5 -18.5v-26q0 -10 -0.5 -14t-4 -7.5t-10.5 -4.5q-89 0 -108.5 -12.5t-19.5 -71.5v-540h469v529 q0 27 -0.5 39t-5 25.5t-9.5 17.5t-21.5 8t-33 4.5t-49.5 0.5q-16 0 -19.5 5.5t-3.5 24.5v18q0 16 3.5 21t15.5 5h348q13 0 16 -4t3 -18v-26q0 -10 -0.5 -14t-4 -7.5t-10.5 -4.5h-53.5t-34.5 -4t-23.5 -8t-10.5 -17.5t-5.5 -26t-0.5 -39.5v-957q0 -101 57 -101q24 0 42 16 t18 51v8q0 13 11 13h45q11 0 11 -13v-8q0 -72 -37.5 -111t-104.5 -39q-143 0 -143 191v335h-469v-374q0 -49 19 -60t100 -11q16 0 19 -5t3 -24v-19q0 -16 -3 -21t-17 -5h-345q-7 0 -10.5 0.5t-5.5 4t-2 6v11.5z" />
<glyph unicode="I" horiz-adv-x="556" d="M86 22v26q0 10 0.5 14t4 7.5t10.5 4.5h41t30.5 2t23 3.5t14.5 7.5t10 11t4.5 17.5t2.5 22.5v31v30h2v946q0 60 -17 72t-100 12q-16 0 -19.5 5.5t-3.5 24.5v18q0 16 3.5 21t15.5 5h346q12 0 14.5 -3.5t2.5 -18.5v-26q0 -10 -0.5 -14t-4 -7.5t-10.5 -4.5 q-89 0 -108.5 -12.5t-19.5 -71.5v-976q0 -27 0.5 -39t5 -25.5t9.5 -17.5t21.5 -8t33 -4.5t49.5 -0.5q16 0 19 -5t3 -24v-19q0 -16 -3 -21t-17 -5h-345q-7 0 -10.5 0.5t-5.5 4t-2 6v11.5z" />
<glyph unicode="J" horiz-adv-x="538" d="M39 -263q-10 28 17 40l52 28q50 26 71.5 47.5t32.5 63t11 121.5v1097q0 27 -0.5 39t-5 25.5t-9.5 17.5t-21.5 8t-33 4.5t-49.5 0.5q-16 0 -19 5.5t-3 24.5v18q0 16 3 21t17 5h347q12 0 15 -3.5t3 -18.5v-26q0 -10 -0.5 -14t-4 -7.5t-10.5 -4.5h-53.5t-34.5 -4t-23.5 -8 t-10.5 -17.5t-5.5 -26t-0.5 -39.5v-1136q0 -112 -33.5 -168.5t-143.5 -103.5l-69 -29q-13 -5 -18 -2.5t-10 16.5z" />
<glyph unicode="K" horiz-adv-x="1064" d="M84 22v26q0 10 0.5 14t4 7.5t10.5 4.5h41t30.5 2t23 3.5t14.5 7.5t10 11t4.5 17.5t2.5 22.5v31v965v39t-4.5 25.5t-9.5 18t-20.5 8t-31.5 4.5h-49q-16 0 -19 5.5t-3 24.5v18q0 16 3 21t15 5h346q12 0 14.5 -3.5t2.5 -18.5v-26q0 -10 -0.5 -14t-4 -7.5t-10.5 -4.5 q-89 0 -108.5 -12.5t-19.5 -71.5v-475l352 455h-4l28 39q30 41 30 50q0 10 -18 12.5t-72 2.5q-19 0 -22.5 4.5t-3.5 25.5v18q0 17 3.5 21.5t20.5 4.5h326q14 0 16.5 -3.5t2.5 -18.5v-26q0 -15 -2.5 -20t-14.5 -6q-82 0 -102 -13l-430 -553l348 -488q44 -62 77 -86t70 -24 q29 0 71 15q24 11 24 -13v-33q0 -16 -5 -23t-25 -15q-43 -15 -91 -15q-64 0 -104.5 26.5t-100.5 113.5l-374 532v-484q0 -27 0.5 -39t5 -25.5t9.5 -17.5t21.5 -8t33 -4.5t49.5 -0.5q16 0 19 -5t3 -24v-19q0 -16 -3 -21t-17 -5h-345q-7 0 -10.5 0.5t-5.5 4t-2 6v11.5z" />
<glyph unicode="L" horiz-adv-x="893" d="M84 22v26q0 16 2 20.5t13 5.5q84 0 104.5 8.5t21.5 49.5v1037q-1 41 -20.5 50.5t-94.5 9.5q-16 0 -19 5.5t-3 24.5v18q0 16 3 21t15 5h346q12 0 14.5 -3.5t2.5 -18.5v-26q0 -10 -0.5 -14t-4 -7.5t-10.5 -4.5q-87 0 -107 -10.5t-21 -60.5v-1067l402 -2q8 0 12.5 1t7.5 7.5 t3.5 8.5t2.5 15l9 186q0 18 5.5 24t19.5 6h27q14 0 16.5 -5.5t2.5 -29.5v-282q0 -14 -4 -17t-15 -3h-713q-11 0 -14.5 4t-3.5 18z" />
<glyph unicode="M" horiz-adv-x="1428" d="M91 1255v26q0 14 4 18t17 4h199q32 0 42 -12t17 -47q1 -7 2 -11q29 -143 157.5 -554t194.5 -573h4q73 200 166 539t145 588q2 7 5 24.5t5 21.5t7.5 12t15 10t25.5 2h214q15 0 18.5 -4t3.5 -18v-26q0 -15 -3.5 -20t-15.5 -6q-84 0 -101.5 -11.5t-17.5 -66.5v-974 q0 -101 60 -101q25 0 42 15.5t17 51.5v8q0 13 13 13h43q10 0 10 -13v-8q0 -72 -36.5 -111t-103.5 -39q-143 0 -143 191v924q-44 -230 -154 -602t-163 -486q-9 -20 -37 -20h-47q-14 0 -19.5 3t-11.5 17q-64 138 -173.5 464t-174.5 577v-901q0 -61 15.5 -73.5t88.5 -12.5 q20 0 24 -5t4 -24v-19q0 -16 -4.5 -21t-20.5 -5h-309q-16 0 -19 3.5t-3 18.5v26q0 15 4.5 19.5t19.5 6.5q79 0 94.5 13t15.5 77v987q0 55 -16 65.5t-101 12.5q-13 1 -16 6t-3 20z" />
<glyph unicode="N" horiz-adv-x="1180" d="M86 1255v26q0 14 3.5 18t14.5 4h188q34 0 47 -33l534 -1143v1024q0 28 -2.5 41t-16.5 22.5t-37.5 12t-71.5 2.5q-7 1 -10.5 4.5t-4 7.5t-0.5 14v26q0 14 3 18t14 4h337q7 0 11 -1t5.5 -5t1.5 -7v-13v-18q0 -25 -5 -28q-4 -2 -15 -2q-82 0 -100 -12t-18 -68v-1106 q0 -43 -24 -43h-59q-35 0 -47 24l-516 1099v-957q0 -24 0.5 -35.5t5 -24t10.5 -17.5t20.5 -9t32.5 -5t49 -1q16 0 19 -5t3 -24v-19q0 -16 -3.5 -21t-15.5 -5h-335q-12 0 -14 3.5t-2 18.5v26q0 14 3.5 19.5t14.5 6.5q32 0 49.5 0.5t33.5 4.5t22 8t10.5 16.5t5 24.5t0.5 36 v1000q0 44 -20.5 54.5t-105.5 10.5q-7 1 -10.5 4.5t-4 7.5t-0.5 14z" />
<glyph unicode="O" horiz-adv-x="1176" d="M97 652q0 146 31 267.5t90.5 211.5t154 140.5t215.5 50.5t216 -50.5t155.5 -140.5t91.5 -211.5t31 -267.5q0 -197 -53.5 -346t-166.5 -237t-274 -88t-273 88t-165 237t-53 346zM205 655q0 -271 101.5 -426.5t281.5 -155.5t284 155.5t104 426.5q0 269 -104 422.5 t-284 153.5t-281.5 -153t-101.5 -423z" />
<glyph unicode="P" horiz-adv-x="882" d="M86 22v26q0 10 0.5 14t4 7.5t10.5 4.5h52.5t34.5 4t23.5 8t11 17t6 26t0.5 40v982q0 28 -2.5 41t-16.5 22.5t-37.5 12t-71.5 2.5q-7 1 -10.5 4.5t-4 7.5t-0.5 14v26q0 14 3.5 18t14.5 4h326q90 0 158 -21.5t108.5 -57t65 -88t33.5 -105.5t9 -119q0 -201 -92 -311.5 t-271 -110.5q-65 0 -113 11v-332q0 -27 0.5 -39t5 -25.5t9.5 -17.5t21.5 -8t33 -4.5t49.5 -0.5q16 0 19 -5t3 -24v-19q0 -16 -3 -21t-17 -5h-345q-7 0 -10.5 0.5t-5.5 4t-2 6v11.5zM328 588q19 -13 108 -13q128 0 196 88.5t68 243.5q0 314 -240 314h-132v-633z" />
<glyph unicode="Q" horiz-adv-x="1178" d="M97 652q0 146 31 267.5t90.5 211.5t154 140.5t215.5 50.5t216 -50.5t155.5 -140.5t91.5 -211.5t31 -267.5q0 -229 -75 -394t-219 -234l22 -63q26 -85 63 -120t99 -35q33 0 59 8q8 2 11.5 -0.5t3.5 -16.5v-37q0 -19 -20 -23q-44 -9 -86 -9q-163 0 -229 225l-13 41 q-63 -13 -110 -13q-161 0 -273 88t-165 237t-53 346zM205 655q0 -203 58.5 -343.5t164.5 -199.5q-4 26 -4 43q0 58 33 99.5t96 41.5q76 0 122 -39t81 -142q106 62 163 201t57 339q0 269 -104 422.5t-284 153.5t-281.5 -153t-101.5 -423zM490 151q0 -55 46 -75q13 -3 52 -3 q51 0 84 9l-4 11q-13 44 -27 71.5t-30 39.5t-29 15t-33 3q-27 0 -43 -20t-16 -51z" />
<glyph unicode="R" horiz-adv-x="964" d="M84 22v26q0 10 0.5 14t4 7.5t10.5 4.5h52.5t34.5 4t23.5 8t11 17t6 26t0.5 40v982q0 28 -2.5 41t-16.5 22.5t-37.5 12t-71.5 2.5q-7 1 -10.5 4.5t-4 7.5t-0.5 14v26q0 14 3.5 18t14.5 4h360q357 0 357 -422q0 -147 -56 -248.5t-169 -139.5l119 -307q27 -70 48 -94.5 t58 -24.5q25 0 60 19q11 6 16.5 4t9.5 -17l5 -26q4 -21 0 -29t-22 -16q-57 -21 -100 -21q-38 0 -64.5 10.5t-47 40.5t-28 45.5t-25.5 63.5q-3 5 -4.5 9t-2.5 8l-123 317h-31q-74 0 -134 15v-321v-30.5t2 -22.5t4 -17.5t9 -11t13.5 -7.5t21 -3.5t28.5 -2.5h39q16 0 19 -5 t3 -24v-19q0 -16 -3 -21t-17 -5h-345q-7 0 -10.5 0.5t-5.5 4t-2 6v11.5zM328 583q74 -19 132 -19q127 0 192 83t65 236q0 164 -68 248.5t-184 84.5h-137v-633z" />
<glyph unicode="S" horiz-adv-x="886" d="M102 78v253q0 15 4.5 20t18.5 5h37q12 0 16 -5.5t4 -17.5l13 -229q94 -33 231 -33q34 0 65.5 5t70.5 22t67 45t47.5 80t19.5 121q0 79 -24.5 136t-64 87.5t-90.5 55.5t-104 40.5t-104 42t-90.5 59.5t-64 94t-24.5 145q0 76 18 133.5t47 92t72.5 56t87.5 29t99 7.5 q81 0 155 -14t108 -33q15 -7 19.5 -14t4.5 -28v-261q0 -8 -1 -12.5t-1.5 -7t-5 -3.5t-5 -1h-7.5h-43q-12 0 -14.5 3t-2.5 15l-15 237q-57 19 -93 25t-99 6q-34 0 -63 -5t-61 -19.5t-54 -38.5t-36.5 -65t-14.5 -95q0 -61 19.5 -106t52 -71.5t75 -45.5t89.5 -34.5t94 -33 t89.5 -45.5t75 -67t52 -103t19.5 -149q0 -375 -361 -375q-79 0 -177 16t-130 33q-13 6 -17 16.5t-4 31.5z" />
<glyph unicode="T" horiz-adv-x="914" d="M73 972v311q0 14 3 17t15 3h732q9 0 12 -1t5 -5t2 -14v-311q0 -19 -17 -19h-36q-9 0 -14 2.5t-5.5 5.5t-0.5 9l-11 222q-2 15 -6.5 20.5t-16.5 5.5h-229v-1019h2v-30v-39t5 -25.5t10 -17.5t21 -8t32.5 -4.5t49.5 -0.5q16 0 19 -5t3 -24v-19q0 -16 -3.5 -21t-15.5 -5h-346 q-14 0 -16.5 3.5t-2.5 18.5v26q0 10 0.5 14t4 7.5t10.5 4.5q86 0 108 10.5t23 58.5v1075h-231q-12 0 -16.5 -5.5t-6.5 -20.5l-11 -222q0 -1 -0.5 -3.5t-1 -3.5t-1 -3t-2 -3l-3 -2t-4 -1.5t-6.5 -0.5h-38q-8 0 -11.5 3t-4 5.5t-0.5 10.5z" />
<glyph unicode="U" horiz-adv-x="1159" d="M67 1259v18q0 16 3.5 21t15.5 5h350q12 0 15 -3.5t3 -18.5v-26q0 -15 -2 -20t-13 -6q-80 0 -103.5 -10.5t-24.5 -49.5v-720q0 -183 71.5 -279.5t207.5 -96.5q134 0 204 96.5t70 279.5v689q0 26 -0.5 38t-5 24.5t-9.5 16.5t-21.5 7.5t-32 4t-48.5 0.5q-16 0 -19.5 5.5 t-3.5 24.5v18q0 16 3.5 21t17.5 5h331q14 0 16.5 -3.5t2.5 -18.5v-26q0 -12 -2.5 -18t-5 -7t-7.5 -1q-83 -2 -105.5 -12.5t-23.5 -51.5v-716q0 -139 -38.5 -242.5t-122 -164.5t-205.5 -61q-184 0 -281 123.5t-97 344.5v689q0 66 -16.5 78.5t-101.5 12.5q-16 0 -19 5.5 t-3 24.5z" />
<glyph unicode="V" horiz-adv-x="1077" d="M34 1249v36q0 11 3 14.5t11 3.5h326q15 0 15 -16v-36q0 -22 -17 -22q-74 0 -91 -5t-17 -23q0 -137 18 -272t43 -238t66.5 -219t72.5 -188.5t78 -171.5q48 102 78.5 171.5t72.5 186.5t67 219t43 238t18 274q0 18 -17.5 23t-92.5 5q-15 0 -15 22v36q0 16 13 16h317 q17 0 17 -18v-36q0 -12 -2 -15.5t-13 -4.5q-43 -1 -66.5 -2t-35 -4.5t-14 -7.5t-2.5 -12q0 -88 -7.5 -176t-16.5 -158t-30.5 -154.5t-34.5 -136t-45 -133.5t-45 -116.5t-51 -116.5t-47.5 -101t-49.5 -100q-8 -20 -32 -20h-26q-24 0 -32 20q-125 255 -176 386 q-153 395 -153 806q0 10 -6.5 15t-31 7.5t-78.5 3.5q-11 1 -12.5 4.5t-1.5 15.5z" />
<glyph unicode="W" horiz-adv-x="1550" d="M37 1247v36q0 13 2.5 16.5t10.5 3.5h345q9 0 9 -20v-32q0 -10 -0.5 -13.5t-3.5 -6t-9 -2.5q-43 0 -64.5 -1t-33.5 -4.5t-14 -8.5t-2 -16q1 -172 20.5 -331t57.5 -303t68.5 -236t79.5 -221q224 588 229 1091q0 20 -22 25t-92 5q-15 0 -15 17v39q0 18 17 18h326q5 0 7.5 -1 t4 -5.5t1.5 -13.5v-34q0 -12 -1.5 -15.5t-9.5 -4.5q-75 -1 -99 -7.5t-24 -22.5l-2 -11h4q7 -550 232 -1082q47 124 79 222t69.5 241t58 302.5t21.5 327.5q0 21 -15.5 25.5t-98.5 4.5q-15 0 -15 20v32q0 14 2 18t9 4h328q6 0 9 -1t5.5 -5.5t2.5 -13.5v-34q0 -11 -2.5 -15 t-12.5 -5q-47 -1 -68 -2t-35.5 -4.5t-17 -8t-2.5 -15.5q-1 -78 -7 -156t-12.5 -142t-21.5 -139l-25 -125t-31.5 -123t-32.5 -110t-36.5 -109t-35 -97t-37 -97t-33.5 -88q-8 -22 -26 -22h-50q-20 0 -28 22q-4 12 -29 76t-32.5 84.5t-30 81.5t-32.5 92.5t-28.5 90.5 t-29.5 103.5t-24 102.5t-23 114q-9 -49 -19.5 -97.5t-24 -99.5t-23.5 -88.5t-27.5 -91.5t-25.5 -80t-28 -82.5t-25 -70.5t-26.5 -72.5t-22.5 -62.5q-8 -22 -26 -22h-54q-21 0 -30 22q-9 25 -41.5 110t-46 122.5t-42.5 124t-43.5 142t-35.5 146.5t-31.5 168t-18.5 175t-9 198 q0 11 -2.5 15.5t-17 8t-35 4.5t-66.5 2q-9 0 -11 3t-2 15z" />
<glyph unicode="X" horiz-adv-x="1042" d="M32 22v26v5q0 12 2 16t13 5q52 0 77.5 7t38 21t31.5 51l268 517l-248 512q-11 23 -19.5 31t-30.5 12t-76 4q-7 1 -10.5 4.5t-4 7.5t-0.5 14v26q0 15 2.5 18.5t13.5 3.5h334q14 0 17 -4.5t3 -21.5v-18q0 -19 -3 -24.5t-19 -5.5q-74 0 -88 -13t8 -52l180 -378l183 352 q26 59 26 67q0 15 -19 19.5t-71 4.5q-16 0 -19 5.5t-3 24.5v18q0 16 3.5 21t17.5 5h316q14 0 16.5 -3.5t2.5 -18.5v-30q0 -13 -2 -17t-13 -5q-64 0 -94.5 -16t-50.5 -57l-244 -469l253 -525q45 -93 97 -93q16 0 40 5.5t30 5.5q4 0 6.5 -0.5t4.5 -4t3 -10.5l3 -31 q1 -18 -3 -25.5t-19 -14.5q-45 -13 -84 -13q-64 0 -99 31.5t-67 97.5l-225 462l-210 -406q-24 -45 -24 -62t21.5 -23.5t76.5 -6.5q16 0 19.5 -5t3.5 -24v-19q0 -9 -0.5 -12.5t-2 -7.5t-5.5 -5t-11 -1h-330q-11 0 -13.5 3.5t-2.5 18.5z" />
<glyph unicode="Y" horiz-adv-x="1014" d="M34 1249v36q0 11 3 14.5t11 3.5h326q15 0 15 -16v-36q0 -22 -17 -22q-64 0 -86 -4.5t-22 -19.5q0 -96 20 -185t60 -168.5t76 -135.5t90 -128q55 74 91 128.5t77 135t61.5 169t20.5 184.5q0 15 -22 19.5t-86 4.5q-15 0 -15 22v36q0 16 13 16h316q9 0 12 -3.5t3 -14.5v-36 q0 -9 -0.5 -12.5t-4 -5.5t-10.5 -2q-64 0 -88.5 -6t-26.5 -20q-2 -108 -27.5 -209t-72 -190.5t-89.5 -154.5t-105 -144v-336q0 -27 0.5 -39t5 -25.5t9.5 -17.5t21.5 -8t33 -4.5t49.5 -0.5q16 0 19 -5t3 -24v-19q0 -16 -3 -21t-17 -5h-345q-7 0 -10.5 0.5t-5.5 4t-2 6v11.5 v26q0 10 0.5 14t4 7.5t10.5 4.5q86 0 106.5 10.5t21.5 60.5v352q-50 65 -83.5 113.5t-76.5 123t-69 141t-45 153.5t-20 175q0 14 -25 19t-91 7q-11 1 -12.5 4.5t-1.5 15.5z" />
<glyph unicode="Z" horiz-adv-x="863" d="M91 19v35q0 21 6 32l538 1135h-425q-14 0 -17 -8.5t-5 -37.5l-7 -194q-3 -18 -21 -18h-35q-19 0 -19 20v300q0 14 3 17t12 3h613q10 0 12 -5t2 -19v-4v-33q0 -28 -9 -47l-525 -1113h451q20 0 20 30l9 203q1 15 4.5 18.5t16.5 3.5h37q17 0 17 -24v-291q0 -14 -4 -18 t-13 -4h-650q-11 0 -11 19z" />
<glyph unicode="[" horiz-adv-x="476" d="M153 -281v1605q0 9 0.5 12.5t2.5 5.5t6 2h231q9 0 9 -7v-73q0 -6 -1.5 -7.5t-7.5 -1.5h-142v-1456h140q7 0 9 -1.5t2 -9.5v-71q0 -7 -9 -7h-235q-5 0 -5 9z" />
<glyph unicode="\" horiz-adv-x="687" d="M48 1322h105l487 -1354h-106z" />
<glyph unicode="]" horiz-adv-x="474" d="M73 -210q0 6 1.5 7.5t7.5 1.5h141v1456h-139q-7 0 -9 1.5t-2 9.5v71q0 7 7 7h235q7 0 7 -9v-1605q0 -9 -0.5 -12.5t-2.5 -5.5t-6 -2h-233q-7 0 -7 9v71z" />
<glyph unicode="^" horiz-adv-x="1012" d="M93 802l415 505l412 -505l-65 -57l-347 450l-350 -450z" />
<glyph unicode="_" horiz-adv-x="904" d="M115 0h674v-91h-674v91z" />
<glyph unicode="`" horiz-adv-x="517" d="M136 1592q-8 11 -6 18.5t13 7.5h71q14 0 20 -4.5t15 -17.5l148 -213q16 -22 -6 -22h-43q-19 0 -41 26z" />
<glyph unicode="a" horiz-adv-x="813" d="M76 194q0 42 8.5 76t20.5 57t34.5 41t40.5 28.5t49.5 19.5t51 12.5t54.5 9.5q39 6 62 11.5t53 18t46 30.5t28 49t12 73q0 43 -6.5 72t-24.5 56t-56 40.5t-97 13.5q-92 0 -140 -27l-11 -181q0 -13 -3.5 -17t-13.5 -4h-39q-12 0 -15 5t-3 16v195q0 25 4 35.5t16 18.5 q25 17 80.5 29t126.5 12q88 0 145.5 -21t87.5 -65t41 -97.5t11 -132.5v-339q0 -91 15 -122t44 -31q39 0 39 43q0 14 1 19.5t6 10t17 4.5h17q17 0 20.5 -5.5t3.5 -22.5q0 -132 -121 -132q-59 0 -94.5 35t-44.5 119q-73 -154 -261 -154q-104 0 -154.5 48.5t-50.5 152.5z M177 192q0 -61 29 -87.5t86 -26.5q71 0 129.5 44.5t88.5 109t30 129.5v93q-12 -26 -31.5 -44t-48.5 -29t-49 -15.5t-57 -11.5q-87 -16 -116 -33q-61 -35 -61 -129z" />
<glyph unicode="b" horiz-adv-x="893" d="M34 22v26q0 11 0.5 14.5t3.5 7t10 4.5q35 0 52 0.5t34 4.5t23 8.5t11.5 17t6 25.5t0.5 39v995q0 40 -6 47.5t-33 9.5l-76 2q-9 0 -11 4.5t-2 19.5v25q0 17 3.5 22.5t14.5 5.5q56 3 106 3h73q30 0 30 -33v-589q33 99 99 151t148 52q142 0 216.5 -124.5t74.5 -325.5 q0 -200 -75.5 -321.5t-226.5 -121.5q-81 0 -148.5 41.5t-89.5 129.5v-119q0 -17 -1 -24.5t-7.5 -13t-19.5 -5.5h-192q-7 0 -10.5 0.5t-5.5 4t-2 6v11.5zM279 408q0 -153 53 -241.5t161 -88.5q214 0 214 354q0 165 -50 265t-158 100t-164 -105.5t-56 -283.5z" />
<glyph unicode="c" horiz-adv-x="739" d="M82 421q0 229 88.5 346t253.5 117q122 0 200 -42q13 -7 16.5 -16t3.5 -33v-238q0 -19 -15 -19h-44q-15 0 -15 17l-11 218q-56 30 -125 30q-252 0 -252 -380q0 -104 19 -173.5t57.5 -106.5t86 -52t115.5 -15q46 0 81.5 7.5t98.5 28.5q11 4 16 -2.5t5 -23.5v-32 q0 -13 -4 -19t-17 -11q-86 -31 -197 -31q-85 0 -148 20t-112.5 67.5t-75 133t-25.5 209.5z" />
<glyph unicode="d" horiz-adv-x="904" d="M82 434q0 131 31.5 230.5t99.5 159.5t165 60q86 0 153 -42.5t93 -132.5v455q0 40 -6 47.5t-33 9.5l-79 2q-7 0 -10 3t-3.5 6.5t-0.5 14.5v25q0 16 4.5 22t15.5 6q58 3 108 3h73q29 0 29 -33v-1043q0 -63 8.5 -98t20.5 -45t31 -10q39 0 39 43q0 14 1 19.5t7 10t18 4.5h13 q18 0 22 -5.5t4 -22.5q0 -132 -117 -132q-123 0 -140 152q-63 -154 -244 -154q-151 0 -227 122.5t-76 322.5zM181 432q0 -98 23 -176.5t74.5 -129t125.5 -50.5q113 0 169 88.5t56 248.5q0 192 -56.5 287t-172.5 95q-111 0 -165 -98.5t-54 -264.5z" />
<glyph unicode="e" horiz-adv-x="761" d="M84 426q0 458 326 458q129 0 196.5 -66.5t67.5 -188.5q0 -136 -75 -204.5t-201 -68.5q-118 0 -214 48q2 -99 20 -165t52.5 -101t76.5 -48.5t101 -13.5q64 0 113 15t112 45q21 10 21 -15v-35q0 -19 -3 -25t-18 -14q-99 -56 -240 -56q-172 0 -253.5 106t-81.5 329zM184 493 q92 -48 194 -48q90 0 142.5 46t52.5 138q0 84 -43.5 127t-121.5 43q-207 0 -224 -306z" />
<glyph unicode="f" horiz-adv-x="538" d="M65 22v26q0 15 2.5 20t12.5 6q34 1 48 1t31 4t20.5 8t9 17t5.5 25.5v39.5v617h-110q-13 0 -13 18v45q0 17 13 17h110v134q0 322 225 322q43 0 81.5 -10t54.5 -22q22 -12 22 -54v-173q0 -13 -3 -16t-14 -3h-44q-8 0 -10.5 3.5t-2.5 13.5l-11 158q-33 19 -73 19 q-65 0 -96 -59.5t-31 -197.5v-115h168q17 0 17 -19v-41q0 -11 -3 -15.5t-14 -4.5h-168v-617q0 -26 0.5 -39t7 -26t13.5 -17t28 -8t42.5 -4.5t63.5 -0.5q16 0 19 -5t3 -24v-19v-13t-1.5 -7t-5.5 -5t-11 -1h-367q-13 0 -16 4t-3 18z" />
<glyph unicode="g" horiz-adv-x="901" d="M86 434q0 131 31.5 230.5t99.5 159.5t165 60q89 0 157 -45.5t92 -142.5v134q0 36 28 36h58q25 0 134 -6q13 0 16.5 -4.5t3.5 -19.5v-28q0 -15 -2.5 -19.5t-12.5 -4.5h-91q-34 0 -37 -49v-655q0 -227 -87 -339.5t-270 -112.5q-133 0 -228 48q-13 7 -17.5 15.5t-4.5 29.5 v26q0 18 5.5 23.5t16.5 0.5q39 -17 64.5 -26t68.5 -17.5t87 -8.5q63 0 109 16t83 54.5t55.5 111t18.5 179.5v48q-68 -139 -240 -139q-151 0 -227 122.5t-76 322.5zM186 432q0 -98 23.5 -177t75 -129t125.5 -50q113 0 168 88.5t55 248.5q0 192 -56.5 287t-172.5 95 q-110 0 -164 -98.5t-54 -264.5z" />
<glyph unicode="h" horiz-adv-x="899" d="M34 22v26q0 11 0.5 14.5t3.5 7t10 4.5q84 0 105 10t22 59v1021q0 57 -37 57l-80 2q-8 0 -9.5 3.5t-1.5 17.5v31q0 17 2 21t12 4q33 1 73.5 3t51.5 2h58q16 0 22 -8.5t6 -28.5v-583q34 100 100.5 149.5t146.5 49.5q98 0 147 -65t49 -206v-384q0 -91 16 -123t44 -32 q40 0 40 45q0 22 3.5 27t21.5 5h16q17 0 21 -4t4 -22q0 -132 -123 -132q-142 0 -142 208v406q0 107 -28.5 148.5t-86.5 41.5q-104 0 -165.5 -107t-61.5 -325v-196v-30.5t2 -22.5t4 -17.5t9 -11t13.5 -7.5t21 -3.5t28.5 -2.5h39q16 0 19 -5t3 -24v-19q0 -16 -3 -21t-15 -5 h-343q-7 0 -10.5 0.5t-5.5 4t-2 6v11.5z" />
<glyph unicode="i" horiz-adv-x="465" d="M47 810v24q0 17 3.5 22.5t14.5 5.5q74 4 110 4h73q28 0 28 -34v-603q0 -92 15 -123.5t44 -31.5q39 0 39 45q0 22 3.5 27t22.5 5h15q18 0 21 -3.5t3 -22.5q0 -132 -121 -132q-141 0 -141 208v525q0 41 -5.5 48.5t-31.5 9.5l-80 2q-9 0 -11 5t-2 19zM162 1132q0 30 17 48.5 t44 18.5q25 0 43.5 -18.5t18.5 -48.5t-18.5 -48.5t-43.5 -18.5q-27 0 -44 18.5t-17 48.5z" />
<glyph unicode="j" horiz-adv-x="418" d="M-26 -201q0 24 17 24h46q5 0 8 -2t4 -8t1.5 -9.5t0 -12t-0.5 -11.5q7 -56 64 -56q14 0 24.5 4.5t22.5 18t18.5 45.5t6.5 81v853q0 41 -6 48.5t-33 9.5l-80 2q-9 0 -11 5t-2 19v24q0 16 4.5 22t15.5 6q78 4 108 4h73q28 0 28 -34v-936q0 -136 -39.5 -194t-122.5 -58 q-77 0 -112 45.5t-35 109.5zM166 1132q0 30 16.5 48.5t42.5 18.5t44 -18.5t18 -48.5t-18 -48.5t-44 -18.5t-42.5 18.5t-16.5 48.5z" />
<glyph unicode="k" horiz-adv-x="821" d="M34 22v26q0 11 0.5 14.5t3.5 7t10 4.5q84 0 105 10t22 59v1021q0 57 -37 57l-77 2q-7 1 -10 3.5t-3.5 5.5t-0.5 14v29q0 16 4 20.5t14 4.5q35 1 73.5 3t47.5 2h58q19 0 24.5 -8t5.5 -29v-797l240 285q20 23 12 28q-9 5 -81 5q-14 0 -17.5 5.5t-3.5 24.5v21q0 16 3.5 21 t15.5 5h313q12 0 14.5 -4t2.5 -19v-33q0 -9 -0.5 -12.5t-4 -6t-10.5 -2.5q-70 0 -91 -8.5t-58 -52.5l-229 -266l208 -315q25 -43 43 -62.5t41 -19.5q52 0 52 63q0 19 5 24.5t19 5.5h12q18 0 22 -5t4 -30q0 -142 -127 -142q-38 0 -70 20t-47.5 41t-38.5 59l-229 355v-287 v-30.5t2 -22.5t4 -17.5t9 -11t13.5 -7.5t21 -3.5t28.5 -2.5h39q16 0 19 -5t3 -24v-19q0 -16 -3 -21t-15 -5h-343q-7 0 -10.5 0.5t-5.5 4t-2 6v11.5z" />
<glyph unicode="l" horiz-adv-x="418" d="M9 1260v34q0 15 4 19.5t15 4.5q28 1 58 2.5t52 1.5h74q26 0 26 -28v-1065q0 -91 16 -123t46 -32q37 0 37 45q0 21 4 26.5t22 5.5h15q18 0 21 -3.5t3 -22.5q0 -132 -121 -132q-140 0 -140 208v987q0 36 -6 43t-31 7l-78 2q-12 0 -14.5 3t-2.5 17z" />
<glyph unicode="m" horiz-adv-x="1299" d="M63 22v26q0 11 0.5 15t3.5 7t9 4q82 2 100.5 13.5t18.5 65.5v573q0 58 -37 58l-82 2q-8 0 -10.5 3.5t-2.5 16.5v32q0 16 3.5 20t13.5 4q36 1 75.5 3.5t47.5 2.5h58q18 0 23.5 -8.5t5.5 -29.5v-117q56 171 205 171q143 0 186 -145q66 145 226 145q107 0 158.5 -81 t51.5 -259v-315q0 -63 8.5 -98t20.5 -45t31 -10q39 0 39 43q0 23 3.5 28.5t20.5 5.5h17q17 0 20.5 -4.5t3.5 -23.5q0 -73 -32.5 -102.5t-90.5 -29.5q-140 0 -140 210v335q0 139 -32 199t-100 60q-81 0 -129 -68t-51 -197v-389q1 -48 23.5 -58.5t110.5 -10.5q14 0 17 -5 t3 -24v-19q0 -16 -2.5 -21t-14.5 -5h-333q-12 0 -14.5 3.5t-2.5 18.5v26q0 24 13 26q28 0 43.5 0.5t28.5 5.5t18 9t8.5 19t4 27t0.5 40v365q0 145 -33.5 201t-100.5 56q-180 0 -183 -361v-270q0 -36 1.5 -50t12.5 -26t30.5 -14t60.5 -2q14 0 17 -5t3 -24v-19q0 -16 -2.5 -21 t-14.5 -5h-320q-10 0 -13.5 4t-3.5 18z" />
<glyph unicode="n" horiz-adv-x="919" d="M56 22v26q0 24 15 26q84 0 105.5 10t22.5 59v583q0 58 -37 58l-82 2q-8 0 -9.5 3t-1.5 17v32q0 16 2.5 20t12.5 4q37 1 77 3.5t48 2.5h57q17 0 22.5 -8.5t5.5 -29.5v-149q34 103 101 153t149 50q98 0 146.5 -65t48.5 -206v-384q0 -91 15.5 -123t44.5 -32q39 0 39 45 q0 22 3.5 27t20.5 5h17q18 0 21 -3.5t3 -22.5q0 -73 -32.5 -102.5t-90.5 -29.5q-140 0 -140 208v406q0 106 -29 148t-86 42q-104 0 -165.5 -107t-61.5 -325v-196v-30.5t2 -22.5t4 -17.5t9 -11t13.5 -7.5t21 -3.5t28.5 -2.5h39q16 0 19.5 -5t3.5 -24v-19q0 -16 -3.5 -21 t-15.5 -5h-345q-7 0 -10.5 0.5t-5.5 4t-2 6v11.5z" />
<glyph unicode="o" horiz-adv-x="830" d="M80 439q0 88 18.5 165t57 141t105 101.5t154.5 37.5q89 0 155.5 -37t104.5 -101.5t56.5 -141.5t18.5 -165t-19 -165.5t-57.5 -142t-105.5 -102.5t-155 -38q-71 0 -128 25t-95 67.5t-63 101t-36 121.5t-11 133zM181 434q0 -99 22 -177.5t76 -130.5t134 -52q81 0 136 52 t78 130.5t23 177.5q0 73 -13.5 136.5t-40.5 116t-73.5 82.5t-107.5 30t-107 -30t-73 -82.5t-40.5 -116t-13.5 -136.5z" />
<glyph unicode="p" horiz-adv-x="889" d="M32 -305q0 15 2.5 20t12.5 6q34 0 51 0.5t33.5 4.5t22.5 8t11 16.5t5.5 25.5t0.5 38v923q-6 47 -37 47l-82 2q-7 0 -9 3.5t-2 16.5v32q0 16 2.5 20t12.5 4q36 1 76 3.5t49 2.5h57q18 0 23 -8t5 -30v-152q33 99 100.5 152.5t149.5 53.5q142 0 216 -124.5t74 -325.5 q0 -202 -74.5 -327.5t-223.5 -125.5q-76 0 -143.5 43t-94.5 127v-335q0 -68 18 -81.5t105 -13.5q16 0 19 -5.5t3 -24.5v-19q0 -16 -3 -21t-17 -5h-345q-7 0 -10.5 0.5t-5.5 4t-2 6.5v12v26zM274 406q0 -155 55 -248t163 -93q111 0 162.5 98.5t51.5 266.5q0 107 -20 187 t-68.5 130t-122.5 50q-108 0 -164.5 -106.5t-56.5 -284.5z" />
<glyph unicode="q" horiz-adv-x="899" d="M82 438q0 97 18.5 176.5t55.5 141t98 95t141 33.5q163 0 234 -141v87q0 20 6 28t22 8h58q29 0 132 -6q14 0 17.5 -4.5t3.5 -19.5v-28q0 -15 -2.5 -19.5t-12.5 -4.5h-90q-37 0 -37 -60v-506h-2v-402q0 -26 0.5 -38.5t5 -25.5t10 -17t21 -8.5t32.5 -5t49 -0.5q16 0 19 -5.5 t3 -24.5v-19q0 -16 -3.5 -21t-15.5 -5h-346q-12 0 -14.5 4t-2.5 19v26q0 15 2.5 20t12.5 6q90 0 109.5 14t19.5 81v318q-65 -143 -237 -143q-152 0 -229.5 123.5t-77.5 323.5zM182 438q0 -72 13 -135t39 -115t70.5 -82t103.5 -30q107 0 164 98t57 265q0 164 -56 262t-165 98 q-75 0 -127.5 -51.5t-75.5 -131t-23 -178.5z" />
<glyph unicode="r" horiz-adv-x="711" d="M56 22v26q0 24 15 26q84 0 105.5 10t22.5 59v583q0 58 -37 58l-82 2q-8 0 -9.5 3t-1.5 17v32q0 16 2.5 20t12.5 4q37 1 77 3.5t48 2.5h57q17 0 22.5 -8.5t5.5 -29.5v-190h4v-3q63 247 236 247q55 0 92 -22q14 -8 17 -17t3 -37v-233q0 -10 -1.5 -13.5t-3.5 -4t-10 -0.5 h-46q-13 0 -13 16l-12 213q-19 9 -50 9q-212 0 -212 -560v-66v-30.5t2 -22.5t4 -17.5t9 -11t13.5 -7.5t21 -3.5t28.5 -2.5h39q16 0 19.5 -5t3.5 -24v-19q0 -16 -3.5 -21t-15.5 -5h-345q-7 0 -10.5 0.5t-5.5 4t-2 6v11.5z" />
<glyph unicode="s" horiz-adv-x="703" d="M86 50v199q0 24 4.5 31t19.5 7h31q7 0 10 -1t6 -8t5 -21l7 -160q75 -24 179 -24q94 0 138.5 35t44.5 134q0 62 -24 101.5t-62.5 57t-85 27.5t-93 21t-85 30.5t-62.5 63.5t-24 112q0 124 60 176.5t191 52.5q154 0 220 -31q14 -6 18 -14t4 -24l-3 -197q0 -7 -1 -11 t-5.5 -5.5t-7 -1.5h-11.5h-28q-13 0 -17.5 5.5t-4.5 21.5l-5 153q-71 21 -159 21q-81 0 -119.5 -28.5t-38.5 -117.5q0 -41 19 -67.5t49.5 -37.5t70 -20t80.5 -15t80.5 -24t70 -44t49.5 -77.5t19 -123.5q0 -79 -19.5 -131t-59 -79t-86 -37t-113.5 -10q-73 0 -142 10t-98 23 q-13 6 -17.5 11t-4.5 17z" />
<glyph unicode="t" horiz-adv-x="549" d="M50 802v41q0 15 3.5 19t13.5 4h106l34 251q3 28 20 28h22q12 0 15.5 -6t3.5 -22v-251h210q19 0 19 -24v-40q0 -14 -3.5 -18t-15.5 -4h-210v-486q0 -130 25 -179.5t78 -49.5q40 0 55 19t15 52q0 26 23 26h22q19 0 19 -28q0 -75 -40 -114t-113 -39q-95 0 -139 76.5 t-44 232.5v490h-102q-11 0 -14 4t-3 18z" />
<glyph unicode="u" horiz-adv-x="901" d="M34 812v24q0 16 3.5 21t14.5 5q49 1 66.5 2.5t43.5 1.5h74q16 0 21.5 -8.5t5.5 -28.5v-539q0 -129 32 -174t103 -45q103 0 159 75t59 252v345q-5 43 -37 43l-82 2q-8 0 -9.5 5t-1.5 19v24q0 16 4.5 21t14.5 5q49 1 66 2.5t43 1.5h75q14 0 19 -8t5 -29v-617 q1 -80 17.5 -109t44.5 -29q39 0 39 45q0 22 3.5 27t22.5 5h13q19 0 22.5 -3.5t3.5 -22.5q0 -132 -121 -132q-57 0 -92 33t-46 110q-69 -149 -236 -149q-114 0 -166 71t-52 236v441q0 51 -38 51l-83 2q-8 0 -9.5 5t-1.5 19z" />
<glyph unicode="v" horiz-adv-x="813" d="M39 802v51q0 13 13 13h292q12 0 12 -13v-49v-6t-1.5 -4.5t-4 -3.5t-7.5 -1q-67 -2 -81.5 -5.5t-13.5 -18.5q1 -102 15 -198.5t41 -186.5t49.5 -150t57.5 -142q35 83 57.5 142.5t50.5 149.5t42.5 186.5t15.5 198.5q2 15 -12 19t-79 5q-9 0 -12 3t-3 10v49q0 15 11 15h278 q12 0 14 -3.5t2 -13.5v-43q0 -17 -15 -17q-69 -1 -82.5 -5t-13.5 -21q-2 -118 -21 -228t-55.5 -213.5t-62 -163t-70.5 -152.5q-8 -15 -24 -15h-48q-17 0 -25 15q-36 75 -55.5 118t-52.5 128t-51 154t-33 165.5t-16 191.5q0 17 -14 21t-87 5q-8 0 -9.5 2.5t-1.5 10.5z" />
<glyph unicode="w" horiz-adv-x="1271" d="M37 804v49q0 9 3 11t10 2h317q13 0 13 -13v-49q0 -15 -15 -15q-65 -2 -84.5 -5.5t-19.5 -16.5q1 -101 16 -198t42 -186.5t50 -151.5t57 -142q48 110 78 192.5t58.5 218.5t29.5 267q1 14 -13.5 17t-88.5 5q-6 0 -10.5 4.5t-4.5 10.5v49q0 13 11 13h303q13 0 13 -13v-51 q0 -13 -11 -13q-104 -2 -111 -13h3q8 -346 175 -685q48 110 78 192.5t59 217.5t31 266q0 14 -14 17.5t-87 4.5q-16 0 -16 15v49q0 13 13 13h297q14 0 14 -15v-47q0 -15 -15 -15q-76 -1 -91 -5t-15 -19q-2 -93 -18 -190t-33.5 -164t-52.5 -158.5t-51.5 -128.5t-53.5 -118 q-8 -15 -22 -15h-58q-14 0 -24 15q-117 252 -164 437q-46 -178 -166 -437q-8 -15 -18 -15h-62q-12 0 -20 15q-34 72 -54 117t-52.5 131t-51 156.5t-33.5 166t-16 188.5q0 15 -20 18.5t-92 5.5q-13 0 -13 15z" />
<glyph unicode="x" horiz-adv-x="841" d="M47 22v25q0 16 3 20t15 4q63 0 82 8t41 46l179 309l-179 314q-15 28 -39 35.5t-71 7.5q-9 0 -12 5t-3 21v26q0 14 3.5 18.5t13.5 4.5h291q11 0 13.5 -5t2.5 -21v-11q0 -15 -0.5 -21t-5 -10.5t-14.5 -4.5q-58 0 -68 -8t8 -40l119 -211l123 213q18 32 9.5 39t-66.5 7 q-13 0 -16 7.5t-3 28.5v11q0 16 2.5 21t14.5 5h275q11 0 14 -4t3 -19v-26q0 -16 -3 -21t-12 -5q-48 0 -73 -8t-42 -35l-177 -299l186 -328q20 -35 40 -43.5t75 -8.5q12 0 15.5 -3t3.5 -19v-25q0 -15 -2 -18.5t-13 -3.5h-290q-12 0 -14.5 5t-2.5 21v15q0 19 2.5 23.5 t16.5 4.5q73 -2 73 15q-1 6 -8 17l-142 247l-145 -247q-13 -20 4 -26q18 -6 82 -6q14 0 17 -4.5t3 -23.5v-15q0 -16 -2.5 -21t-14.5 -5h-298q-11 0 -12.5 3.5t-1.5 18.5z" />
<glyph unicode="y" horiz-adv-x="843" d="M47 802v51q0 9 3 11t10 2h294q9 0 9 -13v-49q0 -15 -11 -15q-36 -1 -55 -2t-28 -4.5t-10 -6.5t0 -11q1 -136 58 -342.5t106 -320.5q96 272 188 652q0 11 2.5 17.5t-8.5 10.5t-27.5 5t-54.5 2q-9 0 -12 3t-3 12v47q0 15 15 15h278q6 0 8.5 -0.5t4 -3.5t1.5 -4.5v-8.5v-45 q0 -15 -13 -15q-66 -1 -80.5 -8t-21.5 -38q-121 -535 -344 -1056q-14 -27 -31 -41t-30.5 -17t-35.5 -3h-101q-14 0 -16 2t-2 15v39v3q0 7 2 9.5t13 3.5q87 10 100 16q18 7 30 33l100 253q-11 0 -18 15q-58 117 -131.5 348.5t-77.5 399.5q0 16 -16 20t-84 6q-8 0 -9.5 2.5 t-1.5 10.5z" />
<glyph unicode="z" horiz-adv-x="731" d="M82 28v30q0 18 9 30l419 700h-307q-16 0 -21 -5.5t-7 -22.5l-2 -146q0 -9 -3 -13.5t-6.5 -5.5t-10.5 -1h-36q-8 0 -12 0.5t-7 5t-3 13.5v225q0 28 20 28h498q20 0 20 -28v-32q0 -16 -11 -33l-417 -699h329q30 0 30 28l8 157q0 18 4.5 24t17.5 6h32q13 0 17.5 -6.5 t4.5 -31.5v-223q0 -28 -19 -28h-527q-20 0 -20 28z" />
<glyph unicode="{" horiz-adv-x="532" d="M47 497v47q0 16 13 18q87 18 118 61t31 142v326q0 52 8.5 91.5t30 75t64.5 54.5t105 19h35q4 0 6 -0.5t3 -3.5t1 -9v-56q0 -15 -10 -15h-5q-140 0 -140 -154v-324q0 -111 -28.5 -168.5t-96.5 -79.5q68 -22 96.5 -79t28.5 -168v-324q0 -155 140 -155h5q10 0 10 -15v-57 q0 -8 -2 -10t-8 -2h-35q-62 0 -105 19t-64.5 54.5t-30 75.5t-8.5 92v325q0 98 -31.5 141.5t-117.5 61.5q-13 2 -13 17z" />
<glyph unicode="|" horiz-adv-x="400" d="M153 -311v1670h95v-1670h-95z" />
<glyph unicode="}" horiz-adv-x="532" d="M69 -220q0 15 13 15h4q139 0 139 155v324q0 111 28 168t95 79q-66 22 -94.5 79.5t-28.5 168.5v324q0 154 -139 154h-4q-13 0 -13 15v56q0 9 3 11t10 2h33q63 0 106.5 -19t65 -54t30.5 -75t9 -92v-326q0 -100 29.5 -142.5t115.5 -60.5q13 -2 13 -18v-47q0 -15 -13 -17 q-86 -18 -115.5 -61.5t-29.5 -141.5v-325q0 -52 -9 -92t-30.5 -75.5t-65 -54.5t-106.5 -19h-33q-13 0 -13 12v57z" />
<glyph unicode="~" horiz-adv-x="1057" d="M117 372q45 111 117 172t150 61q43 0 82 -23.5t68.5 -57t57 -67.5t59 -57.5t62.5 -23.5q42 0 81.5 46t71.5 135l76 -34q-36 -115 -99 -174.5t-132 -59.5q-43 0 -81.5 23.5t-67 57.5t-55.5 67.5t-57 57t-61 23.5q-60 0 -105.5 -41.5t-82.5 -133.5z" />
<glyph unicode="&#xa0;" horiz-adv-x="748" d="M117 506v51q0 15 15 15h490q11 0 11 -17v-45q0 -20 -15 -20h-486q-15 0 -15 16z" />
<glyph unicode="&#xa1;" horiz-adv-x="379" d="M119 810q0 31 19.5 52.5t49.5 21.5q26 0 45.5 -21.5t19.5 -52.5q0 -35 -19 -55t-46 -20q-31 0 -50 20t-19 55zM140 -315l9 970q0 13 4.5 16t15.5 3h51q15 0 15 -19l7 -972q0 -16 -11 -16h-75q-11 0 -13.5 3.5t-2.5 14.5z" />
<glyph unicode="&#xa2;" horiz-adv-x="785" d="M101 419q0 212 91.5 338.5t252.5 126.5q105 0 164 -51.5t59 -149.5q0 -75 -37.5 -123t-107.5 -48q-41 0 -62.5 8t-21.5 33v15q0 12 3.5 18t7 7t10.5 1q39 -6 43 -6q80 0 80 88q0 123 -136 123q-117 0 -181.5 -101t-64.5 -279q0 -186 68.5 -269t182.5 -83q107 0 216 67 q12 4 15.5 -0.5t3.5 -21.5v-39q0 -13 -3.5 -19t-15.5 -13q-106 -60 -234 -60q-160 0 -246.5 116.5t-86.5 321.5zM369 -318l3 234q0 19 13 19h64q9 0 9 -15l4 -237q0 -16 -6 -16h-82q-5 0 -5 15zM369 1188q0 15 9 15h78q6 0 6 -17l-4 -238q0 -13 -7 -13h-66q-11 0 -11 16z " />
<glyph unicode="&#xa3;" horiz-adv-x="962" d="M86 22v26q0 16 2 20.5t13 5.5q50 0 71.5 1t36 10.5t16.5 22t2 43.5v426h-121q-15 0 -15 17v50q0 15 15 15h121l2 259q0 118 20.5 196.5t64 123.5t103 63.5t145.5 18.5q154 0 261 -43q5 -2 8.5 -3.5t6 -3t4 -3t3 -4t2 -3.5t0.5 -4.5v-6v-7.5v-9v-244q0 -16 -2.5 -19.5 t-14.5 -3.5h-41q-8 0 -10 3t-4 16l-19 220q-74 26 -190 26q-56 0 -97 -10.5t-74 -36.5t-50 -73.5t-17 -116.5v-335h268q11 0 11 -17v-44q0 -21 -15 -21h-264v-486l404 -2q14 0 17 6t7 26l9 186q1 18 8.5 24t23.5 6h20q13 0 16 -7t3 -31v-5v-274q0 -14 -4 -17t-15 -3h-713 q-11 0 -14.5 4t-3.5 18z" />
<glyph unicode="&#xa4;" horiz-adv-x="1003" d="M134 143l88 108q-88 121 -88 296q0 183 97 306l-80 102l63 41l75 -87q94 76 212 76q129 0 227 -88l80 92l61 -43l-89 -108q88 -123 88 -291q0 -171 -86 -294l89 -104l-69 -47l-81 84q-94 -78 -220 -78t-218 76l-78 -89zM236 547q0 -158 73 -256.5t192 -98.5q116 0 190 99 t74 256t-74 255.5t-190 98.5q-121 0 -193 -98t-72 -256z" />
<glyph unicode="&#xa5;" horiz-adv-x="1064" d="M58 1249v36q0 11 3 14.5t12 3.5h325q15 0 15 -16v-36q0 -22 -16 -22q-64 0 -86 -4.5t-22 -19.5q0 -96 20 -185t59.5 -168.5t75.5 -136t90 -127.5q55 74 91 128.5t77 135t61.5 169t20.5 184.5q0 15 -22 19.5t-86 4.5q-15 0 -15 22v36q0 16 13 16h316q9 0 12 -3.5t3 -14.5 v-36q0 -9 -0.5 -12.5t-4 -5.5t-10.5 -2q-64 0 -88.5 -6t-26.5 -20q-5 -179 -67.5 -327t-167.5 -291h218q13 0 13 -17v-41q0 -21 -16 -21h-272q-4 -4 -4 -5v-78h279q13 0 13 -19v-41q0 -20 -16 -20h-276v-144h2v-30q0 -27 0.5 -39t5 -25.5t9.5 -17.5t21.5 -8t33 -4.5 t49.5 -0.5q16 0 19 -5t3 -24v-19q0 -16 -3 -21t-17 -5h-345q-7 0 -10.5 0.5t-5.5 4t-2 6v11.5v26q0 10 0.5 14t4 7.5t10.5 4.5q86 0 106.5 10.5t21.5 60.5v198h-275q-13 0 -13 16v47q0 17 13 17h275v74l-7 9h-268q-13 0 -13 15v49q0 15 13 15h210q-67 95 -112 176t-80.5 200 t-36.5 242q0 14 -24.5 19t-90.5 7q-11 1 -13 4.5t-2 15.5z" />
<glyph unicode="&#xa6;" horiz-adv-x="407" d="M155 -266v728h96v-728h-96zM155 577v724h96v-724h-96z" />
<glyph unicode="&#xa7;" horiz-adv-x="860" d="M106 -114v242q0 14 4.5 19.5t17.5 5.5h40q16 0 20 -23l9 -216q90 -31 209 -31q40 0 75.5 6.5t76 25t64.5 59t24 100.5q0 84 -28.5 141t-73.5 86.5t-100 51t-110 44t-100 54.5t-73.5 94t-28.5 153q0 122 41 188q-41 71 -41 179q0 62 16.5 108t43 74t66.5 45.5t81 23.5 t91 6q79 0 147 -12.5t97 -30.5q14 -7 18 -14.5t4 -28.5v-249q0 -17 -4 -20.5t-16 -3.5h-39q-19 0 -19 20l-15 222q-47 18 -80.5 24.5t-90.5 6.5q-203 0 -203 -162q0 -73 28.5 -121.5t73.5 -73.5t100 -44t110 -43t100 -61t73.5 -108.5t28.5 -173.5q0 -62 -10 -115t-24 -68 q34 -80 34 -184q0 -71 -21 -125t-53.5 -85t-79 -50t-88.5 -25t-91 -6q-73 0 -163 15t-120 32q-21 13 -21 48zM229 707q0 -62 20.5 -106.5t52.5 -68t76.5 -44t87.5 -34t91.5 -37.5t81.5 -54q7 39 7 76q0 69 -19.5 120t-50 80t-74.5 52.5t-85 37t-90.5 35t-82.5 44.5 q-15 -43 -15 -101z" />
<glyph unicode="&#xa8;" horiz-adv-x="571" d="M93 1447q0 26 16.5 44.5t43.5 18.5q26 0 42.5 -18.5t16.5 -44.5q0 -28 -16.5 -46t-42.5 -18q-27 0 -43.5 18t-16.5 46zM359 1447q0 27 17 45t45 18q26 0 42.5 -18.5t16.5 -44.5q0 -28 -17 -46t-44 -18q-28 0 -44 17.5t-16 46.5z" />
<glyph unicode="&#xa9;" horiz-adv-x="1267" d="M102 618q0 158 40 282t111 202.5t166 119t208 40.5q115 0 212 -41.5t170 -122t114.5 -207t41.5 -286.5q0 -155 -39.5 -276t-110 -197.5t-165 -116t-206.5 -39.5q-115 0 -213 41t-171.5 119.5t-115.5 202t-42 279.5zM173 618q0 -273 129.5 -420.5t339.5 -147.5 q209 0 331 141.5t122 413.5q0 282 -128.5 432.5t-339.5 150.5q-208 0 -331 -146t-123 -424zM324 626q0 213 81.5 321.5t234.5 108.5q115 0 185 -39q13 -7 16.5 -15.5t3.5 -29.5v-222q0 -16 -15 -16h-41q-13 0 -13 14l-11 203q-48 26 -115 26q-233 0 -233 -351 q0 -95 17.5 -159.5t53 -99t80 -48.5t106.5 -14q65 0 168 34q18 6 18 -24v-30q0 -20 -18 -28q-87 -30 -183 -30q-63 0 -112.5 11.5t-92 39t-70.5 72.5t-44 114.5t-16 161.5z" />
<glyph unicode="&#xaa;" horiz-adv-x="759" d="M89 974q0 157 68.5 252.5t198.5 95.5q110 0 180 -117v83q0 6 0.5 9t3 4.5t4 1.5h6.5h3h71q13 0 13 -16v-635q0 -15 -13 -15h-77q-8 0 -9.5 2.5t-1.5 10.5v5v77q-30 -53 -76.5 -83.5t-100.5 -30.5q-89 0 -151 48t-90.5 126.5t-28.5 181.5zM190 970q0 -133 47 -200.5 t130 -67.5q78 0 123.5 72.5t45.5 195.5q0 122 -46 195t-125 73q-80 0 -127.5 -72t-47.5 -196z" />
<glyph unicode="&#xab;" horiz-adv-x="776" d="M67 493l302 399q12 20 22 13l45 -34q5 -4 4.5 -9t-10.5 -19l-262 -366l258 -360q14 -17 16 -23t-4 -10l-45 -32q-8 -4 -13 -2t-13 15l-298 387q-12 15 -12.5 21.5t10.5 19.5zM317 493l301 399q14 20 22 13l45 -34q6 -4 5 -9t-10 -19l-265 -366l263 -360q12 -17 13 -23 t-6 -10l-43 -32q-7 -5 -11.5 -2.5t-14.5 15.5l-298 387q-11 14 -11 21t10 20z" />
<glyph unicode="&#xac;" horiz-adv-x="921" d="M130 555v91h665v-270h-97v179h-568z" />
<glyph unicode="&#xad;" horiz-adv-x="752" d="M117 519v51q0 15 15 15h490q11 0 11 -17v-45q0 -20 -15 -20h-486q-15 0 -15 16z" />
<glyph unicode="&#xae;" horiz-adv-x="1267" d="M102 618q0 158 40 282t111 202.5t166 119t208 40.5q115 0 212 -41.5t170 -122t114.5 -207t41.5 -286.5q0 -155 -39.5 -276t-110 -197.5t-165 -116t-206.5 -39.5q-115 0 -213 41t-171.5 119.5t-115.5 202t-42 279.5zM173 618q0 -273 129.5 -420.5t339.5 -147.5 q209 0 331 141.5t122 413.5q0 282 -128.5 432.5t-339.5 150.5q-208 0 -331 -146t-123 -424zM400 268v30q0 17 10 17q50 3 60 11t10 45v560q0 28 -11.5 36.5t-58.5 9.5q-10 0 -10 17v30q0 8 2 10.5t9 2.5h216q229 0 229 -255q0 -191 -121 -240l60 -160q15 -40 28 -54.5 t35 -14.5q4 0 10.5 2t12 4t11 3.5t9 0t4.5 -7.5l4 -32q1 -13 -1.5 -17t-13.5 -9q-35 -13 -64 -13q-19 0 -33 3t-26 14t-17.5 15.5t-15 26.5t-11 25.5t-12.5 32.5l-62 164h-7q-48 0 -82 9v-162q0 -39 9 -47.5t54 -9.5q9 0 11 -3.5t2 -15.5v-26q0 -15 -11 -15h-218 q-8 0 -9.5 2t-1.5 11zM564 613q33 -10 73 -10q132 0 132 177q0 93 -36 139.5t-98 46.5h-71v-353z" />
<glyph unicode="&#xaf;" horiz-adv-x="590" d="M125 1426v47q0 20 16 20h323q13 0 13 -17v-50q0 -18 -17 -18h-319q-10 0 -13 3.5t-3 14.5z" />
<glyph unicode="&#xb0;" horiz-adv-x="599" d="M91 1048q0 117 56 195.5t153 78.5q99 0 154.5 -79t55.5 -195q0 -119 -58 -196t-152 -77q-96 0 -152.5 76t-56.5 197zM188 1050q0 -91 33 -142.5t82 -51.5q45 0 77.5 52t32.5 136q0 86 -31.5 141t-81.5 55q-46 0 -79 -54.5t-33 -135.5z" />
<glyph unicode="&#xb1;" horiz-adv-x="936" d="M114 434v91h305v344h97v-344h303v-91h-303v-307h-97v307h-305zM117 45h708v-92h-708v92z" />
<glyph unicode="&#xb2;" horiz-adv-x="711" d="M67 572v46q0 20 6 24q435 339 435 699q0 58 -12 97t-36 59t-52.5 27.5t-68.5 7.5q-96 0 -164 -35l-15 -188q-1 -10 -3.5 -12.5t-9.5 -2.5h-45q-8 0 -9.5 2.5t-1.5 14.5v219q0 18 3 24t14 10q108 52 233 52q42 0 72.5 -3.5t69.5 -19t63 -43t41.5 -79.5t17.5 -125 q0 -203 -109 -382t-295 -318h337q21 0 21 28l5 138q0 14 3 19t14 5h35q11 0 14 -5t3 -21v-235q0 -12 -2 -14t-9 -2h-542q-13 0 -13 13z" />
<glyph unicode="&#xb3;" horiz-adv-x="683" d="M65 603v41q0 13 4.5 18t12.5 3q3 -1 26.5 -7.5t48 -12.5t64.5 -11t79 -5q108 0 158 61.5t50 188.5q0 109 -45 152t-132 43h-74q-15 0 -15 21v44q0 12 6 19l232 358h-290q-11 0 -14 -8.5t-5 -32.5l-3 -121q0 -19 -17 -19h-36q-10 0 -12 3t-2 16v229q0 10 1.5 13.5t3 4 t8.5 0.5h467q9 0 11 -4t2 -18v-37q0 -7 -0.5 -11.5t-2.5 -9t-3 -6.5t-6 -8.5t-9 -11.5l-227 -341h17q132 0 189 -62.5t57 -208.5q0 -178 -80.5 -258.5t-213.5 -80.5q-140 0 -235 33q-15 5 -15 26z" />
<glyph unicode="&#xb4;" horiz-adv-x="502" d="M140 1383l121 177q9 14 16 19t21 5h80q11 0 13.5 -8.5t-7.5 -19.5l-162 -184q-10 -13 -32 -13h-43q-12 0 -14 6.5t7 17.5z" />
<glyph unicode="&#xb5;" horiz-adv-x="955" d="M61 812v24q0 16 4 21t15 5q49 1 66.5 2.5t43.5 1.5h74q16 0 21 -8t5 -29v-539q0 -88 16.5 -137t44.5 -65.5t75 -16.5q103 0 159 75t59 252v345q-5 43 -37 43l-82 2q-8 0 -9.5 5t-1.5 19v24q0 16 4 21t14 5q49 1 66.5 2.5t43.5 1.5h75q14 0 19 -8t5 -29v-617 q1 -81 17 -109.5t44 -28.5q40 0 40 45q0 22 3.5 27t22.5 5h13q19 0 22.5 -3.5t3.5 -22.5q0 -132 -121 -132q-57 0 -92 33t-46 110q-69 -149 -237 -149q-73 0 -121 30v-414q0 -13 -7 -13h-84q-5 0 -5 13v1132q0 51 -38 51l-83 2q-8 0 -10 5t-2 19z" />
<glyph unicode="&#xb6;" horiz-adv-x="731" d="M71 942q0 158 76 259.5t196 101.5h219v-1539h-84v1452h-104v-1452h-84v793q-65 1 -115.5 54t-77 140t-26.5 191z" />
<glyph unicode="&#xb7;" horiz-adv-x="450" d="M143 469q0 31 21.5 51t53.5 20q31 0 53.5 -21t22.5 -50q0 -30 -22.5 -50.5t-53.5 -20.5q-32 0 -53.5 20t-21.5 51z" />
<glyph unicode="&#xb8;" horiz-adv-x="428" d="M30 -326l11 26q8 15 20 10q35 -15 79 -15q76 0 76 87q0 63 -95 63q-3 0 -12 -1t-10.5 0t-2 7t4.5 19l48 130h76l-33 -99q57 -1 83.5 -34.5t26.5 -84.5q0 -81 -41 -118.5t-106 -37.5q-62 0 -116 20q-20 9 -9 28z" />
<glyph unicode="&#xb9;" horiz-adv-x="508" d="M63 577v26q0 21 11 21q97 3 121.5 11t27.5 39v797q-2 19 -24 0l-113 -93q-19 -12 -19 9v47q0 15 17 29l152 125q18 13 45 13h19q15 0 15 -15v-912q1 -33 23 -39.5t114 -8.5q12 0 14.5 -4.5t2.5 -20.5v-22q0 -13 -3 -16.5t-14 -3.5h-374q-10 0 -12.5 3.5t-2.5 14.5z" />
<glyph unicode="&#xba;" horiz-adv-x="824" d="M80 875q0 88 18.5 165t57 141t105 101.5t154.5 37.5q89 0 155.5 -37t104.5 -101.5t56.5 -141.5t18.5 -165t-19 -165.5t-57.5 -142.5t-105.5 -103t-155 -38t-154.5 38t-104 103t-56 142.5t-18.5 165.5zM181 869q0 -73 13 -135.5t39.5 -114t72.5 -80.5t107 -29q81 0 136 52 t78 130t23 177q0 73 -13.5 136.5t-40.5 116t-73.5 82.5t-107.5 30t-107 -30t-73 -82.5t-40.5 -116t-13.5 -136.5z" />
<glyph unicode="&#xbb;" horiz-adv-x="776" d="M86 86q-5 5 -3.5 9t14.5 22l260 360l-262 366q-11 14 -12 19t5 9l46 34q8 7 22 -13l302 -399q10 -13 9.5 -20t-11.5 -21l-298 -387q-10 -13 -14.5 -15.5t-13.5 2.5zM335 86q-6 5 -5 9t16 22l261 360l-264 366q-10 15 -11 19t7 9l45 34q8 7 22 -13l301 -399q10 -13 10 -20 t-11 -21l-298 -387q-10 -13 -14.5 -15.5t-11.5 2.5z" />
<glyph unicode="&#xbf;" horiz-adv-x="748" d="M61 -110q0 83 17.5 140.5t45 87t60.5 50.5t66.5 41.5t61 49t45 83.5t17.5 135v154q0 14 2 16.5t11 2.5h69q11 0 11 -17v-149q0 -95 -17 -160.5t-44.5 -99.5t-60 -56.5t-65.5 -41.5t-60.5 -44t-44.5 -74t-17 -122q0 -188 216 -188q67 0 106.5 7t100.5 27l15 233 q0 13 3 16.5t14 3.5h40q11 0 15 -3.5t4 -20.5v-261q0 -20 -4 -28.5t-18 -14.5q-36 -20 -113.5 -33t-165.5 -13q-52 0 -94 6.5t-83.5 25.5t-69.5 49t-45.5 80.5t-17.5 117.5zM356 810q0 31 19 52.5t48 21.5q28 0 47.5 -21.5t19.5 -52.5q0 -35 -19 -55t-48 -20q-30 0 -48.5 20 t-18.5 55z" />
<glyph unicode="&#xc0;" d="M37 22v26q0 12 2.5 18t5 7t7.5 1q88 2 108.5 14t20.5 65v85q0 244 21.5 439.5t65.5 341t115.5 224.5t165.5 79q123 0 209 -136.5t127.5 -377.5t41.5 -570v-102q1 -44 20.5 -53t98.5 -9q16 0 19.5 -5t3.5 -24v-19q0 -16 -3.5 -21t-17.5 -5h-350q-13 0 -15.5 3t-2.5 19v26 v3q0 14 2 18t12 5q80 0 103 10.5t26 49.5v104q0 55 -4 155h-545q-2 -50 -2 -155v-72q0 -31 2 -44t6 -25.5t19 -16t32.5 -5t55.5 -1.5q16 0 19.5 -5t3.5 -24v-19q0 -9 -0.5 -12.5t-2 -7.5t-5.5 -5t-11 -1h-335q-13 0 -16 3t-3 19zM277 482h540q-18 351 -88 551t-183 200 q-111 0 -181 -200.5t-88 -550.5zM359 1592q-8 11 -5.5 18.5t13.5 7.5h71q14 0 20 -4.5t15 -17.5l147 -213q16 -22 -6 -22h-42q-19 0 -41 26z" />
<glyph unicode="&#xc1;" d="M37 22v26q0 12 2.5 18t5 7t7.5 1q88 2 108.5 14t20.5 65v85q0 244 21.5 439.5t65.5 341t115.5 224.5t165.5 79q123 0 209 -136.5t127.5 -377.5t41.5 -570v-102q1 -44 20.5 -53t98.5 -9q16 0 19.5 -5t3.5 -24v-19q0 -16 -3.5 -21t-17.5 -5h-350q-13 0 -15.5 3t-2.5 19v26 v3q0 14 2 18t12 5q80 0 103 10.5t26 49.5v104q0 55 -4 155h-545q-2 -50 -2 -155v-72q0 -31 2 -44t6 -25.5t19 -16t32.5 -5t55.5 -1.5q16 0 19.5 -5t3.5 -24v-19q0 -9 -0.5 -12.5t-2 -7.5t-5.5 -5t-11 -1h-335q-13 0 -16 3t-3 19zM277 482h540q-18 351 -88 551t-183 200 q-111 0 -181 -200.5t-88 -550.5zM497 1402l121 177q9 14 16 19t21 5h80q11 0 13.5 -8.5t-7.5 -19.5l-162 -184q-10 -13 -32 -13h-42q-12 0 -14.5 6.5t6.5 17.5z" />
<glyph unicode="&#xc2;" d="M37 22v26q0 12 2.5 18t5 7t7.5 1q88 2 108.5 14t20.5 65v85q0 244 21.5 439.5t65.5 341t115.5 224.5t165.5 79q123 0 209 -136.5t127.5 -377.5t41.5 -570v-102q1 -44 20.5 -53t98.5 -9q16 0 19.5 -5t3.5 -24v-19q0 -16 -3.5 -21t-17.5 -5h-350q-13 0 -15.5 3t-2.5 19v26 v3q0 14 2 18t12 5q80 0 103 10.5t26 49.5v104q0 55 -4 155h-545q-2 -50 -2 -155v-72q0 -31 2 -44t6 -25.5t19 -16t32.5 -5t55.5 -1.5q16 0 19.5 -5t3.5 -24v-19q0 -9 -0.5 -12.5t-2 -7.5t-5.5 -5t-11 -1h-335q-13 0 -16 3t-3 19zM277 482h540q-18 351 -88 551t-183 200 q-111 0 -181 -200.5t-88 -550.5zM354 1381q-7 14 5 30l136 159q16 16 34 16h41q15 0 31 -16l138 -159q13 -20 0 -39q-9 -17 -22 -4l-170 133l-165 -133q-13 -6 -17 -3t-11 16z" />
<glyph unicode="&#xc3;" d="M37 22v26q0 12 2.5 18t5 7t7.5 1q88 2 108.5 14t20.5 65v85q0 244 21.5 439.5t65.5 341t115.5 224.5t165.5 79q123 0 209 -136.5t127.5 -377.5t41.5 -570v-102q1 -44 20.5 -53t98.5 -9q16 0 19.5 -5t3.5 -24v-19q0 -16 -3.5 -21t-17.5 -5h-350q-13 0 -15.5 3t-2.5 19v26 v3q0 14 2 18t12 5q80 0 103 10.5t26 49.5v104q0 55 -4 155h-545q-2 -50 -2 -155v-72q0 -31 2 -44t6 -25.5t19 -16t32.5 -5t55.5 -1.5q16 0 19.5 -5t3.5 -24v-19q0 -9 -0.5 -12.5t-2 -7.5t-5.5 -5t-11 -1h-335q-13 0 -16 3t-3 19zM277 482h540q-18 351 -88 551t-183 200 q-111 0 -181 -200.5t-88 -550.5zM393 1430q42 91 102 91q29 0 55.5 -15.5t48.5 -31.5t40 -16q14 0 22 9.5t20 36.5q7 15 15 10l32 -19q8 -4 8.5 -8t-2.5 -14q-39 -95 -101 -95q-37 0 -80.5 31.5t-59.5 31.5q-13 0 -21.5 -9t-24.5 -36q-7 -14 -19 -7l-30 17q-13 6 -5 24z" />
<glyph unicode="&#xc4;" d="M37 22v26q0 12 2.5 18t5 7t7.5 1q88 2 108.5 14t20.5 65v85q0 244 21.5 439.5t65.5 341t115.5 224.5t165.5 79q123 0 209 -136.5t127.5 -377.5t41.5 -570v-102q1 -44 20.5 -53t98.5 -9q16 0 19.5 -5t3.5 -24v-19q0 -16 -3.5 -21t-17.5 -5h-350q-13 0 -15.5 3t-2.5 19v26 v3q0 14 2 18t12 5q80 0 103 10.5t26 49.5v104q0 55 -4 155h-545q-2 -50 -2 -155v-72q0 -31 2 -44t6 -25.5t19 -16t32.5 -5t55.5 -1.5q16 0 19.5 -5t3.5 -24v-19q0 -9 -0.5 -12.5t-2 -7.5t-5.5 -5t-11 -1h-335q-13 0 -16 3t-3 19zM277 482h540q-18 351 -88 551t-183 200 q-111 0 -181 -200.5t-88 -550.5zM356 1447q0 27 16 45t43 18q26 0 43 -18.5t17 -44.5q0 -28 -17 -46t-43 -18q-27 0 -43 18t-16 46zM622 1447q0 27 16.5 45t44.5 18q26 0 43 -18.5t17 -44.5q0 -28 -17 -46t-45 -18t-43.5 17.5t-15.5 46.5z" />
<glyph unicode="&#xc5;" d="M37 22v26q0 12 2.5 18t5 7t7.5 1q88 2 108.5 14t20.5 65v85q0 244 21.5 439.5t65.5 341t115.5 224.5t165.5 79q123 0 209 -136.5t127.5 -377.5t41.5 -570v-102q1 -44 20.5 -53t98.5 -9q16 0 19.5 -5t3.5 -24v-19q0 -16 -3.5 -21t-17.5 -5h-350q-13 0 -15.5 3t-2.5 19v26 v3q0 14 2 18t12 5q80 0 103 10.5t26 49.5v104q0 55 -4 155h-545q-2 -50 -2 -155v-72q0 -31 2 -44t6 -25.5t19 -16t32.5 -5t55.5 -1.5q16 0 19.5 -5t3.5 -24v-19q0 -9 -0.5 -12.5t-2 -7.5t-5.5 -5t-11 -1h-335q-13 0 -16 3t-3 19zM277 482h540q-18 351 -88 551t-183 200 q-111 0 -181 -200.5t-88 -550.5zM378 1504q0 57 40 95.5t129 38.5t129.5 -38.5t40.5 -95.5t-40.5 -96.5t-129.5 -39.5t-129 39.5t-40 96.5zM460 1504q0 -72 87 -72q49 0 69.5 21t20.5 51q0 29 -21 50t-69 21q-87 0 -87 -71z" />
<glyph unicode="&#xc6;" horiz-adv-x="1504" d="M37 22v26q0 12 2.5 18t5 7t7.5 1q88 2 108.5 14t20.5 65v85q0 244 21.5 439.5t65.5 341t115.5 224.5t165.5 79q177 0 276 -276v239q0 11 3 14.5t14 3.5h517q9 0 12 -1t5 -5t2 -14v-278q0 -35 -19 -35h-32q-17 0 -19 10q0 2 -1 7v3l-11 185q-1 14 -2.5 20t-6 10.5 t-14.5 4.5l-348 -2v-502h237q12 0 16 -3.5t4 -17.5v-45q0 -19 -3.5 -24t-18.5 -5h-235v-231q2 -47 2 -142v-102q0 -29 8 -41l365 -2q14 0 17 7t5 28l11 185l1 3q0 4 0.5 5t1.5 3.5t2.5 3.5t3.5 2.5t5 2t7 0.5h31q21 0 21 -35v-278q0 -14 -4 -17t-17 -3h-687q-13 0 -15.5 3 t-2.5 19v26v3q0 14 2 18t12 5q80 0 103 10.5t26 49.5v104q0 55 -4 155h-545q-2 -50 -2 -155v-72q0 -31 2 -44t6 -25.5t19 -16t32.5 -5t55.5 -1.5q16 0 19.5 -5t3.5 -24v-19q0 -9 -0.5 -12.5t-2 -7.5t-5.5 -5t-11 -1h-335q-13 0 -16 3t-3 19zM277 482h540q-18 351 -88 551 t-183 200q-111 0 -181 -200.5t-88 -550.5z" />
<glyph unicode="&#xc7;" horiz-adv-x="1003" d="M101 639q0 339 130 511t369 172q177 0 283 -37q16 -7 20 -14t4 -33v-288q0 -15 -3.5 -19t-13.5 -4h-48q-12 0 -15.5 3.5t-5.5 15.5l-17 262q-90 26 -203 26q-185 0 -290.5 -151t-105.5 -448q0 -293 101 -425t299 -132q118 0 304 43q11 4 16.5 0.5t5.5 -17.5v-33 q0 -22 -5.5 -29t-24.5 -12q-154 -40 -296 -43l-24 -71q57 -1 83.5 -34.5t26.5 -84.5q0 -81 -41 -118.5t-106 -37.5q-62 0 -116 20q-20 9 -9 28l11 26q8 15 21 9q33 -14 78 -14q76 0 76 87q0 63 -95 63q-3 0 -12 -1t-10.5 0t-2 7t4.5 19l39 106q-215 17 -321.5 172 t-106.5 476z" />
<glyph unicode="&#xc8;" horiz-adv-x="878" d="M97 335q0 92 20.5 159t58 104.5t74 56.5t83.5 30q-188 47 -188 315q0 91 25 155.5t72 100t104.5 51t131.5 15.5q155 0 259 -43q7 -2 11 -4t7 -4.5t4 -4t2 -5.5t0.5 -6.5t-0.5 -9v-11.5v-244q0 -16 -2.5 -19t-13.5 -3h-39q-10 0 -13 3t-4 16l-17 219q-77 27 -190 27 q-115 0 -177.5 -52t-62.5 -185q0 -266 263 -266h108q9 0 12.5 -5t3.5 -21v-36q0 -16 -3.5 -21t-12.5 -5h-108q-300 0 -300 -299q0 -143 70 -206.5t217 -63.5q30 0 62.5 2.5t61 6t54 8t48.5 9.5t38.5 9t28.5 7.5t14 3.5q10 1 12.5 -2t2.5 -16v-54q0 -16 -23 -25 q-125 -41 -316 -41q-86 0 -150 15.5t-118 53.5t-82 109.5t-28 175.5zM289 1592q-8 11 -6 18.5t13 7.5h71q14 0 20 -4.5t15 -17.5l147 -213q16 -22 -5 -22h-43q-19 0 -41 26z" />
<glyph unicode="&#xc9;" horiz-adv-x="878" d="M97 335q0 92 20.5 159t58 104.5t74 56.5t83.5 30q-188 47 -188 315q0 91 25 155.5t72 100t104.5 51t131.5 15.5q155 0 259 -43q7 -2 11 -4t7 -4.5t4 -4t2 -5.5t0.5 -6.5t-0.5 -9v-11.5v-244q0 -16 -2.5 -19t-13.5 -3h-39q-10 0 -13 3t-4 16l-17 219q-77 27 -190 27 q-115 0 -177.5 -52t-62.5 -185q0 -266 263 -266h108q9 0 12.5 -5t3.5 -21v-36q0 -16 -3.5 -21t-12.5 -5h-108q-300 0 -300 -299q0 -143 70 -206.5t217 -63.5q30 0 62.5 2.5t61 6t54 8t48.5 9.5t38.5 9t28.5 7.5t14 3.5q10 1 12.5 -2t2.5 -16v-54q0 -16 -23 -25 q-125 -41 -316 -41q-86 0 -150 15.5t-118 53.5t-82 109.5t-28 175.5zM424 1402l122 177q9 14 16 19t21 5h80q11 0 13 -8.5t-8 -19.5l-162 -184q-10 -13 -31 -13h-43q-12 0 -14.5 6.5t6.5 17.5z" />
<glyph unicode="&#xca;" horiz-adv-x="878" d="M97 335q0 92 20.5 159t58 104.5t74 56.5t83.5 30q-188 47 -188 315q0 91 25 155.5t72 100t104.5 51t131.5 15.5q155 0 259 -43q7 -2 11 -4t7 -4.5t4 -4t2 -5.5t0.5 -6.5t-0.5 -9v-11.5v-244q0 -16 -2.5 -19t-13.5 -3h-39q-10 0 -13 3t-4 16l-17 219q-77 27 -190 27 q-115 0 -177.5 -52t-62.5 -185q0 -266 263 -266h108q9 0 12.5 -5t3.5 -21v-36q0 -16 -3.5 -21t-12.5 -5h-108q-300 0 -300 -299q0 -143 70 -206.5t217 -63.5q30 0 62.5 2.5t61 6t54 8t48.5 9.5t38.5 9t28.5 7.5t14 3.5q10 1 12.5 -2t2.5 -16v-54q0 -16 -23 -25 q-125 -41 -316 -41q-86 0 -150 15.5t-118 53.5t-82 109.5t-28 175.5zM283 1381q-7 13 6 30l135 159q16 16 34 16h41q16 0 32 -16l137 -159q13 -20 0 -39q-9 -17 -22 -4l-169 133l-166 -133q-3 -2 -5.5 -3.5t-5 -1t-4 1t-4 3t-3 3.5t-3 5t-3.5 5z" />
<glyph unicode="&#xcb;" horiz-adv-x="878" d="M97 335q0 92 20.5 159t58 104.5t74 56.5t83.5 30q-188 47 -188 315q0 91 25 155.5t72 100t104.5 51t131.5 15.5q155 0 259 -43q7 -2 11 -4t7 -4.5t4 -4t2 -5.5t0.5 -6.5t-0.5 -9v-11.5v-244q0 -16 -2.5 -19t-13.5 -3h-39q-10 0 -13 3t-4 16l-17 219q-77 27 -190 27 q-115 0 -177.5 -52t-62.5 -185q0 -266 263 -266h108q9 0 12.5 -5t3.5 -21v-36q0 -16 -3.5 -21t-12.5 -5h-108q-300 0 -300 -299q0 -143 70 -206.5t217 -63.5q30 0 62.5 2.5t61 6t54 8t48.5 9.5t38.5 9t28.5 7.5t14 3.5q10 1 12.5 -2t2.5 -16v-54q0 -16 -23 -25 q-125 -41 -316 -41q-86 0 -150 15.5t-118 53.5t-82 109.5t-28 175.5zM285 1447q0 27 16 45t43 18q26 0 43 -18.5t17 -44.5q0 -28 -17 -46t-43 -18q-27 0 -43 18t-16 46zM551 1447q0 27 17 45t45 18q26 0 42.5 -18.5t16.5 -44.5q0 -28 -17 -46t-44 -18q-28 0 -44 17.5 t-16 46.5z" />
<glyph unicode="&#xcc;" horiz-adv-x="556" d="M86 22v26q0 10 0.5 14t4 7.5t10.5 4.5h41t30.5 2t23 3.5t14.5 7.5t10 11t4.5 17.5t2.5 22.5v31v30h2v946q0 60 -17 72t-100 12q-16 0 -19.5 5.5t-3.5 24.5v18q0 16 3.5 21t15.5 5h346q12 0 14.5 -3.5t2.5 -18.5v-26q0 -10 -0.5 -14t-4 -7.5t-10.5 -4.5 q-89 0 -108.5 -12.5t-19.5 -71.5v-976q0 -27 0.5 -39t5 -25.5t9.5 -17.5t21.5 -8t33 -4.5t49.5 -0.5q16 0 19 -5t3 -24v-19q0 -16 -3 -21t-17 -5h-345q-7 0 -10.5 0.5t-5.5 4t-2 6v11.5zM89 1592q-8 11 -5.5 18.5t13.5 7.5h71q14 0 20 -4.5t15 -17.5l147 -213q16 -22 -6 -22 h-42q-19 0 -41 26z" />
<glyph unicode="&#xcd;" horiz-adv-x="556" d="M86 22v26q0 10 0.5 14t4 7.5t10.5 4.5q85 0 105 10.5t21 60.5v989v39t-4.5 25.5t-9.5 18t-20.5 8t-31.5 4.5h-49q-16 0 -19.5 5.5t-3.5 24.5v18q0 16 3.5 21t15.5 5h346q12 0 14.5 -3.5t2.5 -18.5v-26q0 -10 -0.5 -14t-4 -7.5t-10.5 -4.5q-89 0 -108.5 -12.5t-19.5 -71.5 v-976q0 -27 0.5 -39t5 -25.5t9.5 -17.5t21.5 -8t33 -4.5t49.5 -0.5q16 0 19 -5t3 -24v-19q0 -16 -3 -21t-17 -5h-345q-7 0 -10.5 0.5t-5.5 4t-2 6v11.5zM225 1402l121 177q16 24 38 24h80q11 0 13 -8.5t-8 -19.5l-162 -184q-10 -13 -31 -13h-43q-12 0 -14.5 6.5t6.5 17.5z " />
<glyph unicode="&#xce;" horiz-adv-x="556" d="M84 1381q-8 14 5 30l136 159q16 16 34 16h41q15 0 31 -16l138 -159q13 -20 0 -39q-9 -17 -22 -4l-170 133l-165 -133q-13 -6 -17 -3t-11 16zM86 22v26q0 10 0.5 14t4 7.5t10.5 4.5h41t30.5 2t23 3.5t14.5 7.5t10 11t4.5 17.5t2.5 22.5v31v30h2v946q0 60 -17 72t-100 12 q-16 0 -19.5 5.5t-3.5 24.5v18q0 16 3.5 21t15.5 5h346q12 0 14.5 -3.5t2.5 -18.5v-26q0 -10 -0.5 -14t-4 -7.5t-10.5 -4.5q-89 0 -108.5 -12.5t-19.5 -71.5v-976q0 -27 0.5 -39t5 -25.5t9.5 -17.5t21.5 -8t33 -4.5t49.5 -0.5q16 0 19 -5t3 -24v-19q0 -16 -3 -21t-17 -5 h-345q-7 0 -10.5 0.5t-5.5 4t-2 6v11.5z" />
<glyph unicode="&#xcf;" horiz-adv-x="556" d="M86 22v26q0 10 0.5 14t4 7.5t10.5 4.5h41t30.5 2t23 3.5t14.5 7.5t10 11t4.5 17.5t2.5 22.5v31v30h2v946q0 60 -17 72t-100 12q-16 0 -19.5 5.5t-3.5 24.5v18q0 16 3.5 21t15.5 5h346q12 0 14.5 -3.5t2.5 -18.5v-26q0 -10 -0.5 -14t-4 -7.5t-10.5 -4.5 q-89 0 -108.5 -12.5t-19.5 -71.5v-976q0 -27 0.5 -39t5 -25.5t9.5 -17.5t21.5 -8t33 -4.5t49.5 -0.5q16 0 19 -5t3 -24v-19q0 -16 -3 -21t-17 -5h-345q-7 0 -10.5 0.5t-5.5 4t-2 6v11.5zM86 1447q0 27 16 45t43 18q26 0 43 -18.5t17 -44.5q0 -28 -17 -46t-43 -18 q-27 0 -43 18t-16 46zM352 1447q0 27 16.5 45t44.5 18q26 0 43 -18.5t17 -44.5q0 -28 -17 -46t-45 -18t-43.5 17.5t-15.5 46.5z" />
<glyph unicode="&#xd0;" horiz-adv-x="1130" d="M86 667v52q0 15 11 15h134v433q0 44 -19 52t-106 10q-11 1 -14 5t-3 17v32q0 14 2.5 17t14.5 3h352q572 0 572 -653q0 -327 -136.5 -488.5t-420.5 -161.5h-367q-11 0 -14 4t-3 18v26q0 16 2 20.5t13 5.5q81 0 103.5 10t23.5 48v518h-132q-7 0 -10 3t-3 14zM335 88h130 q232 0 345 137.5t113 420.5q0 573 -459 573h-129v-485h218q11 0 11 -13v-54q0 -17 -15 -17h-214v-562z" />
<glyph unicode="&#xd1;" horiz-adv-x="1180" d="M86 1255v26q0 14 3.5 18t14.5 4h188q34 0 47 -33l534 -1143v1024q0 28 -2.5 41t-16.5 22.5t-37.5 12t-71.5 2.5q-7 1 -10.5 4.5t-4 7.5t-0.5 14v26q0 14 3 18t14 4h337q7 0 11 -1t5.5 -5t1.5 -7v-13v-18q0 -25 -5 -28q-4 -2 -15 -2q-82 0 -100 -12t-18 -68v-1106 q0 -43 -24 -43h-59q-35 0 -47 24l-516 1099v-957q0 -24 0.5 -35.5t5 -24t10.5 -17.5t20.5 -9t32.5 -5t49 -1q16 0 19 -5t3 -24v-19q0 -16 -3.5 -21t-15.5 -5h-335q-12 0 -14 3.5t-2 18.5v26q0 14 3.5 19.5t14.5 6.5q32 0 49.5 0.5t33.5 4.5t22 8t10.5 16.5t5 24.5t0.5 36 v1000q0 44 -20.5 54.5t-105.5 10.5q-7 1 -10.5 4.5t-4 7.5t-0.5 14zM423 1430q42 91 102 91q37 0 80 -31.5t63 -31.5q14 0 23 9.5t20 36.5q7 15 15 10l32 -19q8 -4 8.5 -8.5t-3.5 -13.5q-39 -95 -100 -95q-37 0 -80.5 31.5t-59.5 31.5q-13 0 -21.5 -9t-24.5 -36 q-7 -14 -19 -7l-30 17q-13 6 -5 24z" />
<glyph unicode="&#xd2;" horiz-adv-x="1176" d="M97 652q0 146 31 267.5t90.5 211.5t154 140.5t215.5 50.5t216 -50.5t155.5 -140.5t91.5 -211.5t31 -267.5q0 -197 -53.5 -346t-166.5 -237t-274 -88t-273 88t-165 237t-53 346zM205 655q0 -271 101.5 -426.5t281.5 -155.5t284 155.5t104 426.5q0 269 -104 422.5 t-284 153.5t-281.5 -153t-101.5 -423zM398 1592q-8 11 -5.5 18.5t13.5 7.5h71q14 0 20 -4.5t15 -17.5l147 -213q16 -22 -6 -22h-42q-19 0 -41 26z" />
<glyph unicode="&#xd3;" horiz-adv-x="1176" d="M97 652q0 146 31 267.5t90.5 211.5t154 140.5t215.5 50.5t216 -50.5t155.5 -140.5t91.5 -211.5t31 -267.5q0 -197 -53.5 -346t-166.5 -237t-274 -88t-273 88t-165 237t-53 346zM205 655q0 -271 101.5 -426.5t281.5 -155.5t284 155.5t104 426.5q0 269 -104 422.5 t-284 153.5t-281.5 -153t-101.5 -423zM536 1402l121 177q9 14 16 19t21 5h81q11 0 13 -8.5t-8 -19.5l-162 -184q-10 -13 -32 -13h-42q-12 0 -14.5 6.5t6.5 17.5z" />
<glyph unicode="&#xd4;" horiz-adv-x="1176" d="M97 652q0 146 31 267.5t90.5 211.5t154 140.5t215.5 50.5t216 -50.5t155.5 -140.5t91.5 -211.5t31 -267.5q0 -197 -53.5 -346t-166.5 -237t-274 -88t-273 88t-165 237t-53 346zM205 655q0 -271 101.5 -426.5t281.5 -155.5t284 155.5t104 426.5q0 269 -104 422.5 t-284 153.5t-281.5 -153t-101.5 -423zM393 1381q-7 14 5 30l136 159q16 16 34 16h41q15 0 31 -16l138 -159q13 -20 0 -39q-9 -17 -22 -4l-170 133l-165 -133q-13 -6 -17 -3t-11 16z" />
<glyph unicode="&#xd5;" horiz-adv-x="1176" d="M97 652q0 146 31 267.5t90.5 211.5t154 140.5t215.5 50.5t216 -50.5t155.5 -140.5t91.5 -211.5t31 -267.5q0 -197 -53.5 -346t-166.5 -237t-274 -88t-273 88t-165 237t-53 346zM205 655q0 -271 101.5 -426.5t281.5 -155.5t284 155.5t104 426.5q0 269 -104 422.5 t-284 153.5t-281.5 -153t-101.5 -423zM432 1430q42 91 102 91q38 0 81 -31.5t63 -31.5q14 0 23 9.5t20 36.5q6 14 14 10l32 -19q8 -4 8.5 -8t-2.5 -14q-39 -95 -101 -95q-37 0 -80.5 31.5t-59.5 31.5q-13 0 -21.5 -9t-24.5 -36q-7 -14 -19 -7l-29 17q-14 6 -6 24z" />
<glyph unicode="&#xd6;" horiz-adv-x="1176" d="M97 652q0 146 31 267.5t90.5 211.5t154 140.5t215.5 50.5t216 -50.5t155.5 -140.5t91.5 -211.5t31 -267.5q0 -197 -53.5 -346t-166.5 -237t-274 -88t-273 88t-165 237t-53 346zM205 655q0 -271 101.5 -426.5t281.5 -155.5t284 155.5t104 426.5q0 269 -104 422.5 t-284 153.5t-281.5 -153t-101.5 -423zM395 1447q0 27 16 45t43 18q26 0 43 -18.5t17 -44.5q0 -28 -17 -46t-43 -18q-27 0 -43 18t-16 46zM661 1447q0 27 16.5 45t44.5 18q26 0 43 -18.5t17 -44.5q0 -28 -17 -46t-44 -18q-28 0 -44 17.5t-16 46.5z" />
<glyph unicode="&#xd7;" horiz-adv-x="787" d="M97 758l54 67l240 -281l214 292l62 -61l-215 -293l239 -281l-54 -67l-240 279l-213 -290l-61 61l214 293z" />
<glyph unicode="&#xd8;" horiz-adv-x="1176" d="M97 652q0 146 31 267.5t90.5 211.5t154 140.5t215.5 50.5q95 0 166 -28l26 74q8 17 17 17h80q15 0 9 -20l-39 -119q115 -81 175 -236t60 -358q0 -197 -53.5 -346t-166.5 -237t-274 -88q-78 0 -156 25l-35 -110q-4 -13 -21 -13h-82q-12 0 -5 13l52 154q-121 80 -182.5 236 t-61.5 366zM205 655q0 -361 169 -504l350 1052q-60 28 -136 28q-180 0 -281.5 -153t-101.5 -423zM462 95q57 -22 126 -22q180 0 284 155.5t104 426.5q0 168 -42 293.5t-120 196.5z" />
<glyph unicode="&#xd9;" horiz-adv-x="1159" d="M67 1259v18q0 16 3.5 21t15.5 5h350q12 0 15 -3.5t3 -18.5v-26q0 -15 -2 -20t-13 -6q-80 0 -103.5 -10.5t-24.5 -49.5v-720q0 -183 71.5 -279.5t207.5 -96.5q134 0 204 96.5t70 279.5v689q0 26 -0.5 38t-5 24.5t-9.5 16.5t-21.5 7.5t-32 4t-48.5 0.5q-16 0 -19.5 5.5 t-3.5 24.5v18q0 16 3.5 21t17.5 5h331q14 0 16.5 -3.5t2.5 -18.5v-26q0 -12 -2.5 -18t-5 -7t-7.5 -1q-83 -2 -105.5 -12.5t-23.5 -51.5v-716q0 -139 -38.5 -242.5t-122 -164.5t-205.5 -61q-184 0 -281 123.5t-97 344.5v689q0 66 -16.5 78.5t-101.5 12.5q-16 0 -19 5.5 t-3 24.5zM400 1592q-8 11 -5.5 18.5t13.5 7.5h70q14 0 20.5 -4.5t15.5 -17.5l147 -213q16 -22 -6 -22h-42q-19 0 -41 26z" />
<glyph unicode="&#xda;" horiz-adv-x="1159" d="M67 1259v18q0 16 3.5 21t15.5 5h350q12 0 15 -3.5t3 -18.5v-26q0 -15 -2 -20t-13 -6q-80 0 -103.5 -10.5t-24.5 -49.5v-720q0 -183 71.5 -279.5t207.5 -96.5q134 0 204 96.5t70 279.5v689q0 26 -0.5 38t-5 24.5t-9.5 16.5t-21.5 7.5t-32 4t-48.5 0.5q-16 0 -19.5 5.5 t-3.5 24.5v18q0 16 3.5 21t17.5 5h331q14 0 16.5 -3.5t2.5 -18.5v-26q0 -12 -2.5 -18t-5 -7t-7.5 -1q-83 -2 -105.5 -12.5t-23.5 -51.5v-716q0 -139 -38.5 -242.5t-122 -164.5t-205.5 -61q-184 0 -281 123.5t-97 344.5v689q0 66 -16.5 78.5t-101.5 12.5q-16 0 -19 5.5 t-3 24.5zM536 1402l121 177q9 14 16 19t21 5h81q11 0 13 -8.5t-8 -19.5l-162 -184q-10 -13 -32 -13h-42q-12 0 -14.5 6.5t6.5 17.5z" />
<glyph unicode="&#xdb;" horiz-adv-x="1158" d="M67 1259v18q0 16 3.5 21t15.5 5h350q12 0 15 -3.5t3 -18.5v-26q0 -15 -2 -20t-13 -6q-80 0 -103.5 -10.5t-24.5 -49.5v-720q0 -183 71.5 -279.5t207.5 -96.5q134 0 204 96.5t70 279.5v689q0 26 -0.5 38t-5 24.5t-9.5 16.5t-21.5 7.5t-32 4t-48.5 0.5q-16 0 -19.5 5.5 t-3.5 24.5v18q0 16 3.5 21t17.5 5h331q14 0 16.5 -3.5t2.5 -18.5v-26q0 -12 -2.5 -18t-5 -7t-7.5 -1q-83 -2 -105.5 -12.5t-23.5 -51.5v-716q0 -139 -38.5 -242.5t-122 -164.5t-205.5 -61q-184 0 -281 123.5t-97 344.5v689q0 66 -16.5 78.5t-101.5 12.5q-16 0 -19 5.5 t-3 24.5zM393 1381q-7 14 5 30l136 159q16 16 34 16h41q15 0 31 -16l138 -159q13 -20 0 -39q-9 -17 -22 -4l-170 133l-165 -133q-13 -6 -17 -3t-11 16z" />
<glyph unicode="&#xdc;" horiz-adv-x="1159" d="M67 1259v18q0 16 3.5 21t15.5 5h350q12 0 15 -3.5t3 -18.5v-26q0 -15 -2 -20t-13 -6q-80 0 -103.5 -10.5t-24.5 -49.5v-720q0 -183 71.5 -279.5t207.5 -96.5q134 0 204 96.5t70 279.5v689q0 26 -0.5 38t-5 24.5t-9.5 16.5t-21.5 7.5t-32 4t-48.5 0.5q-16 0 -19.5 5.5 t-3.5 24.5v18q0 16 3.5 21t17.5 5h331q14 0 16.5 -3.5t2.5 -18.5v-26q0 -12 -2.5 -18t-5 -7t-7.5 -1q-83 -2 -105.5 -12.5t-23.5 -51.5v-716q0 -139 -38.5 -242.5t-122 -164.5t-205.5 -61q-184 0 -281 123.5t-97 344.5v689q0 66 -16.5 78.5t-101.5 12.5q-16 0 -19 5.5 t-3 24.5zM395 1447q0 27 16 45t43 18q26 0 43 -18.5t17 -44.5q0 -28 -17 -46t-43 -18q-27 0 -43 18t-16 46zM661 1447q0 27 16.5 45t44.5 18q26 0 43 -18.5t17 -44.5q0 -28 -17 -46t-44 -18q-28 0 -44 17.5t-16 46.5z" />
<glyph unicode="&#xdd;" horiz-adv-x="1014" d="M34 1249v36q0 11 3 14.5t11 3.5h326q15 0 15 -16v-36q0 -22 -17 -22q-64 0 -86 -4.5t-22 -19.5q0 -96 20 -185t60 -168.5t76 -135.5t90 -128q55 74 91 128.5t77 135t61.5 169t20.5 184.5q0 15 -22 19.5t-86 4.5q-15 0 -15 22v36q0 16 13 16h316q9 0 12 -3.5t3 -14.5v-36 q0 -9 -0.5 -12.5t-4 -5.5t-10.5 -2q-64 0 -88.5 -6t-26.5 -20q-2 -108 -27.5 -209t-72 -190.5t-89.5 -154.5t-105 -144v-336q0 -27 0.5 -39t5 -25.5t9.5 -17.5t21.5 -8t33 -4.5t49.5 -0.5q16 0 19 -5t3 -24v-19q0 -16 -3 -21t-17 -5h-345q-7 0 -10.5 0.5t-5.5 4t-2 6v11.5 v26q0 10 0.5 14t4 7.5t10.5 4.5q86 0 106.5 10.5t21.5 60.5v352q-50 65 -83.5 113.5t-76.5 123t-69 141t-45 153.5t-20 175q0 14 -25 19t-91 7q-11 1 -12.5 4.5t-1.5 15.5zM462 1402l121 177q9 14 16 19t21 5h80q11 0 13.5 -8.5t-7.5 -19.5l-162 -184q-10 -13 -32 -13h-43 q-12 0 -14 6.5t7 17.5z" />
<glyph unicode="&#xde;" horiz-adv-x="882" d="M84 22v26q0 10 0.5 14t4 7.5t10.5 4.5h41t30.5 2t23 3.5t14.5 7.5t10 11t4.5 17.5t2.5 22.5v31v965v39t-4.5 25.5t-9.5 18t-20.5 8t-31.5 4.5h-49q-16 0 -19 5.5t-3 24.5v18q0 16 3 21t15 5h346q12 0 14.5 -3.5t2.5 -18.5v-26q0 -10 -0.5 -14t-4 -7.5t-10.5 -4.5h-52.5 t-34.5 -4t-23.5 -8t-11 -17t-6 -26t-0.5 -40v-97h100q90 0 158 -21.5t109 -56t66 -86t34 -104t9 -116.5q0 -199 -93 -308.5t-273 -109.5q-62 0 -110 11v-84q0 -29 2 -42t6.5 -24.5t20 -15t33.5 -5t57 -1.5q16 0 19 -5t3 -24v-19q0 -16 -3 -21t-17 -5h-345q-7 0 -10.5 0.5 t-5.5 4t-2 6v11.5zM326 333q9 -5 46 -9t62 -4q127 0 195.5 88t68.5 240q0 49 -6.5 91t-23 83t-43 69.5t-70 46t-99.5 17.5h-130v-622z" />
<glyph unicode="&#xdf;" horiz-adv-x="889" d="M138 22v976q0 165 81.5 244.5t214.5 79.5q56 0 104 -14.5t89 -45t64.5 -87t23.5 -132.5q0 -54 -12 -101.5t-28.5 -80.5t-45.5 -67t-50.5 -53.5t-55.5 -47.5q152 -55 222 -136t70 -218q0 -161 -91.5 -250t-259.5 -89h-34q-17 0 -17 13v56q0 12 5 16t18 4h33 q103 0 173.5 63.5t70.5 184.5q0 64 -18.5 111t-61.5 80t-67 45.5t-82 35.5q-7 4 -11 5q-71 30 -71 69q0 38 60 78q29 23 50 44t46 55.5t39 80t14 98.5q0 105 -50 152t-125 47q-88 0 -144 -60.5t-56 -179.5v-978q0 -13 -3 -16.5t-13 -3.5h-62q-13 0 -16.5 4t-3.5 18z" />
<glyph unicode="&#xe0;" horiz-adv-x="815" d="M76 209q0 63 17 108.5t46 70.5t66 40t78.5 21.5t82.5 11.5t78 14t66 24t46 46t17 77q0 81 -50 130.5t-149 49.5q-88 0 -149 -33l-13 -196v-8t-1.5 -4.5t-4 -3t-7.5 -0.5h-44q-7 0 -10.5 2t-4 5t-0.5 11v207q0 25 4 36t16 18q27 19 86.5 33.5t129.5 14.5q158 0 228 -80 t70 -234v-341q0 -91 16 -123t45 -32q40 0 40 45q0 13 1 18.5t6.5 9.5t18.5 4h14q17 0 22 -5.5t5 -20.5q0 -132 -123 -132q-130 0 -142 169q-39 -84 -112.5 -128.5t-172.5 -44.5q-216 0 -216 220zM177 207q0 -72 31.5 -104t96.5 -32q77 0 140 46t95.5 110.5t34.5 129.5l2 114 q-18 -32 -50 -51t-68 -25.5t-76 -11t-76.5 -12.5t-65.5 -24t-46.5 -51t-17.5 -89zM207 1288q-8 11 -6 18.5t13 7.5h71q14 0 20 -4.5t15 -17.5l147 -212q16 -22 -5 -22h-43q-19 0 -41 26z" />
<glyph unicode="&#xe1;" horiz-adv-x="932" d="M82 438q0 97 18.5 176.5t55.5 141t98 95t141 33.5q163 0 234 -141v87q0 20 6 28t22 8h58q29 0 132 -6q14 0 17.5 -4.5t3.5 -19.5v-28q0 -15 -2.5 -19.5t-12.5 -4.5h-90q-37 0 -37 -60v-506q1 -85 16 -114.5t42 -29.5q41 0 41 45q0 22 3.5 27t20.5 5h15q19 0 22.5 -3.5 t3.5 -22.5q0 -132 -123 -132q-121 0 -138 147q-63 -149 -240 -149q-152 0 -229.5 123.5t-77.5 323.5zM182 438q0 -72 13 -135t39 -115t70.5 -82t103.5 -30q107 0 164 98t57 265q0 164 -56 262t-165 98q-75 0 -127.5 -51.5t-75.5 -131t-23 -178.5zM406 1098l121 177 q16 25 37 25h80q11 0 13.5 -8.5t-7.5 -19.5l-162 -185q-10 -13 -32 -13h-43q-12 0 -14 6.5t7 17.5z" />
<glyph unicode="&#xe2;" horiz-adv-x="815" d="M76 209q0 63 17 108.5t46 70.5t66 40t78.5 21.5t82.5 11.5t78 14t66 24t46 46t17 77q0 81 -50 130.5t-149 49.5q-88 0 -149 -33l-13 -196v-8t-1.5 -4.5t-4 -3t-7.5 -0.5h-44q-7 0 -10.5 2t-4 5t-0.5 11v207q0 25 4 36t16 18q27 19 86.5 33.5t129.5 14.5q158 0 228 -80 t70 -234v-341q0 -91 16 -123t45 -32q40 0 40 45q0 13 1 18.5t6.5 9.5t18.5 4h14q17 0 22 -5.5t5 -20.5q0 -132 -123 -132q-130 0 -142 169q-39 -84 -112.5 -128.5t-172.5 -44.5q-216 0 -216 220zM177 207q0 -72 31.5 -104t96.5 -32q77 0 140 46t95.5 110.5t34.5 129.5l2 114 q-18 -32 -50 -51t-68 -25.5t-76 -11t-76.5 -12.5t-65.5 -24t-46.5 -51t-17.5 -89zM201 1078q-7 13 6 30l136 158q17 17 33 17h41q15 0 32 -17l137 -158q13 -20 0 -39q-9 -17 -22 -4l-169 132l-166 -132q-3 -2 -5.5 -3.5t-5 -1t-4 1t-4 3t-3 3.5t-3 5t-3.5 5z" />
<glyph unicode="&#xe3;" horiz-adv-x="815" d="M76 209q0 63 17 108.5t46 70.5t66 40t78.5 21.5t82.5 11.5t78 14t66 24t46 46t17 77q0 81 -50 130.5t-149 49.5q-88 0 -149 -33l-13 -196v-8t-1.5 -4.5t-4 -3t-7.5 -0.5h-44q-7 0 -10.5 2t-4 5t-0.5 11v207q0 25 4 36t16 18q27 19 86.5 33.5t129.5 14.5q158 0 228 -80 t70 -234v-341q0 -91 16 -123t45 -32q40 0 40 45q0 13 1 18.5t6.5 9.5t18.5 4h14q17 0 22 -5.5t5 -20.5q0 -132 -123 -132q-130 0 -142 169q-39 -84 -112.5 -128.5t-172.5 -44.5q-216 0 -216 220zM177 207q0 -72 31.5 -104t96.5 -32q77 0 140 46t95.5 110.5t34.5 129.5l2 114 q-18 -32 -50 -51t-68 -25.5t-76 -11t-76.5 -12.5t-65.5 -24t-46.5 -51t-17.5 -89zM240 1126q43 92 103 92q29 0 55.5 -16t48 -32t39.5 -16q14 0 22.5 10t20.5 37q6 14 15 9l31 -18q8 -4 8.5 -9t-2.5 -14q-39 -95 -101 -95q-37 0 -80 32t-59 32q-13 0 -22 -9.5t-25 -35.5 q-8 -14 -18 -8l-30 17q-14 6 -6 24z" />
<glyph unicode="&#xe4;" horiz-adv-x="815" d="M76 209q0 63 17 108.5t46 70.5t66 40t78.5 21.5t82.5 11.5t78 14t66 24t46 46t17 77q0 81 -50 130.5t-149 49.5q-88 0 -149 -33l-13 -196v-8t-1.5 -4.5t-4 -3t-7.5 -0.5h-44q-7 0 -10.5 2t-4 5t-0.5 11v207q0 25 4 36t16 18q27 19 86.5 33.5t129.5 14.5q158 0 228 -80 t70 -234v-341q0 -91 16 -123t45 -32q40 0 40 45q0 13 1 18.5t6.5 9.5t18.5 4h14q17 0 22 -5.5t5 -20.5q0 -132 -123 -132q-130 0 -142 169q-39 -84 -112.5 -128.5t-172.5 -44.5q-216 0 -216 220zM177 207q0 -72 31.5 -104t96.5 -32q77 0 140 46t95.5 110.5t34.5 129.5l2 114 q-18 -32 -50 -51t-68 -25.5t-76 -11t-76.5 -12.5t-65.5 -24t-46.5 -51t-17.5 -89zM203 1143q0 26 16.5 44.5t43.5 18.5q26 0 42.5 -18.5t16.5 -44.5q0 -28 -16.5 -45.5t-42.5 -17.5q-27 0 -43.5 17.5t-16.5 45.5zM469 1143q0 27 17 45t45 18q26 0 42.5 -18.5t16.5 -44.5 q0 -28 -16.5 -45.5t-44.5 -17.5q-29 0 -44.5 17.5t-15.5 45.5z" />
<glyph unicode="&#xe5;" horiz-adv-x="815" d="M76 209q0 63 17 108.5t46 70.5t66 40t78.5 21.5t82.5 11.5t78 14t66 24t46 46t17 77q0 81 -50 130.5t-149 49.5q-88 0 -149 -33l-13 -196v-8t-1.5 -4.5t-4 -3t-7.5 -0.5h-44q-7 0 -10.5 2t-4 5t-0.5 11v207q0 25 4 36t16 18q27 19 86.5 33.5t129.5 14.5q158 0 228 -80 t70 -234v-341q0 -91 16 -123t45 -32q40 0 40 45q0 13 1 18.5t6.5 9.5t18.5 4h14q17 0 22 -5.5t5 -20.5q0 -132 -123 -132q-130 0 -142 169q-39 -84 -112.5 -128.5t-172.5 -44.5q-216 0 -216 220zM177 207q0 -72 31.5 -104t96.5 -32q77 0 140 46t95.5 110.5t34.5 129.5l2 114 q-18 -32 -50 -51t-68 -25.5t-76 -11t-76.5 -12.5t-65.5 -24t-46.5 -51t-17.5 -89zM225 1199q0 57 40.5 95.5t129.5 38.5t129 -38.5t40 -95.5t-40 -96.5t-129 -39.5t-129.5 39.5t-40.5 96.5zM307 1199q0 -73 88 -73q48 0 68.5 21t20.5 52q0 29 -20.5 50t-68.5 21 q-88 0 -88 -71z" />
<glyph unicode="&#xe6;" horiz-adv-x="1230" d="M76 194q0 42 8.5 76t20.5 57t34.5 41t40.5 28.5t49.5 19.5t51 12.5t54.5 9.5q39 6 62 11.5t53 18t46 30.5t28 49t12 73q0 43 -6.5 72t-24.5 56t-56 40.5t-97 13.5q-92 0 -140 -27l-11 -179q0 -14 -3.5 -17.5t-13.5 -3.5h-41q-10 0 -13 5t-3 16v193q0 25 4 35.5t16 18.5 q25 17 80.5 29t124.5 12q114 0 175.5 -36t86.5 -107q82 143 259 143q133 0 200.5 -66t67.5 -189q0 -54 -14.5 -96.5t-36.5 -71t-60 -49t-74.5 -32t-90 -17.5t-96.5 -7.5t-104 -1.5h-12q12 -160 74 -223.5t167 -63.5q47 0 94 12.5t69 22.5t69 34q11 6 16 1t5 -23v-21 q0 -20 -4 -28t-17 -17q-44 -32 -109.5 -49.5t-132.5 -17.5q-243 0 -307 229q-33 -108 -107.5 -168.5t-180.5 -60.5q-213 0 -213 213zM177 192q0 -127 115 -127q43 0 82.5 18t69 48t51.5 68.5t33.5 80t11.5 81.5v93q-16 -32 -45 -52t-61.5 -28t-69 -14t-69.5 -14.5t-59.5 -24 t-42.5 -48t-16 -81.5zM652 434q53 1 81.5 1.5t76.5 4.5t75 11.5t61 21.5t52 34.5t30.5 51t12.5 70.5q0 56 -21.5 95t-59 57t-87.5 18q-115 0 -168 -90t-53 -275z" />
<glyph unicode="&#xe7;" horiz-adv-x="739" d="M82 421q0 229 88.5 346t253.5 117q122 0 200 -42q13 -7 16.5 -16t3.5 -33v-238q0 -19 -15 -19h-44q-15 0 -15 17l-11 218q-56 30 -125 30q-252 0 -252 -380q0 -104 19 -173.5t57.5 -106.5t86 -52t115.5 -15q46 0 81.5 7.5t98.5 28.5q11 4 16 -2.5t5 -23.5v-32 q0 -13 -4 -19t-17 -11q-75 -28 -189 -31l-25 -75q57 -1 83.5 -34.5t26.5 -84.5q0 -81 -41 -118.5t-106 -37.5q-61 0 -115 20q-10 4 -12.5 8t2.5 20l12 26q5 9 9.5 10.5t10.5 -1.5q33 -14 78 -14q77 0 77 87q0 63 -95 63q-3 0 -12.5 -1t-11 0t-2 7t4.5 19l41 109 q-144 15 -219 113t-75 314z" />
<glyph unicode="&#xe8;" horiz-adv-x="761" d="M84 424q0 460 322 460q133 0 200.5 -66t67.5 -189q0 -54 -14.5 -96.5t-37 -71t-60.5 -49t-74.5 -32t-90 -17.5t-96.5 -7.5t-104 -1.5h-11q12 -160 73.5 -223.5t166.5 -63.5q47 0 94 12.5t70 23t69 33.5q11 6 16 1t5 -23v-21q0 -20 -4 -28t-17 -17q-44 -32 -109.5 -49.5 t-132.5 -17.5q-169 0 -251 110.5t-82 332.5zM184 434q41 0 63.5 0.5t61 3t60.5 6t54 10.5t50.5 16.5t40 24t32.5 33.5t19 44.5t8 56.5q0 84 -45 127t-122 43q-115 0 -168.5 -90t-53.5 -275zM216 1288q-8 11 -6 18.5t13 7.5h71q14 0 20.5 -4.5t15.5 -17.5l147 -212 q16 -22 -6 -22h-43q-19 0 -41 26z" />
<glyph unicode="&#xe9;" horiz-adv-x="761" d="M84 424q0 460 322 460q133 0 200.5 -66t67.5 -189q0 -54 -14.5 -96.5t-37 -71t-60.5 -49t-74.5 -32t-90 -17.5t-96.5 -7.5t-104 -1.5h-11q12 -160 73.5 -223.5t166.5 -63.5q47 0 94 12.5t70 23t69 33.5q11 6 16 1t5 -23v-21q0 -20 -4 -28t-17 -17q-44 -32 -109.5 -49.5 t-132.5 -17.5q-169 0 -251 110.5t-82 332.5zM184 434q41 0 63.5 0.5t61 3t60.5 6t54 10.5t50.5 16.5t40 24t32.5 33.5t19 44.5t8 56.5q0 84 -45 127t-122 43q-115 0 -168.5 -90t-53.5 -275zM352 1098l121 177q16 25 37 25h80q11 0 13.5 -8.5t-7.5 -19.5l-162 -185 q-10 -13 -32 -13h-43q-12 0 -14 6.5t7 17.5z" />
<glyph unicode="&#xea;" horiz-adv-x="761" d="M84 424q0 460 322 460q133 0 200.5 -66t67.5 -189q0 -54 -14.5 -96.5t-37 -71t-60.5 -49t-74.5 -32t-90 -17.5t-96.5 -7.5t-104 -1.5h-11q12 -160 73.5 -223.5t166.5 -63.5q47 0 94 12.5t70 23t69 33.5q11 6 16 1t5 -23v-21q0 -20 -4 -28t-17 -17q-44 -32 -109.5 -49.5 t-132.5 -17.5q-169 0 -251 110.5t-82 332.5zM184 434q41 0 63.5 0.5t61 3t60.5 6t54 10.5t50.5 16.5t40 24t32.5 33.5t19 44.5t8 56.5q0 84 -45 127t-122 43q-115 0 -168.5 -90t-53.5 -275zM209 1078q-8 14 5 30l136 158q17 17 34 17h40q15 0 32 -17l138 -158q13 -20 0 -39 q-9 -17 -22 -4l-170 132l-166 -132q-6 -8 -12 -4.5t-8 6t-7 11.5z" />
<glyph unicode="&#xeb;" horiz-adv-x="761" d="M84 424q0 460 322 460q133 0 200.5 -66t67.5 -189q0 -54 -14.5 -96.5t-37 -71t-60.5 -49t-74.5 -32t-90 -17.5t-96.5 -7.5t-104 -1.5h-11q12 -160 73.5 -223.5t166.5 -63.5q47 0 94 12.5t70 23t69 33.5q11 6 16 1t5 -23v-21q0 -20 -4 -28t-17 -17q-44 -32 -109.5 -49.5 t-132.5 -17.5q-169 0 -251 110.5t-82 332.5zM184 434q41 0 63.5 0.5t61 3t60.5 6t54 10.5t50.5 16.5t40 24t32.5 33.5t19 44.5t8 56.5q0 84 -45 127t-122 43q-115 0 -168.5 -90t-53.5 -275zM210 1143q0 26 16.5 44.5t43.5 18.5q26 0 43 -18.5t17 -44.5q0 -28 -17 -45.5 t-43 -17.5q-27 0 -43.5 17.5t-16.5 45.5zM477 1143q0 27 16.5 45t44.5 18q26 0 43 -18.5t17 -44.5q0 -28 -17 -45.5t-45 -17.5t-43.5 17t-15.5 46z" />
<glyph unicode="&#xec;" horiz-adv-x="463" d="M39 1288q-8 11 -5.5 18.5t13.5 7.5h70q14 0 20.5 -4.5t15.5 -17.5l147 -212q16 -22 -6 -22h-43q-19 0 -41 26zM47 810v24q0 17 3.5 22.5t14.5 5.5q74 4 110 4h73q28 0 28 -34v-603q0 -92 15 -123.5t44 -31.5q39 0 39 45q0 22 3.5 27t22.5 5h15q18 0 21 -3.5t3 -22.5 q0 -132 -121 -132q-141 0 -141 208v525q0 41 -5.5 48.5t-31.5 9.5l-80 2q-9 0 -11 5t-2 19z" />
<glyph unicode="&#xed;" horiz-adv-x="463" d="M47 810v24q0 17 3.5 22.5t14.5 5.5q74 4 110 4h73q28 0 28 -34v-603q0 -92 15 -123.5t44 -31.5q39 0 39 45q0 22 3.5 27t22.5 5h15q18 0 21 -3.5t3 -22.5q0 -132 -121 -132q-141 0 -141 208v525q0 41 -5.5 48.5t-31.5 9.5l-80 2q-9 0 -11 5t-2 19zM175 1098l121 177 q16 25 37 25h80q11 0 13.5 -8.5t-7.5 -19.5l-162 -185q-10 -13 -32 -13h-43q-12 0 -14 6.5t7 17.5z" />
<glyph unicode="&#xee;" horiz-adv-x="463" d="M32 1078q-8 14 5 30l136 158q17 17 34 17h41q14 0 31 -17l138 -158q13 -20 0 -39q-9 -17 -22 -4l-170 132l-165 -132q-13 -6 -17 -3t-11 16zM47 810v24q0 17 3.5 22.5t14.5 5.5q74 4 110 4h73q28 0 28 -34v-603q0 -92 15 -123.5t44 -31.5q39 0 39 45q0 22 3.5 27t22.5 5 h15q18 0 21 -3.5t3 -22.5q0 -132 -121 -132q-141 0 -141 208v525q0 41 -5.5 48.5t-31.5 9.5l-80 2q-9 0 -11 5t-2 19z" />
<glyph unicode="&#xef;" horiz-adv-x="463" d="M34 1143q0 27 16 45t43 18q26 0 43 -18.5t17 -44.5q0 -28 -17 -45.5t-43 -17.5q-27 0 -43 17.5t-16 45.5zM47 810v24q0 17 3.5 22.5t14.5 5.5q74 4 110 4h73q28 0 28 -34v-603q0 -92 15 -123.5t44 -31.5q39 0 39 45q0 22 3.5 27t22.5 5h15q18 0 21 -3.5t3 -22.5 q0 -132 -121 -132q-141 0 -141 208v525q0 41 -5.5 48.5t-31.5 9.5l-80 2q-9 0 -11 5t-2 19zM300 1143q0 27 16.5 45t44.5 18q26 0 43 -18.5t17 -44.5q0 -28 -17 -45.5t-45 -17.5t-43.5 17t-15.5 46z" />
<glyph unicode="&#xf0;" horiz-adv-x="826" d="M84 397q0 80 14.5 149t46.5 129t90 94.5t136 34.5q146 0 236 -149q-15 184 -71 317t-149 199l-63 -151q-7 -11 -15 -3l-52 29q-11 8 -6 17l64 147q-62 24 -127 24h-15q-17 0 -17 25v42q0 21 17 21h15q91 0 162 -28l63 147q6 13 17 6l43 -28q8 -5 10 -9t-1 -14l-58 -137 q147 -87 222 -284.5t75 -462.5q0 -161 -32 -277t-106 -185t-185 -69q-148 0 -231 112t-83 304zM188 404q0 -164 57 -250.5t152 -86.5q110 0 163.5 112t53.5 316v2q-33 114 -87 169t-138 55q-100 0 -150.5 -87t-50.5 -230z" />
<glyph unicode="&#xf1;" horiz-adv-x="919" d="M56 22v26q0 24 15 26q84 0 105.5 10t22.5 59v583q0 58 -37 58l-82 2q-8 0 -9.5 3t-1.5 17v32q0 16 2.5 20t12.5 4q37 1 77 3.5t48 2.5h57q17 0 22.5 -8.5t5.5 -29.5v-149q34 103 101 153t149 50q98 0 146.5 -65t48.5 -206v-384q0 -91 15.5 -123t44.5 -32q39 0 39 45 q0 22 3.5 27t20.5 5h17q18 0 21 -3.5t3 -22.5q0 -73 -32.5 -102.5t-90.5 -29.5q-140 0 -140 208v406q0 106 -29 148t-86 42q-104 0 -165.5 -107t-61.5 -325v-196v-30.5t2 -22.5t4 -17.5t9 -11t13.5 -7.5t21 -3.5t28.5 -2.5h39q16 0 19.5 -5t3.5 -24v-19q0 -16 -3.5 -21 t-15.5 -5h-345q-7 0 -10.5 0.5t-5.5 4t-2 6v11.5zM348 1126q43 92 103 92q37 0 80 -32t63 -32q14 0 22.5 10t20.5 37q6 14 15 9l31 -18q8 -4 8.5 -9t-2.5 -14q-39 -95 -101 -95q-37 0 -80 32t-59 32q-13 0 -22 -9.5t-25 -35.5q-8 -14 -18 -8l-30 17q-14 6 -6 24z" />
<glyph unicode="&#xf2;" horiz-adv-x="830" d="M80 439q0 88 18.5 165t57 141t105 101.5t154.5 37.5q89 0 155.5 -37t104.5 -101.5t56.5 -141.5t18.5 -165t-19 -165.5t-57.5 -142t-105.5 -102.5t-155 -38q-71 0 -128 25t-95 67.5t-63 101t-36 121.5t-11 133zM181 434q0 -99 22 -177.5t76 -130.5t134 -52q81 0 136 52 t78 130.5t23 177.5q0 73 -13.5 136.5t-40.5 116t-73.5 82.5t-107.5 30t-107 -30t-73 -82.5t-40.5 -116t-13.5 -136.5zM225 1288q-8 11 -5.5 18.5t13.5 7.5h70q14 0 20.5 -4.5t15.5 -17.5l147 -212q16 -22 -6 -22h-42q-19 0 -41 26z" />
<glyph unicode="&#xf3;" horiz-adv-x="830" d="M80 439q0 88 18.5 165t57 141t105 101.5t154.5 37.5q89 0 155.5 -37t104.5 -101.5t56.5 -141.5t18.5 -165t-19 -165.5t-57.5 -142t-105.5 -102.5t-155 -38q-71 0 -128 25t-95 67.5t-63 101t-36 121.5t-11 133zM181 434q0 -99 22 -177.5t76 -130.5t134 -52q81 0 136 52 t78 130.5t23 177.5q0 73 -13.5 136.5t-40.5 116t-73.5 82.5t-107.5 30t-107 -30t-73 -82.5t-40.5 -116t-13.5 -136.5zM363 1098l121 177q16 25 37 25h80q11 0 13.5 -8.5t-7.5 -19.5l-162 -185q-10 -13 -32 -13h-42q-12 0 -14.5 6.5t6.5 17.5z" />
<glyph unicode="&#xf4;" horiz-adv-x="830" d="M80 439q0 88 18.5 165t57 141t105 101.5t154.5 37.5q89 0 155.5 -37t104.5 -101.5t56.5 -141.5t18.5 -165t-19 -165.5t-57.5 -142t-105.5 -102.5t-155 -38q-71 0 -128 25t-95 67.5t-63 101t-36 121.5t-11 133zM181 434q0 -99 22 -177.5t76 -130.5t134 -52q81 0 136 52 t78 130.5t23 177.5q0 73 -13.5 136.5t-40.5 116t-73.5 82.5t-107.5 30t-107 -30t-73 -82.5t-40.5 -116t-13.5 -136.5zM220 1078q-7 14 5 30l136 158q17 17 34 17h41q14 0 31 -17l138 -158q13 -20 0 -39q-9 -17 -22 -4l-170 132l-165 -132q-13 -6 -17 -3t-11 16z" />
<glyph unicode="&#xf5;" horiz-adv-x="830" d="M80 439q0 88 18.5 165t57 141t105 101.5t154.5 37.5q89 0 155.5 -37t104.5 -101.5t56.5 -141.5t18.5 -165t-19 -165.5t-57.5 -142t-105.5 -102.5t-155 -38q-71 0 -128 25t-95 67.5t-63 101t-36 121.5t-11 133zM181 434q0 -99 22 -177.5t76 -130.5t134 -52q81 0 136 52 t78 130.5t23 177.5q0 73 -13.5 136.5t-40.5 116t-73.5 82.5t-107.5 30t-107 -30t-73 -82.5t-40.5 -116t-13.5 -136.5zM259 1126q22 47 45.5 69.5t56.5 22.5q29 0 55.5 -16t48.5 -32t40 -16q14 0 22 9.5t20 37.5q6 14 15 9l32 -18q8 -4 8.5 -9t-2.5 -14q-39 -95 -101 -95 q-37 0 -80.5 32t-59.5 32q-13 0 -21.5 -9t-24.5 -36q-8 -14 -19 -8l-30 17q-13 6 -5 24z" />
<glyph unicode="&#xf6;" horiz-adv-x="830" d="M80 439q0 88 18.5 165t57 141t105 101.5t154.5 37.5q89 0 155.5 -37t104.5 -101.5t56.5 -141.5t18.5 -165t-19 -165.5t-57.5 -142t-105.5 -102.5t-155 -38q-71 0 -128 25t-95 67.5t-63 101t-36 121.5t-11 133zM181 434q0 -99 22 -177.5t76 -130.5t134 -52q81 0 136 52 t78 130.5t23 177.5q0 73 -13.5 136.5t-40.5 116t-73.5 82.5t-107.5 30t-107 -30t-73 -82.5t-40.5 -116t-13.5 -136.5zM222 1143q0 27 16 45t43 18q26 0 43 -18.5t17 -44.5q0 -28 -17 -45.5t-43 -17.5q-27 0 -43 17.5t-16 45.5zM488 1143q0 27 16.5 45t44.5 18q26 0 43 -18.5 t17 -44.5q0 -28 -17 -45.5t-45 -17.5t-43.5 17t-15.5 46z" />
<glyph unicode="&#xf7;" horiz-adv-x="986" d="M121 415v95h747v-95h-747zM411 141q0 27 21 46.5t54 19.5q34 0 55 -19.5t21 -46.5t-21 -47t-55 -20q-33 0 -54 20t-21 47zM411 775q0 30 21 48.5t54 18.5t54.5 -18.5t21.5 -48.5q0 -26 -22 -45t-54 -19t-53.5 19t-21.5 45z" />
<glyph unicode="&#xf8;" horiz-adv-x="830" d="M80 439q0 88 18.5 165t57 141t105 101.5t154.5 37.5q65 0 112 -18l54 152q8 17 15 17h61q12 0 6 -20l-65 -186q78 -57 115 -160.5t37 -229.5q0 -88 -19 -165.5t-57.5 -142t-105.5 -102.5t-155 -38q-44 0 -100 13l-49 -138q-4 -13 -18 -13h-60q-12 0 -5 13l59 173 q-82 55 -121 162t-39 238zM181 434q0 -208 91 -302l225 648q-41 19 -82 19q-61 0 -107 -30t-73 -82.5t-40.5 -116t-13.5 -136.5zM341 86q38 -12 72 -12q81 0 136 52t78 130.5t23 177.5q0 197 -86 296z" />
<glyph unicode="&#xf9;" horiz-adv-x="901" d="M34 812v24q0 16 3.5 21t14.5 5q49 1 66.5 2.5t43.5 1.5h74q16 0 21.5 -8.5t5.5 -28.5v-539q0 -129 32 -174t103 -45q103 0 159 75t59 252v345q-5 43 -37 43l-82 2q-8 0 -9.5 5t-1.5 19v24q0 16 4.5 21t14.5 5q49 1 66 2.5t43 1.5h75q14 0 19 -8t5 -29v-617 q1 -80 17.5 -109t44.5 -29q39 0 39 45q0 22 3.5 27t22.5 5h13q19 0 22.5 -3.5t3.5 -22.5q0 -132 -121 -132q-57 0 -92 33t-46 110q-69 -149 -236 -149q-114 0 -166 71t-52 236v441q0 51 -38 51l-83 2q-8 0 -9.5 5t-1.5 19zM223 1288q-8 11 -5.5 18.5t13.5 7.5h71 q14 0 20 -4.5t15 -17.5l147 -212q16 -22 -6 -22h-42q-19 0 -41 26z" />
<glyph unicode="&#xfa;" horiz-adv-x="901" d="M34 812v24q0 16 3.5 21t14.5 5q49 1 66.5 2.5t43.5 1.5h74q16 0 21.5 -8.5t5.5 -28.5v-539q0 -129 32 -174t103 -45q103 0 159 75t59 252v345q-5 43 -37 43l-82 2q-8 0 -9.5 5t-1.5 19v24q0 16 4.5 21t14.5 5q49 1 66 2.5t43 1.5h75q14 0 19 -8t5 -29v-617 q1 -80 17.5 -109t44.5 -29q39 0 39 45q0 22 3.5 27t22.5 5h13q19 0 22.5 -3.5t3.5 -22.5q0 -132 -121 -132q-57 0 -92 33t-46 110q-69 -149 -236 -149q-114 0 -166 71t-52 236v441q0 51 -38 51l-83 2q-8 0 -9.5 5t-1.5 19zM359 1098l121 177q16 25 38 25h80q11 0 13 -8.5 t-8 -19.5l-162 -185q-10 -13 -31 -13h-43q-12 0 -14.5 6.5t6.5 17.5z" />
<glyph unicode="&#xfb;" horiz-adv-x="901" d="M34 812v24q0 16 3.5 21t14.5 5q49 1 66.5 2.5t43.5 1.5h74q16 0 21.5 -8.5t5.5 -28.5v-539q0 -129 32 -174t103 -45q103 0 159 75t59 252v345q-5 43 -37 43l-82 2q-8 0 -9.5 5t-1.5 19v24q0 16 4.5 21t14.5 5q49 1 66 2.5t43 1.5h75q14 0 19 -8t5 -29v-617 q1 -80 17.5 -109t44.5 -29q39 0 39 45q0 22 3.5 27t22.5 5h13q19 0 22.5 -3.5t3.5 -22.5q0 -132 -121 -132q-57 0 -92 33t-46 110q-69 -149 -236 -149q-114 0 -166 71t-52 236v441q0 51 -38 51l-83 2q-8 0 -9.5 5t-1.5 19zM216 1078q-7 13 6 30l135 158q17 17 34 17h41 q15 0 32 -17l137 -158q13 -20 0 -39q-9 -17 -22 -4l-169 132l-166 -132q-3 -2 -5.5 -3.5t-5 -1t-4 1t-4 3t-3 3.5t-3 5t-3.5 5z" />
<glyph unicode="&#xfc;" horiz-adv-x="901" d="M34 812v24q0 16 3.5 21t14.5 5q49 1 66.5 2.5t43.5 1.5h74q16 0 21.5 -8.5t5.5 -28.5v-539q0 -129 32 -174t103 -45q103 0 159 75t59 252v345q-5 43 -37 43l-82 2q-8 0 -9.5 5t-1.5 19v24q0 16 4.5 21t14.5 5q49 1 66 2.5t43 1.5h75q14 0 19 -8t5 -29v-617 q1 -80 17.5 -109t44.5 -29q39 0 39 45q0 22 3.5 27t22.5 5h13q19 0 22.5 -3.5t3.5 -22.5q0 -132 -121 -132q-57 0 -92 33t-46 110q-69 -149 -236 -149q-114 0 -166 71t-52 236v441q0 51 -38 51l-83 2q-8 0 -9.5 5t-1.5 19zM218 1143q0 27 16 45t43 18q26 0 43 -18.5 t17 -44.5q0 -28 -17 -45.5t-43 -17.5q-27 0 -43 17.5t-16 45.5zM484 1143q0 27 17 45t45 18q26 0 42.5 -18.5t16.5 -44.5q0 -28 -16.5 -45.5t-44.5 -17.5q-29 0 -44.5 17.5t-15.5 45.5z" />
<glyph unicode="&#xfd;" horiz-adv-x="843" d="M47 802v51q0 9 3 11t10 2h294q9 0 9 -13v-49q0 -15 -11 -15q-36 -1 -55 -2t-28 -4.5t-10 -6.5t0 -11q1 -136 58 -342.5t106 -320.5q96 272 188 652q0 11 2.5 17.5t-8.5 10.5t-27.5 5t-54.5 2q-9 0 -12 3t-3 12v47q0 15 15 15h278q6 0 8.5 -0.5t4 -3.5t1.5 -4.5v-8.5v-45 q0 -15 -13 -15q-66 -1 -80.5 -8t-21.5 -38q-121 -535 -344 -1056q-14 -27 -31 -41t-30.5 -17t-35.5 -3h-101q-14 0 -16 2t-2 15v39v3q0 7 2 9.5t13 3.5q87 10 100 16q18 7 30 33l100 253q-11 0 -18 15q-58 117 -131.5 348.5t-77.5 399.5q0 16 -16 20t-84 6q-8 0 -9.5 2.5 t-1.5 10.5zM387 1098l121 177q16 25 38 25h80q11 0 13 -8.5t-8 -19.5l-162 -185q-10 -13 -31 -13h-43q-12 0 -14.5 6.5t6.5 17.5z" />
<glyph unicode="&#xfe;" horiz-adv-x="854" d="M-2 -305q0 15 2 20t13 6q34 0 51 0.5t33.5 4.5t22 8t10.5 16.5t5.5 25t0.5 38.5v1350q0 57 -37 57l-80 2q-12 0 -12 21v31q0 16 2.5 20.5t12.5 4.5q34 1 74.5 3t50.5 2h58q17 0 22.5 -8t5.5 -29v-590q31 99 99 152.5t150 53.5q142 0 216.5 -124.5t74.5 -325.5 q0 -202 -74.5 -327.5t-223.5 -125.5q-77 0 -145 43t-94 127v-335q0 -68 18 -81.5t105 -13.5q16 0 19.5 -5.5t3.5 -24.5v-19q0 -16 -3.5 -21t-17.5 -5h-344q-14 0 -16.5 4t-2.5 19v26zM240 406q0 -155 54.5 -248t161.5 -93q111 0 162.5 98.5t51.5 266.5q0 166 -50.5 266.5 t-157.5 100.5q-108 0 -165 -106.5t-57 -284.5z" />
<glyph unicode="&#xff;" horiz-adv-x="843" d="M47 802v51q0 9 3 11t10 2h294q9 0 9 -13v-49q0 -15 -11 -15q-36 -1 -55 -2t-28 -4.5t-10 -6.5t0 -11q1 -136 58 -342.5t106 -320.5q96 272 188 652q0 11 2.5 17.5t-8.5 10.5t-27.5 5t-54.5 2q-9 0 -12 3t-3 12v47q0 15 15 15h278q6 0 8.5 -0.5t4 -3.5t1.5 -4.5v-8.5v-45 q0 -15 -13 -15q-66 -1 -80.5 -8t-21.5 -38q-121 -535 -344 -1056q-14 -27 -31 -41t-30.5 -17t-35.5 -3h-101q-14 0 -16 2t-2 15v39v3q0 7 2 9.5t13 3.5q87 10 100 16q18 7 30 33l100 253q-11 0 -18 15q-58 117 -131.5 348.5t-77.5 399.5q0 16 -16 20t-84 6q-8 0 -9.5 2.5 t-1.5 10.5zM244 1143q0 27 16 45t43 18q26 0 43 -18.5t17 -44.5q0 -28 -17 -45.5t-43 -17.5q-27 0 -43 17.5t-16 45.5zM510 1143q0 27 17 45t45 18q26 0 42.5 -18.5t16.5 -44.5q0 -28 -16.5 -45.5t-44.5 -17.5q-29 0 -44.5 17.5t-15.5 45.5z" />
<glyph unicode="&#x152;" horiz-adv-x="1733" d="M97 652q0 146 31 267.5t90.5 211.5t154 140.5t215.5 50.5q142 0 246 -69t166 -194q8 74 36 126.5t73 81.5t99 42t121 13q155 0 259 -43q7 -2 11 -4t7 -4.5t4 -4t2 -5.5t0.5 -6.5t-0.5 -9v-11.5v-244q0 -16 -2 -19t-14 -3h-40q-10 0 -12 3t-4 16l-17 219q-77 27 -190 27 q-115 0 -177.5 -52t-62.5 -185q0 -266 262 -266h108q17 0 17 -26v-36q0 -26 -17 -26h-108q-299 0 -299 -299q0 -143 69.5 -206.5t216.5 -63.5q30 0 62.5 2.5t61 6t54.5 8t49 9.5t38.5 9t28.5 7.5t14 3.5q9 1 11.5 -2t2.5 -16v-54q0 -11 -5 -15.5t-17 -9.5q-125 -41 -316 -41 q-68 0 -122 9t-102.5 31t-83 63t-52.5 100q-131 -203 -378 -203q-161 0 -273 88t-165 237t-53 346zM205 655q0 -271 101.5 -426.5t281.5 -155.5t284 155.5t104 426.5q0 269 -104 422.5t-284 153.5t-281.5 -153t-101.5 -423zM1078 741q4 -60 4 -89v-8q39 24 102 41 q-62 15 -106 56z" />
<glyph unicode="&#x153;" horiz-adv-x="1329" d="M80 439q0 88 18.5 165t57 141t105 101.5t154.5 37.5q196 0 281 -177q75 177 276 177q133 0 200.5 -66t67.5 -189q0 -54 -14.5 -96.5t-37 -71t-60.5 -49t-74.5 -32t-90 -17.5t-96.5 -7.5t-104 -1.5h-11q12 -160 73.5 -223.5t166.5 -63.5q47 0 94 12.5t70 23t69 33.5 q11 6 16 1t5 -23v-21q0 -20 -4 -28t-17 -17q-44 -32 -109.5 -49.5t-132.5 -17.5q-214 0 -290 183q-88 -173 -280 -173q-71 0 -128 25t-95 67.5t-63 101t-36 121.5t-11 133zM181 434q0 -99 22 -177.5t76 -130.5t134 -52q81 0 136 52t78 130.5t23 177.5q0 73 -13.5 136.5 t-40.5 116t-73.5 82.5t-107.5 30t-107 -30t-73 -82.5t-40.5 -116t-13.5 -136.5zM750 434q41 0 63.5 0.5t61 3t60.5 6t54 10.5t50.5 16.5t40 24t32.5 33.5t19 44.5t8 56.5q0 84 -45 127t-122 43q-114 0 -168 -89t-54 -271v-5z" />
<glyph unicode="&#x178;" horiz-adv-x="1014" d="M34 1249v36q0 11 3 14.5t11 3.5h326q15 0 15 -16v-36q0 -22 -17 -22q-64 0 -86 -4.5t-22 -19.5q0 -96 20 -185t60 -168.5t76 -135.5t90 -128q55 74 91 128.5t77 135t61.5 169t20.5 184.5q0 15 -22 19.5t-86 4.5q-15 0 -15 22v36q0 16 13 16h316q9 0 12 -3.5t3 -14.5v-36 q0 -9 -0.5 -12.5t-4 -5.5t-10.5 -2q-64 0 -88.5 -6t-26.5 -20q-2 -108 -27.5 -209t-72 -190.5t-89.5 -154.5t-105 -144v-336q0 -27 0.5 -39t5 -25.5t9.5 -17.5t21.5 -8t33 -4.5t49.5 -0.5q16 0 19 -5t3 -24v-19q0 -16 -3 -21t-17 -5h-345q-7 0 -10.5 0.5t-5.5 4t-2 6v11.5 v26q0 10 0.5 14t4 7.5t10.5 4.5q86 0 106.5 10.5t21.5 60.5v352q-50 65 -83.5 113.5t-76.5 123t-69 141t-45 153.5t-20 175q0 14 -25 19t-91 7q-11 1 -12.5 4.5t-1.5 15.5zM322 1447q0 26 16.5 44.5t43.5 18.5q26 0 42.5 -18.5t16.5 -44.5q0 -28 -16.5 -46t-42.5 -18 q-27 0 -43.5 18t-16.5 46zM588 1447q0 27 17 45t45 18q26 0 42.5 -18.5t16.5 -44.5q0 -28 -17 -46t-44 -18q-28 0 -44 17.5t-16 46.5z" />
<glyph unicode="&#x2c6;" horiz-adv-x="545" d="M80 1381q-7 13 6 30l136 159q16 16 33 16h41q16 0 32 -16l137 -159q13 -20 0 -39q-9 -17 -22 -4l-169 133l-166 -133q-3 -2 -5.5 -3.5t-5 -1t-4 1t-4 3t-3 3.5t-3 5t-3.5 5z" />
<glyph unicode="&#x2dc;" horiz-adv-x="536" d="M110 1428q42 91 102 91q38 0 81 -31.5t63 -31.5q14 0 22 9.5t20 36.5q7 15 15 10l32 -19q8 -4 8.5 -8t-2.5 -14q-39 -95 -101 -95q-37 0 -80.5 31.5t-59.5 31.5q-13 0 -21.5 -9t-24.5 -35q-8 -14 -19 -8l-30 17q-13 6 -5 24z" />
<glyph unicode="&#x2000;" horiz-adv-x="825" />
<glyph unicode="&#x2001;" horiz-adv-x="1651" />
<glyph unicode="&#x2002;" horiz-adv-x="825" />
<glyph unicode="&#x2003;" horiz-adv-x="1651" />
<glyph unicode="&#x2004;" horiz-adv-x="550" />
<glyph unicode="&#x2005;" horiz-adv-x="412" />
<glyph unicode="&#x2006;" horiz-adv-x="275" />
<glyph unicode="&#x2007;" horiz-adv-x="275" />
<glyph unicode="&#x2008;" horiz-adv-x="206" />
<glyph unicode="&#x2009;" horiz-adv-x="330" />
<glyph unicode="&#x200a;" horiz-adv-x="91" />
<glyph unicode="&#x2010;" horiz-adv-x="750" d="M117 519v51q0 15 15 15h490q11 0 11 -17v-45q0 -20 -15 -20h-486q-15 0 -15 16z" />
<glyph unicode="&#x2011;" horiz-adv-x="750" d="M117 519v51q0 15 15 15h490q11 0 11 -17v-45q0 -20 -15 -20h-486q-15 0 -15 16z" />
<glyph unicode="&#x2012;" horiz-adv-x="750" d="M117 519v51q0 15 15 15h490q11 0 11 -17v-45q0 -20 -15 -20h-486q-15 0 -15 16z" />
<glyph unicode="&#x2013;" horiz-adv-x="1016" d="M117 506v67q0 13 11 13h758q7 0 8.5 -2.5t1.5 -11.5v-60q0 -11 -2 -14t-10 -3h-756q-7 0 -9 2t-2 9z" />
<glyph unicode="&#x2014;" horiz-adv-x="1359" d="M117 506v67q0 13 11 13h1099q13 0 13 -14v-60q0 -11 -2.5 -14t-12.5 -3h-1097q-7 0 -9 2t-2 9z" />
<glyph unicode="&#x2018;" horiz-adv-x="357" d="M97 987l93 314q7 21 24 21h45q19 0 13 -21l-75 -325q-3 -11 -4 -14.5t-4.5 -8.5t-8 -6t-12.5 -1h-54q-18 0 -21 11t4 30z" />
<glyph unicode="&#x2019;" horiz-adv-x="357" d="M99 966l74 326q4 13 6 18t7.5 8.5t16.5 3.5h54q18 0 21 -11t-4 -30l-93 -315q-6 -20 -25 -20h-44q-18 0 -13 20z" />
<glyph unicode="&#x201a;" horiz-adv-x="331" d="M52 -197l75 325q3 11 4 14.5t4.5 8.5t8 6t12.5 1h54q18 0 21 -11t-4 -30l-93 -314q-7 -21 -24 -21h-45q-19 0 -13 21z" />
<glyph unicode="&#x201c;" horiz-adv-x="558" d="M97 987l93 314q7 21 24 21h45q19 0 13 -21l-75 -325q-3 -11 -4 -14.5t-4.5 -8.5t-8 -6t-12.5 -1h-54q-18 0 -21 11t4 30zM296 987l93 314q7 21 24 21h45q19 0 13 -21l-74 -325q-4 -13 -6 -18t-7.5 -8.5t-16.5 -3.5h-54q-18 0 -21 11t4 30z" />
<glyph unicode="&#x201d;" horiz-adv-x="558" d="M99 966l74 326q4 13 6 18t7.5 8.5t16.5 3.5h54q18 0 21 -11t-4 -30l-93 -315q-6 -20 -25 -20h-44q-18 0 -13 20zM298 966l74 326q4 13 6 18t7.5 8.5t16.5 3.5h54q18 0 21 -11t-4 -30l-93 -315q-6 -20 -24 -20h-45q-18 0 -13 20z" />
<glyph unicode="&#x201e;" horiz-adv-x="567" d="M52 -197l75 325q3 11 4 14.5t4.5 8.5t8 6t12.5 1h54q18 0 21 -11t-4 -30l-93 -314q-7 -21 -24 -21h-45q-19 0 -13 21zM289 -197l74 325q4 13 6 18t7.5 8.5t16.5 3.5h54q18 0 21 -11t-4 -30l-93 -314q-7 -21 -25 -21h-44q-19 0 -13 21z" />
<glyph unicode="&#x2022;" horiz-adv-x="478" d="M155 456q0 29 23.5 48t59.5 19t61 -19t25 -48q0 -27 -25.5 -47t-60.5 -20t-59 20t-24 47z" />
<glyph unicode="&#x2026;" horiz-adv-x="1223" d="M110 52q0 26 21 44t50 18t49.5 -18t20.5 -44q0 -30 -20 -46.5t-50 -16.5q-31 0 -51 16.5t-20 46.5zM540 52q0 26 21 44t50 18q28 0 49 -18t21 -44q0 -28 -20.5 -45.5t-49.5 -17.5q-30 0 -50.5 17.5t-20.5 45.5zM970 52q0 26 20.5 44t48.5 18q29 0 50 -18t21 -44 q0 -30 -20 -46.5t-51 -16.5q-29 0 -49 16.5t-20 46.5z" />
<glyph unicode="&#x202f;" horiz-adv-x="330" />
<glyph unicode="&#x2039;" horiz-adv-x="526" d="M67 493l302 399q12 20 22 13l45 -34q5 -4 4.5 -9t-10.5 -19l-262 -366l258 -360q15 -18 16.5 -22t-3.5 -9l-46 -34q-8 -5 -13 -2.5t-13 15.5l-298 387q-12 15 -12.5 21.5t10.5 19.5z" />
<glyph unicode="&#x203a;" horiz-adv-x="526" d="M88 86q-3 6 -2 8.5t15 22.5l260 360l-262 366q-11 14 -12.5 19t4.5 9l45 34q7 4 11 1.5t13 -14.5l302 -399q9 -13 8.5 -19.5t-10.5 -21.5l-298 -387q-10 -13 -14.5 -15.5t-13.5 2.5z" />
<glyph unicode="&#x205f;" horiz-adv-x="412" />
<glyph unicode="&#x20ac;" horiz-adv-x="1182" d="M76 447l34 52q11 17 24 17h117q-3 42 -3 89h-164q-21 0 -8 13l34 54q10 15 24 15h114q10 315 139.5 475t359.5 160q177 0 283 -37q16 -7 20 -14t4 -33v-288q0 -15 -3.5 -19t-13.5 -4h-48q-12 0 -15.5 3.5t-5.5 15.5l-17 262q-90 26 -203 26q-178 0 -282 -137.5 t-114 -409.5h514q22 0 7 -20l-43 -49q-17 -13 -26 -13h-452q0 -33 4 -89h398q25 0 7 -21l-40 -48q-12 -15 -28 -15h-326q31 -185 128 -269.5t257 -84.5q118 0 304 43q11 4 16.5 0.5t5.5 -17.5v-33q0 -22 -5.5 -29t-24.5 -12q-168 -43 -307 -43q-207 0 -326 106t-154 339 h-177q-23 0 -8 15z" />
<glyph unicode="&#x2122;" horiz-adv-x="1401" d="M127 1098v192q0 9 2.5 11t8.5 2h391q4 0 5.5 -0.5t2.5 -3.5t1 -9v-192q0 -14 -9 -14h-37q-10 0 -10 14l-5 110q0 21 -15 21h-88v-590q0 -39 7.5 -48t44.5 -10q8 0 10 -3.5t2 -15.5v-26q0 -15 -10 -15h-195q-10 0 -10 13v30q0 17 8 17q38 2 49 8t12 31v609h-89 q-12 0 -15 -21l-4 -111q-4 -13 -11 -13h-37q-9 0 -9 14zM575 1260v30q0 13 10 13h160q5 0 9 -1.5t6 -3t4 -6t2.5 -7.5t2 -11.5t2.5 -13.5q15 -100 68 -318.5t88 -327.5h2q29 95 69 301t63 345q1 5 2.5 15.5t2.5 13t4 7.5t8 6t13 1h160q6 0 7.5 -2t1.5 -11v-30q0 -16 -9 -16 q-41 -3 -51 -10.5t-10 -36.5v-551q0 -67 37 -67q32 0 32 48v6q0 6 5 6h30q4 0 4 -6v-6q0 -117 -88 -117q-102 0 -102 142v502q-22 -143 -69.5 -346.5t-74.5 -273.5q-5 -13 -16 -13h-56q-14 0 -19 13q-33 83 -83.5 267.5t-80.5 336.5v-505q0 -35 8 -42.5t41 -9.5q9 0 11 -3.5 t2 -15.5v-26q0 -9 -1.5 -12t-9.5 -3h-172q-6 0 -7.5 2t-1.5 11v30q0 17 11 17q33 3 41.5 11.5t8.5 42.5v562q0 29 -10 37.5t-47 9.5q-8 0 -8 13v1.5v1.5z" />
<glyph unicode="&#xe000;" horiz-adv-x="865" d="M0 0v866h866v-866h-866z" />
</font>
</defs>
</svg>
