<?xml version="1.0" standalone="no"?>
<!DOCTYPE svg PUBLIC "-//W3C//DTD SVG 1.1//EN" "http://www.w3.org/Graphics/SVG/1.1/DTD/svg11.dtd" >
<svg xmlns="http://www.w3.org/2000/svg">
<metadata></metadata>
<defs>
<font id="quatie_cond_light_itacondLtIt" horiz-adv-x="1176" >
<font-face units-per-em="2048" ascent="1629" descent="-419" />
<missing-glyph horiz-adv-x="323" />
<glyph unicode="&#xfb01;" horiz-adv-x="873" d="M6 22l5 25q3 16 6.5 21t14.5 5q26 1 37 1t27.5 3t21.5 3.5t14 7.5t11 11t7.5 17t7 22t6.5 30l130 620h-110q-12 0 -9 16l9 45q6 17 17 17h110l30 134q36 171 118 246.5t213 75.5q60 0 113 -16t77 -33q18 -15 11 -54l-37 -173q-5 -18 -19 -18h-44q-7 0 -9 2.5t-1 13.5 l23 161q-53 33 -131 33q-86 0 -139 -59t-82 -196l-26 -117h368q24 0 19 -30l-78 -365h-2l-26 -121h2l-26 -123q-16 -64 -13 -98t12.5 -44.5t29.5 -10.5q36 0 49 43q5 24 9 29t19 5h24q13 0 15 -4.5t-2 -23.5q-16 -72 -50 -101t-88 -29q-68 0 -100 48.5t-8 159.5l118 546 q3 27 -17 34t-97 7h-175l-138 -648q-8 -46 14.5 -55.5t123.5 -11.5q9 0 13.5 -2.5t5 -8t0 -9.5t-3.5 -13.5t-4 -13.5q0 -2 -1 -6t-1 -5.5t-1 -4t-1.5 -3.5t-1.5 -2.5t-2.5 -2t-3.5 -1.5t-4.5 -1h-5.5h-360q-14 0 -16 4t2 18z" />
<glyph unicode="&#xfb02;" horiz-adv-x="895" d="M-4 22l6 25q5 26 20 26q36 1 52 1.5t35 4.5t25 8t14.5 16.5t11.5 25.5l9 39l131 620h-110q-16 0 -13 16l9 45q6 17 21 17h108l29 139q33 156 122 236.5t223 80.5q57 0 102 -13t105 -50q9 -5 10.5 -11t-1.5 -17l-214 -1004q-16 -64 -12.5 -98t13.5 -44.5t29 -10.5 q37 0 48 43q5 24 9 29t19 5h24q13 0 16 -4.5t-1 -23.5q-16 -72 -50.5 -101t-89.5 -29q-68 0 -100 48.5t-8 159.5l125 587h-318l-134 -637q-12 -54 4 -65t98 -13q9 0 13.5 -2.5t5 -8t0 -9.5t-3.5 -13.5t-4 -13.5q0 -2 -1 -6t-1 -5.5t-1 -4t-1.5 -3.5t-1.5 -2.5t-2.5 -2 t-3.5 -1.5t-4.5 -1h-5.5h-341q-14 0 -16 4t1 18zM411 866h319l71 329q-35 23 -62.5 32t-68.5 9q-102 0 -153 -59.5t-85 -219.5z" />
<glyph unicode="&#xfb03;" horiz-adv-x="1290" d="M-4 22l6 25q5 26 20 26q88 3 107 12q22 10 33 54q3 11 7 29l131 620h-110q-16 0 -13 16l9 45q6 17 21 17h110l14 65q35 170 119.5 241.5t210.5 71.5q101 0 173 -45q85 123 255 123q61 0 114.5 -16t75.5 -33q17 -14 9 -54l-37 -173q-3 -11 -6.5 -14.5t-11.5 -3.5h-45 q-3 0 -4.5 0.5t-3.5 2t-1.5 4.5t0.5 9l22 161q-50 33 -129 33q-86 0 -139 -59t-82 -196l-26 -117h368q24 0 19 -30l-78 -365h-2l-32 -147h-2l-20 -97q-16 -64 -12.5 -98t13.5 -44.5t29 -10.5q37 0 48 43q5 24 9 29t19 5h24q13 0 16 -4.5t-1 -23.5q-16 -72 -50.5 -101 t-88.5 -29q-67 0 -99 48t-8 160l120 553q1 23 -19.5 28.5t-94.5 5.5h-175l-130 -619q-6 -27 -8.5 -39.5t1.5 -26t8.5 -17t25.5 -8t40 -4.5t63 -1q9 0 13.5 -2.5t5 -8t0 -9.5t-3.5 -13.5t-4 -13.5q0 -2 -1 -6t-1 -5.5t-1 -4t-1.5 -3.5t-1.5 -2.5t-2.5 -2t-3.5 -1.5t-4.5 -1 h-5.5h-361q-12 0 -14 4t1 18l5 25q5 26 21 26q78 3 96.5 12t29.5 55h-2l138 648h-316l-131 -619q-6 -27 -8.5 -39.5t0.5 -25.5t6.5 -17.5t20 -8.5t31 -4t49.5 -1q9 0 13.5 -2.5t5 -8t0 -9.5t-3.5 -13.5t-4 -13.5q0 -2 -1 -6t-1 -5.5t-1 -4t-1.5 -3.5t-1.5 -2.5t-2.5 -2 t-3.5 -1.5t-4.5 -1h-5.5h-341q-14 0 -16 4t1 18zM411 866h317l30 134q14 70 33 121q-54 37 -138 37q-92 0 -146 -51t-81 -178z" />
<glyph unicode="&#xfb04;" horiz-adv-x="1310" d="M-6 22l6 25q5 26 20 26h1h1h1h1h1h1h1h1q83 3 102 13q21 11 33 60l5 22l130 620h-110q-16 0 -13 16l9 45q6 17 21 17h110l15 65q34 161 113 227.5t201 66.5q112 0 185 -50q91 147 273 147q58 0 102.5 -12.5t106.5 -50.5q14 -9 9 -28l-214 -1004q-16 -64 -12.5 -98 t13 -44.5t29.5 -10.5q35 0 46 43q5 24 9.5 29t18.5 5h26q13 0 16 -4.5t-1 -23.5q-16 -72 -50.5 -101t-88.5 -29q-68 0 -100 48.5t-8 159.5l124 587h-318l-134 -637q-5 -20 -6.5 -31.5t2 -21t8 -13.5t20.5 -7t31 -3.5t47 -1.5q9 0 13.5 -2.5t5 -8t0 -9.5t-3.5 -13.5t-4 -13.5 q0 -2 -1 -6t-1 -5.5t-1 -4t-1.5 -3.5t-1.5 -2.5t-2.5 -2t-3.5 -1.5t-4.5 -1h-5.5h-343q-13 0 -15 4t1 18l5 25q5 26 21 26q36 1 52.5 1.5t35.5 4.5t25.5 8t15 16.5t11.5 25.5l9 39l130 620h-322l-130 -619q-6 -27 -8.5 -39.5t0 -26t6 -17t20 -8t31.5 -4.5t49 -1 q9 0 13.5 -2.5t5 -8t0 -9.5t-3.5 -13.5t-4 -13.5q0 -2 -1 -6t-1 -5.5t-1 -4t-1.5 -3.5t-1.5 -2.5t-2.5 -2t-3.5 -1.5t-4.5 -1h-5.5h-341q-14 0 -16 4t1 18zM410 866h322l29 139q11 48 27 90q-65 44 -151 44q-88 0 -138 -46.5t-75 -163.5zM827 866h318l71 329 q-36 23 -63.5 32t-67.5 9q-102 0 -153 -59.5t-85 -219.5z" />
<glyph horiz-adv-x="2048" />
<glyph horiz-adv-x="2048" />
<glyph unicode="&#xd;" horiz-adv-x="2048" />
<glyph unicode=" "  horiz-adv-x="323" />
<glyph unicode="&#x09;" horiz-adv-x="323" />
<glyph unicode="&#xa0;" horiz-adv-x="323" />
<glyph unicode="!" horiz-adv-x="404" d="M82 63q5 30 28.5 51.5t53.5 21.5q26 0 41.5 -22t10.5 -51q-8 -34 -32 -54t-52 -20q-31 0 -44.5 19t-5.5 55zM153 287l216 1048q4 17 15 17h72q11 0 13 -4.5t-2 -14.5l-231 -1048q-3 -13 -7.5 -16t-14.5 -3h-52q-12 0 -9 21z" />
<glyph unicode="&#x22;" horiz-adv-x="510" d="M240 875l90 417q3 13 13 13h80q5 0 6 -2.5t-1 -10.5l-89 -417q0 -11 -15 -11h-73q-8 0 -10.5 2t-0.5 9zM408 875l89 417q3 13 11 13h82q4 0 5.5 -1t1.5 -4t-1 -8l-90 -417q0 -11 -14 -11h-73q-9 0 -11 2t0 9z" />
<glyph unicode="#" horiz-adv-x="1115" d="M106 426l19 90h238l115 301h-232l18 90h252l152 406h86l-151 -406h237l150 406h88l-149 -406h229l-19 -90h-249l-114 -301h237l-19 -90h-257l-160 -426h-85l160 426h-237l-160 -426h-84l157 426h-222zM451 516h236l115 301h-236z" />
<glyph unicode="$" horiz-adv-x="886" d="M50 78l54 253q3 13 8.5 18t19.5 5h37q19 0 13 -23l-35 -227q89 -35 227 -35q34 0 67 5t76 22t77 45.5t64.5 80.5t45.5 122q8 39 10 72.5t-7 61t-14 47t-28.5 40t-32 30t-42.5 26t-42.5 20.5t-47.5 20t-59 25t-53.5 28.5t-50 36.5t-37 46.5t-27 63t-6.5 80.5t12 103 q14 67 40.5 117t60 80t77 49t86 25.5t92.5 6.5q91 0 170 -14t113 -33q14 -7 16.5 -14t-1.5 -28l-56 -261q-2 -12 -5 -16.5t-5.5 -5t-11.5 -0.5h-43q-12 0 -14 2.5t1 15.5l35 237q-95 31 -197 31q-221 0 -265 -206q-6 -31 -6.5 -58.5t0 -47.5t13.5 -40.5t16.5 -32t27.5 -28 t28.5 -21.5t37 -20t35.5 -16t41 -16q40 -16 61 -25t56.5 -29t53.5 -38.5t39.5 -51t28 -69t6.5 -89t-13 -115.5q-73 -352 -425 -352q-84 0 -183.5 16t-127.5 33q-19 12 -11 48zM274 -320l54 236q1 1 2.5 6t3 7t4 4t6.5 2h64q7 0 3 -15l-46 -238q-3 -19 -9 -19h-79q-7 0 -3 17 zM646 1396l47 239q3 15 9 15h78q7 0 4 -17l-56 -240q0 -13 -13 -13h-60q-14 0 -9 16z" />
<glyph unicode="%" horiz-adv-x="1569" d="M207 931q17 80 48.5 148.5t78 124.5t113.5 88t147 32q64 0 110.5 -21.5t73 -58t39 -87t10.5 -107t-15 -119.5q-18 -81 -49.5 -150t-78 -125.5t-113 -89t-145.5 -32.5q-80 0 -133.5 33t-75.5 88t-26 126.5t16 149.5zM305 931q-32 -145 6 -230t132 -85t166 84.5t104 230.5 q30 147 -3.5 229t-134.5 82q-95 0 -167 -83t-103 -228zM318 9l998 1292q22 25 38 25h68q8 0 11 -1t3.5 -4.5t-3 -9t-11.5 -15.5l-992 -1294q-17 -22 -46 -22h-56q-10 0 -13 0.5t-7 3t-1 8.5t11 17zM905 378q17 80 47.5 148.5t77 124.5t112.5 88t146 32t133.5 -32.5t76 -87 t27 -125.5t-14.5 -148q-18 -81 -49.5 -150t-78.5 -125.5t-114 -89t-147 -32.5t-133 33t-74.5 88t-25 126.5t16.5 149.5zM1004 378q-32 -146 5 -230.5t132 -84.5q94 0 166 84.5t104 230.5q30 147 -4 229t-135 82q-95 0 -166 -82.5t-102 -228.5z" />
<glyph unicode="&#x26;" horiz-adv-x="1109" d="M121 341q18 86 52.5 152.5t75.5 105t78 59.5t73 29q-43 12 -69 44t-34 76t-6.5 88.5t11.5 93.5q71 333 363 333q96 0 173 -41q12 -5 12.5 -15.5t-5.5 -31.5l-50 -242q-4 -16 -6.5 -19t-12.5 -3h-39q-8 0 -9.5 3t0.5 16l28 219q-13 10 -44.5 18t-58.5 8q-102 0 -164 -53 t-92 -198q-55 -253 169 -253h235l80 212q6 28 26 28h18q19 0 13 -28l-44 -212h175q18 0 13 -24l-10 -43q-3 -15 -7 -19t-15 -4h-175l-74 -346q-27 -136 -15.5 -183.5t59.5 -47.5q69 0 88 90q3 13 8.5 18.5t17.5 5.5h22q19 0 11 -34q-15 -73 -64.5 -117.5t-119.5 -44.5 q-90 0 -115 84q-138 -84 -322 -84q-50 0 -89 6.5t-73.5 21.5t-56.5 42t-35 66t-12 95.5t16 128.5zM227 348q-32 -151 11 -214t168 -63q139 0 279 78q0 62 19 141l13 66h2l59 284h-231q-116 0 -202.5 -73t-117.5 -219z" />
<glyph unicode="'" horiz-adv-x="344" d="M240 875l90 417q3 11 11 11h80q9 0 7 -13l-89 -415q0 -11 -15 -11h-73q-8 0 -10.5 2t-0.5 9z" />
<glyph unicode="(" horiz-adv-x="463" d="M136 557q45 210 158.5 422t271.5 369q3 1 7 6.5t6 7t6 -0.5l31 -32q7 -6 -15 -28q-128 -135 -222.5 -345.5t-136.5 -408.5q-27 -124 -34 -258t11 -271t62 -241q8 -15 2 -21l-41 -32q-2 -2 -3.5 0.5t-4 7t-3.5 5.5q-63 109 -95 249t-31 285t31 286z" />
<glyph unicode=")" horiz-adv-x="465" d="M-56 -244q-4 6 9 21q131 153 227 364t138 406q27 124 35.5 255.5t-9 269t-65.5 229.5q-12 21 -2 28l45 32q5 2 6.5 0.5t3.5 -7t3 -6.5q92 -157 116 -373.5t-21 -417.5q-46 -215 -163.5 -436t-279.5 -384q-2 -1 -6 -5.5t-6.5 -7t-4.5 -0.5z" />
<glyph unicode="*" horiz-adv-x="647" d="M261 1076l37 80q5 8 13 6l154 -56l8 184q0 13 7 13h101q5 0 6 -2.5t0 -7.5l-1 -5l-68 -182l176 54q8 3 8 -6l9 -76q0 -11 -13 -11l-169 -19l82 -138q9 -16 2 -22l-84 -50q-8 -8 -11 5l-45 175l-117 -171q-10 -10 -15 -5l-58 44q-3 2 4 13l139 149l-156 19q-11 2 -9 9z " />
<glyph unicode="+" horiz-adv-x="917" d="M115 434l19 91h331l86 397h82l-86 -397h322l-18 -91h-322l-84 -397h-82l84 397h-332z" />
<glyph unicode="," horiz-adv-x="329" d="M-58 -197l144 324q7 14 9.5 18t8.5 7.5t17 3.5h52q13 0 17 -5t1.5 -13t-9.5 -23l-158 -314q-10 -19 -30 -19h-42q-20 0 -10 21z" />
<glyph unicode="-" horiz-adv-x="750" d="M162 519l9 49q3 7 4 9.5t4.5 5t8.5 2.5h490q12 0 9 -19l-9 -41q-3 -20 -21 -20h-486q-12 0 -9 14z" />
<glyph unicode="." horiz-adv-x="359" d="M60 63q5 30 28 51.5t53 21.5q26 0 42 -22t11 -51q-8 -34 -32 -54t-52 -20q-31 0 -44.5 19t-5.5 55z" />
<glyph unicode="/" horiz-adv-x="694" d="M-41 -106l806 1473q7 16 17 16h80q17 0 6 -20l-803 -1469q-6 -13 -24 -13h-78q-11 0 -4 13z" />
<glyph unicode="0" horiz-adv-x="994" d="M173 652q43 197 114.5 345t176.5 236.5t229 88.5q103 0 172 -50t100 -141t30.5 -212t-31.5 -267q-42 -197 -114 -346t-177.5 -237t-229.5 -88q-104 0 -173 50t-99.5 140.5t-30 212t32.5 268.5zM283 655q-58 -272 -15.5 -431t177.5 -159t244 158t166 432q59 271 16.5 427 t-177.5 156q-136 0 -244 -155t-167 -428z" />
<glyph unicode="1" horiz-adv-x="642" d="M32 22l5 25q2 11 4 15t6 7.5t11 3.5q49 1 71 1.5t49 3t36.5 6.5t20.5 12.5t15 19.5t9 29l212 1002q6 19 -5 18q-9 -1 -23 -11l-173 -123q-11 -10 -17.5 -7t-3.5 17l12 46q5 21 28 38l227 163q26 15 52 15h18q20 0 14 -18l-241 -1132q-13 -57 9 -67.5t150 -12.5 q8 0 12.5 -2.5t5 -7.5t0 -9.5t-3 -13.5t-3.5 -14q-3 -17 -7 -21.5t-17 -4.5h-458q-14 0 -16 4t1 18z" />
<glyph unicode="2" horiz-adv-x="902" d="M26 17l9 41q8 25 15 31q645 420 741 875q11 54 12 96.5t-5 70.5t-21 48t-30 30.5t-39 16t-41.5 7t-42.5 1.5q-122 0 -226 -46l-67 -238q-5 -13 -7.5 -16t-10.5 -3h-43q-11 0 -12.5 4t1.5 18l56 263q5 23 10 30.5t18 12.5q133 63 286 63q48 0 87 -6t76.5 -21.5t61 -41 t40.5 -65t16 -94t-14 -126.5q-54 -256 -241 -479.5t-461 -397.5h443q21 0 30 30l46 184q5 17 10 23.5t18 6.5h37q18 0 10 -30l-60 -285q-3 -14 -6.5 -17t-12.5 -3h-668q-18 0 -15 17z" />
<glyph unicode="3" horiz-adv-x="860" d="M35 54l6 30q4 17 9.5 22.5t12.5 3.5q4 0 43.5 -11t100.5 -20.5t124 -9.5q271 0 339 315q16 64 13 111t-15.5 78t-40 49t-59.5 25.5t-76 7.5h-97q-16 0 -11 26l9 40q3 16 9 22l404 467h-380q-14 0 -21 -10.5t-14 -37.5l-37 -155q-2 -13 -6.5 -17.5t-17.5 -4.5h-36 q-9 0 -12 1t-5.5 5.5t0.5 13.5l60 276q3 16 6 19t14 3h576q10 0 11.5 -6.5t-2.5 -21.5l-7 -33q-2 -11 -5 -17.5t-5 -9.5t-10.5 -12t-15.5 -17l-387 -447h19q161 0 221 -89t17 -285q-43 -200 -158.5 -292t-277.5 -92q-185 0 -286 41q-19 9 -12 32z" />
<glyph unicode="4" horiz-adv-x="943" d="M65 350l369 935q5 13 8 15.5t16 2.5h63q18 0 10 -18l-337 -866h370l183 858q5 15 16 15h69q16 0 11 -17l-182 -856h199q11 0 14.5 -4.5t0.5 -17.5l-11 -54q-3 -11 -6.5 -13t-14.5 -2h-201l-37 -179q-4 -20 -6 -29.5t1.5 -20t9.5 -13.5t24.5 -6.5t39.5 -4t61 -1.5 q16 0 18.5 -5t-1.5 -19l-5 -30q-3 -13 -7 -16.5t-16 -3.5h-437q-11 0 -13.5 4t0.5 15l5 33q3 8 4 11.5t5.5 6.5t11.5 3q54 1 80.5 2t53 4.5t35.5 6.5t19 13t12 19t6 29l40 181h-468q-12 0 -14 4.5t1 17.5z" />
<glyph unicode="5" horiz-adv-x="856" d="M34 67l7 34q4 18 10.5 23.5t15.5 2.5q130 -60 263 -60q55 0 101 13t93 45.5t83.5 99t57.5 162.5q15 72 15.5 127t-14.5 92t-39.5 61.5t-65 37.5t-84 18t-103.5 5h-126q-20 0 -10 26l166 521q7 20 10 24t12 4h483q13 0 16 -3t0 -19l-56 -263q-5 -21 -10 -26t-19 -5h-36 q-13 0 -15.5 7.5t2.5 22.5l26 147q5 26 2 36t-17 10h-325l-131 -395h58q75 0 131 -7.5t106 -26t81 -51.5t49 -82t17 -120t-21 -163q-20 -96 -59 -168t-83 -112t-99 -64.5t-100 -32t-95 -7.5q-94 0 -170 17.5t-113 38.5q-19 11 -14 30z" />
<glyph unicode="6" horiz-adv-x="908" d="M141 514q36 167 104.5 311.5t167 256.5t232.5 176t288 64h17q12 0 15.5 -4t0.5 -15l-9 -44q-5 -25 -26 -25h-17q-224 0 -387 -163t-246 -429q131 162 291 162q75 0 130.5 -22.5t88 -62t48 -96t14 -121t-16.5 -139.5q-37 -180 -150.5 -281t-275.5 -101q-192 0 -258 136 t-11 397zM244 492q-89 -425 167 -425q116 0 201 81.5t120 235.5q36 154 -7 245.5t-174 91.5q-182 0 -307 -229z" />
<glyph unicode="7" horiz-adv-x="778" d="M91 19l726 1189h-456l-56 -197q-3 -13 -4 -17.5t-6 -8.5t-14 -4h-35q-11 0 -14 5.5t1 24.5l57 272q3 14 6.5 17t14.5 3h618q12 0 13.5 -6.5t-2.5 -21.5l-9 -41q-5 -22 -19 -46l-709 -1168q-7 -13 -13 -16.5t-19 -3.5h-70q-22 0 -10 19z" />
<glyph unicode="8" horiz-adv-x="917" d="M114 415q29 121 105 211.5t200 120.5q-41 24 -66 64t-32.5 85.5t-5.5 89t13 83.5q31 122 118 186.5t206 64.5q67 0 117 -23.5t77.5 -61t41 -86t13 -96.5t-12.5 -94q-21 -80 -73 -138t-128 -84q108 -44 140 -152.5t3 -240.5q-16 -71 -48 -132t-82 -115t-127 -85t-171 -31 q-82 0 -143 24.5t-96 66.5t-51.5 98t-15 117.5t17.5 127.5zM214 395q-17 -61 -13 -120.5t23.5 -106t68 -75t118.5 -28.5q66 0 121.5 25t94 68t64 93.5t39.5 107.5q11 51 12.5 98t-10.5 90.5t-36 75.5t-66 51t-98 19q-123 0 -205.5 -84t-112.5 -214zM419 1041 q-28 -111 10 -184t141 -73q90 0 146.5 53t76.5 135q14 42 11.5 89t-16 87t-52 66t-96.5 26q-90 0 -144.5 -55.5t-76.5 -143.5z" />
<glyph unicode="9" horiz-adv-x="889" d="M99 2l7 41q7 26 24 26h17q208 0 362 154.5t239 426.5q-134 -151 -305 -151q-71 0 -122 24t-79 64t-40 95.5t-9.5 114.5t16.5 125q38 182 150 291t267 109q100 0 166 -39.5t94 -110t30 -168.5t-26 -215q-38 -174 -105 -319t-161.5 -255.5t-221.5 -172t-274 -61.5h-16 q-19 0 -13 21zM309 899q-30 -142 11.5 -229t156.5 -87q98 0 173.5 54.5t138.5 170.5q45 200 4.5 315t-169.5 115q-111 0 -195.5 -87.5t-119.5 -251.5z" />
<glyph unicode=":" horiz-adv-x="366" d="M60 56q5 30 28 51t53 21q26 0 42 -21.5t11 -50.5q-8 -35 -32 -55t-52 -20q-31 0 -44.5 19.5t-5.5 55.5zM203 730q5 30 28.5 51t53.5 21q26 0 41.5 -21.5t10.5 -50.5q-8 -35 -32 -55t-52 -20q-31 0 -44.5 19.5t-5.5 55.5z" />
<glyph unicode=";" horiz-adv-x="444" d="M-15 -197l143 324l7 14t6.5 8.5t9.5 5.5t13 1h52q13 0 17 -5t1.5 -13t-9.5 -23l-158 -314q-10 -19 -30 -19h-43q-19 0 -9 21zM270 812q7 30 29.5 51t52.5 21q27 0 43 -21.5t9 -50.5q-6 -34 -30 -54.5t-52 -20.5q-31 0 -45 19.5t-7 55.5z" />
<glyph unicode="&#x3c;" horiz-adv-x="824" d="M101 428l20 97l726 397l-20 -97l-591 -348l442 -347l-21 -100z" />
<glyph unicode="=" horiz-adv-x="889" d="M115 270l21 91h637l-21 -91h-637zM171 518l19 89h635l-19 -89h-635z" />
<glyph unicode="&#x3e;" horiz-adv-x="824" d="M45 30l20 100l592 347l-443 350l21 95l554 -397l-20 -97z" />
<glyph unicode="?" horiz-adv-x="703" d="M192 63q5 30 28 51.5t50 21.5q26 0 40.5 -21.5t9.5 -51.5q-8 -35 -31 -54.5t-51 -19.5t-41 19.5t-5 54.5zM220 972l56 261q4 20 10 27.5t21 14.5q38 19 109.5 33t151.5 14q39 0 71 -5.5t62 -18.5t50 -36.5t32.5 -57.5t12.5 -84t-14 -113q-19 -90 -47.5 -152.5t-60 -94.5 t-65.5 -54.5t-68 -44.5t-65 -53t-59 -91t-46 -148l-34 -155q-3 -19 -17 -19h-71q-9 0 -5 15l32 151q22 103 52 175t62 108.5t66.5 61.5t68 45t63 47.5t56 81t43.5 133.5q14 56 9 95.5t-16.5 64.5t-35 39t-46 19t-49.5 5q-59 0 -94.5 -6.5t-95.5 -26.5l-63 -235 q-3 -13 -6 -15.5t-14 -2.5h-41q-14 0 -15.5 5t0.5 17z" />
<glyph unicode="@" horiz-adv-x="1247" d="M156 596q28 133 84 247t127 194.5t154 138t168 85t167 27.5q231 0 341 -159.5t56 -407.5q-44 -200 -143 -327.5t-233 -127.5q-52 0 -82 27t-32 72q-38 -40 -97 -70.5t-113 -30.5q-93 0 -138 78.5t-17 216.5q17 78 54 152t90 137t126.5 101t154.5 38q58 0 97.5 -21.5 t55 -56.5t19 -80.5t-9.5 -94.5q-13 -59 -56.5 -155t-72.5 -145q-20 -38 -7 -63t50 -25q83 0 157 112.5t108 269.5q45 214 -44.5 347t-272.5 133q-65 0 -135.5 -24t-143 -75.5t-135 -123.5t-113 -177t-76.5 -227q-39 -187 -6 -316t125.5 -197t230.5 -68q97 0 180 25t176 79 q16 7 18 -2l11 -48q2 -12 -16 -24q-174 -110 -388 -110q-161 0 -270.5 77.5t-152.5 227.5t4 371zM486 557q-21 -100 3 -156.5t92 -56.5q47 0 95.5 33.5t85 82t67 104.5t48 99.5t22.5 68.5q37 177 -106 177q-102 0 -190 -107t-117 -245z" />
<glyph unicode="A" horiz-adv-x="1104" d="M-24 22l5 25q3 12 6.5 18t6 7t6.5 1q89 2 111.5 13.5t33.5 64.5l19 87q51 243 114 439t138 341.5t162.5 224.5t181.5 79q124 0 182 -137t49 -378.5t-81 -568.5l-22 -104q-8 -42 9 -50.5t95 -10.5q8 0 12.5 -2.5t5.5 -7.5t0 -9.5l-3 -13.5t-3 -14q-3 -16 -7 -21t-16 -5 h-348q-14 0 -16 3t1 19l6 25q3 16 6.5 21t13.5 5q88 1 111 13.5t34 64.5l19 87q19 88 28 155h-549q-32 -143 -34 -155l-22 -104q-8 -42 9.5 -50.5t96.5 -10.5q9 0 13.5 -2.5t5 -8t0 -9.5t-3.5 -13.5t-4 -13.5q-3 -17 -6.5 -21.5t-17.5 -4.5h-335q-12 0 -13.5 3t0.5 19z M309 480h544q57 346 28.5 550t-140.5 204q-113 0 -225.5 -200.5t-206.5 -553.5z" />
<glyph unicode="B" horiz-adv-x="996" d="M26 22l6 25q3 16 6.5 21t13.5 5q89 1 110 13t32 65l216 1016q10 44 -8 53t-104 11q-11 0 -13.5 3.5t0.5 16.5l7 32q3 14 7 17t16 3h376q153 0 217.5 -84t29.5 -255q-22 -102 -71.5 -166.5t-110.5 -93.5q116 -21 153 -109t3 -252q-37 -168 -153 -255.5t-338 -87.5h-382 q-11 0 -13.5 4t0.5 18zM279 84h173q89 0 153 19t104 57t63 85.5t38 115.5q15 59 13.5 110t-18 89t-62 60t-117.5 22h-228zM417 728h205q77 0 135 74.5t81 178.5q21 106 -12.5 172t-136.5 66h-168z" />
<glyph unicode="C" horiz-adv-x="1007" d="M168 642q72 340 227.5 510t384.5 170q199 0 305 -37q17 -7 19.5 -14t-2.5 -33l-61 -287q-2 -11 -4.5 -15.5t-5.5 -5.5t-11 -1h-48q-13 0 -15.5 4t0.5 15l37 260q-86 28 -210 28q-185 0 -317 -150t-197 -451q-63 -293 10.5 -426t272.5 -133q119 0 313 45q13 3 17.5 -1 t0.5 -18l-5 -31q-5 -22 -12 -29t-25 -12q-172 -43 -300 -43q-255 0 -351.5 156t-22.5 499z" />
<glyph unicode="D" horiz-adv-x="1128" d="M26 22l6 25q3 16 6.5 21t13.5 5q82 2 104.5 10.5t31.5 46.5l222 1037q10 44 -8 53t-104 11q-11 0 -13.5 3.5t0.5 16.5l7 32q3 14 7 17t16 3h348q575 0 432 -674q-66 -315 -237 -472t-454 -157h-365q-11 0 -13.5 4t0.5 18zM281 86h132q232 0 374.5 138t202.5 422 q124 575 -337 575h-130z" />
<glyph unicode="E" horiz-adv-x="880" d="M106 371q15 68 41 121t55.5 85t67.5 55.5t70 35t71 19.5q-29 6 -54.5 25t-49 58.5t-27 99.5t11.5 148q61 304 373 304q180 0 277 -43q17 -8 18.5 -15.5t-5.5 -29.5l-50 -242q-4 -16 -7.5 -19t-13.5 -3h-41q-8 0 -10 3.5t-1 15.5l28 217q-65 28 -197 28 q-109 0 -179.5 -48.5t-96.5 -170.5q-60 -285 205 -285h108q10 0 12 -5.5t-1 -20.5l-7 -34q-5 -17 -9 -22.5t-14 -5.5h-108q-301 0 -361 -283q-33 -151 26 -219.5t214 -68.5q49 0 104.5 7t92 14.5t71 16t36.5 8.5q10 3 12 -1t-1 -17l-11 -52q-4 -17 -28 -25 q-44 -16 -124 -28.5t-166 -12.5q-53 0 -96.5 5t-84.5 17t-71 31.5t-52.5 50t-33.5 70.5t-10 94.5t16 121.5z" />
<glyph unicode="F" horiz-adv-x="860" d="M22 22l6 25q5 23 13 25q3 1 7 1q37 1 53.5 1.5t35.5 4.5t25 8t14.5 17t11.5 25.5t9 38.5l209 984q12 51 -5.5 64.5t-104.5 14.5q-10 0 -11.5 6.5t2.5 19.5l5 24q3 15 6.5 18.5t14.5 3.5h672q9 0 11.5 -0.5t4.5 -5t-1 -14.5l-64 -296q-3 -21 -22 -21h-33q-22 0 -19 21 l35 210q1 18 -3 23t-15 5l-360 -2l-108 -512h283q12 0 16 -4t1 -18l-7 -37q-5 -19 -10.5 -25.5t-19.5 -6.5h-283l-101 -477q-9 -49 13.5 -58.5t135.5 -11.5q8 0 12.5 -2.5t5.5 -7.5t0 -9.5l-3 -13.5t-3 -14q-2 -10 -2.5 -13t-3 -7t-6.5 -5t-11 -1h-391q-14 0 -16 4t1 18z " />
<glyph unicode="G" horiz-adv-x="1100" d="M169 657q68 323 235.5 494t409.5 171q104 0 192 -20.5t139 -50.5q17 -10 18.5 -23.5t-5.5 -41.5l-54 -255q-3 -13 -7.5 -17t-14.5 -4h-45q-8 0 -10 2.5t-1 14.5l37 252q-97 57 -248 57q-201 0 -338.5 -153.5t-200.5 -449.5q-61 -284 13 -424t294 -140q149 0 251 43 l84 394h-216q-24 0 -15 28l6 32q6 28 28 28h288q23 0 17 -28l-101 -478q-7 -40 -39 -54q-50 -22 -135.5 -37.5t-178.5 -15.5q-550 0 -403 676z" />
<glyph unicode="H" horiz-adv-x="1128" d="M20 22l6 25q2 11 4 15t6 7.5t11 3.5q87 2 109 12t34 60l212 1000q13 60 -1.5 72t-97.5 14q-15 0 -17.5 5.5t1.5 23.5q3 16 4.5 22.5t7.5 13.5t16 7h344q13 0 15.5 -4t-0.5 -18l-6 -24q-5 -23 -13 -25q-3 -1 -7 -1q-91 -2 -112 -13.5t-35 -72.5l-114 -540h469l112 529 q6 27 8.5 39.5t0 26t-6 17.5t-19.5 8.5t-32 4.5t-50 1q-15 0 -17.5 5.5t1.5 23.5q3 17 4.5 23t8 13t17.5 7h344q13 0 15.5 -4t-0.5 -18l-6 -24q-5 -23 -13 -25q-3 -1 -7 -1q-37 -1 -53.5 -1.5t-35.5 -4.5t-25 -8t-14.5 -17t-11.5 -25.5t-9 -38.5l-203 -959q-24 -103 35 -103 q25 0 46.5 17.5t30.5 57.5q3 13 13 13h44q13 0 8 -21q-34 -148 -162 -148q-155 0 -112 191l71 337h-469l-75 -352q-6 -28 -8.5 -39.5t-0.5 -25.5t5.5 -17.5t19.5 -8t31 -4.5t50 -1q9 0 13.5 -2.5t5 -8t0 -9.5t-3.5 -13.5t-4 -13.5q-3 -17 -6.5 -21.5t-15.5 -4.5h-345 q-14 0 -16 4t1 18z" />
<glyph unicode="I" horiz-adv-x="556" d="M22 22l6 25q5 23 13 25q3 1 7 1q37 1 53.5 1.5t35.5 4.5t25 8t14.5 17t11.5 25.5t9 38.5l207 977q13 60 -1.5 72t-97.5 14q-15 0 -17.5 5.5t1.5 23.5q3 16 4.5 22.5t7.5 13.5t16 7h344q13 0 15.5 -4t-0.5 -18l-6 -24q-5 -23 -13 -25q-3 -1 -7 -1q-91 -2 -112 -13.5 t-35 -72.5l-213 -1000q-11 -50 5 -60t100 -12q9 0 13.5 -2.5t5 -8t0 -9.5t-3.5 -13.5t-4 -13.5q-3 -17 -7 -21.5t-17 -4.5h-345q-14 0 -16 4t1 18z" />
<glyph unicode="J" horiz-adv-x="539" d="M-80 -264q-3 27 22 41l58 26q80 37 112 78.5t56 155.5l227 1069h-2l5 28q16 70 3 83t-101 14q-16 0 -18.5 5.5t1.5 23.5q1 3 2 9.5t2 9t2.5 7.5t3.5 7.5t4.5 5t6.5 3.5t9 1h344q14 0 16 -4t-1 -18l-5 -24q-2 -11 -4 -15t-6 -7.5t-11 -3.5q-37 -1 -53.5 -1.5t-35.5 -4.5 t-25 -8t-14.5 -17t-11.5 -25.5t-9 -38.5l-242 -1138q-24 -113 -68.5 -169.5t-164.5 -102.5l-74 -29q-13 -5 -17.5 -2.5t-4.5 16.5z" />
<glyph unicode="K" horiz-adv-x="1063" d="M20 22l6 25q2 11 4 15t6 7.5t11 3.5q26 0 38 0.5t29 2t23.5 3t16.5 5.5t13.5 8.5t8.5 12.5t8 17t6 23l210 989q4 21 6.5 31t2.5 22.5t-0.5 17.5t-6.5 11.5t-12 8t-21 3.5t-27.5 2.5t-38.5 0.5q-15 0 -17.5 5.5t1.5 23.5q3 16 4.5 22.5t7.5 13.5t16 7h344q13 0 15.5 -4 t-0.5 -18l-6 -24q0 -1 -1 -3q-2 -9 -3.5 -13t-5 -7t-10.5 -3q-35 -1 -51.5 -1.5t-35 -4t-25 -7.5t-15 -15t-12 -23t-8.5 -35l-101 -475l451 456h-6l38 39q37 40 39 51q2 9 -11 11q-8 2 -73 4q-21 0 -24.5 4.5t1.5 24.5q1 4 2.5 12t2.5 11t3 8t5 7t8.5 3.5t12.5 1.5h324 q16 0 19 -4t0 -18l-6 -24q-3 -17 -7 -21.5t-17 -4.5q-89 -3 -110 -15l-547 -553h1l244 -490q31 -61 60 -85.5t65 -24.5q29 0 75 17q13 5 18 2t2 -17l-7 -31q-3 -16 -8.5 -22.5t-21.5 -13.5q-43 -17 -84 -17q-72 0 -107 26t-79 118l-266 527l-108 -507q-11 -50 4.5 -60 t97.5 -12q9 0 13.5 -2.5t5 -8t0 -9.5t-3.5 -13.5t-4 -13.5q-3 -17 -6.5 -21.5t-15.5 -4.5h-345q-14 0 -16 4t1 18z" />
<glyph unicode="L" horiz-adv-x="893" d="M26 22l6 25q3 16 6.5 21t13.5 5q82 2 103.5 9.5t32.5 45.5l207 978l5 28q6 28 8.5 39.5t0.5 26t-5.5 18t-19.5 8t-31.5 4.5t-49.5 1q-15 0 -17.5 5.5t1.5 23.5q3 16 4.5 22.5t7.5 13.5t16 7h344q14 0 16 -4t-1 -18l-6 -24q-5 -23 -13 -25q-3 -1 -7 -1q-36 -1 -52.5 -1.5 t-35.5 -4.5t-25 -8t-14 -17t-11 -25.5t-9 -38.5l-6 -30h-2l-216 -1015l404 -2q15 0 19.5 5t10.5 23l50 188q4 19 10 24.5t20 5.5h28q13 0 14.5 -5.5t-3.5 -29.5l-59 -280q-3 -14 -7.5 -17t-15.5 -3h-709q-11 0 -13.5 4t0.5 18z" />
<glyph unicode="M" horiz-adv-x="1426" d="M34 22l5 25q3 16 9 21t21 5q80 1 97 13t31 76l209 990q6 31 7.5 43.5t-10 22t-30.5 11t-66 2.5q-12 0 -13.5 6.5t2.5 19.5l6 24q3 14 7 18t15 4h195q18 0 27.5 -3t14 -12.5t5 -17.5t0.5 -29v-8q-2 -146 39 -559.5t73 -569.5h3q116 199 282 539.5t270 589.5q2 6 8 21.5 t8 18.5l8 12t11.5 11t15.5 4.5t23 2.5h210q16 0 19 -4t0 -18l-6 -24q-3 -16 -7.5 -21t-18.5 -5q-83 -2 -102 -13t-30 -66l-207 -975q-24 -103 36 -103q59 0 76 75q3 13 15 13h43q11 0 6 -21q-34 -148 -162 -148q-69 0 -101 45t-9 146l195 926q-92 -231 -281 -604.5 t-266 -485.5q-14 -20 -41 -20h-45q-10 0 -14.5 1t-8.5 5.5t-7 13.5q-35 137 -75 463t-51 580l-192 -905q-8 -33 -9.5 -48t10.5 -24.5t28 -10.5t59 -2q10 0 15 -2t6 -7.5t0.5 -9.5t-3.5 -14t-4 -14q-3 -16 -7.5 -21t-18.5 -5h-307q-16 0 -19 4t1 18z" />
<glyph unicode="N" d="M26 22l6 25q3 15 7.5 20.5t16.5 5.5q34 1 50 1.5t33.5 4.5t23.5 7.5t13.5 16t10 23.5t8.5 36l215 1003q8 44 -10.5 54t-105.5 12q-10 0 -11.5 6.5t2.5 19.5l5 24q3 14 7.5 18t15.5 4h175q30 0 41 -33l303 -1147l218 1029q12 51 -5.5 64.5t-106.5 14.5q-10 0 -11.5 6.5 t2.5 19.5l6 24q3 14 7 18t15 4h335q8 0 12 -2.5t4 -7.5t-0.5 -9t-3 -12t-3.5 -12q-3 -19 -7.5 -24t-20.5 -5q-83 -2 -103 -13.5t-31 -66.5l-236 -1108q-9 -43 -32 -43h-44q-35 0 -43 24l-294 1102l-205 -962q-5 -24 -7 -35.5t0 -24t7 -16.5t19 -8.5t31 -5t49 -1.5 q8 0 12.5 -2.5t5 -7.5t0 -9.5t-3 -13.5t-3.5 -14q-2 -10 -2.5 -13t-3 -7t-6.5 -5t-11 -1h-333q-12 0 -14 4t1 18z" />
<glyph unicode="O" d="M169 672q41 191 123 335t208.5 229.5t281.5 85.5q128 0 217 -52t131 -144.5t49.5 -219t-27.5 -275.5q-65 -299 -223.5 -474.5t-392.5 -175.5q-128 0 -216 52t-129.5 144.5t-48.5 219t27 275.5zM274 655q-57 -272 14 -428t252 -156q180 0 314.5 155.5t191.5 428.5 q58 271 -12.5 424.5t-253.5 153.5q-180 0 -313.5 -153.5t-192.5 -424.5z" />
<glyph unicode="P" horiz-adv-x="880" d="M22 22l6 25q5 23 13 25q3 1 7 1q84 2 107 11.5t35 53.5l216 1014q12 51 -5.5 64.5t-104.5 14.5q-10 0 -11.5 6.5t2.5 19.5l5 24q3 15 6.5 18.5t14.5 3.5h313q94 0 159.5 -24.5t99.5 -64t48.5 -98t11 -119t-17.5 -135.5q-35 -174 -153 -272t-297 -98q-65 0 -110 11 l-71 -334q-6 -28 -8.5 -39.5t-0.5 -25.5t5.5 -17.5t20 -8t31.5 -4.5t51 -1q9 0 13.5 -2.5t5 -8t0 -9.5t-3.5 -13.5t-4 -13.5q-3 -17 -7 -21.5t-17 -4.5h-345q-14 0 -16 4t1 18zM385 588q19 -13 105 -13q129 0 216 79.5t117 218.5q15 71 15.5 129.5t-16 110.5t-63 81 t-120.5 29h-120z" />
<glyph unicode="Q" d="M169 672q41 191 123 335t208.5 229.5t281.5 85.5q128 0 217 -52t131 -144.5t49.5 -219t-27.5 -275.5q-52 -234 -160 -394.5t-268 -221.5l10 -56q8 -84 37 -119t91 -35q38 0 61 7q7 3 11.5 0.5t0.5 -15.5l-8 -41q-6 -15 -14 -19q-4 -2 -10 -3q-29 -6 -88 -6 q-161 0 -182 225l-4 36q-37 -8 -93 -8q-128 0 -216 52t-129.5 144.5t-48.5 219t27 275.5zM274 655q-43 -206 -13.5 -347t126.5 -200q-3 21 4 54q12 57 49.5 94.5t99.5 37.5q77 0 118 -39.5t55 -140.5q117 60 203.5 199.5t129.5 341.5q58 271 -12.5 424.5t-253.5 153.5 q-180 0 -313.5 -153.5t-192.5 -424.5zM452 149q-13 -55 34 -75q13 -3 54 -3q48 0 84 9l-2 13q-3 44 -11 71t-22.5 38.5t-26.5 14.5t-33 3q-27 0 -49.5 -20.5t-27.5 -50.5z" />
<glyph unicode="R" horiz-adv-x="964" d="M20 22l6 25q2 11 4 15t6 7.5t11 3.5q37 1 53.5 1t35.5 4.5t25 8.5t14 17t11 25t9 39l213 1003q7 37 -13.5 47.5t-100.5 12.5q-10 0 -11.5 6.5t2.5 19.5l5 24q3 15 6.5 18.5t14.5 3.5h346q188 0 255 -117.5t23 -321.5q-30 -141 -107.5 -237.5t-198.5 -131.5l54 -311 q12 -69 28 -94t52 -25q10 0 20 2.5t16.5 4.5t15.5 6.5t12 5.5q13 6 18 3.5t6 -16.5l2 -24q1 -20 -6 -28t-28 -17q-60 -21 -104 -21q-18 0 -33.5 2.5t-27 10t-20 12.5t-16 19t-11.5 20.5t-8.5 26t-6.5 26t-6 29.5t-5 29l-54 321h-34q-80 0 -132 13l-67 -321 q-6 -28 -8.5 -39.5t-0.5 -25.5t5.5 -17.5t20 -8t31.5 -4.5t51 -1q9 0 13.5 -2.5t5 -8t0 -9.5t-3.5 -13.5t-4 -13.5q-3 -17 -7 -21.5t-17 -4.5h-345q-14 0 -16 4t1 18zM382 583q71 -19 130 -19q126 0 208.5 83t115.5 236q35 166 -14.5 250.5t-166.5 84.5h-137z" />
<glyph unicode="S" horiz-adv-x="886" d="M50 78l54 253q3 13 8.5 18t19.5 5h37q19 0 13 -23l-35 -227q89 -35 227 -35q34 0 67 5t76 22t77 45.5t64.5 80.5t45.5 122q8 39 10 72.5t-7 61t-14 47t-28.5 40t-32 30t-42.5 26t-42.5 20.5t-47.5 20t-59 25t-53.5 28.5t-50 36.5t-37 46.5t-27 63t-6.5 80.5t12 103 q14 67 40.5 117t60 80t77 49t86 25.5t92.5 6.5q91 0 170 -14t113 -33q14 -7 16.5 -14t-1.5 -28l-56 -261q-2 -12 -5 -16.5t-5.5 -5t-11.5 -0.5h-43q-12 0 -14 2.5t1 15.5l35 237q-95 31 -197 31q-221 0 -265 -206q-6 -31 -7 -58.5t0 -47.5t14 -40.5t16.5 -32t27.5 -28 t28.5 -21.5t37 -20t35.5 -16t41 -16q40 -16 61 -25t56.5 -29t53.5 -38.5t39.5 -51t28 -69t6.5 -89t-13 -115.5q-73 -352 -425 -352q-84 0 -183.5 16t-127.5 33q-19 12 -11 48z" />
<glyph unicode="T" horiz-adv-x="914" d="M201 22l6 25q5 23 13 25q3 1 7 1q89 2 111 11t34 57l229 1077h-230q-12 0 -17.5 -5t-10.5 -20l-60 -221q-1 -7 -2 -10t-6 -6t-14 -3h-38q-11 0 -13.5 5.5t0.5 13.5l67 311q3 14 7 17t16 3h731q9 0 11.5 -0.5t4.5 -5t-1 -14.5l-67 -311q-1 -7 -2 -10t-5.5 -6t-12.5 -3h-36 q-13 0 -16 5.5t0 13.5l37 221q2 15 -1.5 20t-15.5 5h-227l-223 -1049q-16 -70 -3.5 -82.5t99.5 -13.5q8 0 12.5 -2.5t5.5 -7.5t0 -9.5l-3 -13.5t-3 -14q-3 -16 -7 -21t-16 -5h-346q-14 0 -16 4t1 18z" />
<glyph unicode="U" horiz-adv-x="1158" d="M235 449l147 690l7.5 37.5t0 25t-6.5 16.5t-20 7.5t-31 4t-49 1.5q-16 0 -18.5 5.5t1.5 23.5q1 3 2 9.5t2 9t2.5 7.5t3 7t4.5 5t6.5 4t7.5 1h350q14 0 16 -4t-1 -18l-6 -24q-3 -17 -6 -21.5t-14 -4.5q-88 -1 -111 -14t-34 -65l-149 -703q-39 -183 12 -280.5t187 -97.5 q134 0 224.5 97t129.5 281l147 690l7.5 37.5t0 24.5t-7 16.5t-20.5 8t-31.5 4t-49.5 1.5q-15 0 -17.5 5.5t1.5 23.5q0 2 1.5 8.5t1.5 8.5t1.5 7t2.5 6.5t3 5t4.5 4.5t6.5 2t8 1h336q12 0 14 -4t-1 -18l-6 -24q-2 -10 -4.5 -16t-6 -8t-5 -2h-5.5q-81 -2 -106 -12t-35 -48 l-153 -722q-47 -223 -160.5 -345.5t-291.5 -122.5q-193 0 -266 123t-26 345z" />
<glyph unicode="V" horiz-adv-x="1076" d="M231 1249l7 36q3 11 7 14.5t12 3.5h328q13 0 7 -16l-7 -36q-3 -20 -19 -20q-54 -1 -76.5 -3.5t-29 -7.5t-8.5 -17q-29 -137 -40 -273t-8.5 -237t20 -218.5t32.5 -186t41 -171.5q47 69 62.5 92.5t61.5 94.5t66.5 106.5t62 108t64 121.5t56 124t55 139t44.5 142.5t40 157.5 q0 8 0.5 13t-11 8.5t-32 4.5t-61.5 2q-14 0 -11 20l7 36q3 9 6 12.5t11 3.5h316q17 0 12 -18l-8 -36q-3 -12 -5.5 -15t-13.5 -3q-56 -1 -81 -4t-31.5 -7t-8.5 -15q-31 -146 -81 -288.5t-97 -244.5t-121 -226.5t-117.5 -189.5t-121.5 -177q-28 -40 -41 -59q-15 -20 -37 -20 h-26q-21 0 -26 20q-70 251 -93 374q-71 394 17 811q2 8 -0.5 12t-14 7.5t-34 4.5t-63.5 2q-11 0 -12.5 3.5t1.5 14.5z" />
<glyph unicode="W" horiz-adv-x="1549" d="M235 1247l7 36q3 13 6 16.5t11 3.5h342q11 0 6 -20l-7 -32q-1 -8 -2.5 -12t-5 -6t-9.5 -2q-44 -1 -64 -2t-33.5 -4.5t-16 -8t-4.5 -15.5q-36 -173 -51.5 -332t-8.5 -300.5t17.5 -237t31.5 -219.5q65 109 101 171.5t98.5 183.5t103.5 220t86.5 236.5t76.5 277.5 q4 20 -16 24t-94 6q-12 0 -9 16l7 38q5 18 19 18h327q7 0 8.5 -3t-0.5 -17l-8 -34q-8 -17 -13 -18q-62 -1 -87.5 -5.5t-32 -10.5t-16.5 -27h2q-46 -225 -55 -434.5t6.5 -349.5t48.5 -290q80 133 129 221t120.5 233.5t126 303t92.5 329.5q4 21 -10.5 24.5t-98.5 5.5h-1 q-16 0 -11 18l7 32q3 14 6 18t11 4h326q6 0 8.5 -1t5 -5.5t-0.5 -13.5l-8 -34q-3 -12 -6 -15t-12 -3q-87 -1 -105.5 -5.5t-23.5 -24.5q-22 -100 -51 -197.5t-57 -176t-67 -165.5t-68 -146.5t-73.5 -139t-70.5 -124t-72 -120.5t-66 -110q-12 -22 -30 -22h-48q-21 0 -24 22 q-4 22 -13.5 77.5t-14 80.5t-14 84t-12 88t-10 93t-7 98.5t-2.5 105t2 111.5q-41 -106 -96 -220t-91.5 -180t-104.5 -184.5t-88 -153.5q-12 -22 -30 -22h-52q-21 0 -24 22q-3 21 -21.5 124t-24 144t-17.5 141t-12 170.5t2 172.5t16 207.5t38 219.5q4 19 -13.5 23.5 t-101.5 6.5q-10 0 -11 2.5t2 13.5z" />
<glyph unicode="X" horiz-adv-x="1040" d="M-30 22l6 25q1 3 1.5 7.5t1 6l1.5 4.5t2 4t2.5 2t4 1.5t5.5 0.5q74 1 100.5 14.5t63.5 63.5l380 521l-138 512q-6 23 -13 30.5t-29 12t-75 4.5q-10 0 -11.5 6.5t2.5 19.5l5 24q3 15 6.5 18.5t14.5 3.5h333q8 0 12 -2.5t4 -7.5t-0.5 -9t-3 -12t-3.5 -12q-3 -19 -7.5 -24 t-20.5 -5q-76 -1 -91.5 -13t-3.5 -53l101 -379l259 353q38 58 39 67q4 14 -14 18.5t-70 6.5q-16 0 -18.5 5.5t1.5 23.5q1 3 2 9.5t2 9t2.5 7.5t3.5 7.5t4.5 5t6.5 3.5t9 1h317q14 0 16 -4t-1 -18l-8 -30q-3 -14 -5.5 -17t-13.5 -3q-62 -1 -98.5 -18t-63.5 -55l-342 -471 l143 -527q11 -41 26 -63t25 -26t24 -4q17 0 45 6.5t29 6.5h5t4.5 -1.5t2 -4.5l-1.5 -9l-4 -31q-2 -18 -7 -25.5t-21 -14.5q-48 -13 -89 -13q-63 0 -91.5 31.5t-44.5 95.5l-129 465l-298 -409q-29 -43 -35 -62q-3 -16 16.5 -21.5t76.5 -7.5q9 0 13.5 -2.5t5 -8t0 -9.5 t-3.5 -13.5t-4 -13.5q-3 -17 -7 -21.5t-17 -4.5h-328q-11 0 -13.5 4t0.5 18z" />
<glyph unicode="Y" horiz-adv-x="1012" d="M231 1249l7 36q3 11 7 14.5t12 3.5h326q15 0 9 -16l-7 -36q-3 -20 -21 -20q-64 -2 -86.5 -6.5t-25.5 -18.5q-17 -78 -18.5 -153.5t7.5 -135t30 -123t41.5 -107.5t49.5 -99q70 70 120.5 127t108.5 136.5t98 169t61 185.5q2 7 -2.5 11.5t-17.5 7.5t-32.5 4t-52.5 2 q-14 0 -11 20l8 36q3 7 4 9.5t4 4.5t8 2h317q16 0 11 -18l-7 -36q-3 -12 -5.5 -15t-13.5 -3q-66 -2 -92 -7t-29 -19q-21 -88 -59 -174.5t-78 -153t-98 -140t-102 -121t-106 -111.5l-77 -360q-11 -50 5 -60t100 -12q9 0 13.5 -2.5t5 -8t0 -9.5t-3.5 -13.5t-4 -13.5 q-3 -17 -7 -21.5t-17 -4.5h-345q-14 0 -16 4t1 18l6 25q0 1 1 3q4 20 13 22q2 1 6 1q87 2 109.5 12t34.5 60l74 354q-35 65 -58.5 113t-50.5 122t-39 141t-12.5 154t17.5 176q2 7 -3 11.5t-18.5 7.5t-34 4.5t-54.5 2.5q-11 0 -12.5 3.5t1.5 14.5z" />
<glyph unicode="Z" horiz-adv-x="862" d="M28 19l6 33q7 22 13 32l778 1139h-425q-3 0 -5.5 -0.5t-5 -1.5t-4 -2t-3 -4l-2.5 -5t-2.5 -6t-2.5 -7t-3 -9.5t-3 -10.5l-49 -196q-8 -17 -22 -17h-35q-21 0 -15 19l63 300q3 14 6.5 17t13.5 3h611q10 0 11.5 -6.5t-2.5 -21.5l-7 -33q-5 -26 -21 -47l-761 -1115h452 q20 0 26 30l53 203q4 11 6.5 15.5t6.5 6.5t13 2h37q14 0 9 -26l-61 -289q-4 -22 -19 -22h-650q-11 0 -7 19z" />
<glyph unicode="[" horiz-adv-x="474" d="M24 -281l343 1605q3 20 13 20h231q7 0 5 -7l-15 -73q-2 -7 -11 -7h-141l-311 -1460h139q5 0 7 -0.5t3.5 -2.5t-0.5 -6l-15 -71q-2 -7 -9 -7h-235q-4 0 -4 9z" />
<glyph unicode="\" horiz-adv-x="685" d="M261 1322h102l201 -1354h-104z" />
<glyph unicode="]" horiz-adv-x="472" d="M-54 -281l15 71q2 7 9 7h142l311 1460h-140q-5 0 -6.5 0.5t-3 2.5t0.5 6l15 71q2 7 9 7h233q10 0 7 -9l-341 -1605q-3 -13 -5.5 -16.5t-10.5 -3.5h-229q-8 0 -6 9z" />
<glyph unicode="^" horiz-adv-x="1012" d="M195 802l524 505l303 -505l-76 -55l-252 450l-443 -450z" />
<glyph unicode="_" horiz-adv-x="906" d="M28 -91l20 91h674l-20 -91h-674z" />
<glyph unicode="`" horiz-adv-x="517" d="M408 1592q-5 11 -1.5 18.5t14.5 7.5h69q14 0 20 -4.5t11 -17.5l103 -213q13 -22 -11 -22h-41q-19 0 -36 26z" />
<glyph unicode="a" horiz-adv-x="930" d="M112 456q40 193 139.5 310.5t251.5 117.5q174 0 216 -141l18 87q8 36 38 36h57h27t47 -1.5t58 -2.5q12 -1 14 -6t-1 -20l-5 -26q-3 -16 -6.5 -20t-14.5 -4h-89q-39 -4 -52 -60l-108 -508q-15 -61 -11 -93t13.5 -41.5t29.5 -9.5q35 0 48 43q5 24 9 29t19 5h24 q13 0 16 -4.5t-1 -23.5q-16 -72 -50.5 -101t-87.5 -29q-129 0 -117 152q-91 -154 -257 -154q-110 0 -172 61.5t-71 165t18 238.5zM207 438q-15 -72 -15 -135t14.5 -115.5t53 -83t96.5 -30.5q108 0 185.5 98.5t113.5 266.5q37 157 1 259.5t-144 102.5q-59 0 -110.5 -29.5 t-88.5 -80.5t-63.5 -114.5t-42.5 -138.5z" />
<glyph unicode="b" horiz-adv-x="891" d="M-28 22l4 25q5 23 13 25q3 1 7 1q91 1 111.5 14.5t35.5 80.5l213 997q8 41 4 48.5t-32 9.5l-77 2q-9 0 -10 5.5t3 18.5l5 23q3 16 8.5 22t16.5 6q56 3 106 3h72q16 0 21 -7t2 -24l-127 -591q57 98 134 150.5t157 52.5q96 0 150 -62.5t61.5 -167t-18.5 -241.5 q-42 -193 -138 -309.5t-245 -116.5q-85 0 -146 43t-65 132l-26 -119q-4 -15 -5 -19t-5 -12t-10.5 -10t-16.5 -2h-190q-12 0 -14 4t1 18zM296 408q-32 -156 2 -248.5t141 -92.5q111 0 184 98.5t109 266.5q20 105 19 186.5t-38.5 131t-111.5 49.5q-110 0 -189 -106.5 t-116 -284.5z" />
<glyph unicode="c" horiz-adv-x="737" d="M108 475q43 202 149.5 305.5t265.5 103.5q65 0 124 -13t87 -29q11 -7 12.5 -16t-3.5 -33l-50 -236q-3 -19 -19 -19h-43q-16 0 -11 17l35 218q-52 28 -134 28q-241 0 -316 -347q-19 -91 -20.5 -158t13.5 -109.5t46 -68t69.5 -35t92.5 -9.5q47 0 82 7t106 27 q11 4 13.5 -2.5t-0.5 -23.5l-7 -30q-2 -13 -6.5 -19t-18.5 -11q-79 -31 -184 -31q-60 0 -106.5 9.5t-86.5 31t-65 58.5t-38.5 89.5t-10 127t23.5 168.5z" />
<glyph unicode="d" horiz-adv-x="904" d="M106 451q41 195 139.5 314t242.5 119q90 0 151 -43t67 -134l98 458q8 41 4 48.5t-30 9.5l-80 2q-9 0 -10 5.5t3 18.5l5 23q5 28 25 28q58 3 108 3h72q28 0 22 -31l-223 -1047q-16 -64 -12.5 -98t13 -44t27.5 -10q40 0 50 42q3 20 9 27t23 7h17q16 0 18.5 -6.5t-2.5 -21.5 q-25 -130 -143 -130q-122 0 -110 149q-93 -151 -262 -151q-104 0 -165 61.5t-72 164t15 236.5zM205 432q-16 -73 -16 -136.5t16 -113.5t53.5 -79t93.5 -29q113 0 188 89.5t110 249.5q41 191 5 286.5t-154 95.5q-111 0 -185.5 -98t-110.5 -265z" />
<glyph unicode="e" horiz-adv-x="763" d="M106 426q98 458 412 458q136 0 191 -75.5t26 -214.5q-50 -237 -316 -237q-119 0 -216 49q-15 -80 -15 -140t13 -98t39 -61.5t59.5 -32.5t78.5 -9q100 0 207 49l31 14q13 5 17.5 0.5t1.5 -18.5l-8 -34q-3 -17 -8 -23.5t-21 -13.5q-109 -58 -239 -58q-179 0 -240 110 t-13 335zM222 493q84 -48 184 -48q202 0 231 149q22 102 -13 153.5t-114 51.5q-105 0 -176 -76t-112 -230z" />
<glyph unicode="f" horiz-adv-x="517" d="M-177 -311l8 32q5 32 26 24q47 -11 76 -11q78 0 110.5 56t70.5 236l162 762h-108q-16 0 -13 16l9 45q6 17 20 17h108l21 91q12 59 26.5 106.5t38.5 97.5t54 84t73.5 55.5t95.5 21.5q87 0 124 -20.5t27 -65.5l-37 -171q-3 -14 -6 -16.5t-13 -2.5h-41q-10 0 -12.5 3.5 t-0.5 13.5l23 158q-23 17 -67 17q-65 0 -110 -59.5t-73 -195.5l-26 -117h170q14 0 11 -19l-8 -41q-2 -7 -4 -10t-6 -5.5t-10 -2.5h-170l-152 -721q-21 -101 -40 -167t-42 -118.5t-52 -81t-66 -42.5t-87 -14q-25 0 -48 2.5t-44 13.5t-18 29z" />
<glyph unicode="g" horiz-adv-x="897" d="M-6 -279l4 24q8 33 26 24q44 -19 61 -25.5t60.5 -16.5t87.5 -10q72 0 122.5 15.5t94 55.5t75 111.5t54.5 180.5l9 47q-93 -138 -257 -138q-105 0 -166 61.5t-71 164t16 236.5q41 195 139 314t241 119q94 0 156 -46t65 -144l28 136q5 20 12 28t22 8h59q10 0 26.5 -0.5 t47 -1.5t58.5 -2q12 -1 14 -6t-1 -20l-5 -26q-3 -15 -7 -19.5t-14 -4.5h-89q-39 -3 -52 -60l-136 -646q-54 -255 -153 -353.5t-286 -98.5q-139 0 -229 48q-12 7 -14.5 15.5t2.5 29.5zM207 432q-16 -73 -15.5 -136.5t16.5 -113.5t54 -79t94 -29q113 0 187.5 89t109.5 250 q41 191 4.5 286.5t-152.5 95.5q-111 0 -186.5 -98.5t-111.5 -264.5z" />
<glyph unicode="h" horiz-adv-x="895" d="M-30 22l6 25q5 23 13 25q3 1 7 1q85 2 107.5 12t34.5 58l216 1021q6 34 0.5 46.5t-24.5 12.5l-81 2q-7 0 -8 3.5t2 13.5q0 1 0.5 2t0.5 2l5 29q5 17 8 21t13 4q34 1 74.5 3t50.5 2h57q17 0 20.5 -8.5t-1.5 -28.5l-115 -544q56 81 126.5 120.5t143.5 39.5q106 0 143 -66 t6 -205l-82 -386q-16 -64 -12.5 -98t13 -44.5t28.5 -10.5q38 0 49 43q5 24 9 29t19 5h24q13 0 15 -4.5t-2 -23.5q-16 -72 -50 -101t-88 -29q-68 0 -100 48.5t-8 159.5l88 406q18 74 11 117t-27 59t-59 16q-105 0 -190 -107.5t-132 -326.5l-48 -227q-8 -45 8.5 -54t95.5 -11 q9 0 13.5 -2.5t5 -8t0 -9.5t-3.5 -13.5t-4 -13.5q-3 -17 -6.5 -21.5t-15.5 -4.5h-341q-14 0 -16 4t1 18z" />
<glyph unicode="i" horiz-adv-x="465" d="M151 812l5 22q3 16 8.5 22t16.5 6q74 4 108 4h72q29 0 23 -32l-131 -607q-16 -64 -12.5 -98t13 -44.5t29.5 -10.5q35 0 48 43q5 24 9 29t19 5h25q13 0 15.5 -4.5t-1.5 -23.5q-16 -72 -50.5 -101t-88.5 -29q-150 0 -106 208l113 527q7 41 3 48.5t-31 9.5l-80 2 q-9 0 -10 5.5t3 18.5zM335 1132q5 30 26 48.5t47 18.5t39.5 -18.5t8.5 -48.5q-7 -30 -28.5 -48.5t-47.5 -18.5t-39 18.5t-6 48.5z" />
<glyph unicode="j" horiz-adv-x="420" d="M-132 -201q3 24 20 24h47q4 0 5.5 -2.5t1.5 -7.5t-1 -10t-2.5 -12t-1.5 -11q-3 -56 50 -56q15 0 26.5 4.5t26.5 18t28.5 45.5t24.5 81l183 855q7 41 3 48.5t-31 9.5l-80 2q-9 0 -10.5 5.5t2.5 18.5l6 22q3 16 8.5 22t17.5 6q74 4 106 4h73q16 0 20.5 -7.5t1.5 -24.5 l-201 -940q-29 -136 -76.5 -193t-128.5 -57q-43 0 -72 14t-39.5 36t-13 50t5.5 55zM341 1132q5 30 25.5 48.5t46.5 18.5q25 0 38.5 -18.5t8.5 -48.5q-7 -30 -28.5 -48.5t-46.5 -18.5q-26 0 -38.5 18.5t-5.5 48.5z" />
<glyph unicode="k" horiz-adv-x="817" d="M-30 22l6 25q0 1 1 3q2 9 3.5 13t5 7t10.5 3q35 1 52 1.5t35 4.5t25 8.5t15 17t11 25.5t9 38l211 996q6 34 0.5 46.5t-24.5 12.5l-77 2q-9 1 -10.5 5t1.5 17l5 28q4 16 9.5 20.5t15.5 4.5q26 1 53.5 2t43.5 2t24 1h59q17 0 20.5 -8.5t-1.5 -28.5l-170 -797l304 287 q25 23 19 28q-9 5 -80 5q-8 0 -12.5 2.5t-5 8t0 10.5t2.5 14t3 14q5 16 9 21t16 5h310q12 0 14.5 -4.5t-0.5 -18.5l-8 -33q0 -1 -1 -4q-10 -14 -18 -15q-69 0 -92.5 -8.5t-69.5 -52.5l-288 -268l143 -317q12 -30 18.5 -43.5t19.5 -26t29 -12.5q51 0 65 64q4 19 10 24t20 5 h13q17 0 20 -4t-1 -29q-31 -142 -157 -142q-30 0 -52 9.5t-37 30t-22.5 35t-18.5 43.5l-154 357l-62 -287q-6 -27 -8.5 -39.5t0 -26t6 -17t19.5 -8t31 -4.5t49 -1q9 0 13.5 -2.5t5 -8t0 -9.5t-3.5 -13.5t-4 -13.5q-3 -17 -6.5 -21.5t-15.5 -4.5h-341q-14 0 -16 4t1 18z" />
<glyph unicode="l" horiz-adv-x="420" d="M117 201l211 989q7 36 3 43t-29 7l-79 2q-12 0 -13.5 3.5t2.5 16.5l6 32q4 16 9 20t15 4q29 1 57.5 2.5t50.5 1.5h74q28 0 21 -28l-227 -1067q-16 -64 -12.5 -98t13.5 -44.5t29 -10.5q37 0 48 43q5 24 9 29t19 5h24q14 0 16 -4.5t-1 -23.5q-16 -72 -50 -101t-88 -29 q-152 0 -108 208z" />
<glyph unicode="m" horiz-adv-x="1299" d="M0 22l6 25q3 16 6 21t12 5q81 2 102.5 13t33.5 65l121 575q12 60 -24 60l-82 2q-8 0 -9 3.5t2 16.5l5 30q4 16 8 20t14 4q34 1 75 3.5t50 2.5h58q17 0 20.5 -9t-1.5 -29l-19 -91q92 145 236 145q141 0 157 -147q98 147 253 147q107 0 141.5 -80t-1.5 -260l-69 -317 q-16 -64 -12.5 -98t13 -44.5t29.5 -10.5q35 0 46 43q5 24 9.5 29t18.5 5h26q13 0 16 -4.5t-1 -23.5q-16 -72 -50.5 -101t-89.5 -29q-68 0 -101 48.5t-9 159.5l73 337q29 144 10.5 202.5t-86.5 58.5q-82 0 -145 -68.5t-92 -196.5l-78 -359q-6 -29 -8.5 -42t0.5 -27.5 t7.5 -18.5t23.5 -8.5t36 -4.5t57 -1q8 0 12.5 -2.5t5 -7.5t0 -9.5t-3 -13.5t-3.5 -14q-2 -10 -2.5 -13t-3 -7t-6.5 -5t-11 -1h-333q-12 0 -14 4t1 18l6 25q5 26 18 26q67 2 86 11.5t30 53.5l85 402q24 101 18 158.5t-29 79t-67 21.5q-185 0 -264 -375l-56 -260 q-14 -61 -1.5 -75.5t87.5 -15.5q8 0 12.5 -2.5t5 -7.5t0 -9.5t-3 -13.5t-3.5 -14q-3 -16 -7 -21t-16 -5h-318q-10 0 -13 4t0 18z" />
<glyph unicode="n" horiz-adv-x="917" d="M-7 22l5 25q6 26 21 26q92 1 113 14.5t36 80.5l117 558q12 60 -24 60l-82 2q-8 0 -8.5 3.5t2.5 16.5l6 30q5 17 7.5 20.5t12.5 3.5q36 1 76.5 3.5t48.5 2.5h60q16 0 19.5 -9t-1.5 -29l-22 -104q56 80 126.5 119t141.5 39q106 0 144 -66t7 -205l-82 -386 q-16 -64 -12.5 -98t13 -44.5t29.5 -10.5q35 0 46 43q5 24 10 29t20 5h24q13 0 15 -4.5t-2 -23.5q-16 -72 -50 -101t-88 -29q-68 0 -100 48.5t-8 159.5l88 406q18 74 11 117t-27.5 59t-58.5 16q-106 0 -190.5 -107t-131.5 -327l-41 -196q-6 -27 -8.5 -39.5t0 -26t6 -17 t19.5 -8t31 -4.5t49 -1q9 0 13.5 -2.5t5 -8t0 -9.5t-3.5 -13.5t-4 -13.5q-3 -17 -6.5 -21.5t-15.5 -4.5h-343q-14 0 -16 4t2 18z" />
<glyph unicode="o" horiz-adv-x="830" d="M108 460q18 84 51 157t82 134.5t120 97t155 35.5q76 0 132.5 -26t87.5 -69.5t45.5 -104t12.5 -126.5t-18 -139q-14 -66 -37.5 -126.5t-60 -116t-82 -96.5t-105.5 -65t-128 -24q-76 0 -131.5 26.5t-86 70.5t-44.5 105t-11.5 127.5t18.5 139.5zM205 434q-16 -74 -15.5 -137 t16.5 -114t56.5 -80t102.5 -29q118 0 197.5 102t113.5 258q15 73 15 137t-16.5 116.5t-57 83t-101.5 30.5q-80 0 -146 -54t-105 -134t-60 -179z" />
<glyph unicode="p" horiz-adv-x="889" d="M-102 -331l3 24q5 16 8.5 21t12.5 5q91 1 110 13.5t33 79.5l198 925q6 49 -28 49l-82 2q-7 0 -8 3.5t2 16.5l6 30q5 17 7.5 20.5t12.5 3.5q36 1 76.5 3.5t48.5 2.5h59q17 0 20.5 -9t-1.5 -29l-32 -149q53 98 128 150t152 52q101 0 158.5 -62.5t65.5 -166.5t-18 -241 q-42 -192 -139.5 -312t-239.5 -120q-84 0 -147 44.5t-69 130.5l-73 -340q-5 -26 -7.5 -39.5t0.5 -26t7.5 -17t21 -8.5t31.5 -4.5t49 -1.5q6 0 10.5 -1.5t6.5 -4t3 -5.5t0 -8t-2 -8.5t-2.5 -9.5l-2.5 -10q-3 -16 -7.5 -21t-18.5 -5h-340q-13 0 -15 4.5t2 18.5zM294 406 q-20 -100 -15 -176.5t46 -121.5t113 -45q111 0 184.5 99.5t109.5 267.5q20 105 19 187t-39 132t-112 50q-109 0 -189 -107t-117 -286z" />
<glyph unicode="q" horiz-adv-x="899" d="M110 456q40 193 139.5 310.5t251.5 117.5q174 0 216 -141l18 87q8 36 38 36h57q10 0 27 -0.5t47.5 -1.5t58.5 -2q12 -1 14 -6t-1 -20l-6 -26q-3 -16 -6 -20t-14 -4h-90q-39 -4 -52 -60l-194 -912q-15 -67 -0.5 -80.5t101.5 -14.5q6 0 10.5 -1.5t6.5 -4t3 -5.5t0 -8 t-2 -8.5t-2.5 -9.5l-2.5 -10q-3 -16 -7.5 -21t-18.5 -5h-346q-12 0 -14 4.5t2 18.5l4 24q5 16 8.5 21t12.5 5q93 2 114.5 15.5t35.5 79.5l69 324q-93 -147 -253 -147q-110 0 -172 61.5t-71 165t18 238.5zM205 438q-15 -72 -15.5 -135t14.5 -115.5t53.5 -83t96.5 -30.5 q108 0 185.5 98.5t113.5 266.5q37 157 1 259.5t-144 102.5q-59 0 -110.5 -29.5t-88.5 -80.5t-63.5 -114.5t-42.5 -138.5z" />
<glyph unicode="r" horiz-adv-x="709" d="M-7 22l5 25q6 26 21 26q86 2 108.5 11.5t34.5 58.5l123 583q12 60 -24 60l-80 2q-5 0 -7.5 0.5t-3 3.5t0 5.5t2.5 10.5l6 30q4 16 8 20t14 4q34 1 75 3.5t50 2.5h58q16 0 19.5 -9t-1.5 -29l-39 -182q117 236 290 236q54 0 86 -22q14 -8 15.5 -18t-4.5 -36l-50 -233 q-2 -9 -4 -13t-5 -4.5t-10 -0.5h-46q-14 0 -9 16l33 215q-17 9 -50 9q-210 0 -332 -562l-20 -97q-8 -45 8.5 -54t95.5 -11q9 0 13.5 -2.5t5 -8t0 -9.5t-3.5 -13.5t-4 -13.5q-3 -17 -6.5 -21.5t-15.5 -4.5h-343q-14 0 -16 4t2 18z" />
<glyph unicode="s" horiz-adv-x="701" d="M28 50l43 199q5 24 11 31t20 7h32q7 0 9.5 -1t4.5 -8t-1 -21l-26 -160q75 -26 175 -26q94 0 145 32t69 122q10 47 5 82t-21.5 54.5t-41 34t-54.5 21t-61 15t-60.5 16t-54 25t-40.5 41t-20.5 64t6.5 94.5q24 115 92 163.5t194 48.5q158 0 224 -31q22 -10 16 -38l-46 -197 q-2 -9 -6.5 -13t-8 -4.5t-13.5 -0.5h-30q-11 0 -13.5 5.5t0.5 23.5l28 151q-74 21 -154 21q-84 0 -127 -24t-60 -103q-10 -48 2 -80t39.5 -45.5t64.5 -24.5t76 -18t74.5 -24.5t60.5 -45t33 -79.5t-7 -128q-13 -61 -35 -105t-49 -70t-66 -40.5t-77 -19.5t-90 -5 q-78 0 -147 10t-98 23q-12 6 -16 11t-1 17z" />
<glyph unicode="t" horiz-adv-x="547" d="M153 802l9 41q3 15 6.5 19t13.5 4h107l87 251q6 28 26 28h21q12 0 15 -6.5t0 -21.5l-54 -251h210q10 0 13 -5t0 -19l-9 -40q-3 -15 -6.5 -18.5t-14.5 -3.5h-210l-104 -486q-21 -92 -18.5 -143.5t18.5 -69.5t52 -18q72 0 85 73q5 24 24 24h27q11 0 13.5 -6t-0.5 -22 q-15 -74 -60 -112.5t-112 -38.5q-103 0 -133 75.5t5 233.5l104 490h-102q-11 0 -13.5 4t0.5 18z" />
<glyph unicode="u" horiz-adv-x="899" d="M138 812l5 24q3 16 8 21t17 5q49 1 66 2.5t43 1.5h73q16 0 20 -8t-1 -29l-116 -540q-21 -89 -12.5 -137.5t32 -65.5t71.5 -17q103 0 176 76t113 252l73 340q9 51 -28 51h-82q-14 0 -8 24l6 24q3 16 8.5 21t15.5 5q50 1 67.5 2.5t42.5 1.5h74q15 0 19 -8t0 -29l-130 -617 q-13 -58 -10 -88.5t12 -40t28 -9.5q39 0 50 43q0 2 1 6q6 24 12 27q3 1 13 1h24q13 0 16 -4.5t-1 -23.5q-16 -72 -50.5 -101t-87.5 -29q-126 0 -117 141q-97 -147 -255 -147q-121 0 -162 70.5t-6 234.5l60 281h2l35 164q9 51 -28 51h-84q-10 0 -7 13q0 3 2 11z" />
<glyph unicode="v" horiz-adv-x="813" d="M141 804l12 49q2 13 15 13h292q10 0 7 -13l-9 -47q-1 -2 -2 -5l-1.5 -4.5t-1.5 -3.5t-2 -2.5t-3 -1t-5 -0.5q-67 0 -84 -4t-18 -20q-21 -101 -27.5 -196t3 -184.5t19.5 -146.5t29 -141q70 107 117.5 189t103.5 214t86 265q3 17 -9.5 20.5t-77.5 3.5q-16 0 -13 15l11 47 q3 15 15 15h275q12 0 14.5 -4.5t-1.5 -12.5l-7 -41q-6 -17 -19 -19q-69 0 -84 -3.5t-18 -20.5q-22 -96 -57.5 -192t-67 -162.5t-84.5 -153t-79 -125t-81 -117.5q-10 -15 -26 -15h-46q-18 0 -23 15q-49 193 -61 281q-34 233 13 469q3 16 -6 19q-13 5 -89 5q-13 0 -10 15z" />
<glyph unicode="w" horiz-adv-x="1271" d="M141 806l10 47q2 13 15 13h318q11 0 8 -13l-10 -47q-6 -17 -17 -17q-95 0 -108 -13v-9q-21 -100 -27 -196t2 -184t19 -150t29 -140q73 113 118.5 191.5t103 213.5t85.5 265q0 2 2 5q1 3 0 4q0 13 -99 13q-16 0 -13 15l11 49q3 13 13 13h302q13 0 11 -13l-11 -49 q-3 -13 -13 -15q-107 -2 -115 -13h3q-26 -136 -26 -267t15.5 -219.5t44.5 -190.5q72 110 118.5 190t103.5 214t85 264q2 4 2 11q-2 7 -19 9t-78 2q-16 0 -13 15l11 49q3 13 13 13h298q14 0 11 -15l-9 -45q-7 -15 -19 -17q-97 -2 -106 -9q-4 -3 -7 -13q-24 -109 -63 -212 t-95 -204t-90 -155t-97 -148q-15 -22 -22 -33q-12 -15 -22 -15h-58q-14 0 -22 15q-64 256 -71 432q-12 -25 -25 -51.5t-24.5 -48.5t-27.5 -49t-26.5 -44.5t-28 -46t-26 -41.5t-27.5 -42t-25 -37t-26 -38t-23 -34q-10 -15 -22 -15h-60q-14 0 -19 15q-24 95 -36 151t-27 161.5 t-10.5 214.5t27.5 225q3 14 -17 18q-15 2 -89 4q-16 3 -10 17z" />
<glyph unicode="x" horiz-adv-x="839" d="M-17 22l4 25q3 15 8 19.5t18 4.5q63 0 84 7.5t50 44.5l246 313l-114 312q-10 28 -32.5 35.5t-69.5 7.5q-15 0 -9 28l5 24q3 14 7 18.5t14 4.5h283q6 0 9.5 -1.5t4 -6t0 -7.5t-2 -11t-2.5 -11q-1 -2 -2 -6.5t-1.5 -6.5t-1.5 -5.5t-1.5 -4.5t-1.5 -3.5t-2 -3.5t-3 -2.5 t-3.5 -2t-4 -1t-5.5 -0.5q-61 0 -73.5 -8t0.5 -40l78 -218l174 220q14 17 18.5 25.5t-2 13.5t-20.5 6t-47 1q-6 0 -9.5 2.5t-3.5 8t0.5 10t2.5 13.5t3 13q0 1 1 3q4 15 7 19t12 4h276q11 0 13.5 -4.5t-0.5 -18.5l-6 -24q-2 -11 -4 -16t-5.5 -7.5t-10.5 -2.5q-33 -1 -50 -3.5 t-37.5 -12.5t-35.5 -29l-246 -305l119 -322q6 -16 12 -25t12.5 -15t19 -8.5t24.5 -3t37 -0.5q12 0 15.5 -4t0.5 -18l-5 -25q-3 -15 -5.5 -18.5t-13.5 -3.5h-287q-4 0 -7 1t-4.5 4t-2 5.5t0.5 7.5l1.5 7.5t2.5 8t2 7.5q6 24 11 26q4 2 13 2q75 -2 78 14q2 6 -3 16l-92 253 l-202 -253q-16 -19 -5 -24q14 -6 85 -6q12 0 14 -5t-3 -23q-1 -4 -2.5 -11.5t-2.5 -11.5t-3 -9t-6 -7t-9 -2h-296q-11 0 -12.5 4t1.5 18z" />
<glyph unicode="y" horiz-adv-x="843" d="M-4 -357l8 39q2 12 8 14q3 1 10 2q11 1 29 3t25 3t19.5 2.5t16.5 3t12.5 3.5t11.5 4.5t8.5 7t9.5 9t8 11.5q51 81 156 255q-13 0 -16 15q-12 47 -25.5 126t-27 187t-13 227.5t18.5 209.5q1 16 -13.5 19t-83.5 5q-12 2 -9 15l11 49q2 13 17 13h290q13 0 10 -13l-10 -47 q-1 -2 -2 -5l-1.5 -4.5t-1.5 -3t-2 -2.5t-3.5 -1.5t-5.5 -0.5q-64 0 -79 -4.5t-18 -19.5q-22 -100 -19 -239.5t15 -250.5t26 -176q143 254 328 657q10 21 2 26q-11 7 -82 7q-10 2 -12 4.5t1 12.5l9 45q3 15 17 15h277q9 0 10.5 -3.5t-1.5 -13.5l-9 -45q-3 -12 -13 -15 q-67 0 -84 -7t-30 -37q-240 -542 -569 -1058q-29 -39 -52.5 -50t-57.5 -11h-101q-13 0 -14.5 2t1.5 15z" />
<glyph unicode="z" horiz-adv-x="731" d="M20 28l6 28q3 18 15 30l570 703h-306q-17 0 -24.5 -6t-12.5 -22l-33 -147q-4 -18 -23 -18h-35q-12 0 -16 2.5t-3 14.5l49 225q6 28 24 28h497q19 0 13 -28l-6 -30q-4 -14 -16 -33l-564 -702h327q29 0 37 29l40 157q5 18 10 24t16 6h33q12 0 15.5 -6.5t-0.5 -31.5 l-47 -223q-8 -28 -26 -28h-523q-23 0 -17 28z" />
<glyph unicode="{" horiz-adv-x="530" d="M84 499l11 45q0 13 15 16q92 18 131.5 61.5t61.5 141.5l69 328q9 41 21 74t32.5 65t47.5 53.5t67.5 34.5t90.5 13h36q4 0 5.5 -0.5t3.5 -3.5t0 -9l-11 -56q-5 -13 -15 -13h-6q-138 0 -173 -156l-69 -326q-24 -110 -65 -167t-114 -79q66 -22 82.5 -79.5t-7.5 -167.5 l-69 -326q-34 -155 106 -155h6q10 0 7 -15l-11 -55q-2 -12 -13 -12h-35q-62 0 -101.5 20t-53 53t-15 76t10.5 90l69 327q22 97 0.5 141t-106.5 62q-13 3 -9 19z" />
<glyph unicode="|" horiz-adv-x="402" d="M20 -311l356 1670h97l-356 -1670h-97z" />
<glyph unicode="}" horiz-adv-x="532" d="M-56 -277l11 55q3 15 15 15h4q139 0 173 155l69 326q24 111 65 168t114 79q-64 22 -81.5 79t6.5 167l69 326q35 156 -106 156h-4q-8 0 -10 2.5t1 10.5l11 56q2 13 15 13h32q63 0 102.5 -19.5t53.5 -52.5t15.5 -76.5t-11.5 -91.5l-69 -328q-23 -96 -1.5 -140.5 t103.5 -62.5q13 -2 13 -16l-11 -45q-4 -17 -18 -19q-90 -18 -129.5 -61t-60.5 -142l-69 -327q-11 -51 -28 -90.5t-46 -75t-76.5 -54.5t-110.5 -19h-30q-13 0 -11 12z" />
<glyph unicode="~" horiz-adv-x="1059" d="M128 372q70 111 155.5 172t163.5 61q42 0 75.5 -24t55.5 -57.5t42.5 -67.5t47 -58t58.5 -24q86 0 192 183l67 -34q-60 -116 -135 -175t-144 -59q-43 0 -76.5 23.5t-55 57.5t-41.5 68t-45 57.5t-56 23.5q-60 0 -114 -42t-111 -134z" />
<glyph unicode="&#xa0;" horiz-adv-x="750" d="M158 506l11 49q3 17 17 17h490q12 0 9 -19l-9 -41q-5 -20 -21 -20h-486q-14 0 -11 14z" />
<glyph unicode="&#xa1;" horiz-adv-x="379" d="M7 -315l216 972q3 13 7.5 16t15.5 3h50q12 0 9 -19l-201 -974q-3 -14 -13 -14h-72q-10 0 -12.5 3t0.5 13zM225 812q7 30 29.5 51t52.5 21q27 0 43 -21.5t9 -50.5q-6 -34 -30 -54.5t-52 -20.5q-31 0 -45 19.5t-7 55.5z" />
<glyph unicode="&#xa2;" horiz-adv-x="785" d="M121 419q46 212 164 338.5t279 126.5q105 0 154.5 -51.5t28.5 -147.5q-16 -76 -64.5 -124.5t-118.5 -48.5q-30 0 -61 9q-14 6 -14.5 19.5t4.5 29.5q4 26 25 26q2 0 16.5 -4t27.5 -4q78 0 97 88q14 67 -18.5 96t-91.5 29q-117 0 -203 -101.5t-124 -280.5 q-39 -187 11.5 -269.5t164.5 -82.5q107 0 231 65q13 5 16.5 0t-1.5 -22l-7 -37q-3 -13 -8.5 -19t-19.5 -13q-119 -60 -248 -60q-160 0 -221.5 116.5t-18.5 321.5zM235 -318l54 234q4 19 14 19h64q8 0 4 -15l-45 -237q-4 -16 -11 -16h-79q-8 0 -1 15zM508 951l47 237 q3 15 11 15h78q8 0 4 -17l-56 -238q-4 -13 -13 -13h-63q-13 0 -8 16z" />
<glyph unicode="&#xa3;" horiz-adv-x="962" d="M22 22l6 25q3 16 6.5 21t13.5 5q67 1 90.5 5.5t35 18.5t20.5 54l91 428h-121q-14 0 -11 15l11 48q3 17 17 17h121l54 259q25 117 62 196t90.5 124t117 63.5t149.5 18.5q153 0 249 -43q19 -8 20.5 -15t-5.5 -29l-50 -243q-4 -16 -7.5 -19t-15.5 -3h-39q-8 0 -10 3.5 t-1 15.5l28 218q-63 28 -184 28q-114 0 -187 -52t-102 -185l-71 -337h270q13 0 10 -19l-10 -40q-3 -12 -7 -16.5t-13 -4.5h-266l-105 -488l404 -2q14 0 19 5.5t11 22.5l48 188q6 20 14 25t26 5h20q13 0 14.5 -7t-3.5 -26q-1 -2 -1.5 -4t-0.5 -4l-57 -274q-3 -14 -7.5 -17 t-15.5 -3h-713q-12 0 -15 4t0 18z" />
<glyph unicode="&#xa4;" horiz-adv-x="1005" d="M99 143l108 108q-62 122 -25 296q38 182 162 306l-57 102l70 41l56 -87q112 76 229 76q135 0 211 -89l97 91l52 -41l-112 -108q36 -72 39.5 -158.5t-20 -165t-60 -145.5t-80.5 -114l69 -106l-82 -47l-63 84q-112 -78 -237 -78q-127 0 -201 76l-97 -89zM285 547 q-34 -158 17 -257.5t171 -99.5q117 0 212.5 100t129.5 257t-19 256.5t-170 99.5q-120 0 -213.5 -99t-127.5 -257z" />
<glyph unicode="&#xa5;" horiz-adv-x="1063" d="M203 359l9 47q5 17 17 17h276l14 76l-3 7h-270q-14 0 -10 17l12 47q0 15 15 15h210q-27 54 -46.5 101.5t-37.5 110t-25.5 123t-5.5 135t18 150.5q2 7 -3 11.5t-18.5 7.5t-34 4.5t-54.5 2.5q-11 0 -12.5 3.5t1.5 14.5l8 36q3 11 6.5 14.5t11.5 3.5h326q15 0 9 -16l-7 -36 q-3 -20 -21 -20q-64 -2 -86 -6.5t-25 -18.5q-17 -78 -18.5 -153.5t7 -135t29.5 -123t41.5 -108t49.5 -98.5q70 70 120.5 127t108.5 136.5t98 169t61 185.5q2 7 -2.5 11.5t-17.5 7.5t-32.5 4t-52.5 2q-14 0 -11 20l8 36q3 9 6 12.5t11 3.5h316q16 0 11 -18l-7 -36 q-3 -12 -5.5 -15t-13.5 -3q-66 -2 -92 -7t-29 -19q-43 -181 -138 -330.5t-229 -289.5h218q13 0 9 -17l-7 -41q-6 -21 -22 -21h-272q-2 -2 -2 -3l-17 -80h278q12 0 9 -19l-9 -41q-6 -19 -21 -19h-274l-37 -175q-16 -70 -3.5 -82.5t100.5 -13.5q9 0 13.5 -2.5t5 -8t0 -9.5 t-3.5 -13.5t-4 -13.5q-3 -17 -6.5 -21.5t-15.5 -4.5h-346q-14 0 -16 4t1 18l5 25q2 11 4 15t6 7.5t11 3.5q37 1 53.5 1.5t35.5 4.5t25 8t14.5 17t11.5 25.5t9 38.5l5 29h2l32 147h-276q-16 0 -9 15z" />
<glyph unicode="&#xa6;" horiz-adv-x="407" d="M32 -266l154 728h97l-155 -728h-96zM210 577l155 724h97l-155 -724h-97z" />
<glyph unicode="&#xa7;" horiz-adv-x="860" d="M17 -112l50 242q5 15 9.5 20t16.5 5h39q19 0 15 -23l-35 -218q81 -31 201 -31q40 0 77 6.5t81.5 25t77.5 59t45 100.5q13 61 8.5 107.5t-23 75.5t-46.5 52.5t-62 37.5t-70 30t-69.5 30.5t-61 40t-45.5 57t-21.5 82t10.5 115.5q25 119 80 186q-27 72 -4 179q16 76 51 128 t84.5 78.5t101 37.5t115.5 11q77 0 142.5 -12.5t92.5 -30.5q12 -7 14.5 -14t-1.5 -27l-54 -249q-3 -17 -6.5 -21t-15.5 -4h-41q-8 0 -10.5 5t-2.5 9v5l33 223q-48 19 -79 25.5t-87 6.5q-205 0 -240 -164q-12 -58 -3.5 -101t32.5 -67t58.5 -44t74.5 -32.5t79 -32t72 -43 t54.5 -65t26.5 -98t-12 -142.5q-13 -59 -34.5 -112.5t-38.5 -68.5q18 -78 -5 -184q-61 -289 -395 -289q-72 0 -158 14.5t-112 30.5q-18 11 -9 48zM309 709q-9 -58 -4.5 -94.5t27 -65t50 -44.5t65.5 -32t71.5 -28.5t69.5 -34t60 -47.5q13 31 24 76q14 53 9 95.5t-16 71 t-35 51.5t-49 37.5t-58 29t-61.5 25.5t-60 28t-53.5 35q-26 -42 -39 -103z" />
<glyph unicode="&#xa8;" horiz-adv-x="573" d="M333 1445q5 26 25.5 44.5t47.5 18.5t38.5 -18t6.5 -45t-25.5 -44.5t-47.5 -17.5t-38.5 17.5t-6.5 44.5zM598 1445q5 26 26.5 44.5t49.5 18.5q27 0 38.5 -18t6.5 -45t-26.5 -44.5t-48.5 -17.5t-39 17.5t-7 44.5z" />
<glyph unicode="&#xa9;" horiz-adv-x="1267" d="M166 618q66 312 247.5 478t415.5 166q155 0 258.5 -73t145 -219t-5.5 -365q-66 -306 -244 -467.5t-411 -161.5q-155 0 -260.5 72t-148 214.5t2.5 355.5zM236 618q-58 -273 40.5 -420.5t308.5 -147.5t361 141.5t210 413.5q60 282 -36.5 432.5t-307.5 150.5 q-208 0 -362 -146t-214 -424zM391 676q40 188 139 284t246 96q62 0 116 -11.5t80 -27.5q9 -7 10.5 -14.5t-3.5 -30.5l-46 -220q-3 -17 -17 -17h-41q-12 0 -9 15l31 203q-47 26 -122 26q-226 0 -293 -322q-18 -84 -19 -146.5t12.5 -101.5t42 -62.5t64 -32.5t85.5 -9 q43 0 75 6.5t100 25.5q12 4 14 -2.5t-3 -21.5l-6 -28q-3 -13 -6.5 -18t-15.5 -10q-81 -30 -172 -30q-55 0 -98.5 9t-80.5 29t-60 54t-35.5 83t-9.5 118t22 156z" />
<glyph unicode="&#xaa;" horiz-adv-x="757" d="M229 974q34 157 122.5 252.5t216.5 95.5q55 0 95.5 -31.5t60.5 -85.5l19 83q2 8 5 11.5t4.5 3.5h8.5h71q14 0 8 -16l-134 -635q-3 -15 -15 -15h-75q-9 0 -10 4t1 14l17 77q-41 -53 -94 -83.5t-107 -30.5q-67 0 -114 27.5t-68.5 75.5t-25.5 113t14 140zM328 970 q-28 -133 5 -200.5t116 -67.5q78 0 138.5 72t86.5 196q26 123 -4.5 195.5t-109.5 72.5q-80 0 -143 -71.5t-89 -196.5z" />
<glyph unicode="&#xab;" horiz-adv-x="774" d="M97 452q-8 14 -7 21t14 20l386 399q12 12 16 14t10 -1l37 -34q5 -4 3.5 -9t-14.5 -19l-343 -366l185 -360q14 -27 3 -33l-52 -32q-7 -5 -11 -2.5t-11 15.5zM344 452q-8 15 -6.5 21.5t14.5 19.5l385 399q12 12 16 14t10 -1l39 -34q5 -8 -13 -28l-340 -366l184 -360 q8 -18 8.5 -23.5t-6.5 -9.5l-52 -32q-11 -9 -23 13z" />
<glyph unicode="&#xac;" horiz-adv-x="919" d="M181 557l18 89h663l-56 -268h-95l37 179h-567z" />
<glyph unicode="&#xad;" horiz-adv-x="752" d="M162 519l9 49q3 7 4 9.5t4.5 5t8.5 2.5h490q12 0 9 -19l-9 -41q-3 -20 -21 -20h-486q-12 0 -9 14z" />
<glyph unicode="&#xae;" horiz-adv-x="1267" d="M166 618q66 312 247.5 478t415.5 166q155 0 258.5 -73t145 -219t-5.5 -365q-66 -306 -244 -467.5t-411 -161.5q-155 0 -260.5 72t-148 214.5t2.5 355.5zM236 618q-58 -273 40.5 -420.5t308.5 -147.5t361 141.5t210 413.5q60 282 -36.5 432.5t-307.5 150.5 q-208 0 -362 -146t-214 -424zM387 268l8 30q6 16 11 17q52 1 65 9.5t21 44.5l102 487h-2l17 75q5 29 -5 37.5t-57 8.5q-6 0 -6.5 4.5t1.5 12.5l5 30q5 13 15 13h216q231 0 175 -255q-41 -191 -173 -240l26 -160q7 -41 17 -56t32 -15q14 0 33 11q8 3 11 2t2 -9l-2 -32 q-1 -13 -5 -17t-15 -9q-35 -13 -67 -13q-26 0 -42.5 8t-25 23.5t-12.5 33t-7 42.5q0 3 -0.5 5.5t-0.5 4.5l-26 166h-9q-48 0 -82 9l-41 -186q-3 -24 7 -29.5t51 -5.5q9 0 10.5 -4t-1.5 -15l-6 -26q-3 -15 -13 -15h-217q-8 0 -10 2.5t0 10.5zM622 611q44 -8 72 -8 q134 0 174 177q19 93 -8 140.5t-89 47.5h-73z" />
<glyph unicode="&#xaf;" horiz-adv-x="590" d="M361 1426l11 47q2 18 19 18h322q12 0 9 -15l-11 -50q-2 -18 -20 -18h-319q-8 0 -10 3.5t-1 14.5z" />
<glyph unicode="&#xb0;" horiz-adv-x="599" d="M246 1048q25 117 97 195.5t169 78.5q99 0 137.5 -79t13.5 -195q-26 -119 -99.5 -196t-166.5 -77q-96 0 -136.5 76t-14.5 197zM341 1050q-19 -90 4 -142t72 -52q45 0 88.5 51.5t62.5 136.5q18 86 -2.5 141t-70.5 55q-46 0 -91 -54.5t-63 -135.5z" />
<glyph unicode="&#xb1;" horiz-adv-x="936" d="M41 -47l20 92h704l-20 -92h-704zM140 434l18 91h306l74 344h95l-74 -344h301l-18 -91h-302l-65 -307h-95l65 307h-305z" />
<glyph unicode="&#xb2;" horiz-adv-x="711" d="M121 572l9 46q4 18 11 24q507 333 585 700q24 111 -10 151.5t-116 40.5q-92 0 -174 -35l-57 -190q-5 -15 -17 -15h-43q-8 0 -9 3t2 16l46 217q3 14 5 19t6 8.5t13 6.5q117 52 244 52q29 0 50.5 -1.5t49.5 -8t46.5 -17t36.5 -31t25.5 -48.5t7.5 -69.5t-11 -94.5 q-43 -204 -190 -384t-363 -318h339q20 0 26 28l35 138q5 15 9 19.5t16 4.5h35q9 0 10.5 -5t-1.5 -21l-50 -233q-3 -12 -5 -14t-10 -2h-542q-12 0 -9 13z" />
<glyph unicode="&#xb3;" horiz-adv-x="683" d="M127 603l9 39q3 13 8 18t11 3q4 0 35.5 -9t79 -17t97.5 -8q107 0 171.5 62t90.5 188q23 110 -14 153.5t-123 43.5h-75q-12 0 -7 21l9 42q0 12 7 19l311 358h-290q-11 0 -18 -9t-14 -31l-28 -121q-3 -18 -20 -18h-36q-9 0 -11 2t0 15l49 229q3 14 5 16t11 2h466 q9 0 10.5 -4.5t-1.5 -17.5l-9 -37q-1 -5 -1.5 -8t-2 -6.5t-2 -5t-3.5 -5t-4.5 -5l-6.5 -6.5t-8 -9l-300 -343h17q131 0 175.5 -63t12.5 -208q-38 -178 -135 -258.5t-230 -80.5q-139 0 -229 33q-12 7 -7 26z" />
<glyph unicode="&#xb4;" horiz-adv-x="500" d="M365 1383l162 177q20 23 39 23h78q8 0 11 -3.5t0 -10t-11 -13.5l-201 -184q-13 -13 -32 -13h-42q-10 0 -11.5 6.5t7.5 17.5z" />
<glyph unicode="&#xb5;" horiz-adv-x="953" d="M41 -397l134 626q4 36 11 63l60 281h3l36 164q9 51 -28 51h-84q-10 0 -7 13q0 3 2 11l5 24q3 16 7.5 21t16.5 5q47 1 65 2.5t45 1.5h73q16 0 19.5 -8t-1.5 -29l-128 -602q-12 -91 13.5 -124.5t87.5 -33.5q106 0 179 80.5t113 267.5l69 320q9 51 -28 51h-82q-5 0 -7 3 t-1.5 7t2.5 14l6 24q3 16 7.5 21t16.5 5q49 1 66.5 2.5t43.5 1.5h73q16 0 19.5 -8t-1.5 -29l-30 -146h4l-100 -471q-13 -58 -10.5 -88.5t11.5 -40t28 -9.5q40 0 51 43q0 2 1 6q6 24 12 27q3 1 13 1h24q13 0 16 -4.5t-1 -23.5q-16 -72 -50.5 -101t-87.5 -29q-125 0 -117 143 q-98 -149 -259 -149q-80 0 -125 32l-89 -416q-3 -13 -11 -13h-79q-10 0 -7 13z" />
<glyph unicode="&#xb6;" horiz-adv-x="729" d="M173 -236l168 793q-65 1 -105.5 54.5t-46.5 139t14 191.5q34 158 131 259.5t215 101.5h220l-326 -1539h-84l309 1454h-104l-309 -1454h-82z" />
<glyph unicode="&#xb7;" horiz-adv-x="450" d="M177 469q7 30 32 50.5t55 20.5q31 0 50 -21t12 -50q-5 -29 -32.5 -50t-58.5 -21q-30 0 -46.5 20.5t-11.5 50.5z" />
<glyph unicode="&#xb8;" horiz-adv-x="428" d="M-104 -326l15 26q13 15 22 10q30 -15 74 -15q78 0 97 87q6 30 -11.5 46.5t-70.5 16.5q-3 0 -12.5 -1t-11 0t-0.5 7t8 19l76 130h76l-56 -101q58 0 78.5 -33.5t9.5 -83.5q-18 -81 -68 -118.5t-115 -37.5q-59 0 -108 20q-8 4 -9 8t6 20z" />
<glyph unicode="&#xb9;" horiz-adv-x="508" d="M119 577l6 26q10 19 16 21q98 2 123.5 9.5t33.5 40.5l169 793q2 10 0.5 13.5t-7 2t-15.5 -9.5l-134 -95q-10 -6 -15 -4t-2 13l9 47q3 15 25 29l178 125q20 13 47 13h20q15 0 12 -15l-196 -912q-5 -33 16.5 -40.5t112.5 -7.5q12 0 13.5 -5.5t-2.5 -19.5l-4 -22 q-3 -13 -7 -16.5t-15 -3.5h-373q-10 0 -11.5 3.5t0.5 14.5z" />
<glyph unicode="&#xba;" horiz-adv-x="824" d="M201 896q18 84 51 157t82 134.5t120 97t155 35.5q76 0 132.5 -26t87.5 -69.5t45.5 -104t12.5 -126.5t-18 -139q-18 -84 -51.5 -158t-83.5 -136t-122 -98.5t-156 -36.5q-76 0 -131.5 26.5t-86 71t-44.5 105.5t-11.5 127.5t18.5 139.5zM298 869q-16 -74 -16 -137 t16.5 -113.5t57 -79.5t102.5 -29q118 0 197.5 101.5t113.5 257.5q15 73 15 137t-16.5 116.5t-57 83t-101.5 30.5q-80 0 -146 -54t-105 -134t-60 -179z" />
<glyph unicode="&#xbb;" horiz-adv-x="774" d="M35 86q-4 3 -2 7.5t12 14.5q6 5 9 9l339 360l-186 366q-8 14 -8 18.5t8 9.5l52 34q9 7 18 -13l218 -399q7 -13 5 -20t-16 -21l-380 -387q-13 -13 -18 -15.5t-12 2.5zM283 86q-3 4 -0.5 8.5t20.5 22.5l336 360l-185 366q-7 14 -7 18.5t7 9.5l52 34q9 8 19 -13l218 -399 q7 -13 5 -20t-16 -21l-380 -387q-13 -13 -18 -15.5t-12 2.5z" />
<glyph unicode="&#xbf;" horiz-adv-x="750" d="M-28 -110q18 83 47.5 140.5t63.5 87t72 50.5t75.5 41.5t71 49t62.5 83.5t46 136l33 155q3 14 5.5 16.5t11.5 2.5h67q13 0 9 -17l-31 -149q-20 -95 -51.5 -161t-66.5 -100t-73 -56.5t-75 -41.5t-69.5 -44t-60 -74t-42.5 -123q-41 -189 175 -189q67 0 107 6.5t109 26.5 l61 235q4 13 8 15.5t17 2.5h39q6 0 8.5 -0.5t6 -2.5t2.5 -6.5t-2 -12.5l-56 -261q-5 -20 -11.5 -28t-22.5 -15q-40 -20 -120 -33t-168 -13q-42 0 -76.5 4.5t-68.5 16.5t-56 32t-39 51t-17 74t9 101zM462 810q7 31 30 52.5t52 21.5q27 0 43 -22t9 -52q-6 -34 -30 -53.5 t-52 -19.5q-30 0 -44.5 19t-7.5 54z" />
<glyph unicode="&#xc0;" horiz-adv-x="1104" d="M-24 22l5 25q3 12 6.5 18t6 7t6.5 1q89 2 111.5 13.5t33.5 64.5l19 87q51 243 114 439t138 341.5t162.5 224.5t181.5 79q124 0 182 -137t48.5 -378.5t-80.5 -568.5l-22 -104q-8 -42 9 -50.5t95 -10.5q8 0 12.5 -2.5t5.5 -7.5t0 -9.5l-3 -13.5t-3 -14q-3 -16 -7 -21 t-16 -5h-348q-14 0 -16 3t1 19l6 25q3 16 6.5 21t13.5 5q88 1 111 13.5t34 64.5l19 87q19 88 28 155h-549q-32 -143 -34 -155l-22 -104q-8 -42 9.5 -50.5t96.5 -10.5q9 0 13.5 -2.5t5 -8t0 -9.5t-3.5 -13.5t-4 -13.5q-3 -17 -6.5 -21.5t-17.5 -4.5h-335q-12 0 -13.5 3 t0.5 19zM309 480h544q57 346 28.5 550t-140.5 204q-113 0 -225.5 -200.5t-206.5 -553.5zM631 1592q-5 11 -1.5 18.5t14.5 7.5h69q14 0 20.5 -4.5t11.5 -17.5l102 -213q13 -22 -11 -22h-41q-18 0 -35 26z" />
<glyph unicode="&#xc1;" horiz-adv-x="1104" d="M-24 22l5 25q3 12 6.5 18t6 7t6.5 1q89 2 111.5 13.5t33.5 64.5l19 87q51 243 114 439t138 341.5t162.5 224.5t181.5 79q124 0 182 -137t48.5 -378.5t-80.5 -568.5l-22 -104q-8 -42 9 -50.5t95 -10.5q8 0 12.5 -2.5t5.5 -7.5t0 -9.5l-3 -13.5t-3 -14q-3 -16 -7 -21 t-16 -5h-348q-14 0 -16 3t1 19l6 25q3 16 6.5 21t13.5 5q88 1 111 13.5t34 64.5l19 87q19 88 28 155h-549q-32 -143 -34 -155l-22 -104q-8 -42 9.5 -50.5t96.5 -10.5q9 0 13.5 -2.5t5 -8t0 -9.5t-3.5 -13.5t-4 -13.5q-3 -17 -6.5 -21.5t-17.5 -4.5h-335q-12 0 -13.5 3 t0.5 19zM309 480h544q57 346 28.5 550t-140.5 204q-113 0 -225.5 -200.5t-206.5 -553.5zM724 1402l160 177q19 22 39 22h79q8 0 11 -3.5t0 -9.5t-11 -13l-201 -184q-13 -13 -32 -13h-43q-10 0 -11.5 6.5t9.5 17.5z" />
<glyph unicode="&#xc2;" horiz-adv-x="1104" d="M-24 22l5 25q3 12 6.5 18t6 7t6.5 1q89 2 111.5 13.5t33.5 64.5l19 87q51 243 114 439t138 341.5t162.5 224.5t181.5 79q124 0 182 -137t48.5 -378.5t-80.5 -568.5l-22 -104q-8 -42 9 -50.5t95 -10.5q8 0 12.5 -2.5t5.5 -7.5t0 -9.5l-3 -13.5t-3 -14q-3 -16 -7 -21 t-16 -5h-348q-14 0 -16 3t1 19l6 25q3 16 6.5 21t13.5 5q88 1 111 13.5t34 64.5l19 87q19 88 28 155h-549q-32 -143 -34 -155l-22 -104q-8 -42 9.5 -50.5t96.5 -10.5q9 0 13.5 -2.5t5 -8t0 -9.5t-3.5 -13.5t-4 -13.5q-3 -17 -6.5 -21.5t-17.5 -4.5h-335q-12 0 -13.5 3 t0.5 19zM309 480h544q57 346 28.5 550t-140.5 204q-113 0 -225.5 -200.5t-206.5 -553.5zM579 1381q-2 16 15 30l169 159q14 14 34 14h41q21 0 30 -14l102 -159q7 -9 2.5 -23.5t-14.5 -20.5t-20 1l-139 133l-192 -133q-15 -5 -18.5 -3t-9.5 16z" />
<glyph unicode="&#xc3;" horiz-adv-x="1104" d="M-24 22l5 25q3 12 6.5 18t6 7t6.5 1q89 2 111.5 13.5t33.5 64.5l19 87q51 243 114 439t138 341.5t162.5 224.5t181.5 79q124 0 182 -137t48.5 -378.5t-80.5 -568.5l-22 -104q-8 -42 9 -50.5t95 -10.5q8 0 12.5 -2.5t5.5 -7.5t0 -9.5l-3 -13.5t-3 -14q-3 -16 -7 -21 t-16 -5h-348q-14 0 -16 3t1 19l6 25q3 16 6.5 21t13.5 5q88 1 111 13.5t34 64.5l19 87q19 88 28 155h-549q-32 -143 -34 -155l-22 -104q-8 -42 9.5 -50.5t96.5 -10.5q9 0 13.5 -2.5t5 -8t0 -9.5t-3.5 -13.5t-4 -13.5q-3 -17 -6.5 -21.5t-17.5 -4.5h-335q-12 0 -13.5 3 t0.5 19zM309 480h544q57 346 28.5 550t-140.5 204q-113 0 -225.5 -200.5t-206.5 -553.5zM629 1406q-12 7 0 24q62 91 121 91q23 0 43 -10t31.5 -21.5t26.5 -21.5t30 -10q14 0 24.5 9t25.5 35q9 17 19 10l27 -19q7 -6 0 -20q-30 -48 -57.5 -71.5t-61.5 -23.5q-28 0 -51 16 t-41 31.5t-34 15.5q-13 0 -23.5 -9t-32.5 -36q-11 -13 -21 -7z" />
<glyph unicode="&#xc4;" horiz-adv-x="1104" d="M-24 22l5 25q3 12 6.5 18t6 7t6.5 1q89 2 111.5 13.5t33.5 64.5l19 87q51 243 114 439t138 341.5t162.5 224.5t181.5 79q124 0 182 -137t48.5 -378.5t-80.5 -568.5l-22 -104q-8 -42 9 -50.5t95 -10.5q8 0 12.5 -2.5t5.5 -7.5t0 -9.5l-3 -13.5t-3 -14q-3 -16 -7 -21 t-16 -5h-348q-14 0 -16 3t1 19l6 25q3 16 6.5 21t13.5 5q88 1 111 13.5t34 64.5l19 87q19 88 28 155h-549q-32 -143 -34 -155l-22 -104q-8 -42 9.5 -50.5t96.5 -10.5q9 0 13.5 -2.5t5 -8t0 -9.5t-3.5 -13.5t-4 -13.5q-3 -17 -6.5 -21.5t-17.5 -4.5h-335q-12 0 -13.5 3 t0.5 19zM309 480h544q57 346 28.5 550t-140.5 204q-113 0 -225.5 -200.5t-206.5 -553.5zM596 1445q5 26 25 44.5t47 18.5t38.5 -18t6.5 -45t-25.5 -44.5t-47.5 -17.5t-38 17.5t-6 44.5zM860 1445q5 26 26.5 44.5t49.5 18.5q27 0 38.5 -18t6.5 -45t-26 -44.5t-48 -17.5 t-39.5 17.5t-7.5 44.5z" />
<glyph unicode="&#xc5;" horiz-adv-x="1104" d="M-24 22l5 25q3 12 6.5 18t6 7t6.5 1q89 2 111.5 13.5t33.5 64.5l19 87q51 243 114 439t138 341.5t162.5 224.5t181.5 79q124 0 182 -137t48.5 -378.5t-80.5 -568.5l-22 -104q-8 -42 9 -50.5t95 -10.5q8 0 12.5 -2.5t5.5 -7.5t0 -9.5l-3 -13.5t-3 -14q-3 -16 -7 -21 t-16 -5h-348q-14 0 -16 3t1 19l6 25q3 16 6.5 21t13.5 5q88 1 111 13.5t34 64.5l19 87q19 88 28 155h-549q-32 -143 -34 -155l-22 -104q-8 -42 9.5 -50.5t96.5 -10.5q9 0 13.5 -2.5t5 -8t0 -9.5t-3.5 -13.5t-4 -13.5q-3 -17 -6.5 -21.5t-17.5 -4.5h-335q-12 0 -13.5 3 t0.5 19zM309 480h544q57 346 28.5 550t-140.5 204q-113 0 -225.5 -200.5t-206.5 -553.5zM631 1504q13 57 61.5 95.5t136.5 38.5q89 0 120.5 -38.5t18.5 -95.5q-11 -57 -59.5 -96.5t-137.5 -39.5q-88 0 -119.5 39t-20.5 97zM709 1504q-6 -31 9.5 -51.5t65.5 -20.5 q89 0 104 72q6 29 -10 50t-64 21q-89 0 -105 -71z" />
<glyph unicode="&#xc6;" horiz-adv-x="1502" d="M-24 22l5 25q3 12 6.5 18t6 7t6.5 1q89 2 111.5 13.5t33.5 64.5l19 87q51 243 114 439t138 341.5t162.5 224.5t181.5 79q181 0 219 -281l52 244q3 12 5.5 15t13.5 3h516q9 0 12 -0.5t5.5 -5t-0.5 -14.5l-60 -278q-7 -35 -28 -35h-30q-13 0 -15.5 5.5t0.5 16.5l28 185 q3 18 1 26.5t-16 8.5l-350 -2l-108 -506h237q12 0 16 -3.5t1 -17.5l-10 -43q-5 -17 -10 -22t-20 -5h-234l-39 -187q-15 -81 -36 -188l-22 -104q-8 -28 0 -41l363 -2q14 0 19 7.5t11 28.5l50 184q8 22 28 22h30q12 0 13.5 -10t-2.5 -25l-59 -278q-3 -14 -7 -17t-16 -3h-685 q-14 0 -16 3t1 19l6 25q3 16 6.5 21t13.5 5q88 1 111 13.5t34 64.5l19 87q19 88 28 155h-549q-32 -143 -34 -155l-22 -104q-8 -42 9.5 -50.5t96.5 -10.5q9 0 13.5 -2.5t5 -8t0 -9.5t-3.5 -13.5t-4 -13.5q-3 -17 -6.5 -21.5t-17.5 -4.5h-335q-12 0 -13.5 3t0.5 19zM309 480 h544q57 346 28.5 550t-140.5 204q-113 0 -225.5 -200.5t-206.5 -553.5z" />
<glyph unicode="&#xc7;" horiz-adv-x="1003" d="M168 642q72 340 227.5 510t384.5 170q199 0 305 -37q17 -7 19.5 -14t-2.5 -33l-61 -287q-2 -11 -4.5 -15.5t-5.5 -5.5t-11 -1h-48q-13 0 -15.5 4t0.5 15l37 260q-86 28 -210 28q-185 0 -317 -150t-197 -451q-63 -293 10.5 -426t272.5 -133q119 0 313 45q13 3 17.5 -1 t0.5 -18l-5 -31q-5 -22 -12 -29t-25 -12q-172 -43 -300 -43h-10l-39 -73q57 0 77 -33t9 -84q-17 -81 -67 -118.5t-115 -37.5q-62 0 -108 20q-9 4 -10.5 8t6.5 20l15 26q10 14 22 9q31 -14 75 -14q77 0 96 87q6 30 -10.5 46.5t-69.5 16.5q-3 0 -13 -1t-11.5 0t-1 7t7.5 19 l63 108q-208 23 -282.5 179t-7.5 470z" />
<glyph unicode="&#xc8;" horiz-adv-x="880" d="M106 371q15 68 41 121t55.5 85t67.5 55.5t70 35t71 19.5q-29 6 -54.5 25t-49 58.5t-27 99.5t11.5 148q61 304 373 304q180 0 277 -43q17 -8 18.5 -15.5t-5.5 -29.5l-50 -242q-4 -16 -7.5 -19t-13.5 -3h-41q-8 0 -10 3.5t-1 15.5l28 217q-65 28 -197 28 q-109 0 -179.5 -48.5t-96.5 -170.5q-60 -285 205 -285h108q10 0 12 -5.5t-1 -20.5l-7 -34q-5 -17 -9 -22.5t-14 -5.5h-108q-301 0 -361 -283q-33 -151 26 -219.5t214 -68.5q49 0 104.5 7t92 14.5t71 16t36.5 8.5q10 3 12 -1t-1 -17l-11 -52q-4 -17 -28 -25 q-44 -16 -124 -28.5t-166 -12.5q-53 0 -96.5 5t-84.5 17t-71 31.5t-52.5 50t-33.5 70.5t-10 94.5t16 121.5zM559 1592q-5 11 -1.5 18.5t14.5 7.5h68q14 0 20.5 -4.5t11.5 -17.5l103 -213q13 -22 -12 -22h-41q-18 0 -35 26z" />
<glyph unicode="&#xc9;" horiz-adv-x="880" d="M106 371q15 68 41 121t55.5 85t67.5 55.5t70 35t71 19.5q-29 6 -54.5 25t-49 58.5t-27 99.5t11.5 148q61 304 373 304q180 0 277 -43q17 -8 18.5 -15.5t-5.5 -29.5l-50 -242q-4 -16 -7.5 -19t-13.5 -3h-41q-8 0 -10 3.5t-1 15.5l28 217q-65 28 -197 28 q-109 0 -179.5 -48.5t-96.5 -170.5q-60 -285 205 -285h108q10 0 12 -5.5t-1 -20.5l-7 -34q-5 -17 -9 -22.5t-14 -5.5h-108q-301 0 -361 -283q-33 -151 26 -219.5t214 -68.5q49 0 104.5 7t92 14.5t71 16t36.5 8.5q10 3 12 -1t-1 -17l-11 -52q-4 -17 -28 -25 q-44 -16 -124 -28.5t-166 -12.5q-53 0 -96.5 5t-84.5 17t-71 31.5t-52.5 50t-33.5 70.5t-10 94.5t16 121.5zM653 1402l161 177q19 22 39 22h78q8 0 11 -3.5t0 -9.5t-11 -13l-201 -184q-13 -13 -32 -13h-43q-10 0 -11.5 6.5t9.5 17.5z" />
<glyph unicode="&#xca;" horiz-adv-x="880" d="M106 371q15 68 41 121t55.5 85t67.5 55.5t70 35t71 19.5q-29 6 -54.5 25t-49 58.5t-27 99.5t11.5 148q61 304 373 304q180 0 277 -43q17 -8 18.5 -15.5t-5.5 -29.5l-50 -242q-4 -16 -7.5 -19t-13.5 -3h-41q-8 0 -10 3.5t-1 15.5l28 217q-65 28 -197 28 q-109 0 -179.5 -48.5t-96.5 -170.5q-60 -285 205 -285h108q10 0 12 -5.5t-1 -20.5l-7 -34q-5 -17 -9 -22.5t-14 -5.5h-108q-301 0 -361 -283q-33 -151 26 -219.5t214 -68.5q49 0 104.5 7t92 14.5t71 16t36.5 8.5q10 3 12 -1t-1 -17l-11 -52q-4 -17 -28 -25 q-44 -16 -124 -28.5t-166 -12.5q-53 0 -96.5 5t-84.5 17t-71 31.5t-52.5 50t-33.5 70.5t-10 94.5t16 121.5zM508 1381q-2 16 15 30l170 159q14 14 33 14h41q21 0 30 -14l102 -159q11 -14 -4 -36q-14 -20 -27 -7l-140 133l-192 -133q-15 -5 -18.5 -3t-9.5 16z" />
<glyph unicode="&#xcb;" horiz-adv-x="880" d="M106 371q15 68 41 121t55.5 85t67.5 55.5t70 35t71 19.5q-29 6 -54.5 25t-49 58.5t-27 99.5t11.5 148q61 304 373 304q180 0 277 -43q17 -8 18.5 -15.5t-5.5 -29.5l-50 -242q-4 -16 -7.5 -19t-13.5 -3h-41q-8 0 -10 3.5t-1 15.5l28 217q-65 28 -197 28 q-109 0 -179.5 -48.5t-96.5 -170.5q-60 -285 205 -285h108q10 0 12 -5.5t-1 -20.5l-7 -34q-5 -17 -9 -22.5t-14 -5.5h-108q-301 0 -361 -283q-33 -151 26 -219.5t214 -68.5q49 0 104.5 7t92 14.5t71 16t36.5 8.5q10 3 12 -1t-1 -17l-11 -52q-4 -17 -28 -25 q-44 -16 -124 -28.5t-166 -12.5q-53 0 -96.5 5t-84.5 17t-71 31.5t-52.5 50t-33.5 70.5t-10 94.5t16 121.5zM525 1445q5 26 25.5 44.5t47.5 18.5t38.5 -18t5.5 -45q-5 -27 -25 -44.5t-47 -17.5t-38.5 17.5t-6.5 44.5zM789 1445q5 26 27 44.5t50 18.5q27 0 38.5 -18t5.5 -45 q-5 -27 -26 -44.5t-48 -17.5t-39.5 17.5t-7.5 44.5z" />
<glyph unicode="&#xcc;" horiz-adv-x="554" d="M22 22l6 25q5 23 13 25q3 1 7 1q37 1 53.5 1.5t35.5 4.5t25 8t14.5 17t11.5 25.5t9 38.5l207 977h2q13 60 -1.5 72t-97.5 14q-16 0 -18.5 5.5t1.5 23.5q1 3 2.5 10.5t2 11t2.5 8.5t4.5 7t6.5 4t10 2h345q12 0 14 -4t-1 -18l-6 -24q-5 -23 -13 -25q-3 -1 -7 -1 q-36 -1 -52.5 -1.5t-35.5 -4.5t-25 -8t-14 -17t-11 -25.5t-9 -38.5l-6 -30h-2l-205 -961q-11 -50 5 -60t98 -12q9 0 13.5 -2.5t5 -8t0 -9.5t-3.5 -13.5t-4 -13.5q-3 -17 -6.5 -21.5t-15.5 -4.5h-345q-14 0 -16 4t1 18zM361 1592q-5 11 -1.5 18.5t14.5 7.5h69q14 0 20.5 -4.5 t11.5 -17.5l102 -213q13 -22 -11 -22h-41q-18 0 -35 26z" />
<glyph unicode="&#xcd;" horiz-adv-x="554" d="M22 22l6 25q5 23 13 25q3 1 7 1q36 1 52.5 1.5t35.5 4.5t25.5 8t15 16.5t11.5 25.5l9 39l207 977h2q13 60 -1.5 72t-97.5 14q-16 0 -18.5 5.5t1.5 23.5q1 3 2.5 10.5t2 11t2.5 8.5t4.5 7t6.5 4t10 2h345q12 0 14 -4t-1 -18l-6 -24q-5 -23 -13 -25q-3 -1 -7 -1 q-91 -2 -112 -13.5t-35 -72.5l-213 -1000h-1q-11 -50 5.5 -60t98.5 -12q9 0 13.5 -2.5t5 -8t0 -9.5t-3.5 -13.5t-4 -13.5q-3 -17 -7 -21.5t-17 -4.5h-343q-14 0 -16 4t1 18zM454 1402l160 177q19 22 39 22h79q8 0 11 -3.5t0 -9.5t-11 -13l-201 -184q-13 -13 -32 -13h-43 q-10 0 -11.5 6.5t9.5 17.5z" />
<glyph unicode="&#xce;" horiz-adv-x="554" d="M22 22l6 25q5 23 13 25q3 1 7 1q37 1 53.5 1.5t35.5 4.5t25 8t14.5 17t11.5 25.5t9 38.5l207 977h2q13 60 -1.5 72t-97.5 14q-16 0 -18.5 5.5t1.5 23.5q1 3 2.5 10.5t2 11t2.5 8.5t4.5 7t6.5 4t10 2h345q12 0 14 -4t-1 -18l-6 -24q-5 -23 -13 -25q-3 -1 -7 -1 q-36 -1 -52.5 -1.5t-35.5 -4.5t-25 -8t-14 -17t-11 -25.5t-9 -38.5l-6 -30h-2l-205 -961q-11 -50 5 -60t98 -12q9 0 13.5 -2.5t5 -8t0 -9.5t-3.5 -13.5t-4 -13.5q-3 -17 -6.5 -21.5t-15.5 -4.5h-345q-14 0 -16 4t1 18zM309 1381q-2 16 15 30l169 159q14 14 34 14h41 q21 0 30 -14l102 -159q7 -9 2.5 -23.5t-14.5 -20.5t-20 1l-139 133l-192 -133q-15 -5 -18.5 -3t-9.5 16z" />
<glyph unicode="&#xcf;" horiz-adv-x="554" d="M22 22l6 25q5 23 13 25q3 1 7 1q37 1 53.5 1.5t35.5 4.5t25 8t14.5 17t11.5 25.5t9 38.5l207 977h2q13 60 -1.5 72t-97.5 14q-16 0 -18.5 5.5t1.5 23.5q1 3 2.5 10.5t2 11t2.5 8.5t4.5 7t6.5 4t10 2h345q12 0 14 -4t-1 -18l-6 -24q-5 -23 -13 -25q-3 -1 -7 -1 q-36 -1 -52.5 -1.5t-35.5 -4.5t-25 -8t-14 -17t-11 -25.5t-9 -38.5l-6 -30h-2l-205 -961q-11 -50 5 -60t98 -12q9 0 13.5 -2.5t5 -8t0 -9.5t-3.5 -13.5t-4 -13.5q-3 -17 -6.5 -21.5t-15.5 -4.5h-345q-14 0 -16 4t1 18zM326 1445q5 26 25 44.5t47 18.5t38.5 -18t6.5 -45 t-25 -44.5t-47 -17.5t-38.5 17.5t-6.5 44.5zM590 1445q5 26 27 44.5t50 18.5q27 0 38.5 -18t5.5 -45q-5 -27 -26 -44.5t-48 -17.5t-39.5 17.5t-7.5 44.5z" />
<glyph unicode="&#xd0;" horiz-adv-x="1130" d="M28 22l6 25q3 16 6.5 21t13.5 5q82 2 105.5 10.5t32.5 46.5l111 520h-134q-14 0 -9 17l11 52q2 15 13 15h136l93 433q9 44 -8.5 53t-102.5 11q-12 0 -15 4t0 16l7 32q3 14 7 17t16 3h348q575 0 432 -674q-66 -315 -237 -472t-456 -157h-361q-12 0 -15 4t0 18zM283 86h130 q234 0 376.5 137.5t202.5 422.5q124 575 -339 575h-128l-104 -487h218q14 0 11 -13l-11 -53q-4 -18 -21 -18h-214z" />
<glyph unicode="&#xd1;" d="M26 22l6 25q3 15 7.5 20.5t16.5 5.5q34 1 50 1.5t33.5 4.5t23.5 7.5t13.5 16t10 23.5t8.5 36l215 1003q8 44 -10.5 54t-105.5 12q-10 0 -11.5 6.5t2.5 19.5l5 24q3 14 7.5 18t15.5 4h175q30 0 41 -33l303 -1147l218 1029q12 51 -5.5 64.5t-106.5 14.5q-10 0 -11.5 6.5 t2.5 19.5l6 24q3 14 7 18t15 4h335q8 0 12 -2.5t4 -7.5t-0.5 -9t-3 -12t-3.5 -12q-3 -19 -7.5 -24t-20.5 -5q-83 -2 -103 -13.5t-31 -66.5l-236 -1108q-9 -43 -32 -43h-44q-35 0 -43 24l-294 1102l-205 -962q-5 -24 -7 -35.5t0 -24t7 -16.5t19 -8.5t31 -5t49 -1.5 q8 0 12.5 -2.5t5 -7.5t0 -9.5t-3 -13.5t-3.5 -14q-2 -10 -2.5 -13t-3 -7t-6.5 -5t-11 -1h-333q-12 0 -14 4t1 18zM657 1406q-12 7 0 24q62 91 121 91q23 0 43 -10t31.5 -21.5t26.5 -21.5t30 -10q14 0 24.5 9t25.5 35q9 16 18 10l28 -19q7 -6 0 -20q-30 -48 -57.5 -71.5 t-61.5 -23.5q-28 0 -51 16t-41 31.5t-34 15.5q-13 0 -23.5 -9t-32.5 -36q-11 -13 -21 -7z" />
<glyph unicode="&#xd2;" d="M169 672q41 191 123 335t208.5 229.5t281.5 85.5q128 0 217 -52t131 -144.5t49.5 -219t-27.5 -275.5q-65 -299 -223.5 -474.5t-392.5 -175.5q-128 0 -216 52t-129.5 144.5t-48.5 219t27 275.5zM274 655q-57 -272 14 -428t252 -156q180 0 314.5 155.5t191.5 428.5 q58 271 -12.5 424.5t-253.5 153.5q-180 0 -313.5 -153.5t-192.5 -424.5zM672 1592q-5 11 -1.5 18.5t14.5 7.5h69q14 0 20.5 -4.5t11.5 -17.5l102 -213q13 -22 -11 -22h-41q-18 0 -35 26z" />
<glyph unicode="&#xd3;" d="M169 672q41 191 123 335t208.5 229.5t281.5 85.5q128 0 217 -52t131 -144.5t49.5 -219t-27.5 -275.5q-65 -299 -223.5 -474.5t-392.5 -175.5q-128 0 -216 52t-129.5 144.5t-48.5 219t27 275.5zM274 655q-57 -272 14 -428t252 -156q180 0 314.5 155.5t191.5 428.5 q58 271 -12.5 424.5t-253.5 153.5q-180 0 -313.5 -153.5t-192.5 -424.5zM763 1402l160 177q19 22 40 22h78q8 0 11 -3.5t0 -9.5t-11 -13l-201 -184q-13 -13 -32 -13h-43q-10 0 -11.5 6.5t9.5 17.5z" />
<glyph unicode="&#xd4;" d="M169 672q41 191 123 335t208.5 229.5t281.5 85.5q128 0 217 -52t131 -144.5t49.5 -219t-27.5 -275.5q-65 -299 -223.5 -474.5t-392.5 -175.5q-128 0 -216 52t-129.5 144.5t-48.5 219t27 275.5zM274 655q-57 -272 14 -428t252 -156q180 0 314.5 155.5t191.5 428.5 q58 271 -12.5 424.5t-253.5 153.5q-180 0 -313.5 -153.5t-192.5 -424.5zM618 1381q-2 16 15 30l169 159q14 14 34 14h41q21 0 30 -14l102 -159q7 -9 2.5 -23.5t-14.5 -20.5t-20 1l-139 133l-192 -133q-15 -5 -18.5 -3t-9.5 16z" />
<glyph unicode="&#xd5;" d="M169 672q41 191 123 335t208.5 229.5t281.5 85.5q128 0 217 -52t131 -144.5t49.5 -219t-27.5 -275.5q-65 -299 -223.5 -474.5t-392.5 -175.5q-128 0 -216 52t-129.5 144.5t-48.5 219t27 275.5zM274 655q-57 -272 14 -428t252 -156q180 0 314.5 155.5t191.5 428.5 q58 271 -12.5 424.5t-253.5 153.5q-180 0 -313.5 -153.5t-192.5 -424.5zM670 1406q-12 7 0 24q62 91 121 91q37 0 74 -31.5t57 -31.5q14 0 24.5 9t25.5 35q9 16 18 10l28 -19q7 -6 0 -20q-30 -48 -57.5 -71.5t-61.5 -23.5q-28 0 -51 16t-41 31.5t-34 15.5q-13 0 -23.5 -9 t-32.5 -36q-11 -13 -21 -7z" />
<glyph unicode="&#xd6;" d="M169 672q41 191 123 335t208.5 229.5t281.5 85.5q128 0 217 -52t131 -144.5t49.5 -219t-27.5 -275.5q-65 -299 -223.5 -474.5t-392.5 -175.5q-128 0 -216 52t-129.5 144.5t-48.5 219t27 275.5zM274 655q-57 -272 14 -428t252 -156q180 0 314.5 155.5t191.5 428.5 q58 271 -12.5 424.5t-253.5 153.5q-180 0 -313.5 -153.5t-192.5 -424.5zM635 1445q5 26 25 44.5t47 18.5t38.5 -18t6.5 -45t-25 -44.5t-47 -17.5t-38.5 17.5t-6.5 44.5zM899 1445q5 26 27 44.5t50 18.5q27 0 38.5 -18t5.5 -45q-5 -27 -26 -44.5t-48 -17.5t-39.5 17.5 t-7.5 44.5z" />
<glyph unicode="&#xd7;" horiz-adv-x="787" d="M97 184l274 293l-181 281l69 67l182 -281l274 292l48 -61l-275 -293l177 -281l-67 -67l-181 279l-274 -290z" />
<glyph unicode="&#xd8;" d="M169 672q41 191 123 335t208.5 229.5t281.5 85.5q102 0 179 -34l44 80q8 17 19 17h80q15 0 4 -20l-69 -125q103 -84 131 -245.5t-18 -363.5q-65 -299 -223.5 -474.5t-392.5 -175.5q-88 0 -167 28l-62 -113q-7 -13 -26 -13h-78q-13 0 -2 13l86 160q-106 83 -135.5 245.5 t17.5 370.5zM274 655q-37 -177 -20.5 -306.5t85.5 -199.5l575 1056q-55 28 -134 28q-180 0 -313.5 -153.5t-192.5 -424.5zM413 95q49 -24 127 -24q180 0 314.5 155.5t191.5 428.5q74 348 -57 492z" />
<glyph unicode="&#xd9;" horiz-adv-x="1158" d="M235 449l147 690l7.5 37.5t0 25t-6.5 16.5t-20 7.5t-31 4t-49 1.5q-16 0 -18.5 5.5t1.5 23.5q1 3 2 9.5t2 9t2.5 7.5t3 7t4.5 5t6.5 4t7.5 1h350q14 0 16 -4t-1 -18l-6 -24q-3 -17 -6 -21.5t-14 -4.5q-88 -1 -111 -14t-34 -65l-149 -703q-39 -183 12 -280.5t187 -97.5 q134 0 224.5 97t129.5 281l147 690l7.5 37.5t0 24.5t-7 16.5t-20.5 8t-31.5 4t-49.5 1.5q-15 0 -17.5 5.5t1.5 23.5q0 2 1.5 8.5t1.5 8.5t1.5 7t2.5 6.5t3 5t4.5 4.5t6.5 2t8 1h336q12 0 14 -4t-1 -18l-6 -24q-2 -10 -4.5 -16t-6 -8t-5 -2h-5.5q-81 -2 -106 -12t-35 -48 l-153 -722q-47 -223 -160.5 -345.5t-291.5 -122.5q-193 0 -266 123t-26 345zM672 1592q-5 11 -1.5 18.5t14.5 7.5h69q14 0 20.5 -4.5t11.5 -17.5l102 -213q13 -22 -11 -22h-41q-18 0 -35 26z" />
<glyph unicode="&#xda;" horiz-adv-x="1158" d="M235 449l147 690l7.5 37.5t0 25t-6.5 16.5t-20 7.5t-31 4t-49 1.5q-16 0 -18.5 5.5t1.5 23.5q1 3 2 9.5t2 9t2.5 7.5t3 7t4.5 5t6.5 4t7.5 1h350q14 0 16 -4t-1 -18l-6 -24q-3 -17 -6 -21.5t-14 -4.5q-88 -1 -111 -14t-34 -65l-149 -703q-39 -183 12 -280.5t187 -97.5 q134 0 224.5 97t129.5 281l147 690l7.5 37.5t0 24.5t-7 16.5t-20.5 8t-31.5 4t-49.5 1.5q-15 0 -17.5 5.5t1.5 23.5q0 2 1.5 8.5t1.5 8.5t1.5 7t2.5 6.5t3 5t4.5 4.5t6.5 2t8 1h336q12 0 14 -4t-1 -18l-6 -24q-2 -10 -4.5 -16t-6 -8t-5 -2h-5.5q-81 -2 -106 -12t-35 -48 l-153 -722q-47 -223 -160.5 -345.5t-291.5 -122.5q-193 0 -266 123t-26 345zM765 1402l160 177q19 22 39 22h79q8 0 11 -3.5t0 -9.5t-11 -13l-201 -184q-13 -13 -32 -13h-43q-10 0 -11.5 6.5t9.5 17.5z" />
<glyph unicode="&#xdb;" horiz-adv-x="1156" d="M235 449l147 690l7.5 37.5t0 25t-6.5 16.5t-20 7.5t-31 4t-49 1.5q-16 0 -18.5 5.5t1.5 23.5q1 3 2 9.5t2 9t2.5 7.5t3 7t4.5 5t6.5 4t7.5 1h350q14 0 16 -4t-1 -18l-6 -24q-3 -17 -6 -21.5t-14 -4.5q-88 -1 -111 -14t-34 -65l-149 -703q-39 -183 12 -280.5t187 -97.5 q134 0 224.5 97t129.5 281l147 690l7.5 37.5t0 24.5t-7 16.5t-20.5 8t-31.5 4t-49.5 1.5q-15 0 -17.5 5.5t1.5 23.5q0 2 1.5 8.5t1.5 8.5t1.5 7t2.5 6.5t3 5t4.5 4.5t6.5 2t8 1h336q12 0 14 -4t-1 -18l-6 -24q-2 -10 -4.5 -16t-6 -8t-5 -2h-5.5q-81 -2 -106 -12t-35 -48 l-153 -722q-47 -223 -160.5 -345.5t-291.5 -122.5q-193 0 -266 123t-26 345zM616 1381q-2 16 15 30l170 159q14 14 33 14h41q21 0 30 -14l102 -159q11 -14 -4 -36q-14 -20 -27 -7l-140 133l-192 -133q-15 -5 -18.5 -3t-9.5 16z" />
<glyph unicode="&#xdc;" horiz-adv-x="1158" d="M235 449l147 690l7.5 37.5t0 25t-6.5 16.5t-20 7.5t-31 4t-49 1.5q-16 0 -18.5 5.5t1.5 23.5q1 3 2 9.5t2 9t2.5 7.5t3 7t4.5 5t6.5 4t7.5 1h350q14 0 16 -4t-1 -18l-6 -24q-3 -17 -6 -21.5t-14 -4.5q-88 -1 -111 -14t-34 -65l-149 -703q-39 -183 12 -280.5t187 -97.5 q134 0 224.5 97t129.5 281l147 690l7.5 37.5t0 24.5t-7 16.5t-20.5 8t-31.5 4t-49.5 1.5q-15 0 -17.5 5.5t1.5 23.5q0 2 1.5 8.5t1.5 8.5t1.5 7t2.5 6.5t3 5t4.5 4.5t6.5 2t8 1h336q12 0 14 -4t-1 -18l-6 -24q-2 -10 -4.5 -16t-6 -8t-5 -2h-5.5q-81 -2 -106 -12t-35 -48 l-153 -722q-47 -223 -160.5 -345.5t-291.5 -122.5q-193 0 -266 123t-26 345zM635 1445q5 26 25 44.5t47 18.5t38.5 -18t6.5 -45t-25 -44.5t-47 -17.5t-38.5 17.5t-6.5 44.5zM899 1445q5 26 27 44.5t50 18.5q27 0 38.5 -18t5.5 -45q-5 -27 -26 -44.5t-48 -17.5t-39.5 17.5 t-7.5 44.5z" />
<glyph unicode="&#xdd;" horiz-adv-x="1012" d="M231 1249l7 36q3 11 7 14.5t12 3.5h326q15 0 9 -16l-7 -36q-3 -20 -21 -20q-64 -2 -86.5 -6.5t-25.5 -18.5q-17 -78 -18.5 -153.5t7.5 -135t30 -123t41.5 -107.5t49.5 -99q70 70 120.5 127t108.5 136.5t98 169t61 185.5q2 7 -2.5 11.5t-17.5 7.5t-32.5 4t-52.5 2 q-14 0 -11 20l8 36q3 7 4 9.5t4 4.5t8 2h317q16 0 11 -18l-7 -36q-3 -12 -5.5 -15t-13.5 -3q-66 -2 -92 -7t-29 -19q-21 -88 -59 -174.5t-78 -153t-98 -140t-102 -121t-106 -111.5l-77 -360q-11 -50 5 -60t100 -12q9 0 13.5 -2.5t5 -8t0 -9.5t-3.5 -13.5t-4 -13.5 q-3 -17 -7 -21.5t-17 -4.5h-345q-14 0 -16 4t1 18l6 25q0 1 1 3q4 20 13 22q2 1 6 1q87 2 109.5 12t34.5 60l74 354q-35 65 -58.5 113t-50.5 122t-39 141t-12.5 154t17.5 176q2 7 -3 11.5t-18.5 7.5t-34 4.5t-54.5 2.5q-11 0 -12.5 3.5t1.5 14.5zM691 1402l160 177 q19 22 39 22h78q8 0 11 -3.5t0 -9.5t-11 -13l-201 -184q-13 -13 -32 -13h-42q-10 0 -11.5 6.5t9.5 17.5z" />
<glyph unicode="&#xde;" horiz-adv-x="880" d="M22 22l6 25q5 23 13 25q3 1 7 1q87 2 109.5 12t34.5 60l7 32h-2l183 860h2l22 108q13 60 -1.5 72t-97.5 14q-15 0 -17.5 5.5t1.5 23.5q3 16 4.5 22.5t7.5 13.5t16 7h344q13 0 15.5 -4t-0.5 -18l-6 -24q-5 -23 -13 -25q-3 -1 -7 -1q-36 -1 -52.5 -1.5t-35.5 -4.5t-25.5 -8 t-15 -16.5t-11.5 -25.5l-9 -39l-21 -99h99q90 0 153 -22.5t96.5 -59t47.5 -90t11.5 -109t-16.5 -123.5q-41 -189 -157 -293.5t-295 -104.5q-73 0 -108 9l-21 -99h-1q-11 -50 5.5 -60t98.5 -12q9 0 13.5 -2.5t5 -8t0 -9.5t-3.5 -13.5t-4 -13.5q-3 -17 -7 -21.5t-17 -4.5h-343 q-14 0 -16 4t1 18zM330 331q24 -11 104 -11q129 0 215.5 87.5t117.5 240.5q11 49 14 91t-5 83.5t-28.5 70.5t-60 46.5t-95.5 17.5h-128z" />
<glyph unicode="&#xdf;" horiz-adv-x="889" d="M76 22l207 976q36 165 133 244.5t230 79.5q56 0 100 -14t80 -46t46 -86t-4 -133q-12 -54 -34 -101t-46 -80.5t-59 -67t-62 -54t-66 -47.5q140 -55 193 -136.5t23 -217.5q-34 -161 -144 -250t-278 -89h-32q-16 0 -13 13l11 54q3 14 7.5 18t16.5 4h36q103 0 186.5 63 t109.5 185q7 33 8 62t-7 52.5t-14 41t-25 34.5t-29 26.5t-36 23t-34.5 17.5t-36.5 16q-6 3 -9 4q-66 29 -56 69q6 35 75 78q174 112 210 280q24 105 -15.5 152t-114.5 47q-90 0 -158 -60.5t-95 -181.5l-207 -978q-3 -13 -7 -16.5t-15 -3.5h-60q-13 0 -15.5 4t0.5 18z" />
<glyph unicode="&#xe0;" horiz-adv-x="811" d="M52 209q17 81 56 132.5t87.5 73t104.5 32t110.5 17t101 19t81 47t46.5 92.5q17 82 -22 132t-140 50q-85 0 -157 -35l-52 -194q-2 -16 -19 -16h-44q-10 0 -11.5 3.5t0.5 14.5l44 205q8 43 32 54q29 19 92 33.5t133 14.5q158 0 211.5 -79.5t21.5 -232.5l-75 -345 q-16 -64 -12.5 -98t13 -44.5t29.5 -10.5q36 0 47 43q3 13 4 16t4.5 9t9 7.5t15.5 1.5h15q18 0 21.5 -6.5t-0.5 -21.5q-28 -130 -151 -130q-129 0 -104 169q-57 -84 -139.5 -128.5t-181.5 -44.5q-218 0 -171 220zM153 207q-15 -73 9 -105.5t89 -32.5q115 0 211 92.5 t123 197.5l24 112q-33 -43 -88 -62.5t-109.5 -24.5t-108 -15.5t-94 -49t-56.5 -112.5zM415 1288q-6 11 -2.5 18.5t15.5 7.5h69q14 0 19 -4.5t11 -17.5l104 -212q10 -22 -13 -22h-41q-18 0 -35 26z" />
<glyph unicode="&#xe1;" horiz-adv-x="930" d="M112 456q40 193 139.5 310.5t251.5 117.5q174 0 216 -141l18 87q8 36 38 36h57q10 0 27 -0.5t47 -1.5t58 -2q12 -1 14 -6t-1 -20l-5 -26q-3 -16 -6.5 -20t-14.5 -4h-89q-39 -4 -52 -60l-108 -508q-15 -61 -11 -93t13.5 -41.5t29.5 -9.5q35 0 48 43q5 24 9 29t19 5h24 q13 0 16 -4.5t-1 -23.5q-16 -72 -50.5 -101t-87.5 -29q-129 0 -117 152q-91 -154 -257 -154q-110 0 -172 61.5t-71 165t18 238.5zM207 438q-15 -72 -15.5 -135t14.5 -115.5t53.5 -83t96.5 -30.5q108 0 185.5 98.5t113.5 266.5q37 157 1 259.5t-144 102.5q-59 0 -110.5 -29.5 t-88.5 -80.5t-63.5 -114.5t-42.5 -138.5zM570 1098l160 177q23 23 41 23h78q26 0 0 -26l-201 -185q-13 -13 -34 -13h-42q-10 0 -11.5 6.5t9.5 17.5z" />
<glyph unicode="&#xe2;" horiz-adv-x="811" d="M52 209q17 81 56 132.5t87.5 73t104.5 32t110.5 17t101 19t81 47t46.5 92.5q17 82 -22 132t-140 50q-85 0 -157 -35l-52 -194q-2 -16 -19 -16h-44q-10 0 -11.5 3.5t0.5 14.5l44 205q8 43 32 54q29 19 92 33.5t133 14.5q158 0 211.5 -79.5t21.5 -232.5l-75 -345 q-16 -64 -12.5 -98t13 -44.5t29.5 -10.5q36 0 47 43q3 13 4 16t4.5 9t9 7.5t15.5 1.5h15q18 0 21.5 -6.5t-0.5 -21.5q-28 -130 -151 -130q-129 0 -104 169q-57 -84 -139.5 -128.5t-181.5 -44.5q-218 0 -171 220zM153 207q-15 -73 9 -105.5t89 -32.5q115 0 211 92.5 t123 197.5l24 112q-33 -43 -88 -62.5t-109.5 -24.5t-108 -15.5t-94 -49t-56.5 -112.5zM359 1078q-5 15 13 30l170 158q15 15 35 15h41q18 0 28 -15l102 -158q12 -16 -3 -37q-15 -19 -28 -6l-140 132l-192 -132q-5 -3 -8.5 -3.5t-5.5 -1t-4 2t-2.5 3t-2.5 5.5t-3 7z" />
<glyph unicode="&#xe3;" horiz-adv-x="811" d="M52 209q17 81 56 132.5t87.5 73t104.5 32t110.5 17t101 19t81 47t46.5 92.5q17 82 -22 132t-140 50q-85 0 -157 -35l-52 -194q-2 -16 -19 -16h-44q-10 0 -11.5 3.5t0.5 14.5l44 205q8 43 32 54q29 19 92 33.5t133 14.5q158 0 211.5 -79.5t21.5 -232.5l-75 -345 q-16 -64 -12.5 -98t13 -44.5t29.5 -10.5q36 0 47 43q3 13 4 16t4.5 9t9 7.5t15.5 1.5h15q18 0 21.5 -6.5t-0.5 -21.5q-28 -130 -151 -130q-129 0 -104 169q-57 -84 -139.5 -128.5t-181.5 -44.5q-218 0 -171 220zM153 207q-15 -73 9 -105.5t89 -32.5q115 0 211 92.5 t123 197.5l24 112q-33 -43 -88 -62.5t-109.5 -24.5t-108 -15.5t-94 -49t-56.5 -112.5zM410 1102q-10 6 0 24q63 92 122 92q29 0 52 -16t41 -32t36 -16q14 0 24.5 9.5t25.5 35.5q10 15 19 9l28 -18q6 -6 5.5 -8.5t-5.5 -12.5q-30 -48 -57.5 -71.5t-61.5 -23.5q-28 0 -51.5 16 t-41.5 32t-34 16q-13 0 -23.5 -9t-32.5 -36q-10 -14 -20 -8z" />
<glyph unicode="&#xe4;" horiz-adv-x="811" d="M52 209q17 81 56 132.5t87.5 73t104.5 32t110.5 17t101 19t81 47t46.5 92.5q17 82 -22 132t-140 50q-85 0 -157 -35l-52 -194q-2 -16 -19 -16h-44q-10 0 -11.5 3.5t0.5 14.5l44 205q8 43 32 54q29 19 92 33.5t133 14.5q158 0 211.5 -79.5t21.5 -232.5l-75 -345 q-16 -64 -12.5 -98t13 -44.5t29.5 -10.5q36 0 47 43q3 13 4 16t4.5 9t9 7.5t15.5 1.5h15q18 0 21.5 -6.5t-0.5 -21.5q-28 -130 -151 -130q-129 0 -104 169q-57 -84 -139.5 -128.5t-181.5 -44.5q-218 0 -171 220zM153 207q-15 -73 9 -105.5t89 -32.5q115 0 211 92.5 t123 197.5l24 112q-33 -43 -88 -62.5t-109.5 -24.5t-108 -15.5t-94 -49t-56.5 -112.5zM376 1141q6 27 25 45.5t46 18.5t39 -18.5t7 -45.5t-25 -44t-47 -17t-38.5 17t-6.5 44zM640 1141q5 27 26 45.5t49 18.5q27 0 39 -18.5t7 -45.5t-26 -44t-48 -17t-39.5 17t-7.5 44z" />
<glyph unicode="&#xe5;" horiz-adv-x="811" d="M52 209q17 81 56 132.5t87.5 73t104.5 32t110.5 17t101 19t81 47t46.5 92.5q17 82 -22 132t-140 50q-85 0 -157 -35l-52 -194q-2 -16 -19 -16h-44q-10 0 -11.5 3.5t0.5 14.5l44 205q8 43 32 54q29 19 92 33.5t133 14.5q158 0 211.5 -79.5t21.5 -232.5l-75 -345 q-16 -64 -12.5 -98t13 -44.5t29.5 -10.5q36 0 47 43q3 13 4 16t4.5 9t9 7.5t15.5 1.5h15q18 0 21.5 -6.5t-0.5 -21.5q-28 -130 -151 -130q-129 0 -104 169q-57 -84 -139.5 -128.5t-181.5 -44.5q-218 0 -171 220zM153 207q-15 -73 9 -105.5t89 -32.5q115 0 211 92.5 t123 197.5l24 112q-33 -43 -88 -62.5t-109.5 -24.5t-108 -15.5t-94 -49t-56.5 -112.5zM413 1201q11 57 59.5 95.5t136.5 38.5q89 0 120.5 -38.5t20.5 -95.5q-13 -58 -61.5 -97t-137.5 -39q-88 0 -119.5 39.5t-18.5 96.5zM492 1201q-15 -73 72 -73q49 0 74.5 21.5t31.5 51.5 q6 29 -10 50t-64 21q-50 0 -74.5 -21t-29.5 -50z" />
<glyph unicode="&#xe6;" horiz-adv-x="1228" d="M48 192q9 42 25 76.5t33 57.5t43.5 41.5t47 29t53.5 19.5t53 12.5t56 9.5q39 5 64.5 10.5t58 18.5t53.5 31t39 49t27 73q10 39 9 72.5t-13.5 57.5t-48 38t-94.5 14q-94 0 -147 -26l-46 -180q-4 -19 -23 -19h-39q-19 0 -13 19l41 193q7 40 32 54q70 41 212 41 q113 0 167.5 -36t63.5 -107q115 143 288 143q133 0 186.5 -66t26.5 -189q-11 -54 -34.5 -96.5t-51.5 -71.5t-70.5 -49t-81 -31.5t-94 -17.5t-98.5 -7.5t-105 -1.5h-9q-23 -160 25.5 -224.5t153.5 -64.5q46 0 94.5 12.5t75.5 24t76 34.5q4 2 7.5 2t5.5 -1t3.5 -2.5t1.5 -4.5 v-6t-0.5 -7.5t-1.5 -8t-1.5 -8t-1.5 -7.5q-4 -20 -10.5 -28t-21.5 -17q-108 -67 -255 -67q-238 0 -257 226q-55 -107 -143 -166.5t-194 -59.5q-213 0 -168 211zM149 192q-28 -129 89 -129q105 0 196.5 95.5t114.5 202.5l19 93q-32 -45 -83 -66.5t-100.5 -28t-98 -17 t-85.5 -46.5t-52 -104zM674 434q49 1 72.5 1.5t68.5 3t69.5 7.5t60.5 14t57.5 23.5t44.5 34t37 48t22 63.5q19 84 -18 128t-114 44q-116 0 -188.5 -90t-111.5 -277z" />
<glyph unicode="&#xe7;" horiz-adv-x="737" d="M108 475q43 202 149.5 305.5t265.5 103.5q65 0 124 -13t87 -29q11 -7 12.5 -16t-3.5 -33l-50 -236q-3 -19 -19 -19h-43q-16 0 -11 17l35 218q-52 28 -134 28q-241 0 -316 -347q-19 -91 -20 -158t13.5 -109.5t45.5 -68t69.5 -35t92.5 -9.5q47 0 82 7t106 27 q11 4 13.5 -2.5t-0.5 -23.5l-7 -30q-2 -13 -6.5 -19t-18.5 -11q-79 -31 -184 -31h-15l-39 -77q57 0 77 -33t9 -84q-17 -80 -67.5 -118t-115.5 -38q-62 0 -108 20q-9 4 -10.5 8t6.5 20l15 26q10 15 23 9q31 -14 74 -14q78 0 97 87q6 30 -10.5 46.5t-69.5 16.5q-3 0 -13 -1 t-12 0t-1.5 7t7.5 19l65 113q-68 10 -113.5 39t-75.5 85.5t-30 142.5t24 210z" />
<glyph unicode="&#xe8;" horiz-adv-x="761" d="M106 424q97 460 419 460q133 0 186 -66t26 -189q-11 -54 -34 -96.5t-51.5 -71.5t-70.5 -49t-81 -31.5t-94 -17.5t-98 -7.5t-105 -1.5h-9q-23 -160 25 -224.5t153 -64.5q46 0 94.5 12.5t75.5 24t76 34.5q20 7 19 -13q0 -3 -6 -30q-4 -20 -10 -28t-21 -17 q-108 -67 -256 -67q-333 0 -238 443zM209 434q39 0 57.5 0.5t55.5 2t56.5 4.5t52 7.5t50.5 12t43.5 17.5t41 24.5t31.5 32.5t26.5 42t16.5 52q19 84 -18 128t-114 44q-116 0 -187.5 -90t-111.5 -277zM423 1288q-6 11 -2.5 18.5t15.5 7.5h69q14 0 18.5 -4t10.5 -18l105 -212 q10 -22 -13 -22h-41q-19 0 -36 26z" />
<glyph unicode="&#xe9;" horiz-adv-x="761" d="M106 424q97 460 419 460q133 0 186 -66t26 -189q-11 -54 -34 -96.5t-51.5 -71.5t-70.5 -49t-81 -31.5t-94 -17.5t-98 -7.5t-105 -1.5h-9q-23 -160 25 -224.5t153 -64.5q46 0 94.5 12.5t75.5 24t76 34.5q20 7 19 -13q0 -3 -6 -30q-4 -20 -10 -28t-21 -17 q-108 -67 -256 -67q-333 0 -238 443zM209 434q39 0 57.5 0.5t55.5 2t56.5 4.5t52 7.5t50.5 12t43.5 17.5t41 24.5t31.5 32.5t26.5 42t16.5 52q19 84 -18 128t-114 44q-116 0 -187.5 -90t-111.5 -277zM516 1098l160 177q23 23 41 23h78q26 0 0 -26l-201 -185q-13 -13 -34 -13 h-42q-10 0 -11.5 6.5t9.5 17.5z" />
<glyph unicode="&#xea;" horiz-adv-x="761" d="M106 424q97 460 419 460q133 0 186 -66t26 -189q-11 -54 -34 -96.5t-51.5 -71.5t-70.5 -49t-81 -31.5t-94 -17.5t-98 -7.5t-105 -1.5h-9q-23 -160 25 -224.5t153 -64.5q46 0 94.5 12.5t75.5 24t76 34.5q20 7 19 -13q0 -3 -6 -30q-4 -20 -10 -28t-21 -17 q-108 -67 -256 -67q-333 0 -238 443zM209 434q39 0 57.5 0.5t55.5 2t56.5 4.5t52 7.5t50.5 12t43.5 17.5t41 24.5t31.5 32.5t26.5 42t16.5 52q19 84 -18 128t-114 44q-116 0 -187.5 -90t-111.5 -277zM369 1078q-5 15 13 30l169 158q15 15 35 15h41q18 0 28 -15l103 -158 q11 -14 2 -30l-8.5 -8.5t-7.5 -6.5t-9.5 -3t-8.5 5l-140 132l-191 -132q-7 -4 -11 -5t-7 2t-4 5.5t-4 10.5z" />
<glyph unicode="&#xeb;" horiz-adv-x="761" d="M106 424q97 460 419 460q133 0 186 -66t26 -189q-11 -54 -34 -96.5t-51.5 -71.5t-70.5 -49t-81 -31.5t-94 -17.5t-98 -7.5t-105 -1.5h-9q-23 -160 25 -224.5t153 -64.5q46 0 94.5 12.5t75.5 24t76 34.5q20 7 19 -13q0 -3 -6 -30q-4 -20 -10 -28t-21 -17 q-108 -67 -256 -67q-333 0 -238 443zM209 434q39 0 57.5 0.5t55.5 2t56.5 4.5t52 7.5t50.5 12t43.5 17.5t41 24.5t31.5 32.5t26.5 42t16.5 52q19 84 -18 128t-114 44q-116 0 -187.5 -90t-111.5 -277zM385 1141q6 27 25 45.5t46 18.5t39.5 -19t7.5 -45q-5 -27 -25.5 -44 t-47.5 -17t-38.5 17t-6.5 44zM650 1141q6 27 26 45.5t48 18.5q27 0 39.5 -19t7.5 -45t-26 -43.5t-49 -17.5q-27 0 -39 17t-7 44z" />
<glyph unicode="&#xec;" horiz-adv-x="463" d="M153 201l119 553h2q1 20 -5.5 25t-28.5 7l-80 2q-9 0 -10 5.5t3 18.5l5 22q3 17 8 22.5t16 5.5q74 4 108 4h73q28 0 22 -32l-130 -607q-16 -64 -13 -98t12 -44.5t29 -10.5q37 0 50 43q6 29 11 32q4 2 15 2h25q13 0 15.5 -4.5t-1.5 -23.5q-16 -72 -50 -101t-87 -29 q-152 0 -108 208zM248 1288q-6 11 -2.5 18.5t15.5 7.5h69q14 0 18.5 -4t10.5 -18l105 -212q10 -22 -13 -22h-41q-19 0 -36 26z" />
<glyph unicode="&#xed;" horiz-adv-x="463" d="M153 201l119 553h2q1 20 -5.5 25t-28.5 7l-80 2q-9 0 -10 5.5t3 18.5l5 22q3 17 8 22.5t16 5.5q74 4 108 4h73q28 0 22 -32l-130 -607q-16 -64 -13 -98t12 -44.5t29 -10.5q37 0 50 43q6 29 11 32q4 2 15 2h25q13 0 15.5 -4.5t-1.5 -23.5q-16 -72 -50 -101t-87 -29 q-152 0 -108 208zM339 1098l160 177q23 23 41 23h78q26 0 0 -26l-201 -185q-13 -13 -33 -13h-43q-10 0 -11.5 6.5t9.5 17.5z" />
<glyph unicode="&#xee;" horiz-adv-x="463" d="M153 201l119 553h2q1 20 -5.5 25t-28.5 7l-80 2q-9 0 -10 5.5t3 18.5l5 22q3 17 8 22.5t16 5.5q74 4 108 4h73q28 0 22 -32l-130 -607q-16 -64 -13 -98t12 -44.5t29 -10.5q37 0 50 43q6 29 11 32q4 2 15 2h25q13 0 15.5 -4.5t-1.5 -23.5q-16 -72 -50 -101t-87 -29 q-152 0 -108 208zM194 1078q-5 15 13 30l169 158q15 15 35 15h41q18 0 28 -15l103 -158q11 -14 2 -30l-8.5 -8.5t-7.5 -6.5t-9.5 -3t-8.5 5l-140 132l-191 -132q-7 -4 -11 -5t-7 2t-4 5.5t-4 10.5z" />
<glyph unicode="&#xef;" horiz-adv-x="463" d="M153 201l119 553h2q1 20 -5.5 25t-28.5 7l-80 2q-9 0 -10 5.5t3 18.5l5 22q3 17 8 22.5t16 5.5q74 4 108 4h73q28 0 22 -32l-130 -607q-16 -64 -13 -98t12 -44.5t29 -10.5q37 0 50 43q6 29 11 32q4 2 15 2h25q13 0 15.5 -4.5t-1.5 -23.5q-16 -72 -50 -101t-87 -29 q-152 0 -108 208zM210 1141q6 27 25 45.5t46 18.5t39.5 -19t7.5 -45q-5 -27 -25.5 -44t-47.5 -17t-38.5 17t-6.5 44zM475 1141q6 27 26 45.5t48 18.5q27 0 39.5 -19t7.5 -45t-26 -43.5t-49 -17.5q-27 0 -39 17t-7 44z" />
<glyph unicode="&#xf0;" horiz-adv-x="824" d="M101 397q17 80 46.5 148.5t73.5 128.5t109 95t143 35q149 0 205 -149q50 381 -112 518l-95 -153q-6 -7 -13 -3l-47 31q-7 7 0 17l94 145q-59 24 -123 24h-15q-14 0 -11 26l9 41q6 21 20 21h15q91 0 157 -28l95 147q8 12 18 6l39 -26q9 -9 2 -23l-89 -138 q129 -88 162.5 -290.5t-24.5 -457.5q-53 -247 -161.5 -389t-272.5 -142q-148 0 -207 112t-18 304zM205 404q-35 -165 3.5 -252t134.5 -87q110 0 188 112.5t121 317.5v2q-8 114 -51 169t-126 55q-101 0 -171 -87t-99 -230z" />
<glyph unicode="&#xf1;" horiz-adv-x="917" d="M-7 22l5 25q6 26 21 26q92 1 113 14.5t36 80.5l117 558q12 60 -24 60l-82 2q-8 0 -8.5 3.5t2.5 16.5l6 30q5 17 7.5 20.5t12.5 3.5q36 1 76.5 3.5t48.5 2.5h60q16 0 19.5 -9t-1.5 -29l-22 -104q56 80 126.5 119t141.5 39q106 0 144 -66t7 -205l-82 -386 q-16 -64 -12.5 -98t13 -44.5t29.5 -10.5q35 0 46 43q5 24 10 29t20 5h24q13 0 15 -4.5t-2 -23.5q-16 -72 -50 -101t-88 -29q-68 0 -100 48.5t-8 159.5l88 406q18 74 11 117t-27.5 59t-58.5 16q-106 0 -190.5 -107t-131.5 -327l-41 -196q-6 -27 -8.5 -39.5t0 -26t6 -17 t19.5 -8t31 -4.5t49 -1q9 0 13.5 -2.5t5 -8t0 -9.5t-3.5 -13.5t-4 -13.5q-3 -17 -6.5 -21.5t-15.5 -4.5h-343q-14 0 -16 4t2 18zM518 1102q-10 6 0 24q63 92 122 92q29 0 52 -16t41 -32t36 -16q14 0 24.5 9.5t25.5 35.5q10 15 19 9l28 -18q6 -6 5.5 -8.5t-5.5 -12.5 q-30 -48 -57.5 -71.5t-61.5 -23.5q-28 0 -51.5 16t-41.5 32t-34 16q-13 0 -23.5 -9t-32.5 -36q-10 -14 -20 -8z" />
<glyph unicode="&#xf2;" horiz-adv-x="830" d="M108 460q18 84 51 157t82 134.5t120 97t155 35.5q76 0 132.5 -26t87.5 -69.5t45.5 -104t12.5 -126.5t-18 -139q-14 -66 -37.5 -126.5t-60 -116t-82 -96.5t-105.5 -65t-128 -24q-76 0 -131.5 26.5t-86 70.5t-44.5 105t-11.5 127.5t18.5 139.5zM205 434q-16 -74 -16 -137 t16.5 -114t57 -80t102.5 -29q118 0 197.5 102t113.5 258q15 73 15 137t-16.5 116.5t-57 83t-101.5 30.5q-80 0 -146 -54t-105 -134t-60 -179zM432 1288q-6 11 -2.5 18.5t15.5 7.5h69q14 0 19 -4.5t11 -17.5l104 -212q10 -22 -13 -22h-41q-18 0 -35 26z" />
<glyph unicode="&#xf3;" horiz-adv-x="830" d="M108 460q18 84 51 157t82 134.5t120 97t155 35.5q76 0 132.5 -26t87.5 -69.5t45.5 -104t12.5 -126.5t-18 -139q-14 -66 -37.5 -126.5t-60 -116t-82 -96.5t-105.5 -65t-128 -24q-76 0 -131.5 26.5t-86 70.5t-44.5 105t-11.5 127.5t18.5 139.5zM205 434q-16 -74 -16 -137 t16.5 -114t57 -80t102.5 -29q118 0 197.5 102t113.5 258q15 73 15 137t-16.5 116.5t-57 83t-101.5 30.5q-80 0 -146 -54t-105 -134t-60 -179zM525 1098l160 177q23 23 41 23h78q26 0 0 -26l-201 -185q-13 -13 -33 -13h-43q-10 0 -11.5 6.5t9.5 17.5z" />
<glyph unicode="&#xf4;" horiz-adv-x="830" d="M108 460q18 84 51 157t82 134.5t120 97t155 35.5q76 0 132.5 -26t87.5 -69.5t45.5 -104t12.5 -126.5t-18 -139q-14 -66 -37.5 -126.5t-60 -116t-82 -96.5t-105.5 -65t-128 -24q-76 0 -131.5 26.5t-86 70.5t-44.5 105t-11.5 127.5t18.5 139.5zM205 434q-16 -74 -16 -137 t16.5 -114t57 -80t102.5 -29q118 0 197.5 102t113.5 258q15 73 15 137t-16.5 116.5t-57 83t-101.5 30.5q-80 0 -146 -54t-105 -134t-60 -179zM380 1078q-5 15 13 30l169 158q15 15 36 15h41q18 0 28 -15l102 -158q11 -14 2 -30l-8.5 -8.5t-7.5 -6.5t-9.5 -3t-8.5 5l-139 132 l-192 -132q-5 -3 -8.5 -3.5t-5.5 -1t-4 2t-2.5 3t-2.5 5.5t-3 7z" />
<glyph unicode="&#xf5;" horiz-adv-x="830" d="M108 460q18 84 51 157t82 134.5t120 97t155 35.5q76 0 132.5 -26t87.5 -69.5t45.5 -104t12.5 -126.5t-18 -139q-14 -66 -37.5 -126.5t-60 -116t-82 -96.5t-105.5 -65t-128 -24q-76 0 -131.5 26.5t-86 70.5t-44.5 105t-11.5 127.5t18.5 139.5zM205 434q-16 -74 -16 -137 t16.5 -114t57 -80t102.5 -29q118 0 197.5 102t113.5 258q15 73 15 137t-16.5 116.5t-57 83t-101.5 30.5q-80 0 -146 -54t-105 -134t-60 -179zM428 1102q-10 6 0 24q63 92 123 92q37 0 73 -32t56 -32q14 0 24.5 9.5t25.5 35.5q9 15 18 9l28 -18q6 -6 5.5 -8.5t-5.5 -12.5 q-30 -48 -57.5 -71.5t-61.5 -23.5q-28 0 -51 16t-41 32t-34 16q-13 0 -23.5 -9t-32.5 -36q-10 -14 -21 -8z" />
<glyph unicode="&#xf6;" horiz-adv-x="830" d="M108 460q18 84 51 157t82 134.5t120 97t155 35.5q76 0 132.5 -26t87.5 -69.5t45.5 -104t12.5 -126.5t-18 -139q-14 -66 -37.5 -126.5t-60 -116t-82 -96.5t-105.5 -65t-128 -24q-76 0 -131.5 26.5t-86 70.5t-44.5 105t-11.5 127.5t18.5 139.5zM205 434q-16 -74 -16 -137 t16.5 -114t57 -80t102.5 -29q118 0 197.5 102t113.5 258q15 73 15 137t-16.5 116.5t-57 83t-101.5 30.5q-80 0 -146 -54t-105 -134t-60 -179zM397 1141q6 27 24.5 45.5t45.5 18.5t39.5 -19t7.5 -45q-5 -27 -25.5 -44t-47.5 -17t-38 17t-6 44zM661 1141q6 27 26 45.5t48 18.5 q27 0 39.5 -19t7.5 -45t-26 -43.5t-49 -17.5q-27 0 -39 17t-7 44z" />
<glyph unicode="&#xf7;" horiz-adv-x="986" d="M141 415l21 95h745l-21 -95h-745zM374 141q5 27 30 46.5t58 19.5t50.5 -19.5t12.5 -46.5t-31.5 -46t-59.5 -19t-49 19t-11 46zM508 775q7 30 32.5 48.5t57.5 18.5q33 0 50.5 -18.5t10.5 -48.5q-5 -25 -31 -43.5t-58 -18.5q-30 0 -48.5 19t-13.5 43z" />
<glyph unicode="&#xf8;" horiz-adv-x="830" d="M84 -134l100 181q-49 39 -72.5 106.5t-21.5 144t18 162.5q18 84 51 157t82 134.5t120 97t155 35.5q75 0 126 -22l88 156q9 17 18 17h62q6 -1 6 -4.5t-6 -15.5l-108 -192q47 -41 70 -106.5t22 -139.5t-18 -158q-14 -66 -37.5 -126.5t-60 -116t-82 -96.5t-105.5 -65 t-128 -24q-62 0 -114 18l-81 -145q-6 -11 -23 -11h-57q-15 0 -4 13zM205 434q-45 -211 28 -302l365 650q-41 19 -82 19q-80 0 -146 -54t-105 -134t-60 -179zM290 88q31 -14 75 -14q118 0 197.5 102t113.5 258q42 201 -24 298z" />
<glyph unicode="&#xf9;" horiz-adv-x="899" d="M138 812l5 24q3 16 8 21t17 5q49 1 66 2.5t43 1.5h73q16 0 20 -8t-1 -29l-116 -540q-21 -89 -12.5 -137.5t32 -65.5t71.5 -17q105 0 179 80.5t114 267.5l69 320q9 51 -28 51h-82q-14 0 -8 24l6 24q3 16 8.5 21t15.5 5q50 1 67.5 2.5t42.5 1.5h74q15 0 19 -8t0 -29 l-128 -602q-16 -64 -13 -98t12.5 -44.5t28.5 -10.5q39 0 50 43q0 2 1 6q6 24 12 27q3 1 13 1h24q13 0 16 -4.5t-1 -23.5q-16 -72 -50.5 -101t-87.5 -29q-126 0 -117 141q-97 -147 -255 -147q-121 0 -162 70.5t-6 234.5l60 281h2l35 164q9 51 -28 51h-84q-10 0 -7 13 q0 3 2 11zM430 1288q-6 11 -2.5 18.5t15.5 7.5h69q14 0 19 -4.5t11 -17.5l104 -212q10 -22 -13 -22h-41q-18 0 -35 26z" />
<glyph unicode="&#xfa;" horiz-adv-x="899" d="M138 812l5 24q3 16 8 21t17 5q49 1 66 2.5t43 1.5h73q16 0 20 -8t-1 -29l-116 -540q-21 -89 -12.5 -137.5t32 -65.5t71.5 -17q105 0 179 80.5t114 267.5l69 320q9 51 -28 51h-82q-14 0 -8 24l6 24q3 16 8.5 21t15.5 5q50 1 67.5 2.5t42.5 1.5h74q15 0 19 -8t0 -29 l-128 -602q-16 -64 -13 -98t12.5 -44.5t28.5 -10.5q39 0 50 43q0 2 1 6q6 24 12 27q3 1 13 1h24q13 0 16 -4.5t-1 -23.5q-16 -72 -50.5 -101t-87.5 -29q-126 0 -117 141q-97 -147 -255 -147q-121 0 -162 70.5t-6 234.5l60 281h2l35 164q9 51 -28 51h-84q-10 0 -7 13 q0 3 2 11zM521 1098l160 177q23 23 41 23h79q26 0 0 -26l-201 -185q-13 -13 -34 -13h-43q-10 0 -11.5 6.5t9.5 17.5z" />
<glyph unicode="&#xfb;" horiz-adv-x="899" d="M138 812l5 24q3 16 8 21t17 5q49 1 66 2.5t43 1.5h73q16 0 20 -8t-1 -29l-116 -540q-21 -89 -12.5 -137.5t32 -65.5t71.5 -17q105 0 179 80.5t114 267.5l69 320q9 51 -28 51h-82q-14 0 -8 24l6 24q3 16 8.5 21t15.5 5q50 1 67.5 2.5t42.5 1.5h74q15 0 19 -8t0 -29 l-128 -602q-16 -64 -13 -98t12.5 -44.5t28.5 -10.5q39 0 50 43q0 2 1 6q6 24 12 27q3 1 13 1h24q13 0 16 -4.5t-1 -23.5q-16 -72 -50.5 -101t-87.5 -29q-126 0 -117 141q-97 -147 -255 -147q-121 0 -162 70.5t-6 234.5l60 281h2l35 164q9 51 -28 51h-84q-10 0 -7 13 q0 3 2 11zM376 1078q-5 15 13 30l170 158q15 15 35 15h41q18 0 28 -15l102 -158q12 -16 -3 -37q-15 -19 -28 -6l-140 132l-192 -132q-5 -3 -8.5 -3.5t-5.5 -1t-4 2t-2.5 3t-2.5 5.5t-3 7z" />
<glyph unicode="&#xfc;" horiz-adv-x="899" d="M138 812l5 24q3 16 8 21t17 5q49 1 66 2.5t43 1.5h73q16 0 20 -8t-1 -29l-116 -540q-21 -89 -12.5 -137.5t32 -65.5t71.5 -17q105 0 179 80.5t114 267.5l69 320q9 51 -28 51h-82q-14 0 -8 24l6 24q3 16 8.5 21t15.5 5q50 1 67.5 2.5t42.5 1.5h74q15 0 19 -8t0 -29 l-128 -602q-16 -64 -13 -98t12.5 -44.5t28.5 -10.5q39 0 50 43q0 2 1 6q6 24 12 27q3 1 13 1h24q13 0 16 -4.5t-1 -23.5q-16 -72 -50.5 -101t-87.5 -29q-126 0 -117 141q-97 -147 -255 -147q-121 0 -162 70.5t-6 234.5l60 281h2l35 164q9 51 -28 51h-84q-10 0 -7 13 q0 3 2 11zM393 1141q6 27 25 45.5t46 18.5t39 -18.5t7 -45.5t-25 -44t-47 -17t-38.5 17t-6.5 44zM657 1141q5 27 26 45.5t49 18.5q27 0 39 -18.5t7 -45.5t-26 -44t-48 -17t-39.5 17t-7.5 44z" />
<glyph unicode="&#xfd;" horiz-adv-x="843" d="M-4 -357l8 39q2 12 8 14q3 1 10 2q11 1 29 3t25 3t19.5 2.5t16.5 3t12.5 3.5t11.5 4.5t8.5 7t9.5 9t8 11.5q51 81 156 255q-13 0 -16 15q-12 47 -25.5 126t-27 187t-13 227.5t18.5 209.5q1 16 -13.5 19t-83.5 5q-12 2 -9 15l11 49q2 13 17 13h290q13 0 10 -13l-10 -47 q-1 -2 -2 -5l-1.5 -4.5t-1.5 -3t-2 -2.5t-3.5 -1.5t-5.5 -0.5q-64 0 -79 -4.5t-18 -19.5q-22 -100 -19 -239.5t15 -250.5t26 -176q143 254 328 657q10 21 2 26q-11 7 -82 7q-10 2 -12 4.5t1 12.5l9 45q3 15 17 15h277q9 0 10.5 -3.5t-1.5 -13.5l-9 -45q-3 -12 -13 -15 q-67 0 -84 -7t-30 -37q-240 -542 -569 -1058q-29 -39 -52.5 -50t-57.5 -11h-101q-13 0 -14.5 2t1.5 15zM549 1098l160 177q23 23 41 23h79q26 0 0 -26l-202 -185q-13 -13 -33 -13h-43q-10 0 -11.5 6.5t9.5 17.5z" />
<glyph unicode="&#xfe;" horiz-adv-x="854" d="M-136 -331l4 24q1 3 2 6.5t1.5 5.5t1.5 4.5t1.5 3.5t2 2.5t3 2t3.5 1t5 0.5q35 1 51 1.5t34.5 4t24.5 8t14 16.5t11.5 25t8.5 38l286 1352q12 59 -24 59l-82 2q-8 0 -9 4t2 17l5 29q5 17 8 21t13 4q27 1 55 2t45 2t25 1h57q18 0 22.5 -8.5t-1.5 -28.5l-125 -592 q50 100 125.5 153.5t155.5 53.5q101 0 159 -62.5t66 -166.5t-18 -241q-27 -124 -77 -219t-129 -154t-176 -59q-82 0 -145 44.5t-69 130.5l-73 -340q-5 -26 -7.5 -39.5t1 -26t7.5 -17.5t21 -8.5t32 -4t49 -1.5q6 0 10.5 -1.5t6.5 -4t3 -5.5t0 -8t-2 -8.5t-2.5 -9.5l-2.5 -10 q-3 -16 -7.5 -21t-18.5 -5h-341q-13 0 -15 4.5t2 18.5zM261 406q-36 -148 -0.5 -245.5t143.5 -97.5q111 0 184.5 99.5t109.5 267.5q20 105 18.5 187t-39.5 132t-111 50q-110 0 -189 -106.5t-116 -286.5z" />
<glyph unicode="&#xff;" horiz-adv-x="843" d="M-4 -357l8 39q2 12 8 14q3 1 10 2q11 1 29 3t25 3t19.5 2.5t16.5 3t12.5 3.5t11.5 4.5t8.5 7t9.5 9t8 11.5q51 81 156 255q-13 0 -16 15q-12 47 -25.5 126t-27 187t-13 227.5t18.5 209.5q1 16 -13.5 19t-83.5 5q-12 2 -9 15l11 49q2 13 17 13h290q13 0 10 -13l-10 -47 q-1 -2 -2 -5l-1.5 -4.5t-1.5 -3t-2 -2.5t-3.5 -1.5t-5.5 -0.5q-64 0 -79 -4.5t-18 -19.5q-22 -100 -19 -239.5t15 -250.5t26 -176q143 254 328 657q10 21 2 26q-11 7 -82 7q-10 2 -12 4.5t1 12.5l9 45q3 15 17 15h277q9 0 10.5 -3.5t-1.5 -13.5l-9 -45q-3 -12 -13 -15 q-67 0 -84 -7t-30 -37q-240 -542 -569 -1058q-29 -39 -52.5 -50t-57.5 -11h-101q-13 0 -14.5 2t1.5 15zM421 1141q6 27 25 45.5t46 18.5t39 -18.5t7 -45.5t-25.5 -44t-47.5 -17t-38 17t-6 44zM685 1141q5 27 26 45.5t49 18.5q27 0 39 -18.5t7 -45.5t-26 -44t-48 -17 t-39.5 17t-7.5 44z" />
<glyph unicode="&#x152;" horiz-adv-x="1733" d="M169 672q41 191 123 335t208.5 229.5t281.5 85.5q148 0 241 -69t129 -194q77 263 365 263q181 0 278 -43q17 -8 18.5 -15.5t-5.5 -29.5l-50 -242q-4 -16 -7.5 -19t-13.5 -3h-41q-8 0 -10 3.5t-1 15.5l28 217q-65 28 -197 28q-109 0 -179.5 -48.5t-96.5 -170.5 q-60 -285 205 -285h108q10 0 12 -5.5t-1 -20.5l-8 -34q-5 -17 -9 -22.5t-13 -5.5h-108q-220 0 -311 -149q-25 -74 -50 -126v-8q-33 -151 26 -219.5t214 -68.5q49 0 104.5 7t92 14.5t71 16t36.5 8.5q10 3 12 -1t-1 -17l-11 -52q-4 -17 -28 -25q-44 -16 -124.5 -28.5 t-166.5 -12.5q-96 0 -163.5 16t-117 61.5t-61.5 120.5q-165 -198 -412 -198q-128 0 -216 52t-129.5 144.5t-48.5 219t27 275.5zM274 655q-57 -272 14 -428t252 -156q133 0 243 87.5t183 249.5q0 1 1 1.5t1 1.5q20 63 37 95q23 63 41 149q58 271 -12.5 424.5t-253.5 153.5 q-180 0 -313.5 -153.5t-192.5 -424.5zM1156 652q47 23 108 35q-59 12 -93 63q-8 -64 -15 -98z" />
<glyph unicode="&#x153;" horiz-adv-x="1329" d="M108 460q18 84 51 157t82 134.5t120 97t155 35.5q106 0 170.5 -48t89.5 -132q114 180 315 180q133 0 186 -66t26 -189q-11 -54 -34 -96.5t-51.5 -71.5t-70.5 -49t-81 -31.5t-94 -17.5t-98 -7.5t-105 -1.5h-9q-23 -160 25 -224.5t153 -64.5q46 0 94.5 12.5t75.5 24 t76 34.5q20 7 19 -13q0 -3 -6 -30q-4 -20 -10.5 -28t-21.5 -17q-108 -67 -255 -67q-207 0 -249 170q-120 -160 -298 -160q-76 0 -131.5 26.5t-86 70.5t-44.5 105t-11.5 127.5t18.5 139.5zM205 434q-16 -74 -16 -137t16.5 -114t57 -80t102.5 -29q108 0 185 87.5t115 225.5 l16 82q13 66 9 126t-21 105.5t-56.5 73t-96.5 27.5q-80 0 -146 -54t-105 -134t-60 -179zM780 434q41 0 63.5 0.5t61 3t61.5 6t56 10.5t53 16.5t44.5 24t39.5 33.5t28 44.5t19 56.5q19 84 -18 128t-114 44q-105 0 -174 -74t-111 -228q-5 -51 -9 -65z" />
<glyph unicode="&#x178;" horiz-adv-x="1012" d="M231 1249l7 36q3 11 7 14.5t12 3.5h326q15 0 9 -16l-7 -36q-3 -20 -21 -20q-64 -2 -86.5 -6.5t-25.5 -18.5q-17 -78 -18.5 -153.5t7.5 -135t30 -123t41.5 -107.5t49.5 -99q70 70 120.5 127t108.5 136.5t98 169t61 185.5q2 7 -2.5 11.5t-17.5 7.5t-32.5 4t-52.5 2 q-14 0 -11 20l8 36q3 7 4 9.5t4 4.5t8 2h317q16 0 11 -18l-7 -36q-3 -12 -5.5 -15t-13.5 -3q-66 -2 -92 -7t-29 -19q-21 -88 -59 -174.5t-78 -153t-98 -140t-102 -121t-106 -111.5l-77 -360q-11 -50 5 -60t100 -12q9 0 13.5 -2.5t5 -8t0 -9.5t-3.5 -13.5t-4 -13.5 q-3 -17 -7 -21.5t-17 -4.5h-345q-14 0 -16 4t1 18l6 25q0 1 1 3q4 20 13 22q2 1 6 1q87 2 109.5 12t34.5 60l74 354q-35 65 -58.5 113t-50.5 122t-39 141t-12.5 154t17.5 176q2 7 -3 11.5t-18.5 7.5t-34 4.5t-54.5 2.5q-11 0 -12.5 3.5t1.5 14.5zM560 1445q5 26 25.5 44.5 t47.5 18.5t38.5 -18t6.5 -45t-25.5 -44.5t-47.5 -17.5t-38.5 17.5t-6.5 44.5zM825 1445q5 26 26.5 44.5t49.5 18.5q27 0 38.5 -18t6.5 -45t-26.5 -44.5t-48.5 -17.5t-39 17.5t-7 44.5z" />
<glyph unicode="&#x2c6;" horiz-adv-x="547" d="M305 1381q-2 16 15 30l170 159q14 14 33 14h41q21 0 30 -14l102 -159q11 -14 -4 -36q-14 -20 -27 -7l-140 133l-192 -133q-15 -5 -18.5 -3t-9.5 16z" />
<glyph unicode="&#x2dc;" horiz-adv-x="536" d="M346 1404q-12 7 0 24q59 91 121 91q37 0 74 -31.5t57 -31.5q14 0 24.5 9.5t25.5 35.5q8 15 19 9l27 -19q8 -7 -1 -20q-57 -95 -118 -95q-28 0 -51 16t-41 31.5t-34 15.5q-14 0 -25.5 -9.5t-30.5 -34.5q-12 -14 -21 -8z" />
<glyph unicode="&#x2000;" horiz-adv-x="825" />
<glyph unicode="&#x2001;" horiz-adv-x="1650" />
<glyph unicode="&#x2002;" horiz-adv-x="825" />
<glyph unicode="&#x2003;" horiz-adv-x="1650" />
<glyph unicode="&#x2004;" horiz-adv-x="550" />
<glyph unicode="&#x2005;" horiz-adv-x="412" />
<glyph unicode="&#x2006;" horiz-adv-x="275" />
<glyph unicode="&#x2007;" horiz-adv-x="275" />
<glyph unicode="&#x2008;" horiz-adv-x="206" />
<glyph unicode="&#x2009;" horiz-adv-x="330" />
<glyph unicode="&#x200a;" horiz-adv-x="91" />
<glyph unicode="&#x2010;" horiz-adv-x="750" d="M162 519l9 49q3 7 4 9.5t4.5 5t8.5 2.5h490q12 0 9 -19l-9 -41q-3 -20 -21 -20h-486q-12 0 -9 14z" />
<glyph unicode="&#x2011;" horiz-adv-x="750" d="M162 519l9 49q3 7 4 9.5t4.5 5t8.5 2.5h490q12 0 9 -19l-9 -41q-3 -20 -21 -20h-486q-12 0 -9 14z" />
<glyph unicode="&#x2012;" horiz-adv-x="750" d="M162 519l9 49q3 7 4 9.5t4.5 5t8.5 2.5h490q12 0 9 -19l-9 -41q-3 -20 -21 -20h-486q-12 0 -9 14z" />
<glyph unicode="&#x2013;" horiz-adv-x="1016" d="M160 508l13 65q3 13 11 13h758q12 0 9 -14l-13 -60q-4 -14 -8 -16q-2 -1 -8 -1h-756q-12 0 -6 13z" />
<glyph unicode="&#x2014;" horiz-adv-x="1359" d="M160 508l13 65q3 13 11 13h1099q14 0 11 -14l-13 -60q-3 -10 -6.5 -13.5t-12.5 -3.5h-1096q-12 0 -6 13z" />
<glyph unicode="&#x2018;" horiz-adv-x="355" d="M242 989l158 314q10 19 30 19h43q19 0 9 -21l-143 -324q-7 -18 -13.5 -23.5t-22.5 -5.5h-52q-13 0 -17 5t-1.5 13t9.5 23z" />
<glyph unicode="&#x2019;" horiz-adv-x="355" d="M235 968l143 324q12 24 19 27q6 3 16 3h52q18 0 19.5 -11t-9.5 -30l-158 -315q-10 -18 -30 -18h-43q-18 0 -9 20z" />
<glyph unicode="&#x201a;" horiz-adv-x="329" d="M-58 -197l144 324q7 14 9.5 18t8.5 7.5t17 3.5h52q13 0 17 -5t1.5 -13t-9.5 -23l-158 -314q-10 -19 -30 -19h-42q-20 0 -10 21z" />
<glyph unicode="&#x201c;" horiz-adv-x="554" d="M242 989l158 314q10 19 30 19h43q19 0 9 -21l-143 -324q-7 -18 -13.5 -23.5t-22.5 -5.5h-52q-13 0 -17 5t-1.5 13t9.5 23zM441 989l159 314q10 19 29 19h43q19 0 9 -21l-143 -324q-7 -18 -13 -23.5t-22 -5.5h-52q-18 0 -19.5 11t9.5 30z" />
<glyph unicode="&#x201d;" horiz-adv-x="554" d="M235 968l143 324q12 24 19 27q6 3 16 3h52q18 0 19.5 -11t-9.5 -30l-158 -315q-10 -18 -30 -18h-43q-18 0 -9 20zM432 968l143 324q6 11 7.5 14.5t6 8.5t9.5 6t13 1h52q13 0 17 -5t1.5 -13t-9.5 -23l-158 -315q-10 -18 -30 -18h-43q-18 0 -9 20z" />
<glyph unicode="&#x201e;" horiz-adv-x="565" d="M-58 -197l144 324q7 14 9.5 18t8.5 7.5t17 3.5h52q13 0 17 -5t1.5 -13t-9.5 -23l-158 -314q-10 -19 -30 -19h-42q-20 0 -10 21zM177 -197l143 324l7 14t6.5 8.5t9.5 5.5t13 1h52q13 0 17 -5t1.5 -13t-9.5 -23l-158 -314q-10 -19 -30 -19h-43q-19 0 -9 21z" />
<glyph unicode="&#x2022;" horiz-adv-x="476" d="M184 456q5 28 33 47.5t64 19.5q35 0 55.5 -19.5t15.5 -47.5q-5 -27 -34.5 -47t-64.5 -20t-54.5 20t-14.5 47z" />
<glyph unicode="&#x2026;" horiz-adv-x="1077" d="M60 63q5 30 28 51.5t53 21.5q26 0 42 -22t11 -51q-8 -34 -32 -54t-52 -20q-31 0 -44.5 19t-5.5 55zM419 63q5 29 28.5 51t51.5 22q27 0 42 -21.5t10 -51.5q-8 -35 -31.5 -54.5t-52.5 -19.5t-42.5 19.5t-5.5 54.5zM776 63q5 30 29.5 51.5t54.5 21.5q26 0 41.5 -22 t10.5 -51q-8 -35 -31.5 -54.5t-51.5 -19.5q-32 0 -46.5 19.5t-6.5 54.5z" />
<glyph unicode="&#x202f;" horiz-adv-x="330" />
<glyph unicode="&#x2039;" horiz-adv-x="526" d="M97 452q-8 14 -7 21t14 20l386 399q12 12 16 14t10 -1l37 -34q5 -4 3.5 -9t-14.5 -19l-343 -366l185 -360q10 -19 10.5 -22.5t-7.5 -8.5l-52 -34q-7 -5 -11 -2.5t-11 15.5z" />
<glyph unicode="&#x203a;" horiz-adv-x="528" d="M39 86q-4 3 -2 7.5t12 14.5q6 5 9 9l339 360l-187 366q-8 14 -8 18.5t7 9.5l54 34q8 8 18 -13l218 -399q7 -13 5 -20t-16 -21l-380 -387q-13 -13 -18 -15.5t-12 2.5z" />
<glyph unicode="&#x205f;" horiz-adv-x="412" />
<glyph unicode="&#x20ac;" horiz-adv-x="1182" d="M104 447l43 52q17 17 30 17h112q3 13 7.5 42.5t8.5 46.5h-160q-21 0 -5 13l44 52q14 17 30 17h108q76 317 229 476t374 159q200 0 306 -37q16 -7 18.5 -14.5t-2.5 -32.5l-61 -287q-2 -11 -4.5 -15.5t-5.5 -5.5t-11 -1h-48q-13 0 -15.5 4t0.5 15l37 260q-86 28 -210 28 q-178 0 -307 -137.5t-196 -411.5h518q22 0 2 -20l-54 -49q-17 -13 -26 -13h-456q-4 -17 -9 -46.5t-8 -42.5h402q28 0 4 -21l-52 -48q-13 -13 -28 -13h-332q-8 -187 71 -272.5t240 -85.5q119 0 313 45q14 3 18.5 -1t0.5 -18l-6 -31q-5 -22 -12 -29t-25 -12q-172 -43 -300 -43 q-213 0 -315.5 107.5t-88.5 339.5h-175q-23 0 -4 13z" />
<glyph unicode="&#x2122;" horiz-adv-x="1403" d="M274 534l5 30q3 17 11 17q26 1 36.5 3t18.5 9.5t12 24.5l131 613h-90q-12 0 -18 -21l-30 -113q-4 -13 -13 -13h-35q-10 0 -6 14l41 192q1 9 4 11t9 2h387q4 0 6 -0.5t3.5 -3.5t0.5 -9l-41 -192q-4 -14 -13 -14h-36q-11 0 -7 14l18 112q3 21 -11 21h-87l-127 -592 q-8 -41 -2 -49.5t43 -8.5q8 0 9 -4t-1 -15l-6 -26q-1 -1 -1 -4q-6 -11 -12 -11h-194q-7 0 -7.5 2.5t2.5 10.5zM627 534l6 30q3 17 13 17q34 2 44.5 10.5t18.5 43.5l120 562q7 29 -2.5 38t-46.5 9q-7 0 -5 11q1 3 1 5l8 30q2 13 11 13h158q15 0 18 -8.5t1 -34.5 q-5 -100 0.5 -320t16.5 -327h1q51 96 139.5 312t132.5 335q2 5 5.5 13.5t5 11.5t4 7.5t5.5 6t8 3t11 1.5h159q9 0 7 -13l-7 -30q-2 -16 -12 -16q-40 -1 -51.5 -9t-18.5 -38l-118 -551q-13 -69 21 -69q15 0 28 14.5t18 41.5q0 6 4 6h30q6 0 6 -6l-2 -6q-13 -58 -42 -87.5 t-72 -29.5q-101 0 -71 142l107 502q-55 -146 -145.5 -349t-130.5 -271q-8 -13 -21 -13h-54q-14 0 -14 13q-16 87 -28.5 271.5t-9.5 333.5l-108 -506q-8 -36 -1.5 -44t40.5 -8q8 0 9 -4t-1 -15l-6 -26q-1 -1 -1 -4q-6 -11 -12 -11h-171q-7 0 -8 2.5t2 10.5z" />
<glyph unicode="&#xe000;" horiz-adv-x="865" d="M0 0v866h866v-866h-866z" />
</font>
</defs>
</svg>
