<?xml version="1.0" standalone="no"?>
<!DOCTYPE svg PUBLIC "-//W3C//DTD SVG 1.1//EN" "http://www.w3.org/Graphics/SVG/1.1/DTD/svg11.dtd" >
<svg xmlns="http://www.w3.org/2000/svg">
<metadata></metadata>
<defs>
<font id="quatie_cond_demicond_demi" horiz-adv-x="1226" >
<font-face units-per-em="2048" ascent="1629" descent="-419" />
<missing-glyph horiz-adv-x="307" />
<glyph unicode="&#xfb01;" horiz-adv-x="1001" d="M61 22v88q0 14 2 18.5t13 5.5q53 7 73 17.5t24 36.5v523h-87q-21 0 -21 24v108q0 23 21 23h87v89q0 202 81.5 284.5t281.5 82.5q82 0 152.5 -15t110.5 -34q24 -11 24 -54v-229q0 -11 -3 -14.5t-14 -3.5h-102q-15 0 -17 17l-24 141q-48 26 -127 26q-91 0 -121.5 -46.5 t-30.5 -167.5v-76h426q19 0 19 -30v-566q0 -74 12.5 -98.5t35.5 -24.5q35 0 35 45q0 17 4.5 24t19.5 7h36q17 0 21.5 -7t4.5 -30q0 -197 -177 -197q-201 0 -201 272v392q-3 33 -20 45t-66 13h-150v-482q0 -56 22 -71.5t110 -19.5q11 -1 15.5 -5t5.5 -9t1 -18v-80 q0 -9 -0.5 -12.5t-2 -7.5t-5.5 -5t-11 -1h-439q-13 0 -16 4t-3 18z" />
<glyph unicode="&#xfb02;" horiz-adv-x="1027" d="M58 22v88q0 14 3 18t12 6q66 8 85 23.5t19 64.5v489h-89q-21 0 -21 24v108q0 23 21 23h89v93q0 102 26 174.5t75 113t110.5 58t142.5 17.5q97 0 162 -19.5t141 -66.5q26 -15 26 -52v-914q0 -74 12.5 -98.5t37.5 -24.5q34 0 34 45q0 17 4.5 24t19.5 7h37q16 0 20.5 -7 t4.5 -30q0 -197 -175 -197q-97 0 -149.5 63.5t-52.5 208.5v450h-269v-491q0 -51 16.5 -63.5t77.5 -18.5q16 -3 19.5 -7.5t3.5 -24.5v-80q0 -16 -3.5 -21t-17.5 -5h-404q-11 0 -14.5 4t-3.5 18zM384 866h269v253q-60 35 -128 35q-85 0 -113 -49.5t-28 -175.5v-63z" />
<glyph unicode="&#xfb03;" horiz-adv-x="1482" d="M58 22v88q0 14 2.5 18t12.5 6q67 9 85.5 23.5t18.5 64.5v489h-91q-19 0 -19 24v108q0 23 19 23h91v46q0 343 311 343q74 0 121.5 -10t99.5 -39q76 116 309 116q156 0 261 -49q24 -11 24 -54v-229q0 -11 -2.5 -14.5t-12.5 -3.5h-104q-7 0 -10.5 3t-6.5 14l-24 141 q-48 26 -125 26q-91 0 -122.5 -47t-31.5 -167v-76h428q17 0 17 -30v-566q0 -74 12.5 -98.5t37.5 -24.5q20 0 27 11t7 34q0 17 4.5 24t21.5 7h35q16 0 21 -7t5 -30q0 -197 -177 -197q-203 0 -203 272v392q-3 33 -18.5 45t-64.5 13h-153v-499q1 -44 25.5 -56.5t108.5 -17.5 q11 -1 15.5 -5t5.5 -9t1 -18v-80q0 -9 -0.5 -12.5t-2 -7.5t-5.5 -5t-12 -1h-440q-12 0 -15 3.5t-3 18.5v88q0 14 2 18.5t13 5.5q66 10 82 25t16 63v489h-271v-482q0 -58 15.5 -72t78.5 -19q16 -3 19.5 -7.5t3.5 -24.5v-80q0 -16 -3.5 -21t-17.5 -5h-404q-12 0 -15 3.5 t-3 18.5zM384 866h271v89q0 37 4 93q-63 39 -134 39q-82 0 -111.5 -40t-29.5 -140v-41z" />
<glyph unicode="&#xfb04;" horiz-adv-x="1522" d="M58 22v88q0 14 2.5 18t12.5 6q67 9 85.5 23.5t18.5 64.5v489h-91q-19 0 -19 24v108q0 23 19 23h91v46q0 159 73.5 241.5t233.5 82.5q78 0 129 -11.5t106 -44.5q82 142 307 142q97 0 162 -19.5t141 -66.5q26 -15 26 -52v-914q0 -74 13 -98.5t36 -24.5q35 0 35 45 q0 17 4.5 24t19.5 7h36q17 0 21.5 -7t4.5 -30q0 -197 -175 -197q-203 0 -203 272v450h-268v-491q0 -51 17 -63.5t78 -18.5q16 -3 19 -7.5t3 -24.5v-80q0 -9 -0.5 -12.5t-2 -7.5t-5.5 -5t-12 -1h-404q-13 0 -16 4t-3 18v88q0 14 2.5 18t12.5 6q65 9 84.5 24t19.5 64v489h-288 v-482q0 -58 15.5 -72t78.5 -19q16 -3 19.5 -7.5t3.5 -24.5v-80q0 -16 -3.5 -21t-17.5 -5h-404q-12 0 -15 3.5t-3 18.5zM384 866h288v93q0 41 2 61q-82 49 -155 49q-80 0 -107.5 -35.5t-27.5 -126.5v-41zM879 866h268v253q-57 35 -127 35q-85 0 -113 -49.5t-28 -175.5v-63z " />
<glyph horiz-adv-x="2048" />
<glyph horiz-adv-x="2048" />
<glyph unicode="&#xd;" horiz-adv-x="2048" />
<glyph unicode=" "  horiz-adv-x="307" />
<glyph unicode="&#x09;" horiz-adv-x="307" />
<glyph unicode="&#xa0;" horiz-adv-x="307" />
<glyph unicode="!" horiz-adv-x="443" d="M104 119q0 54 34 91.5t84 37.5q47 0 82 -38t35 -91q0 -59 -34 -94.5t-83 -35.5q-52 0 -85 35t-33 95zM115 1326q0 26 26 26h157q18 0 25.5 -5.5t7.5 -22.5l-31 -970q0 -26 -32 -26h-104q-23 0 -26 28z" />
<glyph unicode="&#x22;" horiz-adv-x="657" d="M91 866v430q0 17 13 17h181q12 0 14.5 -3.5t2.5 -17.5v-428q0 -19 -15 -19h-177q-12 0 -15.5 4t-3.5 17zM357 866v430q0 17 14 17h178q12 0 15.5 -4t3.5 -17v-428q0 -19 -17 -19h-175q-13 0 -16 3.5t-3 17.5z" />
<glyph unicode="#" horiz-adv-x="1066" d="M60 397v143h217l36 248h-198v143h228l63 382h167l-63 -382h157l61 382h168l-60 -382h173v-143h-207l-33 -248h179v-143h-213l-61 -397h-168l64 397h-157l-63 -397h-164l62 397h-188zM447 540h153l35 248h-157z" />
<glyph unicode="$" horiz-adv-x="953" d="M76 89v302q0 18 6 24t24 6h116q14 0 19 -5t7 -19l20 -200q59 -24 190 -24q26 0 50.5 3t55 14.5t52.5 30.5t37 54t15 82q0 52 -19.5 90t-52.5 61t-75.5 40t-90 31t-94.5 30t-89.5 42t-75.5 62t-52.5 93.5t-19.5 133.5q0 91 18.5 158t50 109.5t81 68t105 35t128.5 9.5 q224 0 324 -54q18 -10 23 -18t5 -30v-293q0 -21 -6 -25t-24 -4h-113q-14 0 -18 4t-6 18l-21 197q-52 23 -164 23q-171 0 -171 -155q0 -45 19.5 -77.5t52.5 -51.5t75.5 -33t90 -27.5t95 -30t90 -45.5t75.5 -69t52.5 -105t19.5 -149q0 -101 -23 -176.5t-60 -120t-92.5 -71.5 t-111 -36.5t-125.5 -9.5q-98 0 -210.5 16t-150.5 38q-32 15 -32 54zM376 -361l17 272q2 18 8 20q4 2 12 2h133q3 0 5.5 -1t3.5 -1.5t2 -3t1.5 -3.5t1 -5t0.5 -5l17 -273q3 -23 -7 -23h-185q-9 0 -9 21zM387 1674q0 18 10 18h182q7 0 8.5 -3.5t0.5 -16.5l-16 -274 q-3 -17 -10 -19q-3 -1 -7 -1h-132q-8 0 -12 3.5t-5 7t-2 13.5z" />
<glyph unicode="%" horiz-adv-x="1785" d="M54 931q0 80 20 148.5t61 124.5t111.5 88t164.5 32q75 0 136.5 -21.5t103 -58t69.5 -87t40.5 -107t12.5 -119.5q0 -80 -20.5 -149.5t-62.5 -126t-113.5 -89t-165.5 -32.5t-164.5 32.5t-111.5 89t-61 125.5t-20 150zM266 931q0 -118 38.5 -184t106.5 -66q70 0 109 66 t39 184q0 117 -37.5 181.5t-110.5 64.5q-70 0 -107.5 -64.5t-37.5 -181.5zM439 43l691 1240q15 26 28 34.5t35 8.5h157q22 0 26 -9.5t-13 -44.5l-691 -1242q-17 -32 -33.5 -41t-52.5 -9h-115q-28 0 -39 3.5t-10.5 17t17.5 42.5zM1013 378q0 80 20 148.5t61 124.5t111.5 88 t164.5 32q93 0 164 -32t113 -88t63 -124.5t21 -148.5t-21 -149.5t-62.5 -126t-113 -89t-164.5 -32.5q-94 0 -164.5 32.5t-111.5 89t-61 125.5t-20 150zM1225 378q0 -118 38.5 -184t106.5 -66q70 0 108.5 65.5t38.5 184.5q0 117 -37 181.5t-110 64.5q-70 0 -107.5 -64.5 t-37.5 -181.5z" />
<glyph unicode="&#x26;" horiz-adv-x="1158" d="M80 343q0 66 11.5 120t28.5 88t41 60t44.5 39t42.5 20q-68 22 -99.5 106.5t-31.5 197.5q0 101 23 171t66 107.5t95.5 53.5t121.5 16q72 0 140 -16t100 -33q13 -6 15.5 -16t2.5 -39v-282q0 -16 -1.5 -19t-11.5 -3h-111q-7 0 -9.5 3t-5.5 16l-32 197q-32 15 -67 15 q-28 0 -47.5 -7t-38.5 -26.5t-29 -61t-10 -104.5q0 -113 38 -157t108 -44h247l95 262q8 26 26 26h60q18 0 18 -28v-260h162q17 0 17 -26v-108q0 -15 -3.5 -20.5t-13.5 -5.5h-162v-283q0 -94 14 -129t46 -35q29 0 41 21.5t15 65.5q3 26 17 26h39q18 0 18 -29q0 -119 -49 -180 t-142 -61q-97 0 -148 66q-55 -25 -146.5 -45.5t-190.5 -20.5q-59 0 -106 8.5t-93 32.5t-76.5 63t-49.5 104.5t-19 153.5zM313 376q0 -115 40 -161t125 -46q92 0 226 51q-2 19 -2 61v304h-238q-151 0 -151 -209z" />
<glyph unicode="'" horiz-adv-x="392" d="M91 866v421q0 16 13 16h181q12 0 14.5 -3.5t2.5 -18.5v-417q0 -19 -15 -19h-177q-12 0 -15.5 4t-3.5 17z" />
<glyph unicode="(" horiz-adv-x="500" d="M56 557q0 208 75.5 420.5t209.5 370.5q1 1 3.5 4t4 4t4 2t5 0.5t5.5 -3.5l88 -72q3 -2 4.5 -4t2 -4.5t0.5 -4t-1.5 -4.5t-2 -4.5t-2.5 -5.5t-3 -5q-80 -135 -121 -327.5t-41 -376.5q0 -477 164 -713q11 -15 0 -26l-82 -78q-3 -3 -5 -3.5t-4.5 1t-4 2.5t-4.5 4.5t-3 4.5 q-139 163 -215.5 383t-76.5 435z" />
<glyph unicode=")" horiz-adv-x="498" d="M47 -192q-9 13 1 26q166 243 166 713q0 182 -42 375.5t-122 328.5q-1 1 -3 5t-2.5 5.5t-2 4.5t-1.5 4.5t0.5 4t2 4.5t4.5 4l88 72q3 3 5.5 3.5t5 -0.5t4 -2t4 -4t3.5 -4q134 -158 209.5 -370.5t75.5 -420.5q0 -214 -76 -434t-214 -384q-15 -17 -23 -9z" />
<glyph unicode="*" horiz-adv-x="729" d="M67 1026l48 136q3 10 13 5l175 -89l-46 210q-2 13 2 14q2 1 5 1h200q7 0 8 -3t0 -10q-1 -2 -1 -3l-48 -209l173 87q8 4 13 -5l54 -134q4 -8 3 -9.5t-9 -3.5l-201 -24l144 -144l2 -2q6 -6 6.5 -8.5t-5.5 -9.5l-149 -97q-7 -6 -13 7l-78 196l-76 -192q-3 -6 -5 -8 t-4.5 -1.5t-7.5 4.5l-145 89q-7 7 2 17l141 149l-190 24q-10 2 -12 3t1 10z" />
<glyph unicode="+" horiz-adv-x="854" d="M60 400v159h297v363h144v-363h294v-159h-294v-363h-144v363h-297z" />
<glyph unicode="," horiz-adv-x="396" d="M28 -179l74 371q5 27 14 35t35 8h145q25 0 30.5 -11.5t-4.5 -42.5l-115 -362q-5 -19 -11 -24t-21 -5h-130q-22 0 -17 31z" />
<glyph unicode="-" horiz-adv-x="683" d="M89 473v113q0 27 19 27h469q19 0 19 -28v-101q0 -17 -4.5 -24.5t-18.5 -7.5h-467q-17 0 -17 21z" />
<glyph unicode="." horiz-adv-x="376" d="M71 119q0 54 33.5 91.5t83.5 37.5q47 0 82 -38t35 -91q0 -59 -34 -94.5t-83 -35.5q-51 0 -84 35t-33 95z" />
<glyph unicode="/" horiz-adv-x="798" d="M39 -101l490 1464q8 20 18 20h190q26 0 19 -24l-486 -1460q-3 -9 -8.5 -13t-10 -4.5t-15.5 -0.5h-188q-7 0 -10 5t1 13z" />
<glyph unicode="0" horiz-adv-x="1018" d="M71 652q0 147 26.5 267.5t79 211.5t137.5 141t196 50q146 0 246 -88.5t146 -236.5t46 -345q0 -147 -26.5 -268.5t-79.5 -212t-137.5 -140.5t-194.5 -50q-147 0 -247.5 88.5t-146 236.5t-45.5 346zM307 655q0 -231 53.5 -365t149.5 -134q95 0 147 133.5t52 365.5 q0 230 -52 361t-147 131q-97 0 -150 -131.5t-53 -360.5z" />
<glyph unicode="1" horiz-adv-x="659" d="M63 22v88q0 9 0.5 13t4 7t10.5 4q93 11 128.5 25.5t35.5 52.5v849q0 31 -33 8l-110 -80q-28 -19 -28 18v110q0 22 20 34l186 132q38 22 94 22h61q16 0 22 -5.5t6 -20.5v-1059q0 -46 30.5 -61.5t112.5 -20.5q16 -3 19.5 -8.5t3.5 -23.5v-80q0 -16 -3.5 -21t-17.5 -5h-523 q-13 0 -16 4t-3 18z" />
<glyph unicode="2" horiz-adv-x="919" d="M71 19v145q0 19 9 31q111 85 194.5 166.5t154 176.5t107.5 201.5t37 219.5q0 57 -12.5 95t-36 55t-46.5 23t-55 6q-77 0 -142 -30l-33 -233q-3 -13 -5.5 -16t-13.5 -3h-117q-12 0 -14.5 3.5t-2.5 19.5v331q0 26 4.5 35.5t19.5 14.5q163 62 319 62q62 0 108.5 -6.5 t97 -27.5t83.5 -57.5t54 -101t21 -152.5q0 -219 -115 -418.5t-328 -364.5h281q16 0 24.5 15t13.5 50l9 117q1 12 2.5 17t6 9t13.5 4h97q18 0 23 -7.5t5 -37.5v-341q0 -14 -3.5 -17t-15.5 -3h-727q-17 0 -17 19z" />
<glyph unicode="3" horiz-adv-x="891" d="M67 61v140q0 16 5.5 22t18.5 4q8 -2 41 -12t60 -16.5t74.5 -13t96.5 -6.5q222 0 222 212q0 107 -42.5 149.5t-121.5 42.5h-82q-17 0 -17 28v134q0 13 8 26l214 348h-246q-16 0 -23 -13.5t-12 -61.5l-8 -122q0 -2 -1 -6.5t-1.5 -5.5t-1.5 -4t-1.5 -4t-2 -2.5t-3.5 -2 t-4.5 -1t-6.5 -0.5h-95q-19 0 -23.5 4.5t-4.5 26.5v345q0 20 5.5 25.5t22.5 5.5h635q12 0 14 -5t2 -23v-110v-16.5t-2.5 -11.5t-3.5 -8t-7 -11t-9 -14l-231 -348h28q136 0 193.5 -88t57.5 -264q0 -97 -24.5 -172.5t-64 -121.5t-94 -76t-108.5 -41.5t-114 -11.5 q-203 0 -326 47q-17 9 -17 33z" />
<glyph unicode="4" horiz-adv-x="934" d="M35 337l127 933q3 22 8 27.5t27 5.5h146q17 0 22 -6t4 -24l-103 -770h218v681q0 23 4.5 28.5t21.5 5.5h155q15 0 19.5 -5.5t4.5 -19.5v-690h154q11 0 14 -5.5t3 -20.5v-146q0 -12 -2.5 -14t-12.5 -2h-156v-73q0 -26 0.5 -38t5.5 -25.5t10.5 -18t22.5 -10.5t34.5 -8 l52.5 -6q13 -1 16 -6.5t3 -21.5v-88q0 -13 -2.5 -16.5t-14.5 -3.5h-519q-11 0 -15 4t-4 15v91q0 9 0.5 12.5t3.5 6t9 3.5q60 9 89.5 15t54.5 13t33 17t11.5 22t3.5 34v82h-432q-12 0 -14.5 4t-2.5 18z" />
<glyph unicode="5" horiz-adv-x="876" d="M65 69v130q0 17 5.5 23t18.5 3q4 -1 50.5 -18t97 -28t107.5 -11q51 0 88 9.5t68.5 34t47.5 72t16 118.5q0 72 -17 119.5t-51.5 72t-76 34t-101.5 9.5h-197q-20 0 -17 28l54 610q1 4 1.5 9.5t1 7.5t1.5 5t2.5 4t4 1.5t6.5 0.5h562q17 0 22.5 -5.5t5.5 -25.5v-309 q0 -33 -4.5 -40t-23.5 -7h-95q-9 0 -13.5 4t-6 9t-2.5 17l-6 100q-5 47 -12 60t-23 13h-244l-28 -307h45q95 0 162 -10t123.5 -36.5t90.5 -72.5t52.5 -118t18.5 -173q0 -104 -26.5 -182.5t-67 -123t-97.5 -71.5t-107.5 -35.5t-107.5 -8.5q-186 0 -311 54q-17 8 -17 34z" />
<glyph unicode="6" horiz-adv-x="929" d="M71 510q0 171 40 316t119 257t208 175.5t297 63.5h13q17 0 23.5 -7.5t6.5 -26.5v-108q0 -22 -6 -30.5t-25 -8.5h-12q-167 0 -273.5 -110.5t-143.5 -328.5q91 128 222 128q90 0 156.5 -33t104.5 -91t56 -129t18 -156q0 -206 -102 -323t-300 -117q-208 0 -305 133t-97 396z M302 454q0 -303 171 -303q79 0 127 66t48 189q0 118 -42 186.5t-129 68.5q-70 0 -114 -54t-61 -153z" />
<glyph unicode="7" horiz-adv-x="826" d="M65 907v376q0 14 4 17t15 3h702q7 0 11 -1t5.5 -6t1.5 -8v-13v-136q0 -19 -11 -46l-447 -1054q-12 -27 -22 -33t-39 -6h-157q-18 0 -21 7t5 27l460 1074h-339l-23 -203q-1 -13 -2 -17.5t-5.5 -8.5t-14.5 -4h-104q-19 0 -19 32z" />
<glyph unicode="8" horiz-adv-x="940" d="M63 384q0 121 54.5 219.5t167.5 143.5q-144 76 -144 260q0 61 18.5 115t56.5 100t104.5 73t152.5 27q85 0 150 -27t102 -73t55.5 -100t18.5 -115q0 -85 -34.5 -153.5t-107.5 -105.5q113 -45 166.5 -142.5t53.5 -221.5q0 -61 -13 -117t-43.5 -108.5t-76.5 -91 t-116.5 -61.5t-158.5 -23t-159 23t-116 61.5t-75.5 91.5t-43 108.5t-12.5 116.5zM285 393q0 -104 45 -170.5t139 -66.5q93 0 139.5 67t46.5 170q0 104 -46 174t-138 70q-94 0 -140 -69.5t-46 -174.5zM335 992q0 -173 136 -173q69 0 103.5 48t34.5 127q0 76 -33.5 124.5 t-102.5 48.5q-72 0 -105 -49t-33 -126z" />
<glyph unicode="9" horiz-adv-x="917" d="M60 886q0 201 101.5 318.5t294.5 117.5q391 0 391 -525q0 -176 -41 -322.5t-122 -257.5t-212 -173.5t-301 -62.5h-13q-30 0 -30 34v108q0 39 32 39h11q165 0 274 102t151 300q-85 -91 -205 -91q-72 0 -129.5 23t-94.5 62t-61.5 92.5t-35 112t-10.5 123.5zM287 886 q0 -244 165 -244q65 0 105 40t63 124v17q0 163 -40 246t-128 83q-78 0 -121.5 -67.5t-43.5 -198.5z" />
<glyph unicode=":" horiz-adv-x="396" d="M80 112q0 54 33.5 91t83.5 37q48 0 83 -37.5t35 -90.5q0 -59 -34.5 -95t-83.5 -36q-51 0 -84 35.5t-33 95.5zM80 717q0 54 33.5 91t83.5 37q48 0 83 -37.5t35 -90.5q0 -59 -34.5 -95t-83.5 -36q-51 0 -84 35.5t-33 95.5z" />
<glyph unicode=";" horiz-adv-x="448" d="M35 -179l75 371q5 27 13.5 35t34.5 8h145q25 0 31 -11.5t-4 -42.5l-116 -362q-5 -19 -11 -24t-21 -5h-130q-22 0 -17 31zM130 756q0 54 34 91t84 37q48 0 82.5 -37.5t34.5 -90.5q0 -59 -34 -94.5t-83 -35.5q-52 0 -85 35t-33 95z" />
<glyph unicode="&#x3c;" horiz-adv-x="834" d="M56 400v153l694 370v-180l-435 -266l435 -267v-180z" />
<glyph unicode="=" horiz-adv-x="822" d="M93 203v158h637v-158h-637zM95 518v156h635v-156h-635z" />
<glyph unicode="&#x3e;" horiz-adv-x="832" d="M82 30v171l437 276l-437 275v170l696 -371v-151z" />
<glyph unicode="?" horiz-adv-x="780" d="M60 925v293q0 22 5 30t23 18q30 20 107 37t202 17q82 0 139.5 -15.5t103 -54t68 -110.5t22.5 -179q0 -80 -14.5 -135.5t-37.5 -84t-51.5 -49t-56.5 -39t-51 -43.5t-37.5 -73.5t-14.5 -119.5v-102q0 -11 -6 -18t-14 -7l-177 -1q-19 0 -19 26v132q0 93 14.5 158t38 98.5 t51.5 56t56.5 38t52 34.5t38 56.5t14.5 94.5q0 155 -132 155q-102 0 -138 -23l-19 -197q-1 -9 -2.5 -13.5t-6.5 -6.5t-15 -2h-115q-12 0 -16.5 1t-8 7.5t-3.5 20.5zM249 119q0 54 33 91.5t81 37.5q46 0 80.5 -38t34.5 -91q0 -59 -33.5 -94.5t-81.5 -35.5q-50 0 -82 35 t-32 95z" />
<glyph unicode="@" horiz-adv-x="1306" d="M71 586q0 169 53 305t142.5 221.5t203.5 130.5t241 45q239 0 387.5 -155t148.5 -396q0 -100 -18.5 -183.5t-56.5 -149.5t-102.5 -103t-149.5 -37q-58 0 -100.5 25.5t-59.5 69.5q-77 -96 -183 -96q-93 0 -154.5 79t-61.5 217q0 78 22 152t63.5 137t110 101t154.5 38 q122 0 181 -75.5t59 -187.5q0 -41 -10 -90.5t-24 -96.5t-16 -60q-8 -34 3.5 -54.5t37.5 -20.5q60 0 102.5 98.5t42.5 227.5q0 191 -108.5 310.5t-271.5 119.5q-95 0 -179.5 -36t-150.5 -105t-105 -179.5t-39 -249.5q0 -259 127.5 -397.5t337.5 -138.5q108 0 191.5 21 t171.5 74q14 12 23 -7l31 -80q8 -18 -9 -30q-165 -110 -408 -110q-134 0 -248 43.5t-198.5 126t-132.5 210t-48 286.5zM516 564q0 -79 26.5 -124t75.5 -45q41 0 77 35.5t57 87t33 103t12 88.5q0 149 -99 149q-79 0 -130.5 -90.5t-51.5 -203.5z" />
<glyph unicode="A" horiz-adv-x="1159" d="M15 22v88q0 24 15 24q70 12 91.5 26t21.5 52v97q0 227 25 410.5t74.5 320t130.5 210.5t187 74q228 0 343 -260.5t115 -754.5v-84q0 -53 15.5 -68t78.5 -19q11 -1 15.5 -5t5.5 -9t1 -18v-80q0 -16 -3.5 -21t-17.5 -5h-443q-13 0 -15.5 3.5t-2.5 18.5v88q0 14 2 18.5 t13 5.5q70 10 92.5 25t22.5 53v97q0 52 -2 78h-460v-162q0 -53 15.5 -67.5t77.5 -19.5q15 -1 19 -7.5t4 -24.5v-80q0 -9 -0.5 -12.5t-2 -7.5t-5.5 -5t-11 -1h-383q-13 0 -16 3.5t-3 18.5zM330 572h443q-18 263 -76 413.5t-146 150.5q-86 0 -143.5 -150t-77.5 -414z" />
<glyph unicode="B" horiz-adv-x="1050" d="M63 22v88q0 14 2 18.5t13 5.5q65 8 88 21.5t26 45.5v897q0 34 -22.5 47.5t-91.5 21.5q-11 3 -13 7t-2 18v89q0 14 3.5 18t15.5 4h424q395 0 395 -327q0 -215 -123 -272q118 -22 166 -103t48 -232q0 -369 -463 -369h-447q-12 0 -15.5 4t-3.5 18zM410 162h150 q120 0 163.5 51t43.5 152q0 38 -4 66.5t-15.5 57.5t-31.5 47t-54 29.5t-81 11.5h-171v-415zM410 747h119q162 0 162 201q0 95 -38 144t-130 49h-113v-394z" />
<glyph unicode="C" horiz-adv-x="1033" d="M69 644q0 339 134.5 508.5t394.5 169.5q95 0 189 -13t136 -30q18 -8 22.5 -18.5t4.5 -37.5v-344q0 -15 -3.5 -19t-15.5 -4h-129q-11 0 -14.5 3.5t-5.5 15.5l-34 251q-54 19 -143 19q-137 0 -223 -125t-86 -380q0 -105 20 -187.5t53 -134t79.5 -85t95.5 -47t104 -13.5 q51 0 109.5 7t87.5 12.5t110 21.5q24 6 24 -24v-112q0 -20 -5.5 -30.5t-23.5 -15.5q-139 -49 -343 -49q-270 0 -404 161t-134 500z" />
<glyph unicode="D" horiz-adv-x="1202" d="M63 22v88q0 14 2 18.5t13 5.5q65 8 88 21.5t26 45.5v897q0 34 -22.5 47.5t-91.5 21.5q-11 3 -13 7t-2 18v89q0 14 3.5 18t15.5 4h462q162 0 277 -44t182 -131t97 -203.5t30 -274.5q0 -334 -133 -492t-446 -158h-469q-12 0 -15.5 4t-3.5 18zM421 169h123q170 0 260 118.5 t90 358.5q0 238 -88 362t-264 124h-121v-963z" />
<glyph unicode="E" horiz-adv-x="929" d="M63 341q0 70 14.5 124.5t36 88.5t53 58.5t58.5 36.5t60 21q-173 45 -173 315q0 99 28 167t81.5 104t117 51t147.5 15q185 0 322 -50q18 -6 22 -15.5t4 -38.5v-282q0 -11 -2 -15.5t-4.5 -5.5t-10.5 -1h-108q-10 0 -13.5 3.5t-4.5 15.5l-34 193q-68 19 -154 19 q-39 0 -68.5 -6.5t-57 -24.5t-42.5 -55t-15 -93q0 -116 52.5 -159.5t156.5 -43.5h91q22 0 22 -28v-121q0 -28 -22 -28h-91q-107 0 -166.5 -49t-59.5 -165q0 -111 61.5 -157t186.5 -46q67 0 137.5 10t120 21t60.5 12q10 2 13.5 -3t3.5 -19v-140q0 -14 -4.5 -19.5t-17.5 -8.5 q-183 -41 -395 -41q-66 0 -120.5 8.5t-109.5 32.5t-92 63t-60.5 104.5t-23.5 151.5z" />
<glyph unicode="F" horiz-adv-x="929" d="M63 22v88q0 9 0.5 13t4 7t10.5 4q67 8 89 22.5t25 52.5v880q0 39 -22 54.5t-92 23.5q-11 3 -13 7.5t-2 18.5v88q0 14 3.5 18t15.5 4h786h8t4.5 -1t3.5 -3.5t1.5 -6t0.5 -9.5v-369q0 -28 -18 -28h-105q-13 0 -17.5 6t-4.5 20l-11 168q-4 45 -10 54t-27 9h-283v-413h251 q12 0 17 -4.5t5 -18.5v-128q0 -19 -4 -25.5t-18 -6.5h-251v-318q0 -55 25 -70.5t124 -20.5q11 0 15.5 -4t5.5 -9.5t1 -18.5v-80q0 -9 -0.5 -12.5t-2 -7.5t-5.5 -5t-11 -1h-480q-13 0 -16 4t-3 18z" />
<glyph unicode="G" horiz-adv-x="1152" d="M65 633q0 335 148 512t416 177q115 0 203.5 -18t187.5 -57q18 -6 23 -18.5t5 -44.5v-326q0 -14 -2.5 -17t-15.5 -3h-127q-11 0 -14 2.5t-6 14.5l-34 245q-83 41 -203 41q-156 0 -244.5 -124t-88.5 -380q0 -241 89 -358t255 -117q111 0 185 35v272h-170q-22 0 -22 28v127 q0 28 22 28h356q22 0 22 -28v-516q0 -40 -30 -52q-99 -39 -184 -57t-188 -18q-289 0 -436 163.5t-147 488.5z" />
<glyph unicode="H" horiz-adv-x="1225" d="M60 22v88q0 10 0.5 13t3.5 6.5t10 4.5q71 10 92.5 26t21.5 62v873q-1 41 -18.5 53t-74.5 17q-16 1 -19 7t-3 25v80q0 16 3 21t15 5h427q11 0 13.5 -3.5t2.5 -18.5v-88q0 -14 -2 -18.5t-13 -7.5q-68 -9 -91 -22t-24 -50v-464h393v464q-1 41 -18.5 53t-76.5 17q-16 1 -19 7 t-3 25v80q0 16 3 21t15 5h427q12 0 15 -3.5t3 -18.5v-88q0 -14 -2 -18.5t-13 -7.5q-67 -9 -89.5 -22.5t-23.5 -49.5v-849q0 -97 54 -97q56 0 56 69v7q0 15 11 15h59q13 0 13 -13v-7q0 -118 -49 -173.5t-146 -55.5q-216 0 -216 262v205h-393v-229q0 -56 15.5 -71.5 t79.5 -19.5q11 -1 15.5 -5t5.5 -9t1 -18v-80q0 -16 -3 -21t-17 -5h-423q-12 0 -15 3.5t-3 18.5z" />
<glyph unicode="I" horiz-adv-x="597" d="M61 22v88q0 9 0.5 13t4 7t10.5 4q71 10 92.5 26t21.5 62v852q0 56 -15.5 71.5t-77.5 19.5q-16 1 -19.5 7t-3.5 25v80q0 16 3.5 21t17.5 5h424q11 0 14 -4t3 -18v-88q0 -14 -2 -18.5t-13 -7.5q-71 -8 -92 -23.5t-21 -61.5v-894q4 -28 22.5 -37.5t70.5 -12.5q11 -1 15.5 -5 t5.5 -9t1 -18v-80q0 -16 -3 -21t-17 -5h-423q-13 0 -16 4t-3 18z" />
<glyph unicode="J" horiz-adv-x="577" d="M6 -235q-9 26 16 43l66 51q44 29 61.5 52t25 65.5t7.5 131.5v966q0 56 -15 71.5t-79 19.5q-16 1 -19.5 7t-3.5 25v80q0 16 3.5 21t17.5 5h422q13 0 16 -4t3 -18v-88q0 -14 -2 -18.5t-13 -7.5q-68 -8 -90.5 -21.5t-23.5 -50.5v-1061q0 -53 -3.5 -84t-15.5 -63t-38 -56 t-66.5 -50t-106.5 -57l-103 -50q-13 -5 -18 -2t-10 17z" />
<glyph unicode="K" horiz-adv-x="1102" d="M60 22v88q0 10 0.5 13t3.5 6.5t10 4.5q66 8 88.5 22.5t25.5 52.5v886q-1 41 -18.5 53t-74.5 17q-16 1 -19 7t-3 25v80q0 16 3 21t15 5h427q11 0 13.5 -3.5t2.5 -18.5v-88q0 -14 -2 -18.5t-13 -7.5q-68 -9 -91 -22t-24 -50v-419l264 385h-7l19 28q20 34 20 50 q0 12 -13 17.5t-47 8.5q-16 1 -19 7t-3 25v80q0 16 3.5 21t17.5 5h398q13 0 16 -4t3 -18v-88q0 -14 -2 -18.5t-13 -7.5q-66 -10 -82 -18l-326 -486h-2l244 -412q35 -63 61 -87t60 -24q22 0 56 9q11 6 17.5 4t6.5 -15l2 -99q0 -19 -4 -25.5t-20 -13.5q-46 -19 -127 -19 q-43 0 -74 8t-54.5 21t-46 41.5t-40 58t-44.5 82.5l-264 454v-417q0 -56 15.5 -71.5t79.5 -19.5q11 -1 15.5 -5t5.5 -9t1 -18v-80q0 -16 -3 -21t-17 -5h-423q-12 0 -15 3.5t-3 18.5z" />
<glyph unicode="L" horiz-adv-x="951" d="M60 22v88v11t1.5 6t4 5t8.5 2q64 8 87.5 21.5t26.5 45.5v894q-1 41 -18.5 53t-74.5 17q-16 1 -19 7t-3 25v80q0 16 3 21t15 5h427q11 0 13.5 -3.5t2.5 -18.5v-88q0 -14 -2 -18.5t-13 -7.5q-68 -9 -91 -22t-24 -50v-911l318 -2q16 0 24.5 15t13.5 51l9 119q3 19 7 24.5 t17 5.5h103q12 0 15 -7.5t3 -28.5v-341q0 -14 -3 -17t-15 -3h-818q-11 0 -14.5 4t-3.5 18z" />
<glyph unicode="M" horiz-adv-x="1606" d="M63 1193v88q0 14 3.5 18t15.5 4h415q29 0 37.5 -11.5t14.5 -48.5q1 -6 2 -10q30 -179 110.5 -499t144.5 -507h4q74 230 142 505t107 501q1 7 3.5 21.5t3.5 18.5t4.5 12.5t8.5 10.5t13.5 4.5t20.5 2.5h391q13 0 17 -4t4 -18v-88q0 -21 -17 -26q-68 -8 -90 -23t-22 -55 v-843q0 -97 56 -97t56 69v7q0 15 11 15h60q13 0 13 -13v-7q0 -229 -196 -229q-217 0 -217 262v723q-45 -240 -130 -532.5t-146 -423.5q-8 -20 -34 -20h-175q-20 0 -31 20q-68 141 -156 423t-142 538v-758q0 -51 15.5 -65.5t73.5 -19.5q17 -1 20.5 -7t3.5 -25v-80 q0 -16 -3 -21t-17 -5h-365q-14 0 -16.5 3.5t-2.5 18.5v88q0 14 4 18t17 6q59 8 76 23.5t17 65.5v866q0 40 -20.5 55t-87.5 23q-12 3 -14.5 7.5t-2.5 18.5z" />
<glyph unicode="N" horiz-adv-x="1230" d="M61 1193v88q0 14 3.5 18t15.5 4h259q30 0 48 -33l494 -920v739q0 39 -22 54.5t-92 23.5q-11 3 -13 7.5t-2 18.5v88q0 14 3.5 18t15.5 4h385q12 0 15.5 -5t3.5 -21v-80q0 -19 -3.5 -25t-19.5 -7q-59 -5 -76 -19t-17 -59v-1044q0 -43 -24 -43h-132q-31 0 -47 24l-489 899 v-698q0 -51 15.5 -67t75.5 -20q11 -1 15.5 -5t5.5 -9t1 -18v-80v-13t-1.5 -7t-5.5 -5t-11 -1h-373q-12 0 -14 3.5t-2 18.5v88q0 13 3.5 18t14.5 6q62 8 79.5 23.5t17.5 65.5v879q0 32 -24 45t-88 20q-11 3 -13 7.5t-2 18.5z" />
<glyph unicode="O" d="M63 652q0 146 34 267t100.5 212t172.5 141t243 50q110 0 200.5 -33t155 -92t109 -142.5t65.5 -184.5t21 -218t-21 -218.5t-65.5 -185t-109 -143t-155 -92t-200.5 -32.5q-182 0 -307.5 88t-184 236.5t-58.5 346.5zM302 655q0 -225 82 -356t229 -131t229.5 131t82.5 356 q0 223 -82.5 351t-229.5 128t-229 -128t-82 -351z" />
<glyph unicode="P" horiz-adv-x="964" d="M63 22v88q0 9 0.5 13t4 7t10.5 4q72 10 93 25.5t21 62.5v867q0 39 -22 54.5t-92 23.5q-11 3 -13 7.5t-2 18.5v88q0 14 3.5 18t15.5 4h396q107 0 186.5 -22.5t127.5 -60t76.5 -94t39 -116t10.5 -135.5q0 -465 -395 -465q-65 0 -113 11v-212q1 -42 18.5 -55t76.5 -16 q11 -1 15.5 -5t5.5 -9t1 -18v-80q0 -16 -3.5 -21t-17.5 -5h-424q-13 0 -16 4t-3 18zM410 600q20 -14 98 -14q85 0 133 72t48 208q0 128 -45 202.5t-136 74.5h-98v-543z" />
<glyph unicode="Q" d="M63 652q0 146 34 267t100.5 212t172.5 141t243 50q110 0 200.5 -33t155 -92t109 -142.5t65.5 -184.5t21 -218q0 -205 -65 -359t-194 -235l30 -67q22 -62 52 -87t78 -25q13 0 58 7q11 0 12 -8q1 -4 1 -10v-95q0 -15 -7.5 -22t-24.5 -12q-45 -15 -121 -15q-200 0 -264 231 l-10 34q-64 -8 -96 -8q-182 0 -307.5 88t-184 236.5t-58.5 346.5zM302 655q0 -278 117 -404v28q0 69 40.5 114t113.5 45q83 0 138.5 -43t102.5 -134q111 128 111 394q0 223 -82.5 351t-229.5 128t-229 -128t-82 -351zM506 268q0 -60 49 -95q24 -5 58 -5q33 0 44 3v2 q-21 74 -38 110.5t-29.5 45t-32.5 8.5q-23 0 -37 -19.5t-14 -49.5z" />
<glyph unicode="R" horiz-adv-x="1044" d="M63 22v88q0 9 0.5 13t4 7t10.5 4q73 10 94.5 26t21.5 62v780h-2v87q0 39 -22 54.5t-92 23.5q-11 3 -13 7.5t-2 18.5v88q0 14 3.5 18t15.5 4h423q100 0 175 -22t123 -59.5t77.5 -95t41 -121.5t11.5 -145q0 -296 -183 -393l80 -214q26 -65 48.5 -89t61.5 -24q22 0 39 11 q23 9 28 -15l10 -89q3 -23 -1.5 -30.5t-23.5 -14.5q-66 -21 -134 -21q-46 0 -81 11.5t-57.5 28t-42.5 49.5t-32 60.5t-29 76.5l-76 214h-4q-50 0 -126 13v-205q0 -56 15.5 -71.5t79.5 -19.5q11 -1 15.5 -5t5.5 -9t1 -18v-80q0 -16 -3.5 -21t-17.5 -5h-424q-13 0 -16 4t-3 18 zM410 614q40 -14 109 -14q89 0 138 66.5t49 193.5q0 142 -51.5 211.5t-140.5 69.5h-104v-527z" />
<glyph unicode="S" horiz-adv-x="945" d="M76 89v302q0 18 6 24t24 6h116q14 0 19 -5t7 -19l20 -200q59 -24 190 -24q26 0 50.5 3t55 14.5t52.5 30.5t37 54t15 82q0 52 -19.5 90t-52.5 61t-75.5 40t-90 31t-94.5 30t-89.5 42t-75.5 62t-52.5 93.5t-19.5 133.5q0 91 18.5 158t50 109.5t81 68t105 35t128.5 9.5 q224 0 324 -54q18 -10 23 -18t5 -30v-293q0 -21 -6 -25t-24 -4h-113q-14 0 -18 4t-6 18l-21 197q-52 23 -164 23q-171 0 -171 -155q0 -45 19.5 -77.5t52.5 -51.5t75.5 -33t90 -27.5t95 -30t90 -45.5t75.5 -69t52.5 -105t19.5 -149q0 -101 -23 -176.5t-60 -120t-92.5 -71.5 t-111 -36.5t-125.5 -9.5q-98 0 -210.5 16t-150.5 38q-32 15 -32 54z" />
<glyph unicode="T" horiz-adv-x="956" d="M47 946v337q0 14 3 17t15 3h827h8t4.5 -1t3.5 -3.5t1.5 -6t0.5 -9.5v-337q0 -14 -3 -20t-15 -6h-103q-8 0 -12.5 1t-7 4.5t-3 6t-1.5 10.5l-9 138q-9 45 -37 45h-131v-874h2v-22q0 -56 14.5 -71.5t76.5 -19.5q15 -1 19 -7.5t4 -24.5v-80q0 -16 -3.5 -21t-15.5 -5h-424 q-13 0 -16 4t-3 18v88q0 9 0.5 13t4 7t10.5 4q66 8 88.5 22.5t25.5 52.5v916h-133q-29 0 -35 -45l-11 -138q-1 -9 -2.5 -12.5t-6 -6.5t-14.5 -3h-104q-12 0 -15 6t-3 20z" />
<glyph unicode="U" horiz-adv-x="1184" d="M45 1197v80q0 16 3 21t15 5h445q10 0 13.5 -4t3.5 -18v-88q0 -14 -2 -18.5t-13 -7.5q-65 -8 -88.5 -21.5t-26.5 -45.5v-616q0 -150 60 -233t172 -83q107 0 168 83.5t61 232.5v611q-3 41 -20.5 53t-74.5 17q-16 1 -19 7t-3 25v80q0 16 3.5 21t17.5 5h374q12 0 14.5 -3.5 t2.5 -18.5v-88q0 -24 -15 -24q-69 -12 -91.5 -27t-22.5 -53v-605q0 -112 -24.5 -202.5t-75 -158.5t-132.5 -105t-190 -37q-219 0 -330.5 127.5t-111.5 375.5v592q0 55 -15 70t-76 19q-16 1 -19 7t-3 25z" />
<glyph unicode="V" horiz-adv-x="1117" d="M22 1192v91q0 12 3.5 16t13.5 4h417q11 0 14 -4.5t3 -17.5v-88q0 -15 -3.5 -21t-15.5 -7q-58 -4 -74.5 -15.5t-16.5 -41.5q0 -158 35 -327t66.5 -259t99.5 -261q9 -23 13 -34q54 133 79.5 201t64 192t55.5 242.5t17 245.5q0 31 -15.5 42t-73.5 15q-14 1 -17.5 7t-3.5 21 v88q0 13 3 17.5t14 4.5h376q11 0 14 -3.5t3 -16.5v-91q0 -14 -2 -18t-13 -7q-69 -8 -89.5 -17.5t-20.5 -34.5q0 -163 -28.5 -324.5t-80.5 -305.5t-99 -247.5t-110 -220.5q-9 -21 -32 -21h-121q-23 0 -32 21q-62 116 -109.5 220t-98.5 248t-79.5 305.5t-28.5 324.5 q0 20 -24 32t-88 20q-11 3 -13 7t-2 18z" />
<glyph unicode="W" horiz-adv-x="1716" d="M22 1190v91q0 14 3 18t14 4h439q11 0 13 -4.5t2 -19.5v-86v-13t-1.5 -7.5t-5.5 -5.5t-11 -2q-60 -4 -77 -14t-14 -36q6 -245 57.5 -468t135.5 -457q182 504 198 925q3 27 -16.5 36t-77.5 14q-12 1 -15 7t-3 20v89q0 13 3.5 17.5t14.5 4.5h395q11 0 14 -4t3 -18v-89 q0 -14 -2 -18t-13 -7q-81 -10 -99 -28q33 -495 220 -947q181 497 197 923q3 28 -14 36.5t-79 13.5q-12 1 -15 6.5t-3 21.5v86q0 15 2.5 19.5t13.5 4.5h376q11 0 14 -4t3 -18v-89q0 -13 -2.5 -17.5t-12.5 -7.5q-67 -8 -86.5 -18t-22.5 -36q-22 -481 -278 -1096 q-9 -21 -30 -21h-182q-23 0 -32 21q-124 300 -193 583q-71 -290 -185 -583q-9 -21 -30 -21h-186q-23 0 -30 21q-259 622 -279 1096q-2 24 -22.5 35t-85.5 19q-7 1 -10.5 4t-4 6.5t-0.5 12.5z" />
<glyph unicode="X" horiz-adv-x="1059" d="M32 22v88v5q0 8 0.5 11t3 5t9.5 3q58 8 79 22t45 56l242 401l-262 508q-13 25 -31.5 33t-70.5 13q-11 3 -13 7.5t-2 18.5v88q0 15 3 18.5t15 3.5h419q14 0 17.5 -5t3.5 -21v-80q0 -19 -3.5 -25t-19.5 -7q-48 -3 -59.5 -18t7.5 -47l134 -258l142 234q22 38 22 58 q0 15 -14 21.5t-47 9.5q-16 1 -19.5 7t-3.5 25v80q0 16 3.5 21t17.5 5h354q12 0 15 -3.5t3 -18.5v-89q0 -14 -2 -18t-13 -7q-55 -7 -82 -22.5t-48 -51.5l-246 -410l227 -439q33 -60 55.5 -81.5t49.5 -21.5q9 0 25 3t21 3q8 3 14 1t7 -12l11 -97q3 -18 -1 -26t-20 -13 q-53 -19 -141 -19q-51 0 -85 9.5t-62.5 40t-43 53t-45.5 80.5l-4.5 7.5t-3.5 6.5l-4 8l-138 268l-137 -229q-23 -37 -23 -54q0 -27 65 -33q16 -3 19.5 -8.5t3.5 -23.5v-80q0 -9 -0.5 -12.5t-2 -7.5t-5.5 -5t-11 -1h-354q-11 0 -13.5 3.5t-2.5 18.5z" />
<glyph unicode="Y" horiz-adv-x="1051" d="M20 1192v91q0 12 3.5 16t13.5 4h415q12 0 15.5 -4.5t3.5 -17.5v-88q0 -11 -1 -15.5t-5.5 -8t-13.5 -4.5q-54 -3 -72 -10.5t-18 -26.5q0 -116 47 -234.5t128 -262.5q43 69 71 119t60.5 118t48.5 133t16 127q0 20 -17.5 27t-72.5 10q-9 1 -13.5 4.5t-5.5 8t-1 15.5v88 q0 13 3 17.5t14 4.5h376q11 0 13.5 -3.5t2.5 -16.5v-91q0 -25 -14 -25q-61 -7 -83 -17t-27 -35q-17 -157 -92 -325.5t-176 -305.5v-255q0 -56 15.5 -71.5t77.5 -19.5q11 -1 15.5 -5t5.5 -9t1 -18v-80q0 -16 -3.5 -21t-15.5 -5h-424q-13 0 -16 4t-3 18v88q0 9 0.5 13t4 7 t10.5 4q71 10 92.5 26t21.5 62v223q-109 149 -188 326t-88 344q-3 20 -27.5 32t-82.5 20q-11 3 -13 7t-2 18z" />
<glyph unicode="Z" horiz-adv-x="925" d="M69 19v113q0 19 7 32l499 972h-298q-21 0 -26 -11t-10 -56q-1 -5 -1 -8l-11 -152q0 -9 -1 -13t-5.5 -7t-13.5 -3h-105q-18 0 -18 28v369q0 14 3 17t15 3h719q12 0 14.5 -5.5t2.5 -22.5v-104q0 -28 -11 -46l-494 -957h328q15 0 23 13.5t12 51.5l11 147q1 10 1.5 13t2.5 7 t6 5t11 1h106q17 0 17 -30v-356q0 -14 -3.5 -17t-15.5 -3h-752q-7 0 -10 3.5t-3 15.5z" />
<glyph unicode="[" horiz-adv-x="517" d="M125 -277v1601q0 14 2 17t13 3h301q8 1 10.5 -1.5t2.5 -11.5v-115q0 -8 -2.5 -10.5t-10.5 -2.5h-100v-1352h98q10 0 12.5 -2.5t2.5 -12.5v-113q0 -8 -2.5 -10.5t-10.5 -2.5h-307q-9 0 -9 13z" />
<glyph unicode="\" horiz-adv-x="781" d="M39 1322h220l488 -1354h-222z" />
<glyph unicode="]" horiz-adv-x="513" d="M61 -160q0 9 2.5 11t12.5 2h101v1352h-101q-10 0 -12.5 2t-2.5 12v114q0 9 2.5 11t10.5 2h308q9 0 9 -13v-1601q0 -9 -0.5 -12.5t-3.5 -6t-9 -2.5h-304q-7 -1 -10 2t-3 11v116z" />
<glyph unicode="^" horiz-adv-x="983" d="M60 814l432 499l433 -499l-150 -129l-283 363l-283 -363z" />
<glyph unicode="_" horiz-adv-x="841" d="M84 0h674v-162h-674v162z" />
<glyph unicode="`" horiz-adv-x="515" d="M20 1594q-7 8 -9 15.5t2 11.5t13 4h173q19 0 29 -6.5t21 -26.5l110 -183q11 -24 7.5 -32.5t-20.5 -8.5h-83q-32 0 -68 36z" />
<glyph unicode="a" horiz-adv-x="897" d="M54 210q0 46 8.5 83.5t21 63t34.5 45t41.5 30.5t50 19.5t52.5 12t55 7.5l45 6t41 7t39.5 10.5t31 15t26 21t15 29t6.5 38.5q0 61 -28 92t-106 31q-68 0 -126 -23l-15 -143q-2 -19 -17 -19h-101q-11 0 -13.5 3.5t-2.5 15.5v231q0 25 4 35.5t18 18.5q31 17 103.5 30.5 t153.5 13.5q192 0 271 -88.5t79 -263.5v-260q0 -73 13 -98t37 -25q36 0 36 45q0 12 1 17.5t6.5 9.5t16.5 4h35q16 0 20 -6.5t4 -28.5q0 -197 -175 -197q-131 0 -175 108q-73 -110 -271 -110q-121 0 -178 49.5t-57 169.5zM270 218q0 -35 18 -49t56 -14q75 0 132.5 61 t57.5 143v58q-18 -50 -52.5 -72t-84.5 -32q-8 -2 -27.5 -5.5t-27.5 -6t-22.5 -7t-21 -10.5t-14.5 -15t-11 -21.5t-3 -29.5z" />
<glyph unicode="b" horiz-adv-x="953" d="M28 22v88q0 9 0.5 13t4 7t10.5 4q70 10 91.5 26.5t21.5 61.5v858q0 33 -9 44.5t-30 13.5l-63 5q-13 0 -13 24v82q0 16 4 21t16 7q135 26 203 26h62q39 0 39 -50v-538q34 84 98 126.5t142 42.5q142 0 216.5 -124.5t74.5 -325.5q0 -130 -31.5 -228t-102.5 -157.5 t-176 -59.5q-50 0 -94 12t-83.5 46t-52.5 87v-91q0 -17 -1 -24.5t-7.5 -13t-19.5 -5.5h-281q-13 0 -16 4t-3 18zM363 415q0 -119 38.5 -187t114.5 -68q82 0 122 73.5t40 196.5q0 122 -39.5 199.5t-119.5 77.5q-76 0 -116 -79.5t-40 -212.5z" />
<glyph unicode="c" horiz-adv-x="781" d="M54 419q0 227 102 346t285 119q76 0 143 -14.5t99 -31.5q14 -7 18.5 -16.5t4.5 -33.5v-270q0 -12 -3.5 -15.5t-13.5 -3.5h-101q-13 0 -16 17l-26 178q-39 25 -94 25q-85 0 -134.5 -71.5t-49.5 -219.5q0 -153 59.5 -212.5t169.5 -59.5q81 0 203 32q13 3 18.5 -3t5.5 -23 v-104q0 -20 -24 -30q-109 -39 -261 -39q-190 0 -287.5 102t-97.5 328z" />
<glyph unicode="d" horiz-adv-x="964" d="M58 434q0 131 31.5 230.5t99.5 159.5t165 60q77 0 139.5 -31.5t94.5 -98.5v326q0 33 -8.5 44.5t-28.5 13.5l-65 5q-13 0 -13 24v82q0 16 4 21t16 7q135 26 203 26h62q39 0 39 -50v-985q0 -73 12.5 -98t35.5 -25q36 0 36 45q0 12 1 17.5t7 10t18 4.5h33q17 0 21.5 -7 t4.5 -29q0 -197 -165 -197q-141 0 -179 143q-36 -78 -107 -111.5t-154 -33.5q-102 0 -171.5 60t-100.5 158.5t-31 228.5zM274 424q0 -117 42.5 -194t124.5 -77t123 69t41 191q0 139 -41.5 214t-124.5 75q-82 0 -123.5 -77t-41.5 -201z" />
<glyph unicode="e" horiz-adv-x="821" d="M56 432q0 224 91.5 338t286.5 114q318 0 318 -281q0 -158 -78 -238t-210 -80q-112 0 -179 18q24 -82 77 -113.5t137 -31.5q41 0 80 7t94 23.5t64 18.5q11 4 17 1.5t6 -16.5v-99q0 -21 -4 -29t-19 -16q-43 -23 -119.5 -41t-152.5 -18q-212 0 -310.5 106.5t-98.5 336.5z M270 482q57 -17 115 -17q71 0 116 35t45 105q0 55 -30 83.5t-78 28.5q-154 0 -168 -235z" />
<glyph unicode="f" horiz-adv-x="616" d="M60 22v88q0 14 2.5 18.5t11.5 5.5q66 10 82.5 25t16.5 63v489h-89q-19 0 -19 24v108q0 23 19 23h89v89q0 202 66 284.5t225 82.5q58 0 108 -12.5t76 -28.5q22 -12 22 -54v-229q0 -13 -3 -16t-14 -3h-102q-14 0 -17 17l-24 142q-18 18 -46 18q-45 0 -63.5 -48.5 t-18.5 -165.5v-76h164q20 0 20 -24v-107q0 -24 -20 -24h-164v-499q1 -44 29 -56.5t125 -17.5q15 0 19 -6.5t4 -25.5v-80q0 -9 -0.5 -12.5t-2 -7.5t-5.5 -5t-11 -1h-462q-12 0 -15 3.5t-3 18.5z" />
<glyph unicode="g" horiz-adv-x="960" d="M69 434q0 131 31.5 230.5t99.5 159.5t165 60q90 0 157.5 -41t91.5 -130v101q0 52 39 52h47q17 0 43.5 -4.5t76.5 -14.5t92 -17q11 0 15 -5.5t4 -20.5v-82q0 -15 -2.5 -19.5t-10.5 -4.5l-69 -5q-37 -4 -37 -60v-540q0 -233 -99 -347.5t-309 -114.5q-181 0 -266 47 q-14 7 -18.5 16t-4.5 32v95q0 17 5.5 22t17.5 2q146 -44 236 -44q112 0 172 62.5t61 222.5q-78 -99 -235 -99q-102 0 -171.5 60t-100.5 158.5t-31 228.5zM287 424q0 -117 42 -194t123 -77q82 0 123 69t41 191q0 139 -41 214t-124 75q-82 0 -123 -77t-41 -201z" />
<glyph unicode="h" horiz-adv-x="1001" d="M28 22v88q0 9 0.5 13t4 7t10.5 4q65 8 87.5 23t25.5 52v873q0 57 -37 57l-63 6q-9 1 -12 6t-3 18v84q0 15 4 19.5t15 6.5q43 7 91 16t74.5 13.5t42.5 4.5h49q37 0 37 -51v-551q41 88 111 130.5t153 42.5q110 0 164 -73.5t54 -233.5v-307q0 -51 7.5 -79.5t17 -36 t23.5 -7.5q38 0 38 45q0 12 1 17.5t6.5 9.5t16.5 4h35q16 0 20 -7t4 -30q0 -197 -175 -197q-97 0 -149 63.5t-52 208.5v290q0 91 -23 125.5t-70 34.5q-78 0 -124.5 -86t-46.5 -260v-136q0 -56 14.5 -71.5t76.5 -19.5q11 -1 15.5 -5t5.5 -9t1 -18v-80v-13t-1.5 -7t-5.5 -5 t-11 -1h-413q-13 0 -16 4t-3 18z" />
<glyph unicode="i" horiz-adv-x="528" d="M34 730v82q0 16 4 21t14 7q138 26 205 26h61q39 0 39 -51v-545q0 -74 13 -98.5t36 -24.5q35 0 35 45q0 12 1 17.5t7 9.5t18 4h34q16 0 20 -7t4 -30q0 -197 -175 -197q-201 0 -201 272v394q-3 25 -11.5 34t-25.5 11l-65 6q-13 0 -13 24zM141 1134q0 53 32 88t80 35 q47 0 80.5 -35.5t33.5 -87.5q0 -58 -33 -92.5t-81 -34.5q-49 0 -80.5 34t-31.5 93z" />
<glyph unicode="j" horiz-adv-x="474" d="M-54 -169q0 15 4 20.5t15 5.5h83q7 0 11 -3.5t5 -6t2 -11t1 -9.5q3 -47 39 -47q54 0 54 142v720q0 33 -8.5 44.5t-28.5 13.5l-67 6q-8 0 -9.5 5t-1.5 19v82q0 16 4 21t16 7q135 26 201 26h64q39 0 39 -51v-783q0 -209 -55 -303t-182 -94q-94 0 -140 56t-46 140zM151 1134 q0 53 32 88t80 35q46 0 79.5 -35.5t33.5 -87.5q0 -58 -32.5 -92.5t-80.5 -34.5q-49 0 -80.5 34t-31.5 93z" />
<glyph unicode="k" horiz-adv-x="943" d="M28 22v88q0 9 0.5 13t4 7t10.5 4q70 10 91.5 26.5t21.5 61.5v860q0 53 -37 57l-63 6q-9 1 -12 6t-3 18v84q0 15 4.5 19.5t15.5 6.5q42 6 93 15.5t79 14t44 4.5h49q39 0 39 -51v-784l154 216q15 21 5.5 31t-46.5 10q-11 0 -15.5 4t-5.5 10t-1 20v71q0 16 3.5 21t17.5 5 h392q14 0 16.5 -4t2.5 -19v-82q0 -9 -0.5 -12.5t-4 -6.5t-10.5 -3q-56 0 -85 -15t-58 -56l-149 -204l123 -216q25 -62 47.5 -86t47.5 -24q50 0 50 56q2 16 7 22.5t19 6.5h32q17 0 21.5 -7.5t4.5 -33.5q0 -111 -48.5 -156t-130.5 -45q-46 0 -81.5 12.5t-62 39t-44.5 53.5 t-39 69l-162 294v-220q0 -56 14.5 -71.5t76.5 -19.5q11 -1 15.5 -5t5.5 -9t1 -18v-80v-13t-1.5 -7t-5.5 -5t-11 -1h-413q-13 0 -16 4t-3 18z" />
<glyph unicode="l" horiz-adv-x="478" d="M-9 1184v86q0 15 3.5 19.5t14.5 6.5q168 26 203 26h64q39 0 39 -49v-1003q0 -74 12.5 -98.5t35.5 -24.5q20 0 27 11t7 34q0 17 4.5 24t21.5 7h35q16 0 20 -7t4 -30q0 -197 -175 -197q-97 0 -149 63.5t-52 208.5v841q0 30 -9.5 41t-29.5 13l-63 6q-9 0 -11 4t-2 18z" />
<glyph unicode="m" horiz-adv-x="1433" d="M56 22v88q0 14 2 18.5t13 5.5q64 10 82 24.5t18 53.5v432q0 54 -37 58l-63 5q-15 2 -15 25v83q0 16 3.5 20.5t14.5 6.5q42 7 90.5 16t74.5 13t42 4h49q39 0 39 -50v-131q58 190 238 190q148 0 194 -150q74 150 251 150q110 0 163 -81t53 -259v-272q0 -74 12.5 -98.5 t35.5 -24.5q36 0 36 45q0 17 4.5 24t21.5 7h35q16 0 20 -7t4 -30q0 -197 -177 -197q-201 0 -201 272v255q0 107 -22 150t-69 43q-66 0 -105.5 -69.5t-39.5 -202.5v-208q0 -57 18 -73t92 -20q14 -1 17 -7.5t3 -24.5v-80v-13t-1.5 -7t-5.5 -5t-11 -1h-391q-13 0 -16 4t-3 18 v88q0 13 3 18t12 6q53 6 64.5 22.5t11.5 68.5v293q0 109 -23.5 151t-69.5 42q-67 0 -105.5 -76t-39.5 -229v-181q0 -52 11.5 -67t57.5 -18q16 -4 19 -10t3 -24v-80q0 -16 -3 -21t-15 -5h-377q-11 0 -14.5 4t-3.5 18z" />
<glyph unicode="n" horiz-adv-x="1020" d="M47 22v88q0 10 0.5 13t3.5 6.5t10 4.5q65 8 88 23t26 52v435q0 58 -35 58l-66 5q-14 3 -14 25v83q0 16 3.5 20.5t14.5 6.5q42 7 91 16t75.5 13t42.5 4h48q22 0 29.5 -13t7.5 -37v-116q40 89 110.5 132t154.5 43q111 0 165 -73.5t54 -233.5v-307q0 -74 13 -98.5t36 -24.5 q35 0 35 45q0 12 1 17.5t6.5 9.5t16.5 4h36q16 0 20 -7t4 -30q0 -197 -175 -197q-201 0 -201 272v290q0 91 -23 125.5t-70 34.5q-78 0 -124.5 -86t-46.5 -260v-136q0 -56 14.5 -71.5t76.5 -19.5q11 -1 15.5 -5t5.5 -9t1 -18v-80q0 -9 -0.5 -12.5t-2 -7.5t-5.5 -5t-11 -1 h-413q-12 0 -15 3.5t-3 18.5z" />
<glyph unicode="o" horiz-adv-x="871" d="M52 438q0 88 21 165t64.5 141.5t120 102t178.5 37.5q103 0 179.5 -37.5t119.5 -102t63.5 -141t20.5 -165.5t-20.5 -166t-64 -142t-120 -103t-178.5 -38q-103 0 -179.5 38t-120 103t-64 142t-20.5 166zM264 432q0 -121 42 -198.5t130 -77.5q87 0 130 78t43 198 q0 77 -17 139.5t-57 104t-99 41.5q-86 0 -129 -82t-43 -203z" />
<glyph unicode="p" horiz-adv-x="942" d="M30 -246q0 16 2 20.5t13 5.5q62 7 80 21t18 54l2 385h2v404q0 54 -37 58l-65 5q-13 2 -13 25v83q0 16 3.5 20.5t14.5 6.5q42 7 90.5 16t74.5 13t42 4h48q39 0 39 -50v-131q29 95 97 142.5t153 47.5q142 0 216 -124.5t74 -325.5q0 -202 -74.5 -327.5t-223.5 -125.5 q-73 0 -137.5 33t-92.5 103v-242q0 -53 23 -69.5t90 -21.5q16 -1 19.5 -7.5t3.5 -25.5v-79q0 -16 -3.5 -21t-15.5 -5h-425q-12 0 -15 4t-3 19v85zM352 406q0 -125 39.5 -200.5t114.5 -75.5q81 0 121 80.5t40 208.5q0 127 -39.5 207.5t-117.5 80.5q-77 0 -117.5 -82 t-40.5 -219z" />
<glyph unicode="q" horiz-adv-x="956" d="M58 436q0 202 78 325t235 123q73 0 137.5 -26.5t100.5 -86.5v43q0 52 37 52h48q17 0 43.5 -4.5t77 -14.5t92.5 -17q11 0 15.5 -5.5t4.5 -20.5v-82q0 -15 -2.5 -19.5t-12.5 -4.5l-67 -5q-37 -4 -37 -60v-402h-2v-367q0 -49 15 -62.5t78 -17.5q16 -1 19.5 -7.5t3.5 -25.5 v-79q0 -16 -3.5 -21t-15.5 -5h-425q-12 0 -15 4t-3 19v85q0 15 2.5 20t12.5 6q30 4 44 6.5t33 8.5t26.5 14t13.5 22.5t6 34.5v227q-77 -104 -235 -104q-151 0 -228 123t-77 324zM274 439q0 -120 41.5 -202t122.5 -82t124 77.5t43 208.5q0 129 -42.5 206t-123.5 77 t-123 -81.5t-42 -203.5z" />
<glyph unicode="r" horiz-adv-x="806" d="M47 22v88q0 10 0.5 13t3.5 6.5t10 4.5q71 10 92.5 26.5t21.5 61.5v422q0 58 -35 58l-66 5q-14 3 -14 25v83q0 16 3.5 20.5t14.5 6.5q42 7 91 16t75.5 13t42.5 4h48q22 0 29.5 -13t7.5 -37v-185h10q57 244 234 244q60 0 119 -28q14 -8 18.5 -19t4.5 -35v-307 q0 -7 -0.5 -11t-3.5 -5.5t-4.5 -1.5h-8.5h-112q-5 0 -8 1t-5 4.5t-3 10.5l-23 188q-12 8 -30 8q-159 0 -175 -345v-156q4 -28 22 -37.5t68 -12.5q11 -1 15.5 -5t5.5 -9t1 -18v-80q0 -9 -0.5 -12.5t-2 -7.5t-5.5 -5t-11 -1h-413q-12 0 -15 3.5t-3 18.5z" />
<glyph unicode="s" horiz-adv-x="774" d="M58 61v209q0 25 6 31t24 6h96q15 0 20 -5t6 -25l10 -113q61 -21 147 -21q84 0 116.5 22t32.5 83q0 34 -19 57t-50.5 34.5t-71.5 22t-81.5 18.5t-81.5 26t-71.5 43t-50.5 70.5t-19 107.5q0 147 76.5 202t252.5 55q188 0 270 -37q16 -6 20 -13.5t4 -23.5l-9 -197 q0 -14 -4.5 -21t-10 -8t-17.5 -1h-81q-15 0 -22 6.5t-8 23.5l-10 98q-45 19 -126 19q-68 0 -98.5 -17t-30.5 -73q0 -31 24.5 -49.5t63.5 -28t86 -17.5t94 -25t86 -44.5t63.5 -82t24.5 -130.5q0 -84 -20.5 -138t-67 -83t-106 -40t-151.5 -11q-81 0 -169 10t-119 27 q-28 12 -28 33z" />
<glyph unicode="t" horiz-adv-x="633" d="M26 734v106q0 26 21 26h113l93 262q8 24 28 24h58q13 0 17.5 -6t4.5 -21v-259h209q20 0 20 -26v-106q0 -27 -20 -27h-209v-405q0 -91 20 -127.5t62 -36.5q76 0 76 80q0 26 23 26h39q22 0 22 -28q0 -122 -56 -178.5t-167 -56.5q-109 0 -169 74t-60 226v426h-104 q-12 0 -16.5 6t-4.5 21z" />
<glyph unicode="u" horiz-adv-x="994" d="M24 741v71q0 16 4 21t15 7q36 5 74.5 11t55 8.5t36 4.5t37.5 2h63q37 0 37 -52v-509q0 -100 25 -136.5t78 -36.5q165 0 165 304v247q-9 24 -33 28l-67 6q-13 2 -13 24v71q0 15 4.5 20.5t15.5 7.5q35 5 73.5 11t55.5 8.5t36.5 4.5t37.5 2h64q37 0 37 -52v-566 q1 -60 13.5 -80.5t34.5 -20.5q36 0 36 45q0 12 1 17.5t6.5 9.5t16.5 4h35q17 0 20.5 -6.5t3.5 -30.5q0 -197 -175 -197q-150 0 -188 147q-40 -78 -97.5 -114.5t-146.5 -36.5q-127 0 -186 76t-59 248v346q0 52 -38 56l-67 6q-8 1 -9.5 5.5t-1.5 18.5z" />
<glyph unicode="v" horiz-adv-x="906" d="M26 752v97q0 11 3 14t12 3h372q11 0 14 -3.5t3 -13.5v-95q0 -14 -2.5 -17.5t-16.5 -6.5q-47 -4 -61 -13.5t-9 -33.5q12 -216 132 -508q122 297 136 508q5 24 -9 33t-60 14q-14 3 -16.5 6.5t-2.5 15.5v95q0 12 3 15.5t14 3.5h326q12 0 14.5 -3t2.5 -14v-97q0 -15 -13 -18 q-54 -8 -68.5 -17.5t-19.5 -35.5q-13 -157 -82 -356t-134 -316q-8 -13 -24 -13h-171q-18 0 -26 13q-65 117 -134 316t-82 356q-3 22 -20 32t-70 21q-11 2 -11 18z" />
<glyph unicode="w" horiz-adv-x="1364" d="M24 752v99q0 9 3 12t12 3h376q11 0 14 -3.5t3 -13.5v-95q0 -13 -3 -17t-16 -7q-45 -4 -60 -14t-10 -31q9 -206 124 -508q118 309 129 508q5 21 -9 31t-62 14q-12 3 -15.5 7.5t-3.5 16.5v95q0 10 3 13.5t14 3.5h332q13 0 13 -15v-99q0 -10 -2 -13.5t-10 -4.5 q-41 -8 -63 -15q20 -156 52.5 -278.5t92.5 -263.5q118 309 129 508q5 23 -9 32t-62 13q-13 3 -16 7t-3 17v95q0 10 3 13.5t14 3.5h330q9 0 12 -3.5t3 -13.5v-97q0 -16 -13 -18q-54 -10 -69.5 -19t-20.5 -32q-13 -152 -79.5 -354.5t-126.5 -319.5q-8 -13 -23 -13h-178 q-17 0 -25 13q-55 104 -124 311q-63 -195 -121 -311q-11 -13 -25 -13h-177q-15 0 -22 13q-60 114 -127 317.5t-80 356.5q-5 20 -23 31t-68 20q-13 2 -13 18z" />
<glyph unicode="x" horiz-adv-x="943" d="M28 22v80q0 15 4 20t16 5q50 0 75 14.5t54 50.5l180 225l-175 263q-22 29 -48.5 42t-70.5 13q-15 0 -15 28v79q0 14 4 19t17 5h383q12 0 15.5 -5t3.5 -21v-69q0 -15 -1 -21t-5.5 -10.5t-15.5 -4.5q-31 0 -36 -12t11 -36l69 -101l84 105q16 21 10.5 32.5t-36.5 11.5 q-13 0 -16 7.5t-3 28.5v69q0 16 2.5 21t14.5 5h330q11 0 14 -4t3 -19v-80q0 -15 -3 -20.5t-12 -5.5q-42 -1 -68 -15t-53 -42l-181 -218l190 -274q25 -33 53.5 -47t74.5 -14q21 0 21 -25v-80q0 -15 -2.5 -18.5t-14.5 -3.5h-415q-12 0 -14.5 5t-2.5 21v71q0 14 1 19t5 8.5 t13 3.5q32 -2 43 7t-4 33l-86 126l-106 -128q-29 -31 25 -37q10 -1 22 -1q8 0 12.5 -1t6.5 -5.5t2.5 -9t0.5 -15.5v-71q0 -9 -0.5 -12.5t-2 -7.5t-5.5 -5t-11 -1h-340q-12 0 -14.5 3.5t-2.5 18.5z" />
<glyph unicode="y" horiz-adv-x="916" d="M28 752v99q0 9 3 12t12 3h374q9 0 12 -3.5t3 -13.5v-95q0 -14 -2.5 -17.5t-14.5 -6.5q-48 -4 -62 -14t-9 -33q6 -90 47 -243.5t82 -251.5q61 168 145 495q7 25 -2 33.5t-56 13.5q-10 3 -12.5 4t-7 4t-5.5 7t-1 11v82q0 16 5.5 22t20.5 6h309q17 0 21 -5t4 -21v-79 q0 -12 -4 -17t-19 -12q-45 -8 -58 -18.5t-22 -41.5q-72 -276 -152 -505.5t-194 -484.5q-21 -38 -45 -52t-69 -14h-145q-15 0 -17.5 3t-2.5 18v87q0 10 0.5 14t4 6.5t10.5 2.5q79 10 99 19t38 44q44 94 82 190h-29q-19 0 -27 13q-49 78 -125.5 305t-90.5 363 q-3 22 -20.5 32.5t-68.5 20.5q-8 1 -9.5 4.5t-1.5 13.5z" />
<glyph unicode="z" horiz-adv-x="817" d="M63 28v71q0 27 3 36.5t14 24.5l385 564h-204q-17 0 -23 -5.5t-7 -24.5l-6 -117q-1 -14 -7 -19t-19 -5h-91q-12 0 -17 1t-9 7.5t-4 19.5v257q0 28 23 28h612q22 0 22 -28v-73q0 -39 -20 -65l-380 -560h237q26 0 29 31l8 121q2 18 7 24t19 6h89q18 0 23 -5.5t5 -31.5 l2 -257q0 -28 -20 -28h-646q-25 0 -25 28z" />
<glyph unicode="{" horiz-adv-x="562" d="M39 467v116q0 15 15 18q65 17 85.5 62.5t20.5 131.5v266q0 46 5.5 84t21.5 75t41 62.5t67 41t98 15.5h102q5 0 7.5 -0.5t5 -4t2.5 -10.5v-106q0 -25 -15 -25h-5q-60 0 -86 -33t-26 -101v-253q0 -126 -25.5 -187.5t-106.5 -93.5q81 -33 106.5 -94.5t25.5 -186.5v-253 q0 -69 26 -101.5t86 -32.5h5q15 0 15 -26v-105q0 -7 -2.5 -10.5t-5 -4t-7.5 -0.5h-102q-56 0 -98 15.5t-67 41t-41 62.5t-21.5 75t-5.5 84v266q0 86 -20.5 131.5t-85.5 62.5q-15 3 -15 18z" />
<glyph unicode="|" horiz-adv-x="454" d="M125 -311v1670h205v-1670h-205z" />
<glyph unicode="}" horiz-adv-x="562" d="M50 -169q0 26 17 26h4q61 0 87 32.5t26 101.5v253q0 125 25.5 186.5t105.5 94.5q-80 32 -105.5 94t-25.5 187v253q0 68 -26 101t-87 33h-4q-17 0 -17 25v106q0 15 17 15h101q70 0 118 -22.5t72 -64t34 -87t10 -104.5v-266q0 -87 20 -132t86 -62q15 -3 15 -18v-116 q0 -15 -15 -18q-66 -17 -86 -62t-20 -132v-266q0 -59 -10 -104.5t-34 -87t-72 -64t-118 -22.5h-101q-17 0 -17 15v105z" />
<glyph unicode="~" horiz-adv-x="968" d="M71 372q49 114 126.5 177.5t156.5 63.5q43 0 86 -25.5t72 -55.5t64 -55.5t63 -25.5q27 0 54.5 34t47.5 98l155 -60q-35 -120 -108 -182t-153 -62q-35 0 -67.5 17t-57 41.5t-47 49t-47.5 41.5t-49 17q-40 0 -69 -29.5t-60 -100.5z" />
<glyph unicode="&#xa0;" horiz-adv-x="683" d="M89 465v114q0 9 0.5 13t5 8.5t13.5 4.5h469q19 0 19 -28v-100q0 -17 -4.5 -24.5t-18.5 -7.5h-467q-17 0 -17 20z" />
<glyph unicode="&#xa1;" horiz-adv-x="417" d="M86 756q0 54 33.5 91t83.5 37q48 0 82.5 -37.5t34.5 -90.5q0 -59 -34 -94.5t-83 -35.5q-51 0 -84 35t-33 95zM101 -324l31 877q2 24 32 24h106q24 0 24 -26l23 -877q1 -13 -6 -18.5t-21 -5.5h-154q-19 0 -27 5t-8 21z" />
<glyph unicode="&#xa2;" horiz-adv-x="804" d="M63 419q0 218 103.5 341.5t282.5 123.5q137 0 200.5 -62t63.5 -169q0 -78 -38.5 -132t-123.5 -54q-38 0 -73 10q-13 5 -17.5 11t-4.5 20v30q0 16 4.5 21t16.5 5q3 0 9 -2t11 -2q62 0 62 71q0 95 -101 95q-84 0 -132.5 -79t-48.5 -219q0 -148 59.5 -213.5t160.5 -65.5 t216 56q12 4 16.5 -1t4.5 -22v-108q0 -13 -4 -18.5t-17 -12.5q-129 -62 -274 -62q-184 0 -280 114t-96 324zM328 -341l16 252q0 9 0.5 12.5t5 6.5t13.5 3h134q10 0 12 -14l1 -5l19 -253q0 -9 -0.5 -13.5t-2.5 -6.5t-7 -2h-182q-13 0 -9 20zM331 1208q-3 21 10 21h182 q7 0 8.5 -4t0.5 -17l-18 -255q0 -7 -0.5 -10t-4 -5.5t-10.5 -2.5h-132q-6 0 -9.5 1t-5.5 5t-2.5 6t-1.5 10z" />
<glyph unicode="&#xa3;" horiz-adv-x="1010" d="M61 22v88q0 14 2 18.5t13 5.5q69 9 91.5 23t22.5 53v341h-97q-17 0 -17 21v113q0 9 0.5 13t5 8.5t13.5 4.5h95v216q0 110 27.5 188t80.5 122t120 63.5t155 19.5q178 0 323 -50q17 -6 20.5 -16t3.5 -38v-281q0 -16 -2.5 -19.5t-14.5 -3.5h-108q-9 0 -12.5 3.5t-4.5 15.5 l-35 194q-60 18 -153 18q-40 0 -69 -6.5t-56.5 -24.5t-42 -55t-14.5 -93v-253h156q19 0 19 -28v-100q0 -17 -4.5 -24.5t-18.5 -7.5h-152v-367l318 -2q16 0 23 14t14 52l10 119q1 6 3.5 11t4.5 8t6 5.5t6.5 3.5t9 1.5t8.5 0.5h9.5h9.5h69q5 0 8.5 -2t5.5 -7t3.5 -10 t1.5 -13.5v-14.5v-16.5v-16.5v-297q0 -14 -4 -17t-15 -3h-819q-12 0 -15.5 4t-3.5 18z" />
<glyph unicode="&#xa4;" horiz-adv-x="1009" d="M95 141l91 110q-91 119 -91 296q0 183 97 302l-91 110l115 74l86 -95q88 47 201 47q123 0 212 -52l89 95l114 -75l-97 -115q88 -118 88 -291q0 -174 -86 -290l97 -114l-116 -76l-91 91q-87 -50 -210 -50q-120 0 -207 48l-86 -93zM315 547q0 -129 51.5 -210.5t136.5 -81.5 t136.5 81.5t51.5 210.5t-51.5 210t-136.5 81t-136.5 -80.5t-51.5 -210.5z" />
<glyph unicode="&#xa5;" horiz-adv-x="1102" d="M45 1192v91q0 13 2.5 16.5t13.5 3.5h416q12 0 15 -4t3 -18v-88q0 -11 -1 -15.5t-5.5 -8t-13.5 -4.5q-55 -3 -73 -10.5t-18 -26.5q0 -115 47 -233t128 -262q90 139 143.5 259t53.5 236q0 19 -18 26.5t-73 10.5q-12 1 -15.5 7t-3.5 21v88q0 14 2.5 18t14.5 4h374 q11 0 14 -3.5t3 -16.5v-91q0 -25 -15 -25q-61 -7 -82.5 -17t-25.5 -35q-27 -233 -186 -502h147q18 0 18 -23v-76q0 -14 -4.5 -20t-17.5 -6h-223q-4 -4 -4 -6v-54h231q18 0 18 -20v-78q0 -14 -4.5 -20.5t-17.5 -6.5h-227v-52h2v-22q0 -56 15 -71.5t78 -19.5q11 -1 15.5 -5 t5.5 -9t1 -18v-80q0 -16 -3 -21t-17 -5h-425q-12 0 -15 3.5t-3 18.5v88q0 9 0.5 13t4 7t10.5 4q71 10 92 26t21 62v81h-227q-17 0 -17 17v90q0 18 21 18h223v21l-28 39h-199q-17 0 -17 17v87q0 21 21 21h117q-157 269 -169 502q-2 20 -25.5 32t-82.5 20q-11 3 -13 7t-2 18z " />
<glyph unicode="&#xa6;" horiz-adv-x="458" d="M127 -266v728h204v-728h-204zM127 577v724h204v-724h-204z" />
<glyph unicode="&#xa7;" horiz-adv-x="942" d="M78 58q0 18 6 24t24 6h115q22 0 25 -25l22 -193q83 -25 179 -25q33 0 63 5t64 18t54 42t20 71q0 62 -30.5 103.5t-78.5 63t-106.5 38.5t-117.5 40t-107 56.5t-78.5 98.5t-30.5 157q0 155 50 237q-50 75 -50 197q0 103 26 173t77.5 107.5t115.5 52.5t153 15 q122 0 201.5 -16.5t114.5 -35.5q18 -10 23 -18.5t5 -30.5v-286q0 -21 -6 -25.5t-23 -4.5h-114q-4 0 -7.5 0.5t-5.5 2t-3.5 3t-2.5 4t-1.5 4t-1 4.5t-0.5 4l-23 190q-44 24 -154 24q-162 0 -162 -124q0 -55 30.5 -91t78.5 -54t106.5 -33.5t117.5 -40.5t107 -63.5t78.5 -112.5 t30.5 -179q0 -31 -2.5 -63.5t-7.5 -58.5t-10.5 -46t-12 -30.5t-12.5 -7.5l-13 3q58 -89 58 -229q0 -86 -22 -150t-57.5 -102.5t-89.5 -61.5t-108.5 -31t-122.5 -8q-95 0 -204.5 15.5t-149.5 36.5q-30 19 -30 52v298zM313 581q0 -45 18.5 -76.5t55.5 -51t73.5 -31.5t93 -28 t92.5 -31q4 26 4 41q0 42 -14.5 75t-35.5 53t-57 38t-66.5 28t-77 25t-75.5 27q-11 -30 -11 -69z" />
<glyph unicode="&#xa8;" horiz-adv-x="573" d="M39 1475q0 45 27.5 76.5t71.5 31.5t73 -32t29 -76q0 -46 -28.5 -76.5t-73.5 -30.5q-44 0 -71.5 30.5t-27.5 76.5zM331 1475q0 45 29 76.5t74 31.5q43 0 72.5 -32t29.5 -76q0 -46 -28.5 -76.5t-73.5 -30.5q-46 0 -74.5 30.5t-28.5 76.5z" />
<glyph unicode="&#xa9;" horiz-adv-x="1202" d="M71 618q0 155 43 279.5t116 201.5t166.5 117.5t199.5 40.5t202 -42t171.5 -121.5t120 -206.5t44.5 -284q0 -151 -42.5 -272t-115.5 -196t-165.5 -114.5t-197.5 -39.5q-86 0 -165 25.5t-148 78t-120 127t-80 179t-29 227.5zM151 618q0 -261 127 -405t333 -144 q205 0 322 134t117 400q0 274 -124.5 420t-329.5 146q-204 0 -324.5 -141t-120.5 -410zM276 616q0 203 91 309t255 106q68 0 127.5 -12.5t88.5 -28.5q12 -5 16 -13.5t4 -30.5v-242q0 -11 -3 -14t-12 -3h-91q-12 0 -15 15l-22 160q-36 22 -84 22q-76 0 -120 -63.5t-44 -196.5 q0 -136 53 -189t152 -53q72 0 181 28q11 3 15.5 -2.5t4.5 -20.5v-93q0 -19 -20 -28q-95 -33 -233 -33q-170 0 -257 91t-87 292z" />
<glyph unicode="&#xaa;" horiz-adv-x="813" d="M60 974q0 157 70 252.5t203 95.5q56 0 102 -26.5t71 -77.5v65q0 12 5.5 16t19.5 4h169q21 0 21 -26v-618q0 -22 -21 -22h-181q-9 0 -11 4.5t-2 19.5v58q-65 -101 -176 -101q-89 0 -151 48t-90.5 126.5t-28.5 181.5zM272 970q0 -97 31 -147t88 -50q55 0 85 52t30 145 q0 91 -31 144t-86 53t-86 -52t-31 -145z" />
<glyph unicode="&#xab;" horiz-adv-x="878" d="M50 493l302 399q1 2 4 5q11 14 20 6l102 -78q8 -8 7.5 -11t-7.5 -15l-223 -322l222 -313q11 -16 11 -22t-10 -14l-98 -72q-10 -7 -15.5 -5t-14.5 14l-298 387q-10 13 -10.5 19.5t8.5 21.5zM380 493l301 399q9 11 11.5 13t13.5 -2l102 -78q8 -7 7.5 -10.5t-9.5 -15.5 l-221 -322l221 -313q11 -17 11 -22.5t-11 -13.5l-99 -72q-11 -7 -14.5 -5.5t-12.5 14.5l-298 387q-10 13 -10.5 19.5t8.5 21.5z" />
<glyph unicode="&#xac;" horiz-adv-x="953" d="M86 492v154h770v-402h-203v248h-567z" />
<glyph unicode="&#xad;" horiz-adv-x="685" d="M89 473v113q0 27 19 27h469q19 0 19 -28v-101q0 -17 -4.5 -24.5t-18.5 -7.5h-467q-17 0 -17 21z" />
<glyph unicode="&#xae;" horiz-adv-x="1202" d="M71 618q0 155 43 279.5t116 201.5t166.5 117.5t199.5 40.5t202 -42t171.5 -121.5t120 -206.5t44.5 -284q0 -151 -42.5 -272t-115.5 -196t-165.5 -114.5t-197.5 -39.5q-86 0 -165 25.5t-148 78t-120 127t-80 179t-29 227.5zM151 618q0 -261 127 -405t333 -144 q205 0 322 134t117 400q0 274 -124.5 420t-329.5 146q-204 0 -324.5 -141t-120.5 -410zM359 955v63q0 8 2.5 10.5t9.5 2.5h234q58 0 101.5 -13.5t70 -36t42.5 -57.5t22 -73t6 -88q0 -176 -89 -238l37 -112q9 -26 16.5 -40t18 -20.5t25.5 -6.5q5 0 12.5 4.5t11.5 3.5t5 -11 l6 -66q1 -14 -1 -18.5t-12 -7.5q-40 -13 -76 -13q-64 0 -92 33.5t-50 112.5l-35 108q-28 0 -58 7v-101q0 -32 7.5 -41.5t35.5 -12.5q8 -2 10.5 -5.5t2.5 -14.5v-60q0 -15 -11 -15h-240q-7 0 -8.5 2.5t-1.5 11.5v63q0 15 8 17q34 5 45.5 15t11.5 35v458h-2v41q0 21 -11.5 31 t-43.5 15q-10 2 -10 17zM566 624q18 -8 52 -8q39 0 61.5 37t22.5 108q0 82 -24 121.5t-65 39.5h-47v-298z" />
<glyph unicode="&#xaf;" horiz-adv-x="590" d="M86 1404v95q0 14 4 18t14 4h391q13 0 13 -17v-98q0 -14 -4.5 -18.5t-17.5 -4.5h-382q-11 0 -14.5 4t-3.5 17z" />
<glyph unicode="&#xb0;" horiz-adv-x="625" d="M58 1048q0 118 67.5 196t187.5 78q123 0 190 -78.5t67 -195.5q0 -120 -68.5 -196.5t-188.5 -76.5q-122 0 -188.5 76t-66.5 197zM249 1050q0 -66 19 -100t50 -34q26 0 42 32.5t16 95.5q0 65 -16.5 100.5t-46.5 35.5q-28 0 -46 -35t-18 -95z" />
<glyph unicode="&#xb1;" horiz-adv-x="938" d="M76 400v159h289v337h207v-337h286v-159h-286v-273h-207v273h-289zM80 -80v160h784v-160h-784z" />
<glyph unicode="&#xb2;" horiz-adv-x="726" d="M54 573v125q0 18 7 26q87 67 153 130.5t122 138.5t85.5 159t29.5 172q0 78 -30.5 107t-85.5 29q-56 0 -106 -23l-30 -184q-1 -10 -4 -12.5t-11 -2.5h-100q-8 0 -9.5 2.5t-1.5 16.5v268q0 16 1 23t5.5 12t13.5 8q134 48 253 48q50 0 85 -3.5t78 -19.5t69.5 -44t45 -81 t18.5 -127q0 -172 -90.5 -331t-259.5 -288h214q14 0 20.5 12.5t11.5 40.5l8 89q1 3 1.5 7.5t1 7t1.5 5t2.5 3.5t4.5 2t7 1h78q17 0 21 -6.5t4 -32.5v-276q0 -12 -2.5 -14t-11.5 -2h-588q-11 0 -11 14z" />
<glyph unicode="&#xb3;" horiz-adv-x="705" d="M50 609v121q0 14 4.5 18t16.5 2q8 -2 43.5 -12.5t78.5 -18.5t92 -8q86 0 129.5 40t43.5 128q0 79 -32 110t-93 31h-63q-15 0 -15 21v117q0 11 8 21l163 268h-188q-12 0 -18 -11t-10 -49l-5 -97q-2 -12 -5 -16t-14 -4h-80q-14 0 -17 3t-3 21v283q0 16 3.5 20t18.5 4h512 q9 0 11 -4t2 -18v-95q0 -7 -0.5 -11.5t-1 -7.5t-2.5 -7l-3 -6t-5.5 -8t-6.5 -9l-178 -270h20q106 0 151 -69.5t45 -207.5q0 -79 -20.5 -140.5t-52.5 -99t-76 -62t-87 -33.5t-90 -9q-164 0 -265 37q-11 5 -11 28z" />
<glyph unicode="&#xb4;" horiz-adv-x="497" d="M89 1400l99 166q13 21 22.5 27t27.5 6h177q15 0 17 -9t-11 -22l-172 -181q-28 -28 -63 -28h-84q-19 0 -22.5 8.5t9.5 32.5z" />
<glyph unicode="&#xb5;" horiz-adv-x="1048" d="M52 741v71q0 16 4 21t15 7q36 5 74.5 11t55 8.5t36 4.5t37.5 2h63q37 0 37 -52v-509q0 -100 25 -136.5t78 -36.5q160 0 165 287v264q-9 24 -33 28l-67 6q-13 2 -13 24v71q0 15 4.5 20.5t15.5 7.5q35 5 73.5 11t55.5 8.5t36.5 4.5t37.5 2h63q38 0 38 -52v-566 q1 -60 13.5 -80.5t34.5 -20.5q35 0 35 45q0 17 4 24t21 7h35q17 0 20.5 -6.5t3.5 -30.5q0 -197 -175 -197q-150 0 -188 147q-40 -78 -97.5 -114.5t-146.5 -36.5q-8 0 -21 1t-18 1v-376q0 -12 -3.5 -16.5t-14.5 -4.5h-172q-11 0 -14.5 4.5t-3.5 16.5v962h2v82q0 52 -38 56 l-67 6q-8 1 -9.5 5.5t-1.5 18.5z" />
<glyph unicode="&#xb6;" horiz-adv-x="824" d="M50 933q0 162 94 266t240 104h296v-1539h-149v1415h-75v-1415h-147v793q-77 1 -136.5 52.5t-91 136.5t-31.5 187z" />
<glyph unicode="&#xb7;" horiz-adv-x="450" d="M52 467q0 68 48.5 117t115.5 49q70 0 119.5 -49t49.5 -117q0 -67 -49.5 -114.5t-119.5 -47.5q-67 0 -115.5 47.5t-48.5 114.5z" />
<glyph unicode="&#xb8;" horiz-adv-x="426" d="M24 -315l10 21q7 15 11.5 17.5t12.5 -2.5q28 -13 74 -13q67 0 67 70q0 66 -91 66h-6q-12 0 -14 3t3 23l49 130h108l-25 -82q129 -8 129 -134q0 -83 -52.5 -122.5t-133.5 -39.5q-69 0 -132 26q-12 5 -14 11t4 26z" />
<glyph unicode="&#xb9;" horiz-adv-x="525" d="M47 577v75q0 11 1.5 15t9.5 5q71 7 100.5 20t29.5 43v667q0 23 -26 6l-88 -62q-13 -6 -17.5 -3t-4.5 18v93q0 15 19 28l147 102q32 19 78 19h50q25 0 25 -22v-842q0 -36 24.5 -49t86.5 -16q12 -1 14.5 -5.5t2.5 -20.5v-69q0 -13 -3 -16.5t-14 -3.5h-421q-9 0 -11.5 3 t-2.5 15z" />
<glyph unicode="&#xba;" horiz-adv-x="867" d="M52 873q0 88 21 165t64.5 142t120 102.5t178.5 37.5q103 0 179.5 -37.5t119.5 -102.5t63.5 -141.5t20.5 -165.5t-20.5 -166t-64 -142t-120 -103t-178.5 -38q-103 0 -179.5 38t-120 103t-64 142t-20.5 166zM264 868q0 -121 42 -198.5t130 -77.5q87 0 130 78t43 198 q0 77 -17 139t-57 103.5t-99 41.5t-99 -41.5t-56.5 -103t-16.5 -139.5z" />
<glyph unicode="&#xbb;" horiz-adv-x="878" d="M69 128q-9 9 -8.5 14t12.5 22l221 313l-223 322q-8 11 -8.5 15t6.5 11l102 78q3 2 5 3t4 1t4 -2l3 -3t4 -5t4 -5l302 -399q11 -15 10.5 -21.5t-12.5 -19.5l-298 -387q-9 -12 -13 -14t-15 5zM398 128q-10 8 -9.5 14t13.5 22l220 313l-222 322q-9 12 -9.5 15.5t7.5 10.5 l103 78q3 2 5 3t4 1t4 -2l3 -3t4 -5t4 -5l302 -399q11 -15 10.5 -21.5t-12.5 -19.5l-298 -387q-9 -12 -13 -14t-15 5z" />
<glyph unicode="&#xbf;" horiz-adv-x="834" d="M43 -82q0 77 17 130t44 80.5t59.5 47t65.5 37.5t60 42t44 70t17 113v102q0 24 21 24l171 2q18 0 18 -26v-132q0 -89 -16.5 -151.5t-43.5 -95t-59 -53.5t-64.5 -35.5t-59.5 -33t-43.5 -54t-16.5 -89.5q0 -138 166 -138q112 0 169 24l21 198q2 13 5.5 16.5t18.5 3.5h113 q12 0 16.5 -1t8 -7t3.5 -20v-292q0 -23 -4.5 -31.5t-23.5 -19.5q-37 -20 -123 -36.5t-216 -16.5q-88 0 -151 14.5t-114.5 51.5t-77 105.5t-25.5 170.5zM339 754q0 55 33.5 92.5t83.5 37.5q48 0 82.5 -38t34.5 -92q0 -59 -34 -93.5t-83 -34.5q-52 0 -84.5 34t-32.5 94z" />
<glyph unicode="&#xc0;" horiz-adv-x="1159" d="M15 22v88q0 24 15 24q70 12 91.5 26t21.5 52v97q0 227 25 410.5t74.5 320t130.5 210.5t187 74q228 0 343 -260.5t115 -754.5v-84q0 -53 15.5 -68t78.5 -19q11 -1 15.5 -5t5.5 -9t1 -18v-80q0 -16 -3.5 -21t-17.5 -5h-443q-13 0 -15.5 3.5t-2.5 18.5v88q0 14 2 18.5 t13 5.5q70 10 92.5 25t22.5 53v97q0 52 -2 78h-460v-162q0 -53 15.5 -67.5t77.5 -19.5q15 -1 19 -7.5t4 -24.5v-80q0 -9 -0.5 -12.5t-2 -7.5t-5.5 -5t-11 -1h-383q-13 0 -16 3.5t-3 18.5zM313 1594q-7 8 -9.5 15.5t1.5 11.5t13 4h174q19 0 29 -6.5t21 -26.5l110 -183 q11 -24 7.5 -32.5t-20.5 -8.5h-84q-31 0 -67 36zM330 572h443q-18 263 -76 413.5t-146 150.5q-86 0 -143.5 -150t-77.5 -414z" />
<glyph unicode="&#xc1;" horiz-adv-x="1159" d="M15 22v88q0 24 15 24q70 12 91.5 26t21.5 52v97q0 227 25 410.5t74.5 320t130.5 210.5t187 74q228 0 343 -260.5t115 -754.5v-84q0 -53 15.5 -68t78.5 -19q11 -1 15.5 -5t5.5 -9t1 -18v-80q0 -16 -3.5 -21t-17.5 -5h-443q-13 0 -15.5 3.5t-2.5 18.5v88q0 14 2 18.5 t13 5.5q70 10 92.5 25t22.5 53v97q0 52 -2 78h-460v-162q0 -53 15.5 -67.5t77.5 -19.5q15 -1 19 -7.5t4 -24.5v-80q0 -9 -0.5 -12.5t-2 -7.5t-5.5 -5t-11 -1h-383q-13 0 -16 3.5t-3 18.5zM330 572h443q-18 263 -76 413.5t-146 150.5q-86 0 -143.5 -150t-77.5 -414zM499 1419 l99 165q13 21 22.5 27.5t27.5 6.5h177q15 0 16.5 -9.5t-11.5 -22.5l-171 -180q-28 -28 -63 -28h-84q-19 0 -22.5 8.5t9.5 32.5z" />
<glyph unicode="&#xc2;" horiz-adv-x="1159" d="M15 22v88q0 24 15 24q70 12 91.5 26t21.5 52v97q0 227 25 410.5t74.5 320t130.5 210.5t187 74q228 0 343 -260.5t115 -754.5v-84q0 -53 15.5 -68t78.5 -19q11 -1 15.5 -5t5.5 -9t1 -18v-80q0 -16 -3.5 -21t-17.5 -5h-443q-13 0 -15.5 3.5t-2.5 18.5v88q0 14 2 18.5 t13 5.5q70 10 92.5 25t22.5 53v97q0 52 -2 78h-460v-162q0 -53 15.5 -67.5t77.5 -19.5q15 -1 19 -7.5t4 -24.5v-80q0 -9 -0.5 -12.5t-2 -7.5t-5.5 -5t-11 -1h-383q-13 0 -16 3.5t-3 18.5zM324 1383q-7 12 11 34l132 173q18 24 56 24h78q38 0 56 -24l132 -175q11 -14 12 -23 t-6 -24q-7 -14 -28 -3l-207 117l-203 -115q-18 -6 -22 -3t-11 19zM330 572h443q-18 263 -76 413.5t-146 150.5q-86 0 -143.5 -150t-77.5 -414z" />
<glyph unicode="&#xc3;" horiz-adv-x="1159" d="M15 22v88q0 24 15 24q70 12 91.5 26t21.5 52v97q0 227 25 410.5t74.5 320t130.5 210.5t187 74q228 0 343 -260.5t115 -754.5v-84q0 -53 15.5 -68t78.5 -19q11 -1 15.5 -5t5.5 -9t1 -18v-80q0 -16 -3.5 -21t-17.5 -5h-443q-13 0 -15.5 3.5t-2.5 18.5v88q0 14 2 18.5 t13 5.5q70 10 92.5 25t22.5 53v97q0 52 -2 78h-460v-162q0 -53 15.5 -67.5t77.5 -19.5q15 -1 19 -7.5t4 -24.5v-80q0 -9 -0.5 -12.5t-2 -7.5t-5.5 -5t-11 -1h-383q-13 0 -16 3.5t-3 18.5zM330 572h443q-18 263 -76 413.5t-146 150.5q-86 0 -143.5 -150t-77.5 -414zM369 1448 q19 52 55.5 91.5t80.5 39.5q40 0 89.5 -31t72.5 -31q26 0 39 38q3 19 18 11l60 -28q10 -5 11 -10.5t-4 -19.5q-17 -52 -53 -92t-81 -40q-42 0 -94 30.5t-68 30.5q-13 0 -20 -8t-19 -31q-7 -14 -18 -9l-56 30q-12 5 -14.5 10.5t1.5 18.5z" />
<glyph unicode="&#xc4;" horiz-adv-x="1159" d="M15 22v88q0 24 15 24q70 12 91.5 26t21.5 52v97q0 227 25 410.5t74.5 320t130.5 210.5t187 74q228 0 343 -260.5t115 -754.5v-84q0 -53 15.5 -68t78.5 -19q11 -1 15.5 -5t5.5 -9t1 -18v-80q0 -16 -3.5 -21t-17.5 -5h-443q-13 0 -15.5 3.5t-2.5 18.5v88q0 14 2 18.5 t13 5.5q70 10 92.5 25t22.5 53v97q0 52 -2 78h-460v-162q0 -53 15.5 -67.5t77.5 -19.5q15 -1 19 -7.5t4 -24.5v-80q0 -9 -0.5 -12.5t-2 -7.5t-5.5 -5t-11 -1h-383q-13 0 -16 3.5t-3 18.5zM315 1475q0 45 27 76.5t71 31.5t73.5 -32t29.5 -76q0 -45 -29 -76t-74 -31 q-44 0 -71 30.5t-27 76.5zM330 572h443q-18 263 -76 413.5t-146 150.5q-86 0 -143.5 -150t-77.5 -414zM607 1475q0 45 28.5 76.5t73.5 31.5q43 0 73 -32t30 -76q0 -45 -29 -76t-74 -31q-46 0 -74 30.5t-28 76.5z" />
<glyph unicode="&#xc5;" horiz-adv-x="1159" d="M15 22v88q0 24 15 24q70 12 91.5 26t21.5 52v97q0 227 25 410.5t74.5 320t130.5 210.5t187 74q228 0 343 -260.5t115 -754.5v-84q0 -53 15.5 -68t78.5 -19q11 -1 15.5 -5t5.5 -9t1 -18v-80q0 -16 -3.5 -21t-17.5 -5h-443q-13 0 -15.5 3.5t-2.5 18.5v88q0 14 2 18.5 t13 5.5q70 10 92.5 25t22.5 53v97q0 52 -2 78h-460v-162q0 -53 15.5 -67.5t77.5 -19.5q15 -1 19 -7.5t4 -24.5v-80q0 -9 -0.5 -12.5t-2 -7.5t-5.5 -5t-11 -1h-383q-13 0 -16 3.5t-3 18.5zM330 572h443q-18 263 -76 413.5t-146 150.5q-86 0 -143.5 -150t-77.5 -414zM346 1499 q0 134 214 134q116 0 164.5 -38t48.5 -96q0 -59 -48.5 -97.5t-164.5 -38.5q-214 0 -214 136zM497 1499q0 -25 14.5 -43.5t48.5 -18.5q31 0 46.5 19t15.5 43q0 23 -15.5 41t-46.5 18q-34 0 -48.5 -17.5t-14.5 -41.5z" />
<glyph unicode="&#xc6;" horiz-adv-x="1586" d="M15 22v88q0 24 15 24q70 12 91.5 26t21.5 52v97q0 227 25 410.5t74.5 320t130.5 210.5t187 74q138 0 237 -99v56q0 14 4.5 18t15.5 4h658q9 0 12.5 -1t5.5 -5t2 -14v-320q0 -36 -20 -36h-101q-14 0 -17 4.5t-7 21.5l-11 118q-6 38 -13 53t-23 15l-286 -1v-393h221 q13 0 17.5 -3.5t4.5 -17.5v-123q0 -17 -4 -23t-18 -6h-221v-146q0 -18 0.5 -57t0.5 -60v-84q0 -44 8 -59l296 -2q15 0 22.5 15t14.5 54l11 117q1 2 2 7t1.5 6.5t2 5t3.5 4.5t5.5 2t8.5 1h102q19 0 19 -35v-321q0 -14 -3.5 -17t-15.5 -3h-825q-13 0 -15.5 3.5t-2.5 18.5v88 q0 14 2 18.5t13 5.5q70 10 92.5 25t22.5 53v97q0 52 -2 78h-460v-162q0 -53 15.5 -67.5t77.5 -19.5q15 -1 19 -7.5t4 -24.5v-80q0 -9 -0.5 -12.5t-2 -7.5t-5.5 -5t-11 -1h-383q-13 0 -16 3.5t-3 18.5zM330 572h443q-18 263 -76 413.5t-146 150.5q-86 0 -143.5 -150 t-77.5 -414z" />
<glyph unicode="&#xc7;" horiz-adv-x="1031" d="M69 644q0 339 134.5 508.5t394.5 169.5q95 0 189 -13t136 -30q18 -8 22.5 -18.5t4.5 -37.5v-344q0 -15 -3.5 -19t-15.5 -4h-129q-11 0 -14.5 3.5t-5.5 15.5l-34 251q-54 19 -143 19q-137 0 -223 -125t-86 -380q0 -105 20 -187.5t53 -134t79.5 -85t95.5 -47t104 -13.5 q51 0 109.5 7t87.5 12.5t110 21.5q24 6 24 -24v-112q0 -20 -5.5 -30.5t-23.5 -15.5q-115 -41 -300 -47l-15 -52q128 -8 128 -134q0 -83 -52.5 -122.5t-133.5 -39.5q-69 0 -132 26q-11 5 -13.5 11t4.5 26l9 21q7 15 11.5 17.5t12.5 -2.5q28 -13 75 -13q67 0 67 70 q0 66 -92 66q-17 0 -19 1.5t3 24.5l37 102q-237 18 -354 178.5t-117 478.5z" />
<glyph unicode="&#xc8;" horiz-adv-x="929" d="M63 341q0 70 14.5 124.5t36 88.5t53 58.5t58.5 36.5t60 21q-173 45 -173 315q0 99 28 167t81.5 104t117 51t147.5 15q185 0 322 -50q18 -6 22 -15.5t4 -38.5v-282q0 -11 -2 -15.5t-4.5 -5.5t-10.5 -1h-108q-10 0 -13.5 3.5t-4.5 15.5l-34 193q-68 19 -154 19 q-39 0 -68.5 -6.5t-57 -24.5t-42.5 -55t-15 -93q0 -116 52.5 -159.5t156.5 -43.5h91q22 0 22 -28v-121q0 -28 -22 -28h-91q-107 0 -166.5 -49t-59.5 -165q0 -111 61.5 -157t186.5 -46q67 0 137.5 10t120 21t60.5 12q10 2 13.5 -3t3.5 -19v-140q0 -14 -4.5 -19.5t-17.5 -8.5 q-183 -41 -395 -41q-66 0 -120.5 8.5t-109.5 32.5t-92 63t-60.5 104.5t-23.5 151.5zM238 1594q-7 8 -9 15.5t2 11.5t13 4h173q19 0 29 -6.5t21 -26.5l110 -183q11 -24 7.5 -32.5t-20.5 -8.5h-84q-31 0 -67 36z" />
<glyph unicode="&#xc9;" horiz-adv-x="929" d="M63 341q0 70 14.5 124.5t36 88.5t53 58.5t58.5 36.5t60 21q-173 45 -173 315q0 99 28 167t81.5 104t117 51t147.5 15q185 0 322 -50q18 -6 22 -15.5t4 -38.5v-282q0 -11 -2 -15.5t-4.5 -5.5t-10.5 -1h-108q-10 0 -13.5 3.5t-4.5 15.5l-34 193q-68 19 -154 19 q-39 0 -68.5 -6.5t-57 -24.5t-42.5 -55t-15 -93q0 -116 52.5 -159.5t156.5 -43.5h91q22 0 22 -28v-121q0 -28 -22 -28h-91q-107 0 -166.5 -49t-59.5 -165q0 -111 61.5 -157t186.5 -46q67 0 137.5 10t120 21t60.5 12q10 2 13.5 -3t3.5 -19v-140q0 -14 -4.5 -19.5t-17.5 -8.5 q-183 -41 -395 -41q-66 0 -120.5 8.5t-109.5 32.5t-92 63t-60.5 104.5t-23.5 151.5zM424 1419l99 165q13 21 22.5 27.5t27.5 6.5h177q15 0 17 -9.5t-11 -22.5l-171 -180q-28 -28 -64 -28h-83q-19 0 -23 8.5t9 32.5z" />
<glyph unicode="&#xca;" horiz-adv-x="929" d="M63 341q0 70 14.5 124.5t36 88.5t53 58.5t58.5 36.5t60 21q-173 45 -173 315q0 99 28 167t81.5 104t117 51t147.5 15q185 0 322 -50q18 -6 22 -15.5t4 -38.5v-282q0 -11 -2 -15.5t-4.5 -5.5t-10.5 -1h-108q-10 0 -13.5 3.5t-4.5 15.5l-34 193q-68 19 -154 19 q-39 0 -68.5 -6.5t-57 -24.5t-42.5 -55t-15 -93q0 -116 52.5 -159.5t156.5 -43.5h91q22 0 22 -28v-121q0 -28 -22 -28h-91q-107 0 -166.5 -49t-59.5 -165q0 -111 61.5 -157t186.5 -46q67 0 137.5 10t120 21t60.5 12q10 2 13.5 -3t3.5 -19v-140q0 -14 -4.5 -19.5t-17.5 -8.5 q-183 -41 -395 -41q-66 0 -120.5 8.5t-109.5 32.5t-92 63t-60.5 104.5t-23.5 151.5zM248 1383q-7 12 11 34l132 173q18 24 56 24h78q38 0 56 -24l132 -175q11 -13 11.5 -23t-5.5 -24q-7 -14 -28 -3l-207 117l-203 -115q-17 -6 -22 -3t-11 19z" />
<glyph unicode="&#xcb;" horiz-adv-x="929" d="M63 341q0 70 14.5 124.5t36 88.5t53 58.5t58.5 36.5t60 21q-173 45 -173 315q0 99 28 167t81.5 104t117 51t147.5 15q185 0 322 -50q18 -6 22 -15.5t4 -38.5v-282q0 -11 -2 -15.5t-4.5 -5.5t-10.5 -1h-108q-10 0 -13.5 3.5t-4.5 15.5l-34 193q-68 19 -154 19 q-39 0 -68.5 -6.5t-57 -24.5t-42.5 -55t-15 -93q0 -116 52.5 -159.5t156.5 -43.5h91q22 0 22 -28v-121q0 -28 -22 -28h-91q-107 0 -166.5 -49t-59.5 -165q0 -111 61.5 -157t186.5 -46q67 0 137.5 10t120 21t60.5 12q10 2 13.5 -3t3.5 -19v-140q0 -14 -4.5 -19.5t-17.5 -8.5 q-183 -41 -395 -41q-66 0 -120.5 8.5t-109.5 32.5t-92 63t-60.5 104.5t-23.5 151.5zM238 1475q0 45 27.5 76.5t71.5 31.5t73 -32t29 -76q0 -46 -28.5 -76.5t-73.5 -30.5q-44 0 -71.5 30.5t-27.5 76.5zM531 1475q0 45 28.5 76.5t73.5 31.5q43 0 72.5 -32t29.5 -76 q0 -46 -28.5 -76.5t-73.5 -30.5q-46 0 -74 30.5t-28 76.5z" />
<glyph unicode="&#xcc;" horiz-adv-x="597" d="M50 1594q-7 8 -9 15.5t2 11.5t13 4h173q19 0 29 -6.5t21 -26.5l110 -183q11 -24 7.5 -32.5t-20.5 -8.5h-84q-31 0 -67 36zM61 22v88q0 9 0.5 13t4 7t10.5 4q71 10 92.5 26t21.5 62v852q0 56 -15.5 71.5t-77.5 19.5q-16 1 -19.5 7t-3.5 25v80q0 16 3.5 21t17.5 5h424 q11 0 14 -4t3 -18v-88q0 -14 -2 -18.5t-13 -7.5q-71 -8 -92 -23.5t-21 -61.5v-894q4 -28 22.5 -37.5t70.5 -12.5q11 -1 15.5 -5t5.5 -9t1 -18v-80q0 -16 -3 -21t-17 -5h-423q-13 0 -16 4t-3 18z" />
<glyph unicode="&#xcd;" horiz-adv-x="597" d="M60 22v88q0 10 0.5 13t3.5 6.5t10 4.5q71 10 92.5 26t21.5 62v29h2v844q-1 41 -18.5 53t-74.5 17q-16 1 -19.5 7t-3.5 25v80q0 16 3.5 21t15.5 5h426q11 0 14 -4t3 -18v-88q0 -14 -2 -18.5t-13 -7.5q-68 -9 -91 -22t-24 -50v-886q1 -42 18.5 -55t76.5 -16q11 -1 15.5 -5 t5.5 -9t1 -18v-80q0 -16 -3 -21t-17 -5h-425q-12 0 -15 3.5t-3 18.5zM235 1419l98 165q13 21 23 27.5t28 6.5h176q15 0 17 -9.5t-11 -22.5l-171 -180q-28 -28 -64 -28h-83q-19 0 -22.5 8.5t9.5 32.5z" />
<glyph unicode="&#xce;" horiz-adv-x="597" d="M61 22v88q0 9 0.5 13t4 7t10.5 4q71 10 92.5 26t21.5 62v852q0 56 -15.5 71.5t-77.5 19.5q-16 1 -19.5 7t-3.5 25v80q0 16 3.5 21t17.5 5h424q11 0 14 -4t3 -18v-88q0 -14 -2 -18.5t-13 -7.5q-71 -8 -92 -23.5t-21 -61.5v-894q4 -28 22.5 -37.5t70.5 -12.5q11 -1 15.5 -5 t5.5 -9t1 -18v-80q0 -16 -3 -21t-17 -5h-423q-13 0 -16 4t-3 18zM65 1383q-7 12 11 34l133 173q18 24 55 24h79q37 0 55 -24l133 -175q11 -14 11.5 -23.5t-6.5 -23.5t-28 -3l-206 117l-203 -115q-18 -6 -22.5 -3t-11.5 19z" />
<glyph unicode="&#xcf;" horiz-adv-x="597" d="M50 1475q0 45 27.5 76.5t71.5 31.5t73 -32t29 -76q0 -46 -28.5 -76.5t-73.5 -30.5q-44 0 -71.5 30.5t-27.5 76.5zM61 22v88q0 9 0.5 13t4 7t10.5 4q71 10 92.5 26t21.5 62v852q0 56 -15.5 71.5t-77.5 19.5q-16 1 -19.5 7t-3.5 25v80q0 16 3.5 21t17.5 5h424q11 0 14 -4 t3 -18v-88q0 -14 -2 -18.5t-13 -7.5q-71 -8 -92 -23.5t-21 -61.5v-894q4 -28 22.5 -37.5t70.5 -12.5q11 -1 15.5 -5t5.5 -9t1 -18v-80q0 -16 -3 -21t-17 -5h-423q-13 0 -16 4t-3 18zM343 1475q0 45 28.5 76.5t73.5 31.5q43 0 72.5 -32t29.5 -76q0 -46 -28.5 -76.5 t-73.5 -30.5q-46 0 -74 30.5t-28 76.5z" />
<glyph unicode="&#xd0;" horiz-adv-x="1202" d="M61 611v115q0 13 3.5 17t11.5 4h118v351q0 34 -22.5 47.5t-91.5 21.5q-11 3 -13 7t-2 18v89q0 14 3 18t14 4h462q163 0 278 -44t182.5 -131t97.5 -203.5t30 -274.5q0 -166 -30.5 -284.5t-98.5 -202t-180 -123.5t-272 -40h-469q-11 0 -14 4t-3 18v88q0 14 2 18.5t13 5.5 q64 8 87.5 21.5t26.5 45.5v389h-116q-11 0 -14 3.5t-3 17.5zM421 169h123q171 0 261.5 118.5t90.5 358.5q0 238 -88.5 362t-265.5 124h-121v-385h210q11 0 11 -15v-119q0 -14 -4 -18.5t-16 -4.5h-201v-421z" />
<glyph unicode="&#xd1;" horiz-adv-x="1230" d="M61 1193v88q0 14 3.5 18t15.5 4h259q30 0 48 -33l494 -920v739q0 39 -22 54.5t-92 23.5q-11 3 -13 7.5t-2 18.5v88q0 14 3.5 18t15.5 4h385q12 0 15.5 -5t3.5 -21v-80q0 -19 -3.5 -25t-19.5 -7q-59 -5 -76 -19t-17 -59v-1044q0 -43 -24 -43h-132q-31 0 -47 24l-489 899 v-698q0 -51 15.5 -67t75.5 -20q11 -1 15.5 -5t5.5 -9t1 -18v-80v-13t-1.5 -7t-5.5 -5t-11 -1h-373q-12 0 -14 3.5t-2 18.5v88q0 13 3.5 18t14.5 6q62 8 79.5 23.5t17.5 65.5v879q0 32 -24 45t-88 20q-11 3 -13 7.5t-2 18.5zM408 1448q19 52 55.5 91.5t80.5 39.5 q40 0 89.5 -31t72.5 -31q26 0 39 38q3 19 18 11l60 -28q10 -5 11 -10.5t-4 -19.5q-17 -52 -53 -92t-81 -40q-42 0 -94 30.5t-68 30.5q-13 0 -20 -8t-19 -31q-7 -14 -18 -9l-56 30q-12 5 -14.5 10.5t1.5 18.5z" />
<glyph unicode="&#xd2;" d="M63 652q0 146 34 267t100.5 212t172.5 141t243 50q110 0 200.5 -33t155 -92t109 -142.5t65.5 -184.5t21 -218t-21 -218.5t-65.5 -185t-109 -143t-155 -92t-200.5 -32.5q-182 0 -307.5 88t-184 236.5t-58.5 346.5zM302 655q0 -225 82 -356t229 -131t229.5 131t82.5 356 q0 223 -82.5 351t-229.5 128t-229 -128t-82 -351zM365 1594q-7 8 -9 15.5t2 11.5t13 4h173q19 0 29 -6.5t21 -26.5l110 -183q11 -24 7.5 -32.5t-20.5 -8.5h-84q-31 0 -67 36z" />
<glyph unicode="&#xd3;" d="M63 652q0 146 34 267t100.5 212t172.5 141t243 50q110 0 200.5 -33t155 -92t109 -142.5t65.5 -184.5t21 -218t-21 -218.5t-65.5 -185t-109 -143t-155 -92t-200.5 -32.5q-182 0 -307.5 88t-184 236.5t-58.5 346.5zM302 655q0 -225 82 -356t229 -131t229.5 131t82.5 356 q0 223 -82.5 351t-229.5 128t-229 -128t-82 -351zM551 1419l99 165q13 21 22.5 27.5t27.5 6.5h177q15 0 17 -9.5t-11 -22.5l-172 -180q-28 -28 -63 -28h-84q-19 0 -22.5 8.5t9.5 32.5z" />
<glyph unicode="&#xd4;" d="M63 652q0 146 34 267t100.5 212t172.5 141t243 50q110 0 200.5 -33t155 -92t109 -142.5t65.5 -184.5t21 -218t-21 -218.5t-65.5 -185t-109 -143t-155 -92t-200.5 -32.5q-182 0 -307.5 88t-184 236.5t-58.5 346.5zM302 655q0 -225 82 -356t229 -131t229.5 131t82.5 356 q0 223 -82.5 351t-229.5 128t-229 -128t-82 -351zM376 1383q-7 12 11 34l132 173q18 24 56 24h78q38 0 56 -24l133 -175q11 -14 11.5 -23.5t-6.5 -23.5t-28 -3l-206 117l-203 -115q-18 -6 -22.5 -3t-11.5 19z" />
<glyph unicode="&#xd5;" d="M63 652q0 146 34 267t100.5 212t172.5 141t243 50q110 0 200.5 -33t155 -92t109 -142.5t65.5 -184.5t21 -218t-21 -218.5t-65.5 -185t-109 -143t-155 -92t-200.5 -32.5q-182 0 -307.5 88t-184 236.5t-58.5 346.5zM302 655q0 -225 82 -356t229 -131t229.5 131t82.5 356 q0 223 -82.5 351t-229.5 128t-229 -128t-82 -351zM423 1448q19 52 55.5 91.5t80.5 39.5q40 0 89.5 -31t72.5 -31q26 0 39 38q3 19 18 11l60 -28q10 -5 11 -10.5t-4 -19.5q-17 -52 -53 -92t-81 -40q-42 0 -94 30.5t-68 30.5q-13 0 -20 -8t-19 -31q-7 -14 -18 -9l-56 30 q-12 5 -14.5 10.5t1.5 18.5z" />
<glyph unicode="&#xd6;" d="M63 652q0 146 34 267t100.5 212t172.5 141t243 50q110 0 200.5 -33t155 -92t109 -142.5t65.5 -184.5t21 -218t-21 -218.5t-65.5 -185t-109 -143t-155 -92t-200.5 -32.5q-182 0 -307.5 88t-184 236.5t-58.5 346.5zM302 655q0 -225 82 -356t229 -131t229.5 131t82.5 356 q0 223 -82.5 351t-229.5 128t-229 -128t-82 -351zM365 1475q0 45 27.5 76.5t71.5 31.5t73 -32t29 -76q0 -46 -28.5 -76.5t-73.5 -30.5q-44 0 -71.5 30.5t-27.5 76.5zM657 1475q0 45 29 76.5t74 31.5q43 0 72.5 -32t29.5 -76q0 -46 -28.5 -76.5t-73.5 -30.5q-46 0 -74.5 30.5 t-28.5 76.5z" />
<glyph unicode="&#xd7;" horiz-adv-x="755" d="M60 734l96 117l218 -261l192 266l106 -106l-192 -266l214 -259l-94 -117l-216 257l-194 -264l-106 106l193 266z" />
<glyph unicode="&#xd8;" d="M63 652q0 146 34 267t100.5 212t172.5 141t243 50q58 0 109 -9l21 59q8 21 18 21h190q27 0 19 -25l-47 -137q119 -84 180 -234t61 -345q0 -117 -21 -218.5t-65.5 -185t-109 -143t-155 -92t-200.5 -32.5q-39 0 -103 8l-26 -80q-5 -13 -11.5 -16t-21.5 -3h-188 q-7 0 -10.5 5.5t0.5 13.5l52 158q-121 82 -181.5 233.5t-60.5 351.5zM302 655q0 -226 82 -357l277 832q-30 4 -48 4q-147 0 -229 -128t-82 -351zM572 169q6 -1 41 -1q147 0 229.5 131t82.5 356q0 215 -78 343z" />
<glyph unicode="&#xd9;" horiz-adv-x="1184" d="M45 1197v80q0 16 3 21t15 5h445q10 0 13.5 -4t3.5 -18v-88q0 -14 -2 -18.5t-13 -7.5q-65 -8 -88.5 -21.5t-26.5 -45.5v-616q0 -150 60 -233t172 -83q107 0 168 83.5t61 232.5v611q-3 41 -20.5 53t-74.5 17q-16 1 -19 7t-3 25v80q0 16 3.5 21t17.5 5h374q12 0 14.5 -3.5 t2.5 -18.5v-88q0 -24 -15 -24q-69 -12 -91.5 -27t-22.5 -53v-605q0 -112 -24.5 -202.5t-75 -158.5t-132.5 -105t-190 -37q-219 0 -330.5 127.5t-111.5 375.5v592q0 55 -15 70t-76 19q-16 1 -19 7t-3 25zM378 1594q-7 8 -9 15.5t2 11.5t13 4h173q19 0 29 -6.5t21 -26.5 l110 -183q11 -24 7.5 -32.5t-20.5 -8.5h-84q-31 0 -67 36z" />
<glyph unicode="&#xda;" horiz-adv-x="1184" d="M45 1197v80q0 16 3 21t15 5h445q10 0 13.5 -4t3.5 -18v-88q0 -14 -2 -18.5t-13 -7.5q-65 -8 -88.5 -21.5t-26.5 -45.5v-616q0 -150 60 -233t172 -83q107 0 168 83.5t61 232.5v611q-3 41 -20.5 53t-74.5 17q-16 1 -19 7t-3 25v80q0 16 3.5 21t17.5 5h374q12 0 14.5 -3.5 t2.5 -18.5v-88q0 -24 -15 -24q-69 -12 -91.5 -27t-22.5 -53v-605q0 -112 -24.5 -202.5t-75 -158.5t-132.5 -105t-190 -37q-219 0 -330.5 127.5t-111.5 375.5v592q0 55 -15 70t-76 19q-16 1 -19 7t-3 25zM564 1419l99 165q13 21 22.5 27.5t27.5 6.5h177q15 0 17 -9.5 t-11 -22.5l-172 -180q-28 -28 -63 -28h-84q-19 0 -22.5 8.5t9.5 32.5z" />
<glyph unicode="&#xdb;" horiz-adv-x="1182" d="M45 1197v80q0 16 3 21t15 5h445q10 0 13.5 -4t3.5 -18v-88q0 -14 -2 -18.5t-13 -7.5q-65 -8 -88.5 -21.5t-26.5 -45.5v-616q0 -150 60 -233t172 -83q107 0 168 83.5t61 232.5v611q-3 41 -20.5 53t-74.5 17q-16 1 -19 7t-3 25v80q0 16 3.5 21t17.5 5h374q12 0 14.5 -3.5 t2.5 -18.5v-88q0 -24 -15 -24q-69 -12 -91.5 -27t-22.5 -53v-605q0 -112 -24.5 -202.5t-75 -158.5t-132.5 -105t-190 -37q-219 0 -330.5 127.5t-111.5 375.5v592q0 55 -15 70t-76 19q-16 1 -19 7t-3 25zM387 1383q-7 12 11 34l133 173q18 24 55 24h79q38 0 56 -24l132 -175 q11 -14 11.5 -23.5t-6.5 -23.5t-28 -3l-206 117l-203 -115q-18 -6 -22.5 -3t-11.5 19z" />
<glyph unicode="&#xdc;" horiz-adv-x="1184" d="M45 1197v80q0 16 3 21t15 5h445q10 0 13.5 -4t3.5 -18v-88q0 -14 -2 -18.5t-13 -7.5q-65 -8 -88.5 -21.5t-26.5 -45.5v-616q0 -150 60 -233t172 -83q107 0 168 83.5t61 232.5v611q-3 41 -20.5 53t-74.5 17q-16 1 -19 7t-3 25v80q0 16 3.5 21t17.5 5h374q12 0 14.5 -3.5 t2.5 -18.5v-88q0 -24 -15 -24q-69 -12 -91.5 -27t-22.5 -53v-605q0 -112 -24.5 -202.5t-75 -158.5t-132.5 -105t-190 -37q-219 0 -330.5 127.5t-111.5 375.5v592q0 55 -15 70t-76 19q-16 1 -19 7t-3 25zM378 1475q0 45 27.5 76.5t71.5 31.5t73 -32t29 -76q0 -46 -28.5 -76.5 t-73.5 -30.5q-44 0 -71.5 30.5t-27.5 76.5zM670 1475q0 45 29 76.5t74 31.5q43 0 72.5 -32t29.5 -76q0 -46 -28.5 -76.5t-73.5 -30.5q-46 0 -74.5 30.5t-28.5 76.5z" />
<glyph unicode="&#xdd;" horiz-adv-x="1051" d="M20 1192v91q0 12 3.5 16t13.5 4h415q12 0 15.5 -4.5t3.5 -17.5v-88q0 -11 -1 -15.5t-5.5 -8t-13.5 -4.5q-54 -3 -72 -10.5t-18 -26.5q0 -116 47 -234.5t128 -262.5q43 69 71 119t60.5 118t48.5 133t16 127q0 20 -17.5 27t-72.5 10q-9 1 -13.5 4.5t-5.5 8t-1 15.5v88 q0 13 3 17.5t14 4.5h376q11 0 13.5 -3.5t2.5 -16.5v-91q0 -25 -14 -25q-61 -7 -83 -17t-27 -35q-17 -157 -92 -325.5t-176 -305.5v-255q0 -56 15.5 -71.5t77.5 -19.5q11 -1 15.5 -5t5.5 -9t1 -18v-80q0 -16 -3.5 -21t-15.5 -5h-424q-13 0 -16 4t-3 18v88q0 9 0.5 13t4 7 t10.5 4q71 10 92.5 26t21.5 62v223q-109 149 -188 326t-88 344q-3 20 -27.5 32t-82.5 20q-11 3 -13 7t-2 18zM490 1419l98 165q13 21 23 27.5t28 6.5h176q15 0 17 -9.5t-11 -22.5l-171 -180q-28 -28 -64 -28h-83q-19 0 -22.5 8.5t9.5 32.5z" />
<glyph unicode="&#xde;" horiz-adv-x="960" d="M60 22v88q0 10 0.5 13t3.5 6.5t10 4.5q71 10 92.5 26t21.5 62v852q0 56 -15.5 71.5t-77.5 19.5q-16 1 -19 7t-3 25v80q0 16 3 21t15 5h427q11 0 13.5 -3.5t2.5 -18.5v-88q0 -14 -2 -18.5t-13 -7.5q-73 -8 -94 -23.5t-21 -61.5v-43h71q106 0 185 -20t126.5 -53.5 t76.5 -83.5t39 -102.5t10 -118.5q0 -434 -394 -434q-66 0 -114 11v-29q1 -42 18.5 -55t76.5 -16q11 -1 15.5 -5t5.5 -9t1 -18v-80q0 -16 -3 -21t-17 -5h-423q-12 0 -15 3.5t-3 18.5zM404 415q9 -5 43 -9t56 -4q85 0 133.5 65t48.5 185q0 101 -45.5 164t-134.5 63h-101v-464z " />
<glyph unicode="&#xdf;" horiz-adv-x="1001" d="M110 28v925q0 191 93.5 280t273.5 89q77 0 141 -17t115.5 -52.5t80.5 -97.5t29 -146q0 -59 -11.5 -106.5t-35.5 -86.5t-45 -63t-58 -60q127 -52 192.5 -133.5t65.5 -211.5q0 -167 -115 -257.5t-331 -90.5h-32q-12 0 -16.5 4.5t-4.5 14.5v115q0 15 5 19.5t20 4.5h39 q93 0 155.5 48.5t62.5 143.5q0 35 -11 65.5t-25 50.5t-41 41.5t-45.5 32.5t-51.5 29t-48 27q-2 2 -11.5 8t-12 8t-10 7.5t-10.5 8.5t-8.5 9t-8 10.5t-5.5 10.5t-4 13t-1 14q0 41 60 93q57 51 76 76q45 61 45 146q0 158 -140 158q-81 0 -122.5 -49.5t-41.5 -155.5v-925 q0 -18 -4.5 -23t-17.5 -5h-160q-16 0 -21 4.5t-5 23.5z" />
<glyph unicode="&#xe0;" horiz-adv-x="899" d="M52 209q0 72 20.5 121.5t54.5 73t77 38t88 17.5t88 11t77 19t54.5 41t20.5 77q0 132 -147 132q-57 0 -111 -26l-25 -169q0 -17 -16 -17h-101q-12 0 -14.5 3.5t-2.5 15.5v236q0 25 4.5 36t18.5 18q33 18 105.5 33t154.5 15q189 0 272.5 -84t83.5 -247v-283 q0 -74 12.5 -98.5t35.5 -24.5q36 0 36 45q0 12 1 17t7 9.5t18 4.5h33q17 0 21.5 -7.5t4.5 -29.5q0 -197 -176 -197q-142 0 -183 128q-68 -132 -272 -132q-123 0 -181.5 52.5t-58.5 171.5zM210 1231q-7 8 -9 15.5t2 11.5t13 4h173q19 0 29 -6.5t21 -26.5l110 -183 q11 -24 7.5 -32.5t-20.5 -8.5h-84q-31 0 -67 36zM268 212q0 -93 80 -93q74 0 127.5 66t62.5 156l8 85q-17 -41 -52 -61.5t-72.5 -26.5t-73 -14t-58 -34.5t-22.5 -77.5z" />
<glyph unicode="&#xe1;" horiz-adv-x="988" d="M58 436q0 202 78 325t235 123q73 0 137.5 -26.5t100.5 -86.5v43q0 52 37 52h48q17 0 43.5 -4.5t77 -14.5t92.5 -17q11 0 15.5 -5.5t4.5 -20.5v-82q0 -15 -2.5 -19.5t-12.5 -4.5l-67 -5q-37 -4 -37 -60v-363q0 -75 12 -99t36 -24q36 0 36 45q0 12 1 17.5t6.5 9.5t16.5 4 h34q17 0 21.5 -7t4.5 -30q0 -197 -177 -197q-141 0 -185 132q-72 -132 -251 -132q-151 0 -228 123t-77 324zM274 439q0 -120 41.5 -202t122.5 -82q63 0 104 48.5t56 135.5v7q7 33 7 95q0 129 -42.5 206t-123.5 77t-123 -81.5t-42 -203.5zM411 1056l99 165q13 21 22.5 27.5 t27.5 6.5h177q15 0 17 -9.5t-11 -22.5l-171 -180q-28 -28 -64 -28h-84q-19 0 -22.5 8.5t9.5 32.5z" />
<glyph unicode="&#xe2;" horiz-adv-x="899" d="M52 209q0 72 20.5 121.5t54.5 73t77 38t88 17.5t88 11t77 19t54.5 41t20.5 77q0 132 -147 132q-57 0 -111 -26l-25 -169q0 -17 -16 -17h-101q-12 0 -14.5 3.5t-2.5 15.5v236q0 25 4.5 36t18.5 18q33 18 105.5 33t154.5 15q189 0 272.5 -84t83.5 -247v-283 q0 -74 12.5 -98.5t35.5 -24.5q36 0 36 45q0 12 1 17t7 9.5t18 4.5h33q17 0 21.5 -7.5t4.5 -29.5q0 -197 -176 -197q-142 0 -183 128q-68 -132 -272 -132q-123 0 -181.5 52.5t-58.5 171.5zM220 1020q-7 12 11 34l132 173q18 24 56 24h78q38 0 56 -24l132 -175 q11 -13 11.5 -23t-5.5 -24q-7 -14 -28 -3l-207 117l-203 -115q-17 -6 -22 -3t-11 19zM268 212q0 -93 80 -93q74 0 127.5 66t62.5 156l8 85q-17 -41 -52 -61.5t-72.5 -26.5t-73 -14t-58 -34.5t-22.5 -77.5z" />
<glyph unicode="&#xe3;" horiz-adv-x="899" d="M52 209q0 72 20.5 121.5t54.5 73t77 38t88 17.5t88 11t77 19t54.5 41t20.5 77q0 132 -147 132q-57 0 -111 -26l-25 -169q0 -17 -16 -17h-101q-12 0 -14.5 3.5t-2.5 15.5v236q0 25 4.5 36t18.5 18q33 18 105.5 33t154.5 15q189 0 272.5 -84t83.5 -247v-283 q0 -74 12.5 -98.5t35.5 -24.5q36 0 36 45q0 12 1 17t7 9.5t18 4.5h33q17 0 21.5 -7.5t4.5 -29.5q0 -197 -176 -197q-142 0 -183 128q-68 -132 -272 -132q-123 0 -181.5 52.5t-58.5 171.5zM266 1085q19 52 55.5 91.5t80.5 39.5q40 0 89.5 -31t72.5 -31q26 0 39 38q4 19 19 11 l59 -28q10 -5 11.5 -10.5t-3.5 -19.5q-17 -52 -53 -92t-81 -40q-42 0 -94 30.5t-68 30.5q-13 0 -20 -8t-19 -31q-8 -14 -19 -9l-56 30q-12 5 -14.5 10.5t1.5 18.5zM268 212q0 -93 80 -93q74 0 127.5 66t62.5 156l8 85q-17 -41 -52 -61.5t-72.5 -26.5t-73 -14t-58 -34.5 t-22.5 -77.5z" />
<glyph unicode="&#xe4;" horiz-adv-x="899" d="M52 209q0 72 20.5 121.5t54.5 73t77 38t88 17.5t88 11t77 19t54.5 41t20.5 77q0 132 -147 132q-57 0 -111 -26l-25 -169q0 -17 -16 -17h-101q-12 0 -14.5 3.5t-2.5 15.5v236q0 25 4.5 36t18.5 18q33 18 105.5 33t154.5 15q189 0 272.5 -84t83.5 -247v-283 q0 -74 12.5 -98.5t35.5 -24.5q36 0 36 45q0 12 1 17t7 9.5t18 4.5h33q17 0 21.5 -7.5t4.5 -29.5q0 -197 -176 -197q-142 0 -183 128q-68 -132 -272 -132q-123 0 -181.5 52.5t-58.5 171.5zM210 1112q0 45 27.5 76t71.5 31t73 -31.5t29 -75.5q0 -46 -28.5 -76.5t-73.5 -30.5 q-44 0 -71.5 30.5t-27.5 76.5zM268 212q0 -93 80 -93q74 0 127.5 66t62.5 156l8 85q-17 -41 -52 -61.5t-72.5 -26.5t-73 -14t-58 -34.5t-22.5 -77.5zM503 1112q0 45 28.5 76t73.5 31q43 0 72.5 -31.5t29.5 -75.5q0 -46 -28.5 -76.5t-73.5 -30.5q-46 0 -74 30.5t-28 76.5z " />
<glyph unicode="&#xe5;" horiz-adv-x="899" d="M52 209q0 72 20.5 121.5t54.5 73t77 38t88 17.5t88 11t77 19t54.5 41t20.5 77q0 132 -147 132q-57 0 -111 -26l-25 -169q0 -17 -16 -17h-101q-12 0 -14.5 3.5t-2.5 15.5v236q0 25 4.5 36t18.5 18q33 18 105.5 33t154.5 15q189 0 272.5 -84t83.5 -247v-283 q0 -74 12.5 -98.5t35.5 -24.5q36 0 36 45q0 12 1 17t7 9.5t18 4.5h33q17 0 21.5 -7.5t4.5 -29.5q0 -197 -176 -197q-142 0 -183 128q-68 -132 -272 -132q-123 0 -181.5 52.5t-58.5 171.5zM244 1136q0 134 214 134q212 0 212 -134q0 -59 -48 -97.5t-164 -38.5 q-214 0 -214 136zM268 212q0 -93 80 -93q74 0 127.5 66t62.5 156l8 85q-17 -41 -52 -61.5t-72.5 -26.5t-73 -14t-58 -34.5t-22.5 -77.5zM395 1136q0 -25 14.5 -43.5t48.5 -18.5q31 0 46 18.5t15 43.5q0 23 -15 41t-46 18q-34 0 -48.5 -17.5t-14.5 -41.5z" />
<glyph unicode="&#xe6;" horiz-adv-x="1320" d="M52 210q0 64 16.5 111t39 72.5t62 43t69 23t76.5 11.5l45 6t41 7t39.5 10.5t31 15t26 21t15 29t6.5 38.5q0 61 -28 92t-106 31q-69 0 -124 -23l-15 -134q-2 -18 -19 -18h-99q-12 0 -15 3.5t-3 16.5v220q0 25 4 35.5t18 18.5q33 17 105 30.5t154 13.5q192 0 274 -91 q91 91 264 91q320 0 320 -281q0 -55 -12 -97.5t-31 -72t-51 -50t-63.5 -32t-77.5 -18t-84 -8t-92 -1.5q-47 0 -62 2q20 -99 74.5 -138t143.5 -39q42 0 84.5 10t90 26.5t65.5 21.5q11 4 17 1t6 -20v-93q0 -24 -4.5 -32.5t-18.5 -17.5q-46 -30 -121.5 -47t-149.5 -17 q-250 0 -343 151q-76 -151 -302 -151q-136 0 -201 54t-65 175zM268 216q0 -50 18.5 -70.5t56.5 -20.5q75 0 132 70.5t57 163.5v58q-30 -70 -135 -87q-29 -4 -42 -7t-33.5 -10.5t-29.5 -18.5t-16.5 -30.5t-7.5 -47.5zM767 458q37 0 61 1t60.5 5t60.5 14t47.5 25.5t35 41.5 t11.5 60q0 60 -30.5 90.5t-77.5 30.5q-81 0 -123.5 -68.5t-44.5 -199.5z" />
<glyph unicode="&#xe7;" horiz-adv-x="781" d="M54 419q0 227 102 346t285 119q76 0 143 -14.5t99 -31.5q14 -7 18.5 -16.5t4.5 -33.5v-270q0 -12 -3.5 -15.5t-13.5 -3.5h-101q-13 0 -16 17l-26 178q-39 25 -94 25q-85 0 -134.5 -71.5t-49.5 -219.5q0 -153 59.5 -212.5t169.5 -59.5q81 0 203 32q13 3 18.5 -3t5.5 -23 v-104q0 -20 -24 -30q-81 -29 -195 -37l-17 -58q128 -8 128 -134q0 -83 -52.5 -122.5t-133.5 -39.5q-69 0 -132 26q-11 5 -13.5 11t4.5 26l9 21q7 15 11.5 17.5t12.5 -2.5q28 -13 75 -13q67 0 67 70q0 66 -92 66q-17 0 -19 1.5t3 24.5l39 106q-168 10 -254.5 112.5 t-86.5 315.5z" />
<glyph unicode="&#xe8;" horiz-adv-x="821" d="M56 430q0 225 91 339.5t285 114.5q320 0 320 -281q0 -55 -12 -97.5t-31 -72t-51 -50t-63.5 -32t-77.5 -18t-84 -8t-92 -1.5q-47 0 -62 2q20 -99 74.5 -138t143.5 -39q42 0 84.5 10t90 26.5t65.5 21.5q11 4 17 1t6 -20v-93q0 -24 -4.5 -32.5t-18.5 -17.5q-46 -30 -122 -47 t-150 -17q-212 0 -310.5 110t-98.5 339zM184 1231q-7 8 -9 15.5t2 11.5t13 4h173q19 0 29 -6.5t21 -26.5l110 -183q11 -24 7.5 -32.5t-20.5 -8.5h-84q-31 0 -67 36zM270 458q37 0 61 1t60.5 5t60.5 14t47.5 25.5t35 41.5t11.5 60q0 60 -30.5 90.5t-77.5 30.5 q-81 0 -123.5 -68.5t-44.5 -199.5z" />
<glyph unicode="&#xe9;" horiz-adv-x="821" d="M56 430q0 225 91 339.5t285 114.5q320 0 320 -281q0 -55 -12 -97.5t-31 -72t-51 -50t-63.5 -32t-77.5 -18t-84 -8t-92 -1.5q-47 0 -62 2q20 -99 74.5 -138t143.5 -39q42 0 84.5 10t90 26.5t65.5 21.5q11 4 17 1t6 -20v-93q0 -24 -4.5 -32.5t-18.5 -17.5q-46 -30 -122 -47 t-150 -17q-212 0 -310.5 110t-98.5 339zM270 458q37 0 61 1t60.5 5t60.5 14t47.5 25.5t35 41.5t11.5 60q0 60 -30.5 90.5t-77.5 30.5q-81 0 -123.5 -68.5t-44.5 -199.5zM369 1056l98 165q13 21 23 27.5t28 6.5h176q15 0 17 -9.5t-11 -22.5l-171 -180q-28 -28 -64 -28h-83 q-19 0 -22.5 8.5t9.5 32.5z" />
<glyph unicode="&#xea;" horiz-adv-x="821" d="M56 430q0 225 91 339.5t285 114.5q320 0 320 -281q0 -55 -12 -97.5t-31 -72t-51 -50t-63.5 -32t-77.5 -18t-84 -8t-92 -1.5q-47 0 -62 2q20 -99 74.5 -138t143.5 -39q42 0 84.5 10t90 26.5t65.5 21.5q11 4 17 1t6 -20v-93q0 -24 -4.5 -32.5t-18.5 -17.5q-46 -30 -122 -47 t-150 -17q-212 0 -310.5 110t-98.5 339zM194 1020q-7 12 11 34l132 173q18 24 56 24h78q38 0 56 -24l132 -175q11 -13 11.5 -23t-5.5 -24q-7 -14 -28 -3l-207 117l-203 -115q-17 -6 -22 -3t-11 19zM270 458q37 0 61 1t60.5 5t60.5 14t47.5 25.5t35 41.5t11.5 60 q0 60 -30.5 90.5t-77.5 30.5q-81 0 -123.5 -68.5t-44.5 -199.5z" />
<glyph unicode="&#xeb;" horiz-adv-x="821" d="M56 430q0 225 91 339.5t285 114.5q320 0 320 -281q0 -55 -12 -97.5t-31 -72t-51 -50t-63.5 -32t-77.5 -18t-84 -8t-92 -1.5q-47 0 -62 2q20 -99 74.5 -138t143.5 -39q42 0 84.5 10t90 26.5t65.5 21.5q11 4 17 1t6 -20v-93q0 -24 -4.5 -32.5t-18.5 -17.5q-46 -30 -122 -47 t-150 -17q-212 0 -310.5 110t-98.5 339zM184 1112q0 45 27.5 76t71.5 31t73 -31.5t29 -75.5q0 -46 -28.5 -76.5t-73.5 -30.5q-44 0 -71.5 30.5t-27.5 76.5zM270 458q37 0 61 1t60.5 5t60.5 14t47.5 25.5t35 41.5t11.5 60q0 60 -30.5 90.5t-77.5 30.5q-81 0 -123.5 -68.5 t-44.5 -199.5zM477 1112q0 45 28.5 76t73.5 31q43 0 72.5 -31.5t29.5 -75.5q0 -46 -28.5 -76.5t-73.5 -30.5q-46 0 -74 30.5t-28 76.5z" />
<glyph unicode="&#xec;" horiz-adv-x="526" d="M7 1231q-7 8 -9 15.5t2 11.5t13 4h173q19 0 29 -6.5t21 -26.5l110 -183q11 -24 7.5 -32.5t-20.5 -8.5h-84q-31 0 -67 36zM34 730v82q0 16 4 21t14 7q138 26 205 26h61q39 0 39 -51v-545q0 -74 13 -98.5t36 -24.5q35 0 35 45q0 12 1 17.5t7 9.5t18 4h34q16 0 20 -7t4 -30 q0 -197 -175 -197q-201 0 -201 272v381q0 33 -8.5 44.5t-28.5 13.5l-65 6q-13 0 -13 24z" />
<glyph unicode="&#xed;" horiz-adv-x="526" d="M34 730v82q0 16 4 21t14 7q138 26 205 26h61q39 0 39 -51v-545q0 -74 13 -98.5t36 -24.5q35 0 35 45q0 12 1 17.5t7 9.5t18 4h34q16 0 20 -7t4 -30q0 -197 -175 -197q-201 0 -201 272v381q0 33 -8.5 44.5t-28.5 13.5l-65 6q-13 0 -13 24zM192 1056l98 165q13 21 23 27.5 t28 6.5h177q15 0 16.5 -9.5t-11.5 -22.5l-171 -180q-28 -28 -63 -28h-84q-19 0 -22.5 8.5t9.5 32.5z" />
<glyph unicode="&#xee;" horiz-adv-x="526" d="M17 1020q-7 12 11 34l132 173q18 24 56 24h78q38 0 56 -24l132 -175q11 -13 11.5 -23t-5.5 -24q-7 -14 -28 -3l-207 117l-203 -115q-17 -6 -22 -3t-11 19zM34 730v82q0 16 4 21t14 7q138 26 205 26h61q39 0 39 -51v-545q0 -74 13 -98.5t36 -24.5q35 0 35 45q0 12 1 17.5 t7 9.5t18 4h34q16 0 20 -7t4 -30q0 -197 -175 -197q-201 0 -201 272v381q0 33 -8.5 44.5t-28.5 13.5l-65 6q-13 0 -13 24z" />
<glyph unicode="&#xef;" horiz-adv-x="526" d="M7 1112q0 45 27.5 76t71.5 31t73.5 -31.5t29.5 -75.5q0 -45 -29 -76t-74 -31q-44 0 -71.5 30.5t-27.5 76.5zM34 730v82q0 16 4 21t14 7q138 26 205 26h61q39 0 39 -51v-545q0 -74 13 -98.5t36 -24.5q35 0 35 45q0 12 1 17.5t7 9.5t18 4h34q16 0 20 -7t4 -30 q0 -197 -175 -197q-201 0 -201 272v381q0 33 -8.5 44.5t-28.5 13.5l-65 6q-13 0 -13 24zM300 1112q0 45 28.5 76t73.5 31q43 0 73 -31.5t30 -75.5q0 -45 -29 -76t-74 -31q-46 0 -74 30.5t-28 76.5z" />
<glyph unicode="&#xf0;" horiz-adv-x="899" d="M56 417q0 83 16.5 153.5t52 130.5t99.5 94.5t150 34.5q112 0 194 -91q-48 228 -175 326l-54 -115q-7 -14 -21 -6l-95 61q-20 13 -11 30l45 95q-44 11 -91 11h-11q-32 0 -32 39v108q0 34 30 34h13q87 0 171 -21l60 127q5 11 11.5 12t17.5 -6l84 -53q14 -9 17 -15t-2 -20 l-47 -99q170 -93 255.5 -287t85.5 -454q0 -525 -378 -525q-188 0 -286.5 117.5t-98.5 318.5zM283 417q0 -131 41.5 -198.5t114.5 -67.5q80 0 116.5 83t36.5 246v15q-22 85 -58 125.5t-96 40.5q-80 0 -117.5 -65.5t-37.5 -178.5z" />
<glyph unicode="&#xf1;" horiz-adv-x="1020" d="M47 22v88q0 10 0.5 13t3.5 6.5t10 4.5q65 8 88 23t26 52v435q0 58 -35 58l-66 5q-14 3 -14 25v83q0 16 3.5 20.5t14.5 6.5q42 7 91 16t75.5 13t42.5 4h48q22 0 29.5 -13t7.5 -37v-116q40 89 110.5 132t154.5 43q111 0 165 -73.5t54 -233.5v-307q0 -74 13 -98.5t36 -24.5 q35 0 35 45q0 12 1 17.5t6.5 9.5t16.5 4h36q16 0 20 -7t4 -30q0 -197 -175 -197q-201 0 -201 272v290q0 91 -23 125.5t-70 34.5q-78 0 -124.5 -86t-46.5 -260v-136q0 -56 14.5 -71.5t76.5 -19.5q11 -1 15.5 -5t5.5 -9t1 -18v-80q0 -9 -0.5 -12.5t-2 -7.5t-5.5 -5t-11 -1 h-413q-12 0 -15 3.5t-3 18.5zM359 1085q19 52 55.5 91.5t80.5 39.5q40 0 89.5 -31t72.5 -31q26 0 39 38q4 19 19 11l60 -28q10 -5 11 -10.5t-4 -19.5q-17 -52 -53 -92t-81 -40q-42 0 -94 30.5t-68 30.5q-13 0 -20 -8t-19 -31q-8 -14 -19 -9l-56 30q-12 5 -14.5 10.5 t1.5 18.5z" />
<glyph unicode="&#xf2;" horiz-adv-x="871" d="M52 438q0 88 21 165t64.5 141.5t120 102t178.5 37.5q103 0 179.5 -37.5t119.5 -102t63.5 -141t20.5 -165.5t-20.5 -166t-64 -142t-120 -103t-178.5 -38q-103 0 -179.5 38t-120 103t-64 142t-20.5 166zM188 1231q-7 8 -9 15.5t2 11.5t13 4h173q19 0 29 -6.5t21 -26.5 l110 -183q11 -24 7.5 -32.5t-20.5 -8.5h-84q-31 0 -67 36zM264 432q0 -121 42 -198.5t130 -77.5q87 0 130 78t43 198q0 77 -17 139.5t-57 104t-99 41.5q-86 0 -129 -82t-43 -203z" />
<glyph unicode="&#xf3;" horiz-adv-x="871" d="M52 438q0 88 21 165t64.5 141.5t120 102t178.5 37.5q103 0 179.5 -37.5t119.5 -102t63.5 -141t20.5 -165.5t-20.5 -166t-64 -142t-120 -103t-178.5 -38q-103 0 -179.5 38t-120 103t-64 142t-20.5 166zM264 432q0 -121 42 -198.5t130 -77.5q87 0 130 78t43 198 q0 77 -17 139.5t-57 104t-99 41.5q-86 0 -129 -82t-43 -203zM374 1056l99 165q13 21 22.5 27.5t27.5 6.5h177q15 0 17 -9.5t-11 -22.5l-172 -180q-28 -28 -63 -28h-84q-19 0 -22.5 8.5t9.5 32.5z" />
<glyph unicode="&#xf4;" horiz-adv-x="871" d="M52 438q0 88 21 165t64.5 141.5t120 102t178.5 37.5q103 0 179.5 -37.5t119.5 -102t63.5 -141t20.5 -165.5t-20.5 -166t-64 -142t-120 -103t-178.5 -38q-103 0 -179.5 38t-120 103t-64 142t-20.5 166zM199 1020q-7 12 11 34l133 173q18 24 55 24h79q37 0 55 -24l133 -175 q11 -14 11.5 -23.5t-6.5 -23.5t-28 -3l-206 117l-203 -115q-18 -6 -22.5 -3t-11.5 19zM264 432q0 -57 9.5 -105.5t29.5 -87.5t54 -61t79 -22q59 0 99 39.5t57 99.5t17 137q0 57 -10 107t-30 90.5t-54.5 64t-78.5 23.5t-78.5 -23.5t-54 -64t-29.5 -90.5t-10 -107z" />
<glyph unicode="&#xf5;" horiz-adv-x="871" d="M52 438q0 88 21 165t64.5 141.5t120 102t178.5 37.5q103 0 179.5 -37.5t119.5 -102t63.5 -141t20.5 -165.5t-20.5 -166t-64 -142t-120 -103t-178.5 -38q-103 0 -179.5 38t-120 103t-64 142t-20.5 166zM246 1085q19 52 55.5 91.5t80.5 39.5q40 0 89.5 -31t72.5 -31 q26 0 39 38q3 19 18 11l60 -28q10 -5 11 -10.5t-4 -19.5q-17 -52 -53 -92t-81 -40q-42 0 -94 30.5t-68 30.5q-13 0 -20 -8t-19 -31q-7 -14 -18 -9l-56 30q-12 5 -14.5 10.5t1.5 18.5zM264 432q0 -121 42 -198.5t130 -77.5q87 0 130 78t43 198q0 77 -17 139.5t-57 104 t-99 41.5q-86 0 -129 -82t-43 -203z" />
<glyph unicode="&#xf6;" horiz-adv-x="871" d="M52 438q0 88 21 165t64.5 141.5t120 102t178.5 37.5q103 0 179.5 -37.5t119.5 -102t63.5 -141t20.5 -165.5t-20.5 -166t-64 -142t-120 -103t-178.5 -38q-103 0 -179.5 38t-120 103t-64 142t-20.5 166zM190 1112q0 45 27.5 76t71.5 31t73 -31.5t29 -75.5 q0 -46 -28.5 -76.5t-73.5 -30.5q-44 0 -71.5 30.5t-27.5 76.5zM264 432q0 -121 42 -198.5t130 -77.5q87 0 130 78t43 198q0 77 -17 139.5t-57 104t-99 41.5q-86 0 -129 -82t-43 -203zM482 1112q0 44 29 75.5t74 31.5q43 0 72.5 -31.5t29.5 -75.5q0 -46 -28.5 -76.5 t-73.5 -30.5q-46 0 -74.5 30.5t-28.5 76.5z" />
<glyph unicode="&#xf7;" horiz-adv-x="979" d="M73 365v188h834v-188h-834zM341 136q0 50 39 85.5t100 35.5q59 0 98.5 -35.5t39.5 -85.5q0 -51 -39.5 -86t-98.5 -35q-62 0 -100.5 35t-38.5 86zM341 791q0 50 40 84.5t99 34.5q57 0 97.5 -34.5t40.5 -84.5q0 -49 -40.5 -84t-97.5 -35q-58 0 -98.5 35t-40.5 84z" />
<glyph unicode="&#xf8;" horiz-adv-x="871" d="M52 438q0 88 21 165t64.5 141.5t120 102t178.5 37.5q49 0 91 -9l33 99q9 16 15 16h101q20 0 13 -20l-49 -138q91 -57 135 -162t44 -232q0 -89 -20.5 -166t-64 -142t-120 -103t-178.5 -38q-54 0 -82 7l-32 -93q-3 -7 -6.5 -10.5t-7 -4t-12.5 -0.5h-97q-14 0 -5 17l44 130 q-96 55 -141 163t-45 240zM264 432q0 -128 41 -199l166 480q-22 4 -35 4q-86 0 -129 -82t-43 -203zM410 158q7 -2 26 -2q87 0 130 78t43 198q0 116 -39 194z" />
<glyph unicode="&#xf9;" horiz-adv-x="994" d="M24 741v71q0 16 4 21t15 7q36 5 74.5 11t55 8.5t36 4.5t37.5 2h63q37 0 37 -52v-509q0 -100 25 -136.5t78 -36.5q165 0 165 304v247q-9 24 -33 28l-67 6q-13 2 -13 24v71q0 15 4.5 20.5t15.5 7.5q35 5 73.5 11t55.5 8.5t36.5 4.5t37.5 2h64q37 0 37 -52v-566 q1 -60 13.5 -80.5t34.5 -20.5q36 0 36 45q0 12 1 17.5t6.5 9.5t16.5 4h35q17 0 20.5 -6.5t3.5 -30.5q0 -197 -175 -197q-150 0 -188 147q-40 -78 -97.5 -114.5t-146.5 -36.5q-127 0 -186 76t-59 248v346q0 52 -38 56l-67 6q-8 1 -9.5 5.5t-1.5 18.5zM216 1231q-7 8 -9 15.5 t2 11.5t13 4h173q19 0 29 -6.5t21 -26.5l110 -183q11 -24 7.5 -32.5t-20.5 -8.5h-84q-31 0 -67 36z" />
<glyph unicode="&#xfa;" horiz-adv-x="994" d="M24 741v71q0 16 4 21t15 7q36 5 74.5 11t55 8.5t36 4.5t37.5 2h63q37 0 37 -52v-509q0 -100 25 -136.5t78 -36.5q165 0 165 304v247q-9 24 -33 28l-67 6q-13 2 -13 24v71q0 15 4.5 20.5t15.5 7.5q35 5 73.5 11t55.5 8.5t36.5 4.5t37.5 2h64q37 0 37 -52v-566 q1 -60 13.5 -80.5t34.5 -20.5q36 0 36 45q0 12 1 17.5t6.5 9.5t16.5 4h35q17 0 20.5 -6.5t3.5 -30.5q0 -197 -175 -197q-150 0 -188 147q-40 -78 -97.5 -114.5t-146.5 -36.5q-127 0 -186 76t-59 248v346q0 52 -38 56l-67 6q-8 1 -9.5 5.5t-1.5 18.5zM400 1056l99 165 q13 21 22.5 27.5t27.5 6.5h177q15 0 17 -9.5t-11 -22.5l-172 -180q-28 -28 -63 -28h-84q-19 0 -22.5 8.5t9.5 32.5z" />
<glyph unicode="&#xfb;" horiz-adv-x="994" d="M24 741v71q0 16 4 21t15 7q36 5 74.5 11t55 8.5t36 4.5t37.5 2h63q37 0 37 -52v-509q0 -100 25 -136.5t78 -36.5q165 0 165 304v247q-9 24 -33 28l-67 6q-13 2 -13 24v71q0 15 4.5 20.5t15.5 7.5q35 5 73.5 11t55.5 8.5t36.5 4.5t37.5 2h64q37 0 37 -52v-566 q1 -60 13.5 -80.5t34.5 -20.5q36 0 36 45q0 12 1 17.5t6.5 9.5t16.5 4h35q17 0 20.5 -6.5t3.5 -30.5q0 -197 -175 -197q-150 0 -188 147q-40 -78 -97.5 -114.5t-146.5 -36.5q-127 0 -186 76t-59 248v346q0 52 -38 56l-67 6q-8 1 -9.5 5.5t-1.5 18.5zM223 1020q-6 12 12 34 l132 173q18 24 56 24h78q38 0 56 -24l132 -175q11 -14 11.5 -23.5t-6.5 -23.5q-6 -14 -27 -3l-207 117l-203 -115q-18 -6 -22.5 -3t-11.5 19z" />
<glyph unicode="&#xfc;" horiz-adv-x="994" d="M24 741v71q0 16 4 21t15 7q36 5 74.5 11t55 8.5t36 4.5t37.5 2h63q37 0 37 -52v-509q0 -100 25 -136.5t78 -36.5q165 0 165 304v247q-9 24 -33 28l-67 6q-13 2 -13 24v71q0 15 4.5 20.5t15.5 7.5q35 5 73.5 11t55.5 8.5t36.5 4.5t37.5 2h64q37 0 37 -52v-566 q1 -60 13.5 -80.5t34.5 -20.5q36 0 36 45q0 12 1 17.5t6.5 9.5t16.5 4h35q17 0 20.5 -6.5t3.5 -30.5q0 -197 -175 -197q-150 0 -188 147q-40 -78 -97.5 -114.5t-146.5 -36.5q-127 0 -186 76t-59 248v346q0 52 -38 56l-67 6q-8 1 -9.5 5.5t-1.5 18.5zM214 1112q0 45 27.5 76 t71.5 31t73 -31.5t29 -75.5q0 -46 -28.5 -76.5t-73.5 -30.5q-44 0 -71.5 30.5t-27.5 76.5zM506 1112q0 44 29 75.5t74 31.5q43 0 72.5 -31.5t29.5 -75.5q0 -46 -28.5 -76.5t-73.5 -30.5q-46 0 -74.5 30.5t-28.5 76.5z" />
<glyph unicode="&#xfd;" horiz-adv-x="916" d="M28 752v99q0 9 3 12t12 3h374q9 0 12 -3.5t3 -13.5v-95q0 -14 -2.5 -17.5t-14.5 -6.5q-48 -4 -62 -14t-9 -33q6 -90 47 -243.5t82 -251.5q61 168 145 495q7 25 -2 33.5t-56 13.5q-10 3 -12.5 4t-7 4t-5.5 7t-1 11v82q0 16 5.5 22t20.5 6h309q17 0 21 -5t4 -21v-79 q0 -12 -4 -17t-19 -12q-45 -8 -58 -18.5t-22 -41.5q-72 -276 -152 -505.5t-194 -484.5q-21 -38 -45 -52t-69 -14h-145q-15 0 -17.5 3t-2.5 18v87q0 10 0.5 14t4 6.5t10.5 2.5q79 10 99 19t38 44q44 94 82 190h-29q-19 0 -27 13q-49 78 -125.5 305t-90.5 363 q-3 22 -20.5 32.5t-68.5 20.5q-8 1 -9.5 4.5t-1.5 13.5zM424 1056l99 165q13 21 22.5 27.5t27.5 6.5h177q15 0 17 -9.5t-11 -22.5l-171 -180q-28 -28 -64 -28h-83q-19 0 -23 8.5t9 32.5z" />
<glyph unicode="&#xfe;" horiz-adv-x="904" d="M-7 -246v3q0 14 2 18t12 5q61 7 80 21t19 54l2 385v842q0 53 -37 57l-64 6q-13 2 -13 24v84q0 16 3.5 20t13.5 6q43 7 91.5 16t75 13.5t42.5 4.5h48q39 0 39 -51v-568q29 95 97 142.5t153 47.5q142 0 216 -124.5t74 -325.5q0 -202 -74.5 -327.5t-223.5 -125.5 q-73 0 -138 33t-93 103v-242q0 -53 23.5 -69.5t90.5 -21.5q11 -1 15.5 -4.5t5.5 -9t1 -19.5v-79q0 -16 -3 -21t-15 -5h-425q-12 0 -15 4t-3 19v85zM315 406q0 -125 39.5 -200.5t114.5 -75.5q81 0 120.5 80.5t39.5 208.5q0 127 -39 207.5t-117 80.5q-77 0 -117.5 -82 t-40.5 -219z" />
<glyph unicode="&#xff;" horiz-adv-x="916" d="M28 752v99q0 9 3 12t12 3h374q9 0 12 -3.5t3 -13.5v-95q0 -14 -2.5 -17.5t-14.5 -6.5q-48 -4 -62 -14t-9 -33q6 -90 47 -243.5t82 -251.5q61 168 145 495q7 25 -2 33.5t-56 13.5q-10 3 -12.5 4t-7 4t-5.5 7t-1 11v82q0 16 5.5 22t20.5 6h309q17 0 21 -5t4 -21v-79 q0 -12 -4 -17t-19 -12q-45 -8 -58 -18.5t-22 -41.5q-72 -276 -152 -505.5t-194 -484.5q-21 -38 -45 -52t-69 -14h-145q-15 0 -17.5 3t-2.5 18v87q0 10 0.5 14t4 6.5t10.5 2.5q79 10 99 19t38 44q44 94 82 190h-29q-19 0 -27 13q-49 78 -125.5 305t-90.5 363 q-3 22 -20.5 32.5t-68.5 20.5q-8 1 -9.5 4.5t-1.5 13.5zM238 1112q0 45 27.5 76t71.5 31t73 -31.5t29 -75.5q0 -46 -28.5 -76.5t-73.5 -30.5q-44 0 -71.5 30.5t-27.5 76.5zM531 1112q0 45 28.5 76t73.5 31q43 0 72.5 -31.5t29.5 -75.5q0 -46 -28.5 -76.5t-73.5 -30.5 q-46 0 -74 30.5t-28 76.5z" />
<glyph unicode="&#x152;" horiz-adv-x="1763" d="M63 652q0 146 34 267t100.5 212t172.5 141t243 50q231 0 374 -143q78 143 333 143q185 0 322 -50q18 -6 22 -15.5t4 -38.5v-282q0 -11 -2 -15.5t-4.5 -5.5t-10.5 -1h-108q-10 0 -13.5 3.5t-4.5 15.5l-34 193q-68 19 -154 19q-39 0 -68.5 -6.5t-57 -24.5t-42.5 -55 t-15 -93q0 -116 52.5 -159.5t156.5 -43.5h91q22 0 22 -28v-121q0 -28 -22 -28h-91q-107 0 -166 -49t-59 -165q0 -111 61 -157t186 -46q67 0 138 10t120.5 21t60.5 12q10 1 13 -3.5t3 -18.5v-140q0 -14 -4.5 -19.5t-17.5 -8.5q-183 -41 -395 -41q-245 0 -339 123 q-139 -123 -351 -123q-182 0 -307.5 88t-184 236.5t-58.5 346.5zM302 655q0 -225 82 -356t229 -131t229.5 131t82.5 356q0 223 -82.5 351t-229.5 128t-229 -128t-82 -351z" />
<glyph unicode="&#x153;" horiz-adv-x="1372" d="M52 438q0 88 21 165t64.5 141.5t120 102t178.5 37.5q169 0 268 -104q92 104 277 104q320 0 320 -281q0 -55 -12 -97.5t-31 -72t-51 -50t-63.5 -32t-77.5 -18t-84 -8t-92 -1.5q-46 0 -61 2q20 -99 74.5 -138t142.5 -39q42 0 84.5 10t90.5 26.5t66 21.5q11 4 16.5 1 t5.5 -20v-93q0 -24 -4 -32.5t-18 -17.5q-46 -30 -122 -47t-150 -17q-213 0 -313 110q-97 -102 -266 -102q-103 0 -179.5 38t-120 103t-64 142t-20.5 166zM264 432q0 -121 42 -198.5t130 -77.5q77 0 118.5 61.5t50.5 162.5v102q-7 103 -49.5 169t-119.5 66q-86 0 -129 -82 t-43 -203zM819 458q37 0 61 1t60.5 5t60.5 14t47.5 25.5t35 41.5t11.5 60q0 60 -30.5 90.5t-77.5 30.5q-81 0 -123.5 -68.5t-44.5 -199.5z" />
<glyph unicode="&#x178;" horiz-adv-x="1051" d="M20 1192v91q0 12 3.5 16t13.5 4h415q12 0 15.5 -4.5t3.5 -17.5v-88q0 -11 -1 -15.5t-5.5 -8t-13.5 -4.5q-54 -3 -72 -10.5t-18 -26.5q0 -116 47 -234.5t128 -262.5q43 69 71 119t60.5 118t48.5 133t16 127q0 20 -17.5 27t-72.5 10q-9 1 -13.5 4.5t-5.5 8t-1 15.5v88 q0 13 3 17.5t14 4.5h376q11 0 13.5 -3.5t2.5 -16.5v-91q0 -25 -14 -25q-61 -7 -83 -17t-27 -35q-17 -157 -92 -325.5t-176 -305.5v-255q0 -56 15.5 -71.5t77.5 -19.5q11 -1 15.5 -5t5.5 -9t1 -18v-80q0 -16 -3.5 -21t-15.5 -5h-424q-13 0 -16 4t-3 18v88q0 9 0.5 13t4 7 t10.5 4q71 10 92.5 26t21.5 62v223q-109 149 -188 326t-88 344q-3 20 -27.5 32t-82.5 20q-11 3 -13 7t-2 18zM305 1475q0 45 27.5 76.5t71.5 31.5t73 -32t29 -76q0 -46 -28.5 -76.5t-73.5 -30.5q-44 0 -71.5 30.5t-27.5 76.5zM598 1475q0 45 28.5 76.5t73.5 31.5 q43 0 72.5 -32t29.5 -76q0 -46 -28.5 -76.5t-73.5 -30.5q-46 0 -74 30.5t-28 76.5z" />
<glyph unicode="&#x2c6;" horiz-adv-x="547" d="M37 1383q-7 12 11 34l133 173q18 24 55 24h79q38 0 56 -24l132 -175q11 -14 11.5 -23.5t-6.5 -23.5t-28 -3l-206 117l-203 -115q-18 -6 -22.5 -3t-11.5 19z" />
<glyph unicode="&#x2dc;" horiz-adv-x="582" d="M78 1434q19 51 55.5 90.5t80.5 39.5q40 0 89.5 -31t72.5 -31q26 0 39 38q4 19 19 11l59 -28q10 -5 11.5 -10.5t-3.5 -19.5q-17 -52 -53 -92t-81 -40q-42 0 -94 30.5t-68 30.5q-13 0 -20 -8t-19 -31q-8 -14 -19 -9l-56 30q-20 9 -13 30z" />
<glyph unicode="&#x2000;" horiz-adv-x="846" />
<glyph unicode="&#x2001;" horiz-adv-x="1692" />
<glyph unicode="&#x2002;" horiz-adv-x="846" />
<glyph unicode="&#x2003;" horiz-adv-x="1692" />
<glyph unicode="&#x2004;" horiz-adv-x="564" />
<glyph unicode="&#x2005;" horiz-adv-x="423" />
<glyph unicode="&#x2006;" horiz-adv-x="282" />
<glyph unicode="&#x2007;" horiz-adv-x="282" />
<glyph unicode="&#x2008;" horiz-adv-x="211" />
<glyph unicode="&#x2009;" horiz-adv-x="338" />
<glyph unicode="&#x200a;" horiz-adv-x="94" />
<glyph unicode="&#x2010;" horiz-adv-x="683" d="M89 473v113q0 27 19 27h469q19 0 19 -28v-101q0 -17 -4.5 -24.5t-18.5 -7.5h-467q-17 0 -17 21z" />
<glyph unicode="&#x2011;" horiz-adv-x="683" d="M89 473v113q0 27 19 27h469q19 0 19 -28v-101q0 -17 -4.5 -24.5t-18.5 -7.5h-467q-17 0 -17 21z" />
<glyph unicode="&#x2012;" horiz-adv-x="683" d="M89 473v113q0 27 19 27h469q19 0 19 -28v-101q0 -17 -4.5 -24.5t-18.5 -7.5h-467q-17 0 -17 21z" />
<glyph unicode="&#x2013;" horiz-adv-x="956" d="M89 467v121q0 9 0.5 13t5 8t13.5 4h743q11 0 14 -6t3 -21v-108q0 -17 -3.5 -24t-17.5 -7h-743q-15 0 -15 20z" />
<glyph unicode="&#x2014;" horiz-adv-x="1334" d="M89 467v121q0 9 0.5 13t5 8t13.5 4h1121q17 0 17 -27v-108q0 -17 -4 -24t-17 -7h-1121q-15 0 -15 20z" />
<glyph unicode="&#x2018;" horiz-adv-x="411" d="M61 931l116 361q5 19 11 24.5t21 5.5h130q22 0 17 -32l-75 -370q-5 -27 -13.5 -35t-34.5 -8h-145q-25 0 -31 11.5t4 42.5z" />
<glyph unicode="&#x2019;" horiz-adv-x="409" d="M65 909l75 370q5 27 13.5 35t34.5 8h145q25 0 30.5 -11.5t-4.5 -42.5l-115 -361q-5 -19 -11 -24.5t-21 -5.5h-130q-22 0 -17 32z" />
<glyph unicode="&#x201a;" horiz-adv-x="396" d="M28 -179l74 371q5 27 14 35t35 8h145q25 0 30.5 -11.5t-4.5 -42.5l-115 -362q-5 -19 -11 -24t-21 -5h-130q-22 0 -17 31z" />
<glyph unicode="&#x201c;" horiz-adv-x="707" d="M61 931l116 361q5 19 11 24.5t21 5.5h130q22 0 17 -32l-75 -370q-5 -27 -13.5 -35t-34.5 -8h-145q-25 0 -31 11.5t4 42.5zM357 931l116 361q5 19 11 24.5t21 5.5h130q22 0 17 -32l-75 -370q-5 -27 -13.5 -35t-34.5 -8h-145q-25 0 -31 11.5t4 42.5z" />
<glyph unicode="&#x201d;" horiz-adv-x="705" d="M65 909l75 370q5 27 13.5 35t34.5 8h145q25 0 30.5 -11.5t-4.5 -42.5l-115 -361q-5 -19 -11 -24.5t-21 -5.5h-130q-22 0 -17 32zM361 909l75 370q5 27 13.5 35t34.5 8h145q25 0 30.5 -11.5t-4.5 -42.5l-115 -361q-5 -19 -11 -24.5t-21 -5.5h-130q-22 0 -17 32z" />
<glyph unicode="&#x201e;" horiz-adv-x="748" d="M28 -179l74 371q5 27 14 35t35 8h145q25 0 30.5 -11.5t-4.5 -42.5l-115 -362q-5 -19 -11 -24t-21 -5h-130q-22 0 -17 31zM378 -179l74 371q5 27 14 35t35 8h145q25 0 30.5 -11.5t-4.5 -42.5l-115 -362q-5 -19 -11 -24t-21 -5h-130q-22 0 -17 31z" />
<glyph unicode="&#x2022;" horiz-adv-x="554" d="M110 456q0 58 47.5 97t119.5 39q70 0 119 -39.5t49 -96.5q0 -56 -49.5 -96t-118.5 -40q-72 0 -119.5 40t-47.5 96z" />
<glyph unicode="&#x2026;" horiz-adv-x="1228" d="M71 91q0 42 33 70.5t80 28.5q48 0 82 -28.5t34 -70.5q0 -47 -33.5 -74.5t-82.5 -27.5t-81 27.5t-32 74.5zM501 91q0 42 32 70.5t81 28.5q46 0 80 -29t34 -70q0 -46 -33.5 -74t-80.5 -28q-50 0 -81.5 28t-31.5 74zM931 89q0 43 32.5 72t79.5 29t81 -29t34 -72 q0 -46 -33.5 -73t-81.5 -27q-49 0 -80.5 27t-31.5 73z" />
<glyph unicode="&#x202f;" horiz-adv-x="338" />
<glyph unicode="&#x2039;" horiz-adv-x="551" d="M50 493l302 399q1 2 4 5q11 14 20 6l102 -78q8 -8 7.5 -11t-7.5 -15l-223 -322l222 -313q11 -17 11.5 -22t-10.5 -14l-98 -72q-10 -7 -15.5 -5t-14.5 14l-298 387q-10 13 -10.5 19.5t8.5 21.5z" />
<glyph unicode="&#x203a;" horiz-adv-x="551" d="M71 128q-9 9 -8.5 14t10.5 22l223 313l-223 322q-8 11 -8.5 15t6.5 11l102 78q3 2 5 3t4 1t4 -2l3 -3t4 -5t4 -5l302 -399q11 -15 10.5 -21.5t-12.5 -19.5l-298 -387q-9 -12 -13 -14t-15 5z" />
<glyph unicode="&#x205f;" horiz-adv-x="423" />
<glyph unicode="&#x20ac;" horiz-adv-x="1228" d="M60 426l55 88q12 22 32 22h95q-4 40 -4 65h-167q-28 0 -11 23l55 87q13 24 32 24h93q18 294 151.5 440.5t375.5 146.5q95 0 189.5 -13t136.5 -30q17 -8 21.5 -18t4.5 -38v-344q0 -15 -3.5 -19t-15.5 -4h-128q-11 0 -15 4t-6 15l-33 251q-54 19 -143 19 q-124 0 -208 -101.5t-100 -308.5h430q22 0 24.5 -9.5t-7.5 -19.5l-67 -82q-17 -23 -41 -23h-341q0 -5 6 -65h298q39 0 17 -30l-65 -82q-17 -20 -43 -20h-179q22 -63 56.5 -109.5t77.5 -72t88.5 -37.5t95.5 -12q51 0 109.5 7t89 12.5t109.5 21.5q24 6 24 -24v-112 q0 -20 -6 -30.5t-24 -15.5q-139 -49 -343 -49q-219 0 -347 103t-170 318h-188q-16 0 -18 4.5t7 17.5z" />
<glyph unicode="&#x2122;" horiz-adv-x="1474" d="M99 1084v206q0 9 2.5 11t8.5 2h436q4 0 5.5 -0.5t2.5 -3.5t1 -9v-206q0 -19 -9 -19h-69q-13 0 -13 17l-6 65q-3 32 -20 32h-43v-498h2v-11q0 -32 7.5 -41.5t33.5 -12.5q11 -2 11 -20v-60q0 -15 -10 -15h-234q-10 0 -10 13v64q0 14 8 16q28 5 40.5 13.5t15.5 27.5v525h-43 q-16 0 -22 -33l-4 -65q-3 -17 -11 -17h-71q-9 0 -9 19zM577 1227v63q0 13 9 13h263q14 0 17 -8t7 -35q50 -376 104 -580h2q50 183 108 580q1 6 2.5 15.5t2.5 13t3.5 8t6.5 5.5t11 1h242q10 0 10 -13v-63q0 -14 -8 -17q-30 -5 -42 -15t-12 -31v-484q0 -62 26 -62q28 0 28 49 v3q0 8 6 8h37q6 0 6 -8v-3q0 -82 -28.5 -119.5t-85.5 -37.5q-127 0 -127 173v399q-26 -159 -62 -316t-66 -232q-6 -13 -17 -13h-119q-11 0 -17 13q-35 85 -73.5 244.5t-62.5 318.5v-430q0 -29 7.5 -38.5t33.5 -12.5q8 -1 10 -4.5t2 -15.5v-60q0 -15 -10 -15h-197 q-6 0 -7.5 2t-1.5 11v64q0 13 11 16q25 5 34 15.5t9 37.5v497q0 21 -12 31t-42 15q-8 2 -8 17z" />
<glyph unicode="&#xe000;" horiz-adv-x="865" d="M0 0v866h866v-866h-866z" />
</font>
</defs>
</svg>
