<?xml version="1.0" standalone="no"?>
<!DOCTYPE svg PUBLIC "-//W3C//DTD SVG 1.1//EN" "http://www.w3.org/Graphics/SVG/1.1/DTD/svg11.dtd" >
<svg xmlns="http://www.w3.org/2000/svg">
<metadata></metadata>
<defs>
<font id="quatie_cond_boldcond_bold" horiz-adv-x="1253" >
<font-face units-per-em="2048" ascent="1629" descent="-419" />
<missing-glyph horiz-adv-x="299" />
<glyph unicode="&#xfb01;" horiz-adv-x="1066" d="M58 22v119q0 10 0.5 14t4 7.5t10.5 5.5q53 11 71 25t20 45v434h-78q-23 0 -23 26v142q0 26 23 26h78v67q0 148 36 230t125 120.5t252 38.5q185 0 296 -49q24 -11 24 -54v-258v-9.5t-1.5 -5t-4 -4t-8.5 -0.5h-135q-16 0 -18 17l-32 132q-48 22 -121 22q-93 0 -120 -40.5 t-27 -152.5v-54h460q15 0 15 -30v-544q0 -65 11 -86.5t32 -21.5q33 0 33 45q0 17 4.5 24.5t19.5 7.5h45q17 0 21.5 -7.5t4.5 -33.5q0 -231 -205 -231q-234 0 -234 303v315q-3 38 -24 51.5t-84 13.5h-99v-411q0 -49 24 -66t101 -24q11 -1 15.5 -4.5t5.5 -9t1 -19.5v-112v-13 t-1.5 -7t-5.5 -5t-11 -1h-483q-11 0 -14.5 4t-3.5 18z" />
<glyph unicode="&#xfb02;" horiz-adv-x="1098" d="M58 22v119q0 15 2.5 19.5t12.5 7.5q53 12 72 27.5t19 53.5v423h-78q-23 0 -23 26v142q0 26 23 26h78v69q0 93 20.5 162t54.5 111.5t86 68.5t108 35.5t127 9.5q118 0 193 -22.5t154 -74.5q31 -22 31 -65v-868q0 -45 6.5 -70t15 -31.5t21.5 -6.5q34 0 34 45q0 17 4.5 24.5 t19.5 7.5h46q16 0 20.5 -7.5t4.5 -33.5q0 -231 -203 -231q-230 0 -235 287v396h-242v-417q0 -47 16 -61t66 -23q16 -3 19 -7.5t3 -25.5v-112q0 -9 -0.5 -12.5t-2 -7.5t-5.5 -5t-12 -1h-438q-11 0 -14.5 4t-3.5 18zM430 866h242v212q-54 34 -119 34q-77 0 -100 -44.5 t-23 -153.5v-48z" />
<glyph unicode="&#xfb03;" horiz-adv-x="1580" d="M58 22v119q0 15 2.5 19.5t12.5 7.5q53 12 72 27t19 54v423h-78q-23 0 -23 26v142q0 26 23 26h78v37q0 357 337 357q89 0 139 -9.5t103 -38.5q45 58 129 84t221 26q95 0 173.5 -15t120.5 -34q15 -7 20.5 -18.5t5.5 -35.5v-258q0 -12 -2.5 -15.5t-14.5 -3.5h-134 q-13 0 -18 17l-30 132q-48 22 -121 22q-93 0 -120 -40.5t-27 -152.5v-54h458q17 0 17 -30v-544q0 -45 6 -70t14 -31.5t21 -6.5q20 0 26.5 11t6.5 34q0 17 4.5 24.5t19.5 7.5h47q16 0 21 -7.5t5 -33.5q0 -231 -205 -231q-235 0 -235 303v311q-2 39 -19.5 53.5t-69.5 15.5 h-117v-426q3 -40 28 -55t97 -20q11 -1 15.5 -4.5t5.5 -9t1 -19.5v-112q0 -9 -0.5 -12.5t-2 -7.5t-5.5 -5t-11 -1h-482q-13 0 -16 4t-3 18v119q0 10 0.5 14t4 7.5t10.5 5.5q47 10 66 21.5t24 33.5v449h-248v-411q0 -51 16 -66t66 -24q16 -3 19 -7.5t3 -25.5v-112 q0 -9 -0.5 -12.5t-2 -7.5t-5.5 -5t-12 -1h-438q-11 0 -14.5 4t-3.5 18zM430 866h248v67q0 56 2 82q-59 35 -129 35q-76 0 -98.5 -34.5t-22.5 -121.5v-28z" />
<glyph unicode="&#xfb04;" horiz-adv-x="1634" d="M58 22v119q0 15 2.5 19.5t12.5 7.5q53 12 72 27t19 54v423h-78q-23 0 -23 26v142q0 26 23 26h78v37q0 339 339 339q88 0 141.5 -11.5t113.5 -46.5q88 138 339 138q119 0 193.5 -22.5t152.5 -74.5q33 -22 33 -65v-868q0 -45 6 -70t14 -31.5t21 -6.5q20 0 27 11t7 34 q0 17 4.5 24.5t19.5 7.5h47q16 0 21 -7.5t5 -33.5q0 -231 -205 -231q-235 0 -235 303v380h-242v-417q0 -47 16 -61t66 -23q17 -3 20 -7.5t3 -25.5v-112q0 -16 -3.5 -21t-17.5 -5h-437q-12 0 -15.5 4t-3.5 18v119q0 15 2.5 19.5t12.5 7.5q53 12 72 27.5t19 53.5v423h-270 v-411q0 -51 16 -66t66 -24q16 -3 19 -7.5t3 -25.5v-112q0 -9 -0.5 -12.5t-2 -7.5t-5.5 -5t-12 -1h-438q-11 0 -14.5 4t-3.5 18zM430 866h270v117q-74 48 -149 48q-78 0 -99.5 -29.5t-21.5 -107.5v-28zM966 866h242v212q-53 34 -119 34q-77 0 -100 -44.5t-23 -153.5v-48z" />
<glyph horiz-adv-x="2048" />
<glyph horiz-adv-x="2048" />
<glyph unicode="&#xd;" horiz-adv-x="2048" />
<glyph unicode=" "  horiz-adv-x="299" />
<glyph unicode="&#x09;" horiz-adv-x="299" />
<glyph unicode="&#xa0;" horiz-adv-x="299" />
<glyph unicode="!" horiz-adv-x="463" d="M88 147q0 67 42 113.5t103 46.5q58 0 100.5 -47t42.5 -113q0 -72 -42 -115t-101 -43q-63 0 -104 42.5t-41 115.5zM97 1322q-1 17 7 23.5t24 6.5h202q23 0 33 -6t9 -26l-41 -929q-2 -30 -39 -30h-134q-29 0 -31 30z" />
<glyph unicode="&#x22;" horiz-adv-x="735" d="M74 862v436q0 13 3 16.5t14 3.5h231q8 0 12.5 -1t6.5 -5t2.5 -7.5t0.5 -12.5v-434q0 -22 -16 -22h-231q-16 0 -19.5 5t-3.5 21zM393 862v436q0 14 2.5 17t14.5 3h229q8 0 12.5 -1t6.5 -5t2.5 -7.5t0.5 -12.5v-434q0 -12 -3 -17t-14 -5h-229q-8 0 -12.5 1t-6.5 5t-2.5 7.5 t-0.5 12.5z" />
<glyph unicode="#" horiz-adv-x="1042" d="M47 380v173h208l26 218h-179v173h216l60 369h210l-61 -369h115l60 369h208l-57 -369h143v-173h-182l-28 -218h149v-173h-188l-58 -380h-209l58 380h-114l-59 -380h-205l56 380h-169zM465 553h110l28 218h-115z" />
<glyph unicode="$" horiz-adv-x="988" d="M63 95v328q0 21 6.5 27t27.5 6h156q15 0 20.5 -5.5t7.5 -20.5l26 -182q14 -6 64.5 -13.5t103.5 -7.5q23 0 43.5 2.5t46 11t44 22.5t31.5 40.5t13 61.5q0 42 -19.5 72t-52.5 48t-76 31.5t-90.5 26.5t-94.5 29t-90 42.5t-76 63t-52.5 95t-19.5 134.5q0 123 27 205.5t83 127 t128 62.5t177 18q247 0 356 -58q21 -13 26 -21.5t5 -32.5v-307q0 -12 -1.5 -19t-7 -10t-9.5 -3.5t-15 -0.5h-155q-15 0 -19 4t-7 18l-24 179q-31 18 -149 18q-141 0 -141 -119q0 -47 31.5 -76t82 -44t111.5 -29t121.5 -39t111 -64.5t82 -115.5t31.5 -183 q0 -105 -22.5 -183.5t-60 -126t-94.5 -76.5t-118 -39.5t-140 -10.5q-108 0 -228.5 17t-164.5 41q-36 17 -36 56zM359 -382l25 289q1 9 1.5 12.5t3 7.5t7 5t12.5 1h169q6 0 9 -1t4.5 -5t2 -6t1.5 -10l24 -293q2 -14 0.5 -18t-9.5 -4h-238q-15 0 -12 22zM374 1692q0 9 0.5 13 t3.5 7t9 3h235q9 0 11 -3.5t2 -19.5l-26 -292q-1 -8 -1.5 -10t-2.5 -6t-5.5 -5t-9.5 -1h-169q-10 0 -14.5 3t-6 7.5t-2.5 15.5z" />
<glyph unicode="%" horiz-adv-x="1897" d="M43 931q0 80 22 148.5t66.5 124.5t121 88t177.5 32q100 0 177 -32t122 -88t67.5 -124.5t22.5 -148.5t-22.5 -149.5t-67.5 -126t-122 -89t-177 -32.5q-101 0 -177.5 32.5t-121 89t-66.5 125.5t-22 150zM313 931q0 -103 31 -159.5t86 -56.5q56 0 86.5 56.5t30.5 159.5 q0 101 -29.5 156.5t-87.5 55.5q-57 0 -87 -55t-30 -157zM445 2q0 19 24 59l674 1211q18 34 34.5 44t45.5 10h201q17 0 25.5 -4t7.5 -19t-16 -44l-678 -1216q-23 -42 -43 -52.5t-65 -10.5h-147q-36 0 -49.5 4t-13.5 18zM1076 378q0 80 22 148.5t66.5 124.5t121.5 88t179 32 q100 0 177 -32t122 -88t67.5 -124.5t22.5 -148.5t-22.5 -149.5t-67.5 -126t-122 -89t-177 -32.5q-102 0 -179 32.5t-121.5 89t-66.5 125.5t-22 150zM1348 378q0 -103 30.5 -159.5t86.5 -56.5q55 0 86.5 56.5t31.5 159.5q0 100 -30.5 156t-87.5 56t-87 -55t-30 -157z" />
<glyph unicode="&#x26;" horiz-adv-x="1184" d="M61 343q0 64 10 116.5t25 86t36 58.5t39.5 37.5t38.5 19.5q-58 23 -86.5 106t-28.5 197q0 106 23 178.5t68 110.5t98 53.5t124 15.5q83 0 162.5 -17t109.5 -35q12 -8 15 -19.5t3 -40.5v-303q0 -17 -1.5 -20t-9.5 -3h-151q-12 0 -17 19l-37 186q-29 9 -48 9q-15 0 -27 -5 t-25.5 -21t-21.5 -53t-8 -94q0 -102 27 -137.5t79 -35.5h253l127 289q10 26 28 26h82q16 0 16 -28v-285h155q7 0 13 -7.5t6 -20.5v-141q0 -28 -19 -28h-155v-250q0 -75 10.5 -102.5t34.5 -27.5q25 0 34.5 20.5t14.5 66.5q3 16 5.5 21t8.5 5h49q18 0 18 -27q0 -282 -216 -282 q-94 0 -152 58q-63 -21 -161.5 -39.5t-194.5 -18.5q-59 0 -106.5 8t-95 32t-80 62.5t-52.5 105t-20 154.5zM363 391q0 -97 32 -133t97 -36q87 0 206 39v296h-240q-46 0 -70.5 -38.5t-24.5 -127.5z" />
<glyph unicode="'" horiz-adv-x="418" d="M74 862v421q0 13 3 16.5t14 3.5h231q8 0 12.5 -1t6.5 -5t2.5 -7.5t0.5 -12.5v-419q0 -22 -16 -22h-231q-16 0 -19.5 5t-3.5 21z" />
<glyph unicode="(" horiz-adv-x="519" d="M41 557q0 207 79 420t219 371q12 16 24 6l114 -95q10 -12 9.5 -16.5t-8.5 -19.5q-70 -134 -107.5 -317.5t-37.5 -358.5q0 -101 5.5 -184t20 -177t45 -176t76.5 -144q11 -13 -3 -30l-108 -104q-13 -11 -25 7q-144 163 -223.5 383t-79.5 435z" />
<glyph unicode=")" horiz-adv-x="517" d="M37 -134q46 62 76.5 144t45 176t20 177t5.5 184q0 175 -37.5 358.5t-107.5 317.5q-8 15 -8 19.5t10 16.5l114 95q12 10 24 -6q140 -158 219 -371t79 -420q0 -214 -79.5 -434t-222.5 -384q-7 -9 -10.5 -11t-15.5 4l-110 104q-12 18 -2 30z" />
<glyph unicode="*" horiz-adv-x="772" d="M48 1000l64 165q6 13 16 6l179 -106l-56 223q-2 10 0 12.5t10 2.5h249q9 0 10 -3t-1 -13l-57 -222l177 104q8 3 8.5 2.5t4.5 -7.5l72 -164q5 -10 4 -12t-9 -3l-220 -28l160 -145q10 -9 10 -11q1 -3 -6 -8l-190 -123q-7 -6 -13 8l-76 206l-75 -203q-4 -9 -7.5 -9.5 t-11.5 4.5l-184 115q-8 7 2 17l160 149l-208 28q-1 0 -5.5 0.5t-5.5 1t-2.5 2t-1 4.5t2.5 7z" />
<glyph unicode="+" horiz-adv-x="822" d="M43 384v191h281v347h177v-347h277v-191h-277v-347h-177v347h-281z" />
<glyph unicode="," horiz-adv-x="431" d="M15 -168l74 393q5 32 15.5 41.5t42.5 9.5h194q30 0 36.5 -13t-5.5 -49l-126 -385q-7 -22 -13.5 -28t-23.5 -6h-175q-24 0 -19 37z" />
<glyph unicode="-" horiz-adv-x="647" d="M74 449v147q0 31 21 31h460q20 0 20 -33v-130q0 -21 -4.5 -30.5t-19.5 -9.5h-458q-19 0 -19 25z" />
<glyph unicode="." horiz-adv-x="385" d="M48 147q0 67 42.5 113.5t103.5 46.5q58 0 100.5 -47t42.5 -113q0 -72 -42 -115t-101 -43q-63 0 -104.5 43t-41.5 115z" />
<glyph unicode="/" horiz-adv-x="850" d="M34 -97l489 1460q9 20 19 20h249q31 0 23 -26l-484 -1454q-3 -10 -9.5 -15t-12 -6t-18.5 -1h-245q-8 0 -11.5 5.5t0.5 16.5z" />
<glyph unicode="0" horiz-adv-x="1031" d="M52 652q0 147 28 267.5t83.5 211.5t145.5 141t207 50t206.5 -50t144.5 -141t82.5 -211.5t27.5 -267.5q0 -148 -27.5 -268.5t-82.5 -211.5t-144.5 -141t-206.5 -50t-207 50t-145.5 141t-83.5 211.5t-28 268.5zM359 655q0 -209 41 -329.5t116 -120.5t115.5 120.5 t40.5 329.5q0 207 -40.5 325t-115.5 118t-116 -118t-41 -325z" />
<glyph unicode="1" horiz-adv-x="670" d="M48 22v119q0 10 0.5 14t4 7.5t10.5 5.5q42 9 58.5 13t43.5 13.5t38.5 21t12.5 26.5v775q0 28 -35 7l-93 -58q-15 -9 -22.5 -2t-7.5 26v142q0 14 4 20t16 13l183 114q53 28 117 28h84q20 0 27.5 -7t7.5 -25v-1027q4 -37 36.5 -54t88.5 -23q16 -3 19 -8.5t3 -24.5v-112 q0 -16 -3 -21t-17 -5h-557q-12 0 -15.5 4t-3.5 18z" />
<glyph unicode="2" horiz-adv-x="929" d="M61 19v201q0 19 8 31q84 64 148 120.5t125.5 126t101.5 137.5t64 148.5t24 164.5q0 81 -30 110t-83 29q-50 0 -102 -22l-43 -227q-3 -13 -6 -16t-15 -3h-156q-13 0 -15 3t-2 20v364q0 27 5 39t21 17q195 60 335 60q45 0 80 -2.5t77 -11t73.5 -23.5t62.5 -41t51 -62 t32 -89t12 -119q0 -197 -102.5 -383t-303.5 -345h193q18 0 28 19.5t19 64.5l9 83q5 24 11 27q4 3 13 3h127q23 0 28 -8t5 -44v-371q0 -14 -3 -17t-17 -3h-760q-15 0 -15 19z" />
<glyph unicode="3" horiz-adv-x="906" d="M54 67v194q0 17 6 23t20 3q12 -3 59.5 -18t98.5 -24.5t112 -9.5q196 0 196 162q0 82 -33.5 115.5t-93.5 33.5h-75q-16 0 -16 27v185q0 11 9 28l169 285h-176q-17 0 -26 -15t-15 -73l-10 -106q0 -1 -1 -5t-1 -5t-1 -4t-1.5 -4l-1.5 -3t-2 -2.5t-2.5 -2t-3.5 -1.5 t-4.5 -0.5t-5.5 -0.5h-125q-23 0 -28 5.5t-5 31.5v382q0 22 6.5 28.5t26.5 6.5h669q12 0 14 -5t2 -23v-150q0 -9 -0.5 -15t-0.5 -10t-2.5 -9l-3.5 -7t-6 -9.5t-7 -11.5l-199 -300h30q62 0 105 -24.5t67 -72.5t34.5 -109.5t10.5 -143.5q0 -102 -28 -180.5t-71 -125t-102 -76 t-114 -40t-113 -10.5q-218 0 -344 51q-17 6 -17 35z" />
<glyph unicode="4" horiz-adv-x="929" d="M22 331l106 929q3 28 10 35.5t33 7.5h190q18 0 24.5 -7t5.5 -28l-78 -722h139v592q0 29 5 35t27 6h201q20 0 26 -6.5t6 -21.5v-605h128q17 0 17 -27v-193q0 -12 -3 -14.5t-14 -2.5h-128v-20v-41.5t4.5 -28t9.5 -20.5t20.5 -12t31 -10t47.5 -9q12 -1 14.5 -7t2.5 -23v-118 q0 -9 -0.5 -12.5t-4 -5.5t-10.5 -2h-566q-10 0 -13.5 4t-3.5 15v122q0 19 12 23q59 13 88 20.5t54 16t33 19.5t12 23t4 34v32h-413q-12 0 -14.5 4t-2.5 18z" />
<glyph unicode="5" horiz-adv-x="886" d="M52 71v178q0 35 28 27q12 -3 56 -19.5t90 -26.5t102 -10q98 0 145.5 37.5t47.5 142.5q0 109 -48.5 149.5t-137.5 40.5h-234q-20 0 -17 28l52 657q1 4 1.5 9.5t1 7.5t1 5t2 4t4.5 1.5t7 0.5h603q20 0 26.5 -6.5t6.5 -28.5v-335q0 -38 -5 -46t-26 -8h-127q-12 0 -15 6 t-7 24l-8 76q-4 40 -11 59.5t-12.5 23t-17.5 3.5h-199l-18 -261h37q97 0 164 -10t123 -36.5t88.5 -72.5t50 -117t17.5 -172q0 -103 -28 -180.5t-70.5 -122t-102 -72.5t-113.5 -37t-114 -9q-199 0 -326 53q-17 8 -17 37z" />
<glyph unicode="6" horiz-adv-x="938" d="M52 508q0 173 41.5 318.5t123.5 257.5t216.5 175t309.5 63h11q21 0 28 -9t7 -32v-142q0 -26 -7.5 -36t-29.5 -10h-9q-284 0 -361 -345q78 95 182 95q92 0 160 -33.5t106.5 -92.5t56.5 -130.5t18 -156.5q0 -208 -108 -328.5t-320 -120.5q-223 0 -324 131.5t-101 395.5z M352 430q0 -235 125 -235q60 0 98 56t38 159q0 102 -34 160.5t-104 58.5q-117 0 -123 -199z" />
<glyph unicode="7" horiz-adv-x="852" d="M56 853v430q0 14 3 17t15 3h745q14 0 17.5 -5.5t3.5 -22.5v-186q0 -18 -13 -46l-440 -993q-16 -35 -27.5 -42.5t-48.5 -7.5h-201q-23 0 -28 8.5t7 34.5l451 1013h-276l-28 -207q-1 -13 -2 -17.5t-5.5 -8.5t-14.5 -4h-140q-12 0 -15 8t-3 26z" />
<glyph unicode="8" horiz-adv-x="953" d="M45 384q0 123 53 221t166 145q-139 74 -139 254q0 61 19 115.5t59 101t111 74t166 27.5q92 0 162 -27.5t110 -74t59 -101t19 -115.5q0 -180 -139 -254q112 -48 165 -145.5t53 -219.5q0 -77 -23.5 -145.5t-72 -127t-135 -93t-201.5 -34.5q-116 0 -203 34.5t-135 93.5 t-71 127t-23 144zM331 400q0 -88 35.5 -142.5t110.5 -54.5t111 55t36 144t-36.5 148t-109.5 59q-76 0 -111.5 -59t-35.5 -150zM371 985q0 -147 107 -147q55 0 81.5 40.5t26.5 108.5q0 64 -26 103.5t-80 39.5q-109 0 -109 -145z" />
<glyph unicode="9" horiz-adv-x="930" d="M47 875q0 207 106 327t316 120q410 0 410 -521q0 -177 -43.5 -324.5t-130 -259t-227 -174t-322.5 -62.5h-11q-22 0 -29.5 9t-7.5 32v142q0 25 8.5 35.5t30.5 10.5h9q140 0 240.5 76.5t149.5 232.5q-71 -59 -164 -59q-91 0 -158.5 34.5t-104.5 94.5t-54.5 131t-17.5 155z M339 879q0 -99 28.5 -152t99.5 -53q49 0 76 34.5t42 105.5h1v18q0 139 -28 207.5t-93 68.5q-126 0 -126 -229z" />
<glyph unicode=":" horiz-adv-x="415" d="M61 140q0 67 42.5 113.5t103.5 46.5q58 0 100.5 -47t42.5 -113q0 -72 -42 -115.5t-101 -43.5q-63 0 -104.5 43t-41.5 116zM61 707q0 67 42.5 114t103.5 47q58 0 100.5 -47.5t42.5 -113.5q0 -72 -42 -115t-101 -43q-63 0 -104.5 43t-41.5 115z" />
<glyph unicode=";" horiz-adv-x="450" d="M4 -168l74 393q5 32 15.5 41.5t42.5 9.5h194q30 0 36.5 -13t-5.5 -49l-126 -385q-7 -22 -14 -28t-24 -6h-175q-12 0 -16.5 8t-1.5 29zM110 724q0 67 42 113.5t103 46.5q58 0 100.5 -47t42.5 -113q0 -72 -42 -115t-101 -43q-63 0 -104 42.5t-41 115.5z" />
<glyph unicode="&#x3c;" horiz-adv-x="839" d="M43 385v183l726 357v-225l-395 -223l395 -226v-221z" />
<glyph unicode="=" horiz-adv-x="789" d="M74 166v195h637v-195h-637zM76 518v189h635v-189h-635z" />
<glyph unicode="&#x3e;" horiz-adv-x="837" d="M69 30v208l395 239l-395 238v207l726 -356v-179z" />
<glyph unicode="?" horiz-adv-x="819" d="M48 901v307q0 24 5 32.5t25 21.5q17 12 47.5 23t109 23t182.5 12q94 0 157.5 -16.5t112 -58.5t71 -118t22.5 -191q0 -74 -14 -126t-37 -79t-50 -46t-54.5 -35.5t-50.5 -38.5t-37 -64t-14 -104v-76q0 -12 -7.5 -19t-16.5 -7l-233 -2q-20 0 -20 30v123q0 87 14 149t37 94.5 t50 53t54.5 33.5t50.5 28t37 44t14 74q0 119 -103 119q-102 0 -115 -18l-22 -179q-3 -14 -7.5 -18t-19.5 -4h-154q-15 0 -20.5 1t-9.5 8.5t-4 23.5zM249 147q0 67 41 113.5t101 46.5q57 0 99 -47t42 -113q0 -72 -41 -115t-100 -43q-62 0 -102 42.5t-40 115.5z" />
<glyph unicode="@" horiz-adv-x="1338" d="M56 592q0 167 54 301.5t147.5 219.5t214.5 130t258 45q166 0 294.5 -71.5t198 -196.5t69.5 -283q0 -79 -12 -147.5t-39 -129.5t-67.5 -104t-101 -68t-136.5 -25q-62 0 -108.5 25.5t-64.5 68.5q-78 -94 -180 -94q-92 0 -154 79.5t-62 216.5q0 78 22.5 152t65 137t113 101 t158.5 38q66 0 116 -22t78.5 -60.5t42.5 -84.5t14 -99q0 -59 -20.5 -139.5t-20.5 -82.5q-11 -69 30 -69q49 0 88 91.5t39 206.5q0 180 -105.5 291t-261.5 111q-209 0 -339 -138.5t-130 -397.5q0 -252 126 -384t334 -132q115 0 201.5 19.5t176.5 73.5q17 10 24 -11l39 -97 q10 -23 -9 -33q-175 -110 -432 -110q-141 0 -261 44t-209.5 127t-140 211.5t-50.5 289.5zM559 570q0 -69 21 -109t60 -40q42 0 77.5 48t53.5 110.5t18 116.5q0 134 -76 134q-67 0 -110.5 -79.5t-43.5 -180.5z" />
<glyph unicode="A" horiz-adv-x="1187" d="M4 22v119q0 25 15 25q59 16 82.5 32.5t23.5 47.5v100q0 219 26 395.5t79 308.5t138 204t198 72q253 0 376 -244t123 -736v-87q0 -48 15 -64.5t65 -23.5q11 -1 15.5 -4.5t5.5 -9t1 -19.5v-112q0 -16 -3 -21t-15 -5h-494q-11 0 -14.5 4t-3.5 18v119q0 10 0.5 14t4 7.5 t10.5 5.5q56 11 80.5 27t27.5 43v146h-412v-125q0 -48 15 -64.5t65 -23.5q16 -1 19.5 -7.5t3.5 -25.5v-112q0 -16 -3.5 -21t-17.5 -5h-408q-7 0 -10.5 0.5t-5.5 4t-2 6v11.5zM359 620h389q-20 219 -70 341.5t-125 122.5q-72 0 -123 -123.5t-71 -340.5z" />
<glyph unicode="B" horiz-adv-x="1079" d="M50 22v119q0 10 0.5 14t4 7.5t10.5 5.5q60 13 83 29.5t23 48.5v815q0 30 -22.5 45t-83.5 30q-11 3 -13 6.5t-2 17.5v121q0 14 3.5 18t15.5 4h450q217 0 327.5 -80t110.5 -253q0 -215 -123 -266q116 -21 160.5 -102t44.5 -230q0 -88 -27.5 -155.5t-72 -107.5t-110 -65.5 t-132 -34.5t-146.5 -9h-482q-12 0 -15.5 4t-3.5 18zM452 203h138q93 0 125.5 41.5t32.5 122.5q0 41 -5 68.5t-20 54.5t-47 40.5t-82 13.5h-142v-341zM452 758h73q98 0 130 42.5t32 128.5q0 90 -32.5 130.5t-118.5 40.5h-84v-342z" />
<glyph unicode="C" horiz-adv-x="1046" d="M50 648q0 674 546 674q98 0 205.5 -15t144.5 -32q17 -8 21.5 -19.5t4.5 -39.5v-376q0 -15 -3.5 -19t-15.5 -4h-169q-11 0 -15.5 4t-7.5 15l-40 248q-50 14 -116 14q-50 0 -95 -25t-83.5 -76.5t-61 -142.5t-22.5 -212q0 -98 21.5 -174t55 -120.5t78.5 -73.5t86.5 -39 t85.5 -10q33 0 62 1.5t66.5 7t53 7.5t66 11.5t61.5 11.5q14 3 20 -5t6 -24v-151q0 -42 -29 -52q-126 -49 -363 -49q-283 0 -423 163.5t-140 501.5z" />
<glyph unicode="D" horiz-adv-x="1239" d="M50 22v119q0 10 0.5 14t4 7.5t10.5 5.5q56 11 79.5 26.5t26.5 43.5v823q0 30 -22.5 45t-83.5 30q-11 3 -13 6.5t-2 17.5v121q0 14 3.5 18t15.5 4h521q169 0 286.5 -44t184.5 -131.5t96 -203t29 -274.5q0 -168 -29 -285t-96.5 -201t-182.5 -124t-284 -40h-525 q-12 0 -15.5 4t-3.5 18zM467 214h119q138 0 215.5 107.5t77.5 324.5q0 220 -76.5 329.5t-217.5 109.5h-118v-871z" />
<glyph unicode="E" horiz-adv-x="955" d="M45 344q0 67 14.5 120t35.5 85t52.5 56t56.5 35.5t57 20.5q-168 46 -168 315q0 83 20.5 144.5t54.5 99.5t86.5 61.5t108.5 32t127 8.5q112 0 191.5 -12.5t163.5 -41.5q17 -6 21.5 -17t4.5 -41v-303q0 -16 -3 -19.5t-13 -3.5h-146q-8 0 -11.5 3.5t-6.5 15.5l-43 181 q-52 14 -134 14q-32 0 -55 -4.5t-47.5 -18.5t-37.5 -45t-13 -79q0 -103 43.5 -137t137.5 -34h84q22 0 22 -26v-169q0 -26 -22 -26h-84q-89 0 -137.5 -39t-48.5 -133q0 -93 55.5 -129t171.5 -36q92 0 206 20.5t118 20.5q18 0 18 -25v-188q0 -15 -4 -20t-18 -8 q-207 -41 -438 -41q-420 0 -420 363z" />
<glyph unicode="F" horiz-adv-x="964" d="M52 22v119q0 10 0.5 14t4 7.5t10.5 5.5q61 13 83.5 29.5t22.5 51.5v809q0 32 -23 48.5t-83 29.5q-11 3 -13 7.5t-2 18.5v119q0 14 3.5 18t15.5 4h843q9 0 12.5 -1t6 -5t2.5 -14v-406q0 -32 -21 -32h-141q-13 0 -17 6t-6 22l-9 147q-5 59 -12.5 70.5t-32.5 11.5h-244v-363 h235q12 0 17 -4t5 -18v-177q0 -19 -4 -25.5t-18 -6.5h-235v-247q0 -48 26.5 -65t113.5 -25q11 0 15.5 -4t5.5 -9.5t1 -19.5v-112v-13t-1.5 -7t-5.5 -5t-11 -1h-525q-12 0 -15.5 4t-3.5 18z" />
<glyph unicode="G" horiz-adv-x="1178" d="M47 631q0 336 155.5 513.5t434.5 177.5q124 0 212.5 -16.5t209.5 -58.5q17 -6 22.5 -19.5t5.5 -43.5v-363q0 -15 -2.5 -18.5t-15.5 -3.5h-172q-13 0 -16 2.5t-6 15.5l-41 242q-81 32 -173 32q-64 0 -115.5 -24.5t-92.5 -76.5t-63.5 -141.5t-22.5 -211.5q0 -217 81.5 -322 t218.5 -105q90 0 154 32v207h-143q-23 0 -23 28v176q0 28 23 28h387q22 0 22 -28v-539q0 -42 -29 -51q-117 -46 -203.5 -64t-197.5 -18q-305 0 -457.5 165t-152.5 485z" />
<glyph unicode="H" horiz-adv-x="1275" d="M47 22v119v11t1.5 6.5t4 6.5t8.5 3q57 12 80.5 27.5t26.5 46.5v801q0 49 -15 65.5t-67 23.5q-16 1 -19.5 7.5t-3.5 25.5v112q0 16 3.5 21t17.5 5h467q11 0 14 -4t3 -18v-119q0 -14 -2 -18.5t-13 -7.5q-58 -13 -81.5 -28.5t-24.5 -46.5v-415h350v397q0 49 -15 65.5 t-65 23.5q-16 1 -19.5 7.5t-3.5 25.5v112q0 16 3.5 21t15.5 5h467q12 0 15.5 -4t3.5 -18v-119q0 -14 -2 -18.5t-13 -7.5q-58 -13 -81.5 -28.5t-24.5 -46.5v-778q0 -97 52 -97q54 0 54 73v7q0 15 11 15h69q13 0 13 -13v-7q0 -143 -56 -206.5t-169 -63.5q-255 0 -255 299v136 h-350v-165q0 -49 15.5 -66t66.5 -24q11 -1 15.5 -4.5t5.5 -9t1 -19.5v-112q0 -16 -3 -21t-17 -5h-466q-12 0 -15 3.5t-3 18.5z" />
<glyph unicode="I" horiz-adv-x="619" d="M48 22v119q0 10 0.5 14t4 7.5t10.5 5.5q60 13 83 29.5t23 51.5v30h2v777q-1 40 -18 54.5t-64 21.5q-11 1 -15.5 4.5t-5.5 9t-1 19.5v112q0 16 3.5 21t17.5 5h467q10 0 13.5 -4t3.5 -18v-119q0 -14 -2 -18.5t-13 -7.5q-58 -13 -81.5 -28.5t-24.5 -46.5v-834 q4 -28 21 -39.5t59 -16.5q11 -1 15.5 -4.5t5.5 -9t1 -19.5v-112q0 -16 -3.5 -21t-17.5 -5h-465q-13 0 -16 4t-3 18z" />
<glyph unicode="J" horiz-adv-x="595" d="M-13 -220q-9 25 17 45l72 61q40 33 55.5 56t22 66t6.5 137v898q0 48 -15.5 65t-66.5 24q-11 1 -15.5 4.5t-5.5 9t-1 19.5v112q0 16 3 21t17 5h466q11 0 14.5 -4t3.5 -18v-119q0 -11 -0.5 -14t-3.5 -6.5t-10 -5.5q-61 -13 -84 -30t-23 -52v-1002q0 -48 -2 -75t-11 -57.5 t-24.5 -49.5t-46 -44t-71.5 -48t-105 -55l-121 -60q-11 -5 -17 -2t-11 17z" />
<glyph unicode="K" horiz-adv-x="1122" d="M47 22v119v11t1.5 6.5t4 6.5t8.5 3q60 13 83.5 29.5t23.5 51.5v794q0 49 -15 65.5t-67 23.5q-16 1 -19.5 7.5t-3.5 25.5v112q0 16 3.5 21t17.5 5h467q11 0 14 -4t3 -18v-119q0 -14 -2 -18.5t-13 -7.5q-58 -13 -81.5 -28.5t-24.5 -46.5v-378l221 345h-13l12 22 q18 36 18 50q0 26 -45 32q-15 3 -18.5 9t-3.5 24v112q0 16 3.5 21t15.5 5h439q10 0 13.5 -4t3.5 -18v-119q0 -14 -2 -18.5t-13 -7.5q-44 -10 -65 -23l-276 -450h-2l187 -371q32 -65 54 -89t55 -24q1 0 47 7q1 0 3 1q21 0 23 -10l2 -134q0 -21 -3.5 -28.5t-17.5 -12.5 q-55 -21 -145 -21q-64 0 -105.5 11t-75 49t-51.5 70.5t-56 113.5q-1 3 -2 4l-203 408v-376q0 -49 15.5 -66t66.5 -24q11 -1 15.5 -4.5t5.5 -9t1 -19.5v-112q0 -16 -3 -21t-17 -5h-466q-12 0 -15 3.5t-3 18.5z" />
<glyph unicode="L" horiz-adv-x="983" d="M47 22v119v11t1.5 6.5t4 6.5t8.5 3q55 11 79.5 27t27.5 43v805q0 49 -15 65.5t-67 23.5q-16 1 -19.5 7.5t-3.5 25.5v112q0 16 3.5 21t17.5 5h467q11 0 14 -4t3 -18v-119q0 -14 -2 -18.5t-13 -7.5q-60 -13 -83 -30t-23 -52v-821l272 -2q17 0 26 18.5t18 65.5l10 83 q1 3 2 7.5t1.5 6.5t1.5 5t2 4.5t2.5 3t3.5 2t4.5 1t6.5 0.5h141q19 0 19 -35v-373q0 -14 -3.5 -17t-15.5 -3h-873q-11 0 -14.5 4t-3.5 18z" />
<glyph unicode="M" horiz-adv-x="1701" d="M48 1162v119q0 14 3.5 18t13.5 4h531q27 0 34.5 -12.5t12.5 -48.5q1 -6 1 -9q93 -585 205 -941h4q149 487 218 941q1 8 3.5 21.5t3.5 18.5t4 12.5t7.5 10t12 5t19.5 2.5h488q11 0 13.5 -3.5t2.5 -18.5v-119q0 -13 -2.5 -18t-12.5 -8q-59 -13 -82.5 -30t-23.5 -48v-775 q0 -97 52 -97q54 0 54 73v7q0 15 12 15h69q14 0 14 -13v-7q0 -143 -56 -206.5t-171 -63.5q-255 0 -255 299v617q-48 -252 -119 -501t-136 -386q-8 -20 -33 -20h-241q-22 0 -33 20q-71 145 -147 403.5t-121 516.5v-683q0 -46 15 -62.5t63 -23.5q16 -1 20 -7.5t4 -25.5v-112 q0 -16 -3 -21t-17 -5h-393q-14 0 -16.5 3.5t-2.5 18.5v119q0 14 4.5 19t16.5 8q50 12 67.5 29t17.5 60v801q0 31 -23 47t-83 31q-11 3 -13 7.5t-2 18.5z" />
<glyph unicode="N" horiz-adv-x="1258" d="M48 1162v119q0 14 3.5 18t15.5 4h296q29 0 50 -33l473 -801v589q0 31 -23.5 48t-82.5 30q-11 3 -13 7.5t-2 18.5v119q0 14 3.5 18t15.5 4h409q13 0 16 -4.5t3 -21.5v-112q0 -25 -5 -29q-4 -3 -15 -4q-48 -7 -65 -22.5t-17 -53.5v-1013q0 -43 -25 -43h-169q-31 0 -47 24 l-478 793v-558q0 -47 15.5 -64t64.5 -24q11 -1 15.5 -4.5t5.5 -9t1 -19.5v-112v-13t-1.5 -7t-5.5 -5t-11 -1h-395q-12 0 -14.5 3.5t-2.5 18.5v119q0 22 19 27q50 12 68 29t18 60v814q0 24 -25.5 38t-79.5 27q-11 3 -13 7.5t-2 18.5z" />
<glyph unicode="O" d="M47 652q0 147 35 267.5t105 211.5t182 141t257 50q146 0 258 -50t182 -141t105 -211.5t35 -267.5t-35 -268.5t-105 -212t-182 -140.5t-258 -50q-145 0 -257 50t-182 140.5t-105 212t-35 268.5zM354 655q0 -201 71.5 -318t200.5 -117q130 0 201.5 117t71.5 318 q0 199 -71.5 314t-201.5 115t-201 -114.5t-71 -314.5z" />
<glyph unicode="P" horiz-adv-x="1007" d="M50 1162v119q0 14 3.5 18t15.5 4h437q115 0 200 -23t136.5 -61.5t82 -98t41.5 -122t11 -143.5q0 -85 -11 -154t-39.5 -132.5t-73.5 -106t-117.5 -68t-167.5 -25.5q-68 0 -116 11v-119q0 -49 16 -66t66 -24q16 -1 19.5 -7.5t3.5 -25.5v-112q0 -16 -3.5 -21t-17.5 -5h-465 q-12 0 -15.5 4t-3.5 18v119q0 10 0.5 14t4 7.5t10.5 5.5q57 12 80 27t26 47v760h-2v56q0 32 -23 48.5t-83 29.5q-11 3 -13 7.5t-2 18.5zM452 605q19 -13 94 -13q63 0 100 63t37 188q0 123 -40.5 191t-106.5 68h-84v-497z" />
<glyph unicode="Q" d="M47 652q0 147 35 267.5t105 211.5t182 141t257 50q146 0 258 -50t182 -141t105 -211.5t35 -267.5q0 -193 -60 -342t-180 -232l36 -72q21 -50 46 -70t65 -20q21 0 37 4t21 4q3 1 5.5 0.5t4 -5.5t1.5 -14l2 -125q0 -18 -9 -26.5t-30 -14.5q-46 -16 -138 -16 q-111 0 -181.5 56.5t-103.5 177.5l-9 30q-42 -6 -87 -6q-145 0 -257 50t-182 140.5t-105 212t-35 268.5zM354 655q0 -197 63 -305q2 73 47 118.5t121 45.5q84 0 142 -41.5t107 -124.5q65 115 65 307q0 199 -71.5 314t-201.5 115t-201 -114.5t-71 -314.5zM516 330 q0 -62 48 -103q22 -7 62 -7h24q-23 82 -37 119.5t-24.5 48t-28.5 10.5q-21 0 -32.5 -19t-11.5 -49z" />
<glyph unicode="R" horiz-adv-x="1087" d="M52 1162v119q0 14 3.5 18t15.5 4h456q112 0 195.5 -22.5t134.5 -61t81.5 -97.5t42 -123t11.5 -148q0 -289 -160 -395l62 -167q24 -64 47.5 -88t63.5 -24q3 0 28 7q23 11 28 -15l11 -122q2 -24 -2 -32t-22 -13q-64 -21 -152 -21q-53 0 -93.5 11.5t-67.5 30t-49.5 53 t-37 69t-32.5 90.5l-54 158q-43 0 -108 13v-145q0 -49 15.5 -66t66.5 -24q16 -1 19.5 -7.5t3.5 -25.5v-112q0 -16 -3.5 -21t-17.5 -5h-465q-13 0 -16 4t-3 18v119q0 10 0.5 14t4 7.5t10.5 5.5q57 12 80 27.5t26 46.5v760h-2v56q0 31 -23.5 48t-82.5 30q-11 3 -13 7.5 t-2 18.5zM454 631q22 -13 97 -13q68 0 108.5 58t40.5 171q0 131 -42.5 193t-115.5 62h-88v-471z" />
<glyph unicode="S" horiz-adv-x="977" d="M63 95v328q0 21 6.5 27t27.5 6h156q15 0 20.5 -5.5t7.5 -20.5l26 -182q14 -6 64.5 -13.5t103.5 -7.5q23 0 43.5 2.5t46 11t44 22.5t31.5 40.5t13 61.5q0 42 -19.5 72t-52.5 48t-76 31.5t-90.5 26.5t-94.5 29t-90 42.5t-76 63t-52.5 95t-19.5 134.5q0 123 27 205.5t83 127 t128 62.5t177 18q247 0 356 -58q21 -13 26 -21.5t5 -32.5v-307q0 -12 -1.5 -19t-7 -10t-9.5 -3.5t-15 -0.5h-155q-15 0 -19 4t-7 18l-24 179q-31 18 -149 18q-141 0 -141 -119q0 -47 31.5 -76t82 -44t111.5 -29t121.5 -39t111 -64.5t82 -115.5t31.5 -183 q0 -105 -22.5 -183.5t-60 -126t-94.5 -76.5t-118 -39.5t-140 -10.5q-108 0 -228.5 17t-164.5 41q-36 17 -36 56z" />
<glyph unicode="T" horiz-adv-x="979" d="M34 933v350q0 14 3 17t15 3h875q9 0 12.5 -1t6 -5t2.5 -14v-350q0 -32 -19 -32h-140q-11 0 -16 3.5t-6 7.5t-2 15l-11 93q-9 54 -43 54l-80 2v-797h2v-18q0 -49 14 -66t64 -24q16 -1 19.5 -7.5t3.5 -25.5v-112q0 -16 -3.5 -21t-15.5 -5h-467q-12 0 -15.5 4t-3.5 18v119 q0 10 0.5 14t4 7.5t10.5 5.5q57 12 81 27.5t27 46.5v834h-82q-34 0 -43 -56l-11 -93q-1 -11 -2 -15t-6 -7.5t-16 -3.5h-140q-12 0 -15 7.5t-3 24.5z" />
<glyph unicode="U" horiz-adv-x="1197" d="M32 1165v112q0 16 3 21t15 5h496q10 0 13 -4t3 -18v-119q0 -14 -2 -18.5t-13 -7.5q-57 -13 -81 -28.5t-25 -44.5v-560q0 -133 53.5 -208t151.5 -75q94 0 150.5 76t56.5 207v555q-1 38 -18 52.5t-64 21.5q-16 1 -19.5 7.5t-3.5 25.5v112q0 16 3.5 21t17.5 5h395 q12 0 14 -3.5t2 -18.5v-119q0 -24 -15 -24q-59 -16 -82.5 -32.5t-23.5 -47.5v-555q0 -239 -111 -380.5t-339 -141.5q-475 0 -475 522v541q0 48 -15 64.5t-65 23.5q-11 1 -15.5 4.5t-5.5 9t-1 19.5z" />
<glyph unicode="V" horiz-adv-x="1137" d="M17 1160v121q0 14 3.5 18t14.5 4h464q14 0 17 -4.5t3 -19.5v-115q0 -18 -4 -24.5t-18 -7.5q-49 -7 -65.5 -22t-16.5 -52q0 -53 5 -108t10.5 -98t20 -102.5t22.5 -91.5t29 -97t29 -88t33.5 -94.5t31.5 -89.5h4q93 258 121 358q59 215 59 411q0 37 -15.5 52t-64.5 22 q-11 1 -15.5 5t-5.5 9t-1 18v115q0 15 3 19.5t15 4.5h406q7 0 10 -0.5t5 -3t2 -4.5v-9v-5v-121q0 -14 -2 -17.5t-13 -6.5q-64 -16 -84 -27t-20 -40q0 -488 -313 -1050q-11 -21 -34 -21h-169q-22 0 -33 21q-311 558 -311 1050q0 23 -24 37.5t-84 29.5q-11 3 -13 6.5t-2 17.5z " />
<glyph unicode="W" horiz-adv-x="1805" d="M15 1160v121q0 15 2.5 18.5t16.5 3.5h489q12 0 15.5 -4.5t3.5 -19.5v-115q0 -13 -1 -18.5t-6 -9t-16 -4.5q-50 -7 -66.5 -20t-13.5 -43q19 -372 175 -834h2q69 191 119 410.5t64 423.5q3 31 -15.5 44.5t-68.5 18.5q-14 1 -17.5 7.5t-3.5 22.5v117q0 15 3.5 19.5t17.5 4.5 h430q12 0 15.5 -4.5t3.5 -17.5v-121q0 -14 -2 -18t-13 -8q-72 -18 -88 -30q27 -251 77 -452.5t135 -415.5q156 441 183 833q3 31 -15.5 44.5t-68.5 18.5q-14 1 -17 7.5t-3 24.5v113q0 9 0.5 12.5t2 7.5t5.5 5t12 1h402q12 0 14.5 -4t2.5 -18v-121q0 -13 -2.5 -17t-12.5 -9 q-60 -13 -79.5 -25t-22.5 -42q-22 -256 -109 -553.5t-174 -494.5q-8 -21 -30 -21h-253q-25 0 -32 21q-98 224 -177 512q-72 -281 -165 -512q-7 -21 -30 -21h-259q-21 0 -30 21q-55 128 -109 280.5t-108 371.5t-66 396q-3 27 -24 40.5t-78 26.5q-11 3 -13 7.5t-2 18.5z" />
<glyph unicode="X" horiz-adv-x="1068" d="M9 1162v119q0 14 3 18t16 4h465q14 0 17.5 -5t3.5 -21v-112q0 -19 -3 -24.5t-19 -8.5q-68 -11 -38 -65l110 -205l121 182q21 36 21 53q0 29 -49 35q-16 3 -19 8.5t-3 24.5v112q0 16 3 21t17 5h375q11 0 14.5 -4t3.5 -18v-121q0 -14 -2 -17.5t-13 -6.5q-50 -11 -74.5 -27 t-48.5 -50l-247 -378l214 -392q39 -67 58.5 -88.5t49.5 -21.5q11 0 33 5q3 0 9 0.5t8.5 0.5t5 -3t3.5 -9l15 -130q3 -19 -0.5 -27.5t-19.5 -13.5q-64 -21 -173 -21q-26 0 -48.5 3t-40 6.5t-34.5 13.5t-28.5 16.5t-26 23.5t-22 26t-21.5 32.5t-20.5 36t-23 42.5t-24.5 46 l-97 177l-95 -145q-20 -34 -20 -52q0 -30 46 -36q16 -3 19.5 -8.5t3.5 -24.5v-112q0 -9 -0.5 -12.5t-2 -7.5t-5.5 -5t-11 -1h-367q-11 0 -13.5 3.5t-2.5 18.5v119v5q0 8 0.5 11t3.5 6t9 5q49 11 69 25.5t42 52.5l226 342l-268 501q-11 20 -31 30t-59 17q-11 3 -13 7.5 t-2 18.5z" />
<glyph unicode="Y" horiz-adv-x="1072" d="M15 1160v121q0 14 3 18t14 4h463q14 0 17.5 -4.5t3.5 -19.5v-115q0 -13 -1 -18.5t-6 -9t-16 -4.5q-50 -5 -65 -13.5t-15 -31.5q0 -140 136 -430h2q166 289 166 430q0 23 -15 31.5t-65 13.5q-14 1 -18.5 8t-4.5 24v115q0 11 1 15t5 6.5t13 2.5h406q14 0 16.5 -3.5 t2.5 -18.5v-121q0 -24 -15 -24q-59 -11 -79 -23.5t-28 -43.5q-25 -135 -96.5 -302t-158.5 -294v-212q0 -49 15 -66t65 -24q16 -1 19.5 -7.5t3.5 -25.5v-112q0 -16 -3.5 -21t-15.5 -5h-467q-12 0 -15.5 4t-3.5 18v119q0 10 0.5 14t4 7.5t10.5 5.5q61 13 83.5 29.5t22.5 51.5 v172q-95 134 -173.5 318.5t-92.5 329.5q-3 24 -25 38.5t-79 28.5q-11 3 -13 6.5t-2 17.5z" />
<glyph unicode="Z" horiz-adv-x="958" d="M56 19v156q0 15 9 32l479 882h-231q-25 0 -31.5 -14t-13.5 -73l-11 -131q-1 -9 -1.5 -12.5t-2.5 -7.5t-6.5 -5t-11.5 -1h-140q-19 0 -19 32v406q0 14 3.5 17t15.5 3h774q13 0 16 -5.5t3 -22.5v-141q0 -23 -11 -47l-479 -873h263q19 0 29 16.5t16 67.5l11 117q1 10 1.5 13 t2.5 8t6.5 6t11.5 1h142q18 0 18 -33v-390q0 -14 -3.5 -17t-16.5 -3h-808q-15 0 -15 19z" />
<glyph unicode="[" horiz-adv-x="539" d="M112 -276v1600q0 14 2 17t13 3h342q9 3 11 -0.5t2 -14.5v-137q0 -11 -2.5 -14t-10.5 -3h-82v-1296h80q10 0 12.5 -3t2.5 -16v-136q0 -10 -1.5 -12t-11.5 -2h-348q-5 0 -7 1.5t-2 3v5.5v4z" />
<glyph unicode="\" horiz-adv-x="834" d="M34 1322h281l487 -1354h-283z" />
<glyph unicode="]" horiz-adv-x="536" d="M56 -134q0 11 3 14t14 3h80v1296h-80q-9 0 -11.5 0.5t-4 3.5t-1.5 12v138q0 9 3 12t12 3h346q9 -7 9 -17v-1597q0 -14 -2 -17.5t-13 -3.5h-340q-8 -3 -11.5 0.5t-3.5 14.5v138z" />
<glyph unicode="^" horiz-adv-x="968" d="M41 819l443 495l443 -495l-195 -166l-248 317l-249 -317z" />
<glyph unicode="_" horiz-adv-x="808" d="M67 0h674v-199h-674v199z" />
<glyph unicode="`" horiz-adv-x="515" d="M-41 1596q-9 8 -11.5 16.5t2 13.5t15.5 5h227q22 0 33.5 -8t23.5 -33l90 -168q13 -29 9 -38.5t-26 -9.5h-106q-40 0 -80 37z" />
<glyph unicode="a" horiz-adv-x="1016" d="M45 434q0 131 31 229.5t103 159.5t178 61q72 0 138 -23.5t103 -74.5v20q0 60 42 60h45q21 0 52.5 -6.5t90 -20.5t110.5 -24q8 -1 11.5 -3t6.5 -7.5t3 -16.5v-110q0 -15 -2.5 -20t-12.5 -6l-56 -8q-34 -7 -37 -50v-322q1 -52 12.5 -70t30.5 -18q33 0 33 45q0 12 1 17.5 t6.5 10t16.5 4.5h45q17 0 21.5 -7.5t4.5 -33.5q0 -231 -205 -231q-155 0 -206 126q-81 -128 -261 -128q-102 0 -172 60t-101.5 158.5t-31.5 228.5zM322 439q0 -67 13.5 -120.5t44 -88.5t74.5 -35q49 0 81.5 38.5t47.5 107.5v5q9 42 9 95q0 111 -35 177.5t-101 66.5 q-65 0 -99.5 -70.5t-34.5 -175.5z" />
<glyph unicode="b" horiz-adv-x="984" d="M24 22v119q0 10 0.5 14t4 7.5t10.5 5.5q60 13 83 30t23 51v786q0 54 -37 58l-56 9q-13 0 -13 24v110q0 25 21 28q184 39 253 39h56q44 0 44 -59v-510q33 77 96 113.5t141 36.5q142 0 216 -124.5t74 -325.5t-78.5 -324t-234.5 -123q-79 0 -144 31.5t-83 102.5v-78 q0 -17 -1 -24.5t-7.5 -13t-19.5 -5.5h-329q-12 0 -15.5 4t-3.5 18zM408 421q0 -101 31 -158.5t90 -57.5q64 0 98 61.5t34 161.5q0 101 -33.5 167t-98.5 66q-58 0 -89.5 -66t-31.5 -174z" />
<glyph unicode="c" horiz-adv-x="804" d="M41 419q0 226 108 345.5t300 119.5q85 0 159.5 -14.5t106.5 -31.5q15 -7 19.5 -18t4.5 -36v-287q0 -13 -3 -16t-14 -3h-134q-13 0 -16 17l-32 158q-31 23 -78 23q-67 0 -107 -61.5t-40 -180.5q0 -130 54 -182.5t149 -52.5q82 0 216 30q13 3 18.5 -3t5.5 -23v-142 q0 -21 -24 -29q-126 -43 -295 -43q-199 0 -298.5 105t-99.5 325z" />
<glyph unicode="d" horiz-adv-x="996" d="M45 434q0 131 31.5 230.5t99.5 159.5t165 60q165 0 229 -111v262q0 54 -38 58l-55 9q-13 0 -13 24v110q0 16 4 21t14 7q184 39 255 39h56q45 0 45 -59v-954q0 -106 41 -106q20 0 26.5 11t6.5 34q0 10 1.5 16t7.5 11t17 5h45q16 0 21 -8t5 -33q0 -233 -190 -233 q-152 0 -199 141q-36 -77 -110 -109t-162 -32q-102 0 -171.5 60t-100.5 158.5t-31 228.5zM324 421q0 -99 35 -163t103 -64q64 0 97 58t33 161q0 111 -33.5 175t-98.5 64q-68 0 -102 -65t-34 -166z" />
<glyph unicode="e" horiz-adv-x="852" d="M43 434q0 228 97 339t305 111q181 0 265.5 -73.5t84.5 -220.5q0 -64 -13 -112t-40.5 -78.5t-58.5 -49.5t-79 -28t-89 -12t-100 -3q-58 0 -78 2q45 -115 197 -115q50 0 136 23.5t110 26.5q10 4 16 2.5t6 -17.5v-134q0 -25 -4.5 -34t-17.5 -16q-48 -30 -129.5 -47 t-158.5 -17q-235 0 -342 110t-107 343zM317 471q26 0 44.5 1t46.5 4.5t47 11.5t38 20.5t28.5 34t9.5 49.5q0 48 -23 72.5t-54 24.5q-62 0 -98 -57.5t-39 -160.5z" />
<glyph unicode="f" horiz-adv-x="659" d="M56 22v119q0 13 3 18.5t12 8.5q55 11 73 25t20 45v434h-80q-23 0 -23 26v142q0 26 23 26h78v67q0 218 69.5 303.5t256.5 85.5q66 0 123 -14t85 -31q25 -12 25 -54v-259q0 -7 -0.5 -11t-3.5 -5.5t-4.5 -1.5h-8.5h-134q-14 0 -17 17l-32 132q-13 18 -33 18q-36 0 -47 -41 t-11 -152v-54h162q22 0 22 -26v-142q0 -26 -22 -26h-162v-411q0 -48 28.5 -65t124.5 -25q11 0 15.5 -4t5.5 -9.5t1 -19.5v-112q0 -9 -0.5 -12.5t-2 -7.5t-5.5 -5t-11 -1h-512q-11 0 -14.5 4t-3.5 18z" />
<glyph unicode="g" horiz-adv-x="992" d="M60 434q0 131 31.5 230.5t99.5 159.5t165 60q90 0 157.5 -38.5t91.5 -123.5v84q0 60 45 60h41q21 0 53 -6.5t91 -20.5t111 -24q11 -2 14.5 -6.5t3.5 -20.5v-110q0 -24 -13 -26l-55 -8q-35 -7 -38 -50v-495q0 -235 -105.5 -351.5t-331.5 -116.5q-200 0 -287 47 q-13 7 -17.5 16t-4.5 34v134q0 17 5 21.5t17 2.5q162 -41 246 -41q98 0 153 49.5t61 172.5q-77 -80 -231 -80q-102 0 -171.5 60t-100.5 158.5t-31 228.5zM339 421q0 -99 35 -163t103 -64q64 0 97 58t33 161q0 112 -33.5 175.5t-98.5 63.5q-66 0 -101 -65.5t-35 -165.5z" />
<glyph unicode="h" horiz-adv-x="1057" d="M24 22v119q0 10 0.5 14t4 7.5t10.5 5.5q60 13 83 30t23 51v790q0 54 -35 58l-56 7q-15 3 -15 24v112q0 15 4 20t15 8q53 10 111 23t91 20t53 7h41q44 0 44 -59v-535q44 81 115.5 120.5t156.5 39.5q118 0 174.5 -77.5t56.5 -247.5v-267q0 -45 6.5 -70t15 -31.5t21.5 -6.5 q20 0 26.5 11t6.5 34q0 16 5 24t22 8h44q16 0 20 -7.5t4 -33.5q0 -231 -204 -231q-112 0 -172.5 71t-60.5 232v229q0 82 -20 113t-60 31q-65 0 -104.5 -74.5t-39.5 -225.5v-123q1 -37 18 -51.5t63 -19.5q11 -1 15.5 -4.5t5.5 -9t1 -19.5v-112q0 -9 -0.5 -12.5t-2 -7.5 t-5.5 -5t-11 -1h-452q-12 0 -15.5 4t-3.5 18z" />
<glyph unicode="i" horiz-adv-x="562" d="M28 689v110q0 16 4 21t15 7q184 39 253 39h57q45 0 45 -60v-514q0 -45 6 -70t14 -31.5t21 -6.5q20 0 27 11t7 34q0 11 1.5 17t7.5 10.5t17 4.5h44q16 0 20.5 -7.5t4.5 -33.5q0 -231 -203 -231q-235 0 -235 303v306q0 53 -37 57l-58 10q-11 0 -11 24zM132 1134 q0 66 39.5 110t96.5 44q59 0 100.5 -44t41.5 -110q0 -72 -41 -115t-101 -43q-59 0 -97.5 43t-38.5 115z" />
<glyph unicode="j" horiz-adv-x="504" d="M-69 -153q0 18 4 23t17 5h102q5 0 8.5 -0.5t6 -2.5t3.5 -3t1.5 -4t0.5 -4.5v-5v-4.5q6 -43 28 -43q23 0 34 32t11 108v650q0 53 -37 57l-60 10q-11 0 -11 24v110q0 25 21 28q184 39 253 39h58q42 0 42 -60v-704q0 -248 -62 -360.5t-213 -112.5q-103 0 -155 61.5 t-52 156.5zM141 1134q0 66 40.5 110t99.5 44q58 0 100 -44t42 -110q0 -72 -41.5 -115t-100.5 -43q-60 0 -100 43t-40 115z" />
<glyph unicode="k" horiz-adv-x="1009" d="M24 22v119q0 10 0.5 14t4 7.5t10.5 5.5q56 11 79.5 27.5t26.5 46.5v797q0 51 -37 58l-54 7q-9 1 -12 6t-3 18v112q0 10 3 16t6.5 7.5t11.5 4.5q52 9 113.5 22.5t96.5 20.5t56 7h43q42 0 42 -59v-779l112 181q11 21 3 33t-31 12q-14 0 -17 7t-3 28v99q0 16 3 21t15 5h438 q14 0 16.5 -4t2.5 -19v-108q0 -10 -0.5 -14t-4 -7t-10.5 -3q-94 0 -140 -74l-108 -172l78 -165q26 -74 50.5 -98.5t52.5 -24.5q19 0 30 8.5t14 17.5t4 24q0 30 24 30h45q16 0 21 -8t5 -35q0 -233 -207 -233q-103 0 -160.5 50t-103.5 151l-129 263v-184q0 -49 15.5 -66 t65.5 -24q11 -1 15.5 -4.5t5.5 -9t1 -19.5v-112q0 -9 -0.5 -12.5t-2 -7.5t-5.5 -5t-11 -1h-452q-12 0 -15.5 4t-3.5 18z" />
<glyph unicode="l" horiz-adv-x="510" d="M-20 1143v114q0 15 3.5 19.5t14.5 6.5q201 39 255 39h56q26 0 36.5 -18.5t10.5 -39.5v-972q0 -45 6 -70t14 -31.5t21 -6.5q19 0 25 10.5t6 34.5q0 11 1.5 17t7.5 10.5t17 4.5h47q15 0 19.5 -7.5t4.5 -33.5q0 -231 -205 -231q-111 0 -171.5 71t-60.5 232v764q0 52 -40 56 l-55 9q-8 0 -10.5 4.5t-2.5 17.5z" />
<glyph unicode="m" horiz-adv-x="1504" d="M52 22v119q0 10 0.5 14t4 7.5t10.5 5.5q56 14 73.5 29.5t17.5 48.5v355q0 50 -37 58l-54 8q-9 1 -12 6t-3 18v111q0 15 4 20t15 8q54 10 111 23.5t89.5 20.5t52.5 7h43q44 0 44 -60v-132q33 101 101.5 148t154.5 47q151 0 197 -152q76 152 264 152q113 0 166.5 -81 t53.5 -259v-250q0 -108 43 -108q33 0 33 47q0 16 4.5 23t21.5 7h45q16 0 20 -7.5t4 -33.5q0 -231 -203 -231q-234 0 -234 303v212q0 89 -17.5 124t-53.5 35q-53 0 -87.5 -61t-37.5 -180v-178q1 -40 20 -55t75 -20q16 -1 19.5 -7.5t3.5 -25.5v-112q0 -16 -3.5 -21t-17.5 -5 h-423q-11 0 -13.5 3.5t-2.5 18.5v119q0 10 0.5 14t3.5 7.5t9 5.5q42 8 52.5 25t10.5 58v274q-3 80 -20.5 110t-52.5 30q-54 0 -88 -69.5t-35 -206.5v-153q2 -34 12 -47t39 -16q16 -4 19 -10t3 -25v-112q0 -16 -3 -21t-17 -5h-406q-12 0 -15.5 4t-3.5 18z" />
<glyph unicode="n" horiz-adv-x="1074" d="M41 22v119q0 10 0.5 14t4 7.5t10.5 5.5q60 13 83 30t23 51v352q0 54 -35 58l-56 8q-15 3 -15 24v111q0 15 3.5 20t14.5 8q54 10 111.5 23.5t91 20.5t53.5 7h41q44 0 44 -60v-97q44 81 115.5 120.5t156.5 39.5q118 0 174.5 -77.5t56.5 -247.5v-267q0 -45 6.5 -70t15 -31.5 t21.5 -6.5q20 0 26.5 11t6.5 34q0 11 1.5 17t7.5 10.5t17 4.5h45q16 0 20 -7.5t4 -33.5q0 -231 -205 -231q-111 0 -171.5 71t-60.5 232v229q0 82 -20 113t-60 31q-65 0 -104.5 -74.5t-39.5 -225.5v-104q0 -49 15 -66t65 -24q16 -1 19.5 -7.5t3.5 -25.5v-112q0 -9 -0.5 -12.5 t-2 -7.5t-5.5 -5t-11 -1h-452q-12 0 -15.5 4t-3.5 18z" />
<glyph unicode="o" horiz-adv-x="893" d="M39 438q0 89 21.5 165.5t67.5 141t127.5 102t191.5 37.5t191.5 -37.5t127.5 -102t67.5 -141t21.5 -165.5t-21.5 -166t-67.5 -143t-127.5 -104t-191.5 -38q-89 0 -160 25.5t-116.5 68t-76 101.5t-43 122.5t-12.5 133.5zM311 430q0 -102 32.5 -166.5t103.5 -64.5 q70 0 104.5 65.5t34.5 167.5q0 66 -13.5 118.5t-46 88t-79.5 35.5q-69 0 -102.5 -69.5t-33.5 -174.5z" />
<glyph unicode="p" horiz-adv-x="970" d="M26 691v111q0 10 3 16t6.5 7.5t11.5 4.5q53 10 109.5 23.5t89 20.5t52.5 7h45q42 0 42 -60v-121q26 94 94.5 139t155.5 45q143 0 216.5 -124.5t73.5 -325.5q0 -202 -74.5 -327.5t-223.5 -125.5q-45 0 -87 11.5t-81.5 41t-58.5 74.5v-201q0 -45 26.5 -63t83.5 -26 q11 -1 15.5 -5t5.5 -9.5t1 -19.5v-112q0 -16 -3 -21t-15 -5h-467q-11 0 -15 4.5t-4 18.5v119q0 13 2.5 18t12.5 8q47 10 67 23.5t20 39.5l2 358h2v366q0 49 -37 58l-56 8q-9 1 -12 6t-3 18zM395 406q0 -109 31 -174.5t90 -65.5q64 0 98 70t34 177q0 106 -33.5 177t-96.5 71 q-60 0 -91.5 -69.5t-31.5 -185.5z" />
<glyph unicode="q" horiz-adv-x="986" d="M45 434q0 131 31 229.5t103 159.5t178 61q72 0 138 -23.5t103 -74.5v20q0 60 42 60h45q21 0 52.5 -6.5t90 -20.5t110.5 -24q8 -1 11.5 -3t6.5 -7.5t3 -16.5v-110q0 -15 -2.5 -20t-12.5 -6l-56 -8q-37 -8 -37 -58v-694q0 -41 15 -55t65 -19q11 -1 15.5 -5t5.5 -9.5 t1 -19.5v-112q0 -16 -3 -21t-15 -5h-468q-11 0 -14.5 4.5t-3.5 18.5v119q0 14 2 18.5t13 7.5q7 2 25 6t25.5 6t21 6.5t20 9.5t14 12t10.5 16.5t3 21.5v186q-83 -91 -233 -91q-102 0 -172 60t-101.5 158.5t-31.5 228.5zM322 439q0 -67 13.5 -120.5t44 -88.5t74.5 -35 q66 0 102 67t36 179q0 111 -35 177.5t-101 66.5q-65 0 -99.5 -70.5t-34.5 -175.5z" />
<glyph unicode="r" horiz-adv-x="856" d="M41 22v119q0 10 0.5 14t4 7.5t10.5 5.5q60 13 83 30t23 51v352q0 54 -35 58l-56 8q-15 3 -15 24v111q0 15 3.5 20t14.5 8q54 10 111.5 23.5t91 20.5t53.5 7h41q44 0 44 -60v-181h9q54 244 237 244q67 0 132 -31q14 -8 19 -19t5 -35v-347q0 -9 -1.5 -13t-4 -4.5 t-10.5 -0.5h-148q-8 0 -11.5 3t-6.5 14l-28 175q-9 5 -19 5q-143 0 -156 -281v-134q5 -22 21.5 -31t54.5 -14q16 -1 19.5 -7.5t3.5 -25.5v-112q0 -9 -0.5 -12.5t-2 -7.5t-5.5 -5t-11 -1h-452q-12 0 -15.5 4t-3.5 18z" />
<glyph unicode="s" horiz-adv-x="813" d="M45 67v214q0 26 5.5 31.5t23.5 5.5h133q17 0 22.5 -5t8.5 -24l10 -88q51 -19 128 -19t103.5 15t26.5 52q0 23 -19 38.5t-51 23.5t-72 17.5t-82 19t-82 30t-72 48.5t-51 76t-19 111q0 83 21.5 136t69.5 83t113.5 41t165.5 11q218 0 296 -39q18 -8 22.5 -14.5t3.5 -22.5 l-11 -199q-1 -23 -8.5 -28.5t-26.5 -5.5h-112q-15 0 -22.5 6t-10.5 22l-12 73q-36 17 -109 17q-61 0 -87.5 -11.5t-26.5 -50.5q0 -23 24.5 -36.5t64 -21.5t86.5 -17t94.5 -27.5t87 -47t64 -83t24.5 -128.5q0 -86 -21.5 -141t-71.5 -85.5t-116.5 -41.5t-170.5 -11 q-84 0 -183.5 10.5t-132.5 28.5q-28 17 -28 37z" />
<glyph unicode="t" horiz-adv-x="679" d="M13 698v142q0 15 4.5 20.5t17.5 5.5h120l122 268q10 24 34 24h76q23 0 23 -28v-264h208q22 0 22 -28v-140q0 -28 -22 -28h-208v-363q0 -70 17.5 -100t52.5 -30q80 0 80 84q0 26 23 26h48q24 0 24 -28q0 -146 -64.5 -212t-195.5 -66q-117 0 -185.5 72t-68.5 224v393h-106 q-22 0 -22 28z" />
<glyph unicode="u" horiz-adv-x="1042" d="M19 704v95q0 15 4.5 20.5t15.5 7.5q201 39 253 39h54q47 0 47 -62v-489q0 -86 19.5 -117.5t62.5 -31.5q63 0 101 67.5t38 211.5v197q-9 24 -33 28l-60 10q-11 2 -11 24v95q0 25 21 28q201 39 253 39h56q44 0 44 -62v-532q2 -88 41 -88q20 0 27 11t7 34q0 12 1 17.5 t6.5 10t16.5 4.5h47q16 0 20 -7.5t4 -33.5q0 -231 -205 -231q-163 0 -212 147q-43 -78 -101 -114.5t-151 -36.5q-133 0 -195.5 79t-62.5 254v296q0 52 -38 56l-59 10q-11 2 -11 24z" />
<glyph unicode="v" horiz-adv-x="955" d="M20 724v125q0 12 2 14.5t13 2.5h416q12 0 15 -3.5t3 -15.5v-121q0 -11 -1 -15t-5 -7t-14 -6q-36 -5 -49.5 -18.5t-8.5 -39.5q19 -169 112 -415h5q92 242 118 415q8 26 -6.5 39.5t-51.5 18.5q-15 4 -18 8.5t-3 19.5v119q0 14 3 17.5t16 3.5h354q12 0 14 -3t2 -14v-125 q0 -18 -13 -20q-45 -13 -60.5 -25t-20.5 -40q-19 -126 -94 -336t-126 -292q-7 -13 -26 -13h-237q-18 0 -24 13q-50 81 -125.5 291t-95.5 337q-5 23 -21.5 36.5t-60.5 28.5q-12 4 -12 20z" />
<glyph unicode="w" horiz-adv-x="1414" d="M19 724v125q0 10 3 13.5t12 3.5h407q12 0 15.5 -3.5t3.5 -15.5v-121q0 -15 -3 -19.5t-18 -8.5q-35 -5 -47 -17.5t-7 -38.5q7 -71 34.5 -185.5t66.5 -229.5h6q83 239 104 415q10 25 -3 38t-49 18q-8 2 -11.5 3.5t-5.5 6t-2 7v11.5v121q0 9 1 12t5 5t13 2h344q11 0 13 -3 t2 -14v-125q0 -10 -1.5 -13.5t-9.5 -6.5l-36 -13q40 -211 68 -305q22 -76 55 -159h4q80 230 106 415q8 25 -5.5 38t-48.5 18q-8 2 -12 3.5t-6 6.5t-2 6v12v121q0 12 3 15.5t15 3.5h347q12 0 14 -3t2 -14v-125q0 -15 -15 -20q-43 -15 -57 -26.5t-21 -38.5 q-19 -122 -89.5 -334.5t-115.5 -293.5q-9 -13 -26 -13h-240q-16 0 -24 13q-40 72 -104 253q-62 -184 -99 -253q-9 -13 -24 -13h-240q-16 0 -24 13q-46 81 -117 293t-90 335q-5 23 -21 36.5t-57 28.5q-8 3 -10.5 6.5t-2.5 13.5z" />
<glyph unicode="x" horiz-adv-x="951" d="M28 22v121q0 15 4 20.5t18 5.5q50 1 81.5 19t63.5 54l129 147l-125 211q-9 16 -22.5 28t-24.5 18t-30 11t-29 6t-32 4h-4q-9 1 -10.5 5t-1.5 24v123q0 16 3 21t17 9q74 17 129 17q68 0 115.5 -15.5t83 -49t63.5 -90.5l54 -111l39 44q15 15 13 31t-22 16q-15 0 -18.5 7 t-3.5 28v114q0 16 3 21t15 5h365q12 0 14.5 -4t2.5 -19v-121q0 -11 -0.5 -15.5t-4 -7.5t-10.5 -3q-46 -3 -75.5 -20t-60.5 -50l-151 -172l69 -152q33 -73 58.5 -99t51.5 -26q15 0 24.5 4.5t13.5 12t6 16.5t3 18t3 16.5t7.5 12t15.5 4.5h44q16 0 21 -8t5 -35 q0 -237 -206 -237q-55 0 -96.5 14t-72.5 44t-51.5 61.5t-44.5 80.5l-31 67l-26 -30q-12 -15 -5.5 -30t16.5 -15q17 0 20.5 -6.5t3.5 -26.5v-114q0 -16 -3.5 -21t-17.5 -5h-377q-14 0 -16.5 3.5t-2.5 18.5z" />
<glyph unicode="y" horiz-adv-x="953" d="M19 724v125q0 10 3 13.5t12 3.5h417q11 0 13.5 -3.5t2.5 -15.5v-121v-11.5t-2 -7t-5.5 -6t-10.5 -3.5q-38 -5 -51.5 -18.5t-6.5 -39.5q10 -74 40.5 -193t69.5 -214q45 128 123 411q7 26 -0.5 36t-42.5 18q-19 6 -25.5 11t-6.5 19v104q0 19 7 26.5t25 7.5h324 q12 0 18.5 -1t9 -6.5t3 -9t0.5 -15.5v-95q0 -16 -5 -22t-22 -15q-37 -12 -49 -24.5t-20 -44.5q-74 -268 -152.5 -484.5t-195.5 -468.5q-23 -39 -47.5 -54t-75.5 -15h-168q-15 0 -17.5 2.5t-2.5 19.5v116q0 10 0.5 14t3.5 7t9 3q80 10 101 20.5t40 50.5q18 36 73 156h-49 q-17 0 -28 13q-45 67 -121.5 286t-95.5 340q-5 23 -22 36.5t-62 28.5q-8 3 -9.5 6.5t-1.5 13.5z" />
<glyph unicode="z" horiz-adv-x="863" d="M52 28v93q0 36 3.5 47.5t18.5 28.5l369 494h-153q-17 0 -22.5 -5.5t-8.5 -26.5l-6 -102q-3 -16 -9 -21t-21 -5h-121q-11 0 -15 0.5t-9.5 3t-7 9t-1.5 18.5v276q0 28 24 28h674q24 0 24 -28v-95q0 -47 -26 -80l-359 -490h184q26 0 30 34l9 104q0 18 5.5 24t22.5 6h119 q21 0 26.5 -6t5.5 -32l2 -275q0 -28 -22 -28h-710q-26 0 -26 28z" />
<glyph unicode="{" horiz-adv-x="577" d="M35 452v149q0 18 15 23q29 9 47.5 26.5t26.5 45.5t10 51.5t2 62.5v234q0 49 6 90t22.5 80.5t43 67t70.5 44t102 16.5h138q18 0 18 -16v-131q0 -31 -18 -31h-4q-54 0 -76.5 -29t-22.5 -92v-216q0 -67 -4 -108t-17.5 -81t-41.5 -66t-73 -45q86 -38 111 -102.5t25 -197.5 v-214q0 -65 22.5 -94t76.5 -29h4q18 0 18 -31v-131q0 -17 -18 -17h-138q-58 0 -102 16.5t-70.5 44t-43 67t-22.5 80.5t-6 90v235q0 39 -2 62.5t-10 51.5t-26.5 45.5t-47.5 26.5q-15 5 -15 22z" />
<glyph unicode="|" horiz-adv-x="484" d="M110 -311v1670h262v-1670h-262z" />
<glyph unicode="}" horiz-adv-x="577" d="M41 -141q0 31 19 31h3q54 0 76.5 29t22.5 94v214q0 68 4 108t17 80t41 66t74 46q-46 19 -74 45t-41 66t-17 80.5t-4 108.5v216q0 63 -22.5 92t-76.5 29h-3q-19 0 -19 31v131q0 16 19 16h135q60 0 104.5 -16.5t71.5 -43.5t43.5 -67t22.5 -80.5t6 -90.5v-234q0 -40 2 -62.5 t9 -51.5t25.5 -46t47.5 -26q15 -5 15 -23v-149q0 -17 -15 -22q-29 -9 -47.5 -26t-25.5 -46t-9 -51.5t-2 -62.5v-235q0 -50 -6 -90.5t-22.5 -80.5t-43.5 -67t-71.5 -43.5t-104.5 -16.5h-135q-19 0 -19 17v131z" />
<glyph unicode="~" horiz-adv-x="919" d="M47 372q50 116 131 181t161 65q39 0 79.5 -20t68 -44t59 -44t54.5 -20q19 0 39.5 28t34.5 80l197 -75q-35 -124 -112.5 -185.5t-164.5 -61.5q-38 0 -74.5 20.5t-59.5 44.5t-51.5 44.5t-52.5 20.5q-29 0 -49.5 -23t-49.5 -83z" />
<glyph unicode="&#xa0;" horiz-adv-x="647" d="M74 445v147q0 32 21 32h460q20 0 20 -34v-130q0 -21 -4.5 -30t-19.5 -9h-458q-19 0 -19 24z" />
<glyph unicode="&#xa1;" horiz-adv-x="437" d="M69 724q0 67 42 113.5t103 46.5q58 0 100.5 -47t42.5 -113q0 -72 -42 -115t-101 -43q-63 0 -104 42.5t-41 115.5zM80 -328l43 825q2 30 39 30h134q30 0 32 -30l29 -827q1 -17 -7.5 -23t-25.5 -6h-199q-24 0 -35 6t-10 25z" />
<glyph unicode="&#xa2;" horiz-adv-x="813" d="M45 419q0 223 108.5 344t298.5 121q285 0 285 -245q0 -37 -8 -69t-26 -62t-53.5 -47.5t-85.5 -17.5q-22 0 -37 1.5t-30.5 5.5t-23.5 13t-8 23v37q0 15 4.5 20.5t16.5 5.5q1 0 4 -1t5 -1q51 0 51 62q0 80 -81 80q-67 0 -107 -67.5t-40 -187.5q0 -128 54.5 -185t146.5 -57 q99 0 218 52q13 3 18 -1.5t5 -20.5v-146q0 -14 -5 -19.5t-18 -11.5q-147 -64 -296 -64q-196 0 -296 112.5t-100 325.5zM305 -352l25 259q0 11 1 15.5t5.5 7.5t15.5 3h169q6 0 9 -1t4.5 -5t2 -6t1.5 -10l26 -263q2 -14 0 -18t-11 -4h-236q-15 0 -12 22zM311 1219q-2 11 0 17 t11 6h237q8 0 10 -4t1 -19l-26 -262q-1 -8 -1.5 -10t-2 -6t-4.5 -5t-9 -1h-171q-13 0 -16 5t-5 21z" />
<glyph unicode="&#xa3;" horiz-adv-x="1037" d="M48 22v119q0 10 0.5 14t4 7.5t10.5 5.5q58 12 82 27.5t24 46.5v294h-81q-19 0 -19 24v147q0 32 20 32h82v194q0 107 31 184t88.5 120.5t128.5 63t160 19.5q190 0 354 -54q17 -6 21.5 -18t4.5 -40v-303q0 -11 -2 -15.5t-4.5 -5.5t-10.5 -1h-143q-16 0 -21 18l-41 181 q-60 15 -134 15q-33 0 -55.5 -4.5t-47 -18.5t-37 -45t-12.5 -79v-211h98q21 0 21 -33v-131q0 -21 -4.5 -30t-19.5 -9h-95v-303l271 -2q17 0 25.5 18t19.5 66l9 83q2 11 6.5 18t14 9.5t15 3t19 0t16.5 -0.5h95q7 0 11.5 -5.5t6 -18t2 -21.5t0 -27.5t-0.5 -25.5v-310 q0 -14 -4 -17t-15 -3h-875q-12 0 -15.5 4t-3.5 18z" />
<glyph unicode="&#xa4;" horiz-adv-x="1010" d="M74 140l94 113q-92 117 -92 294q0 184 95 298l-97 116l142 91l97 -102q86 35 192 35q108 0 199 -39l100 104l140 -91l-102 -121q89 -114 89 -291q0 -172 -86 -288l99 -118l-140 -93l-98 99q-91 -39 -201 -39q-112 0 -198 37l-93 -98zM357 547q0 -114 41 -186t107 -72 t106.5 72t40.5 186t-40.5 185.5t-106.5 71.5t-107 -71.5t-41 -185.5z" />
<glyph unicode="&#xa5;" horiz-adv-x="1122" d="M37 1160v121q0 14 3 18t16 4h462q14 0 17 -4.5t3 -19.5v-115q0 -13 -1 -18t-5.5 -9t-15.5 -5q-49 -5 -64.5 -14t-15.5 -31q0 -131 136 -430h3q166 297 166 430q0 22 -16 31t-66 14q-14 1 -18 7.5t-4 24.5v115q0 15 3 19.5t17 4.5h404q14 0 16.5 -3.5t2.5 -18.5v-121 q0 -24 -15 -24q-58 -11 -78 -24t-28 -43q-38 -207 -164 -442h114q20 0 20 -24v-97q0 -12 -1 -16.5t-6 -8.5t-17 -4h-199q-2 -2 -2 -4v-41h205q12 0 16 -5.5t4 -18.5v-95q0 -17 -3.5 -23.5t-20.5 -6.5h-201v-4h2v-18q0 -49 14 -66t64 -24q11 -1 15.5 -4.5t5.5 -9t1 -19.5 v-112q0 -16 -3 -21t-15 -5h-468q-11 0 -14.5 4t-3.5 18v119q0 10 0.5 14t4 7.5t10.5 5.5q61 13 84 29.5t23 51.5v34h-202q-19 0 -19 19v108q0 22 22 22h188q-18 26 -28 45h-163q-19 0 -19 18v108q0 24 22 24h75q-126 255 -142 442q-5 24 -27 38.5t-79 28.5q-11 3 -13 6.5 t-2 17.5z" />
<glyph unicode="&#xa6;" horiz-adv-x="484" d="M112 -266v728h262v-728h-262zM112 577v724h262v-724h-262z" />
<glyph unicode="&#xa7;" horiz-adv-x="984" d="M63 19q0 22 6.5 28.5t27.5 6.5h154q15 0 21 -6t9 -20l26 -181q85 -20 166 -20q29 0 55 4t56 14t48 32.5t18 55.5q0 45 -24.5 76t-64.5 47t-91 31.5t-104 28t-104 38.5t-91 60.5t-64.5 96t-24.5 143.5q0 167 54 261q-54 79 -54 207q0 118 27 197.5t83 122.5t128 60.5 t175 17.5t185 -12t116 -23t55 -23q21 -13 26.5 -21.5t5.5 -30.5v-307q0 -15 -4.5 -22.5t-10.5 -8.5t-21 -1h-153q-4 0 -6.5 0.5l-5 1t-4 1.5t-3 2.5l-2.5 2.5t-1.5 3t-1 3.5l-1.5 4.5t-1 4l-24 175q-28 18 -147 18q-140 0 -140 -104q0 -46 31.5 -74.5t81.5 -43.5 t110.5 -28.5t121 -38.5t110.5 -64.5t81.5 -114.5t31.5 -181q0 -33 -2.5 -67t-7 -61.5t-10 -48.5t-12 -32t-12.5 -9l-38 13q82 -99 82 -263q0 -94 -22 -163.5t-59.5 -112t-94.5 -68.5t-118.5 -35.5t-140.5 -9.5q-108 0 -227.5 17t-163.5 41q-36 21 -36 56v324zM357 516 q0 -28 12 -50t30 -35t49.5 -25t58.5 -19t69 -17.5t70 -19.5q4 22 4 35q0 31 -12.5 56t-27.5 40t-49.5 30.5t-54.5 22t-68.5 20t-68.5 19.5q-12 -26 -12 -57z" />
<glyph unicode="&#xa8;" horiz-adv-x="573" d="M9 1489q0 54 34.5 92.5t86.5 38.5q54 0 89.5 -38.5t35.5 -92.5q0 -55 -35.5 -92.5t-89.5 -37.5q-53 0 -87 37.5t-34 92.5zM317 1489q0 55 34 93t88 38q53 0 89 -38.5t36 -92.5q0 -55 -35 -92.5t-88 -37.5q-55 0 -89.5 37t-34.5 93z" />
<glyph unicode="&#xa9;" horiz-adv-x="1169" d="M52 618q0 124 29.5 229t79.5 179t117 126t143 76.5t156 24.5q81 0 158.5 -25.5t146.5 -79t121 -129.5t82 -183t30 -233q0 -151 -44 -271.5t-118 -194.5t-166 -113t-193 -39q-103 0 -199 41t-173 117.5t-123.5 199.5t-46.5 275zM140 618q0 -255 125.5 -397.5t328.5 -142.5 t318.5 131t115.5 394q0 269 -123 413t-328 144q-201 0 -319 -138.5t-118 -403.5zM253 613q0 199 95 303t263 104q76 0 140.5 -12.5t91.5 -28.5q14 -5 18.5 -14.5t4.5 -31.5v-252q0 -12 -2.5 -14t-12.5 -2h-117q-12 0 -15 15l-28 137q-27 21 -69 21q-58 0 -93.5 -54 t-35.5 -158q0 -114 47 -159.5t130 -45.5t190 26q11 2 16 -3.5t5 -20.5v-123q0 -18 -21 -26q-107 -38 -257 -38q-175 0 -262.5 92.5t-87.5 284.5z" />
<glyph unicode="&#xaa;" horiz-adv-x="843" d="M43 974q0 157 71 252.5t206 95.5q127 0 170 -97v54q0 24 28 24h223q24 0 24 -30v-608q0 -28 -24 -28h-236q-9 0 -12 5.5t-3 22.5v46q-36 -52 -77 -72.5t-100 -20.5q-89 0 -151 48t-90.5 126.5t-28.5 181.5zM315 970q0 -79 23 -119.5t66 -40.5q42 0 64 42t22 118 q0 75 -22.5 117.5t-65.5 42.5q-41 0 -64 -42t-23 -118z" />
<glyph unicode="&#xab;" horiz-adv-x="934" d="M43 493l301 399q10 16 16 15q4 -1 9 -6l132 -100q9 -8 9 -12t-7 -14l-201 -298l201 -289q10 -15 9.5 -20t-11.5 -15l-129 -97q-12 -7 -16.5 -4.5t-12.5 13.5l-298 387q-12 13 -12.5 19t10.5 22zM413 493l302 399q1 1 4.5 6t5 6t4.5 2.5t5.5 0t6.5 -5.5l132 -100 q8 -8 8.5 -12t-6.5 -14l-201 -298l201 -289q10 -15 9.5 -20t-13.5 -15l-128 -97q-13 -6 -16.5 -4.5t-13.5 13.5l-298 387q-10 13 -10.5 19t8.5 22z" />
<glyph unicode="&#xac;" horiz-adv-x="971" d="M63 458v188h827v-471h-259v283h-568z" />
<glyph unicode="&#xad;" horiz-adv-x="647" d="M74 449v147q0 31 21 31h460q20 0 20 -33v-130q0 -21 -4.5 -30.5t-19.5 -9.5h-458q-19 0 -19 25z" />
<glyph unicode="&#xae;" horiz-adv-x="1169" d="M52 618q0 124 29.5 229t79.5 179t117 126t143 76.5t156 24.5q81 0 158.5 -25.5t146.5 -79t121 -129.5t82 -183t30 -233q0 -151 -44 -271.5t-118 -194.5t-166 -113t-193 -39q-103 0 -199 41t-173 117.5t-123.5 199.5t-46.5 275zM140 618q0 -255 125.5 -397.5t328.5 -142.5 t318.5 131t115.5 394q0 269 -123 413t-328 144q-201 0 -319 -138.5t-118 -403.5zM339 935v80q0 13 9 13h246q77 0 128 -20t76.5 -59.5t35 -85t9.5 -109.5q0 -172 -74 -236l26 -88q11 -37 24 -52t34 -15q2 0 5 2t4 2l4 1q4 2 4.5 1.5t2 -3.5t2.5 -10l8 -82q1 -14 -1.5 -18.5 t-12.5 -7.5q-43 -13 -83 -13q-71 0 -102.5 36.5t-54.5 123.5l-22 78l-39 7v-82q1 -19 8.5 -27.5t24.5 -11.5q12 -5 12 -22v-76q0 -15 -10 -15h-253q-9 0 -9 13v80q0 15 7 17q50 17 50 48v443h-1v24q0 28 -51 47q-7 2 -7 17zM568 629q4 -7 41 -7q25 0 41.5 32.5t16.5 95.5 q0 146 -66 146h-33v-267z" />
<glyph unicode="&#xaf;" horiz-adv-x="590" d="M65 1393v121q0 14 4.5 18t14.5 4h430q11 0 11 -17v-123q0 -16 -4.5 -21t-19.5 -5h-417q-11 0 -15 4.5t-4 18.5z" />
<glyph unicode="&#xb0;" horiz-adv-x="640" d="M39 1048q0 120 74 197t207 77q135 0 208 -78.5t73 -195.5q0 -121 -74 -197t-207 -76q-136 0 -208.5 76.5t-72.5 196.5zM283 1050q0 -102 43 -102q30 0 30 96q0 105 -36 105q-37 0 -37 -99z" />
<glyph unicode="&#xb1;" horiz-adv-x="940" d="M56 384v191h279v335h266v-335h280v-191h-280v-257h-266v257h-279zM60 -99v198h826v-198h-826z" />
<glyph unicode="&#xb2;" horiz-adv-x="735" d="M47 575v166q0 13 9 26q83 64 143 120.5t113.5 125t81 144.5t27.5 157q0 108 -88 108q-33 0 -76 -16l-35 -181q-3 -10 -6 -12.5t-11 -2.5h-131q-10 0 -11.5 1.5t-1.5 15.5v294q0 24 4.5 33.5t18.5 13.5q148 48 266 48q37 0 64.5 -2t62 -8.5t59.5 -18t50.5 -32t41 -49.5 t25.5 -72t10 -97q0 -155 -80.5 -302.5t-241.5 -271.5h149q25 0 39 66l7 63q1 3 1.5 7.5t1 6.5t2 5t3 4t4.5 2t7 1h102q18 0 22 -7t4 -38v-298q0 -12 -2 -14t-11 -2h-614h-1.5t-2.5 1t-2.5 2t-1.5 4.5t-1 8.5z" />
<glyph unicode="&#xb3;" horiz-adv-x="718" d="M41 613v162q0 14 5 18.5t19 1.5q13 -3 47.5 -14t75 -19t88.5 -8q77 0 116.5 28t39.5 97q0 63 -25.5 87t-73.5 24h-57q-15 0 -15 23v154q0 11 9 23l128 219h-134q-10 0 -15 -2.5t-10 -18t-8 -47.5l-8 -84q-2 -14 -4.5 -18.5t-13.5 -4.5h-103q-19 0 -22.5 3t-3.5 25v311 q0 18 5 23t23 5h536q9 0 11 -4t2 -18v-125q0 -21 -2.5 -28t-13.5 -22l-155 -233h23q93 0 131 -72.5t38 -206.5q0 -82 -23 -145.5t-58 -100.5t-82 -61t-90.5 -32.5t-89.5 -8.5q-170 0 -279 39q-11 5 -11 30z" />
<glyph unicode="&#xb4;" horiz-adv-x="493" d="M63 1408l88 160q12 25 23.5 33t32.5 8h229q11 0 15.5 -5.5t1.5 -14t-12 -16.5l-177 -178q-36 -36 -78 -36h-108q-22 0 -25.5 10t10.5 39z" />
<glyph unicode="&#xb5;" horiz-adv-x="1098" d="M47 704v95q0 15 4.5 20.5t15.5 7.5q201 39 253 39h54q47 0 47 -62v-489q0 -86 19.5 -117.5t62.5 -31.5q63 0 101 67.5t38 211.5v197q-9 24 -33 28l-60 10q-11 2 -11 24v95q0 25 21 28q201 39 253 39h56q44 0 44 -62v-512q0 -45 6 -70t14 -31.5t21 -6.5q20 0 27 11t7 34 q0 12 1 17.5t6.5 10t16.5 4.5h47q16 0 20 -7.5t4 -33.5q0 -231 -205 -231q-163 0 -212 147q-44 -77 -100.5 -113.5t-145.5 -37.5v-369q0 -15 -5 -20.5t-19 -5.5h-220q-14 0 -18 5t-4 21v957h2v41q0 52 -38 56l-59 10q-11 2 -11 24z" />
<glyph unicode="&#xb6;" horiz-adv-x="875" d="M39 929q0 164 102.5 269t264.5 105h335v-1539h-182v1394h-60v-1394h-181v793q-125 1 -202 108.5t-77 263.5z" />
<glyph unicode="&#xb7;" horiz-adv-x="450" d="M4 467q0 89 62 152.5t150 63.5q89 0 153.5 -64t64.5 -152q0 -86 -64.5 -148t-153.5 -62q-88 0 -150 61t-62 149z" />
<glyph unicode="&#xb8;" horiz-adv-x="426" d="M30 -292q6 17 12 20.5t14 -2.5q28 -13 72 -13q64 0 64 65q0 66 -91 66q-15 0 -17 3t4 23l46 130h127l-21 -73q79 -6 108.5 -43t29.5 -100q0 -85 -58.5 -124.5t-148.5 -39.5q-70 0 -141 30q-24 7 0 58z" />
<glyph unicode="&#xb9;" horiz-adv-x="534" d="M37 577v99q0 11 1.5 15t9.5 5q55 12 86 25t35 33v618q-3 14 -28 2l-72 -47q-24 -11 -24 21v117q0 16 18 28l144 90q47 22 96 22h68q29 0 29 -28v-817q5 -49 99 -60q12 -3 14.5 -7.5t2.5 -20.5v-93q0 -13 -3 -16.5t-14 -3.5h-447q-9 0 -12 3.5t-3 14.5z" />
<glyph unicode="&#xba;" horiz-adv-x="889" d="M39 873q0 89 21.5 165.5t67.5 141.5t127.5 102.5t191.5 37.5t191.5 -37.5t127.5 -102.5t67.5 -141.5t21.5 -165.5t-21.5 -166t-67.5 -142.5t-127.5 -103.5t-191.5 -38q-111 0 -192.5 38t-127 103.5t-67 142.5t-21.5 166zM311 866q0 -102 32.5 -166.5t103.5 -64.5 q70 0 104.5 65.5t34.5 167.5q0 66 -13.5 118.5t-46 88t-79.5 35.5q-69 0 -102.5 -69.5t-33.5 -174.5z" />
<glyph unicode="&#xbb;" horiz-adv-x="934" d="M58 775q-4 8 -5 10.5t0 6t7 9.5l132 100q4 4 6.5 5.5t5.5 0t4.5 -2.5t5 -6t4.5 -6l301 -399q11 -16 10 -21.5t-11 -19.5l-298 -387q-10 -12 -13.5 -13.5t-18.5 4.5l-127 97q-13 10 -13 15t12 20l201 289zM430 188l201 289l-201 298q-7 10 -7 14t9 12l132 100q4 4 6.5 5.5 t5.5 0t4.5 -2.5t5 -6t4.5 -6l302 -399q9 -16 8.5 -22t-10.5 -19l-298 -387q-10 -11 -14.5 -13.5t-17.5 4.5l-128 97q-11 10 -11.5 15t9.5 20z" />
<glyph unicode="&#xbf;" horiz-adv-x="880" d="M34 -67q0 73 16.5 123.5t43.5 77.5t59 45.5t64.5 34.5t59.5 37.5t43.5 62.5t16.5 101v78q0 25 24 25l227 1q23 0 23 -29v-123q0 -86 -16.5 -146.5t-43.5 -92t-59 -52.5t-64 -33.5t-59 -27t-43.5 -42.5t-16.5 -72q0 -111 142 -111q116 0 147 18l24 179q3 14 7 18t21 4h152 q14 0 19 -1t9 -8t4 -22l2 -309q0 -24 -5.5 -32.5t-28.5 -21.5q-109 -58 -368 -58q-100 0 -170 16.5t-124 57.5t-80 115.5t-26 186.5zM331 726q0 66 41 112t101 46q59 0 103 -46.5t44 -111.5q0 -73 -43 -116.5t-104 -43.5q-62 0 -102 43t-40 117z" />
<glyph unicode="&#xc0;" horiz-adv-x="1187" d="M4 22v119q0 25 15 25q59 16 82.5 32.5t23.5 47.5v100q0 219 26 395.5t79 308.5t138 204t198 72q253 0 376 -244t123 -736v-87q0 -48 15 -64.5t65 -23.5q11 -1 15.5 -4.5t5.5 -9t1 -19.5v-112q0 -16 -3 -21t-15 -5h-494q-11 0 -14.5 4t-3.5 18v119q0 10 0.5 14t4 7.5 t10.5 5.5q56 11 80.5 27t27.5 43v146h-412v-125q0 -48 15 -64.5t65 -23.5q16 -1 19.5 -7.5t3.5 -25.5v-112q0 -16 -3.5 -21t-17.5 -5h-408q-7 0 -10.5 0.5t-5.5 4t-2 6v11.5zM289 1596q-9 8 -12 16.5t1.5 13.5t15.5 5h227q22 0 34 -8t24 -33l89 -168q13 -29 9.5 -38.5 t-25.5 -9.5h-106q-41 0 -81 37zM359 620h389q-20 219 -70 341.5t-125 122.5q-72 0 -123 -123.5t-71 -340.5z" />
<glyph unicode="&#xc1;" horiz-adv-x="1187" d="M4 22v119q0 25 15 25q59 16 82.5 32.5t23.5 47.5v100q0 219 26 395.5t79 308.5t138 204t198 72q253 0 376 -244t123 -736v-87q0 -48 15 -64.5t65 -23.5q11 -1 15.5 -4.5t5.5 -9t1 -19.5v-112q0 -16 -3 -21t-15 -5h-494q-11 0 -14.5 4t-3.5 18v119q0 10 0.5 14t4 7.5 t10.5 5.5q56 11 80.5 27t27.5 43v146h-412v-125q0 -48 15 -64.5t65 -23.5q16 -1 19.5 -7.5t3.5 -25.5v-112q0 -16 -3.5 -21t-17.5 -5h-408q-7 0 -10.5 0.5t-5.5 4t-2 6v11.5zM359 620h389q-20 219 -70 341.5t-125 122.5q-72 0 -123 -123.5t-71 -340.5zM501 1426l87 160 q12 25 23.5 33t32.5 8h229q11 0 15.5 -5t2 -13.5t-11.5 -16.5l-177 -179q-35 -35 -78 -35h-108q-22 0 -25.5 9.5t10.5 38.5z" />
<glyph unicode="&#xc2;" horiz-adv-x="1187" d="M4 22v119q0 25 15 25q59 16 82.5 32.5t23.5 47.5v100q0 219 26 395.5t79 308.5t138 204t198 72q253 0 376 -244t123 -736v-87q0 -48 15 -64.5t65 -23.5q11 -1 15.5 -4.5t5.5 -9t1 -19.5v-112q0 -16 -3 -21t-15 -5h-494q-11 0 -14.5 4t-3.5 18v119q0 10 0.5 14t4 7.5 t10.5 5.5q56 11 80.5 27t27.5 43v146h-412v-125q0 -48 15 -64.5t65 -23.5q16 -1 19.5 -7.5t3.5 -25.5v-112q0 -16 -3.5 -21t-17.5 -5h-408q-7 0 -10.5 0.5t-5.5 4t-2 6v11.5zM307 1383q0 5 -1.5 7t1.5 7.5t4 7.5t4.5 7.5t4.5 6.5l131 180q13 19 27.5 24.5t40.5 5.5h97 q26 0 41 -5.5t28 -24.5l130 -182q11 -18 12.5 -24t-4.5 -25q-5 -18 -30 -3l-225 108h-2l-223 -108q-10 -4 -15.5 -5t-10 3.5t-5 6.5t-5.5 13zM359 620h389q-20 219 -70 341.5t-125 122.5q-72 0 -123 -123.5t-71 -340.5z" />
<glyph unicode="&#xc3;" horiz-adv-x="1187" d="M4 22v119q0 25 15 25q59 16 82.5 32.5t23.5 47.5v100q0 219 26 395.5t79 308.5t138 204t198 72q253 0 376 -244t123 -736v-87q0 -48 15 -64.5t65 -23.5q11 -1 15.5 -4.5t5.5 -9t1 -19.5v-112q0 -16 -3 -21t-15 -5h-494q-11 0 -14.5 4t-3.5 18v119q0 10 0.5 14t4 7.5 t10.5 5.5q56 11 80.5 27t27.5 43v146h-412v-125q0 -48 15 -64.5t65 -23.5q16 -1 19.5 -7.5t3.5 -25.5v-112q0 -16 -3.5 -21t-17.5 -5h-408q-7 0 -10.5 0.5t-5.5 4t-2 6v11.5zM357 1460q17 53 61 101.5t94 48.5q42 0 93 -30.5t78 -30.5q26 0 38 34q4 18 20 11l73 -34 q13 -5 14.5 -10.5t-3.5 -20.5q-18 -56 -61 -105.5t-94 -49.5q-44 0 -99.5 31.5t-73.5 31.5q-4 0 -7 -1t-6 -3.5t-5 -4t-4.5 -6t-3.5 -6t-3.5 -8t-3.5 -8.5q-9 -17 -21 -9l-69 35q-14 7 -17.5 13t0.5 21zM359 620h389q-20 219 -70 341.5t-125 122.5q-72 0 -123 -123.5 t-71 -340.5z" />
<glyph unicode="&#xc4;" horiz-adv-x="1187" d="M4 22v119q0 25 15 25q59 16 82.5 32.5t23.5 47.5v100q0 219 26 395.5t79 308.5t138 204t198 72q253 0 376 -244t123 -736v-87q0 -48 15 -64.5t65 -23.5q11 -1 15.5 -4.5t5.5 -9t1 -19.5v-112q0 -16 -3 -21t-15 -5h-494q-11 0 -14.5 4t-3.5 18v119q0 10 0.5 14t4 7.5 t10.5 5.5q56 11 80.5 27t27.5 43v146h-412v-125q0 -48 15 -64.5t65 -23.5q16 -1 19.5 -7.5t3.5 -25.5v-112q0 -16 -3.5 -21t-17.5 -5h-408q-7 0 -10.5 0.5t-5.5 4t-2 6v11.5zM290 1489q0 54 34.5 92.5t86.5 38.5q54 0 89.5 -38.5t35.5 -92.5q0 -55 -35.5 -92.5t-89.5 -37.5 q-53 0 -87 37.5t-34 92.5zM359 620h389q-20 219 -70 341.5t-125 122.5q-72 0 -123 -123.5t-71 -340.5zM598 1489q0 54 34.5 92.5t88.5 38.5q53 0 88.5 -38.5t35.5 -92.5q0 -55 -35 -92.5t-88 -37.5q-55 0 -89.5 37t-34.5 93z" />
<glyph unicode="&#xc5;" horiz-adv-x="1187" d="M4 22v119q0 25 15 25q59 16 82.5 32.5t23.5 47.5v100q0 219 26 395.5t79 308.5t138 204t198 72q253 0 376 -244t123 -736v-87q0 -48 15 -64.5t65 -23.5q11 -1 15.5 -4.5t5.5 -9t1 -19.5v-112q0 -16 -3 -21t-15 -5h-494q-11 0 -14.5 4t-3.5 18v119q0 10 0.5 14t4 7.5 t10.5 5.5q56 11 80.5 27t27.5 43v146h-412v-125q0 -48 15 -64.5t65 -23.5q16 -1 19.5 -7.5t3.5 -25.5v-112q0 -16 -3.5 -21t-17.5 -5h-408q-7 0 -10.5 0.5t-5.5 4t-2 6v11.5zM330 1497q0 134 236 134t236 -134q0 -136 -236 -136t-236 136zM359 620h389q-20 219 -70 341.5 t-125 122.5q-72 0 -123 -123.5t-71 -340.5zM518 1497q0 -22 12 -39t36 -17t36 17t12 39q0 21 -12.5 37.5t-35.5 16.5q-24 0 -36 -16.5t-12 -37.5z" />
<glyph unicode="&#xc6;" horiz-adv-x="1629" d="M4 22v119q0 25 15 25q59 16 82.5 32.5t23.5 47.5v100q0 219 26 395.5t79 308.5t138 204t198 72q122 0 216 -60v13q0 15 5.5 19.5t16.5 4.5h732q9 0 12.5 -1t5.5 -5t2 -14v-343q0 -35 -20 -35h-138q-14 0 -17 5t-7 23l-11 84q-9 47 -17.5 65t-25.5 18l-257 -2v-331h216 q12 0 17 -4t5 -18v-162q0 -19 -4 -25.5t-18 -6.5h-216v-87q0 -18 1 -57.5t1 -60.5v-87q0 -41 7 -54l263 -2q16 0 25 19t18 65l11 84q0 2 1 6q4 18 11 20l10 1h142q18 0 18 -35v-343q0 -14 -3 -17t-15 -3h-898q-11 0 -14.5 4t-3.5 18v119q0 10 0.5 14t4 7.5t10.5 5.5 q56 11 80.5 27t27.5 43v146h-412v-125q0 -48 15 -64.5t65 -23.5q16 -1 19.5 -7.5t3.5 -25.5v-112q0 -16 -3.5 -21t-17.5 -5h-408q-7 0 -10.5 0.5t-5.5 4t-2 6v11.5zM359 620h389q-20 219 -70 341.5t-125 122.5q-72 0 -123 -123.5t-71 -340.5z" />
<glyph unicode="&#xc7;" horiz-adv-x="1046" d="M50 648q0 337 137.5 505.5t408.5 168.5q98 0 205.5 -15t144.5 -32q17 -8 21.5 -19.5t4.5 -39.5v-376q0 -15 -3.5 -19t-15.5 -4h-169q-11 0 -15.5 4t-7.5 15l-40 248q-20 6 -30.5 8t-32 4t-53.5 2q-40 0 -76.5 -15t-71 -49.5t-59.5 -86t-40 -130t-15 -175.5 q0 -98 21.5 -174t55 -120.5t78.5 -73.5t86.5 -39t85.5 -10q33 0 62 1.5t66.5 7t53 7.5t66 11.5t61.5 11.5q14 3 20 -5t6 -24v-151q0 -21 -5.5 -33.5t-23.5 -18.5q-109 -41 -300 -47l-11 -43q79 -6 108 -43t29 -100q0 -35 -11 -63.5t-30 -47t-46 -30.5t-56 -17.5t-63 -5.5 q-71 0 -142 30q-8 2 -11 7.5t-1 14.5t4 15t7 18q1 2 1 3q6 17 12 20.5t14 -2.5q28 -13 73 -13q63 0 63 65q0 66 -91 66q-15 0 -17 3.5t4 22.5l35 102q-251 17 -374 179.5t-123 481.5z" />
<glyph unicode="&#xc8;" horiz-adv-x="955" d="M45 344q0 67 14.5 120t35.5 85t52.5 56t56.5 35.5t57 20.5q-168 46 -168 315q0 83 20.5 144.5t54.5 99.5t86.5 61.5t108.5 32t127 8.5q112 0 191.5 -12.5t163.5 -41.5q17 -6 21.5 -17t4.5 -41v-303q0 -16 -3 -19.5t-13 -3.5h-146q-8 0 -11.5 3.5t-6.5 15.5l-43 181 q-52 14 -134 14q-32 0 -55 -4.5t-47.5 -18.5t-37.5 -45t-13 -79q0 -103 43.5 -137t137.5 -34h84q22 0 22 -26v-169q0 -26 -22 -26h-84q-89 0 -137.5 -39t-48.5 -133q0 -93 55.5 -129t171.5 -36q92 0 206 20.5t118 20.5q18 0 18 -25v-188q0 -15 -4 -20t-18 -8 q-207 -41 -438 -41q-420 0 -420 363zM210 1596q-9 8 -11.5 16.5t2 13.5t15.5 5h227q22 0 34 -8t24 -33l89 -168q13 -29 9 -38.5t-26 -9.5h-106q-40 0 -80 37z" />
<glyph unicode="&#xc9;" horiz-adv-x="955" d="M45 344q0 67 14.5 120t35.5 85t52.5 56t56.5 35.5t57 20.5q-168 46 -168 315q0 83 20.5 144.5t54.5 99.5t86.5 61.5t108.5 32t127 8.5q112 0 191.5 -12.5t163.5 -41.5q17 -6 21.5 -17t4.5 -41v-303q0 -16 -3 -19.5t-13 -3.5h-146q-8 0 -11.5 3.5t-6.5 15.5l-43 181 q-52 14 -134 14q-32 0 -55 -4.5t-47.5 -18.5t-37.5 -45t-13 -79q0 -103 43.5 -137t137.5 -34h84q22 0 22 -26v-169q0 -26 -22 -26h-84q-89 0 -137.5 -39t-48.5 -133q0 -93 55.5 -129t171.5 -36q92 0 206 20.5t118 20.5q18 0 18 -25v-188q0 -15 -4 -20t-18 -8 q-207 -41 -438 -41q-420 0 -420 363zM424 1426l88 160q12 25 23.5 33t32.5 8h229q11 0 15.5 -5t1.5 -13.5t-12 -16.5l-176 -179q-35 -35 -79 -35h-108q-22 0 -25.5 9.5t10.5 38.5z" />
<glyph unicode="&#xca;" horiz-adv-x="955" d="M45 344q0 67 14.5 120t35.5 85t52.5 56t56.5 35.5t57 20.5q-168 46 -168 315q0 83 20.5 144.5t54.5 99.5t86.5 61.5t108.5 32t127 8.5q112 0 191.5 -12.5t163.5 -41.5q17 -6 21.5 -17t4.5 -41v-303q0 -16 -3 -19.5t-13 -3.5h-146q-8 0 -11.5 3.5t-6.5 15.5l-43 181 q-52 14 -134 14q-32 0 -55 -4.5t-47.5 -18.5t-37.5 -45t-13 -79q0 -103 43.5 -137t137.5 -34h84q22 0 22 -26v-169q0 -26 -22 -26h-84q-89 0 -137.5 -39t-48.5 -133q0 -93 55.5 -129t171.5 -36q92 0 206 20.5t118 20.5q18 0 18 -25v-188q0 -15 -4 -20t-18 -8 q-207 -41 -438 -41q-420 0 -420 363zM231 1383q-1 3 -1.5 6t0.5 5.5t3 6.5t3.5 6t4 6t3.5 6l130 180q13 19 28 24.5t41 5.5h97q13 0 21 -1t17 -3.5t16.5 -9t14.5 -16.5l130 -182q11 -17 12.5 -24t-4 -25t-30.5 -3l-225 108h-2l-224 -108q-10 -4 -15.5 -5t-9.5 2.5t-5.5 7 t-4.5 13.5z" />
<glyph unicode="&#xcb;" horiz-adv-x="955" d="M45 344q0 67 14.5 120t35.5 85t52.5 56t56.5 35.5t57 20.5q-168 46 -168 315q0 83 20.5 144.5t54.5 99.5t86.5 61.5t108.5 32t127 8.5q112 0 191.5 -12.5t163.5 -41.5q17 -6 21.5 -17t4.5 -41v-303q0 -16 -3 -19.5t-13 -3.5h-146q-8 0 -11.5 3.5t-6.5 15.5l-43 181 q-52 14 -134 14q-32 0 -55 -4.5t-47.5 -18.5t-37.5 -45t-13 -79q0 -103 43.5 -137t137.5 -34h84q22 0 22 -26v-169q0 -26 -22 -26h-84q-89 0 -137.5 -39t-48.5 -133q0 -93 55.5 -129t171.5 -36q92 0 206 20.5t118 20.5q18 0 18 -25v-188q0 -15 -4 -20t-18 -8 q-207 -41 -438 -41q-420 0 -420 363zM212 1489q0 54 34.5 92.5t86.5 38.5q54 0 89.5 -38.5t35.5 -92.5q0 -55 -35.5 -92.5t-89.5 -37.5q-53 0 -87 37.5t-34 92.5zM519 1489q0 54 34.5 92.5t88.5 38.5q53 0 89 -38.5t36 -92.5q0 -55 -35 -92.5t-88 -37.5q-55 0 -90 37.5 t-35 92.5z" />
<glyph unicode="&#xcc;" horiz-adv-x="619" d="M30 1596q-9 8 -12 16.5t1.5 13.5t15.5 5h228q22 0 33.5 -8t23.5 -33l90 -168q13 -29 9 -38.5t-26 -9.5h-106q-40 0 -80 37zM48 22v119q0 10 0.5 14t4 7.5t10.5 5.5q60 13 83 29.5t23 51.5v30h2v777q-1 40 -18 54.5t-64 21.5q-11 1 -15.5 4.5t-5.5 9t-1 19.5v112 q0 16 3.5 21t17.5 5h467q10 0 13.5 -4t3.5 -18v-119q0 -14 -2 -18.5t-13 -7.5q-58 -13 -81.5 -28.5t-24.5 -46.5v-834q4 -28 21 -39.5t59 -16.5q11 -1 15.5 -4.5t5.5 -9t1 -19.5v-112q0 -16 -3.5 -21t-17.5 -5h-465q-13 0 -16 4t-3 18z" />
<glyph unicode="&#xcd;" horiz-adv-x="619" d="M47 22v119v11t1.5 6.5t4 6.5t8.5 3q61 13 84 29.5t23 51.5v30h1v780q-3 37 -19 51.5t-62 21.5q-16 1 -19.5 7.5t-3.5 25.5v112q0 16 3.5 21t17.5 5h467q11 0 14 -4t3 -18v-119q0 -14 -2 -18.5t-13 -7.5q-60 -13 -83 -30t-23 -52v-827q4 -28 21 -39.5t59 -16.5 q11 -1 15.5 -4.5t5.5 -9t1 -19.5v-112q0 -16 -3 -21t-17 -5h-466q-12 0 -15 3.5t-3 18.5zM240 1426l88 160q12 25 23.5 33t32.5 8h229q11 0 15.5 -5t1.5 -13.5t-12 -16.5l-177 -179q-35 -35 -78 -35h-108q-22 0 -25.5 9.5t10.5 38.5z" />
<glyph unicode="&#xce;" horiz-adv-x="619" d="M48 22v119q0 10 0.5 14t4 7.5t10.5 5.5q60 13 83 29.5t23 51.5v30h2v777q-1 40 -18 54.5t-64 21.5q-11 1 -15.5 4.5t-5.5 9t-1 19.5v112q0 16 3.5 21t17.5 5h467q10 0 13.5 -4t3.5 -18v-119q0 -14 -2 -18.5t-13 -7.5q-58 -13 -81.5 -28.5t-24.5 -46.5v-834 q4 -28 21 -39.5t59 -16.5q11 -1 15.5 -4.5t5.5 -9t1 -19.5v-112q0 -16 -3.5 -21t-17.5 -5h-465q-13 0 -16 4t-3 18zM56 1383q-1 3 -1.5 6t0.5 5.5t3 6.5t3.5 6t4 6t3.5 6l130 180q13 19 28 24.5t41 5.5h97q18 0 28 -1.5t21 -8.5t20 -20l130 -182q11 -17 12.5 -24t-4 -25 t-30.5 -3l-225 108h-2l-224 -108q-7 -3 -11.5 -4t-8 0t-5.5 1t-4 5t-2.5 6.5t-3.5 9.5z" />
<glyph unicode="&#xcf;" horiz-adv-x="619" d="M32 1489q0 54 34.5 92.5t86.5 38.5q54 0 89 -38.5t35 -92.5q0 -55 -35 -92.5t-89 -37.5q-53 0 -87 37.5t-34 92.5zM48 22v119q0 10 0.5 14t4 7.5t10.5 5.5q60 13 83 29.5t23 51.5v30h2v777q-1 40 -18 54.5t-64 21.5q-11 1 -15.5 4.5t-5.5 9t-1 19.5v112q0 16 3.5 21 t17.5 5h467q10 0 13.5 -4t3.5 -18v-119q0 -14 -2 -18.5t-13 -7.5q-58 -13 -81.5 -28.5t-24.5 -46.5v-834q4 -28 21 -39.5t59 -16.5q11 -1 15.5 -4.5t5.5 -9t1 -19.5v-112q0 -16 -3.5 -21t-17.5 -5h-465q-13 0 -16 4t-3 18zM339 1489q0 54 34.5 92.5t88.5 38.5 q53 0 88.5 -38.5t35.5 -92.5q0 -55 -34.5 -92.5t-87.5 -37.5q-55 0 -90 37.5t-35 92.5z" />
<glyph unicode="&#xd0;" horiz-adv-x="1239" d="M48 581v151q0 14 4 17t15 3h106v309q0 30 -23 45t-83 30q-11 3 -13 6.5t-2 17.5v121q0 14 3 18t14 4h521q136 0 238.5 -29.5t170.5 -83t110.5 -136t60.5 -180.5t18 -224q0 -168 -29 -285t-97 -201t-183 -124t-285 -40h-525q-11 0 -14 4t-3 18v119q0 10 0.5 14t4 7.5 t10.5 5.5q55 11 79 26.5t27 43.5v321h-106q-13 0 -16 3.5t-3 18.5zM467 214h119q138 0 216.5 107.5t78.5 324.5q0 221 -76.5 330t-219.5 109h-118v-333h205q13 0 13 -15v-154q0 -16 -5 -20t-21 -4h-192v-345z" />
<glyph unicode="&#xd1;" horiz-adv-x="1258" d="M48 1162v119q0 14 3.5 18t15.5 4h296q29 0 50 -33l473 -801v589q0 31 -23.5 48t-82.5 30q-11 3 -13 7.5t-2 18.5v119q0 14 3.5 18t15.5 4h409q13 0 16 -4.5t3 -21.5v-112q0 -25 -5 -29q-4 -3 -15 -4q-48 -7 -65 -22.5t-17 -53.5v-1013q0 -43 -25 -43h-169q-31 0 -47 24 l-478 793v-558q0 -47 15.5 -64t64.5 -24q11 -1 15.5 -4.5t5.5 -9t1 -19.5v-112v-13t-1.5 -7t-5.5 -5t-11 -1h-395q-12 0 -14.5 3.5t-2.5 18.5v119q0 22 19 27q50 12 68 29t18 60v814q0 24 -25.5 38t-79.5 27q-11 3 -13 7.5t-2 18.5zM400 1460q17 53 61 101.5t94 48.5 q41 0 93 -30.5t78 -30.5q25 0 37 34q4 19 21 11l72 -34q13 -5 15 -10.5t-3 -20.5q-18 -56 -61 -105.5t-94 -49.5q-44 0 -99.5 31.5t-73.5 31.5q-17 0 -29 -26q-1 -2 -3 -7l-2 -4q-9 -16 -20 -9l-69 35q-14 7 -17.5 13t0.5 21z" />
<glyph unicode="&#xd2;" d="M47 652q0 147 35 267.5t105 211.5t182 141t257 50q146 0 258 -50t182 -141t105 -211.5t35 -267.5t-35 -268.5t-105 -212t-182 -140.5t-258 -50q-145 0 -257 50t-182 140.5t-105 212t-35 268.5zM346 1596q-9 8 -11.5 16.5t2 13.5t15.5 5h227q22 0 34 -8t24 -33l89 -168 q13 -29 9 -38.5t-26 -9.5h-106q-40 0 -80 37zM354 655q0 -201 71.5 -318t200.5 -117q130 0 201.5 117t71.5 318q0 199 -71.5 314t-201.5 115t-201 -114.5t-71 -314.5z" />
<glyph unicode="&#xd3;" d="M47 652q0 147 35 267.5t105 211.5t182 141t257 50q146 0 258 -50t182 -141t105 -211.5t35 -267.5t-35 -268.5t-105 -212t-182 -140.5t-258 -50q-145 0 -257 50t-182 140.5t-105 212t-35 268.5zM354 655q0 -201 71.5 -318t200.5 -117q130 0 201.5 117t71.5 318 q0 199 -71.5 314t-201.5 115t-201 -114.5t-71 -314.5zM560 1426l88 160q12 25 23.5 33t32.5 8h229q11 0 15.5 -5t1.5 -13.5t-12 -16.5l-177 -179q-35 -35 -78 -35h-108q-22 0 -25.5 9.5t10.5 38.5z" />
<glyph unicode="&#xd4;" d="M47 652q0 147 35 267.5t105 211.5t182 141t257 50q146 0 258 -50t182 -141t105 -211.5t35 -267.5t-35 -268.5t-105 -212t-182 -140.5t-258 -50q-145 0 -257 50t-182 140.5t-105 212t-35 268.5zM354 655q0 -201 71.5 -318t200.5 -117q130 0 201.5 117t71.5 318 q0 199 -71.5 314t-201.5 115t-201 -114.5t-71 -314.5zM367 1383q0 5 -1.5 7t1.5 7.5t4 7.5t4.5 7.5t4.5 6.5l130 180q13 19 28 24.5t41 5.5h97q18 0 28 -1.5t21 -8.5t20 -20l130 -182q11 -17 12.5 -24t-4 -25t-30.5 -3l-226 108h-1l-224 -108q-10 -4 -15.5 -5t-9.5 2.5 t-5.5 7t-4.5 13.5z" />
<glyph unicode="&#xd5;" d="M47 652q0 147 35 267.5t105 211.5t182 141t257 50q146 0 258 -50t182 -141t105 -211.5t35 -267.5t-35 -268.5t-105 -212t-182 -140.5t-258 -50q-145 0 -257 50t-182 140.5t-105 212t-35 268.5zM354 655q0 -201 71.5 -318t200.5 -117q130 0 201.5 117t71.5 318 q0 199 -71.5 314t-201.5 115t-201 -114.5t-71 -314.5zM417 1460q17 53 61 101.5t94 48.5q42 0 93 -30.5t78 -30.5q25 0 37 34q4 19 21 11l72 -34q13 -5 14.5 -10.5t-3.5 -20.5q-18 -56 -60.5 -105.5t-93.5 -49.5q-44 0 -99.5 31.5t-73.5 31.5q-17 0 -29 -26q-1 -2 -3 -7 l-2 -4q-9 -16 -20 -9l-69 35q-14 7 -17.5 13t0.5 21z" />
<glyph unicode="&#xd6;" d="M47 652q0 147 35 267.5t105 211.5t182 141t257 50q146 0 258 -50t182 -141t105 -211.5t35 -267.5t-35 -268.5t-105 -212t-182 -140.5t-258 -50q-145 0 -257 50t-182 140.5t-105 212t-35 268.5zM348 1489q0 54 34.5 92.5t86.5 38.5q54 0 89.5 -38.5t35.5 -92.5 q0 -55 -35.5 -92.5t-89.5 -37.5q-53 0 -87 37.5t-34 92.5zM354 655q0 -201 71.5 -318t200.5 -117q130 0 201.5 117t71.5 318q0 199 -71.5 314t-201.5 115t-201 -114.5t-71 -314.5zM655 1489q0 54 34.5 92.5t88.5 38.5q53 0 89 -38.5t36 -92.5q0 -55 -35 -92.5t-88 -37.5 q-55 0 -90 37.5t-35 92.5z" />
<glyph unicode="&#xd7;" horiz-adv-x="739" d="M41 721l117 143l207 -250l182 252l129 -129l-181 -251l201 -248l-117 -143l-203 246l-182 -252l-131 131l183 253z" />
<glyph unicode="&#xd8;" d="M47 652q0 147 35 267.5t105 211.5t182 141t257 50q26 0 78 -4l20 60q9 20 19 20h249q31 0 23 -26l-51 -147q120 -84 181 -233t61 -340q0 -147 -35 -268.5t-105 -212t-182 -140.5t-258 -50q-29 0 -73 4l-22 -67q-3 -10 -9 -15t-12 -6t-18 -1h-246q-8 0 -11.5 5.5t0.5 16.5 l52 158q-120 84 -180 232.5t-60 343.5zM354 655q0 -146 41 -258l231 687q-130 0 -201 -114.5t-71 -314.5zM631 220q127 3 197.5 119.5t70.5 315.5q0 152 -41 250z" />
<glyph unicode="&#xd9;" horiz-adv-x="1197" d="M32 1165v112q0 16 3 21t15 5h496q10 0 13 -4t3 -18v-119q0 -14 -2 -18.5t-13 -7.5q-57 -13 -81 -28.5t-25 -44.5v-560q0 -133 53.5 -208t151.5 -75q94 0 150.5 76t56.5 207v555q-1 38 -18 52.5t-64 21.5q-16 1 -19.5 7.5t-3.5 25.5v112q0 16 3.5 21t17.5 5h395 q12 0 14 -3.5t2 -18.5v-119q0 -24 -15 -24q-59 -16 -82.5 -32.5t-23.5 -47.5v-555q0 -239 -111 -380.5t-339 -141.5q-475 0 -475 522v541q0 48 -15 64.5t-65 23.5q-11 1 -15.5 4.5t-5.5 9t-1 19.5zM367 1596q-9 8 -12 16.5t1.5 13.5t15.5 5h228q22 0 33.5 -8t23.5 -33 l90 -168q13 -29 9 -38.5t-26 -9.5h-106q-40 0 -80 37z" />
<glyph unicode="&#xda;" horiz-adv-x="1197" d="M32 1165v112q0 16 3 21t15 5h496q10 0 13 -4t3 -18v-119q0 -14 -2 -18.5t-13 -7.5q-57 -13 -81 -28.5t-25 -44.5v-560q0 -133 53.5 -208t151.5 -75q94 0 150.5 76t56.5 207v555q-1 38 -18 52.5t-64 21.5q-16 1 -19.5 7.5t-3.5 25.5v112q0 16 3.5 21t17.5 5h395 q12 0 14 -3.5t2 -18.5v-119q0 -24 -15 -24q-59 -16 -82.5 -32.5t-23.5 -47.5v-555q0 -239 -111 -380.5t-339 -141.5q-475 0 -475 522v541q0 48 -15 64.5t-65 23.5q-11 1 -15.5 4.5t-5.5 9t-1 19.5zM579 1426l88 160q12 25 23.5 33t31.5 8h229q11 0 15.5 -5t2 -13.5 t-11.5 -16.5l-177 -179q-35 -35 -78 -35h-108q-22 0 -25.5 9.5t10.5 38.5z" />
<glyph unicode="&#xdb;" horiz-adv-x="1195" d="M32 1165v112q0 16 3 21t15 5h496q10 0 13 -4t3 -18v-119q0 -14 -2 -18.5t-13 -7.5q-57 -13 -81 -28.5t-25 -44.5v-560q0 -133 53.5 -208t151.5 -75q94 0 150.5 76t56.5 207v555q-1 38 -18 52.5t-64 21.5q-16 1 -19.5 7.5t-3.5 25.5v112q0 16 3.5 21t17.5 5h395 q12 0 14 -3.5t2 -18.5v-119q0 -24 -15 -24q-59 -16 -82.5 -32.5t-23.5 -47.5v-555q0 -239 -111 -380.5t-339 -141.5q-475 0 -475 522v541q0 48 -15 64.5t-65 23.5q-11 1 -15.5 4.5t-5.5 9t-1 19.5zM385 1383q-5 8 13 36l131 180q13 19 28 24.5t41 5.5h96q26 0 41 -5.5 t28 -24.5l131 -182q11 -17 12.5 -24t-5.5 -25q-5 -18 -30 -3l-225 108h-2l-223 -108q-10 -4 -15.5 -5t-10 3.5t-5 6.5t-5.5 13z" />
<glyph unicode="&#xdc;" horiz-adv-x="1197" d="M32 1165v112q0 16 3 21t15 5h496q10 0 13 -4t3 -18v-119q0 -14 -2 -18.5t-13 -7.5q-57 -13 -81 -28.5t-25 -44.5v-560q0 -133 53.5 -208t151.5 -75q94 0 150.5 76t56.5 207v555q-1 38 -18 52.5t-64 21.5q-16 1 -19.5 7.5t-3.5 25.5v112q0 16 3.5 21t17.5 5h395 q12 0 14 -3.5t2 -18.5v-119q0 -24 -15 -24q-59 -16 -82.5 -32.5t-23.5 -47.5v-555q0 -239 -111 -380.5t-339 -141.5q-475 0 -475 522v541q0 48 -15 64.5t-65 23.5q-11 1 -15.5 4.5t-5.5 9t-1 19.5zM369 1489q0 54 34.5 92.5t86.5 38.5q54 0 89 -38.5t35 -92.5 q0 -55 -35 -92.5t-89 -37.5q-53 0 -87 37.5t-34 92.5zM676 1489q0 54 34.5 92.5t88.5 38.5q53 0 88.5 -38.5t35.5 -92.5q0 -55 -34.5 -92.5t-87.5 -37.5q-55 0 -90 37.5t-35 92.5z" />
<glyph unicode="&#xdd;" horiz-adv-x="1072" d="M15 1160v121q0 14 3 18t14 4h463q14 0 17.5 -4.5t3.5 -19.5v-115q0 -13 -1 -18.5t-6 -9t-16 -4.5q-50 -5 -65 -13.5t-15 -31.5q0 -140 136 -430h2q166 289 166 430q0 23 -15 31.5t-65 13.5q-14 1 -18.5 8t-4.5 24v115q0 11 1 15t5 6.5t13 2.5h406q14 0 16.5 -3.5 t2.5 -18.5v-121q0 -24 -15 -24q-59 -11 -79 -23.5t-28 -43.5q-25 -135 -96.5 -302t-158.5 -294v-212q0 -49 15 -66t65 -24q16 -1 19.5 -7.5t3.5 -25.5v-112q0 -16 -3.5 -21t-15.5 -5h-467q-12 0 -15.5 4t-3.5 18v119q0 10 0.5 14t4 7.5t10.5 5.5q61 13 83.5 29.5t22.5 51.5 v172q-95 134 -173.5 318.5t-92.5 329.5q-3 24 -25 38.5t-79 28.5q-11 3 -13 6.5t-2 17.5zM506 1426l88 160q12 25 23.5 33t32.5 8h229q11 0 15.5 -5t1.5 -13.5t-12 -16.5l-177 -179q-35 -35 -78 -35h-108q-22 0 -25.5 9.5t10.5 38.5z" />
<glyph unicode="&#xde;" horiz-adv-x="1001" d="M47 22v119v11t1.5 6.5t4 6.5t8.5 3q60 13 83.5 29.5t23.5 51.5v794q0 49 -15 65.5t-67 23.5q-16 1 -19.5 7.5t-3.5 25.5v112q0 16 3.5 21t17.5 5h467q11 0 14 -4t3 -18v-119q0 -14 -2 -18.5t-13 -7.5q-58 -13 -81.5 -28.5t-24.5 -46.5v-22h52q116 0 201.5 -19.5t137 -52 t82 -82t41.5 -101.5t11 -119q0 -78 -11 -141.5t-39.5 -121t-74.5 -96t-118.5 -61t-168.5 -22.5q-61 0 -113 12q3 -33 19.5 -46t62.5 -18q11 -1 15.5 -4.5t5.5 -9t1 -19.5v-112q0 -16 -3 -21t-17 -5h-466q-12 0 -15 3.5t-3 18.5zM447 458q9 -5 40.5 -9t50.5 -4q64 0 102 52.5 t38 154.5q0 86 -41 136t-108 50h-82v-380z" />
<glyph unicode="&#xdf;" horiz-adv-x="1061" d="M95 30v899q0 204 100 298.5t304 94.5q88 0 160.5 -18.5t130.5 -56.5t90 -103t32 -152q0 -55 -9 -98.5t-30.5 -80.5t-39 -60t-51.5 -60q244 -106 244 -339q0 -170 -128 -262t-371 -92h-30q-16 0 -21 4.5t-5 15.5v149q0 16 5.5 20.5t22.5 4.5h41q88 0 145.5 41t57.5 121 q0 36 -12.5 65.5t-37 52.5t-47 39t-58 37.5t-54.5 35.5q-47 35 -58 53q-14 21 -14 46q0 46 59 101q5 5 25 23t26.5 25t20.5 25t19 32t10 37t5 49q0 80 -31 110t-90 30q-77 0 -111 -44t-34 -144v-897q0 -20 -4.5 -26t-19.5 -6h-212q-18 0 -24 5t-6 25z" />
<glyph unicode="&#xe0;" horiz-adv-x="943" d="M39 209q0 73 20 123t53.5 74t75.5 38.5t86.5 17t86.5 10t75.5 17t53.5 37t20 72.5q0 53 -26 80.5t-93 27.5q-43 0 -89 -23l-32 -154q0 -17 -19 -17h-132q-13 0 -15 2.5t-2 16.5v251q0 24 5 35.5t20 18.5q34 18 114.5 33t169.5 15q204 0 295 -86.5t91 -253.5v-252 q0 -65 11 -86.5t32 -21.5q18 0 24.5 11t6.5 34q0 11 1 16.5t7 10.5t18 5h45q16 0 21 -8t5 -33q0 -231 -207 -231q-148 0 -201 117q-55 -123 -268 -123q-130 0 -191.5 51.5t-61.5 174.5zM212 1201q-9 8 -11.5 16.5t2 13.5t15.5 5h227q22 0 34 -8t24 -33l89 -167q13 -29 9 -39 t-26 -10h-106q-39 0 -80 38zM315 216q0 -69 57 -69q52 0 94 51.5t53 132.5l10 73q-13 -40 -40 -61.5t-56 -28t-56 -13t-44.5 -26.5t-17.5 -59z" />
<glyph unicode="&#xe1;" horiz-adv-x="1016" d="M45 434q0 131 31 229.5t103 159.5t178 61q72 0 138 -23.5t103 -74.5v20q0 60 42 60h45q21 0 52.5 -6.5t90 -20.5t110.5 -24q8 -1 11.5 -3t6.5 -7.5t3 -16.5v-110q0 -15 -2.5 -20t-12.5 -6l-56 -8q-34 -7 -37 -50v-322q1 -52 12.5 -70t30.5 -18q33 0 33 45q0 12 1 17.5 t6.5 10t16.5 4.5h45q17 0 21.5 -7.5t4.5 -33.5q0 -231 -205 -231q-155 0 -206 126q-81 -128 -261 -128q-102 0 -172 60t-101.5 158.5t-31.5 228.5zM322 439q0 -67 13.5 -120.5t44 -88.5t74.5 -35q49 0 81.5 38.5t47.5 107.5v5q9 42 9 95q0 111 -35 177.5t-101 66.5 q-65 0 -99.5 -70.5t-34.5 -175.5zM415 1031l88 161q12 25 23.5 33t32.5 8h229q11 0 15.5 -5.5t1.5 -14t-12 -16.5l-177 -179q-35 -35 -78 -35h-108q-22 0 -25.5 9.5t10.5 38.5z" />
<glyph unicode="&#xe2;" horiz-adv-x="943" d="M39 209q0 73 20 123t53.5 74t75.5 38.5t86.5 17t86.5 10t75.5 17t53.5 37t20 72.5q0 53 -26 80.5t-93 27.5q-43 0 -89 -23l-32 -154q0 -17 -19 -17h-132q-13 0 -15 2.5t-2 16.5v251q0 24 5 35.5t20 18.5q34 18 114.5 33t169.5 15q204 0 295 -86.5t91 -253.5v-252 q0 -65 11 -86.5t32 -21.5q18 0 24.5 11t6.5 34q0 11 1 16.5t7 10.5t18 5h45q16 0 21 -8t5 -33q0 -231 -207 -231q-148 0 -201 117q-55 -123 -268 -123q-130 0 -191.5 51.5t-61.5 174.5zM231 989q-1 2 -1.5 4.5t0 5t1.5 5t3 5.5t3.5 5t3.5 5t3 5l130 181q13 19 27.5 24 t41.5 5h97q27 0 41.5 -5t27.5 -24l130 -183q11 -17 12.5 -23.5t-4.5 -24.5q-6 -19 -30 -4l-225 108h-2l-224 -108q-10 -4 -15.5 -5t-9.5 3.5t-5.5 7.5t-4.5 13zM315 216q0 -37 14 -53t43 -16q52 0 94 51.5t53 132.5l10 73q-13 -40 -40 -61.5t-56 -28t-56 -13t-44.5 -26.5 t-17.5 -59z" />
<glyph unicode="&#xe3;" horiz-adv-x="943" d="M39 209q0 73 20 123t53.5 74t75.5 38.5t86.5 17t86.5 10t75.5 17t53.5 37t20 72.5q0 53 -26 80.5t-93 27.5q-43 0 -89 -23l-32 -154q0 -17 -19 -17h-132q-13 0 -15 2.5t-2 16.5v251q0 24 5 35.5t20 18.5q34 18 114.5 33t169.5 15q204 0 295 -86.5t91 -253.5v-252 q0 -65 11 -86.5t32 -21.5q18 0 24.5 11t6.5 34q0 11 1 16.5t7 10.5t18 5h45q16 0 21 -8t5 -33q0 -231 -207 -231q-148 0 -201 117q-55 -123 -268 -123q-130 0 -191.5 51.5t-61.5 174.5zM281 1065q17 53 61 102t94 49q42 0 93 -31t78 -31q25 0 37 34q4 19 21 11l72 -34 q13 -5 14.5 -10.5t-3.5 -20.5q-18 -56 -60.5 -105.5t-93.5 -49.5q-44 0 -99.5 32t-73.5 32q-3 0 -6 -0.5t-5 -2t-4 -2.5t-4 -4l-3 -4.5t-3 -5.5l-3 -6t-3 -6.5t-3 -6.5q-9 -16 -20 -9l-69 35q-14 7 -17.5 13t0.5 21zM315 216q0 -69 57 -69q52 0 94 51.5t53 132.5l10 73 q-13 -40 -40 -61.5t-56 -28t-56 -13t-44.5 -26.5t-17.5 -59z" />
<glyph unicode="&#xe4;" horiz-adv-x="943" d="M39 209q0 73 20 123t53.5 74t75.5 38.5t86.5 17t86.5 10t75.5 17t53.5 37t20 72.5q0 53 -26 80.5t-93 27.5q-43 0 -89 -23l-32 -154q0 -17 -19 -17h-132q-13 0 -15 2.5t-2 16.5v251q0 24 5 35.5t20 18.5q34 18 114.5 33t169.5 15q204 0 295 -86.5t91 -253.5v-252 q0 -65 11 -86.5t32 -21.5q18 0 24.5 11t6.5 34q0 11 1 16.5t7 10.5t18 5h45q16 0 21 -8t5 -33q0 -231 -207 -231q-148 0 -201 117q-55 -123 -268 -123q-130 0 -191.5 51.5t-61.5 174.5zM214 1095q0 54 34.5 92t86.5 38q54 0 89.5 -38t35.5 -92q0 -55 -35.5 -93t-89.5 -38 q-53 0 -87 38t-34 93zM315 216q0 -69 57 -69q52 0 94 51.5t53 132.5l10 73q-13 -40 -40 -61.5t-56 -28t-56 -13t-44.5 -26.5t-17.5 -59zM521 1095q0 54 34.5 92t88.5 38q53 0 89 -38t36 -92q0 -55 -35 -93t-88 -38q-55 0 -90 37.5t-35 93.5z" />
<glyph unicode="&#xe5;" horiz-adv-x="943" d="M39 209q0 73 20 123t53.5 74t75.5 38.5t86.5 17t86.5 10t75.5 17t53.5 37t20 72.5q0 53 -26 80.5t-93 27.5q-43 0 -89 -23l-32 -154q0 -17 -19 -17h-132q-13 0 -15 2.5t-2 16.5v251q0 24 5 35.5t20 18.5q34 18 114.5 33t169.5 15q204 0 295 -86.5t91 -253.5v-252 q0 -65 11 -86.5t32 -21.5q18 0 24.5 11t6.5 34q0 11 1 16.5t7 10.5t18 5h45q16 0 21 -8t5 -33q0 -231 -207 -231q-148 0 -201 117q-55 -123 -268 -123q-130 0 -191.5 51.5t-61.5 174.5zM253 1102q0 134 237 134q236 0 236 -134q0 -136 -236 -136q-237 0 -237 136zM315 216 q0 -69 57 -69q52 0 94 51.5t53 132.5l10 73q-13 -40 -40 -61.5t-56 -28t-56 -13t-44.5 -26.5t-17.5 -59zM441 1102q0 -22 12.5 -39t36.5 -17t36 17t12 39q0 21 -12.5 37.5t-35.5 16.5q-24 0 -36.5 -16.5t-12.5 -37.5z" />
<glyph unicode="&#xe6;" horiz-adv-x="1368" d="M39 220q0 67 16.5 115.5t39.5 75t62.5 44t70 23t77.5 10.5q118 12 153 27q52 22 52 71q0 46 -22.5 69t-83.5 23q-62 0 -115 -21l-19 -110q-5 -16 -19 -16h-132q-13 0 -15 2.5t-2 15.5v235q0 25 4.5 36t18.5 18q37 17 117.5 31.5t167.5 14.5q182 0 277 -78q95 78 270 78 q181 0 265.5 -73.5t84.5 -220.5q0 -64 -13 -112t-40.5 -78.5t-58.5 -49.5t-79 -28t-89 -12t-100 -3q-58 0 -78 2q45 -115 197 -115q50 0 136 23.5t110 26.5q10 4 16 2.5t6 -17.5v-134q0 -25 -4.5 -34t-17.5 -16q-48 -30 -129.5 -47t-158.5 -17q-253 0 -358 127 q-78 -127 -311 -127q-153 0 -224.5 54.5t-71.5 184.5zM317 229q0 -41 13 -56t41 -15q58 0 108 57.5t50 143.5v39q-26 -70 -110 -83q-25 -4 -34.5 -5.5t-26.5 -7.5t-23 -14t-12 -23t-6 -36zM829 471q26 0 44.5 1t46.5 4.5t47 11.5t38 20.5t28.5 34t9.5 49.5q0 48 -23 72.5 t-54 24.5q-62 0 -98 -57.5t-39 -160.5z" />
<glyph unicode="&#xe7;" horiz-adv-x="804" d="M41 419q0 114 28.5 202t81.5 146t128.5 87.5t169.5 29.5q85 0 159.5 -14.5t106.5 -31.5q15 -7 19.5 -18t4.5 -36v-287q0 -13 -3 -16t-14 -3h-134q-13 0 -16 17l-32 158q-19 14 -35 18.5t-43 4.5q-67 0 -107 -61.5t-40 -180.5q0 -68 15 -115t44 -72.5t64 -36.5t80 -11 q82 0 216 30q13 3 18.5 -3t5.5 -23v-142q0 -12 -5.5 -18t-18.5 -11q-90 -32 -202 -39l-13 -51q41 -3 69.5 -15t42.5 -32.5t20 -43t6 -52.5q0 -44 -16.5 -76.5t-46 -51t-65.5 -27.5t-78 -9q-71 0 -142 30q-8 2 -11 7.5t-1 14.5t4 15t7 18q1 2 1 3q6 17 12 20.5t14 -2.5 q28 -13 73 -13q63 0 63 65q0 66 -91 66q-16 0 -17.5 3.5t4.5 22.5l37 106q-182 8 -272.5 113t-90.5 315z" />
<glyph unicode="&#xe8;" horiz-adv-x="852" d="M43 434q0 228 97 339t305 111q181 0 265.5 -73.5t84.5 -220.5q0 -64 -13 -112t-40.5 -78.5t-58.5 -49.5t-79 -28t-89 -12t-100 -3q-58 0 -78 2q45 -115 197 -115q50 0 136 23.5t110 26.5q10 4 16 2.5t6 -17.5v-134q0 -25 -4.5 -34t-17.5 -16q-48 -30 -129.5 -47 t-158.5 -17q-235 0 -342 110t-107 343zM168 1201q-9 8 -12 16.5t1.5 13.5t15.5 5h227q22 0 34 -8t24 -33l89 -167q13 -29 9.5 -39t-25.5 -10h-107q-39 0 -80 38zM317 471q26 0 44.5 1t46.5 4.5t47 11.5t38 20.5t28.5 34t9.5 49.5q0 48 -23 72.5t-54 24.5q-62 0 -98 -57.5 t-39 -160.5z" />
<glyph unicode="&#xe9;" horiz-adv-x="852" d="M43 434q0 228 97 339t305 111q181 0 265.5 -73.5t84.5 -220.5q0 -64 -13 -112t-40.5 -78.5t-58.5 -49.5t-79 -28t-89 -12t-100 -3q-58 0 -78 2q45 -115 197 -115q50 0 136 23.5t110 26.5q10 4 16 2.5t6 -17.5v-134q0 -25 -4.5 -34t-17.5 -16q-48 -30 -129.5 -47 t-158.5 -17q-235 0 -342 110t-107 343zM317 471q26 0 44.5 1t46.5 4.5t47 11.5t38 20.5t28.5 34t9.5 49.5q0 48 -23 72.5t-54 24.5q-62 0 -98 -57.5t-39 -160.5zM380 1031l87 161q12 25 23.5 33t32.5 8h229q11 0 15.5 -5.5t2 -14t-11.5 -16.5l-177 -179q-35 -35 -78 -35 h-108q-22 0 -25.5 9.5t10.5 38.5z" />
<glyph unicode="&#xea;" horiz-adv-x="852" d="M43 434q0 228 97 339t305 111q181 0 265.5 -73.5t84.5 -220.5q0 -64 -13 -112t-40.5 -78.5t-58.5 -49.5t-79 -28t-89 -12t-100 -3q-58 0 -78 2q45 -115 197 -115q50 0 136 23.5t110 26.5q10 4 16 2.5t6 -17.5v-134q0 -25 -4.5 -34t-17.5 -16q-48 -30 -129.5 -47 t-158.5 -17q-235 0 -342 110t-107 343zM186 989q-1 5 -1.5 7t1.5 7t3.5 7t5 7t4.5 7l131 181q13 19 27 24t41 5h97q27 0 41.5 -5t27.5 -24l130 -183q11 -17 12.5 -23.5t-4.5 -24.5q-6 -19 -30 -4l-225 108h-2l-223 -108q-22 -5 -25.5 -2t-10.5 21zM317 471q26 0 44.5 1 t46.5 4.5t47 11.5t38 20.5t28.5 34t9.5 49.5q0 48 -23 72.5t-54 24.5q-62 0 -98 -57.5t-39 -160.5z" />
<glyph unicode="&#xeb;" horiz-adv-x="852" d="M43 434q0 228 97 339t305 111q181 0 265.5 -73.5t84.5 -220.5q0 -64 -13 -112t-40.5 -78.5t-58.5 -49.5t-79 -28t-89 -12t-100 -3q-58 0 -78 2q45 -115 197 -115q50 0 136 23.5t110 26.5q10 4 16 2.5t6 -17.5v-134q0 -25 -4.5 -34t-17.5 -16q-48 -30 -129.5 -47 t-158.5 -17q-235 0 -342 110t-107 343zM169 1095q0 54 34.5 92t86.5 38q54 0 89.5 -38t35.5 -92q0 -55 -35.5 -93t-89.5 -38q-53 0 -87 38t-34 93zM317 471q26 0 44.5 1t46.5 4.5t47 11.5t38 20.5t28.5 34t9.5 49.5q0 48 -23 72.5t-54 24.5q-62 0 -98 -57.5t-39 -160.5z M477 1095q0 54 34.5 92t88.5 38q53 0 88.5 -38t35.5 -92q0 -55 -35 -93t-88 -38q-55 0 -89.5 37.5t-34.5 93.5z" />
<glyph unicode="&#xec;" horiz-adv-x="560" d="M-9 1201q-9 8 -12 16.5t1.5 13.5t15.5 5h227q22 0 34 -8t24 -33l90 -167q13 -29 9 -39t-26 -10h-106q-39 0 -80 38zM28 689v110q0 16 4 21t15 7q184 39 253 39h57q45 0 45 -60v-514q0 -45 6 -70t14 -31.5t21 -6.5q20 0 27 11t7 34q0 11 1.5 17t7.5 10.5t17 4.5h44 q16 0 20.5 -7.5t4.5 -33.5q0 -231 -203 -231q-235 0 -235 303v306q0 53 -37 57l-58 10q-11 0 -11 24z" />
<glyph unicode="&#xed;" horiz-adv-x="560" d="M28 689v110q0 16 4 21t15 7q184 39 253 39h57q45 0 45 -60v-514q0 -45 6 -70t14 -31.5t21 -6.5q20 0 27 11t7 34q0 11 1.5 17t7.5 10.5t17 4.5h44q16 0 20.5 -7.5t4.5 -33.5q0 -231 -203 -231q-235 0 -235 303v306q0 53 -37 57l-58 10q-11 0 -11 24zM203 1031l87 161 q12 25 23.5 33t32.5 8h229q11 0 15.5 -5.5t2 -14t-11.5 -16.5l-177 -179q-35 -35 -78 -35h-108q-22 0 -25.5 9.5t10.5 38.5z" />
<glyph unicode="&#xee;" horiz-adv-x="560" d="M9 989q-1 5 -1.5 7t1.5 7t3.5 7t5 7t4.5 7l131 181q13 19 27.5 24t41.5 5h96q18 0 27.5 -1.5t21 -8t20.5 -19.5l131 -183q11 -17 12.5 -23.5t-5.5 -24.5q-6 -19 -30 -4l-225 108h-2l-223 -108q-22 -5 -25.5 -2t-10.5 21zM28 689v110q0 11 2 17t6 8t11 3q184 39 253 39h57 q45 0 45 -60v-514q0 -45 6 -70t14 -31.5t21 -6.5q14 0 21.5 5.5t10 15t2.5 24.5q0 11 1.5 17t7.5 10.5t17 4.5h44q16 0 20.5 -7.5t4.5 -33.5q0 -231 -203 -231q-112 0 -173.5 71t-61.5 232v306q0 53 -37 57l-58 10q-11 0 -11 24z" />
<glyph unicode="&#xef;" horiz-adv-x="560" d="M-7 1095q0 54 34.5 92t86.5 38q54 0 89 -38t35 -92q0 -55 -35 -93t-89 -38q-53 0 -87 38t-34 93zM28 689v110q0 16 4 21t15 7q184 39 253 39h57q45 0 45 -60v-514q0 -45 6 -70t14 -31.5t21 -6.5q20 0 27 11t7 34q0 11 1.5 17t7.5 10.5t17 4.5h44q16 0 20.5 -7.5 t4.5 -33.5q0 -231 -203 -231q-235 0 -235 303v306q0 53 -37 57l-58 10q-11 0 -11 24zM300 1095q0 54 34.5 92t88.5 38q53 0 88.5 -38t35.5 -92q0 -55 -35 -93t-88 -38q-55 0 -89.5 37.5t-34.5 93.5z" />
<glyph unicode="&#xf0;" horiz-adv-x="936" d="M43 428q0 84 17.5 155t54.5 131t103.5 94.5t157.5 34.5q94 0 164 -61q-47 151 -143 231l-49 -101q-8 -19 -24 -5l-119 76q-25 13 -15 37l33 67q-33 6 -68 6h-12q-21 0 -29 10.5t-8 35.5v142q0 24 7 32.5t30 8.5h12q89 0 176 -17l58 117q9 21 35 4l107 -65q29 -20 18 -43 l-39 -76q181 -95 271 -288.5t90 -450.5q0 -255 -98 -388.5t-309 -133.5q-210 0 -315.5 120t-105.5 327zM335 424q0 -114 33.5 -171.5t93.5 -57.5q65 0 92 68t27 208v19q-16 72 -42.5 105.5t-74.5 33.5q-70 0 -99.5 -53.5t-29.5 -151.5z" />
<glyph unicode="&#xf1;" horiz-adv-x="1074" d="M41 22v119q0 10 0.5 14t4 7.5t10.5 5.5q60 13 83 30t23 51v352q0 54 -35 58l-56 8q-15 3 -15 24v111q0 15 3.5 20t14.5 8q54 10 111.5 23.5t91 20.5t53.5 7h41q44 0 44 -60v-97q44 81 115.5 120.5t156.5 39.5q118 0 174.5 -77.5t56.5 -247.5v-267q0 -45 6.5 -70t15 -31.5 t21.5 -6.5q20 0 26.5 11t6.5 34q0 11 1.5 17t7.5 10.5t17 4.5h45q16 0 20 -7.5t4 -33.5q0 -231 -205 -231q-111 0 -171.5 71t-60.5 232v229q0 82 -20 113t-60 31q-65 0 -104.5 -74.5t-39.5 -225.5v-104q0 -49 15 -66t65 -24q16 -1 19.5 -7.5t3.5 -25.5v-112q0 -9 -0.5 -12.5 t-2 -7.5t-5.5 -5t-11 -1h-452q-12 0 -15.5 4t-3.5 18zM365 1065q17 53 60.5 102t93.5 49q41 0 93 -31t79 -31q25 0 37 34q4 18 20 11l73 -34q13 -5 14.5 -10.5t-3.5 -20.5q-18 -56 -60.5 -105.5t-93.5 -49.5q-44 0 -99.5 32t-73.5 32q-3 0 -6 -0.5t-5 -2t-4 -2.5t-4 -4 l-3 -4.5t-3 -5.5l-3 -6t-3 -6.5t-3 -6.5q-9 -16 -20 -9l-69 35q-14 7 -17.5 13t0.5 21z" />
<glyph unicode="&#xf2;" horiz-adv-x="893" d="M39 438q0 89 21.5 165.5t67.5 141t127.5 102t191.5 37.5t191.5 -37.5t127.5 -102t67.5 -141t21.5 -165.5t-21.5 -166t-67.5 -143t-127.5 -104t-191.5 -38q-89 0 -160 25.5t-116.5 68t-76 101.5t-43 122.5t-12.5 133.5zM168 1201q-9 8 -12 16.5t1.5 13.5t15.5 5h227 q22 0 34 -8t24 -33l89 -167q13 -29 9.5 -39t-25.5 -10h-107q-39 0 -80 38zM311 430q0 -102 32.5 -166.5t103.5 -64.5q70 0 104.5 65.5t34.5 167.5q0 66 -13.5 118.5t-46 88t-79.5 35.5q-69 0 -102.5 -69.5t-33.5 -174.5z" />
<glyph unicode="&#xf3;" horiz-adv-x="893" d="M39 438q0 89 21.5 165.5t67.5 141t127.5 102t191.5 37.5t191.5 -37.5t127.5 -102t67.5 -141t21.5 -165.5t-21.5 -166t-67.5 -143t-127.5 -104t-191.5 -38q-89 0 -160 25.5t-116.5 68t-76 101.5t-43 122.5t-12.5 133.5zM311 430q0 -102 32.5 -166.5t103.5 -64.5 q70 0 104.5 65.5t34.5 167.5q0 66 -13.5 118.5t-46 88t-79.5 35.5q-69 0 -102.5 -69.5t-33.5 -174.5zM382 1031l87 161q12 25 23.5 33t32.5 8h229q11 0 15.5 -5.5t2 -14t-11.5 -16.5l-177 -179q-35 -35 -78 -35h-108q-22 0 -25.5 9.5t10.5 38.5z" />
<glyph unicode="&#xf4;" horiz-adv-x="893" d="M39 438q0 89 21.5 165.5t67.5 141t127.5 102t191.5 37.5t191.5 -37.5t127.5 -102t67.5 -141t21.5 -165.5t-21.5 -166t-67.5 -143t-127.5 -104t-191.5 -38q-89 0 -160 25.5t-116.5 68t-76 101.5t-43 122.5t-12.5 133.5zM188 989q-1 5 -1.5 7t1.5 7t3.5 7t5 7t4.5 7 l130 181q13 19 27.5 24t41.5 5h97q27 0 41.5 -5t27.5 -24l130 -183q11 -17 12.5 -23.5t-4.5 -24.5q-6 -19 -30 -4l-225 108h-2l-224 -108q-4 -2 -7.5 -3t-6.5 -1h-5t-4 1.5t-3 2t-2.5 3.5t-2 4.5t-2 5.5t-2.5 6zM311 430q0 -65 12.5 -115t44 -83t79.5 -33q47 0 79.5 33 t46 84t13.5 116q0 66 -13.5 118.5t-46 88t-79.5 35.5t-78.5 -35.5t-44.5 -88.5t-13 -120z" />
<glyph unicode="&#xf5;" horiz-adv-x="893" d="M39 438q0 89 21.5 165.5t67.5 141t127.5 102t191.5 37.5t191.5 -37.5t127.5 -102t67.5 -141t21.5 -165.5t-21.5 -166t-67.5 -143t-127.5 -104t-191.5 -38q-89 0 -160 25.5t-116.5 68t-76 101.5t-43 122.5t-12.5 133.5zM238 1065q17 53 61 102t94 49q42 0 93.5 -31 t77.5 -31q25 0 37 34q4 19 21 11l72 -34q13 -5 15 -10.5t-3 -20.5q-18 -56 -61 -105.5t-94 -49.5q-44 0 -99.5 32t-73.5 32q-3 0 -6 -0.5t-5 -2t-4 -2.5t-4 -4l-3 -4.5t-3 -5.5l-3 -6t-3 -6.5t-3 -6.5q-9 -16 -20 -9l-69 35q-14 7 -17.5 13t0.5 21zM311 430 q0 -102 32.5 -166.5t103.5 -64.5q70 0 104.5 65.5t34.5 167.5q0 66 -13.5 118.5t-46 88t-79.5 35.5q-69 0 -102.5 -69.5t-33.5 -174.5z" />
<glyph unicode="&#xf6;" horiz-adv-x="893" d="M39 438q0 89 21.5 165.5t67.5 141t127.5 102t191.5 37.5t191.5 -37.5t127.5 -102t67.5 -141t21.5 -165.5t-21.5 -166t-67.5 -143t-127.5 -104t-191.5 -38q-89 0 -160 25.5t-116.5 68t-76 101.5t-43 122.5t-12.5 133.5zM171 1095q0 54 34.5 92t86.5 38q54 0 89.5 -38 t35.5 -92q0 -55 -35.5 -93t-89.5 -38q-53 0 -87 38t-34 93zM311 430q0 -102 32.5 -166.5t103.5 -64.5q70 0 104.5 65.5t34.5 167.5q0 66 -13.5 118.5t-46 88t-79.5 35.5q-69 0 -102.5 -69.5t-33.5 -174.5zM478 1095q0 54 34.5 92t88.5 38q53 0 89 -38t36 -92q0 -55 -35 -93 t-88 -38q-55 0 -90 37.5t-35 93.5z" />
<glyph unicode="&#xf7;" horiz-adv-x="975" d="M48 339v238h879v-238h-879zM303 132q0 63 49 107t125 44q73 0 121 -44t48 -107q0 -62 -48 -105.5t-121 -43.5q-77 0 -125.5 43t-48.5 106zM303 799q0 63 50.5 106t123.5 43q71 0 120 -43t49 -106q0 -62 -49 -105.5t-120 -43.5q-73 0 -123.5 43.5t-50.5 105.5z" />
<glyph unicode="&#xf8;" horiz-adv-x="893" d="M39 438q0 89 21.5 165.5t67.5 141t127.5 102t191.5 37.5q47 0 80 -5l24 71q6 16 15 16h121q22 0 15 -20l-39 -114q99 -55 145.5 -159.5t46.5 -234.5q0 -89 -21.5 -166t-67.5 -143t-127.5 -104t-191.5 -38q-38 0 -71 6l-22 -69q-5 -12 -11 -14.5t-19 -2.5h-119 q-5 0 -7.5 4.5t1.5 12.5l37 110q-102 55 -149.5 162.5t-47.5 241.5zM311 430q0 -73 17 -130l128 374h-9q-69 0 -102.5 -69.5t-33.5 -174.5zM447 199q70 0 104.5 65.5t34.5 167.5q0 71 -16 125z" />
<glyph unicode="&#xf9;" horiz-adv-x="1042" d="M19 704v95q0 15 4.5 20.5t15.5 7.5q201 39 253 39h54q47 0 47 -62v-489q0 -86 19.5 -117.5t62.5 -31.5q63 0 101 67.5t38 211.5v197q-9 24 -33 28l-60 10q-11 2 -11 24v95q0 25 21 28q201 39 253 39h56q44 0 44 -62v-532q2 -88 41 -88q20 0 27 11t7 34q0 12 1 17.5 t6.5 10t16.5 4.5h47q16 0 20 -7.5t4 -33.5q0 -231 -205 -231q-163 0 -212 147q-43 -78 -101 -114.5t-151 -36.5q-133 0 -195.5 79t-62.5 254v296q0 52 -38 56l-59 10q-11 2 -11 24zM210 1201q-9 8 -11.5 16.5t2 13.5t15.5 5h227q22 0 34 -8t24 -33l89 -167q13 -29 9 -39 t-26 -10h-106q-39 0 -80 38z" />
<glyph unicode="&#xfa;" horiz-adv-x="1042" d="M19 704v95q0 15 4.5 20.5t15.5 7.5q201 39 253 39h54q47 0 47 -62v-489q0 -86 19.5 -117.5t62.5 -31.5q63 0 101 67.5t38 211.5v197q-9 24 -33 28l-60 10q-11 2 -11 24v95q0 25 21 28q201 39 253 39h56q44 0 44 -62v-532q2 -88 41 -88q20 0 27 11t7 34q0 12 1 17.5 t6.5 10t16.5 4.5h47q16 0 20 -7.5t4 -33.5q0 -231 -205 -231q-163 0 -212 147q-43 -78 -101 -114.5t-151 -36.5q-133 0 -195.5 79t-62.5 254v296q0 52 -38 56l-59 10q-11 2 -11 24zM423 1031l87 161q12 25 23.5 33t32.5 8h229q11 0 15.5 -5.5t2 -14t-11.5 -16.5l-177 -179 q-35 -35 -78 -35h-108q-22 0 -25.5 9.5t10.5 38.5z" />
<glyph unicode="&#xfb;" horiz-adv-x="1042" d="M19 704v95q0 15 4.5 20.5t15.5 7.5q201 39 253 39h54q47 0 47 -62v-489q0 -86 19.5 -117.5t62.5 -31.5q63 0 101 67.5t38 211.5v197q-9 24 -33 28l-60 10q-11 2 -11 24v95q0 25 21 28q201 39 253 39h56q44 0 44 -62v-532q2 -88 41 -88q20 0 27 11t7 34q0 12 1 17.5 t6.5 10t16.5 4.5h47q16 0 20 -7.5t4 -33.5q0 -231 -205 -231q-163 0 -212 147q-43 -78 -101 -114.5t-151 -36.5q-133 0 -195.5 79t-62.5 254v296q0 52 -38 56l-59 10q-11 2 -11 24zM229 989q-1 5 -1.5 7t1.5 7t3.5 7t5 7t4.5 7l130 181q13 19 27.5 24t41.5 5h97 q27 0 41.5 -5t27.5 -24l130 -183q11 -17 12.5 -23.5t-4.5 -24.5q-6 -19 -30 -4l-225 108h-2l-224 -108q-4 -2 -7.5 -3t-6.5 -1h-5t-4 1.5t-3 2t-2.5 3.5t-2 4.5t-2 5.5t-2.5 6z" />
<glyph unicode="&#xfc;" horiz-adv-x="1042" d="M19 704v95q0 15 4.5 20.5t15.5 7.5q201 39 253 39h54q47 0 47 -62v-489q0 -86 19.5 -117.5t62.5 -31.5q63 0 101 67.5t38 211.5v197q-9 24 -33 28l-60 10q-11 2 -11 24v95q0 25 21 28q201 39 253 39h56q44 0 44 -62v-532q2 -88 41 -88q20 0 27 11t7 34q0 12 1 17.5 t6.5 10t16.5 4.5h47q16 0 20 -7.5t4 -33.5q0 -231 -205 -231q-163 0 -212 147q-43 -78 -101 -114.5t-151 -36.5q-133 0 -195.5 79t-62.5 254v296q0 52 -38 56l-59 10q-11 2 -11 24zM212 1095q0 54 34.5 92t86.5 38q54 0 89.5 -38t35.5 -92q0 -55 -35.5 -93t-89.5 -38 q-53 0 -87 38t-34 93zM519 1095q0 54 34.5 92t88.5 38q53 0 89 -38t36 -92q0 -55 -35 -93t-88 -38q-55 0 -90 37.5t-35 93.5z" />
<glyph unicode="&#xfd;" horiz-adv-x="953" d="M19 724v125q0 10 3 13.5t12 3.5h417q11 0 13.5 -3.5t2.5 -15.5v-121v-11.5t-2 -7t-5.5 -6t-10.5 -3.5q-38 -5 -51.5 -18.5t-6.5 -39.5q10 -74 40.5 -193t69.5 -214q45 128 123 411q7 26 -0.5 36t-42.5 18q-19 6 -25.5 11t-6.5 19v104q0 19 7 26.5t25 7.5h324 q12 0 18.5 -1t9 -6.5t3 -9t0.5 -15.5v-95q0 -16 -5 -22t-22 -15q-37 -12 -49 -24.5t-20 -44.5q-74 -268 -152.5 -484.5t-195.5 -468.5q-23 -39 -47.5 -54t-75.5 -15h-168q-15 0 -17.5 2.5t-2.5 19.5v116q0 10 0.5 14t3.5 7t9 3q80 10 101 20.5t40 50.5q18 36 73 156h-49 q-17 0 -28 13q-45 67 -121.5 286t-95.5 340q-5 23 -22 36.5t-62 28.5q-8 3 -9.5 6.5t-1.5 13.5zM445 1031l87 161q12 25 23.5 33t32.5 8h229q11 0 15.5 -5.5t2 -14t-11.5 -16.5l-177 -179q-35 -35 -78 -35h-108q-22 0 -25.5 9.5t10.5 38.5z" />
<glyph unicode="&#xfe;" horiz-adv-x="930" d="M-13 1128v112q0 15 4 20t15 8q54 10 111 23t89.5 20t52.5 7h43q44 0 44 -59v-559q26 94 94.5 139t155.5 45q143 0 216.5 -124.5t73.5 -325.5q0 -202 -74.5 -327.5t-223.5 -125.5q-45 0 -87 11.5t-81.5 41t-58.5 74.5v-201q0 -45 26.5 -63t83.5 -26q11 -1 15.5 -5 t5.5 -9.5t1 -19.5v-112q0 -16 -3 -21t-15 -5h-468q-11 0 -14.5 4.5t-3.5 18.5v119q0 14 2 18.5t13 7.5q47 10 67 23.5t20 39.5l2 358v804q0 50 -37 58l-54 7q-9 1 -12 6t-3 18zM356 406q0 -109 31 -174.5t90 -65.5q64 0 97 70t33 177q0 106 -33 177t-96 71q-60 0 -91 -69.5 t-31 -185.5z" />
<glyph unicode="&#xff;" horiz-adv-x="953" d="M19 724v125q0 10 3 13.5t12 3.5h417q11 0 13.5 -3.5t2.5 -15.5v-121v-11.5t-2 -7t-5.5 -6t-10.5 -3.5q-38 -5 -51.5 -18.5t-6.5 -39.5q10 -74 40.5 -193t69.5 -214q45 128 123 411q7 26 -0.5 36t-42.5 18q-19 6 -25.5 11t-6.5 19v104q0 19 7 26.5t25 7.5h324 q12 0 18.5 -1t9 -6.5t3 -9t0.5 -15.5v-95q0 -16 -5 -22t-22 -15q-37 -12 -49 -24.5t-20 -44.5q-74 -268 -152.5 -484.5t-195.5 -468.5q-23 -39 -47.5 -54t-75.5 -15h-168q-15 0 -17.5 2.5t-2.5 19.5v116q0 10 0.5 14t3.5 7t9 3q80 10 101 20.5t40 50.5q18 36 73 156h-49 q-17 0 -28 13q-45 67 -121.5 286t-95.5 340q-5 23 -22 36.5t-62 28.5q-8 3 -9.5 6.5t-1.5 13.5zM233 1095q0 54 34.5 92t86.5 38q54 0 89 -38t35 -92q0 -55 -35 -93t-89 -38q-53 0 -87 38t-34 93zM540 1095q0 54 34.5 92t88.5 38q53 0 89 -38t36 -92q0 -55 -35 -93t-88 -38 q-55 0 -90 37.5t-35 93.5z" />
<glyph unicode="&#x152;" horiz-adv-x="1779" d="M47 652q0 147 35 267.5t105 211.5t182 141t257 50q219 0 359 -112q92 112 329 112q113 0 192.5 -12.5t163.5 -41.5q17 -6 21.5 -17t4.5 -41v-303q0 -16 -3 -19.5t-14 -3.5h-145q-8 0 -11.5 3.5t-6.5 15.5l-43 181q-52 14 -134 14q-32 0 -55 -4.5t-47.5 -18.5t-37.5 -45 t-13 -79q0 -103 43.5 -137t137.5 -34h83q23 0 23 -26v-169q0 -26 -23 -26h-83q-148 0 -177 -101l-8 -34q-2 -11 -2 -37q0 -93 56 -129t172 -36q92 0 205.5 20.5t117.5 20.5q19 0 19 -25v-188q0 -15 -4 -20t-18 -8q-207 -41 -438 -41q-220 0 -324 97q-135 -97 -340 -97 q-145 0 -257 50t-182 140.5t-105 212t-35 268.5zM354 655q0 -201 71.5 -318t200.5 -117q130 0 201.5 117t71.5 318q0 199 -71.5 314t-201.5 115t-201 -114.5t-71 -314.5z" />
<glyph unicode="&#x153;" horiz-adv-x="1394" d="M39 438q0 89 21.5 165.5t67.5 141t127.5 102t191.5 37.5q163 0 264 -83q96 83 276 83q181 0 265.5 -73.5t84.5 -220.5q0 -64 -13 -112t-40.5 -78.5t-58.5 -49.5t-79 -28t-89 -12t-100 -3q-58 0 -78 2q45 -115 197 -115q50 0 136 23.5t110 26.5q10 4 16 2.5t6 -17.5v-134 q0 -25 -4.5 -34t-17.5 -16q-48 -30 -130 -47t-159 -17q-213 0 -322 90q-102 -84 -264 -84q-89 0 -160 25.5t-116.5 68t-76 101.5t-43 122.5t-12.5 133.5zM311 430q0 -102 32.5 -166.5t103.5 -64.5q63 0 97.5 54t40.5 140v78q-6 89 -40.5 146t-97.5 57q-69 0 -102.5 -69.5 t-33.5 -174.5zM858 471q26 0 44.5 1t46.5 4.5t47 11.5t38 20.5t28.5 34t9.5 49.5q0 48 -22.5 72.5t-53.5 24.5q-62 0 -98.5 -57.5t-39.5 -160.5z" />
<glyph unicode="&#x178;" horiz-adv-x="1072" d="M15 1160v121q0 14 3 18t14 4h463q14 0 17.5 -4.5t3.5 -19.5v-115q0 -13 -1 -18.5t-6 -9t-16 -4.5q-50 -5 -65 -13.5t-15 -31.5q0 -140 136 -430h2q166 289 166 430q0 23 -15 31.5t-65 13.5q-14 1 -18.5 8t-4.5 24v115q0 11 1 15t5 6.5t13 2.5h406q14 0 16.5 -3.5 t2.5 -18.5v-121q0 -24 -15 -24q-59 -11 -79 -23.5t-28 -43.5q-25 -135 -96.5 -302t-158.5 -294v-212q0 -49 15 -66t65 -24q16 -1 19.5 -7.5t3.5 -25.5v-112q0 -16 -3.5 -21t-15.5 -5h-467q-12 0 -15.5 4t-3.5 18v119q0 10 0.5 14t4 7.5t10.5 5.5q61 13 83.5 29.5t22.5 51.5 v172q-95 134 -173.5 318.5t-92.5 329.5q-3 24 -25 38.5t-79 28.5q-11 3 -13 6.5t-2 17.5zM296 1489q0 54 34.5 92.5t86.5 38.5q54 0 89.5 -38.5t35.5 -92.5q0 -55 -35.5 -92.5t-89.5 -37.5q-53 0 -87 37.5t-34 92.5zM603 1489q0 54 34.5 92.5t88.5 38.5q53 0 89 -38.5 t36 -92.5q0 -55 -35 -92.5t-88 -37.5q-55 0 -90 37.5t-35 92.5z" />
<glyph unicode="&#x2c6;" horiz-adv-x="547" d="M15 1383q0 5 -1.5 7t1.5 7.5t4 7.5t4.5 7.5t4.5 6.5l130 180q13 19 28 24.5t41 5.5h97q18 0 28 -1.5t21 -8.5t20 -20l130 -182q11 -17 12.5 -24t-4 -25t-30.5 -3l-225 108h-2l-224 -108q-10 -4 -15.5 -5t-9.5 2.5t-5.5 7t-4.5 13.5z" />
<glyph unicode="&#x2dc;" horiz-adv-x="606" d="M61 1437q17 53 61 102t94 49q42 0 93 -30.5t78 -30.5q25 0 37 33q4 19 21 11l73 -33q13 -5 14.5 -11t-3.5 -21q-18 -56 -61 -105t-94 -49q-44 0 -99.5 31.5t-73.5 31.5q-4 0 -7 -1t-6 -3.5t-5 -4t-4.5 -6t-3.5 -6t-3.5 -8t-3.5 -8.5q-10 -18 -21 -10l-69 36 q-14 8 -17.5 13t0.5 20z" />
<glyph unicode="&#x2000;" horiz-adv-x="857" />
<glyph unicode="&#x2001;" horiz-adv-x="1715" />
<glyph unicode="&#x2002;" horiz-adv-x="857" />
<glyph unicode="&#x2003;" horiz-adv-x="1715" />
<glyph unicode="&#x2004;" horiz-adv-x="571" />
<glyph unicode="&#x2005;" horiz-adv-x="428" />
<glyph unicode="&#x2006;" horiz-adv-x="285" />
<glyph unicode="&#x2007;" horiz-adv-x="285" />
<glyph unicode="&#x2008;" horiz-adv-x="214" />
<glyph unicode="&#x2009;" horiz-adv-x="343" />
<glyph unicode="&#x200a;" horiz-adv-x="95" />
<glyph unicode="&#x2010;" horiz-adv-x="647" d="M74 449v147q0 31 21 31h460q20 0 20 -33v-130q0 -21 -4.5 -30.5t-19.5 -9.5h-458q-19 0 -19 25z" />
<glyph unicode="&#x2011;" horiz-adv-x="647" d="M74 449v147q0 31 21 31h460q20 0 20 -33v-130q0 -21 -4.5 -30.5t-19.5 -9.5h-458q-19 0 -19 25z" />
<glyph unicode="&#x2012;" horiz-adv-x="647" d="M74 449v147q0 31 21 31h460q20 0 20 -33v-130q0 -21 -4.5 -30.5t-19.5 -9.5h-458q-19 0 -19 25z" />
<glyph unicode="&#x2013;" horiz-adv-x="925" d="M74 445v153q0 29 23 29h735q21 0 21 -31v-134q0 -23 -3.5 -31t-20.5 -8h-738q-17 0 -17 22z" />
<glyph unicode="&#x2014;" horiz-adv-x="1321" d="M74 445v153q0 29 23 29h1132q20 0 20 -31v-134q0 -22 -4.5 -30.5t-19.5 -8.5h-1134q-17 0 -17 22z" />
<glyph unicode="&#x2018;" horiz-adv-x="441" d="M43 903l126 385q7 22 14 28t24 6h175q12 0 16.5 -8t1.5 -29l-74 -393q-5 -32 -15.5 -41t-42.5 -9h-194q-30 0 -36.5 12.5t5.5 48.5z" />
<glyph unicode="&#x2019;" horiz-adv-x="437" d="M48 879l75 393q5 32 15.5 41t42.5 9h193q30 0 37 -13t-5 -49l-127 -385q-7 -22 -13.5 -27.5t-23.5 -5.5h-175q-24 0 -19 37z" />
<glyph unicode="&#x201a;" horiz-adv-x="431" d="M15 -168l74 393q5 32 15.5 41.5t42.5 9.5h194q30 0 36.5 -13t-5.5 -49l-126 -385q-7 -22 -13.5 -28t-23.5 -6h-175q-24 0 -19 37z" />
<glyph unicode="&#x201c;" horiz-adv-x="787" d="M43 903l126 385q7 22 14 28t24 6h175q12 0 16.5 -8t1.5 -29l-74 -393q-5 -32 -15.5 -41t-42.5 -9h-194q-30 0 -36.5 12.5t5.5 48.5zM389 903l127 385q7 22 13.5 28t23.5 6h175q24 0 19 -37l-75 -393q-5 -32 -15.5 -41t-42.5 -9h-193q-30 0 -37 12.5t5 48.5z" />
<glyph unicode="&#x201d;" horiz-adv-x="785" d="M48 879l75 393q5 32 15.5 41t42.5 9h193q30 0 37 -13t-5 -49l-127 -385q-7 -22 -13.5 -27.5t-23.5 -5.5h-175q-24 0 -19 37zM395 879l74 393q5 32 15.5 41t42.5 9h194q30 0 36.5 -13t-5.5 -49l-126 -385q-6 -22 -13.5 -27.5t-24.5 -5.5h-175q-12 0 -16.5 8t-1.5 29z" />
<glyph unicode="&#x201e;" horiz-adv-x="845" d="M15 -168l74 393q5 32 15.5 41.5t42.5 9.5h194q30 0 36.5 -13t-5.5 -49l-126 -385q-7 -22 -13.5 -28t-23.5 -6h-175q-24 0 -19 37zM426 -168l75 393q5 32 15.5 41.5t42.5 9.5h193q30 0 37 -13t-5 -49l-127 -385q-7 -22 -13.5 -28t-23.5 -6h-175q-24 0 -19 37z" />
<glyph unicode="&#x2022;" horiz-adv-x="595" d="M88 456q0 73 59.5 123t148.5 50q90 0 151 -50t61 -123q0 -71 -61 -121t-151 -50q-88 0 -148 50t-60 121z" />
<glyph unicode="&#x2026;" horiz-adv-x="1232" d="M48 110q0 51 40.5 86t97.5 35t97.5 -35t40.5 -86q0 -54 -39.5 -87.5t-98.5 -33.5t-98.5 33.5t-39.5 87.5zM478 110q0 52 39.5 86.5t96.5 34.5t97.5 -35t40.5 -86q0 -54 -39.5 -87.5t-98.5 -33.5q-58 0 -97 33.5t-39 87.5zM909 110q0 52 39 86.5t96 34.5q56 0 97 -35 t41 -86q0 -54 -40.5 -87.5t-97.5 -33.5q-58 0 -96.5 33.5t-38.5 87.5z" />
<glyph unicode="&#x202f;" horiz-adv-x="343" />
<glyph unicode="&#x2039;" horiz-adv-x="564" d="M43 493l301 399q10 16 16 15q4 -1 9 -6l132 -100q9 -8 9 -12t-7 -14l-201 -298l201 -289q10 -15 10 -20.5t-14 -14.5l-127 -97q-12 -7 -16.5 -4.5t-12.5 13.5l-298 387q-12 13 -12.5 19t10.5 22z" />
<glyph unicode="&#x203a;" horiz-adv-x="564" d="M60 188l201 289l-201 298q-8 11 -8 14t9 12l133 100q3 3 5 4.5t4 1.5t3.5 -0.5t3.5 -2.5t2.5 -3t2.5 -4.5t3 -4.5l301 -399q11 -16 10 -21.5t-11 -19.5l-298 -387q-14 -21 -30 -9l-129 97q-12 11 -12 15t11 20z" />
<glyph unicode="&#x205f;" horiz-adv-x="428" />
<glyph unicode="&#x20ac;" d="M52 415l65 106q14 21 24 24q6 2 12 2h80q0 35 -2 54h-168q-12 0 -16.5 2.5t-3 8t8.5 15.5l65 107q3 5 6.5 9.5t7.5 8.5t9.5 6t12.5 2h82q42 562 541 562q98 0 205.5 -15t144.5 -32q17 -8 21.5 -19.5t4.5 -39.5v-376q0 -15 -3 -19t-15 -4h-170q-11 0 -15 3.5t-7 15.5 l-41 248q-50 14 -115 14q-93 0 -165 -83t-92 -255h387q46 0 20 -36l-80 -98q-10 -15 -20 -20t-30 -5h-283l6 -54h247q26 0 30 -12t-7 -23l-78 -99q-19 -24 -53 -24h-93q31 -60 81.5 -98.5t98 -52t96.5 -13.5q33 0 62 1.5t66.5 7t53 7.5t66 11.5t61.5 11.5q14 3 20 -5t6 -24 v-151q0 -42 -30 -52q-126 -49 -363 -49q-223 0 -356 100t-180 306h-194q-12 0 -16.5 2.5t-3 8t8.5 15.5z" />
<glyph unicode="&#x2122;" horiz-adv-x="1513" d="M84 1076v214q0 9 2.5 11t8.5 2h460q5 0 6 -1.5t1 -11.5v-214q0 -20 -9 -20h-86q-12 0 -15 18l-3 41q-6 37 -25 37h-18v-456h2v-9q0 -27 7 -37t28 -15q11 -5 11 -22v-77v-7t-1 -4.5t-3 -3t-5 -0.5h-255q-9 0 -9 13v80q0 15 7 17q46 14 52 43v478h-18q-19 0 -25 -37l-3 -43 q-3 -16 -13 -16h-88q-9 0 -9 20zM579 1210v80q0 13 7 13h319q5 0 8.5 -1.5t5.5 -3t3.5 -6t2 -7.5t2 -11.5t2.5 -13.5q4 -33 17.5 -160t27 -217.5t31.5 -167.5h2q14 55 26 110.5t22.5 119.5t16.5 102t16.5 114.5t13.5 98.5q1 4 1.5 11.5t1 10.5t1.5 7.5t2.5 6l4 4t5.5 3 t8 0.5h285q10 0 10 -13v-80q0 -17 -8 -17q-50 -17 -50 -46v-451q0 -57 22 -57q24 0 24 46v6q0 5 6 5h41q6 0 6 -5v-6q0 -93 -31 -134t-94 -41q-142 0 -142 192v342q-65 -375 -121 -510q-6 -13 -15 -13h-152q-11 0 -17 13q-74 178 -119 540v-389q0 -26 7 -35.5t30 -14.5 q2 0 3.5 -1t2.5 -2t1 -3.5v-3.5v-5v-7v-77q0 -15 -7 -15h-210q-7 0 -8.5 2.5t-1.5 10.5v80q0 14 12 17q20 9 28.5 19.5t8.5 34.5v462q0 15 -12 25t-39 21q-7 2 -7 12v5z" />
<glyph unicode="&#xe000;" horiz-adv-x="865" d="M0 0v866h866v-866h-866z" />
</font>
</defs>
</svg>
