<?xml version="1.0" standalone="no"?>
<!DOCTYPE svg PUBLIC "-//W3C//DTD SVG 1.1//EN" "http://www.w3.org/Graphics/SVG/1.1/DTD/svg11.dtd" >
<svg xmlns="http://www.w3.org/2000/svg">
<metadata></metadata>
<defs>
<font id="quatie_cond_regularcondRg" horiz-adv-x="845" >
<font-face units-per-em="2048" ascent="1629" descent="-419" />
<missing-glyph horiz-adv-x="316" />
<glyph unicode="&#xfb01;" horiz-adv-x="921" d="M63 22v47q0 15 3 20.5t12 5.5q71 5 89 14.5t19 50.5v600h-102q-15 0 -15 18v67q0 21 15 21h102v117q0 182 74 260.5t228 78.5q68 0 128.5 -15.5t92.5 -33.5q23 -15 23 -54v-193q0 -11 -3.5 -15t-13.5 -4h-63q-8 0 -12 2.5t-5 14.5l-17 153q-55 31 -130 31q-88 0 -125 -55 t-37 -187v-100h389q22 0 22 -30v-592q0 -85 14 -114t42 -29q37 0 37 44q0 20 4.5 26t20.5 6h24q17 0 20.5 -4.5t3.5 -25.5q0 -156 -142 -156q-163 0 -163 232v471q0 42 -16.5 53.5t-84.5 12.5h-171v-592q1 -46 24 -57t119 -14q16 0 19.5 -6t3.5 -26v-39q0 -9 -0.5 -12.5 t-2 -7.5t-5.5 -5t-11 -1h-391q-13 0 -16 4t-3 18z" />
<glyph unicode="&#xfb02;" horiz-adv-x="943" d="M60 22v47q0 16 2.5 21t11.5 5q81 5 99.5 19t18.5 74v572h-103q-16 0 -16 18v67q0 21 16 21h103v123q0 171 79.5 252t223.5 81q72 0 126 -15t127 -56q19 -12 19 -37v-970q0 -85 14 -114t42 -29q37 0 37 44q0 20 4 26t20 6h25q17 0 20.5 -4.5t3.5 -25.5q0 -156 -140 -156 q-164 0 -164 232v537h-299v-585q0 -53 16.5 -64t92.5 -14q16 -1 19.5 -6.5t3.5 -25.5v-39q0 -16 -3.5 -21t-17.5 -5h-363q-7 0 -10.5 0.5t-5.5 4t-2 6v11.5zM330 866h299v299q-69 41 -136 41q-95 0 -129 -56t-34 -204v-80z" />
<glyph unicode="&#xfb03;" horiz-adv-x="1360" d="M58 22v47q0 26 15 26q83 5 100 18t17 75v572h-102q-17 0 -17 18v67q0 21 17 21h102v57q0 170 71.5 247t211.5 77q65 0 108 -9t89 -37q68 121 257 121q69 0 129.5 -15.5t92.5 -33.5q13 -9 18.5 -20t5.5 -34v-193q0 -11 -3.5 -15t-13.5 -4h-65q-8 0 -11 2.5t-4 14.5 l-17 153q-55 31 -132 31q-87 0 -124.5 -55t-37.5 -187v-100h391q21 0 21 -30v-592q0 -85 14.5 -114t42.5 -29q38 0 38 44q0 21 3.5 26.5t20.5 5.5h22q18 0 22 -5t4 -25q0 -156 -141 -156q-164 0 -164 232v486q-2 32 -22.5 41.5t-94.5 9.5h-157v-592q1 -46 25 -57t120 -14 q16 0 19.5 -6t3.5 -26v-39q0 -16 -3.5 -21t-17.5 -5h-389q-12 0 -15 3.5t-3 18.5v47v3q0 14 2 18.5t12 4.5q77 5 92.5 18.5t15.5 74.5v572h-299v-568q0 -66 16 -79t94 -16q16 -1 19 -6t3 -26v-39q0 -9 -0.5 -12.5t-2 -7.5t-5.5 -5t-11 -1h-365q-7 0 -10.5 0.5t-5.5 4t-2 6 v11.5zM328 866h299v117q0 63 8 106q-69 43 -143 43q-88 0 -126 -47t-38 -165v-54z" />
<glyph unicode="&#xfb04;" horiz-adv-x="1388" d="M58 22v47q0 26 15 26q83 5 100 18t17 75v572h-102q-17 0 -17 18v67q0 21 17 21h102v57q0 159 69.5 232.5t204.5 73.5q66 0 111.5 -10.5t96.5 -41.5q69 145 268 145q72 0 126 -15t127 -56q19 -12 19 -37v-970q0 -58 8.5 -91t19.5 -42.5t28 -9.5q39 0 39 44q0 21 3.5 26.5 t20.5 5.5h21q19 0 22.5 -4.5t3.5 -25.5q0 -156 -142 -156q-162 0 -162 232v537h-299v-585q0 -53 17 -64t92 -14q16 -1 19.5 -6.5t3.5 -25.5v-39q0 -16 -3.5 -21t-17.5 -5h-365q-12 0 -14 3.5t-2 18.5v47q0 16 2.5 21t11.5 5q81 5 99.5 19t18.5 74v572h-309v-568 q0 -66 16 -79t94 -16q16 -1 19 -6t3 -26v-39q0 -9 -0.5 -12.5t-2 -7.5t-5.5 -5t-11 -1h-365q-7 0 -10.5 0.5t-5.5 4t-2 6v11.5zM328 866h309v123q0 40 3 76q-80 48 -158 48q-84 0 -119 -43t-35 -150v-54zM775 866h299v299q-69 41 -136 41q-95 0 -129 -56t-34 -204v-80z" />
<glyph horiz-adv-x="2048" />
<glyph horiz-adv-x="2048" />
<glyph unicode="&#xd;" horiz-adv-x="2048" />
<glyph unicode=" "  horiz-adv-x="316" />
<glyph unicode="&#x09;" horiz-adv-x="316" />
<glyph unicode="&#xa0;" horiz-adv-x="316" />
<glyph unicode="!" horiz-adv-x="418" d="M123 84q0 39 25 66t61 27q35 0 60 -27t25 -66q0 -44 -24 -69.5t-61 -25.5t-61.5 25.5t-24.5 69.5zM140 1331q-3 21 15 21h104q14 0 18 -5t4 -18l-18 -1018q0 -22 -23 -22h-71q-16 0 -16 22z" />
<glyph unicode="&#x22;" horiz-adv-x="564" d="M112 871v423q0 13 9 13h117q8 0 10.5 -2.5t2.5 -12.5v-421q0 -15 -13 -15h-111q-10 0 -12.5 2.5t-2.5 12.5zM315 871v423q0 13 9 13h117q8 0 10.5 -2.5t2.5 -12.5v-421q0 -15 -13 -15h-111q-10 0 -12.5 2.5t-2.5 12.5z" />
<glyph unicode="#" horiz-adv-x="1096" d="M74 415v110h231l45 281h-220v110h242l66 397h117l-65 -397h206l64 397h119l-64 -397h209v-110h-235l-42 -281h216v-110h-241l-67 -415h-117l69 415h-207l-67 -415h-115l65 415h-209zM423 525h206l45 281h-209z" />
<glyph unicode="$" horiz-adv-x="912" d="M93 82v272q0 15 5 20.5t21 5.5h65q12 0 16.5 -5.5t4.5 -18.5l17 -218q82 -30 216 -30q32 0 61 4.5t65 19.5t61.5 40t43.5 71t18 107q0 80 -31.5 134.5t-81.5 83t-110.5 49t-121 44.5t-110.5 58t-81.5 100.5t-31.5 161.5q0 100 26.5 169.5t76 105.5t107.5 51t135 15 q96 0 172 -15.5t112 -34.5q17 -8 22 -16t5 -29v-272q0 -10 -1 -15.5t-5.5 -8t-6.5 -2.5h-12h-69q-12 0 -15 4t-3 17l-17 221q-78 28 -182 28q-209 0 -209 -197q0 -56 19.5 -96.5t52.5 -64t75.5 -41t89.5 -32.5t94 -32t89.5 -45.5t75.5 -68t52.5 -104t19.5 -149.5 q0 -96 -23 -167.5t-59 -112.5t-88.5 -66.5t-101.5 -33.5t-108 -8q-85 0 -188.5 16.5t-137.5 34.5q-24 11 -24 50zM397 -335l9 249q0 21 15 21h87q11 0 11 -17l10 -253q0 -19 -8 -19h-117q-7 0 -7 19zM402 1650q0 16 8 16h115q6 0 7.5 -3.5t1.5 -14.5l-9 -253q0 -15 -11 -15 h-88q-7 0 -10.5 2.5t-4 5.5t-0.5 10z" />
<glyph unicode="%" horiz-adv-x="1649" d="M67 931q0 80 18 148.5t55.5 124.5t101.5 88t149 32q68 0 123 -21.5t92 -58t62 -87t36 -107t11 -119.5q0 -81 -18.5 -150t-55.5 -125.5t-101.5 -89t-148.5 -32.5q-85 0 -149 32.5t-101.5 89t-55.5 125.5t-18 150zM209 931q0 -137 48.5 -214t133.5 -77q84 0 133 77.5 t49 213.5q0 135 -46 211t-136 76q-87 0 -134.5 -76t-47.5 -211zM404 22l711 1272q19 32 43 32h101q18 0 21 -7t-10 -32l-710 -1276q-11 -20 -21.5 -25.5t-33.5 -5.5h-79q-25 0 -30.5 6.5t8.5 35.5zM935 378q0 80 18 148.5t54.5 124.5t100.5 88t149 32q84 0 148.5 -32 t102.5 -88t56.5 -124.5t18.5 -148.5t-18.5 -149.5t-56.5 -126t-102.5 -89t-148.5 -32.5q-85 0 -149 32.5t-100.5 89t-54.5 125.5t-18 150zM1076 378q0 -135 49 -212.5t132 -77.5q86 0 135 77t49 213q0 134 -47 210.5t-137 76.5q-85 0 -133 -76t-48 -211z" />
<glyph unicode="&#x26;" horiz-adv-x="1128" d="M102 341q0 84 18.5 149.5t49.5 103t61.5 58t62.5 28.5q-41 12 -72 43t-48 74t-25 89.5t-8 96.5q0 96 22 163.5t64 105t93.5 54t118.5 16.5q114 0 203 -43q14 -6 17.5 -16.5t3.5 -35.5v-257q0 -16 -2.5 -19t-12.5 -3h-65q-8 0 -10.5 3.5t-4.5 14.5l-22 213q-38 22 -94 22 q-41 0 -70.5 -9.5t-54.5 -34t-37.5 -71.5t-12.5 -118q0 -233 194 -233h240l58 231q3 28 22 28h36q16 0 16 -28v-231h172q16 0 16 -24v-69q0 -15 -3 -18.5t-13 -3.5h-172v-324q0 -117 19 -161t61 -44q63 0 66 88q0 15 3.5 20.5t12.5 5.5h30q19 0 19 -32q0 -90 -43 -141 t-121 -51q-91 0 -140 77q-49 -29 -131.5 -53t-182.5 -24q-76 0 -132.5 15t-104 53t-72.5 111.5t-25 180.5zM253 359q0 -138 50.5 -194.5t160.5 -56.5q119 0 249 67q-7 37 -7 112v333h-235q-99 0 -158.5 -65t-59.5 -196z" />
<glyph unicode="'" horiz-adv-x="363" d="M112 871v417q0 15 9 15h117q8 0 10.5 -3t2.5 -13v-416q0 -15 -13 -15h-111q-10 0 -12.5 2.5t-2.5 12.5z" />
<glyph unicode="(" horiz-adv-x="476" d="M74 557q0 208 71 420.5t199 370.5q2 2 6 7t5.5 5t7.5 -1l58 -46q8 -6 -8 -30q-92 -134 -138 -338.5t-46 -397.5q0 -200 45.5 -402.5t140.5 -347.5q12 -14 6 -20l-52 -51q-6 -5 -17 11q-133 163 -205.5 383.5t-72.5 436.5z" />
<glyph unicode=")" horiz-adv-x="476" d="M56 -223q-7 7 4 20q96 146 142.5 349t46.5 401q0 190 -47.5 395.5t-138.5 340.5q-16 21 -5 30l56 46q6 1 7.5 1t5.5 -5.5t5 -6.5q128 -157 199 -369.5t71 -421.5q0 -215 -72 -436t-203 -384q-1 -1 -3.5 -4t-4 -4.5t-3.5 -3t-4 -1.5t-4 2z" />
<glyph unicode="*" horiz-adv-x="677" d="M88 1058l29 100q5 8 13 6l170 -69l-37 195v4q1 8 7 9h136q12 0 7 -15l-37 -193l168 67q9 2 11 -6l35 -98q8 -12 -5 -12l-181 -20l125 -140q12 -15 3 -22l-102 -67q-5 -4 -6.5 -3t-4.5 8l-80 183l-80 -179q-5 -12 -15 -5l-95 61q-8 5 2 15l119 149l-171 20q-9 2 -11 3.5 t0 8.5z" />
<glyph unicode="+" horiz-adv-x="893" d="M80 421v115h318v386h105v-386h312v-115h-312v-384h-105v384h-318z" />
<glyph unicode="," horiz-adv-x="355" d="M43 -192l74 343q5 22 11.5 28.5t26.5 6.5h85q22 0 26 -11t-5 -35l-101 -332q-7 -24 -28 -24h-74q-21 0 -15 24z" />
<glyph unicode="-" horiz-adv-x="726" d="M108 503v72q0 21 15 21h482q15 0 15 -23v-63q0 -26 -19 -26h-478q-15 0 -15 19z" />
<glyph unicode="." horiz-adv-x="364" d="M97 84q0 39 24.5 66t60.5 27q35 0 60.5 -27t25.5 -66q0 -44 -24.5 -69.5t-61.5 -25.5t-61 25.5t-24 69.5z" />
<glyph unicode="/" horiz-adv-x="733" d="M45 -104l491 1469q8 18 17 18h121q19 0 11 -22l-488 -1465q-6 -15 -24 -15h-121q-14 0 -7 15z" />
<glyph unicode="0" horiz-adv-x="1003" d="M91 652q0 197 44 345t137.5 236.5t228.5 88.5q136 0 230 -88.5t137.5 -236.5t43.5 -345q0 -198 -43.5 -346.5t-137.5 -236.5t-230 -88q-135 0 -228.5 88t-137.5 236.5t-44 346.5zM246 655q0 -259 67 -407.5t188 -148.5t188 148.5t67 407.5q0 256 -67 402t-188 146 t-188 -146t-67 -402z" />
<glyph unicode="1" horiz-adv-x="646" d="M82 22v47q0 10 0.5 14.5t4 8t10.5 3.5q115 5 146 17.5t31 60.5v948q-4 23 -30 2l-134 -108q-24 -18 -24 13v70q0 21 20 36l190 151q28 18 67 18h34q11 0 15.5 -4.5t4.5 -15.5v-1106q0 -53 27 -65.5t135 -14.5q16 -1 19 -7t3 -25v-39v-13t-1.5 -7t-5.5 -5t-11 -1h-482 q-14 0 -16.5 3.5t-2.5 18.5z" />
<glyph unicode="2" horiz-adv-x="910" d="M84 17v80q0 23 7 31q119 92 210 183.5t166 197t115 223.5t40 242q0 60 -12.5 103.5t-30.5 66.5t-46.5 36t-51 16t-53.5 3q-99 0 -188 -41l-24 -236q-1 -13 -4 -16t-13 -3h-71q-11 0 -12.5 3.5t-1.5 18.5v289q0 24 3.5 32t16.5 13q137 63 300 63q59 0 104 -7t91 -28.5 t76 -58t49 -98.5t19 -147q0 -245 -130.5 -464t-357.5 -391h383q25 0 28 43l10 160q0 12 1 17.5t5.5 9t13.5 3.5h60q14 0 18 -6t4 -29v-306q0 -14 -3 -17t-14 -3h-690q-17 0 -17 17z" />
<glyph unicode="3" horiz-adv-x="871" d="M84 56v71q0 17 4.5 22.5t13.5 3.5q6 -1 36.5 -9t61 -15t80 -13t98.5 -6q253 0 253 275q0 135 -54.5 189.5t-155.5 54.5h-91q-17 0 -17 26v75q0 14 7 24l270 421h-329q-15 0 -20 -10t-8 -46l-8 -143v-5q-2 -17 -9 -19q-3 -1 -9 -1h-60q-13 0 -17.5 4.5t-4.5 20.5v301 q0 18 3.5 22t16.5 4h598q7 0 10.5 -3.5t4 -8t0.5 -16.5v-63q0 -9 -0.5 -14t-2.5 -10.5t-3.5 -8t-7 -10.5t-9.5 -15l-270 -409h23q156 0 224 -83.5t68 -270.5q0 -91 -20.5 -162t-55.5 -117t-84 -76t-102.5 -42.5t-115.5 -12.5q-181 0 -301 43q-17 8 -17 32z" />
<glyph unicode="4" horiz-adv-x="940" d="M50 344l153 935q3 16 7 20t19 4h93q14 0 18.5 -4.5t2.5 -17.5l-134 -832h312v793q0 14 3.5 18t15.5 4h100q11 0 14 -4t3 -14v-797h183q11 0 14.5 -4.5t3.5 -18.5v-87q0 -12 -3 -14.5t-12 -2.5h-186v-138q0 -32 2 -45.5t18.5 -24t41 -13t80.5 -4.5q14 0 17 -5t3 -21v-51 q0 -13 -3 -16.5t-15 -3.5h-468q-12 0 -14 3t-2 16v54q0 9 0.5 12.5t3.5 6t9 3.5q61 4 91.5 7t54.5 7.5t31.5 14.5t10.5 21t3 34v143h-454q-12 0 -14.5 4t-2.5 18z" />
<glyph unicode="5" horiz-adv-x="863" d="M78 67v69q0 19 6.5 25t16.5 1q4 -1 33 -11.5t60 -20t79 -18t92 -8.5q54 0 95 12.5t78.5 43t57.5 92t20 150.5q0 73 -15 125.5t-40.5 84.5t-67 50.5t-87 25t-108.5 6.5h-153q-18 0 -15 27l54 554q3 19 5.5 23.5t11.5 4.5h512q15 0 19.5 -4.5t4.5 -21.5v-281 q0 -24 -4.5 -29.5t-19.5 -5.5h-58q-9 0 -13.5 3.5t-5.5 8.5t-1 17l-6 129q-3 35 -8.5 45.5t-20.5 10.5h-297l-37 -361h51q92 0 159 -10t125 -37t93 -73t55 -118.5t20 -173.5q0 -421 -378 -421q-174 0 -292 54q-21 11 -21 32z" />
<glyph unicode="6" horiz-adv-x="916" d="M91 512q0 134 24 253.5t74.5 222t124 176.5t179 116t233.5 42h17q13 0 17.5 -5t4.5 -19v-69q0 -17 -5 -22.5t-19 -5.5h-15q-204 0 -324.5 -144.5t-150.5 -399.5q47 74 114 115.5t145 41.5q87 0 152.5 -32t103 -89t56 -128t18.5 -157q0 -200 -96.5 -313.5t-274.5 -113.5 q-378 0 -378 531zM242 478q0 -379 227 -379q103 0 162.5 77t59.5 226q0 136 -52 216t-162 80q-167 0 -235 -220z" />
<glyph unicode="7" horiz-adv-x="796" d="M78 972v311q0 14 3.5 17t15.5 3h648q7 0 11 -1t5.5 -6t1.5 -8v-13v-76q0 -19 -13 -47l-454 -1126q-8 -17 -15.5 -21.5t-25.5 -4.5h-102q-14 0 -16.5 5.5t3.5 18.5l467 1147h-412l-18 -199q0 -17 -3.5 -23.5t-15.5 -6.5h-61q-19 0 -19 30z" />
<glyph unicode="8" horiz-adv-x="925" d="M84 382q0 57 13 110.5t39 102.5t71.5 87.5t105.5 60.5q-76 34 -113.5 105.5t-37.5 162.5q0 60 18 114t53 98.5t94.5 70.5t136.5 26q147 0 222 -90t75 -219q0 -90 -36 -161t-111 -107q117 -40 171.5 -137t54.5 -224q0 -78 -20.5 -146.5t-63 -127t-118.5 -93t-176 -34.5 q-83 0 -148.5 23t-108 61t-70.5 91t-39.5 108.5t-11.5 117.5zM231 382q0 -123 56.5 -203t174.5 -80q116 0 174 81t58 204q0 122 -58 205t-172 83q-81 0 -135 -42t-76 -105t-22 -143zM292 1002q0 -91 42 -148t130 -57q86 0 127.5 57t41.5 148t-42 151.5t-127 60.5 q-88 0 -130 -60.5t-42 -151.5z" />
<glyph unicode="9" horiz-adv-x="901" d="M74 899q0 194 96.5 308.5t270.5 114.5q190 0 279.5 -140t89.5 -389q0 -175 -37.5 -320.5t-112 -256.5t-194.5 -173t-276 -62h-15q-24 0 -24 26v66q0 29 24 29h15q192 0 308.5 134.5t149.5 381.5q-95 -128 -248 -128q-71 0 -128 23.5t-93.5 62t-60.5 92t-34 110.5t-10 121 zM223 894q0 -132 52 -210.5t157 -78.5q86 0 141.5 49t87.5 152v8q0 392 -223 392q-99 0 -157 -79.5t-58 -232.5z" />
<glyph unicode=":" horiz-adv-x="376" d="M101 76q0 39 24.5 66t60.5 27q35 0 60.5 -27t25.5 -66q0 -44 -24.5 -69.5t-61.5 -25.5t-61 25.5t-24 69.5zM101 724q0 39 24.5 66t60.5 27q35 0 60.5 -27t25.5 -66q0 -44 -24.5 -69.5t-61.5 -25.5t-61 25.5t-24 69.5z" />
<glyph unicode=";" horiz-adv-x="446" d="M73 -192l74 343q5 22 11 28.5t26 6.5h86q22 0 25.5 -11t-5.5 -35l-100 -332q-7 -24 -28 -24h-74q-21 0 -15 24zM153 789q0 39 24.5 66.5t60.5 27.5q35 0 60.5 -27.5t25.5 -66.5q0 -44 -24.5 -69.5t-61.5 -25.5t-61 25.5t-24 69.5z" />
<glyph unicode="&#x3c;" horiz-adv-x="828" d="M69 417v119l661 386v-127l-486 -318l486 -317v-130z" />
<glyph unicode="=" horiz-adv-x="863" d="M114 246v115h636v-115h-636zM115 518v113h635v-113h-635z" />
<glyph unicode="&#x3e;" horiz-adv-x="826" d="M97 30v126l488 321l-488 322v123l661 -388v-117z" />
<glyph unicode="?" horiz-adv-x="733" d="M74 955v272q0 21 4 29t19 16q33 19 105.5 34.5t168.5 15.5q68 0 118.5 -14.5t93.5 -50t65 -102.5t22 -165q0 -87 -15 -146.5t-39 -90.5t-53 -53t-58 -42.5t-53 -49.5t-39 -84.5t-15 -136.5v-136q0 -20 -14 -20l-110 -2q-15 0 -15 20v144q0 99 15 168.5t39 105t53 59 t58 42t53 43t39 72t15 119.5q0 197 -166 197q-95 0 -166 -30l-15 -219v-3q-2 -16 -10 -17q-3 -1 -10 -1h-69q-16 0 -19 6q-2 6 -2 20zM248 84q0 39 23 66t59 27q34 0 58.5 -27t24.5 -66q0 -44 -24 -69.5t-59 -25.5q-37 0 -59.5 25t-22.5 70z" />
<glyph unicode="@" horiz-adv-x="1269" d="M89 581q0 137 33.5 253.5t91 198.5t134.5 140.5t163.5 86.5t177.5 28q225 0 365.5 -155t140.5 -396q0 -209 -74.5 -341t-219.5 -132q-54 0 -93 27.5t-52 71.5q-32 -41 -82.5 -70t-103.5 -29q-93 0 -154.5 78.5t-61.5 216.5q0 62 13 122t40.5 115.5t66.5 98t96 67.5 t124 25q59 0 103.5 -21t70 -58t38 -81.5t12.5 -96.5q0 -87 -60 -279q-11 -37 5 -60.5t49 -23.5q74 0 121 107t47 254q0 205 -112.5 333.5t-284.5 128.5q-87 0 -170.5 -38.5t-153 -111t-112 -191.5t-42.5 -266q0 -267 130 -415.5t341 -148.5q99 0 179.5 23.5t164.5 76.5 q14 9 19 -4l26 -59q7 -15 -11 -26q-155 -110 -378 -110q-125 0 -231.5 43.5t-186 125t-124.5 208t-45 284.5zM465 559q0 -92 32 -144t93 -52q43 0 80.5 29.5t61.5 73.5t41.5 95t25 93t7.5 68q0 168 -125 168q-63 0 -113.5 -49t-76.5 -124t-26 -158z" />
<glyph unicode="A" horiz-adv-x="1126" d="M30 22v47q0 26 15 26q81 5 102 18t21 60v91q0 237 23 428t69 333.5t120.5 219.5t172.5 77q134 0 226 -130t137 -365t45 -563v-78q0 -60 16 -73t92 -16q11 0 15.5 -3.5t5.5 -9t1 -19.5v-39q0 -16 -3.5 -21t-15.5 -5h-383q-14 0 -16.5 3t-2.5 19v47q0 11 0.5 15.5t4 7.5 t10.5 3q75 5 97.5 16.5t25.5 48.5v104q0 22 -1 64.5t-1 62.5h-516q-1 -21 -1 -127v-78q0 -60 16 -73t92 -16q11 0 15.5 -3.5t5.5 -9t1 -19.5v-39q0 -9 -0.5 -12.5t-2 -7.5t-5.5 -5t-11 -1h-352q-14 0 -16 2.5t-2 19.5zM296 514h505q-18 320 -84 501.5t-170 181.5 q-102 0 -167.5 -182t-83.5 -501z" />
<glyph unicode="B" horiz-adv-x="1014" d="M76 22v47q0 11 0.5 15.5t4 7.5t10.5 3q83 4 103 17t20 61v968q0 41 -20 50.5t-101 14.5q-11 1 -14 5.5t-3 17.5v54q0 14 3.5 17t15.5 3h395q346 0 346 -322q0 -215 -123 -277q118 -21 170.5 -104t52.5 -235q0 -184 -106.5 -274.5t-326.5 -90.5h-408q-12 0 -15.5 4 t-3.5 18zM357 114h166q80 0 133 17t81.5 51.5t39.5 77t11 103.5q0 45 -5.5 81t-20 69.5t-39 55.5t-65 35.5t-94.5 13.5h-207v-504zM357 734h175q81 0 121.5 67.5t40.5 166.5q0 102 -44.5 162t-143.5 60h-149v-456z" />
<glyph unicode="C" horiz-adv-x="1016" d="M89 640q0 339 132 510.5t377 171.5q187 0 299 -41q16 -5 20.5 -13.5t4.5 -34.5v-310q0 -14 -3.5 -18t-13.5 -4h-78q-11 0 -15 4t-4 15l-24 259q-75 24 -181 24q-169 0 -267 -142t-98 -424q0 -525 382 -525q115 0 305 43q25 6 25 -21v-61q0 -20 -6.5 -29t-23.5 -14 q-172 -45 -322 -45q-256 0 -382.5 156.5t-126.5 498.5z" />
<glyph unicode="D" horiz-adv-x="1156" d="M76 22v47q0 11 0.5 15.5t4 7.5t10.5 3q76 3 98 14t25 46v986q0 41 -20 50.5t-101 14.5q-11 1 -14 5.5t-3 17.5v54q0 14 3.5 17t15.5 3h391q155 0 267.5 -44.5t180.5 -130.5t99.5 -204t31.5 -274q0 -329 -136 -489.5t-430 -160.5h-404q-12 0 -15.5 4t-3.5 18zM363 117h129 q210 0 314 130.5t104 398.5q0 542 -420 542h-127v-1071z" />
<glyph unicode="E" horiz-adv-x="897" d="M84 337q0 73 14.5 130.5t36.5 92.5t55 61t61.5 38t63.5 21q-183 46 -183 314q0 94 26.5 160t75.5 101.5t109 51t137 15.5q164 0 283 -45q5 -2 8.5 -3.5t6 -4t4.5 -3.5t3 -4t1.5 -4t1 -6t0.5 -6.5v-8.5v-10v-257q0 -16 -2.5 -19t-14.5 -3h-64q-10 0 -13.5 3.5t-4.5 14.5 l-22 211q-65 24 -177 24q-104 0 -162 -46.5t-58 -169.5q0 -132 63.5 -188t180.5 -56h100q19 0 19 -26v-67q0 -26 -19 -26h-100q-274 0 -274 -270q0 -130 67.5 -187t206.5 -57q51 0 108 6.5t94 14t71.5 16t37.5 8.5q10 1 12.5 -2.5t2.5 -18.5v-84q0 -12 -5 -16.5t-18 -9.5 q-140 -41 -346 -41q-67 0 -121 9t-105 32.5t-85.5 62.5t-55 103t-20.5 149z" />
<glyph unicode="F" horiz-adv-x="888" d="M78 22v47q0 10 0.5 14.5t4 8t10.5 3.5q85 5 104 18.5t19 74.5v953q-2 38 -24.5 50t-98.5 15q-7 1 -10.5 4.5t-4 8t-0.5 14.5v48q0 14 3.5 18t15.5 4h713q9 0 12 -1t5 -5t2 -14v-322q0 -25 -19 -25h-60q-13 0 -17.5 5.5t-4.5 17.5l-11 193q-1 29 -6.5 35t-21.5 6h-332 v-476h272q12 0 17.5 -4.5t5.5 -18.5v-70q0 -19 -4.5 -25.5t-18.5 -6.5h-272v-424q1 -46 27.5 -57t131.5 -14q11 0 15.5 -3.5t5.5 -9t1 -19.5v-39q0 -9 -0.5 -12.5t-2 -7.5t-5.5 -5t-11 -1h-422q-14 0 -16.5 3.5t-2.5 18.5z" />
<glyph unicode="G" horiz-adv-x="1120" d="M88 635q0 336 139 511.5t395 175.5q194 0 352 -73q19 -9 23.5 -21t4.5 -42v-281q0 -14 -3.5 -18t-15.5 -4h-73q-10 0 -13.5 3t-4.5 15l-24 248q-99 52 -239 52q-184 0 -283.5 -142.5t-99.5 -423.5q0 -533 398 -533q132 0 220 41v349h-197q-23 0 -23 27v67q0 28 23 28h314 q23 0 23 -28v-487q0 -39 -30 -52q-150 -66 -339 -66q-547 0 -547 654z" />
<glyph unicode="H" horiz-adv-x="1163" d="M74 22v47q0 10 0.5 14.5t4 8t10.5 3.5q78 3 99 14.5t24 56.5v946q0 65 -15 78t-93 16q-16 0 -19 5t-3 25v41q0 16 3.5 21t15.5 5h374q12 0 14.5 -3.5t2.5 -18.5v-48q0 -10 -0.5 -14.5t-4 -8t-10.5 -4.5q-79 -3 -100.5 -14t-22.5 -54v-524h441v525q-1 44 -19.5 54 t-90.5 13q-16 0 -19 5t-3 25v41q0 16 3 21t15 5h377q12 0 15 -3.5t3 -18.5v-48q0 -10 -0.5 -14.5t-4 -8t-10.5 -4.5q-86 -3 -104.5 -16.5t-18.5 -74.5v-912q0 -101 56 -101q24 0 42 15t18 52v8q0 15 11 15h48q13 0 13 -13v-8q0 -178 -162 -178q-169 0 -169 217v287h-441 v-305q0 -64 16 -78t94 -17q11 0 15.5 -3.5t5.5 -9t1 -19.5v-39q0 -16 -3.5 -21t-17.5 -5h-372q-14 0 -16.5 3.5t-2.5 18.5z" />
<glyph unicode="I" horiz-adv-x="571" d="M76 22v47q0 10 0.5 14.5t4 8t10.5 3.5q78 3 99 14.5t24 56.5v946q0 65 -15 78t-93 16q-16 0 -19 5t-3 25v41q0 16 3 21t15 5h376q11 0 14 -4t3 -18v-48q0 -10 -0.5 -14.5t-4 -8t-10.5 -4.5q-80 -3 -101 -13.5t-22 -54.5v-993q4 -31 23.5 -38.5t84.5 -9.5q16 0 19.5 -6 t3.5 -26v-39q0 -16 -3.5 -21t-17.5 -5h-372q-14 0 -16.5 3.5t-2.5 18.5z" />
<glyph unicode="J" horiz-adv-x="552" d="M26 -253q-9 26 17 41l58 35q48 27 68.5 49.5t30 65t9.5 125.5v1049q0 65 -15.5 78t-94.5 16q-16 0 -19.5 5.5t-3.5 24.5v41q0 16 3.5 21t17.5 5h372q14 0 16.5 -3.5t2.5 -18.5v-48q0 -10 -0.5 -14.5t-4 -8t-10.5 -4.5q-79 -3 -100.5 -14t-22.5 -54v-1127q0 -49 -3.5 -80 t-14.5 -61.5t-33 -53t-56.5 -45.5t-87.5 -47l-82 -35q-13 -5 -18 -2t-10 17z" />
<glyph unicode="K" horiz-adv-x="1077" d="M74 22v47q0 10 0.5 14.5t4 8t10.5 3.5q85 5 104 18.5t19 74.5v924q0 65 -15 78t-93 16q-16 0 -19 5t-3 25v41q0 16 3.5 21t15.5 5h374q12 0 14.5 -3.5t2.5 -18.5v-48q0 -10 -0.5 -14.5t-4 -8t-10.5 -4.5q-79 -3 -100.5 -14t-22.5 -54v-466l318 430h-4l25 36q28 40 28 50 t-16 13t-63 5q-18 0 -22 5t-4 25v41q0 17 3.5 21.5t19.5 4.5h351q14 0 17.5 -4t3.5 -18v-48q0 -16 -2.5 -21t-14.5 -6q-78 -3 -98 -16l-390 -527l311 -460q40 -62 71 -87t67 -25q31 0 63 15q13 5 19.5 2t6.5 -17v-56q0 -17 -4.5 -23.5t-22.5 -13.5q-42 -17 -105 -17 q-77 0 -119.5 32.5t-103.5 133.5l-335 505v-460q0 -64 16 -78t94 -17q11 0 15.5 -3.5t5.5 -9t1 -19.5v-39q0 -16 -3.5 -21t-17.5 -5h-372q-14 0 -16.5 3.5t-2.5 18.5z" />
<glyph unicode="L" horiz-adv-x="914" d="M74 22v47q0 11 0.5 15.5t4 7.5t10.5 3q84 4 103.5 16.5t19.5 61.5v939q0 65 -15 78t-93 16q-16 0 -19 5t-3 25v41q0 16 3.5 21t15.5 5h374q12 0 14.5 -3.5t2.5 -18.5v-48q0 -10 -0.5 -14.5t-4 -8t-10.5 -4.5q-79 -3 -100.5 -14t-22.5 -54v-1013l372 -2q15 0 20 8.5 t10 34.5l9 162q2 18 6 23.5t18 5.5h56q13 0 16 -6t3 -29v-302q0 -14 -4 -17t-15 -3h-752q-12 0 -15.5 4t-3.5 18z" />
<glyph unicode="M" horiz-adv-x="1493" d="M82 1233v48q0 14 3.5 18t15.5 4h277q38 0 48 -24q4 -8 12 -46q29 -157 139.5 -535.5t176.5 -546.5h2q75 209 159 525.5t131 556.5l3.5 21t3.5 19t4.5 12.5t9 10.5t14 4.5t21.5 2.5h278q15 0 18.5 -4t3.5 -18v-48q0 -15 -3.5 -20.5t-15.5 -6.5q-77 -3 -96 -15.5t-19 -62.5 v-925q0 -101 58 -101q57 0 57 67v8q0 15 13 15h51q9 0 9 -13v-8q0 -178 -160 -178q-170 0 -170 217v849q-45 -236 -144.5 -578.5t-156.5 -460.5q-9 -20 -36 -20h-93q-10 0 -14.5 1t-9.5 5.5t-9 13.5q-65 138 -167 448t-163 563v-849q0 -56 15.5 -69t83.5 -16q18 0 23 -6.5 t5 -25.5v-39q0 -16 -4 -21t-20 -5h-328q-16 0 -19 3.5t-3 18.5v47q0 16 4.5 21t19.5 5q71 4 86.5 18t15.5 71v944q0 50 -17.5 61.5t-95.5 16.5q-12 1 -14.5 6.5t-2.5 20.5z" />
<glyph unicode="N" horiz-adv-x="1199" d="M76 1233v48q0 14 3.5 18t15.5 4h214q19 0 29 -7.5t19 -25.5l518 -1061v919q0 47 -21 61t-102 17q-7 1 -10.5 4.5t-4 8t-0.5 14.5v48q0 14 3.5 18t15.5 4h354q12 0 15 -5t3 -21v-41q0 -20 -3 -25t-19 -5q-73 -3 -90.5 -16t-17.5 -64v-1083q0 -43 -24 -43h-86q-32 0 -46 24 l-507 1026v-864q0 -58 16.5 -72t91.5 -17q11 0 15.5 -3.5t5.5 -9t1 -19.5v-39v-13t-1.5 -7t-5.5 -5t-11 -1h-348q-12 0 -14.5 3.5t-2.5 18.5v47q0 15 4 20.5t15 5.5q78 5 95.5 18.5t17.5 70.5v957q0 40 -22.5 51t-100.5 14q-7 1 -10.5 4.5t-4 8t-0.5 14.5z" />
<glyph unicode="O" horiz-adv-x="1195" d="M84 652q0 146 32 267.5t94.5 211.5t161.5 140.5t226 50.5t225.5 -50t160.5 -140.5t94 -212t32 -267.5q0 -147 -32 -268.5t-94 -212t-160.5 -140.5t-225.5 -50q-102 0 -186 32.5t-144.5 92t-102 143t-61.5 185t-20 218.5zM240 655q0 -255 95 -402t263 -147t263.5 147 t95.5 402q0 253 -95 396.5t-264 143.5q-168 0 -263 -143.5t-95 -396.5z" />
<glyph unicode="P" horiz-adv-x="912" d="M76 1233v48q0 14 3.5 18t15.5 4h352q96 0 168 -22t115.5 -58t69.5 -90.5t35.5 -110t9.5 -125.5q0 -205 -92.5 -321t-281.5 -116q-66 0 -114 11v-279q0 -65 15.5 -78.5t94.5 -16.5q16 0 19.5 -6t3.5 -26v-39q0 -16 -3.5 -21t-17.5 -5h-372q-14 0 -16.5 3.5t-2.5 18.5v47 q0 10 0.5 14.5t4 8t10.5 3.5q85 5 104 18.5t19 74.5v814h-2v126q0 47 -20.5 61t-102.5 17q-7 1 -10.5 4.5t-4 8t-0.5 14.5zM357 592q19 -13 105 -13q112 0 173 82.5t61 230.5q0 63 -11 115t-35 95t-68 67t-105 24h-120v-601z" />
<glyph unicode="Q" horiz-adv-x="1197" d="M84 652q0 146 32 267.5t94.5 211.5t161.5 140.5t226 50.5t225.5 -50t160.5 -140.5t94 -212t32 -267.5q0 -221 -71 -382.5t-209 -234.5l25 -65q25 -75 59.5 -106.5t90.5 -31.5q34 0 60 8h3h3.5t2.5 -1t2.5 -2.5t1 -5t0.5 -8.5v-58q0 -21 -24 -28q-43 -11 -99 -11 q-174 0 -242 227l-11 38q-53 -10 -104 -10q-102 0 -186 32.5t-144.5 92t-102 143t-61.5 185t-20 218.5zM240 655q0 -181 48 -309t138 -190q-3 10 -3 43q0 62 35.5 104.5t101.5 42.5q78 0 129 -41.5t91 -138.5q86 63 131.5 189t45.5 300q0 253 -95 396.5t-264 143.5 q-168 0 -263 -143.5t-95 -396.5zM495 192q0 -53 47 -82q38 -4 56 -4q40 0 69 8q-20 90 -49.5 119.5t-66.5 29.5q-25 0 -40.5 -20t-15.5 -51z" />
<glyph unicode="R" horiz-adv-x="994" d="M76 22v47q0 10 0.5 14.5t4 8t10.5 3.5q78 3 99 14.5t24 56.5v962q0 47 -20.5 61t-102.5 17q-7 1 -10.5 4.5t-4 8t-0.5 14.5v48q0 14 3.5 18t15.5 4h382q106 0 181.5 -31t119 -90.5t63 -135t19.5 -173.5q0 -307 -210 -389l106 -274q26 -68 48 -92.5t60 -24.5q20 0 52 15 q10 6 16 4t10 -17l6 -48q4 -21 -0.5 -29.5t-22.5 -15.5q-55 -21 -111 -21q-31 0 -56 6t-44 21.5t-32 28.5t-26.5 41.5t-20 44.5t-19.5 52l-104 281h-24q-70 0 -131 13v-277q0 -65 15.5 -78.5t94.5 -16.5q16 0 19.5 -6t3.5 -26v-39q0 -16 -3.5 -21t-17.5 -5h-374q-13 0 -16 4 t-3 18zM357 594q54 -17 125 -17q113 0 172 76.5t59 219.5q0 157 -62.5 237t-168.5 80h-125v-596z" />
<glyph unicode="S" horiz-adv-x="908" d="M93 82v272q0 15 5 20.5t21 5.5h65q12 0 16.5 -5.5t4.5 -18.5l17 -218q82 -30 216 -30q32 0 61 4.5t65 19.5t61.5 40t43.5 71t18 107q0 80 -31.5 134.5t-81.5 83t-110.5 49t-121 44.5t-110.5 58t-81.5 100.5t-31.5 161.5q0 100 26.5 169.5t76 105.5t107.5 51t135 15 q96 0 172 -15.5t112 -34.5q17 -8 22 -16t5 -29v-272q0 -10 -1 -15.5t-5.5 -8t-6.5 -2.5h-12h-69q-12 0 -15 4t-3 17l-17 221q-78 28 -182 28q-209 0 -209 -197q0 -56 19.5 -96.5t52.5 -64t75.5 -41t89.5 -32.5t94 -32t89.5 -45.5t75.5 -68t52.5 -104t19.5 -149.5 q0 -96 -23 -167.5t-59 -112.5t-88.5 -66.5t-101.5 -33.5t-108 -8q-85 0 -188.5 16.5t-137.5 34.5q-24 11 -24 50z" />
<glyph unicode="T" horiz-adv-x="929" d="M63 963v320q0 14 3.5 17t15.5 3h765q9 0 12.5 -1t6 -5t2.5 -14v-320q0 -23 -19 -23h-60q-9 0 -14 3t-6 6t-2 12l-11 190q-2 17 -7.5 24t-20.5 7l-192 2v-966h2v-26q0 -65 14.5 -78.5t93.5 -16.5q11 0 15.5 -3.5t5.5 -9t1 -19.5v-39q0 -16 -3 -21t-15 -5h-376q-13 0 -16 4 t-3 18v47q0 10 0.5 14.5t4 8t10.5 3.5q79 3 100.5 14.5t24.5 56.5v1018h-194q-13 0 -19 -7.5t-9 -25.5l-11 -190q-1 -7 -1.5 -9t-2.5 -6t-6 -5t-11 -1h-61q-11 0 -14 5.5t-3 17.5z" />
<glyph unicode="U" horiz-adv-x="1169" d="M58 1236v41q0 16 3 21t15 5h386q12 0 15 -3.5t3 -18.5v-48q0 -16 -2 -21t-13 -6q-76 -3 -99 -15t-25 -50v-679q0 -171 68 -263.5t194 -92.5q124 0 191.5 93t67.5 263v676q-1 44 -20 54.5t-90 13.5q-16 0 -19 5t-3 25v41q0 9 0.5 12.5t2 7.5t5.5 5t12 1h347q7 0 10.5 -0.5 t5.5 -4t2 -6v-11.5v-48q0 -12 -3 -18t-5 -6.5t-7 -0.5q-76 -5 -99 -17.5t-24 -49.5v-679q0 -219 -97.5 -350t-289.5 -131q-197 0 -299.5 125t-102.5 356v653q0 61 -15.5 74.5t-92.5 16.5q-16 0 -19 5t-3 25z" />
<glyph unicode="V" horiz-adv-x="1091" d="M30 1227v56q0 12 3 16t12 4h359q9 0 12 -4t3 -14v-54q0 -14 -3 -19.5t-14 -5.5q-70 -3 -86 -10t-16 -29q0 -124 16.5 -248t38.5 -218t61 -204.5t66.5 -177t72.5 -166.5q47 107 72 166.5t66 174.5t62 206t38 216.5t17 250.5q0 22 -16.5 29t-84.5 10q-18 0 -18 25v54 q0 10 3 14t12 4h338q9 0 12 -4t3 -16v-56q0 -12 -2 -16t-13 -5q-76 -4 -94.5 -10t-18.5 -25q0 -106 -11.5 -212t-27.5 -192t-45 -181t-53 -161.5t-62.5 -152t-62 -134t-62.5 -125.5q-8 -20 -32 -20h-61q-24 0 -32 20q-48 96 -73.5 149.5t-70.5 156.5t-71 187.5t-54.5 195 t-41.5 228.5t-13 241q0 16 -20.5 23.5t-92.5 11.5q-11 1 -13 5t-2 16z" />
<glyph unicode="W" horiz-adv-x="1610" d="M32 1227v56q0 13 2.5 16.5t12.5 3.5h377q8 0 10 -4.5t2 -17.5v-50q0 -16 -2 -20.5t-13 -4.5q-72 -3 -89 -9t-17 -28q2 -157 21 -305t54.5 -284.5t64.5 -228t74 -215.5q210 557 218 1033q1 21 -19.5 27.5t-87.5 9.5q-14 0 -14 19v58q0 13 3 16.5t13 3.5h350q9 0 12 -4 t3 -16v-56q0 -9 -0.5 -12t-3.5 -5.5t-9 -3.5q-61 -5 -84.5 -10t-30.5 -16h2q16 -534 231 -1042q93 251 151 496.5t63 534.5q2 23 -14.5 28.5t-92.5 8.5q-10 0 -13 5t-3 18v50q0 15 3 19.5t12 4.5h344q17 0 17 -20v-56q0 -12 -2.5 -16t-12.5 -5q-80 -5 -99 -11t-20 -28 q-2 -103 -14 -209t-24.5 -185.5t-41 -185t-43.5 -158t-53.5 -158t-48 -130.5t-49.5 -126q-8 -22 -26 -22h-99q-21 0 -29 22q-55 141 -78.5 203.5t-67.5 205t-70 269.5q-59 -281 -209 -678q-8 -22 -26 -22h-102q-22 0 -30 22q-1 2 -32 82t-36.5 94.5t-34 93t-36.5 108 t-31.5 107t-32.5 122.5t-25 121.5t-23 137t-13.5 136.5t-7.5 150q-2 21 -21.5 28t-95.5 11q-9 1 -11 4.5t-2 16.5z" />
<glyph unicode="X" horiz-adv-x="1048" d="M32 22v47v5q0 9 0.5 12.5t4 6t10.5 2.5q68 4 90 17.5t47 60.5l259 475l-253 512q-13 29 -32 37t-85 9q-7 1 -10.5 4.5t-4 8t-0.5 14.5v48q0 15 2.5 18.5t13.5 3.5h365q14 0 17.5 -5t3.5 -21v-41q0 -20 -3 -25t-19 -5q-65 -1 -78 -15t7 -50l164 -333l167 307q24 42 24 64 q0 14 -17 19.5t-61 7.5q-16 0 -19 5t-3 25v41q0 16 3 21t17 5h332q12 0 15 -3.5t3 -18.5v-52q0 -14 -2 -18t-13 -5q-61 -3 -90.5 -18.5t-50.5 -53.5l-244 -449l244 -493q29 -59 52 -78t47 -19q13 0 34.5 4.5t26.5 4.5h3q12 0 14 -10v-3l7 -56q1 -18 -3 -25t-19 -14 q-44 -15 -106 -15q-41 0 -70 9.5t-52 34t-37 47t-37 66.5l-191 385l-185 -337q-24 -42 -24 -58t20 -22.5t68 -8.5q16 -1 19 -7t3 -25v-39q0 -9 -0.5 -12.5t-2 -7.5t-5.5 -5t-11 -1h-339q-11 0 -13.5 3.5t-2.5 18.5z" />
<glyph unicode="Y" horiz-adv-x="1027" d="M28 1227v56q0 12 3.5 16t13.5 4h357q11 0 14 -4t3 -14v-54q0 -25 -19 -25q-60 -2 -80 -7.5t-20 -21.5q0 -84 18 -163.5t54 -155.5t66.5 -128.5t79.5 -124.5q51 71 85 124.5t71.5 128.5t56.5 155t19 164q0 16 -20.5 21.5t-81.5 7.5q-11 0 -14 5.5t-3 19.5v54q0 10 3 14 t12 4h337q10 0 13.5 -4t3.5 -16v-56q0 -21 -15 -21q-64 -3 -87.5 -10t-26.5 -25q-18 -324 -286 -676v-277h1v-26q0 -65 15.5 -78.5t94.5 -16.5q16 0 19.5 -6t3.5 -26v-39q0 -16 -3.5 -21t-17.5 -5h-374q-13 0 -16 4t-3 18v47q0 10 0.5 14.5t4 8t10.5 3.5q86 5 104.5 18.5 t18.5 74.5v292q-57 76 -100.5 144.5t-88.5 158t-70.5 188.5t-27.5 200q0 15 -24.5 23t-88.5 12q-11 1 -13 5t-2 16z" />
<glyph unicode="Z" horiz-adv-x="886" d="M82 19v63q0 19 7 32l524 1076h-378q-17 0 -21 -9.5t-7 -46.5l-10 -179q0 -20 -18 -20h-62q-18 0 -18 22v326q0 14 2.5 17t13.5 3h650q12 0 14.5 -5.5t2.5 -22.5v-59q0 -29 -11 -47l-514 -1055h406q12 0 18.5 9t9.5 33l9 183q1 11 2.5 15.5t5.5 6.5t13 2h61q17 0 17 -28 v-313q0 -14 -4 -18t-13 -4h-687q-13 0 -13 19z" />
<glyph unicode="[" horiz-adv-x="491" d="M141 -279v1603q0 12 2 16t10 4h257q11 0 11 -9v-89q0 -7 -2 -8.5t-9 -1.5h-127v-1418h125q6 0 8.5 -0.5t3.5 -3t1 -9.5v-86q0 -9 -11 -9h-261q-8 0 -8 11z" />
<glyph unicode="\" horiz-adv-x="720" d="M45 1322h145l488 -1354h-147z" />
<glyph unicode="]" horiz-adv-x="487" d="M69 -192q0 7 2 8.5t9 1.5h127v1418h-125q-8 0 -10.5 2.5t-2.5 10.5v86q0 6 2 7.5t7 1.5h261q7 0 7 -11v-1603q0 -12 -1.5 -16t-9.5 -4h-257q-9 0 -9 11v87z" />
<glyph unicode="^" horiz-adv-x="1001" d="M80 806l421 503l421 -503l-97 -82l-324 417l-324 -417z" />
<glyph unicode="_" horiz-adv-x="882" d="M104 0h674v-117h-674v117z" />
<glyph unicode="`" horiz-adv-x="517" d="M95 1592q-21 28 6 28h108q15 0 22.5 -5t17.5 -21l135 -201q16 -30 -10 -30h-57q-24 0 -51 30z" />
<glyph unicode="a" horiz-adv-x="843" d="M67 199q0 44 8.5 79t21 59t34.5 43t41.5 29.5t50 19t51.5 12t54 8.5q39 6 62.5 10.5t53.5 16t46.5 28t28.5 44t12 65.5q0 79 -33.5 119.5t-132.5 40.5q-85 0 -136 -26l-11 -168q-1 -12 -4.5 -15.5t-12.5 -3.5h-63q-11 0 -14 4.5t-3 16.5v207q0 25 4 35.5t16 18.5 q28 17 90 29.5t136 12.5q92 0 154 -22t95 -66.5t46.5 -101.5t13.5 -139v-311q0 -85 14 -113.5t42 -28.5q37 0 37 43q0 14 1 19.5t6 10t17 4.5h24q16 0 20.5 -6.5t4.5 -25.5q0 -154 -142 -154q-127 0 -154 134q-74 -136 -263 -136q-110 0 -163 49t-53 159zM210 201 q0 -51 25.5 -73t75.5 -22q94 0 160.5 79.5t66.5 175.5v80q-11 -26 -29 -44.5t-43.5 -29.5t-45 -16.5t-51.5 -11.5q-4 -1 -24 -5t-24.5 -5t-21.5 -5.5t-22 -7.5t-18 -9.5t-17 -12.5t-12.5 -15.5t-11.5 -20.5t-5.5 -25.5t-2.5 -31.5z" />
<glyph unicode="b" horiz-adv-x="914" d="M30 22v47q0 26 15 26q84 5 103.5 19t19.5 74v946q0 38 -6.5 47t-31.5 11l-72 1q-9 0 -11 5t-2 20v44q0 17 3.5 22.5t14.5 5.5q87 13 142 13h69q33 0 33 -39v-570q33 93 98.5 141.5t145.5 48.5q142 0 216.5 -124.5t74.5 -325.5q0 -131 -31 -228.5t-100.5 -157 t-172.5 -59.5q-50 0 -95.5 14.5t-85.5 52.5t-55 95v-108q0 -17 -1 -24.5t-7.5 -13t-19.5 -5.5h-226q-12 0 -15 3.5t-3 18.5zM309 410q0 -141 48 -221.5t144 -80.5q101 0 148 86t47 236q0 98 -18 170.5t-62 118.5t-110 46q-97 0 -147 -96t-50 -259z" />
<glyph unicode="c" horiz-adv-x="754" d="M71 421q0 227 94 345t265 118q67 0 125.5 -13.5t88.5 -30.5q14 -7 18.5 -17t4.5 -34v-247q0 -11 -3.5 -15t-13.5 -4h-64q-13 0 -16 17l-17 203q-48 28 -114 28q-105 0 -165 -83.5t-60 -264.5q0 -95 18 -159t54 -98t80.5 -48t106.5 -14q75 0 188 34q12 4 17 -2.5t5 -23.5 v-58q0 -21 -22 -30q-93 -33 -220 -33q-88 0 -153.5 21t-115.5 69.5t-75.5 133.5t-25.5 206z" />
<glyph unicode="d" horiz-adv-x="927" d="M73 434q0 131 31.5 230.5t99.5 159.5t165 60q83 0 148 -38t94 -118v406q0 38 -7 47t-32 11l-73 1q-9 0 -11 5t-2 20v44q0 28 19 28q88 13 143 13h69q31 0 31 -39v-1022q0 -85 14 -114t42 -29q38 0 38 44q0 13 1 18.5t6.5 9.5t18.5 4h22q17 0 21.5 -6t4.5 -24 q0 -156 -136 -156q-127 0 -153 151q-25 -56 -68.5 -91.5t-88 -47.5t-94.5 -12q-151 0 -227 122.5t-76 322.5zM214 430q0 -91 21 -162.5t68 -117.5t114 -46q102 0 152.5 81t50.5 228q0 347 -207 347q-100 0 -149.5 -90t-49.5 -240z" />
<glyph unicode="e" horiz-adv-x="783" d="M73 428q0 456 346 456q141 0 212 -68t71 -196q0 -144 -76 -217t-203 -73q-115 0 -205 37q12 -151 71.5 -207t168.5 -56q19 0 37.5 1.5t37.5 5.5t32 7t33.5 10.5t29.5 10.5t31 12t28 11q22 9 22 -17v-57q0 -19 -3.5 -26t-18.5 -15q-38 -20 -105 -38t-146 -18 q-187 0 -275 105.5t-88 331.5zM216 486q76 -34 164 -34q83 0 133.5 42.5t50.5 125.5q0 74 -39 111.5t-106 37.5q-189 0 -203 -283z" />
<glyph unicode="f" horiz-adv-x="565" d="M63 22v47q0 15 3 20.5t12 5.5q78 5 93 18t15 75v572h-102q-17 0 -17 18v67q0 21 17 21h102v117q0 182 61.5 260.5t188.5 78.5q49 0 90.5 -10.5t61.5 -24.5q23 -12 23 -54v-194q0 -13 -3 -16t-14 -3h-65q-8 0 -10.5 3.5t-4.5 13.5l-17 153q-25 18 -61 18q-58 0 -85 -56 t-27 -186v-100h168q10 0 13 -5t3 -16v-65q0 -20 -16 -20h-168v-568q0 -28 3 -42.5t9.5 -26.5t26.5 -16t43.5 -6.5t71.5 -3.5q16 0 19.5 -6t3.5 -26v-39q0 -9 -0.5 -12.5t-2 -7.5t-5.5 -5t-11 -1h-400q-13 0 -16 4t-3 18z" />
<glyph unicode="g" horiz-adv-x="923" d="M80 434q0 131 31.5 230.5t99.5 159.5t165 60q89 0 157.5 -44t92.5 -138v121q0 23 6.5 33t24.5 10h54q12 0 32 -2t58 -7t72 -8q12 0 15.5 -4.5t3.5 -19.5v-49q0 -15 -2.5 -19.5t-10.5 -4.5l-84 -2q-37 -4 -37 -59v-607q0 -229 -92 -342t-284 -113q-148 0 -241 47 q-13 7 -17.5 16t-4.5 31v50q0 18 4.5 23t17.5 1q133 -48 226 -48q61 0 104.5 14.5t79 50.5t53.5 103.5t18 166.5v28q-71 -123 -238 -123q-151 0 -227.5 122.5t-76.5 322.5zM222 430q0 -91 20.5 -162.5t67.5 -117.5t114 -46q102 0 152.5 81t50.5 228q0 347 -206 347 q-100 0 -149.5 -90t-49.5 -240z" />
<glyph unicode="h" horiz-adv-x="936" d="M30 22v47q0 26 15 26q84 5 103.5 19t19.5 74v946q0 58 -36 58l-76 3q-8 0 -9.5 3.5t-1.5 17.5v50q0 16 2.5 20t12.5 6q42 3 92 9t64 6h54q18 0 25 -10t7 -31v-572q37 97 104 143.5t149 46.5q104 0 154.5 -68t50.5 -216v-356q0 -85 14 -114t40 -29q39 0 39 44 q0 21 3.5 26.5t20.5 5.5h24q16 0 20 -5t4 -25q0 -156 -141 -156q-164 0 -164 232v363q0 101 -26 140t-80 39q-95 0 -151 -99t-56 -301v-203q1 -43 19 -53t89 -12q16 0 19.5 -6t3.5 -26v-39q0 -16 -3.5 -21t-15.5 -5h-371q-12 0 -15 3.5t-3 18.5z" />
<glyph unicode="i" horiz-adv-x="487" d="M41 780v45q0 28 19 28q88 13 143 13h69q33 0 33 -39v-583q0 -85 14 -114t42 -29q37 0 37 44q0 15 1 20.5t6.5 8.5t18.5 3h23q16 0 20 -5t4 -25q0 -156 -141 -156q-78 0 -120 53.5t-42 178.5v490q-1 25 -9.5 32t-30.5 9l-74 2q-13 0 -13 24zM155 1132q0 39 22 63t56 24 t57 -24.5t23 -62.5q0 -40 -23 -64.5t-57 -24.5t-56 24.5t-22 64.5z" />
<glyph unicode="j" horiz-adv-x="439" d="M-35 -190q0 10 1 14.5t4.5 8t10.5 3.5h60q4 0 7 -1t4.5 -3.5t2.5 -5t1 -7v-7.5v-8v-7q6 -52 56 -52q18 0 30.5 8.5t23.5 43t11 95.5v804q0 38 -7 47t-32 11l-75 2q-9 0 -11 4.5t-2 19.5v45q0 16 4.5 22t16.5 6q88 13 141 13h69q19 0 25.5 -10t6.5 -29v-883 q0 -162 -44.5 -232.5t-143.5 -70.5q-83 0 -121.5 49t-38.5 120zM160 1132q0 39 22 63t56 24q33 0 56.5 -24.5t23.5 -62.5q0 -39 -23.5 -64t-56.5 -25q-34 0 -56 24.5t-22 64.5z" />
<glyph unicode="k" horiz-adv-x="865" d="M30 22v47q0 26 15 26q84 5 103.5 19t19.5 74v946q0 58 -38 58l-70 3q-11 1 -13 5t-2 18v48q0 15 3.5 19.5t14.5 6.5q43 3 94 9t63 6h54q20 0 26.5 -10t6.5 -31v-791l209 259q19 24 6 30q-11 5 -66 5q-14 0 -17 6t-3 26v39q0 16 3 21t15 5h343q12 0 14.5 -4t2.5 -19v-52 q0 -8 -0.5 -11.5t-3.5 -6t-9 -2.5q-65 0 -89.5 -10.5t-58.5 -53.5l-201 -245l177 -280q25 -48 45 -69.5t43 -21.5q52 0 52 60q2 18 7 24t19 6h19q17 0 21.5 -5.5t4.5 -30.5q0 -164 -147 -164q-66 0 -105.5 36t-75.5 102l-205 333v-260q0 -65 14.5 -78.5t93.5 -16.5 q16 0 19.5 -6t3.5 -26v-39q0 -16 -3.5 -21t-15.5 -5h-371q-12 0 -15 3.5t-3 18.5z" />
<glyph unicode="l" horiz-adv-x="441" d="M2 1233v52q0 16 3.5 20t14.5 4q118 13 144 13h71q31 0 31 -35v-1043q0 -85 14 -114t42 -29q37 0 37 44q0 15 1 20.5t6.5 8.5t18.5 3h23q16 0 20 -5t4 -25q0 -156 -142 -156q-78 0 -120 53.5t-42 178.5v933q0 34 -7.5 43t-29.5 9l-72 4q-11 0 -14 4t-3 17z" />
<glyph unicode="m" horiz-adv-x="1347" d="M61 22v47q0 11 0.5 15.5t3.5 7.5t9 3q75 5 93.5 17.5t18.5 60.5v523q0 58 -37 58l-75 4q-8 0 -10.5 3.5t-2.5 16.5v51q0 16 2.5 20t12.5 6q34 2 68.5 6t55 6t31.5 2h56q18 0 24.5 -9.5t6.5 -30.5v-125q56 180 218 180q141 0 188 -147q72 147 235 147q107 0 159.5 -81.5 t52.5 -258.5v-300q0 -84 14.5 -113t41.5 -29q39 0 39 43q0 21 3.5 27.5t20.5 6.5h23q17 0 20.5 -5t3.5 -27q0 -84 -37.5 -119t-104.5 -35q-77 0 -119.5 53t-42.5 177v308q0 127 -29 180.5t-90 53.5q-77 0 -121.5 -70.5t-44.5 -204.5v-319q1 -49 21 -60t104 -14q14 0 17.5 -6 t3.5 -26v-39q0 -16 -2.5 -21t-14.5 -5h-356q-11 0 -13.5 3.5t-2.5 18.5v47q0 26 13 26q59 2 75.5 13.5t17.5 51.5v372q0 132 -30 182.5t-89 50.5q-165 0 -168 -341v-238q0 -59 13 -73.5t78 -15.5q14 -1 17.5 -7t3.5 -25v-39q0 -9 -0.5 -12.5t-2 -7.5t-5.5 -5t-11 -1h-339 q-10 0 -13.5 4t-3.5 18z" />
<glyph unicode="n" horiz-adv-x="956" d="M52 22v47q0 26 15 26q84 5 103.5 19t19.5 74v508q0 58 -37 58l-75 4q-8 0 -10.5 3.5t-2.5 16.5v51q0 16 3.5 20t13.5 6q34 2 68.5 6t54.5 6t31 2h54q20 0 26 -9.5t6 -30.5v-135q37 97 105 143.5t150 46.5q102 0 152.5 -68t50.5 -216v-356q0 -58 8.5 -91t19.5 -42.5 t28 -9.5q39 0 39 44q0 21 3.5 26.5t20.5 5.5h24q16 0 20.5 -5t4.5 -25q0 -156 -144 -156q-162 0 -162 232v363q0 100 -26.5 139.5t-79.5 39.5q-96 0 -152 -99t-56 -301v-173q0 -65 15 -78.5t93 -16.5q11 0 15.5 -3.5t5.5 -9t1 -19.5v-39q0 -9 -0.5 -12.5t-2 -7.5t-5.5 -5 t-11 -1h-368q-13 0 -16 4t-3 18z" />
<glyph unicode="o" d="M69 439q0 88 19.5 165t60 141.5t111 101.5t163.5 37q75 0 135.5 -25t100.5 -67t66.5 -99.5t38 -120.5t11.5 -133t-11.5 -133.5t-38.5 -122t-67 -101t-101 -68t-136 -25.5t-135.5 25.5t-100.5 68t-66.5 101t-38 122t-11.5 133.5zM210 432q0 -91 20.5 -162.5t69.5 -118.5 t121 -47q73 0 122.5 47t70.5 119t21 164q0 142 -53 238.5t-159 96.5q-72 0 -121.5 -49t-70.5 -122.5t-21 -165.5z" />
<glyph unicode="p" horiz-adv-x="908" d="M30 -285q0 15 3 20.5t12 5.5q80 5 97.5 18t17.5 70l2 419v448q0 58 -37 58l-75 4q-8 0 -10.5 3.5t-2.5 16.5v51q0 16 3.5 20t13.5 6q34 2 68.5 6t55 6t31.5 2h54q20 0 25.5 -9t5.5 -31v-146q31 98 99 149.5t151 51.5q142 0 216 -124.5t74 -325.5q0 -202 -74.5 -327.5 t-223.5 -125.5q-76 0 -142.5 40t-93.5 120v-303q0 -63 20 -77.5t101 -17.5q11 0 15.5 -3.5t5.5 -9t1 -19.5v-39q0 -16 -3 -21t-17 -5h-375q-12 0 -15 4t-3 19v46zM302 406q0 -144 49 -230.5t146 -86.5q67 0 112 45.5t63.5 119t18.5 172.5q0 97 -18.5 171t-62.5 121t-109 47 q-97 0 -148 -98t-51 -261z" />
<glyph unicode="q" horiz-adv-x="919" d="M73 436q0 202 77.5 325t234.5 123q170 0 237 -132v71q0 43 31 43h54q13 0 33 -2t58.5 -7t70.5 -8q13 0 17 -5t4 -19v-49q0 -15 -2.5 -19.5t-12.5 -4.5l-82 -2q-39 -4 -39 -59v-859q0 -61 15.5 -74.5t92.5 -14.5q11 0 15.5 -3.5t5.5 -9t1 -19.5v-39q0 -16 -3 -21t-15 -5 h-374q-12 0 -14.5 4t-2.5 19v46q0 11 0.5 15.5t4 7.5t10.5 3q83 5 104.5 18.5t21.5 72.5v285q-71 -128 -236 -128q-152 0 -229.5 123.5t-77.5 323.5zM216 438q0 -89 19.5 -162t67 -122.5t116.5 -49.5q97 0 149 90.5t52 244.5q0 152 -50.5 243t-150.5 91t-151.5 -96 t-51.5 -239z" />
<glyph unicode="r" horiz-adv-x="744" d="M52 22v47q0 26 15 26q77 3 98.5 15t24.5 56v530q0 58 -37 58l-75 4q-8 0 -10.5 3.5t-2.5 16.5v51q0 16 3.5 20t13.5 6q34 2 68.5 6t54.5 6t31 2h54q20 0 26 -9.5t6 -30.5v-189h6q63 244 236 244q56 0 101 -24q15 -8 18.5 -18t3.5 -36v-260q0 -13 -3 -16t-14 -3h-69 q-15 0 -15 17l-14 204q-17 8 -43 8q-199 0 -199 -508v-107q4 -28 24 -35t82 -9q11 0 15.5 -3.5t5.5 -9t1 -19.5v-39q0 -9 -0.5 -12.5t-2 -7.5t-5.5 -5t-11 -1h-368q-13 0 -16 4t-3 18z" />
<glyph unicode="s" horiz-adv-x="727" d="M74 54v203q0 24 5.5 30.5t21.5 6.5h55q12 0 17 -5t6 -25l9 -143q75 -24 166 -24t131 31t40 116q0 47 -19 79.5t-49.5 47.5t-70 27t-81 18t-81 21.5t-70 37.5t-49.5 65t-19 104q0 133 66 186.5t213 53.5q158 0 238 -33q15 -8 19 -15t4 -22l-4 -198q-1 -17 -6.5 -20.5 t-21.5 -3.5h-48q-13 0 -18.5 6t-6.5 24l-5 132q-67 21 -147 21q-78 0 -113.5 -23.5t-35.5 -101.5q0 -36 19 -59.5t49.5 -33t70 -19t81 -16.5t81 -25.5t70 -45.5t49.5 -78.5t19 -121.5q0 -81 -20 -133.5t-61.5 -80t-93 -38t-127.5 -10.5q-74 0 -150.5 10.5t-107.5 24.5 q-25 12 -25 30z" />
<glyph unicode="t" horiz-adv-x="579" d="M41 776v66q0 15 4 19.5t15 4.5h108l55 255q3 26 23 26h35q12 0 16.5 -6t4.5 -22v-253h210q19 0 19 -26v-64q0 -14 -3.5 -18t-15.5 -4h-210v-458q0 -116 23 -160.5t72 -44.5q72 0 72 75q0 24 23 24h27q12 0 16.5 -6t4.5 -22q0 -181 -179 -181q-197 0 -197 306v467h-104 q-12 0 -15.5 4t-3.5 18z" />
<glyph unicode="u" horiz-adv-x="934" d="M30 786v41q0 16 4 21t14 5q33 3 57.5 6t33.5 4t21.5 2t31.5 1h71q18 0 23.5 -10.5t5.5 -32.5v-527q0 -119 30 -161t95 -42q95 0 147 77t52 254v282q0 52 -37 52l-76 3q-8 0 -9.5 5t-1.5 20v41q0 16 4 21t14 5q33 3 57.5 6t33.5 4t21.5 2t30.5 1h71q30 0 30 -43v-579 q0 -85 14 -114t42 -29q37 0 37 44q0 15 1 20.5t6.5 8.5t18.5 3h23q17 0 20.5 -4.5t3.5 -25.5q0 -156 -142 -156q-129 0 -156 145q-70 -149 -238 -149q-119 0 -173.5 72.5t-54.5 240.5v406q0 52 -37 52l-78 3q-8 0 -9.5 5t-1.5 20z" />
<glyph unicode="v" horiz-adv-x="847" d="M34 784v67q0 15 14 15h323q11 0 11 -15v-65v-7.5t-1.5 -5.5t-4 -4t-7.5 -2q-60 -1 -75.5 -7.5t-12.5 -24.5q3 -162 44 -308t109 -308q67 154 108.5 303t45.5 313q3 19 -11.5 25t-71.5 7q-17 3 -17 17v65q0 17 15 17h294q12 0 14.5 -3.5t2.5 -13.5v-61q0 -19 -15 -19 q-64 -4 -77.5 -9.5t-15.5 -25.5q-10 -325 -211 -727q-9 -14 -24 -14h-93q-17 0 -26 14q-38 78 -66 143.5t-64 165t-57 207t-24 211.5q-2 19 -16.5 24.5t-79.5 10.5q-11 2 -11 15z" />
<glyph unicode="w" horiz-adv-x="1305" d="M32 786v65q0 15 15 15h338q13 0 13 -15v-65q0 -16 -14 -19q-57 -1 -76.5 -8t-17.5 -22q3 -160 43.5 -308t107.5 -310q66 162 107.5 310t45.5 308q3 17 -13 23t-78 7q-17 3 -17 19v65q0 15 13 15h313q9 0 12 -3t3 -12v-67q0 -12 -12 -15q-77 -5 -94 -13q12 -182 54 -332 t111 -303q67 159 109 307.5t46 308.5q2 9 0 14t-11.5 8.5t-27.5 5t-52 2.5q-9 1 -12 5t-3 14v65q0 15 13 15h309q13 0 13 -15v-65q0 -15 -13 -17q-48 -3 -68 -6.5t-26 -9t-7 -18.5q-10 -322 -208 -728q-8 -14 -21 -14h-102q-15 0 -24 14q-93 193 -149 386 q-55 -188 -151 -386q-8 -14 -21 -14h-102q-14 0 -22 14q-197 416 -207 728q-2 17 -21 23.5t-83 10.5q-13 2 -13 17z" />
<glyph unicode="x" horiz-adv-x="878" d="M41 22v45q0 15 4 19.5t15 4.5q56 0 77.5 10.5t46.5 47.5l181 275l-179 298q-17 29 -42.5 39t-70.5 10q-9 0 -12 5.5t-3 20.5v46q0 14 3.5 18.5t14.5 4.5h322q12 0 15.5 -5t3.5 -21v-32q0 -15 -1 -20.5t-5 -10t-14 -4.5q-48 0 -56.5 -10.5t9.5 -38.5l101 -167l109 169 q17 28 8.5 37.5t-56.5 9.5q-12 0 -14.5 7t-2.5 28v32q0 16 2 21t13 5h296q11 0 14 -4t3 -19v-46q0 -15 -3 -20.5t-12 -5.5q-45 0 -71.5 -10.5t-45.5 -38.5l-179 -268l188 -309q22 -35 45.5 -45.5t75.5 -10.5q12 0 15.5 -4t3.5 -18v-45q0 -15 -2 -18.5t-13 -3.5h-337 q-12 0 -14.5 5t-2.5 21v35q0 14 1 19t4.5 8t13.5 3q63 -2 64 15q1 7 -8 19l-120 199l-132 -199q-17 -23 6 -29q18 -5 65 -5q14 0 17 -5.5t3 -24.5v-35v-13t-1.5 -7t-5 -5t-9.5 -1h-313q-11 0 -13 3.5t-2 18.5z" />
<glyph unicode="y" horiz-adv-x="869" d="M41 784v67q0 9 3 12t10 3h322q11 0 11 -15v-65v-7.5t-1.5 -5.5t-4 -4t-7.5 -2q-41 -1 -60 -5t-22.5 -10t-1.5 -17q3 -118 54 -304.5t97 -296.5q84 235 172 594q7 23 -4.5 29.5t-72.5 9.5q-11 1 -14.5 5.5t-3.5 15.5v57q0 21 18 21h289q9 0 13 -2.5t4.5 -5.5t0.5 -13v-56 q0 -15 -14 -20q-60 -4 -74 -12t-21 -40q-67 -282 -150 -527t-197 -505q-20 -39 -42 -51t-60 -12h-117q-14 0 -16.5 2.5t-2.5 16.5v56q0 8 0.5 11t4 5.5t10.5 3.5q88 10 102 17q18 8 30 35q13 33 46 112t49 119h-7q-17 0 -27 15q-53 99 -128 331t-82 388q-2 18 -18.5 24.5 t-76.5 10.5q-11 2 -11 15z" />
<glyph unicode="z" horiz-adv-x="763" d="M74 28v45q0 21 14 41l405 651h-270q-16 0 -21 -6t-7 -24l-3 -135q-2 -21 -23 -21h-55q-9 0 -13.5 1t-8 6t-3.5 15v237q0 28 21 28h540q20 0 20 -28v-47q0 -24 -15 -44l-404 -650h296q30 0 30 30l8 145q1 18 6 24t18 6h52q15 0 19.5 -6.5t4.5 -31.5v-236q0 -28 -18 -28 h-570q-23 0 -23 28z" />
<glyph unicode="{" horiz-adv-x="541" d="M45 486v73q0 14 13 16q78 17 105 62t27 138v305q0 43 5.5 77.5t20 68t38.5 56.5t63 37t91 14h59h5t4 -1.5t3 -4t1 -7.5v-74q0 -19 -13 -19h-5q-68 0 -98.5 -37t-30.5 -110v-298q0 -117 -27.5 -176.5t-100.5 -84.5q73 -25 100.5 -83.5t27.5 -174.5v-298q0 -73 30.5 -110 t98.5 -37h5q13 0 13 -19v-75q0 -9 -3 -11t-10 -2h-59q-64 0 -109 20.5t-67.5 58t-32 79.5t-9.5 96v305q0 92 -27 137t-105 62q-13 2 -13 17z" />
<glyph unicode="|" horiz-adv-x="418" d="M141 -311v1670h136v-1670h-136z" />
<glyph unicode="}" horiz-adv-x="541" d="M63 -201q0 19 13 19h4q68 0 99 37t31 110v298q0 115 27.5 173.5t101.5 84.5q-74 26 -101.5 85t-27.5 176v298q0 73 -31 110t-99 37h-4q-13 0 -13 19v74q0 9 3 11t10 2h58q65 0 110 -20t68 -57.5t32.5 -79.5t9.5 -96v-305q0 -93 26.5 -138t103.5 -62q15 -3 15 -16v-73 q0 -14 -15 -17q-77 -17 -103.5 -61.5t-26.5 -137.5v-305q0 -54 -9.5 -96t-32.5 -79.5t-68 -58t-110 -20.5h-58h-5t-4 1.5t-3 4t-1 7.5v75z" />
<glyph unicode="~" horiz-adv-x="1024" d="M101 372q46 112 119 173.5t152 61.5q40 0 77.5 -21t66 -51t55.5 -60.5t57 -51.5t59 -21q76 0 132 164l106 -43q-35 -117 -102.5 -177.5t-139.5 -60.5q-40 0 -76 21.5t-63 51.5t-52.5 60.5t-53.5 52t-56 21.5q-53 0 -93 -38.5t-75 -122.5z" />
<glyph unicode="&#xa0;" horiz-adv-x="724" d="M108 492v72q0 21 15 21h482q15 0 15 -23v-63q0 -26 -19 -26h-478q-15 0 -15 19z" />
<glyph unicode="&#xa1;" horiz-adv-x="392" d="M106 789q0 39 25 66.5t61 27.5q35 0 60 -27.5t25 -66.5q0 -44 -24 -69.5t-61 -25.5t-61.5 25.5t-24.5 69.5zM127 -318l16 936q0 21 25 21h70q17 0 17 -23l13 -936q3 -19 -17 -19h-102q-14 0 -19 5t-3 16z" />
<glyph unicode="&#xa2;" horiz-adv-x="791" d="M88 419q0 215 95.5 340t263.5 125q117 0 177.5 -55.5t60.5 -156.5q0 -76 -38 -126.5t-113 -50.5q-37 0 -67 10q-13 4 -16.5 10t-3.5 21v21q0 17 4 21.5t14 4.5q5 0 16.5 -3t19.5 -3q72 0 72 82q0 114 -122 114q-105 0 -163.5 -93t-58.5 -257q0 -326 240 -326 q104 0 216 61q12 5 15.5 0.5t3.5 -22.5v-63q0 -13 -3.5 -19t-15.5 -13q-112 -60 -249 -60q-168 0 -258 115.5t-90 322.5zM354 -326l9 240q0 21 15 21h87q12 0 12 -17l9 -244q0 -18 -8 -18h-117q-7 0 -7 18zM356 1195q0 17 9 17h115q8 0 8 -19l-10 -243q0 -15 -11 -15h-89 q-13 0 -13 18z" />
<glyph unicode="&#xa3;" horiz-adv-x="981" d="M76 22v47q0 11 0.5 15.5t4 7.5t10.5 3q84 5 103.5 16.5t19.5 61.5v395h-112q-14 0 -14 18v73q0 18 9 20q2 1 5 1h112v242q0 115 23 193.5t70.5 122.5t109.5 63t149 19q164 0 283 -45l10 -5t7 -5.5t4.5 -4.5t2 -6t0.5 -7v-10v-12v-257q0 -16 -2.5 -19t-14.5 -3h-65 q-8 0 -10.5 3.5t-4.5 14.5l-26 211q-63 24 -175 24q-105 0 -161.5 -46.5t-56.5 -169.5v-303h228q15 0 15 -23v-63q0 -26 -19 -26h-224v-443l371 -2q15 0 20 8.5t10 34.5l9 162q2 14 8.5 20.5t12 7.5t20.5 1h39q13 0 16 -11t3 -39v-5v-282q0 -14 -4 -17t-15 -3h-752 q-12 0 -15.5 4t-3.5 18z" />
<glyph unicode="&#xa4;" horiz-adv-x="1005" d="M119 547q0 181 97 304l-84 106l82 52l78 -87q90 63 209 63q127 0 223 -75l82 92l82 -54l-93 -110q88 -118 88 -291q0 -172 -86 -292l91 -108l-86 -58l-83 86q-90 -67 -218 -67q-122 0 -214 65l-80 -89l-86 57l88 110q-90 120 -90 296zM264 547q0 -147 65 -240t172 -93 q105 0 171.5 93.5t66.5 239.5t-66.5 239t-171.5 93q-108 0 -172.5 -92.5t-64.5 -239.5z" />
<glyph unicode="&#xa5;" horiz-adv-x="1077" d="M52 1227v56q0 12 3.5 16t13.5 4h357q9 0 12 -4t3 -14v-54q0 -14 -3 -19.5t-14 -5.5q-61 -2 -81.5 -7.5t-20.5 -21.5q0 -84 18 -164t54 -155t67.5 -128.5t80.5 -124.5q52 72 85.5 125t71.5 128t57 155t19 164q0 11 -9.5 17t-30.5 8.5t-63 3.5q-11 0 -14 5.5t-3 19.5v54 q0 8 0.5 11t4 5t10.5 2h337q10 0 13.5 -4t3.5 -16v-56q0 -21 -15 -21q-65 -3 -88.5 -10t-24.5 -25q-16 -279 -215 -575h188q17 0 17 -21v-54q0 -22 -20 -22h-255l-2 -4v-71h260q17 0 17 -18v-56q0 -11 -4.5 -15.5t-15.5 -4.5h-257v-112h2v-26q0 -65 15.5 -78.5t94.5 -16.5 q11 0 15.5 -3.5t5.5 -9t1 -19.5v-39q0 -16 -3.5 -21t-17.5 -5h-374q-12 0 -15 3.5t-3 18.5v47q0 11 0.5 15t3.5 7.5t10 3.5q86 5 104.5 18.5t18.5 74.5v142h-257q-15 0 -15 14v64q0 16 15 16h257v54q-9 10 -15 21h-242q-15 0 -15 17v61q0 19 15 19h174q-195 293 -203 575 q-2 15 -26.5 23t-87.5 12q-11 1 -13 5t-2 16z" />
<glyph unicode="&#xa6;" horiz-adv-x="424" d="M145 -266v728h136v-728h-136zM145 577v724h136v-724h-136z" />
<glyph unicode="&#xa7;" horiz-adv-x="889" d="M97 102q0 15 4.5 20.5t19.5 5.5h67q21 0 21 -22l14 -208q79 -28 198 -28q38 0 71.5 6t71.5 22.5t61 53t23 89.5q0 60 -18 104.5t-48.5 71t-70 46t-83 34.5t-87.5 31t-83.5 40t-70 57.5t-48.5 88t-18 126.5q0 130 43 207q-43 74 -43 184q0 86 24.5 145t71 90t101 43.5 t127.5 12.5q94 0 166.5 -14.5t105.5 -32.5q15 -8 19.5 -15.5t4.5 -28.5v-265q0 -17 -5 -20.5t-19 -3.5h-67q-7 0 -11 2.5t-5.5 5t-3.5 6.5l-1 5l-16 212q-69 28 -166 28q-188 0 -188 -149q0 -53 18 -91t48.5 -60.5t70 -39t83 -31t87.5 -31t83.5 -44t70 -65.5t48.5 -100 t18 -143q0 -69 -12 -128t-27 -66q39 -81 39 -197q0 -77 -21.5 -134.5t-55 -91t-83 -54t-96 -27t-102.5 -6.5q-81 0 -178 15t-129 33q-24 13 -24 49v262zM259 661q0 -62 24 -103.5t67 -65t88.5 -39t104.5 -37t99 -47.5q6 26 6 57q0 69 -23 117.5t-66 77t-86.5 45.5t-103.5 39 t-97 43q-13 -35 -13 -87z" />
<glyph unicode="&#xa8;" horiz-adv-x="571" d="M73 1456q0 33 20.5 56.5t53.5 23.5t54.5 -23.5t21.5 -56.5q0 -34 -21 -56t-55 -22q-33 0 -53.5 22t-20.5 56zM348 1456q0 33 21 56.5t55 23.5q33 0 55 -23.5t22 -56.5q0 -34 -21.5 -56t-55.5 -22q-35 0 -55.5 21.5t-20.5 56.5z" />
<glyph unicode="&#xa9;" horiz-adv-x="1243" d="M91 618q0 157 41 281t113 201.5t166.5 118t204.5 40.5q88 0 168 -26t147.5 -79.5t117 -130t77.5 -183.5t28 -235q0 -154 -40.5 -275t-112 -197t-165 -115.5t-203.5 -39.5q-112 0 -209.5 41t-172 119t-117.5 201.5t-43 278.5zM166 618q0 -270 128 -416t337 -146 q207 0 327 139t120 410q0 278 -127 427.5t-335 149.5q-207 0 -328.5 -144.5t-121.5 -419.5zM305 624q0 208 86 315t242 107q62 0 115.5 -12.5t80.5 -28.5q9 -3 13.5 -8.5t5.5 -12.5t1 -23v-227q0 -10 -3 -13.5t-12 -3.5h-58q-12 0 -15 15l-14 186q-44 26 -105 26 q-96 0 -151 -76.5t-55 -241.5q0 -168 59 -230.5t177 -62.5q65 0 173 32q21 6 21 -24v-52q0 -12 -4.5 -17t-16.5 -11q-89 -32 -201 -32q-166 0 -252.5 89.5t-86.5 305.5z" />
<glyph unicode="&#xaa;" horiz-adv-x="778" d="M78 974q0 157 69 252.5t199 95.5q55 0 102 -30t77 -82v77q0 8 3 11.5t5.5 4t10.5 0.5h108q15 0 15 -20v-630q0 -16 -15 -16h-114q-9 0 -11 3.5t-2 16.5v69q-65 -108 -177 -108q-89 0 -151 48t-90.5 126.5t-28.5 181.5zM220 970q0 -121 41 -181.5t115 -60.5q70 0 109.5 65 t39.5 177q0 111 -40 176.5t-111 65.5t-112.5 -64.5t-41.5 -177.5z" />
<glyph unicode="&#xab;" horiz-adv-x="813" d="M60 493l301 399q9 11 12.5 13t11.5 -2l66 -48q7 -5 6.5 -10t-10.5 -18l-248 -350l246 -343q12 -16 13 -22t-6 -11l-65 -47q-8 -5 -13 -3.5t-15 14.5l-298 387q-10 15 -10.5 20.5t9.5 20.5zM339 493l301 399q9 11 13 13t12 -2l65 -48q6 -6 5 -10.5t-11 -17.5l-247 -350 l247 -343q11 -16 12 -22t-6 -11l-63 -47q-9 -6 -13.5 -4t-14.5 15l-298 387q-11 14 -11.5 20.5t9.5 20.5z" />
<glyph unicode="&#xac;" horiz-adv-x="932" d="M114 532v114h703v-318h-136v204h-567z" />
<glyph unicode="&#xad;" horiz-adv-x="727" d="M108 503v72q0 21 15 21h482q15 0 15 -23v-63q0 -26 -19 -26h-478q-15 0 -15 19z" />
<glyph unicode="&#xae;" horiz-adv-x="1243" d="M91 618q0 157 41 281t113 201.5t166.5 118t204.5 40.5q88 0 168 -26t147.5 -79.5t117 -130t77.5 -183.5t28 -235q0 -154 -40.5 -275t-112 -197t-165 -115.5t-203.5 -39.5q-112 0 -209.5 41t-172 119t-117.5 201.5t-43 278.5zM166 618q0 -270 128 -416t337 -146 q207 0 327 139t120 410q0 278 -127 427.5t-335 149.5q-207 0 -328.5 -144.5t-121.5 -419.5zM385 266v41q0 17 10 17q44 5 55.5 13.5t11.5 40.5v477h-2v61q0 18 -4.5 26.5t-18 13.5t-42.5 7q-5 1 -7 2.5t-2.5 4.5t-0.5 9v43q0 8 2.5 10.5t9.5 2.5h223q66 0 112.5 -19t72 -55 t37 -81t11.5 -105q0 -182 -108 -239l50 -143q15 -40 27 -54.5t34 -14.5q6 0 16.5 5t16.5 5t8 -10l4 -43q1 -13 -1 -17t-12 -9q-38 -13 -69 -13q-24 0 -42.5 7t-29.5 15.5t-22 29t-16 34t-15 43.5l-50 143h-4q-46 0 -76 7v-158q1 -23 11 -29t45 -8q9 -1 11 -5t2 -16v-37 q0 -15 -11 -15h-225q-8 0 -10 2.5t-2 10.5zM564 616q25 -9 65 -9q28 0 49.5 11t36.5 31.5t22.5 52t7.5 71.5q0 89 -32 133t-86 44h-63v-334z" />
<glyph unicode="&#xaf;" horiz-adv-x="590" d="M112 1419v63q0 12 3 16t12 4h348q13 0 13 -14v-69q0 -12 -4.5 -16.5t-14.5 -4.5h-342q-8 0 -11.5 4.5t-3.5 16.5z" />
<glyph unicode="&#xb0;" horiz-adv-x="608" d="M78 1048q0 117 60.5 195.5t166.5 78.5q107 0 166.5 -78.5t59.5 -195.5q0 -119 -62 -196t-164 -77q-106 0 -166.5 76.5t-60.5 196.5zM210 1050q0 -82 28 -126.5t71 -44.5q38 0 63.5 44t25.5 121q0 78 -25.5 126t-67.5 48q-41 0 -68 -47t-27 -121z" />
<glyph unicode="&#xb1;" horiz-adv-x="936" d="M101 421v115h297v343h138v-343h296v-115h-296v-294h-138v294h-297zM104 58h734v-118h-734v118z" />
<glyph unicode="&#xb2;" horiz-adv-x="716" d="M61 572v76q0 16 8 24q195 150 307 313.5t112 349.5q0 98 -39 134.5t-112 36.5q-74 0 -143 -30l-21 -188q-1 -10 -3.5 -12.5t-9.5 -2.5h-63q-9 0 -11 2.5t-2 14.5v237q0 21 3 28t15 11q117 50 241 50q45 0 77.5 -3.5t72.5 -19.5t65 -43.5t42.5 -80t17.5 -125.5 q0 -192 -101.5 -364t-281.5 -306h292q21 0 24 37l8 119q0 10 1 14.5t4.5 7.5t10.5 3h51q12 0 15 -5t3 -25v-250q0 -12 -2 -14t-9 -2h-559q-13 0 -13 13z" />
<glyph unicode="&#xb3;" horiz-adv-x="690" d="M60 605v69q0 14 4.5 18.5t13.5 1.5q4 -1 38.5 -10.5t81 -17t96.5 -7.5q99 0 147.5 53.5t48.5 166.5q0 99 -40.5 137t-118.5 38h-70q-15 0 -15 22v69q0 9 7 20l209 324h-253q-13 0 -17.5 -8.5t-7.5 -37.5l-3 -112q0 -20 -17 -20h-52q-12 0 -14.5 3t-2.5 17v250 q0 14 2.5 17t14.5 3h482q9 0 11 -4t2 -18v-58q0 -7 -0.5 -11.5t-2.5 -9t-3 -6.5t-5.5 -8.5t-7.5 -10.5l-210 -317h19q121 0 174 -65.5t53 -208.5q0 -94 -25.5 -162.5t-70 -106t-96.5 -54.5t-114 -17q-151 0 -244 35q-14 5 -14 26z" />
<glyph unicode="&#xb4;" horiz-adv-x="498" d="M121 1389l114 173q18 28 41 28h115q13 0 15 -9.5t-9 -20.5l-166 -182q-16 -19 -43 -19h-58q-14 0 -17 7.5t8 22.5z" />
<glyph unicode="&#xb5;" horiz-adv-x="988" d="M58 786v41q0 16 4 21t14 5q33 3 57.5 6t33.5 4t21.5 2t31.5 1h70q18 0 24 -10.5t6 -32.5v-527q0 -119 30 -161t95 -42q95 0 147 77t52 254v289q-5 45 -37 45l-76 3q-12 0 -12 25v41q0 16 4.5 21t14.5 5q33 3 57.5 6t33.5 4t21.5 2t30.5 1h71q30 0 30 -43v-579 q0 -85 14 -114t42 -29q37 0 37 44q0 15 1 20.5t6.5 8.5t18.5 3h22q17 0 21 -5t4 -25q0 -156 -142 -156q-129 0 -156 145q-70 -149 -239 -149q-53 0 -91 13v-395q0 -15 -11 -15h-115q-12 0 -12 15v968h2v133q0 52 -37 52l-78 3q-8 0 -9.5 5t-1.5 20z" />
<glyph unicode="&#xb6;" horiz-adv-x="765" d="M63 938q0 159 82.5 262t211.5 103h246v-1539h-106v1439h-95v-1439h-106v793q-104 1 -168.5 111.5t-64.5 269.5z" />
<glyph unicode="&#xb7;" horiz-adv-x="450" d="M110 469q0 43 31.5 73.5t76.5 30.5t77.5 -30.5t32.5 -73.5q0 -44 -32 -74t-78 -30q-45 0 -76.5 29.5t-31.5 74.5z" />
<glyph unicode="&#xb8;" horiz-adv-x="428" d="M28 -322l11 24q7 17 21 11q35 -15 78 -15q71 0 71 82q0 65 -94 65q-3 0 -12 -1t-9 0.5t-0.5 7.5t3.5 18l48 130h88l-30 -93q117 -5 117 -125q0 -82 -45.5 -120t-116.5 -38q-58 0 -121 22q-11 6 -13 10t4 22z" />
<glyph unicode="&#xb9;" horiz-adv-x="513" d="M58 577v43q0 12 1.5 16t9.5 4q90 5 115.5 16t25.5 48v739q0 14 -6 14.5t-20 -9.5l-102 -81q-21 -13 -21 11v63q0 16 17 28l151 117q26 15 58 15h30q10 0 14 -3.5t4 -14.5v-876q0 -41 22 -51t107 -12q12 -1 14 -5.5t2 -20.5v-39q0 -13 -2.5 -16.5t-13.5 -3.5h-391 q-11 0 -13 3t-2 15z" />
<glyph unicode="&#xba;" horiz-adv-x="839" d="M69 875q0 88 19.5 165t60 141.5t111 101.5t163.5 37q75 0 135.5 -25t100.5 -67t66.5 -99.5t38 -120.5t11.5 -133t-11.5 -133.5t-38.5 -122t-67 -101.5t-101 -68.5t-136 -25.5t-135.5 25.5t-100.5 68.5t-66.5 101.5t-38 122t-11.5 133.5zM210 868q0 -91 20.5 -162.5 t69.5 -118.5t121 -47q55 0 97.5 26.5t67.5 73t37 104t12 125.5q0 91 -20.5 164.5t-70 122.5t-121.5 49t-121.5 -49t-70.5 -122.5t-21 -165.5z" />
<glyph unicode="&#xbb;" horiz-adv-x="813" d="M78 101q-5 6 -4 11.5t14 21.5l247 343l-249 350q-10 13 -10.5 18t6.5 10l65 48q8 4 11 2t11 -13l302 -399q11 -15 10.5 -20.5t-12.5 -20.5l-298 -387q-9 -13 -13 -15t-13 4zM357 101q-7 7 -5.5 12t15.5 21l246 343l-250 350q-9 13 -9.5 17.5t5.5 10.5l67 48q10 8 23 -11 l301 -399q10 -14 9.5 -20.5t-11.5 -20.5l-297 -387q-8 -13 -14 -15.5t-14 4.5z" />
<glyph unicode="&#xbf;" horiz-adv-x="780" d="M56 -99q0 81 17 136.5t44.5 84.5t60 49.5t65.5 39.5t60.5 46t44.5 78.5t17 126.5v136q0 14 3.5 17t13.5 3l106 2q13 0 13 -20v-144q0 -93 -17 -157t-44 -97.5t-59.5 -55.5t-65.5 -39t-60 -39.5t-44 -66.5t-17 -111q0 -171 197 -171q105 0 194 30l16 221q0 13 3.5 17 t17.5 4h67q9 0 12.5 -1t5.5 -6.5t2 -18.5v-272q0 -22 -4 -30.5t-20 -16.5q-37 -19 -117.5 -33.5t-182.5 -14.5q-74 0 -129 13t-102.5 44.5t-72.5 93.5t-25 152zM348 789q0 39 25 67t61 28q35 0 60 -28t25 -67q0 -44 -24.5 -69.5t-60.5 -25.5q-37 0 -61.5 25.5t-24.5 69.5z " />
<glyph unicode="&#xc0;" horiz-adv-x="1126" d="M30 22v47q0 26 15 26q81 5 102 18t21 60v91q0 237 23 428t69 333.5t120.5 219.5t172.5 77q134 0 226 -130t137 -365t45 -563v-78q0 -60 16 -73t92 -16q11 0 15.5 -3.5t5.5 -9t1 -19.5v-39q0 -16 -3.5 -21t-15.5 -5h-383q-14 0 -16.5 3t-2.5 19v47q0 11 0.5 15.5t4 7.5 t10.5 3q75 5 97.5 16.5t25.5 48.5v104q0 22 -1 64.5t-1 62.5h-516q-1 -21 -1 -127v-78q0 -60 16 -73t92 -16q11 0 15.5 -3.5t5.5 -9t1 -19.5v-39q0 -9 -0.5 -12.5t-2 -7.5t-5.5 -5t-11 -1h-352q-14 0 -16 2.5t-2 19.5zM296 514h505q-18 320 -84 501.5t-170 181.5 q-102 0 -167.5 -182t-83.5 -501zM344 1592q-21 28 6 28h108q15 0 23 -5.5t18 -20.5l134 -201q17 -30 -9 -30h-58q-23 0 -50 30z" />
<glyph unicode="&#xc1;" horiz-adv-x="1126" d="M30 22v47q0 26 15 26q81 5 102 18t21 60v91q0 237 23 428t69 333.5t120.5 219.5t172.5 77q134 0 226 -130t137 -365t45 -563v-78q0 -60 16 -73t92 -16q11 0 15.5 -3.5t5.5 -9t1 -19.5v-39q0 -16 -3.5 -21t-15.5 -5h-383q-14 0 -16.5 3t-2.5 19v47q0 11 0.5 15.5t4 7.5 t10.5 3q75 5 97.5 16.5t25.5 48.5v104q0 22 -1 64.5t-1 62.5h-516q-1 -21 -1 -127v-78q0 -60 16 -73t92 -16q11 0 15.5 -3.5t5.5 -9t1 -19.5v-39q0 -9 -0.5 -12.5t-2 -7.5t-5.5 -5t-11 -1h-352q-14 0 -16 2.5t-2 19.5zM296 514h505q-18 320 -84 501.5t-170 181.5 q-102 0 -167.5 -182t-83.5 -501zM497 1408l114 173q18 28 41 28h115q13 0 15 -9.5t-9 -20.5l-166 -183q-15 -18 -43 -18h-58q-14 0 -17 7.5t8 22.5z" />
<glyph unicode="&#xc2;" horiz-adv-x="1126" d="M30 22v47q0 26 15 26q81 5 102 18t21 60v91q0 237 23 428t69 333.5t120.5 219.5t172.5 77q134 0 226 -130t137 -365t45 -563v-78q0 -60 16 -73t92 -16q11 0 15.5 -3.5t5.5 -9t1 -19.5v-39q0 -16 -3.5 -21t-15.5 -5h-383q-14 0 -16.5 3t-2.5 19v47q0 11 0.5 15.5t4 7.5 t10.5 3q75 5 97.5 16.5t25.5 48.5v104q0 22 -1 64.5t-1 62.5h-516q-1 -21 -1 -127v-78q0 -60 16 -73t92 -16q11 0 15.5 -3.5t5.5 -9t1 -19.5v-39q0 -9 -0.5 -12.5t-2 -7.5t-5.5 -5t-11 -1h-352q-14 0 -16 2.5t-2 19.5zM296 514h505q-18 320 -84 501.5t-170 181.5 q-102 0 -167.5 -182t-83.5 -501zM350 1413l134 164q16 19 43 19h52q25 0 41 -19l136 -164q9 -15 9 -21.5t-7 -21.5q-8 -16 -24 -3l-183 126l-179 -126q-14 -7 -23 1t-8 21.5t9 23.5z" />
<glyph unicode="&#xc3;" horiz-adv-x="1126" d="M30 22v47q0 26 15 26q81 5 102 18t21 60v91q0 237 23 428t69 333.5t120.5 219.5t172.5 77q134 0 226 -130t137 -365t45 -563v-78q0 -60 16 -73t92 -16q11 0 15.5 -3.5t5.5 -9t1 -19.5v-39q0 -16 -3.5 -21t-15.5 -5h-383q-14 0 -16.5 3t-2.5 19v47q0 11 0.5 15.5t4 7.5 t10.5 3q75 5 97.5 16.5t25.5 48.5v104q0 22 -1 64.5t-1 62.5h-516q-1 -21 -1 -127v-78q0 -60 16 -73t92 -16q11 0 15.5 -3.5t5.5 -9t1 -19.5v-39q0 -9 -0.5 -12.5t-2 -7.5t-5.5 -5t-11 -1h-352q-14 0 -16 2.5t-2 19.5zM296 514h505q-18 320 -84 501.5t-170 181.5 q-102 0 -167.5 -182t-83.5 -501zM384 1437q42 106 113 106q38 0 84 -31.5t67 -31.5q25 0 41 43q6 16 17 9l41 -22q9 -4 10 -8.5t-3 -15.5q-45 -108 -114 -108q-30 0 -58.5 15t-51 30.5t-37.5 15.5q-14 0 -22 -8t-22 -33q-4 -9 -8 -10.5t-11 1.5l-39 22q-14 8 -7 26z" />
<glyph unicode="&#xc4;" horiz-adv-x="1126" d="M30 22v47q0 26 15 26q81 5 102 18t21 60v91q0 237 23 428t69 333.5t120.5 219.5t172.5 77q134 0 226 -130t137 -365t45 -563v-78q0 -60 16 -73t92 -16q11 0 15.5 -3.5t5.5 -9t1 -19.5v-39q0 -16 -3.5 -21t-15.5 -5h-383q-14 0 -16.5 3t-2.5 19v47q0 11 0.5 15.5t4 7.5 t10.5 3q75 5 97.5 16.5t25.5 48.5v104q0 22 -1 64.5t-1 62.5h-516q-1 -21 -1 -127v-78q0 -60 16 -73t92 -16q11 0 15.5 -3.5t5.5 -9t1 -19.5v-39q0 -9 -0.5 -12.5t-2 -7.5t-5.5 -5t-11 -1h-352q-14 0 -16 2.5t-2 19.5zM296 514h505q-18 320 -84 501.5t-170 181.5 q-102 0 -167.5 -182t-83.5 -501zM339 1456q0 33 20.5 56.5t53.5 23.5t55 -23.5t22 -56.5q0 -34 -21.5 -56t-55.5 -22q-33 0 -53.5 22t-20.5 56zM614 1456q0 33 21.5 56.5t55.5 23.5q33 0 54.5 -23.5t21.5 -56.5q0 -34 -21 -56t-55 -22q-35 0 -56 22t-21 56z" />
<glyph unicode="&#xc5;" horiz-adv-x="1126" d="M30 22v47q0 26 15 26q81 5 102 18t21 60v91q0 237 23 428t69 333.5t120.5 219.5t172.5 77q134 0 226 -130t137 -365t45 -563v-78q0 -60 16 -73t92 -16q11 0 15.5 -3.5t5.5 -9t1 -19.5v-39q0 -16 -3.5 -21t-15.5 -5h-383q-14 0 -16.5 3t-2.5 19v47q0 11 0.5 15.5t4 7.5 t10.5 3q75 5 97.5 16.5t25.5 48.5v104q0 22 -1 64.5t-1 62.5h-516q-1 -21 -1 -127v-78q0 -60 16 -73t92 -16q11 0 15.5 -3.5t5.5 -9t1 -19.5v-39q0 -9 -0.5 -12.5t-2 -7.5t-5.5 -5t-11 -1h-352q-14 0 -16 2.5t-2 19.5zM296 514h505q-18 320 -84 501.5t-170 181.5 q-102 0 -167.5 -182t-83.5 -501zM367 1502q0 58 43 96.5t143 38.5q99 0 141.5 -38.5t42.5 -96.5t-42.5 -96.5t-141.5 -38.5q-100 0 -143 38.5t-43 96.5zM473 1502q0 -68 80 -68q42 0 60 20t18 48q0 27 -18.5 47.5t-59.5 20.5q-44 0 -62 -20t-18 -48z" />
<glyph unicode="&#xc6;" horiz-adv-x="1532" d="M30 22v47q0 26 15 26q81 5 102 18t21 60v91q0 237 23 428t69 333.5t120.5 219.5t172.5 77q162 0 262 -190v151q0 13 3 16.5t14 3.5h568q9 0 12 -1t5 -5t2 -14v-293q0 -35 -19 -35h-56q-16 0 -19 9q-1 2 -2 8l-1 5l-11 159q-3 29 -7.5 38.5t-18.5 9.5l-326 -2v-463h231 q12 0 16 -3.5t4 -17.5v-72q0 -17 -4 -22.5t-18 -5.5h-229v-192q2 -45 2 -142v-78q0 -50 9 -67l337 -2q15 0 20 10t8 39l11 160q1 2 2.5 8t2.5 7.5t5.5 4t11.5 2.5h56q21 0 21 -35v-293q0 -14 -4 -17t-17 -3h-735q-14 0 -16.5 3t-2.5 19v47q0 11 0.5 15.5t4 7.5t10.5 3 q75 5 97.5 16.5t25.5 48.5v104q0 22 -1 64.5t-1 62.5h-516q-1 -21 -1 -127v-78q0 -60 16 -73t92 -16q11 0 15.5 -3.5t5.5 -9t1 -19.5v-39q0 -9 -0.5 -12.5t-2 -7.5t-5.5 -5t-11 -1h-352q-14 0 -16 2.5t-2 19.5zM296 514h505q-18 320 -84 501.5t-170 181.5 q-102 0 -167.5 -182t-83.5 -501z" />
<glyph unicode="&#xc7;" horiz-adv-x="1014" d="M89 640q0 339 132 510.5t377 171.5q187 0 299 -41q16 -5 20.5 -13.5t4.5 -34.5v-310q0 -14 -3.5 -18t-13.5 -4h-78q-11 0 -15 4t-4 15l-24 259q-75 24 -181 24q-169 0 -267 -142t-98 -424q0 -525 382 -525q115 0 305 43q25 6 25 -21v-61q0 -20 -6.5 -29t-23.5 -14 q-144 -40 -300 -45l-20 -63q117 -5 117 -125q0 -82 -45.5 -120t-116.5 -38q-58 0 -121 22q-8 4 -10 6t-4.5 9.5t4.5 16.5l12 24q7 17 20 11q35 -15 78 -15q71 0 71 82q0 65 -93 65q-3 0 -12 -1t-9.5 0.5t-1 7.5t3.5 18l38 104q-221 17 -331.5 174.5t-110.5 476.5z" />
<glyph unicode="&#xc8;" horiz-adv-x="897" d="M84 337q0 73 14.5 130.5t36.5 92.5t55 61t61.5 38t63.5 21q-183 46 -183 314q0 94 26.5 160t75.5 101.5t109 51t137 15.5q164 0 283 -45q5 -2 8.5 -3.5t6 -4t4.5 -3.5t3 -4t1.5 -4t1 -6t0.5 -6.5v-8.5v-10v-257q0 -16 -2.5 -19t-14.5 -3h-64q-10 0 -13.5 3.5t-4.5 14.5 l-22 211q-65 24 -177 24q-104 0 -162 -46.5t-58 -169.5q0 -132 63.5 -188t180.5 -56h100q19 0 19 -26v-67q0 -26 -19 -26h-100q-274 0 -274 -270q0 -130 67.5 -187t206.5 -57q51 0 108 6.5t94 14t71.5 16t37.5 8.5q10 1 12.5 -2.5t2.5 -18.5v-84q0 -12 -5 -16.5t-18 -9.5 q-140 -41 -346 -41q-67 0 -121 9t-105 32.5t-85.5 62.5t-55 103t-20.5 149zM270 1592q-21 28 6 28h108q15 0 22.5 -5t17.5 -21l135 -201q17 -30 -10 -30h-57q-24 0 -51 30z" />
<glyph unicode="&#xc9;" horiz-adv-x="897" d="M84 337q0 73 14.5 130.5t36.5 92.5t55 61t61.5 38t63.5 21q-183 46 -183 314q0 94 26.5 160t75.5 101.5t109 51t137 15.5q164 0 283 -45q5 -2 8.5 -3.5t6 -4t4.5 -3.5t3 -4t1.5 -4t1 -6t0.5 -6.5v-8.5v-10v-257q0 -16 -2.5 -19t-14.5 -3h-64q-10 0 -13.5 3.5t-4.5 14.5 l-22 211q-65 24 -177 24q-104 0 -162 -46.5t-58 -169.5q0 -132 63.5 -188t180.5 -56h100q19 0 19 -26v-67q0 -26 -19 -26h-100q-274 0 -274 -270q0 -130 67.5 -187t206.5 -57q51 0 108 6.5t94 14t71.5 16t37.5 8.5q10 1 12.5 -2.5t2.5 -18.5v-84q0 -12 -5 -16.5t-18 -9.5 q-140 -41 -346 -41q-67 0 -121 9t-105 32.5t-85.5 62.5t-55 103t-20.5 149zM424 1408l114 173q18 28 41 28h115q13 0 15 -9.5t-9 -20.5l-166 -183q-15 -18 -42 -18h-58q-14 0 -17 7.5t7 22.5z" />
<glyph unicode="&#xca;" horiz-adv-x="897" d="M84 337q0 73 14.5 130.5t36.5 92.5t55 61t61.5 38t63.5 21q-183 46 -183 314q0 94 26.5 160t75.5 101.5t109 51t137 15.5q164 0 283 -45q5 -2 8.5 -3.5t6 -4t4.5 -3.5t3 -4t1.5 -4t1 -6t0.5 -6.5v-8.5v-10v-257q0 -16 -2.5 -19t-14.5 -3h-64q-10 0 -13.5 3.5t-4.5 14.5 l-22 211q-65 24 -177 24q-104 0 -162 -46.5t-58 -169.5q0 -132 63.5 -188t180.5 -56h100q19 0 19 -26v-67q0 -26 -19 -26h-100q-274 0 -274 -270q0 -130 67.5 -187t206.5 -57q51 0 108 6.5t94 14t71.5 16t37.5 8.5q10 1 12.5 -2.5t2.5 -18.5v-84q0 -12 -5 -16.5t-18 -9.5 q-140 -41 -346 -41q-67 0 -121 9t-105 32.5t-85.5 62.5t-55 103t-20.5 149zM277 1413l134 164q16 19 43 19h52q25 0 41 -19l136 -164q10 -14 10 -21.5t-8 -21.5q-8 -16 -24 -3l-183 126l-178 -126q-14 -7 -23 1t-8.5 21.5t8.5 23.5z" />
<glyph unicode="&#xcb;" horiz-adv-x="897" d="M84 337q0 73 14.5 130.5t36.5 92.5t55 61t61.5 38t63.5 21q-183 46 -183 314q0 94 26.5 160t75.5 101.5t109 51t137 15.5q164 0 283 -45q5 -2 8.5 -3.5t6 -4t4.5 -3.5t3 -4t1.5 -4t1 -6t0.5 -6.5v-8.5v-10v-257q0 -16 -2.5 -19t-14.5 -3h-64q-10 0 -13.5 3.5t-4.5 14.5 l-22 211q-65 24 -177 24q-104 0 -162 -46.5t-58 -169.5q0 -132 63.5 -188t180.5 -56h100q19 0 19 -26v-67q0 -26 -19 -26h-100q-274 0 -274 -270q0 -130 67.5 -187t206.5 -57q51 0 108 6.5t94 14t71.5 16t37.5 8.5q10 1 12.5 -2.5t2.5 -18.5v-84q0 -12 -5 -16.5t-18 -9.5 q-140 -41 -346 -41q-67 0 -121 9t-105 32.5t-85.5 62.5t-55 103t-20.5 149zM266 1456q0 33 21 56.5t54 23.5t54.5 -23.5t21.5 -56.5q0 -34 -21 -56t-55 -22q-33 0 -54 22t-21 56zM542 1456q0 33 21 56.5t55 23.5q33 0 54.5 -23.5t21.5 -56.5q0 -34 -21 -56t-55 -22 q-35 0 -55.5 21.5t-20.5 56.5z" />
<glyph unicode="&#xcc;" horiz-adv-x="571" d="M76 22v47q0 10 0.5 14.5t4 8t10.5 3.5q78 3 99 14.5t24 56.5v946q0 65 -15 78t-93 16q-16 0 -19 5t-3 25v41q0 16 3 21t15 5h376q11 0 14 -4t3 -18v-48q0 -10 -0.5 -14.5t-4 -8t-10.5 -4.5q-80 -3 -101 -13.5t-22 -54.5v-993q4 -31 23.5 -38.5t84.5 -9.5q16 0 19.5 -6 t3.5 -26v-39q0 -16 -3.5 -21t-17.5 -5h-372q-14 0 -16.5 3.5t-2.5 18.5zM76 1592q-21 28 6 28h108q15 0 23 -5.5t18 -20.5l134 -201q16 -30 -9 -30h-58q-23 0 -50 30z" />
<glyph unicode="&#xcd;" horiz-adv-x="571" d="M76 22v47q0 10 0.5 14.5t4 8t10.5 3.5q85 5 104 18.5t19 74.5v924q0 65 -15 78t-93 16q-16 0 -19 5t-3 25v41q0 16 3 21t15 5h375q12 0 14 -3.5t2 -18.5v-48q0 -10 -0.5 -14.5t-4 -8t-10.5 -4.5q-79 -3 -100 -13.5t-22 -54.5v-976q1 -43 19.5 -53t89.5 -12q16 0 19.5 -6 t3.5 -26v-39q0 -16 -3.5 -21t-17.5 -5h-372q-14 0 -16.5 3.5t-2.5 18.5zM229 1408l114 173q18 28 41 28h115q13 0 15 -9.5t-9 -20.5l-166 -183q-15 -18 -43 -18h-58q-14 0 -17 7.5t8 22.5z" />
<glyph unicode="&#xce;" horiz-adv-x="571" d="M76 22v47q0 10 0.5 14.5t4 8t10.5 3.5q78 3 99 14.5t24 56.5v946q0 65 -15 78t-93 16q-16 0 -19 5t-3 25v41q0 16 3 21t15 5h376q11 0 14 -4t3 -18v-48q0 -10 -0.5 -14.5t-4 -8t-10.5 -4.5q-80 -3 -101 -13.5t-22 -54.5v-993q4 -31 23.5 -38.5t84.5 -9.5q16 0 19.5 -6 t3.5 -26v-39q0 -16 -3.5 -21t-17.5 -5h-372q-14 0 -16.5 3.5t-2.5 18.5zM78 1381q-8 16 8 32l134 164q16 19 43 19h52q25 0 41 -19l136 -164q10 -14 9.5 -21.5t-8.5 -21.5q-8 -16 -24 -3l-182 126l-179 -126q-7 -4 -11 -5t-8 3l-5 5t-6 11z" />
<glyph unicode="&#xcf;" horiz-adv-x="571" d="M71 1456q0 33 20.5 56.5t53.5 23.5t55 -23.5t22 -56.5q0 -34 -21.5 -56t-55.5 -22q-33 0 -53.5 22t-20.5 56zM76 22v47q0 10 0.5 14.5t4 8t10.5 3.5q78 3 99 14.5t24 56.5v946q0 65 -15 78t-93 16q-16 0 -19 5t-3 25v41q0 16 3 21t15 5h376q11 0 14 -4t3 -18v-48 q0 -10 -0.5 -14.5t-4 -8t-10.5 -4.5q-80 -3 -101 -13.5t-22 -54.5v-993q4 -31 23.5 -38.5t84.5 -9.5q16 0 19.5 -6t3.5 -26v-39q0 -16 -3.5 -21t-17.5 -5h-372q-14 0 -16.5 3.5t-2.5 18.5zM346 1456q0 33 21.5 56.5t55.5 23.5q33 0 54.5 -23.5t21.5 -56.5q0 -34 -21 -56 t-55 -22q-35 0 -56 22t-21 56z" />
<glyph unicode="&#xd0;" horiz-adv-x="1156" d="M76 646v75q0 8 2 11.5t4 4t7 0.5h129v415q-3 32 -24 40.5t-97 13.5q-11 1 -14 5.5t-3 17.5v54q0 14 2.5 17t14.5 3h393q303 0 440 -167.5t137 -485.5q0 -329 -136 -489.5t-430 -160.5h-404q-11 0 -14 4t-3 18v47q0 11 0.5 15.5t4 7.5t10.5 3q77 5 99.5 16t23.5 49v467 h-127q-9 0 -12 3.5t-3 15.5zM367 117h126q210 0 314.5 130.5t104.5 398.5q0 542 -420 542h-125v-451h214q11 0 11 -13v-78q0 -12 -4 -15.5t-13 -3.5h-208v-510z" />
<glyph unicode="&#xd1;" horiz-adv-x="1199" d="M76 1233v48q0 14 3.5 18t15.5 4h214q19 0 29 -7.5t19 -25.5l518 -1061v919q0 47 -21 61t-102 17q-7 1 -10.5 4.5t-4 8t-0.5 14.5v48q0 14 3.5 18t15.5 4h354q12 0 15 -5t3 -21v-41q0 -20 -3 -25t-19 -5q-73 -3 -90.5 -16t-17.5 -64v-1083q0 -43 -24 -43h-86q-32 0 -46 24 l-507 1026v-864q0 -58 16.5 -72t91.5 -17q11 0 15.5 -3.5t5.5 -9t1 -19.5v-39v-13t-1.5 -7t-5.5 -5t-11 -1h-348q-12 0 -14.5 3.5t-2.5 18.5v47q0 15 4 20.5t15 5.5q78 5 95.5 18.5t17.5 70.5v957q0 40 -22.5 51t-100.5 14q-7 1 -10.5 4.5t-4 8t-0.5 14.5zM417 1437 q42 106 114 106q38 0 83.5 -31.5t66.5 -31.5q25 0 41 43q6 16 17 9l41 -22q9 -4 10.5 -8.5t-2.5 -15.5q-45 -108 -114 -108q-30 0 -58.5 15t-51 30.5t-37.5 15.5q-14 0 -22.5 -8.5t-22.5 -32.5q-4 -9 -7.5 -10.5t-10.5 1.5l-40 22q-14 8 -7 26z" />
<glyph unicode="&#xd2;" horiz-adv-x="1195" d="M84 652q0 146 32 267.5t94.5 211.5t161.5 140.5t226 50.5t225.5 -50t160.5 -140.5t94 -212t32 -267.5q0 -147 -32 -268.5t-94 -212t-160.5 -140.5t-225.5 -50q-102 0 -186 32.5t-144.5 92t-102 143t-61.5 185t-20 218.5zM240 655q0 -255 95 -402t263 -147t263.5 147 t95.5 402q0 253 -95 396.5t-264 143.5q-168 0 -263 -143.5t-95 -396.5zM387 1592q-21 28 6 28h108q15 0 23 -5.5t18 -20.5l134 -201q16 -30 -9 -30h-58q-23 0 -50 30z" />
<glyph unicode="&#xd3;" horiz-adv-x="1195" d="M84 652q0 146 32 267.5t94.5 211.5t161.5 140.5t226 50.5t225.5 -50t160.5 -140.5t94 -212t32 -267.5q0 -147 -32 -268.5t-94 -212t-160.5 -140.5t-225.5 -50q-102 0 -186 32.5t-144.5 92t-102 143t-61.5 185t-20 218.5zM240 655q0 -255 95 -402t263 -147t263.5 147 t95.5 402q0 253 -95 396.5t-264 143.5q-168 0 -263 -143.5t-95 -396.5zM542 1408l113 173q18 28 41 28h116q13 0 14.5 -9.5t-9.5 -20.5l-165 -183q-15 -18 -43 -18h-58q-13 0 -16 7.5t7 22.5z" />
<glyph unicode="&#xd4;" horiz-adv-x="1195" d="M84 652q0 146 32 267.5t94.5 211.5t161.5 140.5t226 50.5t225.5 -50t160.5 -140.5t94 -212t32 -267.5q0 -147 -32 -268.5t-94 -212t-160.5 -140.5t-225.5 -50q-102 0 -186 32.5t-144.5 92t-102 143t-61.5 185t-20 218.5zM240 655q0 -255 95 -402t263 -147t263.5 147 t95.5 402q0 253 -95 396.5t-264 143.5q-168 0 -263 -143.5t-95 -396.5zM387 1381q-8 16 8 32l134 164q16 19 43 19h52q25 0 41 -19l136 -164q10 -14 9.5 -21.5t-8.5 -21.5q-8 -16 -24 -3l-182 126l-179 -126q-7 -4 -11 -5t-8 3l-5 5t-6 11z" />
<glyph unicode="&#xd5;" horiz-adv-x="1195" d="M84 652q0 146 32 267.5t94.5 211.5t161.5 140.5t226 50.5t225.5 -50t160.5 -140.5t94 -212t32 -267.5q0 -147 -32 -268.5t-94 -212t-160.5 -140.5t-225.5 -50q-102 0 -186 32.5t-144.5 92t-102 143t-61.5 185t-20 218.5zM240 655q0 -255 95 -402t263 -147t263.5 147 t95.5 402q0 253 -95 396.5t-264 143.5q-168 0 -263 -143.5t-95 -396.5zM428 1437q42 106 114 106q38 0 84 -31.5t67 -31.5q25 0 41 43q6 16 16 9l41 -22q9 -4 10.5 -8.5t-2.5 -15.5q-45 -108 -114 -108q-39 0 -85 30.5t-62 30.5q-14 0 -22.5 -8.5t-22.5 -32.5 q-4 -9 -7.5 -10.5t-10.5 1.5l-39 22q-15 8 -8 26z" />
<glyph unicode="&#xd6;" horiz-adv-x="1195" d="M84 652q0 146 32 267.5t94.5 211.5t161.5 140.5t226 50.5t225.5 -50t160.5 -140.5t94 -212t32 -267.5q0 -147 -32 -268.5t-94 -212t-160.5 -140.5t-225.5 -50q-102 0 -186 32.5t-144.5 92t-102 143t-61.5 185t-20 218.5zM240 655q0 -255 95 -402t263 -147t263.5 147 t95.5 402q0 253 -95 396.5t-264 143.5q-168 0 -263 -143.5t-95 -396.5zM384 1456q0 33 20.5 56.5t53.5 23.5t54.5 -23.5t21.5 -56.5q0 -34 -21 -56t-55 -22q-33 0 -53.5 22t-20.5 56zM659 1456q0 33 21 56.5t55 23.5q33 0 55 -23.5t22 -56.5q0 -34 -21.5 -56t-55.5 -22 q-35 0 -55.5 21.5t-20.5 56.5z" />
<glyph unicode="&#xd7;" horiz-adv-x="776" d="M84 748l69 86l232 -274l205 283l78 -78l-206 -283l231 -272l-71 -85l-231 270l-205 -280l-76 77l205 283z" />
<glyph unicode="&#xd8;" horiz-adv-x="1195" d="M84 652q0 146 32 267.5t94.5 211.5t161.5 140.5t226 50.5q74 0 147 -21l22 67q9 19 17 19h121q19 0 11 -22l-41 -125q116 -81 175.5 -234t59.5 -354q0 -147 -32 -268.5t-94 -212t-160.5 -140.5t-225.5 -50q-72 0 -138 17l-32 -99q-3 -7 -7 -10t-6.5 -3.5t-10.5 -0.5h-121 q-13 0 -7 14l52 157q-121 81 -182.5 236t-61.5 360zM240 655q0 -312 136 -456l328 980q-49 16 -106 16q-168 0 -263 -143.5t-95 -396.5zM501 119q43 -13 97 -13q168 0 263.5 147t95.5 402q0 301 -130 442z" />
<glyph unicode="&#xd9;" horiz-adv-x="1169" d="M58 1236v41q0 16 3 21t15 5h386q12 0 15 -3.5t3 -18.5v-48q0 -16 -2 -21t-13 -6q-76 -3 -99 -15t-25 -50v-679q0 -171 68 -263.5t194 -92.5q124 0 191.5 93t67.5 263v676q-1 44 -20 54.5t-90 13.5q-16 0 -19 5t-3 25v41q0 9 0.5 12.5t2 7.5t5.5 5t12 1h347q7 0 10.5 -0.5 t5.5 -4t2 -6v-11.5v-48q0 -12 -3 -18t-5 -6.5t-7 -0.5q-76 -5 -99 -17.5t-24 -49.5v-679q0 -219 -97.5 -350t-289.5 -131q-197 0 -299.5 125t-102.5 356v653q0 61 -15.5 74.5t-92.5 16.5q-16 0 -19 5t-3 25zM393 1592q-21 28 5 28h108q15 0 23 -5.5t18 -20.5l134 -201 q16 -30 -9 -30h-58q-23 0 -50 30z" />
<glyph unicode="&#xda;" horiz-adv-x="1169" d="M58 1236v41q0 16 3 21t15 5h386q12 0 15 -3.5t3 -18.5v-48q0 -16 -2 -21t-13 -6q-76 -3 -99 -15t-25 -50v-679q0 -171 68 -263.5t194 -92.5q124 0 191.5 93t67.5 263v676q-1 44 -20 54.5t-90 13.5q-16 0 -19 5t-3 25v41q0 9 0.5 12.5t2 7.5t5.5 5t12 1h347q7 0 10.5 -0.5 t5.5 -4t2 -6v-11.5v-48q0 -12 -3 -18t-5 -6.5t-7 -0.5q-76 -5 -99 -17.5t-24 -49.5v-679q0 -219 -97.5 -350t-289.5 -131q-197 0 -299.5 125t-102.5 356v653q0 61 -15.5 74.5t-92.5 16.5q-16 0 -19 5t-3 25zM546 1408l113 173q18 28 41 28h115q13 0 15 -9.5t-9 -20.5 l-166 -183q-15 -18 -42 -18h-58q-13 0 -16 7.5t7 22.5z" />
<glyph unicode="&#xdb;" horiz-adv-x="1167" d="M58 1236v41q0 16 3 21t15 5h386q12 0 15 -3.5t3 -18.5v-48q0 -16 -2 -21t-13 -6q-76 -3 -99 -15t-25 -50v-679q0 -171 68 -263.5t194 -92.5q124 0 191.5 93t67.5 263v676q-1 44 -20 54.5t-90 13.5q-16 0 -19 5t-3 25v41q0 9 0.5 12.5t2 7.5t5.5 5t12 1h347q7 0 10.5 -0.5 t5.5 -4t2 -6v-11.5v-48q0 -12 -3 -18t-5 -6.5t-7 -0.5q-76 -5 -99 -17.5t-24 -49.5v-679q0 -219 -97.5 -350t-289.5 -131q-197 0 -299.5 125t-102.5 356v653q0 61 -15.5 74.5t-92.5 16.5q-16 0 -19 5t-3 25zM398 1413l134 164q16 19 43 19h52q25 0 41 -19l136 -164 q10 -14 10 -21.5t-8 -21.5q-8 -16 -24 -3l-182 126l-179 -126q-14 -7 -23 1t-8.5 21.5t8.5 23.5z" />
<glyph unicode="&#xdc;" horiz-adv-x="1169" d="M58 1236v41q0 16 3 21t15 5h386q12 0 15 -3.5t3 -18.5v-48q0 -16 -2 -21t-13 -6q-76 -3 -99 -15t-25 -50v-679q0 -171 68 -263.5t194 -92.5q124 0 191.5 93t67.5 263v676q-1 44 -20 54.5t-90 13.5q-16 0 -19 5t-3 25v41q0 9 0.5 12.5t2 7.5t5.5 5t12 1h347q7 0 10.5 -0.5 t5.5 -4t2 -6v-11.5v-48q0 -12 -3 -18t-5 -6.5t-7 -0.5q-76 -5 -99 -17.5t-24 -49.5v-679q0 -219 -97.5 -350t-289.5 -131q-197 0 -299.5 125t-102.5 356v653q0 61 -15.5 74.5t-92.5 16.5q-16 0 -19 5t-3 25zM387 1456q0 33 21 56.5t54 23.5t54.5 -23.5t21.5 -56.5 q0 -34 -21 -56t-55 -22q-33 0 -54 22t-21 56zM663 1456q0 33 21 56.5t55 23.5q33 0 54.5 -23.5t21.5 -56.5q0 -34 -21 -56t-55 -22q-35 0 -55.5 21.5t-20.5 56.5z" />
<glyph unicode="&#xdd;" horiz-adv-x="1027" d="M28 1227v56q0 12 3.5 16t13.5 4h357q11 0 14 -4t3 -14v-54q0 -25 -19 -25q-60 -2 -80 -7.5t-20 -21.5q0 -84 18 -163.5t54 -155.5t66.5 -128.5t79.5 -124.5q51 71 85 124.5t71.5 128.5t56.5 155t19 164q0 16 -20.5 21.5t-81.5 7.5q-11 0 -14 5.5t-3 19.5v54q0 10 3 14 t12 4h337q10 0 13.5 -4t3.5 -16v-56q0 -21 -15 -21q-64 -3 -87.5 -10t-26.5 -25q-18 -324 -286 -676v-277h1v-26q0 -65 15.5 -78.5t94.5 -16.5q16 0 19.5 -6t3.5 -26v-39q0 -16 -3.5 -21t-17.5 -5h-374q-13 0 -16 4t-3 18v47q0 10 0.5 14.5t4 8t10.5 3.5q86 5 104.5 18.5 t18.5 74.5v292q-57 76 -100.5 144.5t-88.5 158t-70.5 188.5t-27.5 200q0 15 -24.5 23t-88.5 12q-11 1 -13 5t-2 16zM471 1408l114 173q18 28 41 28h115q13 0 15 -9.5t-9 -20.5l-166 -183q-15 -18 -43 -18h-58q-14 0 -17 7.5t8 22.5z" />
<glyph unicode="&#xde;" horiz-adv-x="910" d="M74 22v47q0 10 0.5 14.5t4 8t10.5 3.5q85 5 104 18.5t19 74.5v924q0 65 -15 78t-93 16q-16 0 -19 5t-3 25v41q0 16 3.5 21t15.5 5h374q12 0 14.5 -3.5t2.5 -18.5v-48q0 -10 -0.5 -14.5t-4 -8t-10.5 -4.5q-85 -3 -104 -16.5t-19 -74.5v-78h89q96 0 168 -21t115.5 -55 t70 -85t36 -103.5t9.5 -117.5q0 -200 -92.5 -311t-284.5 -111q-63 0 -111 11v-80q1 -43 20 -53.5t90 -13.5q11 0 15.5 -3.5t5.5 -9t1 -19.5v-39q0 -16 -3.5 -21t-17.5 -5h-372q-14 0 -16.5 3.5t-2.5 18.5zM354 363q19 -13 104 -13q112 0 173.5 79.5t61.5 220.5 q0 121 -51.5 199t-168.5 78h-119v-564z" />
<glyph unicode="&#xdf;" horiz-adv-x="930" d="M128 24v957q0 174 85.5 257.5t235.5 83.5q64 0 117.5 -15t98.5 -48t70.5 -91.5t25.5 -137.5q0 -63 -14 -115t-43 -93.5t-54 -67.5t-65 -61q142 -54 210.5 -135.5t68.5 -214.5q0 -164 -100 -253.5t-286 -89.5h-33q-17 0 -17 15v78q0 14 4 17.5t19 3.5h35q100 0 167.5 58 t67.5 169q0 25 -4.5 48t-10 41.5t-17.5 36t-21 29.5t-27 26t-28 21.5t-32 19.5t-31 16.5t-33 15.5t-31 14q-34 16 -52.5 32.5t-18.5 41.5q0 40 60 84q29 23 48 42t43 50.5t36 73t12 91.5q0 98 -45.5 141t-116.5 43q-85 0 -136.5 -56.5t-51.5 -170.5v-959q0 -15 -2.5 -18.5 t-13.5 -3.5h-97q-14 0 -18.5 4.5t-4.5 19.5z" />
<glyph unicode="&#xe0;" d="M67 209q0 71 21 120t55.5 72t79 37.5t90.5 18t90.5 12.5t79 21t55.5 44t21 82q0 74 -44.5 119t-136.5 45q-74 0 -136 -32l-17 -186q0 -10 -2.5 -13t-10.5 -3h-67q-7 0 -10.5 2t-4 5t-0.5 11v218q0 25 4.5 36t18.5 18q29 18 93 33t138 15q169 0 244.5 -82t75.5 -238v-320 q0 -85 14 -114t42 -29q37 0 37 44q0 12 1 17.5t7 10t18 4.5h22q16 0 21 -6.5t5 -23.5q0 -156 -143 -156q-131 0 -156 150q-78 -154 -280 -154q-114 0 -169.5 53.5t-55.5 168.5zM209 1266q-21 28 5 28h108q15 0 23 -5.5t18 -20.5l134 -201q17 -30 -9 -30h-58q-23 0 -50 30z M210 209q0 -63 27 -92t83 -29q67 0 123 41t85.5 101t33.5 122l4 102q-21 -42 -66.5 -62t-93 -25t-93 -14.5t-74.5 -44t-29 -99.5z" />
<glyph unicode="&#xe1;" horiz-adv-x="953" d="M73 436q0 202 77.5 325t234.5 123q170 0 237 -132v71q0 43 31 43h54q13 0 33 -2t58.5 -7t70.5 -8q13 0 17 -5t4 -19v-49q0 -15 -2.5 -19.5t-12.5 -4.5l-82 -2q-39 -4 -39 -59v-468q1 -71 16 -96.5t40 -25.5q39 0 39 44q0 21 3.5 26.5t20.5 5.5h23q18 0 22 -5t4 -25 q0 -156 -144 -156q-127 0 -154 141q-69 -143 -244 -143q-152 0 -229.5 123.5t-77.5 323.5zM216 438q0 -89 19.5 -162t67 -122.5t116.5 -49.5q97 0 149 90.5t52 244.5q0 152 -50.5 243t-150.5 91t-151.5 -96t-51.5 -239zM408 1082l113 173q18 28 41 28h116q13 0 14.5 -9.5 t-9.5 -20.5l-165 -182q-16 -19 -43 -19h-58q-13 0 -16 7.5t7 22.5z" />
<glyph unicode="&#xe2;" d="M67 209q0 71 21 120t55.5 72t79 37.5t90.5 18t90.5 12.5t79 21t55.5 44t21 82q0 74 -44.5 119t-136.5 45q-74 0 -136 -32l-17 -186q0 -10 -2.5 -13t-10.5 -3h-67q-7 0 -10.5 2t-4 5t-0.5 11v218q0 25 4.5 36t18.5 18q29 18 93 33t138 15q169 0 244.5 -82t75.5 -238v-320 q0 -85 14 -114t42 -29q37 0 37 44q0 12 1 17.5t7 10t18 4.5h22q16 0 21 -6.5t5 -23.5q0 -156 -143 -156q-131 0 -156 150q-78 -154 -280 -154q-114 0 -169.5 53.5t-55.5 168.5zM209 1056q-8 16 7 31l134 164q16 19 43 19h52q25 0 41 -19l136 -164q7 -8 8.5 -15t0 -11.5 t-6.5 -16.5q-8 -16 -24 -3l-183 126l-179 -126q-7 -4 -11.5 -5t-7.5 2.5t-5 6.5t-5 11zM210 209q0 -63 27 -92t83 -29q51 0 96 24t75.5 62.5t49 85t21.5 92.5l4 102q-16 -31 -44.5 -50t-60.5 -26t-67.5 -11.5t-68 -11.5t-58.5 -21.5t-41.5 -45.5t-15.5 -79z" />
<glyph unicode="&#xe3;" d="M67 209q0 71 21 120t55.5 72t79 37.5t90.5 18t90.5 12.5t79 21t55.5 44t21 82q0 74 -44.5 119t-136.5 45q-74 0 -136 -32l-17 -186q0 -10 -2.5 -13t-10.5 -3h-67q-7 0 -10.5 2t-4 5t-0.5 11v218q0 25 4.5 36t18.5 18q29 18 93 33t138 15q169 0 244.5 -82t75.5 -238v-320 q0 -85 14 -114t42 -29q37 0 37 44q0 12 1 17.5t7 10t18 4.5h22q16 0 21 -6.5t5 -23.5q0 -156 -143 -156q-131 0 -156 150q-78 -154 -280 -154q-114 0 -169.5 53.5t-55.5 168.5zM210 209q0 -63 27 -92t83 -29q67 0 123 41t85.5 101t33.5 122l4 102q-21 -42 -66.5 -62t-93 -25 t-93 -14.5t-74.5 -44t-29 -99.5zM249 1112q42 106 114 106q38 0 84 -32t67 -32q25 0 41 43q6 16 17 9l41 -22q9 -4 10 -8.5t-3 -15.5q-45 -108 -114 -108q-30 0 -58.5 15t-51 30.5t-37.5 15.5q-14 0 -22 -8t-22 -33q-4 -9 -8 -10.5t-11 1.5l-39 22q-15 8 -8 27z" />
<glyph unicode="&#xe4;" d="M67 209q0 71 21 120t55.5 72t79 37.5t90.5 18t90.5 12.5t79 21t55.5 44t21 82q0 74 -44.5 119t-136.5 45q-74 0 -136 -32l-17 -186q0 -10 -2.5 -13t-10.5 -3h-67q-7 0 -10.5 2t-4 5t-0.5 11v218q0 25 4.5 36t18.5 18q29 18 93 33t138 15q169 0 244.5 -82t75.5 -238v-320 q0 -85 14 -114t42 -29q37 0 37 44q0 12 1 17.5t7 10t18 4.5h22q16 0 21 -6.5t5 -23.5q0 -156 -143 -156q-131 0 -156 150q-78 -154 -280 -154q-114 0 -169.5 53.5t-55.5 168.5zM205 1130q0 33 20.5 56.5t53.5 23.5t55 -23.5t22 -56.5q0 -34 -21.5 -56t-55.5 -22 q-33 0 -53.5 22t-20.5 56zM210 209q0 -63 27 -92t83 -29q67 0 123 41t85.5 101t33.5 122l4 102q-21 -42 -66.5 -62t-93 -25t-93 -14.5t-74.5 -44t-29 -99.5zM480 1130q0 33 21.5 56.5t55.5 23.5q33 0 54.5 -23.5t21.5 -56.5q0 -34 -21 -56t-55 -22q-35 0 -56 22t-21 56z" />
<glyph unicode="&#xe5;" d="M67 209q0 71 21 120t55.5 72t79 37.5t90.5 18t90.5 12.5t79 21t55.5 44t21 82q0 74 -44.5 119t-136.5 45q-74 0 -136 -32l-17 -186q0 -10 -2.5 -13t-10.5 -3h-67q-7 0 -10.5 2t-4 5t-0.5 11v218q0 25 4.5 36t18.5 18q29 18 93 33t138 15q169 0 244.5 -82t75.5 -238v-320 q0 -85 14 -114t42 -29q37 0 37 44q0 12 1 17.5t7 10t18 4.5h22q16 0 21 -6.5t5 -23.5q0 -156 -143 -156q-131 0 -156 150q-78 -154 -280 -154q-114 0 -169.5 53.5t-55.5 168.5zM210 209q0 -63 27 -92t83 -29q67 0 123 41t85.5 101t33.5 122l4 102q-21 -42 -66.5 -62t-93 -25 t-93 -14.5t-74.5 -44t-29 -99.5zM233 1177q0 58 43 96t143 38q99 0 141.5 -38t42.5 -96t-42.5 -97t-141.5 -39q-100 0 -143 39t-43 97zM339 1177q0 -69 80 -69q42 0 60 20t18 49q0 27 -18 47t-60 20q-44 0 -62 -19.5t-18 -47.5z" />
<glyph unicode="&#xe6;" horiz-adv-x="1262" d="M67 199q0 44 8.5 79t21 59t34.5 43t41.5 29.5t50 19t51.5 12t54 8.5q39 6 62.5 10.5t53.5 16t46.5 28t28.5 44t12 65.5q0 78 -34 119t-132 41q-85 0 -136 -26l-11 -162q-1 -13 -5 -17t-14 -4h-61q-19 0 -19 21v203q0 25 4 35.5t18 18.5q28 17 90 29.5t136 12.5 q198 0 266 -117q86 117 259 117q144 0 215.5 -67.5t71.5 -196.5q0 -55 -13.5 -97.5t-35 -71.5t-57.5 -49.5t-70.5 -31.5t-85.5 -17.5t-92 -8t-99 -1.5h-30q14 -137 73.5 -191.5t159.5 -54.5q28 0 53.5 3.5t55 13t42.5 13.5t47 19t37 16q11 5 16.5 0t5.5 -22v-47 q0 -21 -4 -29t-18 -17q-45 -30 -114.5 -48t-137.5 -18q-244 0 -322 192q-34 -92 -107.5 -142t-182.5 -50q-118 0 -175.5 53.5t-57.5 164.5zM210 201q0 -115 101 -115q94 0 160.5 86.5t66.5 188.5v80q-23 -45 -64.5 -65t-104.5 -30q-81 -14 -107 -30q-52 -31 -52 -115z M693 443q36 0 54.5 0.5t53.5 2.5t54 5t48.5 9.5t46 15t36.5 22t30 30.5t17.5 40.5t7.5 51.5q0 75 -40.5 114t-106.5 39q-201 0 -201 -330z" />
<glyph unicode="&#xe7;" horiz-adv-x="754" d="M71 421q0 227 94 345t265 118q67 0 125.5 -13.5t88.5 -30.5q14 -7 18.5 -17t4.5 -34v-247q0 -11 -3.5 -15t-13.5 -4h-64q-13 0 -16 17l-17 203q-48 28 -114 28q-105 0 -165 -83.5t-60 -264.5q0 -95 18 -159t54 -98t80.5 -48t106.5 -14q75 0 188 34q12 4 17 -2.5t5 -23.5 v-58q0 -21 -22 -30q-77 -29 -192 -33l-22 -69q117 -5 117 -125q0 -82 -45.5 -120t-116.5 -38q-58 0 -121 22q-11 6 -13 10t4 22l11 24q7 17 20 11q35 -15 79 -15q70 0 70 82q0 65 -93 65q-3 0 -12 -1t-9 0.5t-0.5 7.5t3.5 18l39 109q-74 7 -129 32.5t-96.5 74.5t-62.5 129.5 t-21 190.5z" />
<glyph unicode="&#xe8;" horiz-adv-x="783" d="M73 426q0 458 342 458q144 0 215.5 -67.5t71.5 -196.5q0 -55 -13.5 -97.5t-35 -71.5t-57.5 -49.5t-70.5 -31.5t-85.5 -17.5t-92 -8t-99 -1.5h-29q14 -137 73.5 -191.5t158.5 -54.5q28 0 53.5 3.5t55 13t42.5 13.5t47 19t37 16q11 5 16.5 0t5.5 -22v-47q0 -21 -4 -29 t-18 -17q-45 -30 -114 -48t-137 -18q-186 0 -274.5 110t-88.5 335zM205 1266q-21 28 5 28h108q15 0 23 -5.5t18 -20.5l134 -201q17 -30 -9 -30h-58q-23 0 -50 30zM216 443q36 0 54.5 0.5t53.5 2.5t54 5t48.5 9.5t46 15t36.5 22t30 30.5t17.5 40.5t7.5 51.5q0 75 -40.5 114 t-106.5 39q-201 0 -201 -330z" />
<glyph unicode="&#xe9;" horiz-adv-x="783" d="M73 426q0 458 342 458q144 0 215.5 -67.5t71.5 -196.5q0 -55 -13.5 -97.5t-35 -71.5t-57.5 -49.5t-70.5 -31.5t-85.5 -17.5t-92 -8t-99 -1.5h-29q14 -137 73.5 -191.5t158.5 -54.5q28 0 53.5 3.5t55 13t42.5 13.5t47 19t37 16q11 5 16.5 0t5.5 -22v-47q0 -21 -4 -29 t-18 -17q-45 -30 -114 -48t-137 -18q-186 0 -274.5 110t-88.5 335zM216 443q36 0 54.5 0.5t53.5 2.5t54 5t48.5 9.5t46 15t36.5 22t30 30.5t17.5 40.5t7.5 51.5q0 75 -40.5 114t-106.5 39q-201 0 -201 -330zM357 1082l114 173q18 28 41 28h115q13 0 15 -9.5t-9 -20.5 l-166 -182q-16 -19 -43 -19h-57q-14 0 -17 7.5t7 22.5z" />
<glyph unicode="&#xea;" horiz-adv-x="783" d="M73 426q0 458 342 458q144 0 215.5 -67.5t71.5 -196.5q0 -55 -13.5 -97.5t-35 -71.5t-57.5 -49.5t-70.5 -31.5t-85.5 -17.5t-92 -8t-99 -1.5h-29q14 -137 73.5 -191.5t158.5 -54.5q28 0 53.5 3.5t55 13t42.5 13.5t47 19t37 16q11 5 16.5 0t5.5 -22v-47q0 -21 -4 -29 t-18 -17q-45 -30 -114 -48t-137 -18q-186 0 -274.5 110t-88.5 335zM205 1056q-8 16 7 31l134 164q16 19 43 19h52q25 0 41 -19l136 -164q10 -15 10 -21.5t-8 -21.5q-8 -16 -24 -3l-183 126l-178 -126q-7 -4 -11.5 -5t-8 2t-5.5 6.5t-5 11.5zM216 443h1q54 1 82.5 2t77 6 t75.5 16.5t56.5 30t42.5 49.5t13 73q0 75 -40.5 114t-106.5 39q-201 0 -201 -330z" />
<glyph unicode="&#xeb;" horiz-adv-x="783" d="M73 426q0 458 342 458q144 0 215.5 -67.5t71.5 -196.5q0 -55 -13.5 -97.5t-35 -71.5t-57.5 -49.5t-70.5 -31.5t-85.5 -17.5t-92 -8t-99 -1.5h-29q14 -137 73.5 -191.5t158.5 -54.5q28 0 53.5 3.5t55 13t42.5 13.5t47 19t37 16q11 5 16.5 0t5.5 -22v-47q0 -21 -4 -29 t-18 -17q-45 -30 -114 -48t-137 -18q-186 0 -274.5 110t-88.5 335zM201 1130q0 33 21 56.5t54 23.5t54.5 -23.5t21.5 -56.5q0 -34 -21 -56t-55 -22q-33 0 -54 22t-21 56zM216 443q36 0 54.5 0.5t53.5 2.5t54 5t48.5 9.5t46 15t36.5 22t30 30.5t17.5 40.5t7.5 51.5 q0 75 -40.5 114t-106.5 39q-201 0 -201 -330zM477 1130q0 33 21 56.5t55 23.5q33 0 54.5 -23.5t21.5 -56.5q0 -34 -21 -56t-55 -22q-35 0 -55.5 21.5t-20.5 56.5z" />
<glyph unicode="&#xec;" horiz-adv-x="485" d="M28 1266q-21 28 6 28h107q15 0 23 -5.5t18 -20.5l135 -201q17 -30 -10 -30h-58q-23 0 -50 30zM41 780v45q0 28 19 28q88 13 143 13h69q33 0 33 -39v-583q0 -85 14 -114t42 -29q37 0 37 44q0 15 1 20.5t6.5 8.5t18.5 3h23q16 0 20 -5t4 -25q0 -156 -141 -156 q-78 0 -120 53.5t-42 178.5v473q0 37 -8 46.5t-32 11.5l-74 2q-13 0 -13 24z" />
<glyph unicode="&#xed;" horiz-adv-x="485" d="M41 780v45q0 28 19 28q88 13 143 13h69q33 0 33 -39v-583q0 -85 14 -114t42 -29q37 0 37 44q0 15 1 20.5t6.5 8.5t18.5 3h23q16 0 20 -5t4 -25q0 -156 -141 -156q-78 0 -120 53.5t-42 178.5v473q0 37 -8 46.5t-32 11.5l-74 2q-13 0 -13 24zM181 1082l113 173q18 28 41 28 h116q13 0 14.5 -9.5t-9.5 -20.5l-166 -182q-16 -19 -42 -19h-58q-14 0 -17 7.5t8 22.5z" />
<glyph unicode="&#xee;" horiz-adv-x="485" d="M26 1056q-8 15 8 31l134 164q16 19 42 19h53q24 0 40 -19l136 -164q10 -15 10 -21.5t-8 -21.5q-8 -16 -24 -3l-182 126l-179 -126q-16 -5 -19.5 -2.5t-10.5 17.5zM41 780v45q0 28 19 28q88 13 143 13h69q33 0 33 -39v-583q0 -85 14 -114t42 -29q37 0 37 44q0 15 1 20.5 t6.5 8.5t18.5 3h23q16 0 20 -5t4 -25q0 -156 -141 -156q-78 0 -120 53.5t-42 178.5v473q0 37 -8 46.5t-32 11.5l-74 2q-13 0 -13 24z" />
<glyph unicode="&#xef;" horiz-adv-x="485" d="M22 1130q0 33 21 56.5t54 23.5t54.5 -23.5t21.5 -56.5q0 -34 -21 -56t-55 -22q-33 0 -54 22t-21 56zM41 780v45q0 28 19 28q88 13 143 13h69q33 0 33 -39v-583q0 -85 14 -114t42 -29q37 0 37 44q0 15 1 20.5t6.5 8.5t18.5 3h23q16 0 20 -5t4 -25q0 -156 -141 -156 q-78 0 -120 53.5t-42 178.5v473q0 37 -8 46.5t-32 11.5l-74 2q-13 0 -13 24zM298 1130q0 33 21 56.5t55 23.5q33 0 55 -23.5t22 -56.5q0 -34 -21.5 -56t-55.5 -22q-35 0 -55.5 21.5t-20.5 56.5z" />
<glyph unicode="&#xf0;" horiz-adv-x="852" d="M73 404q0 81 15.5 150.5t49 129.5t93.5 95t141 35q134 0 224 -129q-40 323 -207 447l-59 -138q-8 -13 -17 -4l-69 41q-15 8 -8 23l58 130q-54 17 -113 17h-15q-23 0 -23 30v65q0 26 23 26h15q83 0 163 -24l62 137q7 15 22 6l58 -35q11 -7 13 -11.5t-2 -16.5l-54 -123 q155 -90 234 -286.5t79 -460.5q0 -248 -83.5 -387.5t-259.5 -139.5q-163 0 -251.5 113.5t-88.5 309.5zM222 410q0 -153 50.5 -233t138.5 -80q196 0 196 393v2q-27 104 -75 155t-124 51q-93 0 -139.5 -78.5t-46.5 -209.5z" />
<glyph unicode="&#xf1;" horiz-adv-x="956" d="M52 22v47q0 26 15 26q84 5 103.5 19t19.5 74v508q0 58 -37 58l-75 4q-8 0 -10.5 3.5t-2.5 16.5v51q0 16 3.5 20t13.5 6q34 2 68.5 6t54.5 6t31 2h54q20 0 26 -9.5t6 -30.5v-135q37 97 105 143.5t150 46.5q102 0 152.5 -68t50.5 -216v-356q0 -58 8.5 -91t19.5 -42.5 t28 -9.5q39 0 39 44q0 21 3.5 26.5t20.5 5.5h24q16 0 20.5 -5t4.5 -25q0 -156 -144 -156q-162 0 -162 232v363q0 100 -26.5 139.5t-79.5 39.5q-96 0 -152 -99t-56 -301v-173q0 -65 15 -78.5t93 -16.5q11 0 15.5 -3.5t5.5 -9t1 -19.5v-39q0 -9 -0.5 -12.5t-2 -7.5t-5.5 -5 t-11 -1h-368q-13 0 -16 4t-3 18zM352 1112q42 106 113 106q38 0 84 -32t67 -32q25 0 41 43q6 16 17 9l41 -22q9 -4 10 -8.5t-3 -15.5q-45 -108 -113 -108q-39 0 -85 30.5t-62 30.5q-14 0 -22.5 -8.5t-22.5 -32.5q-4 -9 -8 -10.5t-11 1.5l-39 22q-15 8 -7 27z" />
<glyph unicode="&#xf2;" d="M69 439q0 88 19.5 165t60 141.5t111 101.5t163.5 37q75 0 135.5 -25t100.5 -67t66.5 -99.5t38 -120.5t11.5 -133t-11.5 -133.5t-38.5 -122t-67 -101t-101 -68t-136 -25.5t-135.5 25.5t-100.5 68t-66.5 101t-38 122t-11.5 133.5zM210 432q0 -91 20.5 -162.5t69.5 -118.5 t121 -47q73 0 122.5 47t70.5 119t21 164q0 142 -53 238.5t-159 96.5q-72 0 -121.5 -49t-70.5 -122.5t-21 -165.5zM212 1266q-21 28 6 28h108q15 0 23 -5.5t18 -20.5l134 -201q17 -30 -9 -30h-58q-23 0 -50 30z" />
<glyph unicode="&#xf3;" d="M69 439q0 88 19.5 165t60 141.5t111 101.5t163.5 37q75 0 135.5 -25t100.5 -67t66.5 -99.5t38 -120.5t11.5 -133t-11.5 -133.5t-38.5 -122t-67 -101t-101 -68t-136 -25.5t-135.5 25.5t-100.5 68t-66.5 101t-38 122t-11.5 133.5zM210 432q0 -91 20.5 -162.5t69.5 -118.5 t121 -47q73 0 122.5 47t70.5 119t21 164q0 142 -53 238.5t-159 96.5q-72 0 -121.5 -49t-70.5 -122.5t-21 -165.5zM367 1082l113 173q18 28 41 28h116q13 0 14.5 -9.5t-9.5 -20.5l-165 -182q-16 -19 -43 -19h-58q-14 0 -17 7.5t8 22.5z" />
<glyph unicode="&#xf4;" d="M69 439q0 88 19.5 165t60 141.5t111 101.5t163.5 37q75 0 135.5 -25t100.5 -67t66.5 -99.5t38 -120.5t11.5 -133t-11.5 -133.5t-38.5 -122t-67 -101t-101 -68t-136 -25.5t-135.5 25.5t-100.5 68t-66.5 101t-38 122t-11.5 133.5zM210 432q0 -91 20.5 -162.5t69.5 -118.5 t121 -47q73 0 122.5 47t70.5 119t21 164q0 142 -53 238.5t-159 96.5q-72 0 -121.5 -49t-70.5 -122.5t-21 -165.5zM212 1056q-8 15 8 31l134 164q16 19 43 19h52q25 0 41 -19l136 -164q9 -15 9 -21.5t-8 -21.5q-8 -16 -24 -3l-182 126l-179 -126q-16 -5 -19.5 -2.5 t-10.5 17.5z" />
<glyph unicode="&#xf5;" d="M69 439q0 88 19.5 165t60 141.5t111 101.5t163.5 37q75 0 135.5 -25t100.5 -67t66.5 -99.5t38 -120.5t11.5 -133t-11.5 -133.5t-38.5 -122t-67 -101t-101 -68t-136 -25.5t-135.5 25.5t-100.5 68t-66.5 101t-38 122t-11.5 133.5zM210 432q0 -91 20.5 -162.5t69.5 -118.5 t121 -47q73 0 122.5 47t70.5 119t21 164q0 142 -53 238.5t-159 96.5q-72 0 -121.5 -49t-70.5 -122.5t-21 -165.5zM253 1112q42 106 114 106q38 0 84 -32t67 -32q25 0 41 43q6 16 16 9l41 -22q9 -4 10.5 -8.5t-2.5 -15.5q-45 -108 -114 -108q-30 0 -58.5 15t-51 30.5 t-37.5 15.5q-14 0 -22.5 -8.5t-22.5 -32.5q-4 -9 -7.5 -10.5t-10.5 1.5l-39 22q-15 8 -8 27z" />
<glyph unicode="&#xf6;" d="M69 439q0 88 19.5 165t60 141.5t111 101.5t163.5 37q75 0 135.5 -25t100.5 -67t66.5 -99.5t38 -120.5t11.5 -133t-11.5 -133.5t-38.5 -122t-67 -101t-101 -68t-136 -25.5t-135.5 25.5t-100.5 68t-66.5 101t-38 122t-11.5 133.5zM209 1130q0 33 20.5 56.5t53.5 23.5 t54.5 -23.5t21.5 -56.5q0 -34 -21 -56t-55 -22q-33 0 -53.5 22t-20.5 56zM210 432q0 -91 20.5 -162.5t69.5 -118.5t121 -47q73 0 122.5 47t70.5 119t21 164q0 142 -53 238.5t-159 96.5q-72 0 -121.5 -49t-70.5 -122.5t-21 -165.5zM484 1130q0 33 21 56.5t55 23.5 q33 0 55 -23.5t22 -56.5q0 -34 -21.5 -56t-55.5 -22q-35 0 -55.5 21.5t-20.5 56.5z" />
<glyph unicode="&#xf7;" horiz-adv-x="984" d="M102 397v128h779v-128h-779zM385 138q0 37 27.5 62t71.5 25q43 0 71 -25t28 -62q0 -34 -28 -59t-71 -25q-44 0 -71.5 24.5t-27.5 59.5zM385 780q0 37 28.5 62.5t70.5 25.5t70.5 -25.5t28.5 -62.5q0 -34 -29 -59t-70 -25t-70 25t-29 59z" />
<glyph unicode="&#xf8;" d="M69 439q0 88 19.5 165t60 141.5t111 101.5t163.5 37q51 0 104 -15l46 133q7 16 15 16h75q17 0 9 -20l-59 -169q82 -56 122 -160.5t40 -229.5q0 -70 -11.5 -133.5t-38.5 -122t-67 -101t-101 -68t-136 -25.5q-48 0 -95 11l-41 -121q-4 -13 -21 -13h-74q-13 0 -6 15l54 156 q-87 55 -128 162.5t-41 239.5zM210 432q0 -177 73 -266l205 590q-35 13 -65 13q-72 0 -121.5 -49t-70.5 -122.5t-21 -165.5zM365 112q23 -8 56 -8q73 0 122.5 47t70.5 119t21 164q0 168 -69 260z" />
<glyph unicode="&#xf9;" horiz-adv-x="934" d="M30 786v41q0 16 4 21t14 5q33 3 57.5 6t33.5 4t21.5 2t31.5 1h71q18 0 23.5 -10.5t5.5 -32.5v-527q0 -119 30 -161t95 -42q95 0 147 77t52 254v282q0 52 -37 52l-76 3q-8 0 -9.5 5t-1.5 20v41q0 16 4 21t14 5q33 3 57.5 6t33.5 4t21.5 2t30.5 1h71q30 0 30 -43v-579 q0 -85 14 -114t42 -29q37 0 37 44q0 15 1 20.5t6.5 8.5t18.5 3h23q17 0 20.5 -4.5t3.5 -25.5q0 -156 -142 -156q-129 0 -156 145q-70 -149 -238 -149q-119 0 -173.5 72.5t-54.5 240.5v406q0 52 -37 52l-78 3q-8 0 -9.5 5t-1.5 20zM222 1266q-21 28 5 28h108q15 0 23 -5.5 t18 -20.5l134 -201q16 -30 -9 -30h-58q-23 0 -50 30z" />
<glyph unicode="&#xfa;" horiz-adv-x="934" d="M30 786v41q0 16 4 21t14 5q33 3 57.5 6t33.5 4t21.5 2t31.5 1h71q18 0 23.5 -10.5t5.5 -32.5v-527q0 -119 30 -161t95 -42q95 0 147 77t52 254v282q0 52 -37 52l-76 3q-8 0 -9.5 5t-1.5 20v41q0 16 4 21t14 5q33 3 57.5 6t33.5 4t21.5 2t30.5 1h71q30 0 30 -43v-579 q0 -85 14 -114t42 -29q37 0 37 44q0 15 1 20.5t6.5 8.5t18.5 3h23q17 0 20.5 -4.5t3.5 -25.5q0 -156 -142 -156q-129 0 -156 145q-70 -149 -238 -149q-119 0 -173.5 72.5t-54.5 240.5v406q0 52 -37 52l-78 3q-8 0 -9.5 5t-1.5 20zM374 1082l114 173q18 28 41 28h115 q13 0 15 -9.5t-9 -20.5l-166 -182q-16 -19 -43 -19h-57q-14 0 -17 7.5t7 22.5z" />
<glyph unicode="&#xfb;" horiz-adv-x="934" d="M30 786v41q0 16 4 21t14 5q33 3 57.5 6t33.5 4t21.5 2t31.5 1h71q18 0 23.5 -10.5t5.5 -32.5v-527q0 -119 30 -161t95 -42q95 0 147 77t52 254v282q0 52 -37 52l-76 3q-8 0 -9.5 5t-1.5 20v41q0 16 4 21t14 5q33 3 57.5 6t33.5 4t21.5 2t30.5 1h71q30 0 30 -43v-579 q0 -85 14 -114t42 -29q37 0 37 44q0 15 1 20.5t6.5 8.5t18.5 3h23q17 0 20.5 -4.5t3.5 -25.5q0 -156 -142 -156q-129 0 -156 145q-70 -149 -238 -149q-119 0 -173.5 72.5t-54.5 240.5v406q0 52 -37 52l-78 3q-8 0 -9.5 5t-1.5 20zM220 1056q-8 16 7 31l134 164q16 19 43 19 h52q25 0 41 -19l136 -164q7 -8 8.5 -15t0 -11.5t-6.5 -16.5q-8 -16 -24 -3l-183 126l-179 -126q-7 -4 -11.5 -5t-7.5 2.5t-5 6.5t-5 11z" />
<glyph unicode="&#xfc;" horiz-adv-x="934" d="M30 786v41q0 16 4 21t14 5q33 3 57.5 6t33.5 4t21.5 2t31.5 1h71q18 0 23.5 -10.5t5.5 -32.5v-527q0 -119 30 -161t95 -42q95 0 147 77t52 254v282q0 52 -37 52l-76 3q-8 0 -9.5 5t-1.5 20v41q0 16 4 21t14 5q33 3 57.5 6t33.5 4t21.5 2t30.5 1h71q30 0 30 -43v-579 q0 -85 14 -114t42 -29q37 0 37 44q0 15 1 20.5t6.5 8.5t18.5 3h23q17 0 20.5 -4.5t3.5 -25.5q0 -156 -142 -156q-129 0 -156 145q-70 -149 -238 -149q-119 0 -173.5 72.5t-54.5 240.5v406q0 52 -37 52l-78 3q-8 0 -9.5 5t-1.5 20zM216 1130q0 33 20.5 56.5t53.5 23.5 t55 -23.5t22 -56.5q0 -34 -21.5 -56t-55.5 -22q-33 0 -53.5 22t-20.5 56zM492 1130q0 33 21 56.5t55 23.5q33 0 54.5 -23.5t21.5 -56.5q0 -34 -21 -56t-55 -22q-35 0 -55.5 21.5t-20.5 56.5z" />
<glyph unicode="&#xfd;" horiz-adv-x="869" d="M41 784v67q0 9 3 12t10 3h322q11 0 11 -15v-65v-7.5t-1.5 -5.5t-4 -4t-7.5 -2q-41 -1 -60 -5t-22.5 -10t-1.5 -17q3 -118 54 -304.5t97 -296.5q84 235 172 594q7 23 -4.5 29.5t-72.5 9.5q-11 1 -14.5 5.5t-3.5 15.5v57q0 21 18 21h289q9 0 13 -2.5t4.5 -5.5t0.5 -13v-56 q0 -15 -14 -20q-60 -4 -74 -12t-21 -40q-67 -282 -150 -527t-197 -505q-20 -39 -42 -51t-60 -12h-117q-14 0 -16.5 2.5t-2.5 16.5v56q0 8 0.5 11t4 5.5t10.5 3.5q88 10 102 17q18 8 30 35q13 33 46 112t49 119h-7q-17 0 -27 15q-53 99 -128 331t-82 388q-2 18 -18.5 24.5 t-76.5 10.5q-11 2 -11 15zM400 1082l114 173q18 28 41 28h115q13 0 15 -9.5t-9 -20.5l-166 -182q-16 -19 -43 -19h-57q-14 0 -17 7.5t7 22.5z" />
<glyph unicode="&#xfe;" horiz-adv-x="873" d="M-6 -285q0 15 3 20.5t12 5.5q80 5 98 18t18 70l2 419v886q0 58 -38 58l-74 3q-8 0 -10.5 4t-2.5 17v50q0 16 3.5 20t13.5 6q43 3 92.5 9t61.5 6h54q20 0 26 -9.5t6 -31.5v-583q31 98 98.5 149.5t150.5 51.5q142 0 216.5 -124.5t74.5 -325.5q0 -202 -74.5 -327.5 t-223.5 -125.5q-76 0 -143 40t-94 120v-303q0 -63 20 -77.5t101 -17.5q16 0 19.5 -6t3.5 -26v-39q0 -16 -3.5 -21t-17.5 -5h-374q-12 0 -15.5 4t-3.5 19v46zM266 406q0 -144 49.5 -230.5t146.5 -86.5q51 0 89 25.5t60.5 72t33 106t10.5 133.5q0 97 -18.5 171t-62.5 121 t-109 47q-97 0 -148 -98t-51 -261z" />
<glyph unicode="&#xff;" horiz-adv-x="869" d="M41 784v67q0 9 3 12t10 3h322q11 0 11 -15v-65v-7.5t-1.5 -5.5t-4 -4t-7.5 -2q-41 -1 -60 -5t-22.5 -10t-1.5 -17q3 -118 54 -304.5t97 -296.5q84 235 172 594q7 23 -4.5 29.5t-72.5 9.5q-11 1 -14.5 5.5t-3.5 15.5v57q0 21 18 21h289q9 0 13 -2.5t4.5 -5.5t0.5 -13v-56 q0 -15 -14 -20q-60 -4 -74 -12t-21 -40q-67 -282 -150 -527t-197 -505q-20 -39 -42 -51t-60 -12h-117q-14 0 -16.5 2.5t-2.5 16.5v56q0 8 0.5 11t4 5.5t10.5 3.5q88 10 102 17q18 8 30 35q13 33 46 112t49 119h-7q-17 0 -27 15q-53 99 -128 331t-82 388q-2 18 -18.5 24.5 t-76.5 10.5q-11 2 -11 15zM240 1130q0 33 21 56.5t54 23.5t54.5 -23.5t21.5 -56.5q0 -34 -21 -56t-55 -22q-33 0 -54 22t-21 56zM516 1130q0 33 21 56.5t55 23.5q33 0 54.5 -23.5t21.5 -56.5q0 -34 -21 -56t-55 -22q-35 0 -55.5 21.5t-20.5 56.5z" />
<glyph unicode="&#x152;" horiz-adv-x="1744" d="M84 652q0 146 32 267.5t94.5 211.5t161.5 140.5t226 50.5q256 0 394 -205q56 205 334 205q164 0 283 -45q6 -3 9.5 -5t6 -3.5t4 -4.5t3 -4t1.5 -5.5v-7v-9.5v-11v-257q0 -16 -2.5 -19t-14.5 -3h-63q-10 0 -14 3.5t-5 14.5l-22 211q-65 24 -177 24q-104 0 -162 -46.5 t-58 -169.5q0 -132 63.5 -188t180.5 -56h101q18 0 18 -26v-67q0 -26 -18 -26h-101q-274 0 -274 -270q0 -130 67.5 -187t206.5 -57q51 0 108 6.5t94 14t71.5 16t37.5 8.5q10 1 12.5 -2.5t2.5 -18.5v-84q0 -12 -4.5 -16.5t-17.5 -9.5q-140 -41 -347 -41q-128 0 -218 37 t-134 129q-134 -166 -366 -166q-102 0 -186 32.5t-144.5 92t-102 143t-61.5 185t-20 218.5zM240 655q0 -255 95 -402t263 -147t263.5 147t95.5 402q0 253 -95 396.5t-264 143.5q-168 0 -263 -143.5t-95 -396.5zM1108 698q0 -5 1 -16.5t1 -18.5q25 12 48 17q-21 4 -50 18z " />
<glyph unicode="&#x153;" horiz-adv-x="1344" d="M69 439q0 88 19.5 165t60 141.5t111 101.5t163.5 37q182 0 275 -143q83 143 276 143q286 0 286 -264q0 -55 -13.5 -97.5t-34.5 -71.5t-57 -49.5t-70.5 -31.5t-85.5 -17.5t-92 -8t-99 -1.5h-30q14 -137 73.5 -191.5t159.5 -54.5q28 0 53.5 3.5t55 13t42.5 13.5t47 19 t37 16q11 5 16.5 0t5.5 -22v-47q0 -21 -4 -29t-18 -17q-45 -30 -114.5 -48t-137.5 -18q-215 0 -301 147q-93 -139 -272 -139q-75 0 -135.5 25.5t-100.5 68t-66.5 101t-38 122t-11.5 133.5zM210 432q0 -91 20.5 -162.5t69.5 -118.5t121 -47q95 0 147 74.5t63 195.5v52 q0 41 2 60q-9 124 -62 203.5t-148 79.5q-72 0 -121.5 -49t-70.5 -122.5t-21 -165.5zM775 443q36 0 54.5 0.5t53.5 2.5t54 5t48.5 9.5t46 15t36.5 22t30 30.5t17.5 40.5t7.5 51.5q0 75 -40.5 114t-106.5 39q-198 0 -201 -321v-9z" />
<glyph unicode="&#x178;" horiz-adv-x="1027" d="M28 1227v56q0 12 3.5 16t13.5 4h357q11 0 14 -4t3 -14v-54q0 -25 -19 -25q-60 -2 -80 -7.5t-20 -21.5q0 -84 18 -163.5t54 -155.5t66.5 -128.5t79.5 -124.5q51 71 85 124.5t71.5 128.5t56.5 155t19 164q0 16 -20.5 21.5t-81.5 7.5q-11 0 -14 5.5t-3 19.5v54q0 10 3 14 t12 4h337q10 0 13.5 -4t3.5 -16v-56q0 -21 -15 -21q-64 -3 -87.5 -10t-26.5 -25q-18 -324 -286 -676v-277h1v-26q0 -65 15.5 -78.5t94.5 -16.5q16 0 19.5 -6t3.5 -26v-39q0 -16 -3.5 -21t-17.5 -5h-374q-13 0 -16 4t-3 18v47q0 10 0.5 14.5t4 8t10.5 3.5q86 5 104.5 18.5 t18.5 74.5v292q-57 76 -100.5 144.5t-88.5 158t-70.5 188.5t-27.5 200q0 15 -24.5 23t-88.5 12q-11 1 -13 5t-2 16zM315 1456q0 33 20.5 56.5t53.5 23.5t54.5 -23.5t21.5 -56.5q0 -34 -21 -56t-55 -22q-33 0 -53.5 22t-20.5 56zM590 1456q0 33 21.5 56.5t55.5 23.5 q33 0 54.5 -23.5t21.5 -56.5q0 -34 -21 -56t-55 -22q-35 0 -56 22t-21 56z" />
<glyph unicode="&#x2c6;" horiz-adv-x="545" d="M65 1381q-8 16 8 32l134 164q16 19 42 19h53q25 0 41 -19l135 -164q10 -14 10 -21.5t-8 -21.5q-8 -16 -24 -3l-182 126l-179 -126q-7 -4 -11 -5t-8 3l-5 5t-6 11z" />
<glyph unicode="&#x2dc;" horiz-adv-x="552" d="M99 1430q42 106 113 106q38 0 84 -31.5t67 -31.5q25 0 41 43q6 16 17 9l41 -23q9 -4 10 -8.5t-3 -15.5q-45 -108 -113 -108q-30 0 -58.5 15.5t-51 31t-37.5 15.5q-14 0 -22.5 -8.5t-22.5 -32.5q-7 -15 -19 -10l-39 23q-14 8 -7 26z" />
<glyph unicode="&#x2000;" horiz-adv-x="833" />
<glyph unicode="&#x2001;" horiz-adv-x="1666" />
<glyph unicode="&#x2002;" horiz-adv-x="833" />
<glyph unicode="&#x2003;" horiz-adv-x="1666" />
<glyph unicode="&#x2004;" horiz-adv-x="555" />
<glyph unicode="&#x2005;" horiz-adv-x="416" />
<glyph unicode="&#x2006;" horiz-adv-x="277" />
<glyph unicode="&#x2007;" horiz-adv-x="277" />
<glyph unicode="&#x2008;" horiz-adv-x="208" />
<glyph unicode="&#x2009;" horiz-adv-x="333" />
<glyph unicode="&#x200a;" horiz-adv-x="92" />
<glyph unicode="&#x2010;" horiz-adv-x="726" d="M108 503v72q0 21 15 21h482q15 0 15 -23v-63q0 -26 -19 -26h-478q-15 0 -15 19z" />
<glyph unicode="&#x2011;" horiz-adv-x="726" d="M108 503v72q0 21 15 21h482q15 0 15 -23v-63q0 -26 -19 -26h-478q-15 0 -15 19z" />
<glyph unicode="&#x2012;" horiz-adv-x="726" d="M108 503v72q0 21 15 21h482q15 0 15 -23v-63q0 -26 -19 -26h-478q-15 0 -15 19z" />
<glyph unicode="&#x2013;" horiz-adv-x="994" d="M108 492v87q0 17 13 17h752q13 0 13 -19v-78q0 -14 -2 -18t-13 -4h-752q-11 0 -11 15z" />
<glyph unicode="&#x2014;" horiz-adv-x="1349" d="M108 492v87q0 17 13 17h1106q15 0 15 -19v-78q0 -13 -3 -17.5t-14 -4.5h-1106q-11 0 -11 15z" />
<glyph unicode="&#x2018;" horiz-adv-x="376" d="M86 966l100 332q7 24 28 24h75q20 0 14 -24l-74 -343q-5 -22 -11 -28.5t-26 -6.5h-86q-22 0 -25.5 11t5.5 35z" />
<glyph unicode="&#x2019;" horiz-adv-x="376" d="M86 944l74 343q5 22 11 28.5t26 6.5h86q21 0 25 -11.5t-5 -35.5l-100 -331q-7 -24 -28 -24h-74q-21 0 -15 24z" />
<glyph unicode="&#x201a;" horiz-adv-x="355" d="M43 -192l74 343q5 22 11.5 28.5t26.5 6.5h85q22 0 26 -11t-5 -35l-101 -332q-7 -24 -28 -24h-74q-21 0 -15 24z" />
<glyph unicode="&#x201c;" horiz-adv-x="612" d="M86 966l100 332q7 24 28 24h75q20 0 14 -24l-74 -343q-5 -22 -11 -28.5t-26 -6.5h-86q-22 0 -25.5 11t5.5 35zM318 966l101 332q7 24 28 24h74q21 0 15 -24l-74 -343q-5 -22 -11.5 -28.5t-26.5 -6.5h-85q-22 0 -26 11t5 35z" />
<glyph unicode="&#x201d;" horiz-adv-x="610" d="M86 944l74 343q5 22 11 28.5t26 6.5h86q21 0 25 -11.5t-5 -35.5l-100 -331q-7 -24 -28 -24h-74q-21 0 -15 24zM320 944l75 343q5 22 11 28.5t26 6.5h86q21 0 25 -11.5t-5 -35.5l-100 -331q-7 -24 -28 -24h-75q-21 0 -15 24z" />
<glyph unicode="&#x201e;" horiz-adv-x="633" d="M43 -192l74 343q5 22 11.5 28.5t26.5 6.5h85q22 0 26 -11t-5 -35l-101 -332q-7 -24 -28 -24h-74q-21 0 -15 24zM320 -192l75 343q5 22 11 28.5t26 6.5h86q22 0 25.5 -11t-5.5 -35l-100 -332q-7 -24 -28 -24h-75q-21 0 -15 24z" />
<glyph unicode="&#x2022;" horiz-adv-x="506" d="M138 456q0 39 32.5 66t82.5 27q47 0 80.5 -27t33.5 -66q0 -38 -33.5 -65.5t-80.5 -27.5q-49 0 -82 27.5t-33 65.5z" />
<glyph unicode="&#x2026;" horiz-adv-x="1225" d="M95 67q0 31 25.5 52.5t61.5 21.5q35 0 60.5 -21.5t25.5 -52.5q0 -36 -24.5 -57t-61.5 -21t-62 21t-25 57zM525 67q0 31 26 52.5t62 21.5q35 0 60 -21.5t25 -52.5q0 -35 -24.5 -56.5t-60.5 -21.5q-37 0 -62.5 21.5t-25.5 56.5zM955 65q0 32 25 54t61 22q35 0 60 -22 t25 -54q0 -35 -24.5 -55.5t-60.5 -20.5q-37 0 -61.5 20.5t-24.5 55.5z" />
<glyph unicode="&#x202f;" horiz-adv-x="333" />
<glyph unicode="&#x2039;" horiz-adv-x="536" d="M60 493l301 399q9 11 12.5 13t11.5 -2l66 -48q7 -5 6.5 -10t-10.5 -18l-248 -350l246 -343q13 -17 14 -21.5t-7 -11.5l-65 -47q-9 -6 -13.5 -4t-14.5 15l-298 387q-10 15 -10.5 20.5t9.5 20.5z" />
<glyph unicode="&#x203a;" horiz-adv-x="536" d="M82 101q-7 7 -5.5 11.5t12.5 21.5l248 343l-248 350q-10 13 -11 18t6 10l65 48q8 4 11.5 2t12.5 -13l302 -399q10 -14 9.5 -20.5t-11.5 -20.5l-298 -387q-10 -13 -14.5 -15t-13.5 4z" />
<glyph unicode="&#x205f;" horiz-adv-x="416" />
<glyph unicode="&#x20ac;" horiz-adv-x="1199" d="M69 439l43 66q11 18 26 18h110q-4 52 -4 80h-166q-20 0 -9 17l43 65q10 19 26 19h106q13 307 144 462.5t364 155.5q188 0 300 -41q16 -5 20 -13.5t4 -34.5v-310q0 -14 -3.5 -18t-13.5 -4h-78q-11 0 -14.5 4t-3.5 15l-25 259q-75 24 -180 24q-158 0 -254.5 -125 t-108.5 -374h482q30 0 11 -23l-52 -61q-14 -17 -32 -17h-411q0 -50 5 -80h362q14 0 17 -7t-6 -17l-50 -60q-13 -16 -34 -16h-274q66 -311 362 -311q115 0 305 43q24 6 24 -21v-61q0 -20 -6.5 -29t-23.5 -14q-172 -45 -322 -45q-211 0 -333.5 105.5t-159.5 332.5h-181 q-12 0 -13.5 3t4.5 13z" />
<glyph unicode="&#x2122;" horiz-adv-x="1428" d="M117 1093v197q0 9 2.5 11t8.5 2h406q4 0 6 -0.5t3 -3.5t1 -9v-197q0 -15 -10 -15h-48q-8 0 -10 10q-1 2 -1 3l-4 95q-3 24 -19 24h-70v-560q0 -37 7.5 -46t40.5 -10q8 -1 9.5 -5t1.5 -16v-37v-7t-1 -4.5t-3 -3t-5 -0.5h-209q-6 0 -7.5 2t-1.5 11v41q0 17 8 17 q34 3 45 10.5t12 30.5v579h-72q-14 0 -17 -26l-4 -95q-4 -13 -11 -13h-48q-10 0 -10 15zM575 1247v43q0 13 10 13h197q5 0 9 -1.5t6 -3t4 -6t2.5 -7.5t2 -11.5t2.5 -13.5q16 -110 60 -311t78 -310h2q58 201 123 621q1 6 2.5 15.5t2 13t3 8t7 5.5t12.5 1h190q7 0 8.5 -2.5 t1.5 -10.5v-43q0 -13 -10 -16q-36 -3 -46.5 -12t-10.5 -35v-527q0 -65 33 -65q30 0 30 50v4q0 7 6 7h31q6 0 6 -7v-4q0 -132 -97 -132q-112 0 -112 153v465q-23 -149 -66 -335.5t-72 -258.5q-5 -13 -16 -13h-78q-14 0 -19 13q-34 82 -80 257t-75 332v-477q0 -33 8.5 -41.5 t38.5 -10.5q8 0 9.5 -3t1.5 -13v-5v-37v-7t-1 -4.5t-3 -3t-5 -0.5h-181q-6 0 -7.5 2t-1.5 11v41q0 17 11 17q30 5 38.5 14t8.5 40v538q0 26 -10.5 35t-45.5 12q-8 2 -8 16z" />
<glyph unicode="&#xe000;" horiz-adv-x="865" d="M0 0v866h866v-866h-866z" />
</font>
</defs>
</svg>
