<?xml version="1.0" standalone="no"?>
<!DOCTYPE svg PUBLIC "-//W3C//DTD SVG 1.1//EN" "http://www.w3.org/Graphics/SVG/1.1/DTD/svg11.dtd" >
<svg xmlns="http://www.w3.org/2000/svg">
<metadata></metadata>
<defs>
<font id="quatie_cond_mediumcond_medium" horiz-adv-x="1137" >
<font-face units-per-em="2048" ascent="1629" descent="-419" />
<missing-glyph horiz-adv-x="314" />
<glyph unicode="&#xfb01;" horiz-adv-x="947" d="M63 22v60q0 15 2.5 20t12.5 6q65 5 83 16.5t21 48.5v570h-98q-17 0 -17 20v82q0 21 17 21h98v108q0 189 76.5 268.5t246.5 79.5q72 0 136 -15.5t98 -33.5q22 -14 22 -54v-204q0 -12 -2.5 -15.5t-11.5 -3.5h-79q-8 0 -10.5 2.5t-5.5 14.5l-19 149q-50 28 -128 28 q-90 0 -125.5 -51.5t-35.5 -179.5v-93h403q12 0 16 -7t4 -23v-585q0 -81 14 -108.5t40 -27.5q37 0 37 45q0 20 4 26t21 6h27q16 0 20.5 -5.5t4.5 -26.5q0 -169 -153 -169q-177 0 -177 244v441q0 46 -17.5 56.5t-97.5 10.5h-146v-540q0 -27 2.5 -40.5t8.5 -24.5t24 -15.5 t40 -7t65 -3.5q11 -1 15.5 -5t5.5 -9.5t1 -19.5v-52v-13t-1.5 -7t-5.5 -5t-11 -1h-406q-13 0 -16 4t-3 18z" />
<glyph unicode="&#xfb02;" horiz-adv-x="971" d="M60 22v60q0 16 2.5 20.5t11.5 5.5q76 5 95 19.5t19 71.5v544h-99q-18 0 -18 20v82q0 21 18 21h99v111q0 345 318 345q83 0 141 -16.5t129 -59.5q23 -13 23 -41v-954q0 -81 14 -108.5t40 -27.5q35 0 35 45q0 19 4 25.5t20 6.5h28q18 0 22 -5.5t4 -26.5q0 -169 -152 -169 q-177 0 -177 244v508h-289v-553q0 -51 17 -63t87 -15q16 -3 19.5 -8.5t3.5 -25.5v-52q0 -16 -3.5 -21t-17.5 -5h-376q-7 0 -10.5 0.5t-5.5 4t-2 6v11.5zM348 866h289v285q-64 37 -132 37q-92 0 -124.5 -54t-32.5 -194v-74z" />
<glyph unicode="&#xfb03;" horiz-adv-x="1401" d="M58 22v60q0 14 3 19t12 7q78 7 95.5 20.5t17.5 70.5v544h-98q-19 0 -19 20v82q0 21 19 21h98v54q0 169 72.5 250t219.5 81q66 0 111.5 -10t93.5 -38q69 119 274 119q75 0 138.5 -15.5t97.5 -33.5q23 -15 23 -54v-204q0 -12 -2.5 -15.5t-12.5 -3.5h-78q-8 0 -11 2.5 t-6 14.5l-19 149q-50 28 -130 28q-89 0 -123.5 -51.5t-34.5 -179.5v-93h402q12 0 16 -7t4 -23v-585q0 -81 14 -108.5t40 -27.5q38 0 38 45q0 20 3.5 26t20.5 6h26q18 0 22 -5.5t4 -26.5q0 -169 -153 -169q-177 0 -177 244v458q-3 33 -23 41.5t-92 8.5h-145v-540 q0 -33 2.5 -48t19 -25.5t41 -13t78.5 -4.5q16 -1 19.5 -7.5t3.5 -26.5v-52q0 -16 -3.5 -21t-17.5 -5h-408q-11 0 -14.5 4t-3.5 18v60q0 15 2.5 20t12.5 6q67 5 86 17.5t20 53.5v564h-291v-540q0 -61 16.5 -74.5t88.5 -16.5q16 -3 19 -8.5t3 -25.5v-52q0 -9 -0.5 -12.5 t-2 -7.5t-5.5 -5t-11 -1h-378q-12 0 -15 3.5t-3 18.5zM346 866h291v108q0 64 5 102q-68 41 -139 41q-86 0 -121.5 -45t-35.5 -156v-50z" />
<glyph unicode="&#xfb04;" horiz-adv-x="1433" d="M58 22v60q0 14 3 19t12 7q78 7 95.5 20.5t17.5 70.5v544h-98q-19 0 -19 20v82q0 21 19 21h98v54q0 160 71 236.5t214 76.5q69 0 116.5 -11.5t99.5 -42.5q73 143 283 143q81 0 139 -16.5t129 -59.5q22 -13 22 -41v-954q0 -80 14 -108t39 -28q39 0 39 45q0 20 3.5 26 t20.5 6h26q18 0 22 -5.5t4 -26.5q0 -169 -155 -169q-175 0 -175 244v508h-288v-553q0 -51 17 -63t87 -15q16 -3 19 -8.5t3 -25.5v-52q0 -9 -0.5 -12.5t-2 -7.5t-5.5 -5t-12 -1h-378q-12 0 -14.5 3.5t-2.5 18.5v60q0 15 2.5 20t12.5 6q76 5 94 19.5t18 71.5v544h-302v-540 q0 -61 16.5 -74.5t88.5 -16.5q16 -3 19 -8.5t3 -25.5v-52q0 -9 -0.5 -12.5t-2 -7.5t-5.5 -5t-11 -1h-378q-12 0 -15 3.5t-3 18.5zM346 866h302v111q0 27 4 75q-74 46 -159 46q-81 0 -114 -40t-33 -142v-50zM810 866h288v285q-61 37 -132 37q-92 0 -124 -54t-32 -194v-74z " />
<glyph horiz-adv-x="2048" />
<glyph horiz-adv-x="2048" />
<glyph unicode="&#xd;" horiz-adv-x="2048" />
<glyph unicode=" "  horiz-adv-x="314" />
<glyph unicode="&#x09;" horiz-adv-x="314" />
<glyph unicode="&#xa0;" horiz-adv-x="314" />
<glyph unicode="!" horiz-adv-x="426" d="M117 95q0 45 27.5 75.5t67.5 30.5t68.5 -31t28.5 -75q0 -49 -28 -77.5t-69 -28.5q-42 0 -68.5 28.5t-26.5 77.5zM132 1329q-3 23 19 23h121q15 0 20.5 -5.5t5.5 -19.5l-22 -1001q0 -15 -7 -19.5t-20 -4.5h-81q-18 0 -21 24z" />
<glyph unicode="&#x22;" horiz-adv-x="595" d="M104 869v425q0 15 11 15h138q10 0 12.5 -3t2.5 -14v-423q0 -16 -13 -16h-134q-11 0 -14 3t-3 13zM330 869v425q0 15 11 15h137q9 0 11.5 -3t2.5 -14v-423q0 -16 -14 -16h-132q-12 0 -14 2.5t-2 13.5z" />
<glyph unicode="#" horiz-adv-x="1087" d="M71 410v121h225l41 270h-210v121h236l63 391h134l-63 -391h190l63 391h134l-61 -391h197v-121h-225l-41 -270h205v-121h-233l-65 -410h-132l67 410h-192l-65 -410h-130l63 410h-201zM430 531h190l41 270h-192z" />
<glyph unicode="$" horiz-adv-x="925" d="M88 84v281q0 17 5.5 22.5t21.5 5.5h80q14 0 18.5 -4.5t6.5 -17.5l16 -213q77 -28 209 -28q30 0 57 4t61.5 18t58.5 36.5t41 65t17 98.5q0 60 -19.5 104t-52.5 70.5t-75.5 46t-89.5 35t-94 32t-89.5 42t-75.5 60.5t-52.5 92.5t-19.5 133.5q0 105 26.5 176.5t77 109.5 t111 53t142.5 15q106 0 184.5 -16t113.5 -36q18 -8 22 -16t4 -31v-279q0 -14 -3 -19.5t-6.5 -6t-14.5 -0.5h-84q-14 0 -17 3.5t-3 16.5l-19 214q-69 27 -175 27q-197 0 -197 -183q0 -66 31.5 -109.5t81.5 -66t110.5 -40t121 -42.5t110.5 -64t81.5 -114t31.5 -182 q0 -97 -23 -170t-59 -115.5t-89 -68.5t-104.5 -34.5t-114.5 -8.5q-87 0 -194.5 16.5t-143.5 34.5q-26 15 -26 52zM389 -344l13 258q0 21 15 21h104q11 0 11 -17l14 -261q0 -20 -8 -20h-140q-9 0 -9 19zM398 1657q-3 19 8 19h138q6 0 7.5 -4t1.5 -17l-13 -259q0 -16 -13 -16 h-103q-5 0 -8.5 1t-4.5 4.5t-1 5.5v9z" />
<glyph unicode="%" horiz-adv-x="1694" d="M63 931q0 80 18.5 148.5t57 124.5t105 88t154.5 32q87 0 153.5 -32t105 -88t58 -124.5t19.5 -148.5t-19.5 -149.5t-58 -126t-105 -89t-153.5 -32.5q-88 0 -154.5 32.5t-105 89t-57 125.5t-18.5 150zM227 931q0 -130 45.5 -204t125.5 -74q78 0 124 74.5t46 203.5 t-43 201.5t-127 72.5q-82 0 -126.5 -72.5t-44.5 -201.5zM417 30l704 1260q11 21 21.5 28.5t28.5 7.5h117q20 0 23.5 -8t-10.5 -37l-703 -1264q-14 -24 -26.5 -30.5t-39.5 -6.5h-91q-30 0 -35.5 7.5t11.5 42.5zM961 378q0 80 18.5 148.5t57 124.5t105 88t154.5 32 q87 0 153.5 -32t105.5 -88t58.5 -124.5t19.5 -148.5t-19.5 -149.5t-58.5 -126t-105.5 -89t-153.5 -32.5q-88 0 -154.5 32.5t-105 89t-57 125.5t-18.5 150zM1126 378q0 -129 46 -203t124 -74q80 0 125.5 73.5t45.5 203.5q0 129 -43.5 201.5t-127.5 72.5q-81 0 -125.5 -72.5 t-44.5 -201.5z" />
<glyph unicode="&#x26;" d="M95 341q0 83 18 147.5t47.5 102t58.5 57.5t60 28q-76 24 -110.5 108.5t-34.5 194.5q0 98 22 166.5t64.5 106t94 54t119.5 16.5q123 0 216 -45q9 -4 13 -12t4.5 -14.5t0.5 -25.5v-266q0 -17 -1.5 -20t-11.5 -3h-82q-7 0 -9 3.5t-4 15.5l-26 207q-35 20 -85 20 q-37 0 -63 -8.5t-49 -31t-35 -68t-12 -113.5q0 -122 47.5 -172t131.5 -50h242l69 242q9 26 26 26h43q17 0 17 -28v-240h167q19 0 19 -26v-80q0 -15 -4 -19.5t-15 -4.5h-167v-311q0 -109 17.5 -150.5t56.5 -41.5q31 0 45 22t17 67q0 25 16 25h32q21 0 21 -32q0 -99 -46 -153 t-129 -54q-93 0 -142 73q-53 -28 -138 -50.5t-184 -22.5q-76 0 -132 15t-105 52.5t-74.5 111t-25.5 181.5zM274 365q0 -132 46.5 -184.5t148.5 -52.5q112 0 240 62q-5 35 -5 95v324h-235q-89 0 -142 -60t-53 -184z" />
<glyph unicode="'" horiz-adv-x="372" d="M104 869v419q0 15 11 15h138q10 0 12.5 -3.5t2.5 -14.5v-416q0 -16 -13 -16h-134q-11 0 -14 3t-3 13z" />
<glyph unicode="(" horiz-adv-x="484" d="M69 557q0 208 72.5 420.5t201.5 370.5q2 1 5 4.5t4.5 4.5t5 2t5.5 -2l67 -54q2 -2 3.5 -4t1.5 -4.5t-0.5 -4t-2 -4.5t-2.5 -4.5t-3 -5t-3 -4.5q-88 -135 -132 -335t-44 -390q0 -202 43 -399.5t137 -337.5q11 -13 2 -22l-61 -60q-2 -2 -4 -2.5t-4 1t-3.5 2.5t-4 4t-3.5 4 q-134 163 -207.5 383.5t-73.5 436.5z" />
<glyph unicode=")" horiz-adv-x="484" d="M52 -212q-7 9 4 22q94 141 138 339.5t44 397.5q0 189 -45 389.5t-133 335.5q-14 23 -6 31l67 54q7 1 7.5 2t6 -4.5l6.5 -6.5q130 -157 202 -369.5t72 -421.5q0 -216 -73.5 -436.5t-207.5 -383.5q-11 -17 -19 -9z" />
<glyph unicode="*" horiz-adv-x="694" d="M80 1046l37 114q2 7 13 5l172 -76l-41 201q-4 13 7 13h156q4 0 6 -0.5t3 -2.5t1 -3.5v-4.5v-4l-41 -199l167 73q10 6 13 -6l41 -108q7 -13 -5 -13l-188 -22l132 -140q12 -16 4 -22l-119 -76q-7 -7 -12 5l-80 186l-78 -182q-5 -12 -15 -6l-112 71q-9 6 2 17l127 147 l-179 22q-10 2 -11.5 3t0.5 8z" />
<glyph unicode="+" horiz-adv-x="880" d="M73 415v129h312v378h118v-378h305v-129h-305v-378h-118v378h-312z" />
<glyph unicode="," horiz-adv-x="368" d="M39 -186l75 352q5 23 11.5 30t29.5 7h104q23 0 27 -11.5t-5 -36.5l-106 -343q-4 -16 -10 -21t-18 -5h-93q-23 0 -15 28z" />
<glyph unicode="-" horiz-adv-x="711" d="M101 492v87q0 22 18 22h477q17 0 17 -24v-76q0 -28 -21 -28h-475q-16 0 -16 19z" />
<glyph unicode="." horiz-adv-x="368" d="M89 95q0 45 27.5 75.5t67.5 30.5t68.5 -31t28.5 -75q0 -49 -28 -77.5t-69 -28.5q-42 0 -68.5 28.5t-26.5 77.5z" />
<glyph unicode="/" horiz-adv-x="755" d="M43 -102l489 1467q8 18 19 18h143q23 0 15 -22l-487 -1465q-3 -7 -7 -10.5t-8 -4t-13 -0.5h-144q-13 0 -7 17z" />
<glyph unicode="0" horiz-adv-x="1007" d="M84 652q0 146 26 267.5t77 212t132.5 140.5t185.5 50q138 0 234 -88.5t140 -236.5t44 -345q0 -147 -25.5 -268.5t-76 -212t-131.5 -140.5t-185 -50q-139 0 -235 88t-141 236.5t-45 346.5zM266 655q0 -249 63 -392.5t176 -143.5q112 0 174 143t62 393q0 248 -62 388.5 t-174 140.5q-113 0 -176 -141t-63 -388z" />
<glyph unicode="1" horiz-adv-x="651" d="M76 22v60q0 10 0.5 14t4 7.5t10.5 4.5q101 6 135.5 18t37.5 51v925q-4 24 -31 2l-127 -99q-24 -16 -24 17v82q0 21 19 35l189 146q34 20 75 20h45q22 0 22 -24v-1100q1 -44 30 -55.5t124 -13.5q16 -3 19.5 -9t3.5 -25v-52q0 -9 -0.5 -12.5t-2 -7.5t-5.5 -5t-11 -1h-495 q-14 0 -16.5 3.5t-2.5 18.5z" />
<glyph unicode="2" horiz-adv-x="914" d="M80 17v102q0 23 8 32q115 89 204 177t162 190t112 216t39 234q0 56 -11.5 96.5t-27.5 62t-42 34t-47.5 15.5t-50.5 3q-84 0 -173 -38l-26 -234q-3 -13 -5.5 -16t-11.5 -3h-87q-11 0 -14 3.5t-3 18.5v302q0 25 4.5 34t19.5 14q147 62 304 62q50 0 89.5 -5t81 -17.5t72 -37 t55 -61t37.5 -92.5t13 -128q0 -236 -125 -448.5t-348 -381.5h350q26 0 32 50l9 145q0 17 4 23.5t17 6.5h72q14 0 18 -7t4 -32v-317q0 -14 -2.5 -17t-13.5 -3h-702q-17 0 -17 17z" />
<glyph unicode="3" horiz-adv-x="878" d="M78 58v93q0 17 5.5 23t15.5 3q5 -1 50 -13.5t103 -22t120 -9.5q244 0 244 255q0 126 -50.5 176.5t-144.5 50.5h-88q-16 0 -16 26v94q0 17 7 26l251 396h-303q-14 0 -20 -11t-10 -50l-7 -138q-1 -7 -1 -9t-1.5 -6.5t-3 -5.5t-5 -2t-8.5 -1h-71q-16 0 -20 4.5t-4 23.5v314 q0 19 3.5 23.5t18.5 4.5h609q12 0 14.5 -5.5t2.5 -22.5v-78v-15t-2.5 -11t-3.5 -8t-6.5 -10.5t-9.5 -14.5l-257 -390h24q150 0 213.5 -84t63.5 -269q0 -92 -22 -164.5t-58 -118.5t-86.5 -76.5t-104 -42.5t-114.5 -12q-192 0 -311 45q-17 8 -17 32z" />
<glyph unicode="4" horiz-adv-x="938" d="M45 343l145 932q3 19 7 23.5t23 4.5h110q14 0 18 -4.5t2 -19.5l-123 -812h281v756q0 16 5 21t18 5h117q14 0 17 -4t3 -18v-760h174q11 0 14.5 -5t3.5 -19v-108q0 -11 -3 -13t-14 -2h-175v-117q0 -34 1.5 -47.5t17.5 -25t39 -14t78 -6.5q14 -1 17.5 -6t3.5 -20v-64 q0 -13 -3 -16.5t-16 -3.5h-484q-12 0 -15.5 3.5t-3.5 15.5v67q0 8 0.5 11.5t4 6t10.5 2.5q51 5 77.5 8.5t51.5 9t34.5 10t17 14.5t8.5 20t1 29v123h-447q-12 0 -14 4t-2 19z" />
<glyph unicode="5" horiz-adv-x="867" d="M74 69v87q0 17 6.5 24t16.5 2q1 0 47 -16t101.5 -27.5t113.5 -11.5q53 0 92.5 11t75 39.5t54.5 85t19 139.5q0 85 -20 140.5t-61.5 84t-91 39t-122.5 10.5h-167q-20 0 -17 26l56 573q1 11 1.5 15t2 8t4 4.5t7.5 0.5h529q16 0 21 -4.5t5 -23.5v-290q0 -27 -4.5 -33 t-21.5 -6h-69q-13 0 -17 6.5t-6 23.5l-3 119q-5 39 -11.5 50t-22.5 11h-277l-36 -342h49q93 0 160 -10t124.5 -37t92.5 -73t54 -118.5t19 -173.5q0 -421 -387 -421q-170 0 -298 54q-19 9 -19 34z" />
<glyph unicode="6" horiz-adv-x="919" d="M84 512q0 135 24.5 254.5t76 222t126.5 176t182 115.5t237 42h15q14 0 19 -6.5t5 -21.5v-82q0 -18 -5.5 -25t-20.5 -7h-13q-193 0 -309 -134t-147 -378q97 151 247 151q87 0 152.5 -32.5t104 -89.5t57 -129t18.5 -157q0 -201 -99 -315.5t-285 -114.5q-385 0 -385 531z M263 475q0 -360 206 -360q96 0 152.5 74t56.5 215q0 130 -49 206.5t-152 76.5q-159 0 -214 -212z" />
<glyph unicode="7" horiz-adv-x="806" d="M74 950v333q0 14 3.5 17t15.5 3h667q12 0 14 -5t2 -23v-96q0 -16 -11 -47l-452 -1100q-10 -21 -18.5 -26.5t-30.5 -5.5h-119q-28 0 -15 28l466 1123h-389l-19 -201q0 -12 -1 -17.5t-5.5 -9t-13.5 -3.5h-75q-11 0 -15 6t-4 24z" />
<glyph unicode="8" horiz-adv-x="930" d="M76 382q0 78 21.5 146t74.5 127t131 88q-76 37 -112 107.5t-36 158.5q0 61 18 115t54 98.5t98 71t142 26.5q79 0 139.5 -26.5t96.5 -71t54 -98.5t18 -115q0 -87 -36.5 -157.5t-111.5 -106.5q79 -29 130.5 -87t72.5 -126t21 -150q0 -61 -12 -116.5t-41 -108t-72.5 -90.5 t-110.5 -61t-151 -23t-151.5 23t-111 61t-72.5 90.5t-41 108t-12 116.5zM249 385q0 -116 52.5 -192t162.5 -76q109 0 163 76.5t54 193.5q0 74 -21.5 134t-71.5 100t-123 40q-74 0 -124.5 -40t-71 -100t-20.5 -136zM307 998q0 -86 38.5 -140t119.5 -54t121 54.5t40 141.5 q0 86 -39.5 142.5t-119.5 56.5q-82 0 -121 -57.5t-39 -143.5z" />
<glyph unicode="9" horiz-adv-x="906" d="M69 896q0 196 98 311t278 115q194 0 286 -139t92 -388q0 -176 -39 -322t-115.5 -257t-200.5 -173t-284 -62h-15q-26 0 -26 28v80q0 34 26 34h15q182 0 297.5 124t151.5 354q-92 -117 -236 -117q-89 0 -154.5 35t-102 95t-54 130.5t-17.5 151.5zM244 892q0 -127 48 -201.5 t147 -74.5q153 0 209 194v7q0 371 -205 371q-92 0 -145.5 -76t-53.5 -220z" />
<glyph unicode=":" horiz-adv-x="383" d="M95 88q0 45 27.5 75.5t67.5 30.5t68.5 -31t28.5 -75q0 -49 -28 -78t-69 -29t-68 29t-27 78zM95 721q0 45 27.5 75.5t67.5 30.5t68.5 -31t28.5 -75q0 -49 -28 -78t-69 -29t-68 29t-27 78z" />
<glyph unicode=";" horiz-adv-x="446" d="M61 -186l75 352q5 23 11.5 30t29.5 7h104q23 0 27 -11.5t-5 -36.5l-106 -343q-4 -16 -10 -21t-18 -5h-93q-23 0 -15 28zM147 778q0 45 27.5 75.5t67.5 30.5t68.5 -31t28.5 -75q0 -49 -28 -77.5t-69 -28.5q-42 0 -68.5 28.5t-26.5 77.5z" />
<glyph unicode="&#x3c;" horiz-adv-x="830" d="M65 411v131l672 381v-147l-469 -299l469 -300v-147z" />
<glyph unicode="=" horiz-adv-x="848" d="M106 231v130h637v-130h-637zM108 518v128h635v-128h-635z" />
<glyph unicode="&#x3e;" horiz-adv-x="828" d="M93 30v141l469 306l-469 307v138l672 -382v-129z" />
<glyph unicode="?" horiz-adv-x="748" d="M69 944v279q0 22 4.5 30.5t19.5 16.5q32 20 106.5 36t180.5 16q73 0 126 -15t96.5 -51.5t66 -105t22.5 -169.5q0 -84 -15 -142.5t-38.5 -89t-52.5 -51.5t-58 -41.5t-52.5 -48t-38.5 -80.5t-15 -131v-125q0 -21 -15 -21l-132 -2q-17 0 -17 23v139q0 97 15 165t38.5 103 t52.5 58t58 41t52.5 40.5t38.5 66.5t15 111q0 183 -156 183q-97 0 -157 -28l-15 -213q-2 -13 -5 -16.5t-17 -3.5h-84h-11t-6.5 2.5t-5.5 8t-1 15.5zM248 95q0 45 26.5 75.5t66.5 30.5q38 0 66.5 -31t28.5 -75q0 -48 -28 -77t-67 -29q-41 0 -67 28.5t-26 77.5z" />
<glyph unicode="@" horiz-adv-x="1280" d="M84 583q0 169 51.5 306t138 222.5t195 131t227.5 45.5q152 0 270 -71t182 -196.5t64 -283.5q0 -135 -30.5 -239t-101 -169t-173.5 -65q-55 0 -95.5 26.5t-55.5 70.5q-31 -41 -80.5 -69t-102.5 -28q-94 0 -155 78.5t-61 216.5q0 62 13 122t41 115.5t67.5 98t96.5 67.5 t125 25q117 0 173 -74.5t56 -184.5q0 -26 -4 -57t-12 -64.5t-14 -57t-15.5 -54t-10.5 -35.5q-11 -35 4 -58.5t46 -23.5q69 0 114 104.5t45 245.5q0 200 -111 325.5t-280 125.5q-90 0 -174 -38t-152.5 -109t-109.5 -187t-41 -260q0 -265 129.5 -410t339.5 -145 q102 0 183.5 22.5t166.5 75.5q16 10 21 -3l28 -67q7 -18 -11 -28q-158 -110 -388 -110q-128 0 -237 43.5t-189.5 125.5t-126.5 209t-46 285zM482 560q0 -87 31 -136.5t87 -49.5q49 0 90.5 41t64.5 99.5t36 113.5t13 91q0 160 -117 160q-60 0 -108 -47.5t-72.5 -120 t-24.5 -151.5z" />
<glyph unicode="A" d="M24 22v60q0 26 15 26q72 5 95 17t26 48v106q0 234 23.5 422.5t71 329t124 217t178.5 76.5q139 0 234.5 -126.5t141.5 -358.5t46 -560v-80q0 -57 16 -70.5t89 -16.5q11 -1 15.5 -5t5.5 -9.5t1 -19.5v-52q0 -16 -3.5 -21t-17.5 -5h-404q-12 0 -14 3t-2 19v60q0 16 2 20.5 t13 5.5q71 4 93.5 17t25.5 48v106q0 19 -1 56t-1 56h-495q-2 -37 -2 -112v-80q0 -57 15.5 -70.5t86.5 -16.5q11 -1 15.5 -5t5.5 -9.5t1 -19.5v-52v-13t-1.5 -7t-5.5 -5t-11 -1h-363q-13 0 -16 3.5t-3 18.5zM307 534h484q-18 301 -81 472t-161 171q-97 0 -160.5 -172 t-81.5 -471z" />
<glyph unicode="B" horiz-adv-x="1025" d="M73 22v60q0 16 2 20.5t13 5.5q78 5 98.5 19t20.5 59v940q0 38 -21 50t-97 17q-11 1 -13.5 6t-2.5 19v65q0 14 3 17t15 3h404q363 0 363 -324q0 -213 -123 -275q117 -20 168.5 -103t51.5 -234q0 -367 -445 -367h-419q-11 0 -14.5 4t-3.5 18zM376 128h160q73 0 122.5 16.5 t75.5 49.5t36 73t10 96q0 55 -8.5 95t-30 74.5t-64.5 52.5t-107 18h-194v-475zM376 739h155q85 0 124 62.5t39 159.5q0 214 -182 214h-136v-436z" />
<glyph unicode="C" horiz-adv-x="1022" d="M82 642q0 338 132.5 509t383.5 171q94 0 178.5 -12t130.5 -29q16 -7 20 -16t4 -36v-320q0 -15 -3.5 -19t-13.5 -4h-95q-11 0 -14.5 3.5t-5.5 15.5l-26 255q-69 24 -170 24q-157 0 -251.5 -136.5t-94.5 -408.5q0 -138 28 -238.5t80 -158t117 -84t147 -26.5q113 0 307 43 q23 6 23 -22v-79q0 -20 -6 -29.5t-24 -14.5q-164 -45 -328 -45q-261 0 -390 158t-129 499z" />
<glyph unicode="D" horiz-adv-x="1171" d="M73 22v60q0 16 2 20.5t13 5.5q72 4 94 16.5t25 48.5v953q0 38 -21 50t-97 17q-11 1 -13.5 6t-2.5 19v65q0 14 3 17t15 3h414q158 0 271 -44t181 -130.5t99 -204.5t31 -274q0 -331 -134.5 -490.5t-436.5 -159.5h-425q-11 0 -14.5 4t-3.5 18zM382 134h126q397 0 397 512 q0 523 -399 523h-124v-1035z" />
<glyph unicode="E" horiz-adv-x="908" d="M76 339q0 72 14.5 128t36.5 90.5t54.5 60t60.5 37.5t63 21q-180 46 -180 314q0 96 27 163t77.5 102.5t111.5 51t141 15.5q171 0 296 -47q5 -2 9 -4t6.5 -3.5t4.5 -4.5t2.5 -5t1 -6.5t0.5 -6.5v-9v-11v-266q0 -16 -2.5 -19.5t-13.5 -3.5h-79q-9 0 -12 3.5t-6 15.5l-26 205 q-68 22 -170 22q-46 0 -80 -8.5t-64 -29.5t-46 -62.5t-16 -102.5q0 -127 59.5 -179t171.5 -52h98q21 0 21 -26v-85q0 -26 -21 -26h-98q-255 0 -255 -252q0 -124 64.5 -177.5t199.5 -53.5q66 0 136.5 10t120.5 21.5t56 11.5q9 3 12 -1t3 -17v-105q0 -12 -4.5 -16.5 t-18.5 -9.5q-145 -41 -361 -41q-67 0 -121 9t-107 33t-88.5 63t-57 103.5t-21.5 149.5z" />
<glyph unicode="F" horiz-adv-x="901" d="M73 22v60q0 10 0.5 14t4 7.5t10.5 4.5q80 5 100.5 20.5t20.5 70.5v916q0 44 -21.5 59t-99.5 19q-11 3 -13 7.5t-2 18.5v62q0 14 3.5 18t14.5 4h738q9 0 12.5 -1t5.5 -5t2 -14v-337q0 -14 -4 -20t-16 -6h-75q-14 0 -18 5t-4 19l-10 184q-3 34 -9 41.5t-24 7.5h-313v-456 h264q12 0 17.5 -4.5t5.5 -18.5v-89q0 -19 -4.5 -25.5t-18.5 -6.5h-264v-374q0 -27 3 -40.5t9.5 -24.5t26 -15.5t44 -7t72.5 -3.5q11 -1 15.5 -5t5.5 -9.5t1 -19.5v-52q0 -9 -0.5 -12.5t-2 -7.5t-5.5 -5t-11 -1h-443q-12 0 -15 3.5t-3 18.5z" />
<glyph unicode="G" horiz-adv-x="1131" d="M80 635q0 335 142 511t402 176q195 0 366 -73q18 -9 23 -21.5t5 -41.5v-296q0 -14 -3.5 -18t-14.5 -4h-93q-10 0 -13 3t-6 15l-26 246q-91 48 -227 48q-175 0 -271 -136t-96 -409q0 -512 380 -512q129 0 208 39v322h-188q-22 0 -22 28v88q0 27 22 27h328q22 0 22 -27 v-498q0 -22 -5.5 -33t-23.5 -19q-163 -69 -350 -69q-559 0 -559 654z" />
<glyph unicode="H" horiz-adv-x="1184" d="M69 22v60q0 10 0.5 14t4 7.5t10.5 4.5q74 5 96 17.5t25 56.5v918q0 60 -16 74.5t-88 17.5q-16 1 -19.5 6.5t-3.5 24.5v54q0 16 3.5 21t15.5 5h393q11 0 13.5 -3.5t2.5 -18.5v-62q0 -11 -0.5 -14t-3.5 -6.5t-10 -5.5q-76 -5 -98 -17t-23 -57v-499h424v506q-1 41 -19 52 t-85 14q-16 1 -19.5 6.5t-3.5 24.5v54q0 16 3.5 21t15.5 5h393q12 0 15 -3.5t3 -18.5v-62q0 -11 -0.5 -14t-3.5 -6.5t-10 -5.5q-76 -5 -97.5 -17t-22.5 -57v-901q0 -101 54 -101q58 0 58 69v8q0 13 11 13h54q13 0 13 -13v-8q0 -193 -173 -193q-186 0 -186 232v259h-424v-281 q0 -60 16 -74t90 -17q11 -1 15.5 -5t5.5 -9.5t1 -19.5v-52q0 -16 -3.5 -21t-17.5 -5h-390q-13 0 -16 4t-3 18z" />
<glyph unicode="I" horiz-adv-x="579" d="M71 22v60q0 10 0.5 14t4 7.5t10.5 4.5q80 5 100.5 20.5t20.5 70.5v927q-3 41 -21 52t-84 14q-16 1 -19 6.5t-3 24.5v54q0 16 3.5 21t17.5 5h391q12 0 14 -3.5t2 -18.5v-62q0 -14 -2 -18.5t-13 -7.5q-76 -5 -97 -17t-22 -57v-961q4 -28 24 -36t80 -10q16 -1 19.5 -7.5 t3.5 -26.5v-52q0 -16 -3.5 -21t-17.5 -5h-391q-12 0 -15 3.5t-3 18.5z" />
<glyph unicode="J" horiz-adv-x="560" d="M19 -246q-10 26 16 41l62 39q46 29 65.5 51t29 65t9.5 128v996h-2v26q0 61 -15.5 75t-88.5 17q-16 1 -19 6.5t-3 24.5v54q0 16 3 21t17 5h389q14 0 16.5 -3.5t2.5 -18.5v-62q0 -14 -2 -18.5t-13 -7.5q-80 -5 -99.5 -19.5t-19.5 -69.5v-1085q0 -51 -3.5 -82t-15 -62 t-35 -54t-60.5 -46.5t-95 -50.5l-87 -41q-13 -5 -18 -2t-10 17z" />
<glyph unicode="K" horiz-adv-x="1085" d="M69 22v60q0 10 0.5 14t4 7.5t10.5 4.5q80 5 100.5 20.5t20.5 70.5v901q0 60 -16 74.5t-88 17.5q-16 1 -19.5 6.5t-3.5 24.5v54q0 16 3.5 21t15.5 5h393q11 0 13.5 -3.5t2.5 -18.5v-62q0 -11 -0.5 -14t-3.5 -6.5t-10 -5.5q-76 -5 -98 -17t-23 -57v-447l301 417h-5l22 32 q24 38 24 50q0 11 -16 15t-55 6q-17 1 -21.5 6.5t-4.5 24.5v54q0 17 4 21.5t19 4.5h368q13 0 16 -4t3 -18v-62q0 -15 -2.5 -20t-14.5 -6q-72 -6 -91 -16l-369 -514h-2l289 -445q39 -62 67.5 -86t64.5 -24q30 0 62 13q13 5 19.5 2.5t6.5 -15.5v-73q0 -17 -5 -23.5t-21 -13.5 q-46 -17 -112 -17q-85 0 -129 35.5t-108 145.5l-310 488v-447q0 -60 16 -74t90 -17q11 -1 15.5 -5t5.5 -9.5t1 -19.5v-52q0 -16 -3.5 -21t-17.5 -5h-390q-13 0 -16 4t-3 18z" />
<glyph unicode="L" horiz-adv-x="927" d="M69 22v60q0 16 2 20.5t13 5.5q79 5 100 18.5t21 59.5v937q-1 44 -18.5 55t-85.5 14q-16 1 -19.5 6.5t-3.5 24.5v54q0 16 3.5 21t15.5 5h393q11 0 13.5 -3.5t2.5 -18.5v-62q0 -11 -0.5 -14t-3.5 -6.5t-10 -5.5q-80 -5 -100.5 -19.5t-20.5 -69.5v-959l355 -2q14 0 20 11 t12 40l9 147q1 13 2.5 18.5t6.5 8.5t15 3h71q12 0 16 -7t3 -29v-315q0 -14 -4 -17t-15 -3h-774q-12 0 -15.5 4t-3.5 18z" />
<glyph unicode="M" horiz-adv-x="1530" d="M74 1219v62q0 14 4 18t17 4h322q14 0 23.5 -3.5t15 -6t9.5 -15.5t5 -18t5 -27q29 -162 130.5 -520.5t167.5 -535.5h2q74 215 152.5 518t122.5 538q2 8 5 25t4.5 21t7 12t15 10t24.5 2h316q14 0 17.5 -4t3.5 -18v-62q0 -14 -3.5 -19.5t-15.5 -6.5q-74 -5 -93.5 -18 t-19.5 -60v-897q0 -101 57 -101q56 0 56 69v8q0 13 13 13h54q11 0 11 -13v-8q0 -193 -173 -193q-186 0 -186 232v806q-44 -236 -139.5 -562.5t-152.5 -448.5q-9 -20 -36 -20h-119q-10 0 -14.5 1t-9.5 5.5t-9 13.5q-66 139 -163 440t-156 555v-818q0 -55 15 -68.5t80 -16.5 q18 -1 22 -7.5t4 -26.5v-52q0 -16 -4 -21t-18 -5h-341q-14 0 -17 3.5t-3 18.5v60q0 15 4.5 19.5t17.5 6.5q68 5 84.5 19.5t16.5 69.5v918q0 47 -18.5 60t-93.5 18q-13 1 -16 6t-3 20z" />
<glyph unicode="N" horiz-adv-x="1210" d="M71 1219v62q0 14 3.5 18t14.5 4h231q34 0 47 -33l510 -1015v860q0 44 -21 59t-98 19q-11 3 -13 7.5t-2 18.5v62q0 14 3 18t14 4h365q7 0 11 -1t5.5 -5t1.5 -7v-13v-54q0 -24 -5 -28q-4 -2 -15 -3q-69 -3 -87 -16t-18 -63v-1070q0 -43 -24 -43h-100q-33 0 -47 24l-501 985 v-810q0 -56 16 -70t87 -17q11 -1 15.5 -5t5.5 -9.5t1 -19.5v-52q0 -16 -3.5 -21t-15.5 -5h-357q-12 0 -14.5 3.5t-2.5 18.5v60q0 14 4 19t15 7q73 5 90.5 19.5t17.5 69.5v931q0 38 -22.5 49t-96.5 16q-11 3 -13 7.5t-2 18.5z" />
<glyph unicode="O" horiz-adv-x="1206" d="M78 652q0 146 32.5 267.5t96 212t165 140.5t231.5 50t231.5 -50t165 -140.5t96 -212t32.5 -267.5q0 -198 -56 -346.5t-176 -236.5t-293 -88t-293 88t-176 236.5t-56 346.5zM261 655q0 -246 90.5 -387t251.5 -141t252 141t91 387q0 244 -90.5 382t-252.5 138 q-161 0 -251.5 -138t-90.5 -382z" />
<glyph unicode="P" horiz-adv-x="929" d="M73 22v60q0 10 0.5 14t4 7.5t10.5 4.5q80 5 100.5 20.5t20.5 70.5v803h-2v113q0 44 -21 59t-98 19q-11 3 -13 7.5t-2 18.5v62q0 14 3.5 18t14.5 4h367q100 0 174 -22t119 -58.5t72 -91.5t36.5 -112t9.5 -129q0 -209 -92 -328t-289 -119q-64 0 -112 11v-251 q0 -61 15 -74.5t89 -16.5q16 -1 19.5 -7.5t3.5 -26.5v-52q0 -16 -3.5 -21t-17.5 -5h-391q-12 0 -15 3.5t-3 18.5zM376 594q9 -5 43.5 -9t57.5 -4q105 0 161 78.5t56 223.5q0 63 -11 114.5t-34.5 93t-64 64t-96.5 22.5h-112v-583z" />
<glyph unicode="Q" horiz-adv-x="1206" d="M78 652q0 146 32.5 267.5t96 212t165 140.5t231.5 50t231.5 -50t165 -140.5t96 -212t32.5 -267.5q0 -216 -69 -375t-204 -234l28 -65q24 -72 56.5 -101.5t86.5 -29.5q16 0 27 1.5t19.5 3.5t11.5 3q4 1 6.5 1t4.5 -4.5t2 -13.5l1 -71q0 -22 -27 -30q-45 -11 -107 -11 q-184 0 -249 229l-11 36q-53 -10 -101 -10q-173 0 -293 88t-176 236.5t-56 346.5zM261 655q0 -166 42 -286t120 -183q-2 13 -2 41q0 64 37.5 107.5t105.5 43.5q81 0 133.5 -43t95.5 -140q153 133 153 460q0 244 -90.5 382t-252.5 138q-161 0 -251.5 -138t-90.5 -382z M499 218q0 -58 48 -88q26 -3 56 -3q36 0 60 5q-24 96 -49.5 126.5t-60.5 30.5q-25 0 -39.5 -20t-14.5 -51z" />
<glyph unicode="R" horiz-adv-x="1010" d="M73 22v60q0 10 0.5 14t4 7.5t10.5 4.5q75 5 96.5 17.5t22.5 56.5v944q-3 37 -25 50t-94 17q-11 3 -13 7.5t-2 18.5v62q0 14 3.5 18t14.5 4h395q112 0 191 -31.5t123.5 -91.5t64 -135.5t19.5 -175.5q0 -302 -201 -391l97 -253q26 -68 48.5 -92.5t61.5 -24.5q18 0 46 15 q11 5 17.5 2t10.5 -17l6 -61q4 -21 0 -29.5t-22 -15.5q-57 -21 -119 -21q-29 0 -53 6t-41.5 13.5t-34 25t-26 30t-22 39t-18.5 42.5t-18 49l-97 259h-14q-62 0 -131 13v-255q0 -61 15 -74.5t89 -16.5q16 -1 19.5 -7.5t3.5 -26.5v-52q0 -16 -3.5 -21t-17.5 -5h-389 q-12 0 -15 3.5t-3 18.5zM374 601q49 -16 121 -16q105 0 159.5 73t54.5 211q0 152 -58 228t-158 76h-119v-572z" />
<glyph unicode="S" horiz-adv-x="921" d="M88 84v281q0 17 5.5 22.5t21.5 5.5h80q14 0 18.5 -4.5t6.5 -17.5l16 -213q77 -28 209 -28q30 0 57 4t61.5 18t58.5 36.5t41 65t17 98.5q0 60 -19.5 104t-52.5 70.5t-75.5 46t-89.5 35t-94 32t-89.5 42t-75.5 60.5t-52.5 92.5t-19.5 133.5q0 105 26.5 176.5t77 109.5 t111 53t142.5 15q106 0 184.5 -16t113.5 -36q18 -8 22 -16t4 -31v-279q0 -14 -3 -19.5t-6.5 -6t-14.5 -0.5h-84q-14 0 -17 3.5t-3 16.5l-19 214q-69 27 -175 27q-197 0 -197 -183q0 -66 31.5 -109.5t81.5 -66t110.5 -40t121 -42.5t110.5 -64t81.5 -114t31.5 -182 q0 -97 -23 -170t-59 -115.5t-89 -68.5t-104.5 -34.5t-114.5 -8.5q-87 0 -194.5 16.5t-143.5 34.5q-26 15 -26 52z" />
<glyph unicode="T" horiz-adv-x="938" d="M58 957v326q0 14 3 17t15 3h786q9 0 12.5 -1t6 -5t2.5 -14v-326q0 -24 -19 -24h-75q-9 0 -14 3.5t-6 6.5t-2 12l-11 171q-3 20 -9.5 29t-20.5 9h-173v-935h2v-26q0 -61 14.5 -74.5t87.5 -16.5q16 -1 19.5 -7.5t3.5 -26.5v-52q0 -16 -3.5 -21t-15.5 -5h-391q-13 0 -16 4 t-3 18v60q0 10 0.5 14t4 7.5t10.5 4.5q74 5 96 17.5t25 56.5v982h-173q-26 0 -32 -38l-9 -171q-1 -8 -3 -11.5t-6 -7t-13 -3.5h-75q-18 0 -18 24z" />
<glyph unicode="U" horiz-adv-x="1172" d="M54 1223v54q0 16 3.5 21t15.5 5h404q12 0 15 -3.5t3 -18.5v-62q0 -15 -2 -19t-13 -7q-73 -5 -96.5 -17t-24.5 -48v-659q0 -164 65.5 -253t186.5 -89q119 0 184 89.5t65 252.5v654q-3 44 -20.5 55t-83.5 14q-16 1 -19 6.5t-3 24.5v54q0 9 0.5 12.5t2 7.5t5.5 5t12 1h356 q12 0 14 -3.5t2 -18.5v-62q0 -12 -2.5 -17.5t-4.5 -6t-7 -0.5q-76 -7 -98 -21t-22 -59v-646q0 -145 -41 -252.5t-132 -171.5t-225 -64q-205 0 -310 125.5t-105 362.5v633q0 59 -16 73t-87 17q-16 1 -19 6.5t-3 24.5z" />
<glyph unicode="V" horiz-adv-x="1100" d="M28 1216v67q0 13 2.5 16.5t12.5 3.5h378q11 0 14 -4t3 -16v-65q0 -14 -3.5 -19.5t-15.5 -6.5q-66 -3 -81.5 -10.5t-15.5 -32.5q0 -117 15.5 -235t36 -206t58 -196.5t62 -168.5t68.5 -162q56 127 87.5 207.5t73 211.5t61.5 267t20 282q0 25 -15.5 32.5t-81.5 10.5 q-12 1 -15 6.5t-3 19.5v65q0 12 3 16t12 4h352q10 0 12.5 -3.5t2.5 -16.5v-67q0 -9 -0.5 -12.5t-4 -6.5t-10.5 -4q-73 -5 -92.5 -12.5t-19.5 -28.5q0 -141 -21.5 -283.5t-50.5 -250.5t-78 -231t-84 -196.5t-88 -175.5q-9 -21 -32 -21h-82q-22 0 -31 21q-53 102 -88 175.5 t-84 196.5t-78 231t-50.5 250.5t-21.5 283.5q0 18 -21.5 27t-90.5 14q-7 1 -10.5 4t-4 6.5t-0.5 12.5z" />
<glyph unicode="W" horiz-adv-x="1645" d="M28 1214v69q0 13 2.5 16.5t12.5 3.5h400q8 0 10.5 -4.5t2.5 -17.5v-63q0 -16 -2.5 -20.5t-14.5 -5.5q-69 -3 -85.5 -10t-16.5 -31q5 -276 61 -510.5t148 -485.5q199 534 210 996q3 24 -18 31.5t-83 9.5q-16 2 -16 22v69q0 13 3 16.5t13 3.5h365q10 0 12.5 -3.5t2.5 -16.5 v-67q0 -9 -0.5 -12.5t-3.5 -6.5t-9 -4q-97 -8 -110 -26q21 -516 227 -1011q91 243 148 482t63 513q2 26 -15 33t-88 8q-11 1 -13.5 6t-2.5 20v61q0 15 2.5 19.5t12.5 4.5h353q10 0 14.5 -4t4.5 -16v-67q0 -12 -3 -17t-14 -6q-75 -5 -93.5 -12t-19.5 -32 q-4 -136 -26.5 -279.5t-46 -246t-68 -237.5t-67 -194.5t-68.5 -176.5q-9 -21 -28 -21h-126q-23 0 -30 21q-52 134 -74.5 193t-65.5 195t-69 256q-58 -263 -201 -644q-7 -21 -28 -21h-130q-21 0 -30 21q-113 290 -160 446q-105 354 -114 688q-2 23 -21.5 31t-91.5 13 q-11 1 -13 5t-2 16z" />
<glyph unicode="X" horiz-adv-x="1051" d="M32 22v60v5q0 9 0.5 12.5t4 6t10.5 2.5q64 5 86.5 19t47.5 59l253 449l-257 512q-13 27 -32 35t-80 11q-11 3 -13 7.5t-2 18.5v62q0 15 2.5 18.5t14.5 3.5h384q14 0 17 -5t3 -21v-54q0 -19 -3 -24.5t-19 -6.5q-60 -1 -72.5 -15.5t7.5 -50.5l152 -307l160 283q25 47 25 62 q0 16 -16.5 21t-58.5 7q-14 1 -17 5.5t-3 19.5v6v54v13t1.5 7t5.5 5t11 1h339q14 0 16.5 -3.5t2.5 -18.5v-63q0 -10 -0.5 -14t-4 -7t-10.5 -4q-58 -4 -87 -20t-49 -54l-246 -436l238 -474q31 -59 54 -79t47 -20q12 0 32 4.5t24 4.5h3q6 0 8 -0.5t4 -3.5t3 -9l10 -71 q1 -18 -3.5 -25t-19.5 -12q-48 -17 -117 -17q-36 0 -64.5 8.5t-46.5 19.5t-38 38t-30.5 45.5t-32.5 60.5l-175 348l-170 -302q-22 -41 -22 -56q0 -16 18 -22.5t62 -8.5q16 -3 19 -8.5t3 -25.5v-52q0 -16 -3 -21t-15 -5h-345q-11 0 -13.5 3.5t-2.5 18.5z" />
<glyph unicode="Y" horiz-adv-x="1035" d="M26 1216v67q0 12 3.5 16t13.5 4h376q11 0 14 -4t3 -16v-65q0 -14 -3.5 -19.5t-15.5 -6.5q-39 -1 -59.5 -4t-29 -9t-8.5 -17q0 -144 55 -272.5t150 -275.5q48 69 80.5 122.5t68 126t53.5 148t18 151.5q0 16 -20 22t-79 8q-11 1 -15 7t-4 19v65q0 12 3 16t14 4h350 q10 0 13.5 -4t3.5 -16v-67q0 -23 -15 -23q-64 -5 -86.5 -12.5t-26.5 -28.5q-23 -313 -280 -660v-263h2v-26q0 -61 14.5 -74.5t87.5 -16.5q16 -1 19.5 -7.5t3.5 -26.5v-52q0 -16 -3.5 -21t-15.5 -5h-391q-12 0 -15 3.5t-3 18.5v60q0 10 0.5 14t4 7.5t10.5 4.5q79 5 99 20 t20 71v270q-272 367 -283 683q-2 17 -26.5 26.5t-85.5 14.5q-7 1 -10.5 4t-4 6.5t-0.5 12.5z" />
<glyph unicode="Z" horiz-adv-x="899" d="M78 19v80q0 16 8 31l515 1041h-352q-17 0 -21.5 -9t-8.5 -41q-1 -7 -1 -11l-9 -170q0 -22 -21 -22h-74q-19 0 -19 24v341q0 14 3 17t14 3h672q12 0 14.5 -5.5t2.5 -22.5v-74q0 -26 -10 -47l-508 -1022h380q14 0 20.5 10.5t9.5 39.5l11 170q2 21 7 24q4 2 13 2h77 q16 0 16 -28v-328q0 -14 -3.5 -18t-14.5 -4h-708q-7 0 -10 3.5t-3 15.5z" />
<glyph unicode="[" horiz-adv-x="498" d="M136 -279v1603q0 9 0.5 12.5t3.5 5.5t9 2h272q7 2 9 -0.5t2 -10.5v-97q0 -8 -2 -9.5t-9 -1.5h-119v-1396h117q6 0 8.5 -0.5t3.5 -3t1 -9.5v-95q0 -8 -2 -9.5t-9 -1.5h-276q-9 0 -9 11z" />
<glyph unicode="\" horiz-adv-x="741" d="M43 1322h169l488 -1354h-171z" />
<glyph unicode="]" horiz-adv-x="497" d="M67 -181q0 12 11 12h117v1396h-115q-6 0 -8.5 0.5t-3.5 3t-1 9.5v95q0 11 9 11h278q7 0 7 -13v-1601q0 -14 -1.5 -17.5t-9.5 -3.5h-274q-5 -1 -7 1t-2 9v98z" />
<glyph unicode="^" horiz-adv-x="996" d="M73 810l426 501l424 -501l-115 -99l-309 401l-311 -401z" />
<glyph unicode="_" horiz-adv-x="869" d="M97 0h674v-132h-674v132z" />
<glyph unicode="`" horiz-adv-x="517" d="M71 1594q-7 7 -9.5 13.5t1.5 10.5t13 4h129q16 0 25 -5.5t19 -22.5l127 -196q18 -33 -11 -33h-67q-26 0 -54 31z" />
<glyph unicode="a" horiz-adv-x="862" d="M63 203q0 44 8.5 80t21 60t34.5 43t41.5 30t50 19.5t51.5 12t54 8.5q41 6 63 10t53 14.5t47 25t28 40.5t12 61q0 73 -31.5 110t-123.5 37q-83 0 -132 -24l-13 -158q-1 -12 -4.5 -15.5t-12.5 -3.5h-74q-12 0 -15.5 3.5t-3.5 15.5v216q0 24 4.5 35t18.5 19q29 17 93.5 29.5 t140.5 12.5q94 0 158.5 -22.5t100 -68.5t50.5 -104.5t15 -141.5v-294q0 -81 14 -108.5t40 -27.5q36 0 36 45q0 12 1 17.5t6.5 10t16.5 4.5h28q16 0 20 -6.5t4 -25.5q0 -169 -153 -169q-127 0 -162 122q-74 -124 -264 -124q-113 0 -167.5 49t-54.5 163zM231 207q0 -46 22 -65 t69 -19q87 0 150.5 73t63.5 165v73q-11 -26 -27.5 -45t-40 -30.5t-42.5 -17t-48 -11.5q-76 -15 -97 -26q-50 -26 -50 -97z" />
<glyph unicode="b" horiz-adv-x="927" d="M30 22v60q0 24 15 26q78 5 98.5 20.5t20.5 70.5v916q0 36 -7 46t-30 12l-71 4q-13 0 -13 24v58q0 16 4.5 22t15.5 6q106 16 162 16h67q34 0 34 -43v-558q34 90 99 136t145 46q142 0 216 -124.5t74 -325.5q0 -97 -18 -176.5t-54 -140.5t-96 -94.5t-139 -33.5t-145.5 37.5 t-87.5 118.5v-102q0 -17 -1 -24.5t-7.5 -13t-19.5 -5.5h-244q-12 0 -15 3.5t-3 18.5zM328 411q0 -133 44.5 -209.5t133.5 -76.5q95 0 140 82t45 223q0 142 -44.5 229.5t-136.5 87.5q-89 0 -135.5 -92t-46.5 -244z" />
<glyph unicode="c" horiz-adv-x="763" d="M65 421q0 227 96.5 345t272.5 118q70 0 130.5 -13.5t92.5 -30.5q14 -7 18.5 -17t4.5 -34v-255q0 -11 -3.5 -14.5t-13.5 -3.5h-77q-14 0 -16 16l-19 196q-43 24 -108 24q-210 0 -210 -328q0 -90 17.5 -151t51.5 -93.5t76.5 -45.5t101.5 -13q78 0 194 34q12 4 17 -3t5 -24 v-72q0 -14 -4.5 -19t-17.5 -11q-93 -35 -233 -35q-185 0 -280.5 98.5t-95.5 331.5z" />
<glyph unicode="d" horiz-adv-x="938" d="M67 434q0 131 31.5 230.5t99.5 159.5t165 60q81 0 146 -36.5t94 -112.5v380q0 36 -7.5 46t-31.5 12l-69 4q-9 0 -11 4.5t-2 19.5v58q0 28 19 28q108 16 162 16h67q35 0 35 -43v-1009q0 -81 14 -108.5t40 -27.5q36 0 36 43q0 14 1 19.5t7 10t18 4.5h26q17 0 21.5 -7 t4.5 -27q0 -169 -145 -169q-132 0 -162 149q-63 -149 -255 -149q-151 0 -227.5 122.5t-76.5 322.5zM235 428q0 -134 48.5 -221.5t142.5 -87.5t141 78t47 216q0 328 -191 328q-95 0 -141.5 -86t-46.5 -227z" />
<glyph unicode="e" horiz-adv-x="796" d="M67 430q0 454 356 454q296 0 296 -270q0 -149 -76.5 -224t-206.5 -75q-113 0 -196 29q14 -126 71.5 -173.5t159.5 -47.5q27 0 52.5 3t52 10t43 12t46 15.5t39.5 13.5q22 9 22 -15v-73q0 -20 -3.5 -27t-18.5 -14q-39 -22 -109 -39.5t-148 -17.5q-196 0 -288 106t-92 333z M235 484q71 -28 147 -28q80 0 128.5 39.5t48.5 118.5q0 67 -37 101.5t-98 34.5q-175 0 -189 -266z" />
<glyph unicode="f" horiz-adv-x="582" d="M63 22v60q0 16 2 20.5t13 5.5q67 5 85 17t19 54v564h-98q-17 0 -17 20v82q0 21 17 21h98v108q0 189 63 268.5t200 79.5q51 0 96.5 -11.5t67.5 -25.5q12 -7 16 -18t4 -36v-205q0 -13 -3 -16t-12 -3h-78q-8 0 -10.5 3.5t-4.5 13.5l-18 149q-26 17 -58 17q-54 0 -77.5 -53 t-23.5 -178v-93h166q19 0 19 -23v-78q0 -22 -19 -22h-166v-557q1 -48 27 -59.5t126 -14.5q11 -1 15.5 -5t5.5 -9.5t1 -19.5v-52v-13t-1.5 -7t-5.5 -5t-11 -1h-419q-14 0 -16.5 3.5t-2.5 18.5z" />
<glyph unicode="g" horiz-adv-x="934" d="M76 434q0 131 31.5 230.5t99.5 159.5t165 60q90 0 158 -42.5t92 -135.5v115q0 45 33 45h52q14 0 37 -3t63.5 -9.5t78.5 -10.5q12 0 15.5 -5t3.5 -21v-57q0 -15 -2.5 -19.5t-10.5 -6.5l-78 -2q-16 -2 -27 -17t-11 -43v-584q0 -230 -94 -344.5t-293 -114.5q-156 0 -249 47 q-14 7 -18.5 16t-4.5 32v66q0 18 5.5 23.5t17.5 0.5q47 -16 69.5 -23.5t69.5 -16.5t90 -9q59 0 101.5 14.5t76.5 49.5t51.5 99.5t17.5 159.5v13q-74 -112 -236 -112q-151 0 -227.5 122.5t-76.5 322.5zM244 428q0 -133 48.5 -221t141.5 -88q95 0 142.5 78t47.5 216 q0 328 -192 328q-95 0 -141.5 -86t-46.5 -227z" />
<glyph unicode="h" horiz-adv-x="958" d="M30 22v60q0 24 15 26q78 5 98.5 20.5t20.5 70.5v916q0 60 -36 60l-72 4q-8 0 -10.5 4.5t-2.5 17.5v61q0 16 3.5 20t13.5 6q38 4 76.5 9.5t61 8.5t35.5 3h52q20 0 26.5 -11t6.5 -34v-566q37 94 106.5 140t152.5 46q105 0 157 -69.5t52 -222.5v-341q0 -80 13.5 -108 t38.5 -28q37 0 37 45q0 19 4.5 25.5t21.5 6.5h26q17 0 20.5 -5t3.5 -27q0 -169 -152 -169q-175 0 -175 244v340q0 96 -26 134t-77 38q-90 0 -142.5 -94.5t-52.5 -287.5v-190q1 -40 18.5 -50.5t83.5 -12.5q16 -1 19.5 -7.5t3.5 -26.5v-52q0 -9 -0.5 -12.5t-2 -7.5t-5.5 -5 t-11 -1h-384q-12 0 -15 3.5t-3 18.5z" />
<glyph unicode="i" horiz-adv-x="500" d="M39 763v58q0 17 4 22.5t15 5.5q114 17 164 17h67q33 0 33 -43v-572q0 -81 14 -108.5t40 -27.5q37 0 37 45q0 14 1 19.5t6.5 9t18.5 3.5h26q16 0 20.5 -5.5t4.5 -26.5q0 -169 -153 -169q-175 0 -175 244v443q0 35 -8 45t-31 12l-71 4q-9 0 -11 4.5t-2 19.5zM151 1132 q0 44 25.5 72.5t63.5 28.5q37 0 64 -28.5t27 -72.5t-27 -72.5t-64 -28.5q-38 0 -63.5 28t-25.5 73z" />
<glyph unicode="j" horiz-adv-x="450" d="M-41 -182q0 15 3 20.5t14 5.5h69q5 0 8 -2t4.5 -4t2 -6.5t0.5 -7.5v-9.5v-8.5q7 -50 50 -50q27 0 44 30t17 115v777q0 36 -7.5 45.5t-31.5 11.5l-71 4q-9 0 -11 4.5t-2 19.5v58q0 16 4.5 22t16.5 6q114 17 162 17h67q20 0 26.5 -11.5t6.5 -31.5v-849q0 -177 -48 -256 t-155 -79q-87 0 -128 52t-41 127zM156 1132q0 44 26 72.5t64 28.5t64.5 -28.5t26.5 -72.5q0 -45 -26.5 -73t-64.5 -28t-64 28t-26 73z" />
<glyph unicode="k" horiz-adv-x="891" d="M30 22v60q0 24 15 26q78 5 98.5 20.5t20.5 70.5v916q0 57 -37 60l-69 4q-9 1 -12 6t-3 18v59q0 15 4.5 19.5t15.5 6.5q36 4 75.5 9.5t63 8.5t36.5 3h52q21 0 28.5 -11t7.5 -34v-789l192 246q9 12 11 18.5t-4 11t-20 6t-41 1.5q-14 0 -17.5 6t-3.5 25v51q0 16 3.5 21 t15.5 5h359q12 0 14.5 -4t2.5 -19v-61q0 -9 -0.5 -12.5t-3.5 -6.5t-9 -3q-62 0 -87.5 -12.5t-57.5 -53.5l-185 -230l158 -259q26 -53 47 -76t45 -23q49 0 52 60q0 17 5 23t19 6h24q17 0 21.5 -6t4.5 -31q0 -177 -158 -177q-72 0 -114.5 38.5t-80.5 110.5l-192 322v-249 q0 -61 14.5 -74.5t87.5 -16.5q16 -1 19.5 -7.5t3.5 -26.5v-52q0 -9 -0.5 -12.5t-2 -7.5t-5.5 -5t-11 -1h-384q-12 0 -15 3.5t-3 18.5z" />
<glyph unicode="l" horiz-adv-x="454" d="M-2 1218v61q0 15 4 19.5t15 6.5q141 17 164 17h68q32 0 32 -39v-1032q0 -81 14 -108.5t40 -27.5q37 0 37 45q0 14 1 19.5t6.5 9t18.5 3.5h26q16 0 20.5 -5.5t4.5 -26.5q0 -169 -153 -169q-175 0 -175 244v903q0 33 -8 42.5t-29 11.5l-71 3q-9 0 -12 5t-3 18z" />
<glyph unicode="m" horiz-adv-x="1377" d="M60 22v60q0 11 0.5 15.5t3.5 7.5t9 3q72 7 90.5 20t18.5 58v492q0 55 -37 59l-72 4q-8 0 -10.5 4.5t-2.5 17.5v62q0 16 3 20t13 6q37 4 75.5 9t61 8t35.5 3h54q20 0 26.5 -10.5t6.5 -33.5v-129q56 186 224 186q145 0 191 -150q68 150 240 150q108 0 161.5 -81.5 t53.5 -258.5v-291q0 -80 13.5 -108t38.5 -28q37 0 37 45q0 19 4.5 25.5t21.5 6.5h26q17 0 20.5 -5t3.5 -27q0 -92 -40 -130.5t-112 -38.5q-177 0 -177 243v291q0 121 -26.5 170.5t-81.5 49.5q-72 0 -115.5 -66.5t-44.5 -194.5v-279q0 -63 18 -77.5t103 -17.5q14 -1 17 -7.5 t3 -26.5v-52v-13t-1.5 -7t-5.5 -5t-11 -1h-367q-11 0 -14 4t-3 18v60q0 26 13 26q54 3 70 15t18 50v378q-3 110 -30.5 153t-79.5 43q-157 0 -160 -328v-250q2 -36 16 -46t67 -11q14 -3 17.5 -9t3.5 -25v-52q0 -9 -0.5 -12.5t-2 -7.5t-5.5 -5t-11 -1h-352q-10 0 -13 4t-3 18z " />
<glyph unicode="n" horiz-adv-x="977" d="M50 22v60q0 24 15 26q80 5 100.5 20.5t20.5 70.5v479q0 59 -37 59l-71 4q-9 0 -12 4.5t-3 17.5v62q0 15 4 19.5t15 6.5q36 4 74.5 9t61 8t35.5 3h52q20 0 27 -10.5t7 -33.5v-129q37 94 107 140t152 46q105 0 156.5 -69.5t51.5 -222.5v-341q0 -80 13.5 -108t38.5 -28 q39 0 39 45q0 20 4 26t21 6h28q16 0 20 -5.5t4 -26.5q0 -169 -155 -169q-175 0 -175 244v340q0 97 -25.5 134.5t-76.5 37.5q-89 0 -142.5 -95t-53.5 -287v-162q0 -61 15 -74.5t88 -16.5q11 -1 15.5 -5t5.5 -9.5t1 -19.5v-52q0 -9 -0.5 -12.5t-2 -7.5t-5.5 -5t-11 -1h-383 q-13 0 -16 4t-3 18z" />
<glyph unicode="o" horiz-adv-x="854" d="M63 439q0 70 12 133t39.5 120.5t68.5 99.5t103.5 67t139.5 25q78 0 140.5 -25t103.5 -67t68 -99.5t39 -120.5t12 -133t-12 -133.5t-39.5 -122t-68.5 -101t-103.5 -68t-139.5 -25.5q-78 0 -140.5 25.5t-103.5 68t-68.5 101t-39 122t-11.5 133.5zM229 432 q0 -87 18.5 -154.5t64.5 -112t114 -44.5t114.5 44.5t66 113t19.5 155.5t-19.5 156t-66 115.5t-114.5 46.5q-67 0 -113 -46.5t-65 -116t-19 -157.5z" />
<glyph unicode="p" horiz-adv-x="919" d="M30 -272q0 15 2.5 20t12.5 6q75 5 92.5 18t17.5 66l1 408v432q0 56 -37 59l-71 4q-8 0 -10.5 4.5t-2.5 17.5v62q0 16 3.5 20t13.5 6q37 4 76 9t61.5 8t35.5 3h52q20 0 27 -10.5t7 -33.5v-140q31 98 98 147.5t151 49.5q142 0 216.5 -124.5t74.5 -325.5 q0 -202 -74.5 -327.5t-223.5 -125.5q-48 0 -92 14t-84.5 49.5t-58.5 87.5v-283q0 -58 21.5 -73t98.5 -18q11 -1 15.5 -5t5.5 -9.5t1 -19.5v-52q0 -16 -3.5 -21t-17.5 -5h-391q-12 0 -15 4t-3 19v59zM318 406q0 -137 46.5 -220.5t136.5 -83.5q93 0 137.5 88.5t44.5 233.5 q0 143 -44 233t-134 90q-91 0 -139 -93t-48 -248z" />
<glyph unicode="q" horiz-adv-x="932" d="M67 436q0 202 78 325t235 123q170 0 238 -126v63q0 45 34 45h52q14 0 36.5 -3t63 -9.5t77.5 -10.5q12 0 16 -5.5t4 -20.5v-57q0 -15 -2.5 -20t-12.5 -6l-74 -2q-39 -4 -39 -60v-447h-2v-381q0 -58 16 -71.5t88 -14.5q11 -1 15.5 -5t5.5 -9.5t1 -19.5v-52q0 -16 -3 -21 t-15 -5h-391q-12 0 -15.5 4t-3.5 19v59q0 15 2.5 20t12.5 6q42 3 61.5 6t36.5 12.5t22 25.5t5 46v262q-74 -117 -235 -117q-151 0 -229 123.5t-78 323.5zM235 438q0 -85 18.5 -154.5t62.5 -116t108 -46.5q93 0 141.5 85.5t48.5 232.5q0 144 -47.5 230.5t-140.5 86.5 q-94 0 -142.5 -91t-48.5 -227z" />
<glyph unicode="r" horiz-adv-x="765" d="M50 22v60q0 24 15 26q80 5 100.5 20.5t20.5 70.5v479q0 59 -37 59l-71 4q-9 0 -12 4.5t-3 17.5v62q0 15 4 19.5t15 6.5q36 4 74.5 9t61 8t35.5 3h52q20 0 27 -10.5t7 -33.5v-187h7q62 244 235 244q68 0 108 -26q14 -8 17 -17.5t3 -36.5v-275q0 -14 -2.5 -16.5t-12.5 -2.5 h-83q-15 0 -15 17l-19 199q-15 8 -37 8q-187 0 -192 -449v-130q4 -26 24 -33.5t77 -9.5q11 -1 15.5 -5t5.5 -9.5t1 -19.5v-52q0 -9 -0.5 -12.5t-2 -7.5t-5.5 -5t-11 -1h-383q-13 0 -16 4t-3 18z" />
<glyph unicode="s" horiz-adv-x="744" d="M69 58v203q0 24 6 30.5t22 6.5h69q14 0 18.5 -5t5.5 -25l9 -132q64 -22 158 -22q90 0 127 27t37 105q0 43 -19 72.5t-49.5 43t-70 25t-81 18t-81 23t-70 39.5t-49.5 67t-19 105q0 137 69 191t225 54q184 0 250 -35q15 -7 19.5 -14.5t2.5 -22.5l-6 -198q0 -17 -6 -20.5 t-22 -3.5h-59q-14 0 -19 5.5t-7 22.5l-8 123q-68 19 -141 19t-107.5 -22t-34.5 -92q0 -37 24.5 -59.5t63.5 -32.5t86 -18t94 -24t86 -42.5t63.5 -81t24.5 -133.5q0 -82 -20.5 -135.5t-64 -81.5t-97.5 -38.5t-135 -10.5q-75 0 -156.5 11t-111.5 26q-14 6 -20 12.5t-6 19.5z " />
<glyph unicode="t" horiz-adv-x="597" d="M35 763v79q0 14 4.5 19t16.5 5h110l67 257q5 26 26 26h43q12 0 16 -6t4 -22v-255h209q20 0 20 -26v-77q0 -15 -4 -19.5t-16 -4.5h-209v-441q0 -107 21.5 -149.5t67.5 -42.5q75 0 75 76q0 27 22 27h32q20 0 20 -28q0 -200 -191 -200q-209 0 -209 304v454h-104q-13 0 -17 5 t-4 19z" />
<glyph unicode="u" horiz-adv-x="955" d="M28 771v52q0 15 4 19.5t15 6.5q42 4 75.5 9t49 6.5t38.5 1.5h67q21 0 27.5 -12t6.5 -35v-519q0 -113 28 -153.5t89 -40.5q188 0 188 322v268q-5 43 -37 47l-73 4q-8 0 -9.5 4.5t-1.5 19.5v52q0 15 4 19.5t15 6.5q35 4 63.5 7.5t40.5 5.5t27 3t33 1h67q19 0 25 -12t6 -35 v-568q0 -81 14 -108.5t42 -27.5q36 0 36 45q0 14 1 19.5t6.5 9t18.5 3.5h26q17 0 20.5 -5t3.5 -27q0 -169 -153 -169q-135 0 -165 145q-38 -77 -95.5 -113t-146.5 -36q-121 0 -177 73.5t-56 242.5v386q0 50 -37 54l-75 4q-8 0 -9.5 4.5t-1.5 19.5z" />
<glyph unicode="v" horiz-adv-x="867" d="M32 773v78q0 9 3 12t10 3h340q13 0 13 -15v-76q0 -8 -0.5 -10.5t-3.5 -5t-10 -3.5q-56 -3 -70.5 -10t-11.5 -27q4 -147 43 -288t102 -295q141 335 149 583q3 20 -11 26.5t-69 10.5q-11 1 -14 5t-3 14v74q0 17 15 17h305q12 0 14.5 -3.5t2.5 -13.5v-73q0 -18 -15 -18 q-58 -5 -73 -12t-18 -29q-12 -314 -212 -710q-7 -13 -25 -13h-119q-17 0 -24 13q-200 396 -212 710q-3 19 -19 27t-76 14q-11 2 -11 15z" />
<glyph unicode="w" horiz-adv-x="1325" d="M30 775v76q0 9 3 12t10 3h352q15 0 15 -15v-76q0 -10 -3.5 -13.5t-13.5 -5.5q-53 -3 -71 -11t-13 -26q4 -235 140 -581q63 156 102 297t43 284q5 20 -10.5 27t-73.5 10q-17 2 -17 19v76q0 9 3 12t12 3h319q8 0 10.5 -2.5t2.5 -12.5v-78q0 -13 -11 -15q-71 -9 -84 -15 q13 -170 53 -311.5t107 -291.5q62 159 100.5 298.5t42.5 280.5q5 20 -10 27t-72 10q-11 1 -13.5 5t-2.5 14v76q0 15 13 15h316q15 0 15 -15v-76q0 -14 -15 -17q-64 -7 -79 -13t-18 -26q-9 -179 -71.5 -373t-134.5 -339q-8 -13 -23 -13h-126q-18 0 -25 13q-88 180 -141 362 q-64 -206 -142 -362q-7 -13 -20 -13h-128q-15 0 -23 13q-73 152 -135.5 343t-71.5 369q-2 17 -20.5 24.5t-77.5 14.5q-13 2 -13 17z" />
<glyph unicode="x" horiz-adv-x="901" d="M37 22v56q0 15 4 19.5t15 4.5q54 0 77 12t48 50l182 260l-177 283q-19 30 -45.5 41.5t-71.5 11.5q-9 0 -12 5.5t-3 20.5v57q0 14 4 18.5t15 4.5h344q12 0 15.5 -5t3.5 -21v-45q0 -20 -3.5 -27.5t-17.5 -7.5q-43 0 -50.5 -11.5t9.5 -37.5l90 -143l102 147q17 25 9.5 35 t-50.5 10q-13 0 -16 7t-3 28v45q0 16 3 21t14 5h307q11 0 14 -4t3 -19v-57q0 -15 -3 -20.5t-12 -5.5q-79 0 -119 -53l-179 -251l188 -296q22 -35 47.5 -46.5t77.5 -11.5q11 0 15 -4.5t4 -19.5v-56q0 -15 -2 -18.5t-13 -3.5h-363q-12 0 -14.5 5t-2.5 21v47q0 19 2.5 24 t16.5 5q42 0 53 8t-3 30l-108 173l-125 -175q-25 -30 34 -35q13 -1 30 -1q14 0 17 -5t3 -24v-47q0 -16 -2.5 -21t-14.5 -5h-322q-11 0 -13 3.5t-2 18.5z" />
<glyph unicode="y" horiz-adv-x="884" d="M37 773v78q0 9 3 12t10 3h339q13 0 13 -15v-76q0 -11 -2 -14.5t-13 -4.5q-53 -3 -67 -11t-11 -26q4 -109 51 -284t91 -284q75 213 163 562q7 24 -3 31.5t-65 11.5q-13 2 -18 5.5t-5 14.5v67q0 23 21 23h296q14 0 17 -4.5t3 -18.5v-63q0 -11 -3.5 -15t-13.5 -9 q-55 -5 -68.5 -13.5t-22.5 -40.5q-125 -521 -346 -1019q-20 -37 -43 -50t-63 -13h-127q-14 0 -16 2t-2 17v67q0 17 5 19q3 1 9 1q8 1 23 3q63 8 80.5 15.5t30.5 37.5q85 200 92 218h-15q-16 0 -26 15q-52 91 -128 322t-85 380q-2 18 -19.5 26t-73.5 15q-11 2 -11 15z" />
<glyph unicode="z" horiz-adv-x="781" d="M71 28v54q0 28 15 46l398 624h-248q-16 0 -21.5 -6t-7.5 -24l-4 -130q-1 -14 -6.5 -18t-17.5 -4h-67q-10 0 -14.5 1t-8 6t-3.5 17v244q0 28 20 28h564q23 0 23 -28v-54q0 -30 -19 -52l-395 -620h276q30 0 30 29l9 138q0 18 5 24t19 6h65q15 0 19.5 -6t4.5 -31v-244 q0 -28 -18 -28h-596q-22 0 -22 28z" />
<glyph unicode="{" horiz-adv-x="549" d="M43 480v86q0 16 15 19q73 17 98 62t25 135v292q0 56 9.5 99t32.5 81.5t69 59.5t112 21h73h5t4 -1.5t3 -4t1 -7.5v-86q0 -20 -13 -20h-6q-65 0 -94 -35.5t-29 -106.5v-285q0 -118 -27.5 -178t-102.5 -88q75 -28 102.5 -88t27.5 -178v-285q0 -70 29 -105.5t94 -35.5h6 q13 0 13 -21v-86q0 -9 -3 -11t-10 -2h-73q-66 0 -112 21t-69 59.5t-32.5 81.5t-9.5 99v292q0 90 -25 135.5t-98 62.5q-15 3 -15 18z" />
<glyph unicode="|" horiz-adv-x="431" d="M136 -311v1670h160v-1670h-160z" />
<glyph unicode="}" horiz-adv-x="549" d="M60 -190q0 21 13 21h3q66 0 95.5 35t29.5 106v285q0 118 27 178t102 88q-75 28 -102 88t-27 178v285q0 71 -29.5 106.5t-95.5 35.5h-3q-13 0 -13 20v86q0 9 3 11t10 2h72q67 0 113 -21t69 -59.5t32.5 -81.5t9.5 -99v-292q0 -90 25 -135t98 -62q14 -3 14 -19v-86 q0 -15 -14 -18q-73 -17 -98 -62.5t-25 -135.5v-292q0 -56 -9.5 -99t-32.5 -81.5t-69 -59.5t-113 -21h-72h-5t-4 1.5t-3 4t-1 7.5v86z" />
<glyph unicode="~" horiz-adv-x="1005" d="M91 372q46 113 121.5 175t154.5 62q39 0 75 -19.5t64 -47.5t54 -56t54.5 -47.5t55.5 -19.5q71 0 123 153l123 -49q-37 -119 -105.5 -179.5t-143.5 -60.5q-46 0 -89.5 30.5t-71.5 66.5t-63 66.5t-67 30.5q-48 0 -83 -35t-71 -116z" />
<glyph unicode="&#xa0;" horiz-adv-x="711" d="M101 482v88q0 22 18 22h477q17 0 17 -24v-76q0 -28 -21 -28h-475q-16 0 -16 18z" />
<glyph unicode="&#xa1;" horiz-adv-x="402" d="M101 778q0 45 27 75.5t67 30.5t68.5 -31t28.5 -75q0 -49 -28 -77.5t-69 -28.5t-67.5 28.5t-26.5 77.5zM117 -320l23 916q0 10 4.5 15.5t8.5 6t13 0.5h83q7 0 13 -5.5t6 -16.5l17 -918q0 -21 -21 -21h-119q-28 0 -28 23z" />
<glyph unicode="&#xa2;" horiz-adv-x="794" d="M80 419q0 216 98 340.5t271 124.5q123 0 184 -57.5t61 -159.5q0 -77 -38 -129t-116 -52q-38 0 -69 9q-12 4 -16 10.5t-4 21.5v24q0 26 18 26q22 -5 32 -5q69 0 69 78q0 108 -116 108q-98 0 -153 -88.5t-55 -245.5q0 -165 63 -237.5t169 -72.5q102 0 216 61 q12 4 16.5 -0.5t4.5 -21.5v-79q0 -14 -4 -20t-17 -11q-120 -62 -256 -62q-174 0 -266 115t-92 323zM344 -331l12 245q0 1 0.5 5t1 5.5t1.5 4t2.5 3.5t4 2t6.5 1h105q11 0 11 -17l13 -248q0 -20 -8 -20h-139q-10 0 -10 19zM348 1199q-3 19 9 19h138q8 0 8 -19l-13 -248 q0 -16 -12 -16h-104q-7 0 -10.5 3t-4 6.5t-0.5 10.5z" />
<glyph unicode="&#xa3;" horiz-adv-x="990" d="M73 22v60q0 16 2 20.5t13 5.5q78 5 98.5 18t20.5 58v376h-108q-17 0 -17 19v88q0 22 19 22h106v234q0 113 24.5 191.5t73.5 122.5t112.5 63.5t150.5 19.5q171 0 296 -47q5 -2 9 -4t6.5 -3.5t4.5 -4.5t2.5 -5t1 -6.5t0.5 -6.5v-9v-11v-266q0 -16 -2.5 -19t-14.5 -3h-78 q-10 0 -12.5 3.5t-4.5 14.5l-28 205q-64 22 -169 22q-47 0 -81 -8.5t-63.5 -29.5t-45 -62.5t-15.5 -102.5v-288h203q17 0 17 -24v-77q0 -28 -21 -28h-199v-415l354 -2q15 0 20.5 10.5t11.5 40.5l9 147q3 15 10.5 22t13 7.5t22.5 0.5h49q7 0 11 -3.5t6 -12.5t2 -15v-22v-11 v-287q0 -14 -3.5 -17t-15.5 -3h-773q-11 0 -14.5 4t-3.5 18z" />
<glyph unicode="&#xa4;" horiz-adv-x="1007" d="M112 141l89 110q-89 119 -89 296q0 183 97 302l-88 108l93 60l80 -90q91 58 209 58q126 0 218 -65l85 91l91 -61l-93 -110q88 -121 88 -293q0 -174 -88 -292l95 -110l-97 -63l-85 87q-91 -61 -214 -61q-125 0 -213 58l-81 -90zM281 547q0 -141 61 -229.5t161 -88.5 q97 0 158 89t61 229t-61 229.5t-158 89.5q-101 0 -161.5 -89t-60.5 -230z" />
<glyph unicode="&#xa5;" horiz-adv-x="1085" d="M50 1216v67q0 13 2.5 16.5t12.5 3.5h378q11 0 14 -4t3 -16v-65q0 -14 -3.5 -19.5t-15.5 -6.5q-58 -2 -78 -8t-20 -22q0 -76 17 -151.5t50.5 -148.5t62.5 -125t74 -123q49 70 81 122.5t67.5 125t53.5 148t18 152.5q0 11 -8.5 17t-29 9t-59.5 4q-12 1 -15 6.5t-3 19.5v65 q0 12 3 16t12 4h351q10 0 12.5 -3.5t2.5 -16.5v-67q0 -8 -0.5 -12t-4 -7.5t-10.5 -3.5q-63 -5 -85.5 -12.5t-25.5 -28.5q-20 -268 -203 -551h173q17 0 17 -20v-62q0 -13 -4.5 -18.5t-16.5 -5.5h-244q-2 -2 -2 -3v-66h250q17 0 17 -20v-62q0 -13 -4.5 -18.5t-16.5 -5.5h-246 v-117q0 -60 15.5 -74t89.5 -17q11 -1 15.5 -5t5.5 -9.5t1 -19.5v-52q0 -16 -3 -21t-17 -5h-390q-7 0 -10.5 0.5t-5.5 4t-2 6v11.5v60q0 10 0.5 14t4 7.5t10.5 4.5q75 5 96.5 17.5t22.5 56.5v138h-248q-15 0 -15 17v71q0 18 17 18h246v41q-16 21 -21 28h-227q-15 0 -15 17v71 q0 18 17 18h153q-181 289 -190 551q-3 32 -112 41q-7 1 -10.5 4t-4 6.5t-0.5 12.5z" />
<glyph unicode="&#xa6;" horiz-adv-x="435" d="M138 -266v728h160v-728h-160zM138 577v724h160v-724h-160z" />
<glyph unicode="&#xa7;" horiz-adv-x="908" d="M89 88q0 16 5.5 21.5t22.5 5.5h82q23 0 23 -24l16 -203q86 -26 192 -26q28 0 53.5 3t57 12.5t54 26t38 46.5t15.5 70q0 57 -18.5 99t-49 67t-70.5 43.5t-84.5 33t-89 30.5t-84.5 40.5t-70.5 58t-49 88.5t-18.5 127q0 136 46 216q-46 69 -46 188q0 92 25 155t73 96 t105.5 46.5t136.5 13.5q103 0 178.5 -15.5t108.5 -33.5q17 -10 21.5 -17.5t4.5 -28.5v-272q0 -18 -5.5 -22t-20.5 -4h-84q-7 0 -11 2.5t-5.5 5t-2.5 7.5l-1 6l-19 204q-62 26 -162 26q-179 0 -179 -141q0 -63 29.5 -104t76.5 -62t104 -38t114.5 -41.5t104.5 -62t76.5 -110 t29.5 -176.5q0 -73 -14 -136t-29 -65q43 -83 43 -203q0 -80 -22 -140t-56.5 -95t-85 -56.5t-100 -29t-109.5 -7.5q-85 0 -186 16t-136 35q-28 15 -28 50v274zM277 635q0 -47 17 -82t43 -55t65.5 -37.5t76.5 -28t84 -27.5t81 -36q4 30 4 50q0 63 -21 107t-62 71t-80.5 43 t-100 36t-95.5 37q-12 -34 -12 -78z" />
<glyph unicode="&#xa8;" horiz-adv-x="571" d="M61 1463q0 36 23.5 62t58.5 26q37 0 61.5 -26t24.5 -62q0 -38 -24.5 -63.5t-61.5 -25.5q-36 0 -59 25.5t-23 63.5zM343 1463q0 36 23.5 62t61.5 26q35 0 59.5 -26t24.5 -62q0 -38 -24 -63.5t-60 -25.5q-39 0 -62 25t-23 64z" />
<glyph unicode="&#xa9;" horiz-adv-x="1230" d="M84 618q0 157 41.5 281t113.5 201.5t166.5 118t203.5 40.5q110 0 206.5 -42t171 -121.5t117.5 -206t43 -284.5q0 -153 -41 -274.5t-113 -197.5t-165 -115.5t-202 -39.5q-110 0 -207 41.5t-172.5 119.5t-119 201.5t-43.5 277.5zM160 618q0 -267 128 -412.5t336 -145.5 t326.5 137t118.5 408q0 277 -126 425.5t-334 148.5q-206 0 -327.5 -144t-121.5 -417zM296 620q0 207 87 314t246 107q63 0 118.5 -12.5t84.5 -28.5q13 -5 17 -14.5t4 -30.5v-233q0 -10 -3.5 -13t-11.5 -3h-69q-13 0 -15 16l-17 177q-43 23 -98 23q-192 0 -192 -298 q0 -157 57 -216.5t168 -59.5q66 0 177 30q11 4 15 -1t4 -21v-67q0 -12 -3.5 -16.5t-15.5 -9.5q-89 -34 -212 -34q-167 0 -254 90t-87 301z" />
<glyph unicode="&#xaa;" horiz-adv-x="791" d="M73 974q0 157 69.5 252.5t200.5 95.5q55 0 101 -28.5t75 -81.5v73q0 12 5 15t16 3h128q17 0 17 -22v-626q0 -18 -18 -18h-136q-9 0 -10.5 3.5t-1.5 18.5v65q-67 -106 -176 -106q-89 0 -151 48t-90.5 126.5t-28.5 181.5zM236 970q0 -112 38.5 -169.5t107.5 -57.5 q64 0 100.5 61t36.5 166t-37 166t-102 61q-66 0 -105 -61t-39 -166z" />
<glyph unicode="&#xab;" horiz-adv-x="835" d="M58 493l301 399q8 11 11.5 13.5t11.5 -2.5l78 -60q7 -5 6.5 -9t-8.5 -17l-240 -340l238 -334q13 -16 13.5 -21t-9.5 -12l-75 -56q-10 -5 -14.5 -3t-13.5 14l-297 387q-12 15 -12.5 20.5t10.5 20.5zM354 493l301 399q8 11 11.5 13.5t11.5 -2.5l78 -60q7 -5 6.5 -9 t-10.5 -17l-240 -340l238 -334q13 -16 13.5 -21t-7.5 -12l-76 -56q-9 -6 -13.5 -3.5t-13.5 14.5l-297 387q-12 15 -12.5 20.5t10.5 20.5z" />
<glyph unicode="&#xac;" horiz-adv-x="940" d="M104 519v127h726v-346h-158v219h-568z" />
<glyph unicode="&#xad;" horiz-adv-x="713" d="M101 492v87q0 22 18 22h477q17 0 17 -24v-76q0 -28 -21 -28h-475q-16 0 -16 19z" />
<glyph unicode="&#xae;" horiz-adv-x="1230" d="M84 618q0 157 41.5 281t113.5 201.5t166.5 118t203.5 40.5q110 0 206.5 -42t171 -121.5t117.5 -206t43 -284.5q0 -153 -41 -274.5t-113 -197.5t-165 -115.5t-202 -39.5q-110 0 -207 41.5t-172.5 119.5t-119 201.5t-43.5 277.5zM160 618q0 -267 128 -412.5t336 -145.5 t326.5 137t118.5 408q0 277 -126 425.5t-334 148.5q-206 0 -327.5 -144t-121.5 -417zM376 972v48q0 8 2 10.5t9 2.5h227q132 0 184.5 -68t52.5 -194q0 -181 -103 -239l47 -132q15 -40 27 -54.5t34 -14.5q5 0 12 3.5t11.5 6t9 0.5t5.5 -11l3 -51q1 -13 -1 -17t-12 -9 q-38 -13 -70 -13q-31 0 -52.5 8.5t-36 30t-22.5 40t-20 55.5l-46 132q-35 0 -73 8v-127q0 -36 8.5 -45.5t43.5 -10.5q9 -1 11 -4.5t2 -15.5v-45q0 -15 -11 -15h-231q-6 0 -7.5 2t-1.5 11v49q0 17 7 17q41 5 52.5 14t11.5 38v527q0 23 -12 32.5t-52 13.5q-9 0 -9 17zM564 618 q22 -9 62 -9q51 0 78.5 41.5t27.5 118.5q0 86 -29.5 128.5t-80.5 42.5h-58v-322z" />
<glyph unicode="&#xaf;" horiz-adv-x="590" d="M102 1413v75q0 20 17 20h363q13 0 13 -15v-78q0 -14 -4 -18t-16 -4h-356q-10 0 -13.5 4t-3.5 16z" />
<glyph unicode="&#xb0;" horiz-adv-x="614" d="M71 1048q0 118 62.5 196t173.5 78q113 0 175 -78.5t62 -195.5q0 -119 -64.5 -196t-172.5 -77q-112 0 -174 76t-62 197zM223 1050q0 -77 25.5 -118.5t64.5 -41.5q33 0 55.5 41t22.5 113q0 74 -23 117.5t-61 43.5q-36 0 -60 -43t-24 -112z" />
<glyph unicode="&#xb1;" horiz-adv-x="938" d="M93 415v129h294v340h160v-340h295v-129h-295v-288h-160v288h-294zM97 65h750v-132h-750v132z" />
<glyph unicode="&#xb2;" horiz-adv-x="720" d="M60 573v92q0 20 5 26q91 70 161.5 138.5t128.5 148.5t89 169.5t31 183.5q0 92 -36 126t-102 34q-67 0 -132 -28l-23 -186q-1 -7 -2 -10t-3.5 -4t-8.5 -1h-75q-10 0 -11.5 2t-1.5 15v248q0 20 3.5 27.5t15.5 11.5q121 50 245 50q46 0 79.5 -3.5t74.5 -19.5t66.5 -43.5 t43.5 -80t18 -125.5q0 -187 -98 -354.5t-275 -300.5h266q22 0 28 43l8 110q0 14 3 19t14 5h59q14 0 17.5 -5.5t3.5 -26.5v-259q0 -12 -2 -14t-10 -2h-569q-11 0 -11 14z" />
<glyph unicode="&#xb3;" horiz-adv-x="696" d="M56 607v86q0 14 4.5 18.5t13.5 1.5l40 -11q39 -10 83 -17t93 -7q96 0 143 48t47 153q0 92 -38 128t-111 36h-67q-15 0 -15 22v84q0 12 8 20l194 306h-233q-12 0 -16.5 -9.5t-7.5 -41.5l-6 -108q0 -18 -17 -18h-61q-13 0 -16 3t-3 19v259q0 15 3 18.5t16 3.5h493 q9 0 11 -4t2 -18v-71q0 -6 -0.5 -10.5t-0.5 -7t-2.5 -6.5t-3 -5.5t-5 -7.5t-6.5 -9l-201 -302h20q116 0 166 -67t50 -207q0 -95 -26.5 -164.5t-73 -107t-98.5 -54t-113 -16.5q-154 0 -251 35q-15 5 -15 28z" />
<glyph unicode="&#xb4;" horiz-adv-x="498" d="M110 1393l110 171q10 17 19 23.5t25 6.5h134q14 0 15.5 -9.5t-9.5 -22.5l-166 -181q-19 -22 -50 -22h-67q-32 0 -11 34z" />
<glyph unicode="&#xb5;" horiz-adv-x="1009" d="M56 771v52q0 15 3.5 19.5t14.5 6.5q35 4 63.5 7.5t40.5 5.5t27 3t33 1h67q21 0 27.5 -12t6.5 -35v-519q0 -113 28 -153.5t89 -40.5q183 0 188 304v286q-5 43 -37 47l-73 4q-8 0 -9.5 4.5t-1.5 19.5v52q0 15 4 19.5t15 6.5q35 4 63.5 7.5t40.5 5.5t27 3t33 1h67 q19 0 25 -12t6 -35v-594q3 -66 16.5 -88t39.5 -22q36 0 36 45q0 14 1 19.5t6.5 9t18.5 3.5h26q17 0 20.5 -5t3.5 -27q0 -169 -153 -169q-136 0 -166 145q-38 -77 -95.5 -113t-146.5 -36q-49 0 -72 7v-387q0 -17 -15 -17h-134q-13 0 -13 17v966h2v116q0 50 -38 54l-74 4 q-8 0 -9.5 4.5t-1.5 19.5z" />
<glyph unicode="&#xb6;" horiz-adv-x="783" d="M60 936q0 161 86 264t221 103h262v-1539h-121v1431h-87v-1431h-121v793q-107 1 -173.5 111.5t-66.5 267.5z" />
<glyph unicode="&#xb7;" horiz-adv-x="450" d="M91 469q0 52 37 88.5t90 36.5t90.5 -36.5t37.5 -88.5t-37.5 -88.5t-90.5 -36.5t-90 36t-37 89z" />
<glyph unicode="&#xb8;" horiz-adv-x="428" d="M26 -320l11 24q5 12 10 14.5t13 -1.5q33 -15 76 -15q71 0 71 78q0 65 -93 65q-3 0 -9 -0.5t-7.5 -0.5t-4.5 1.5t-3 4t1 7.5t4 13l48 130h95l-28 -89q121 -5 121 -129q0 -82 -48.5 -120t-122.5 -38q-64 0 -123 24q-11 3 -14 9t3 23z" />
<glyph unicode="&#xb9;" horiz-adv-x="517" d="M54 577v54q0 19 11 21q84 5 111 16.5t27 46.5v713q0 14 -6 15t-20 -8l-99 -76q-20 -14 -20 13v73q0 15 18 30l149 111q29 17 65 17h38q18 0 18 -20v-877q3 -32 26.5 -41t96.5 -12q12 -1 14.5 -5.5t2.5 -20.5v-48q0 -13 -3 -16.5t-14 -3.5h-400q-10 0 -12.5 3.5t-2.5 14.5 z" />
<glyph unicode="&#xba;" horiz-adv-x="848" d="M63 875q0 70 12 133t39.5 120.5t68.5 99.5t103.5 67t139.5 25q78 0 140.5 -25t103.5 -67t68 -99.5t39 -120.5t12 -133t-12 -133.5t-39.5 -122t-68.5 -101.5t-103.5 -68.5t-139.5 -25.5q-78 0 -140.5 25.5t-103.5 68t-68.5 101.5t-39 122.5t-11.5 133.5zM229 868 q0 -87 18.5 -154.5t64.5 -112t114 -44.5t114.5 44.5t66 112.5t19.5 155q0 135 -50 227t-150 92q-67 0 -113 -46.5t-65 -116t-19 -157.5z" />
<glyph unicode="&#xbb;" horiz-adv-x="835" d="M76 110q-8 8 -7 12t13 21l238 334l-238 340q-10 13 -10.5 17t6.5 9l77 60q10 5 13 3t11 -14l301 -399q10 -14 9.5 -20.5t-11.5 -20.5l-297 -387q-9 -12 -14 -14.5t-14 3.5zM372 110q-9 7 -8 11.5t14 21.5l238 334l-240 340q-9 14 -9.5 17t5.5 9l79 60q10 5 13 3t11 -14 l301 -399q10 -15 10 -21t-11 -20l-298 -387q-9 -12 -14 -14.5t-14 3.5z" />
<glyph unicode="&#xbf;" horiz-adv-x="798" d="M52 -93q0 79 17 134t44 83t59.5 48t65.5 39t60 44.5t44 75.5t17 123v125q0 13 4 17t15 4l128 1q15 0 15 -20v-140q0 -92 -17 -156t-44 -97t-59.5 -54.5t-65.5 -38t-60 -37.5t-44 -62.5t-17 -103.5q0 -160 188 -160q103 0 184 28l19 214q2 14 4.5 17t16.5 3h83 q14 0 18.5 -4t4.5 -24l2 -277q0 -21 -5 -29.5t-22 -18.5q-37 -20 -119.5 -35.5t-194.5 -15.5q-62 0 -110.5 8t-93 29t-73.5 56t-46.5 91.5t-17.5 132.5zM346 778q0 45 27.5 75.5t67.5 30.5t68.5 -31t28.5 -75q0 -49 -28 -77.5t-69 -28.5q-42 0 -68.5 28.5t-26.5 77.5z" />
<glyph unicode="&#xc0;" d="M24 22v60q0 26 15 26q72 5 95 17t26 48v106q0 234 23.5 422.5t71 329t124 217t178.5 76.5q139 0 234.5 -126.5t141.5 -358.5t46 -560v-80q0 -57 16 -70.5t89 -16.5q11 -1 15.5 -5t5.5 -9.5t1 -19.5v-52q0 -16 -3.5 -21t-17.5 -5h-404q-12 0 -14 3t-2 19v60q0 16 2 20.5 t13 5.5q71 4 93.5 17t25.5 48v106q0 19 -1 56t-1 56h-495q-2 -37 -2 -112v-80q0 -57 15.5 -70.5t86.5 -16.5q11 -1 15.5 -5t5.5 -9.5t1 -19.5v-52v-13t-1.5 -7t-5.5 -5t-11 -1h-363q-13 0 -16 3.5t-3 18.5zM307 534h484q-18 301 -81 472t-161 171q-97 0 -160.5 -172 t-81.5 -471zM335 1594q-7 7 -9 13.5t2 10.5t13 4h128q17 0 26 -6t19 -22l126 -196q18 -33 -11 -33h-67q-26 0 -54 31z" />
<glyph unicode="&#xc1;" d="M24 22v60q0 26 15 26q72 5 95 17t26 48v106q0 234 23.5 422.5t71 329t124 217t178.5 76.5q139 0 234.5 -126.5t141.5 -358.5t46 -560v-80q0 -57 16 -70.5t89 -16.5q11 -1 15.5 -5t5.5 -9.5t1 -19.5v-52q0 -16 -3.5 -21t-17.5 -5h-404q-12 0 -14 3t-2 19v60q0 16 2 20.5 t13 5.5q71 4 93.5 17t25.5 48v106q0 19 -1 56t-1 56h-495q-2 -37 -2 -112v-80q0 -57 15.5 -70.5t86.5 -16.5q11 -1 15.5 -5t5.5 -9.5t1 -19.5v-52v-13t-1.5 -7t-5.5 -5t-11 -1h-363q-13 0 -16 3.5t-3 18.5zM307 534h484q-18 301 -81 472t-161 171q-97 0 -160.5 -172 t-81.5 -471zM497 1411l110 172q17 29 45 29h134q9 0 13 -4t1.5 -11.5t-9.5 -15.5l-165 -181q-19 -22 -51 -22h-67q-32 0 -11 33z" />
<glyph unicode="&#xc2;" d="M24 22v60q0 26 15 26q72 5 95 17t26 48v106q0 234 23.5 422.5t71 329t124 217t178.5 76.5q139 0 234.5 -126.5t141.5 -358.5t46 -560v-80q0 -57 16 -70.5t89 -16.5q11 -1 15.5 -5t5.5 -9.5t1 -19.5v-52q0 -16 -3.5 -21t-17.5 -5h-404q-12 0 -14 3t-2 19v60q0 16 2 20.5 t13 5.5q71 4 93.5 17t25.5 48v106q0 19 -1 56t-1 56h-495q-2 -37 -2 -112v-80q0 -57 15.5 -70.5t86.5 -16.5q11 -1 15.5 -5t5.5 -9.5t1 -19.5v-52v-13t-1.5 -7t-5.5 -5t-11 -1h-363q-13 0 -16 3.5t-3 18.5zM307 534h484q-18 301 -81 472t-161 171q-97 0 -160.5 -172 t-81.5 -471zM337 1381q-7 15 9 34l132 166q15 20 49 20h59q32 0 47 -20l134 -168q10 -12 10.5 -21t-6.5 -22q-4 -9 -10 -9.5t-16 6.5l-190 122l-186 -122q-7 -4 -12 -5t-8.5 2.5t-5.5 6t-6 10.5z" />
<glyph unicode="&#xc3;" d="M24 22v60q0 26 15 26q72 5 95 17t26 48v106q0 234 23.5 422.5t71 329t124 217t178.5 76.5q139 0 234.5 -126.5t141.5 -358.5t46 -560v-80q0 -57 16 -70.5t89 -16.5q11 -1 15.5 -5t5.5 -9.5t1 -19.5v-52q0 -16 -3.5 -21t-17.5 -5h-404q-12 0 -14 3t-2 19v60q0 16 2 20.5 t13 5.5q71 4 93.5 17t25.5 48v106q0 19 -1 56t-1 56h-495q-2 -37 -2 -112v-80q0 -57 15.5 -70.5t86.5 -16.5q11 -1 15.5 -5t5.5 -9.5t1 -19.5v-52v-13t-1.5 -7t-5.5 -5t-11 -1h-363q-13 0 -16 3.5t-3 18.5zM307 534h484q-18 301 -81 472t-161 171q-97 0 -160.5 -172 t-81.5 -471zM378 1441q20 49 52 81.5t71 32.5q38 0 84.5 -32t67.5 -32q25 0 41 41q6 16 17 11l49 -24q9 -4 10 -9.5t-3 -16.5q-47 -117 -121 -117q-31 0 -60.5 16t-52.5 31.5t-38 15.5q-14 0 -22.5 -9t-20.5 -34q-8 -12 -20 -7l-43 24q-19 9 -11 28z" />
<glyph unicode="&#xc4;" d="M24 22v60q0 26 15 26q72 5 95 17t26 48v106q0 234 23.5 422.5t71 329t124 217t178.5 76.5q139 0 234.5 -126.5t141.5 -358.5t46 -560v-80q0 -57 16 -70.5t89 -16.5q11 -1 15.5 -5t5.5 -9.5t1 -19.5v-52q0 -16 -3.5 -21t-17.5 -5h-404q-12 0 -14 3t-2 19v60q0 16 2 20.5 t13 5.5q71 4 93.5 17t25.5 48v106q0 19 -1 56t-1 56h-495q-2 -37 -2 -112v-80q0 -57 15.5 -70.5t86.5 -16.5q11 -1 15.5 -5t5.5 -9.5t1 -19.5v-52v-13t-1.5 -7t-5.5 -5t-11 -1h-363q-13 0 -16 3.5t-3 18.5zM307 534h484q-18 301 -81 472t-161 171q-97 0 -160.5 -172 t-81.5 -471zM331 1463q0 36 23.5 62t58.5 26q37 0 61.5 -26t24.5 -62q0 -38 -24.5 -63.5t-61.5 -25.5q-36 0 -59 25.5t-23 63.5zM613 1463q0 36 23.5 62t61.5 26q35 0 59.5 -26t24.5 -62q0 -38 -24 -63.5t-60 -25.5q-39 0 -62 25t-23 64z" />
<glyph unicode="&#xc5;" d="M24 22v60q0 26 15 26q72 5 95 17t26 48v106q0 234 23.5 422.5t71 329t124 217t178.5 76.5q139 0 234.5 -126.5t141.5 -358.5t46 -560v-80q0 -57 16 -70.5t89 -16.5q11 -1 15.5 -5t5.5 -9.5t1 -19.5v-52q0 -16 -3.5 -21t-17.5 -5h-404q-12 0 -14 3t-2 19v60q0 16 2 20.5 t13 5.5q71 4 93.5 17t25.5 48v106q0 19 -1 56t-1 56h-495q-2 -37 -2 -112v-80q0 -57 15.5 -70.5t86.5 -16.5q11 -1 15.5 -5t5.5 -9.5t1 -19.5v-52v-13t-1.5 -7t-5.5 -5t-11 -1h-363q-13 0 -16 3.5t-3 18.5zM307 534h484q-18 301 -81 472t-161 171q-97 0 -160.5 -172 t-81.5 -471zM361 1501q0 58 44.5 96t149.5 38t149 -38t44 -96q0 -59 -44 -97.5t-149 -38.5t-149.5 38.5t-44.5 97.5zM480 1501q0 -27 17 -47t58 -20q38 0 56 20t18 47q0 25 -18 44t-56 19q-41 0 -58 -18.5t-17 -44.5z" />
<glyph unicode="&#xc6;" horiz-adv-x="1550" d="M24 22v60q0 26 15 26q72 5 95 17t26 48v106q0 234 23.5 422.5t71 329t124 217t178.5 76.5q153 0 253 -153v112q0 13 4 16.5t15 3.5h597q9 0 12 -1t5 -5t2 -14v-302q0 -35 -19 -35h-72q-9 0 -13.5 3t-5.5 6t-4 15l-11 145q-4 23 -6 31.5t-7.5 15.5t-16.5 7l-313 -2v-439 h229q12 0 16.5 -3.5t4.5 -17.5v-89q0 -18 -4 -24t-18 -6h-228v-191q0 -18 1 -58t1 -60v-80q0 -49 10 -63l324 -2q15 0 19.5 10t9.5 44l12 145q1 2 2 6l1.5 6t2 5t3.5 4t5 2t8 1h72q19 0 19 -35v-302q0 -14 -3.5 -17t-15.5 -3h-767q-12 0 -14 3t-2 19v60q0 16 2 20.5t13 5.5 q71 4 93.5 17t25.5 48v106q0 19 -1 56t-1 56h-495q-2 -37 -2 -112v-80q0 -57 15.5 -70.5t86.5 -16.5q11 -1 15.5 -5t5.5 -9.5t1 -19.5v-52v-13t-1.5 -7t-5.5 -5t-11 -1h-363q-13 0 -16 3.5t-3 18.5zM307 534h484q-18 301 -81 472t-161 171q-97 0 -160.5 -172t-81.5 -471z " />
<glyph unicode="&#xc7;" horiz-adv-x="1020" d="M82 642q0 338 132.5 509t383.5 171q94 0 178.5 -12t130.5 -29q16 -7 20 -16t4 -36v-320q0 -15 -3.5 -19t-13.5 -4h-95q-11 0 -14.5 3.5t-5.5 15.5l-26 255q-69 24 -170 24q-157 0 -251.5 -136.5t-94.5 -408.5q0 -138 28 -238.5t80 -158t117 -84t147 -26.5q113 0 307 43 q23 6 23 -22v-79q0 -20 -6 -29.5t-24 -14.5q-148 -40 -298 -45l-18 -59q121 -5 121 -129q0 -82 -49 -120t-123 -38q-64 0 -123 24q-11 3 -14 9t3 23l11 24q5 12 10 14.5t13 -1.5q33 -15 76 -15q71 0 71 78q0 65 -93 65q-3 0 -9 -0.5t-7.5 -0.5t-4.5 1.5t-3 4t1 7.5t4 13 l37 104q-227 17 -339.5 175t-112.5 478z" />
<glyph unicode="&#xc8;" horiz-adv-x="908" d="M76 339q0 72 14.5 128t36.5 90.5t54.5 60t60.5 37.5t63 21q-180 46 -180 314q0 96 27 163t77.5 102.5t111.5 51t141 15.5q171 0 296 -47q5 -2 9 -4t6.5 -3.5t4.5 -4.5t2.5 -5t1 -6.5t0.5 -6.5v-9v-11v-266q0 -16 -2.5 -19.5t-13.5 -3.5h-79q-9 0 -12 3.5t-6 15.5l-26 205 q-68 22 -170 22q-46 0 -80 -8.5t-64 -29.5t-46 -62.5t-16 -102.5q0 -127 59.5 -179t171.5 -52h98q21 0 21 -26v-85q0 -26 -21 -26h-98q-255 0 -255 -252q0 -124 64.5 -177.5t199.5 -53.5q66 0 136.5 10t120.5 21.5t56 11.5q9 3 12 -1t3 -17v-105q0 -12 -4.5 -16.5 t-18.5 -9.5q-145 -41 -361 -41q-67 0 -121 9t-107 33t-88.5 63t-57 103.5t-21.5 149.5zM261 1594q-7 7 -9.5 13.5t1.5 10.5t13 4h129q16 0 25 -5.5t19 -22.5l127 -196q18 -33 -11 -33h-67q-26 0 -54 31z" />
<glyph unicode="&#xc9;" horiz-adv-x="908" d="M76 339q0 72 14.5 128t36.5 90.5t54.5 60t60.5 37.5t63 21q-180 46 -180 314q0 96 27 163t77.5 102.5t111.5 51t141 15.5q171 0 296 -47q5 -2 9 -4t6.5 -3.5t4.5 -4.5t2.5 -5t1 -6.5t0.5 -6.5v-9v-11v-266q0 -16 -2.5 -19.5t-13.5 -3.5h-79q-9 0 -12 3.5t-6 15.5l-26 205 q-68 22 -170 22q-46 0 -80 -8.5t-64 -29.5t-46 -62.5t-16 -102.5q0 -127 59.5 -179t171.5 -52h98q21 0 21 -26v-85q0 -26 -21 -26h-98q-255 0 -255 -252q0 -124 64.5 -177.5t199.5 -53.5q66 0 136.5 10t120.5 21.5t56 11.5q9 3 12 -1t3 -17v-105q0 -12 -4.5 -16.5 t-18.5 -9.5q-145 -41 -361 -41q-67 0 -121 9t-107 33t-88.5 63t-57 103.5t-21.5 149.5zM424 1411l110 172q17 29 45 29h134q14 0 15.5 -9t-9.5 -22l-166 -181q-19 -22 -50 -22h-67q-33 0 -12 33z" />
<glyph unicode="&#xca;" horiz-adv-x="908" d="M76 339q0 72 14.5 128t36.5 90.5t54.5 60t60.5 37.5t63 21q-180 46 -180 314q0 96 27 163t77.5 102.5t111.5 51t141 15.5q171 0 296 -47q5 -2 9 -4t6.5 -3.5t4.5 -4.5t2.5 -5t1 -6.5t0.5 -6.5v-9v-11v-266q0 -16 -2.5 -19.5t-13.5 -3.5h-79q-9 0 -12 3.5t-6 15.5l-26 205 q-68 22 -170 22q-46 0 -80 -8.5t-64 -29.5t-46 -62.5t-16 -102.5q0 -127 59.5 -179t171.5 -52h98q21 0 21 -26v-85q0 -26 -21 -26h-98q-255 0 -255 -252q0 -124 64.5 -177.5t199.5 -53.5q66 0 136.5 10t120.5 21.5t56 11.5q9 3 12 -1t3 -17v-105q0 -12 -4.5 -16.5 t-18.5 -9.5q-145 -41 -361 -41q-67 0 -121 9t-107 33t-88.5 63t-57 103.5t-21.5 149.5zM263 1381q-7 15 9 34l132 166q15 20 48 20h60q32 0 47 -20l134 -168q10 -12 10.5 -21t-7.5 -22q-4 -9 -10 -9.5t-16 6.5l-190 122l-186 -122q-15 -6 -20 -3t-11 17z" />
<glyph unicode="&#xcb;" horiz-adv-x="908" d="M76 339q0 72 14.5 128t36.5 90.5t54.5 60t60.5 37.5t63 21q-180 46 -180 314q0 96 27 163t77.5 102.5t111.5 51t141 15.5q171 0 296 -47q5 -2 9 -4t6.5 -3.5t4.5 -4.5t2.5 -5t1 -6.5t0.5 -6.5v-9v-11v-266q0 -16 -2.5 -19.5t-13.5 -3.5h-79q-9 0 -12 3.5t-6 15.5l-26 205 q-68 22 -170 22q-46 0 -80 -8.5t-64 -29.5t-46 -62.5t-16 -102.5q0 -127 59.5 -179t171.5 -52h98q21 0 21 -26v-85q0 -26 -21 -26h-98q-255 0 -255 -252q0 -124 64.5 -177.5t199.5 -53.5q66 0 136.5 10t120.5 21.5t56 11.5q9 3 12 -1t3 -17v-105q0 -12 -4.5 -16.5 t-18.5 -9.5q-145 -41 -361 -41q-67 0 -121 9t-107 33t-88.5 63t-57 103.5t-21.5 149.5zM257 1463q0 36 23.5 62t58.5 26q37 0 61 -26t24 -62q0 -38 -24 -63.5t-61 -25.5q-36 0 -59 25.5t-23 63.5zM538 1463q0 36 24 62t62 26q35 0 59 -26t24 -62q0 -38 -23.5 -63.5 t-59.5 -25.5q-40 0 -63 25t-23 64z" />
<glyph unicode="&#xcc;" horiz-adv-x="579" d="M67 1594q-7 7 -9 13.5t2 10.5t13 4h128q17 0 26 -6t19 -22l126 -196q18 -33 -11 -33h-67q-26 0 -54 31zM71 22v60q0 10 0.5 14t4 7.5t10.5 4.5q80 5 100.5 20.5t20.5 70.5v927q-3 41 -21 52t-84 14q-16 1 -19 6.5t-3 24.5v54q0 16 3.5 21t17.5 5h391q12 0 14 -3.5 t2 -18.5v-62q0 -14 -2 -18.5t-13 -7.5q-76 -5 -97 -17t-22 -57v-961q4 -28 24 -36t80 -10q16 -1 19.5 -7.5t3.5 -26.5v-52q0 -16 -3.5 -21t-17.5 -5h-391q-12 0 -15 3.5t-3 18.5z" />
<glyph unicode="&#xcd;" horiz-adv-x="580" d="M71 22v60q0 10 0.5 14t4 7.5t10.5 4.5q79 5 99 20t20 71v30h2v894q-1 44 -19 55t-86 14q-16 1 -19 6.5t-3 24.5v54q0 16 3.5 21t15.5 5h393q11 0 13.5 -3.5t2.5 -18.5v-62q0 -14 -2 -18.5t-13 -7.5q-80 -5 -100.5 -19.5t-20.5 -69.5v-901q0 -60 15.5 -74t89.5 -17 q11 -1 15.5 -5t5.5 -9.5t1 -19.5v-52q0 -16 -3.5 -21t-17.5 -5h-389q-12 0 -15 3.5t-3 18.5zM229 1411l110 172q17 29 45 29h134q9 0 13 -4t1.5 -11.5t-9.5 -15.5l-166 -181q-19 -22 -50 -22h-67q-32 0 -11 33z" />
<glyph unicode="&#xce;" horiz-adv-x="579" d="M71 22v60q0 10 0.5 14t4 7.5t10.5 4.5q80 5 100.5 20.5t20.5 70.5v927q-3 41 -21 52t-84 14q-16 1 -19 6.5t-3 24.5v54q0 16 3.5 21t17.5 5h391q12 0 14 -3.5t2 -18.5v-62q0 -14 -2 -18.5t-13 -7.5q-76 -5 -97 -17t-22 -57v-961q4 -28 24 -36t80 -10q16 -1 19.5 -7.5 t3.5 -26.5v-52q0 -16 -3.5 -21t-17.5 -5h-391q-12 0 -15 3.5t-3 18.5zM73 1381q-7 15 9 34l132 166q15 20 49 20h59q32 0 47 -20l134 -168q10 -12 10.5 -21t-7.5 -22q-4 -9 -10 -9.5t-16 6.5l-190 122l-186 -122q-15 -6 -20 -3t-11 17z" />
<glyph unicode="&#xcf;" horiz-adv-x="579" d="M65 1463q0 36 23.5 62t58.5 26q37 0 61.5 -26t24.5 -62q0 -38 -24.5 -63.5t-61.5 -25.5q-36 0 -59 25.5t-23 63.5zM71 22v60q0 10 0.5 14t4 7.5t10.5 4.5q80 5 100.5 20.5t20.5 70.5v927q-3 41 -21 52t-84 14q-16 1 -19 6.5t-3 24.5v54q0 16 3.5 21t17.5 5h391 q12 0 14 -3.5t2 -18.5v-62q0 -14 -2 -18.5t-13 -7.5q-76 -5 -97 -17t-22 -57v-961q4 -28 24 -36t80 -10q16 -1 19.5 -7.5t3.5 -26.5v-52q0 -16 -3.5 -21t-17.5 -5h-391q-12 0 -15 3.5t-3 18.5zM346 1463q0 36 24 62t62 26q35 0 59.5 -26t24.5 -62q0 -38 -24 -63.5t-60 -25.5 q-40 0 -63 25t-23 64z" />
<glyph unicode="&#xd0;" horiz-adv-x="1171" d="M71 635v87q0 19 15 19h124v385q0 38 -21.5 50t-97.5 17q-7 1 -10.5 4t-4 7t-0.5 14v65q0 14 2.5 17t14.5 3h415q157 0 270 -44.5t180.5 -130.5t99 -204t31.5 -274q0 -331 -134.5 -490.5t-436.5 -159.5h-425q-11 0 -14 4t-3 18v60q0 21 4 24q3 1 9 2q73 4 95.5 16.5 t25.5 48.5v441h-122q-10 0 -13.5 4t-3.5 17zM385 134h125q397 0 397 512q0 523 -399 523h-123v-428h213q11 0 11 -15v-91q0 -12 -4.5 -16.5t-14.5 -4.5h-205v-480z" />
<glyph unicode="&#xd1;" horiz-adv-x="1210" d="M71 1219v62q0 14 3.5 18t14.5 4h231q34 0 47 -33l510 -1015v860q0 44 -21 59t-98 19q-11 3 -13 7.5t-2 18.5v62q0 14 3 18t14 4h365q7 0 11 -1t5.5 -5t1.5 -7v-13v-54q0 -24 -5 -28q-4 -2 -15 -3q-69 -3 -87 -16t-18 -63v-1070q0 -43 -24 -43h-100q-33 0 -47 24l-501 985 v-810q0 -56 16 -70t87 -17q11 -1 15.5 -5t5.5 -9.5t1 -19.5v-52q0 -16 -3.5 -21t-15.5 -5h-357q-12 0 -14.5 3.5t-2.5 18.5v60q0 14 4 19t15 7q73 5 90.5 19.5t17.5 69.5v931q0 38 -22.5 49t-96.5 16q-11 3 -13 7.5t-2 18.5zM413 1441q20 49 52 81.5t71 32.5q38 0 85 -32 t68 -32q25 0 41 41q6 16 17 11l48 -24q9 -4 10 -9.5t-3 -16.5q-47 -117 -121 -117q-31 0 -60.5 16t-52 31.5t-37.5 15.5q-14 0 -22.5 -9t-20.5 -34q-8 -13 -21 -7l-43 24q-19 9 -11 28z" />
<glyph unicode="&#xd2;" horiz-adv-x="1206" d="M78 652q0 146 32.5 267.5t96 212t165 140.5t231.5 50t231.5 -50t165 -140.5t96 -212t32.5 -267.5q0 -198 -56 -346.5t-176 -236.5t-293 -88t-293 88t-176 236.5t-56 346.5zM261 655q0 -246 90.5 -387t251.5 -141t252 141t91 387q0 244 -90.5 382t-252.5 138 q-161 0 -251.5 -138t-90.5 -382zM382 1594q-7 7 -9.5 13.5t1.5 10.5t13 4h129q16 0 25 -5.5t19 -22.5l127 -196q18 -33 -11 -33h-67q-26 0 -54 31z" />
<glyph unicode="&#xd3;" horiz-adv-x="1206" d="M78 652q0 146 32.5 267.5t96 212t165 140.5t231.5 50t231.5 -50t165 -140.5t96 -212t32.5 -267.5q0 -198 -56 -346.5t-176 -236.5t-293 -88t-293 88t-176 236.5t-56 346.5zM261 655q0 -246 90.5 -387t251.5 -141t252 141t91 387q0 244 -90.5 382t-252.5 138 q-161 0 -251.5 -138t-90.5 -382zM544 1411l109 172q17 29 45 29h134q14 0 15.5 -9t-9.5 -22l-166 -181q-19 -22 -50 -22h-67q-32 0 -11 33z" />
<glyph unicode="&#xd4;" horiz-adv-x="1206" d="M78 652q0 146 32.5 267.5t96 212t165 140.5t231.5 50t231.5 -50t165 -140.5t96 -212t32.5 -267.5q0 -198 -56 -346.5t-176 -236.5t-293 -88t-293 88t-176 236.5t-56 346.5zM261 655q0 -246 90.5 -387t251.5 -141t252 141t91 387q0 244 -90.5 382t-252.5 138 q-161 0 -251.5 -138t-90.5 -382zM384 1381q-7 15 9 34l132 166q15 20 48 20h60q32 0 47 -20l134 -168q10 -12 10.5 -21t-7.5 -22q-4 -9 -10 -9.5t-16 6.5l-190 122l-186 -122q-15 -6 -20 -3t-11 17z" />
<glyph unicode="&#xd5;" horiz-adv-x="1206" d="M78 652q0 146 32.5 267.5t96 212t165 140.5t231.5 50t231.5 -50t165 -140.5t96 -212t32.5 -267.5q0 -198 -56 -346.5t-176 -236.5t-293 -88t-293 88t-176 236.5t-56 346.5zM261 655q0 -246 90.5 -387t251.5 -141t252 141t91 387q0 244 -90.5 382t-252.5 138 q-161 0 -251.5 -138t-90.5 -382zM426 1441q20 49 52 81.5t71 32.5q38 0 85 -32t68 -32q25 0 41 41q6 16 17 11l48 -24q9 -4 10 -9.5t-3 -16.5q-47 -117 -121 -117q-31 0 -60.5 16t-52 31.5t-37.5 15.5q-14 0 -22.5 -9t-20.5 -34q-8 -13 -21 -7l-42 24q-20 9 -12 28z" />
<glyph unicode="&#xd6;" horiz-adv-x="1206" d="M78 652q0 146 32.5 267.5t96 212t165 140.5t231.5 50t231.5 -50t165 -140.5t96 -212t32.5 -267.5q0 -198 -56 -346.5t-176 -236.5t-293 -88t-293 88t-176 236.5t-56 346.5zM261 655q0 -246 90.5 -387t251.5 -141t252 141t91 387q0 244 -90.5 382t-252.5 138 q-161 0 -251.5 -138t-90.5 -382zM378 1463q0 36 23.5 62t58.5 26q37 0 61.5 -26t24.5 -62q0 -38 -24.5 -63.5t-61.5 -25.5q-36 0 -59 25.5t-23 63.5zM659 1463q0 36 24 62t62 26q35 0 59.5 -26t24.5 -62q0 -38 -24 -63.5t-60 -25.5q-40 0 -63 25t-23 64z" />
<glyph unicode="&#xd7;" horiz-adv-x="768" d="M76 745l79 95l227 -268l201 275l87 -87l-203 -276l226 -270l-79 -95l-225 266l-203 -275l-85 87l202 278z" />
<glyph unicode="&#xd8;" horiz-adv-x="1206" d="M78 652q0 146 32.5 267.5t96 212t165 140.5t231.5 50q64 0 132 -15l23 63q9 19 18 19h144q23 0 15 -22l-43 -129q116 -82 176 -235t60 -351t-56 -346.5t-176 -236.5t-293 -88q-54 0 -126 13l-30 -93q-3 -7 -7 -10.5t-8 -4t-13 -0.5h-143q-14 0 -8 17l52 158 q-120 81 -181 234.5t-61 356.5zM261 655q0 -284 117 -424l311 933q-44 11 -86 11q-161 0 -251.5 -138t-90.5 -382zM525 136q31 -9 78 -9q161 0 252 141t91 387q0 270 -112 410z" />
<glyph unicode="&#xd9;" horiz-adv-x="1172" d="M54 1223v54q0 16 3.5 21t15.5 5h404q12 0 15 -3.5t3 -18.5v-62q0 -15 -2 -19t-13 -7q-73 -5 -96.5 -17t-24.5 -48v-659q0 -164 65.5 -253t186.5 -89q119 0 184 89.5t65 252.5v654q-3 44 -20.5 55t-83.5 14q-16 1 -19 6.5t-3 24.5v54q0 9 0.5 12.5t2 7.5t5.5 5t12 1h356 q12 0 14 -3.5t2 -18.5v-62q0 -12 -2.5 -17.5t-4.5 -6t-7 -0.5q-76 -7 -98 -21t-22 -59v-646q0 -145 -41 -252.5t-132 -171.5t-225 -64q-205 0 -310 125.5t-105 362.5v633q0 59 -16 73t-87 17q-16 1 -19 6.5t-3 24.5zM389 1594q-7 7 -9 13.5t2 10.5t13 4h128q17 0 26 -6 t19 -22l126 -196q18 -33 -11 -33h-67q-26 0 -54 31z" />
<glyph unicode="&#xda;" horiz-adv-x="1172" d="M54 1223v54q0 16 3.5 21t15.5 5h404q12 0 15 -3.5t3 -18.5v-62q0 -15 -2 -19t-13 -7q-73 -5 -96.5 -17t-24.5 -48v-659q0 -164 65.5 -253t186.5 -89q119 0 184 89.5t65 252.5v654q-3 44 -20.5 55t-83.5 14q-16 1 -19 6.5t-3 24.5v54q0 9 0.5 12.5t2 7.5t5.5 5t12 1h356 q12 0 14 -3.5t2 -18.5v-62q0 -12 -2.5 -17.5t-4.5 -6t-7 -0.5q-76 -7 -98 -21t-22 -59v-646q0 -145 -41 -252.5t-132 -171.5t-225 -64q-205 0 -310 125.5t-105 362.5v633q0 59 -16 73t-87 17q-16 1 -19 6.5t-3 24.5zM551 1411l110 172q17 29 45 29h134q9 0 13 -4t1.5 -11.5 t-9.5 -15.5l-165 -181q-19 -22 -51 -22h-67q-32 0 -11 33z" />
<glyph unicode="&#xdb;" horiz-adv-x="1172" d="M54 1223v54q0 16 3.5 21t15.5 5h404q12 0 15 -3.5t3 -18.5v-62q0 -15 -2 -19t-13 -7q-73 -5 -96.5 -17t-24.5 -48v-659q0 -164 65.5 -253t186.5 -89q119 0 184 89.5t65 252.5v654q-3 44 -20.5 55t-83.5 14q-16 1 -19 6.5t-3 24.5v54q0 9 0.5 12.5t2 7.5t5.5 5t12 1h356 q12 0 14 -3.5t2 -18.5v-62q0 -12 -2.5 -17.5t-4.5 -6t-7 -0.5q-76 -7 -98 -21t-22 -59v-646q0 -145 -41 -252.5t-132 -171.5t-225 -64q-205 0 -310 125.5t-105 362.5v633q0 59 -16 73t-87 17q-16 1 -19 6.5t-3 24.5zM389 1381q-7 15 9 34l133 166q15 20 48 20h60 q31 0 46 -20l134 -168q10 -13 11 -21t-7 -22q-4 -9 -10 -9.5t-16 6.5l-190 122l-186 -122q-7 -4 -12 -5t-8.5 2.5t-5.5 6t-6 10.5z" />
<glyph unicode="&#xdc;" horiz-adv-x="1172" d="M54 1223v54q0 16 3.5 21t15.5 5h404q12 0 15 -3.5t3 -18.5v-62q0 -15 -2 -19t-13 -7q-73 -5 -96.5 -17t-24.5 -48v-659q0 -164 65.5 -253t186.5 -89q119 0 184 89.5t65 252.5v654q-3 44 -20.5 55t-83.5 14q-16 1 -19 6.5t-3 24.5v54q0 9 0.5 12.5t2 7.5t5.5 5t12 1h356 q12 0 14 -3.5t2 -18.5v-62q0 -12 -2.5 -17.5t-4.5 -6t-7 -0.5q-76 -7 -98 -21t-22 -59v-646q0 -145 -41 -252.5t-132 -171.5t-225 -64q-205 0 -310 125.5t-105 362.5v633q0 59 -16 73t-87 17q-16 1 -19 6.5t-3 24.5zM385 1463q0 36 23.5 62t58.5 26q37 0 61.5 -26t24.5 -62 q0 -38 -24.5 -63.5t-61.5 -25.5q-36 0 -59 25.5t-23 63.5zM667 1463q0 36 23.5 62t61.5 26q35 0 59.5 -26t24.5 -62q0 -38 -24 -63.5t-60 -25.5q-39 0 -62 25t-23 64z" />
<glyph unicode="&#xdd;" horiz-adv-x="1035" d="M26 1216v67q0 12 3.5 16t13.5 4h376q11 0 14 -4t3 -16v-65q0 -14 -3.5 -19.5t-15.5 -6.5q-39 -1 -59.5 -4t-29 -9t-8.5 -17q0 -144 55 -272.5t150 -275.5q48 69 80.5 122.5t68 126t53.5 148t18 151.5q0 16 -20 22t-79 8q-11 1 -15 7t-4 19v65q0 12 3 16t14 4h350 q10 0 13.5 -4t3.5 -16v-67q0 -23 -15 -23q-64 -5 -86.5 -12.5t-26.5 -28.5q-23 -313 -280 -660v-263h2v-26q0 -61 14.5 -74.5t87.5 -16.5q16 -1 19.5 -7.5t3.5 -26.5v-52q0 -16 -3.5 -21t-15.5 -5h-391q-12 0 -15 3.5t-3 18.5v60q0 10 0.5 14t4 7.5t10.5 4.5q79 5 99 20 t20 71v270q-272 367 -283 683q-2 17 -26.5 26.5t-85.5 14.5q-7 1 -10.5 4t-4 6.5t-0.5 12.5zM477 1411l109 172q17 29 45 29h134q14 0 15.5 -9t-9.5 -22l-166 -181q-19 -22 -50 -22h-67q-32 0 -11 33z" />
<glyph unicode="&#xde;" horiz-adv-x="927" d="M69 22v60q0 10 0.5 14t4 7.5t10.5 4.5q80 5 100.5 20.5t20.5 70.5v901q0 60 -16 74.5t-88 17.5q-16 1 -19.5 6.5t-3.5 24.5v54q0 16 3.5 21t15.5 5h393q11 0 13.5 -3.5t2.5 -18.5v-62q0 -11 -0.5 -14t-3.5 -6.5t-10 -5.5q-80 -5 -100.5 -19.5t-20.5 -69.5v-67h83 q100 0 174.5 -20.5t119 -54t72 -84.5t37 -103t9.5 -118q0 -201 -92.5 -313.5t-289.5 -112.5q-65 0 -113 11v-61q1 -44 19 -55t87 -14q11 -1 15.5 -5t5.5 -9.5t1 -19.5v-52q0 -16 -3.5 -21t-17.5 -5h-390q-13 0 -16 4t-3 18zM371 382q19 -13 102 -13q104 0 161 73.5t57 207.5 q0 115 -49.5 187.5t-157.5 72.5h-113v-528z" />
<glyph unicode="&#xdf;" horiz-adv-x="955" d="M121 26v946q0 179 89 264.5t248 85.5q68 0 125 -16t104.5 -49.5t74 -93t26.5 -139.5q0 -62 -13 -112.5t-41 -91.5t-50.5 -65.5t-61.5 -61.5q136 -53 204 -134.5t68 -214.5q0 -164 -105 -254t-301 -90h-34q-18 0 -18 17v89q0 14 4.5 18t17.5 4h39q96 0 161.5 55t65.5 161 q0 34 -6.5 63t-22.5 52t-29.5 39.5t-40.5 34t-41 26t-46.5 25t-42.5 21.5q-23 13 -35 20.5t-24 23.5t-12 34q0 40 60 88q30 25 47 41.5t40.5 47.5t35 70.5t11.5 86.5q0 94 -43 134.5t-111 40.5q-85 0 -133 -54t-48 -166v-948q0 -15 -3.5 -19.5t-16.5 -4.5h-118 q-15 0 -19.5 5t-4.5 21z" />
<glyph unicode="&#xe0;" horiz-adv-x="863" d="M63 209q0 81 27 133t70 74t95 32.5t104 16t95 17t70 43.5t27 88q0 71 -41.5 111.5t-129.5 40.5q-69 0 -127 -28l-18 -180q0 -17 -15 -17h-79q-6 0 -8.5 0.5t-4 4t-1.5 5v9.5v223q0 25 4 36t16 18q29 18 97 33t145 15q175 0 253.5 -82.5t78.5 -241.5v-309q0 -81 14 -108.5 t40 -27.5q37 0 37 45q0 12 1 17.5t6.5 10t16.5 4.5h26q17 0 21.5 -6.5t4.5 -25.5q0 -169 -153 -169q-137 0 -167 139q-75 -143 -276 -143q-116 0 -172.5 53t-56.5 169zM210 1255q-7 7 -9 13.5t2 10.5t13 4h128q17 0 26 -6t19 -22l127 -196q18 -33 -11 -33h-67q-25 0 -54 32z M229 210q0 -111 101 -111q91 0 154.5 76.5t70.5 172.5l4 97q-20 -42 -62 -62.5t-86 -26t-86 -14.5t-69 -40.5t-27 -91.5z" />
<glyph unicode="&#xe1;" horiz-adv-x="964" d="M67 436q0 202 78 325t235 123q170 0 238 -126v63q0 45 34 45h52q14 0 36.5 -3t63 -9.5t77.5 -10.5q12 0 16 -5.5t4 -20.5v-57q0 -15 -2.5 -20t-12.5 -6l-74 -2q-39 -4 -39 -60v-421q0 -80 13.5 -108t38.5 -28q39 0 39 45q0 20 3.5 26t20.5 6h26q18 0 22 -5.5t4 -26.5 q0 -169 -154 -169q-133 0 -166 137q-68 -139 -246 -139q-151 0 -229 123.5t-78 323.5zM235 438q0 -85 18.5 -154.5t62.5 -116t108 -46.5q93 0 141.5 85.5t48.5 232.5q0 144 -47.5 230.5t-140.5 86.5q-94 0 -142.5 -91t-48.5 -227zM408 1072l110 172q10 17 19 23t25 6h134 q14 0 15.5 -9t-9.5 -22l-166 -181q-19 -22 -50 -22h-67q-32 0 -11 33z" />
<glyph unicode="&#xe2;" horiz-adv-x="863" d="M63 209q0 81 27 133t70 74t95 32.5t104 16t95 17t70 43.5t27 88q0 71 -41.5 111.5t-129.5 40.5q-69 0 -127 -28l-18 -180q0 -17 -15 -17h-79q-6 0 -8.5 0.5t-4 4t-1.5 5v9.5v223q0 25 4 36t16 18q29 18 97 33t145 15q175 0 253.5 -82.5t78.5 -241.5v-309q0 -81 14 -108.5 t40 -27.5q37 0 37 45q0 12 1 17.5t6.5 10t16.5 4.5h26q17 0 21.5 -6.5t4.5 -25.5q0 -169 -153 -169q-137 0 -167 139q-75 -143 -276 -143q-116 0 -172.5 53t-56.5 169zM212 1043q-6 13 10 33l132 166q15 20 48 20h60q31 0 46 -20l134 -168q10 -13 10.5 -21t-6.5 -22 q-7 -16 -26 -3l-190 123l-186 -123q-16 -6 -20.5 -3t-11.5 18zM229 210q0 -58 25.5 -84.5t75.5 -26.5q61 0 112.5 38t79.5 94t33 117l4 97q-13 -27 -35 -45.5t-47.5 -26t-54 -14t-56 -9.5t-52.5 -12t-44 -22t-30 -40t-11 -66z" />
<glyph unicode="&#xe3;" horiz-adv-x="863" d="M63 209q0 81 27 133t70 74t95 32.5t104 16t95 17t70 43.5t27 88q0 71 -41.5 111.5t-129.5 40.5q-69 0 -127 -28l-18 -180q0 -17 -15 -17h-79q-6 0 -8.5 0.5t-4 4t-1.5 5v9.5v223q0 25 4 36t16 18q29 18 97 33t145 15q175 0 253.5 -82.5t78.5 -241.5v-309q0 -81 14 -108.5 t40 -27.5q37 0 37 45q0 12 1 17.5t6.5 10t16.5 4.5h26q17 0 21.5 -6.5t4.5 -25.5q0 -169 -153 -169q-137 0 -167 139q-75 -143 -276 -143q-116 0 -172.5 53t-56.5 169zM229 210q0 -111 101 -111q91 0 154.5 76.5t70.5 172.5l4 97q-20 -42 -62 -62.5t-86 -26t-86 -14.5 t-69 -40.5t-27 -91.5zM255 1102q20 49 52 81.5t71 32.5q38 0 85 -32t68 -32q25 0 41 41q6 16 16 12l49 -25q9 -4 10 -9.5t-3 -16.5q-47 -117 -121 -117q-31 0 -60.5 15.5t-52.5 31.5t-38 16q-14 0 -22 -8.5t-20 -33.5q-9 -14 -21 -8l-43 24q-19 9 -11 28z" />
<glyph unicode="&#xe4;" horiz-adv-x="863" d="M63 209q0 81 27 133t70 74t95 32.5t104 16t95 17t70 43.5t27 88q0 71 -41.5 111.5t-129.5 40.5q-69 0 -127 -28l-18 -180q0 -17 -15 -17h-79q-6 0 -8.5 0.5t-4 4t-1.5 5v9.5v223q0 25 4 36t16 18q29 18 97 33t145 15q175 0 253.5 -82.5t78.5 -241.5v-309q0 -81 14 -108.5 t40 -27.5q37 0 37 45q0 12 1 17.5t6.5 10t16.5 4.5h26q17 0 21.5 -6.5t4.5 -25.5q0 -169 -153 -169q-137 0 -167 139q-75 -143 -276 -143q-116 0 -172.5 53t-56.5 169zM207 1125q0 36 23.5 61.5t58.5 25.5q37 0 61 -25.5t24 -61.5q0 -38 -24 -64t-61 -26q-36 0 -59 26 t-23 64zM229 210q0 -111 101 -111q91 0 154.5 76.5t70.5 172.5l4 97q-20 -42 -62 -62.5t-86 -26t-86 -14.5t-69 -40.5t-27 -91.5zM488 1125q0 36 23.5 61.5t61.5 25.5q36 0 60 -25.5t24 -61.5q0 -38 -24 -64t-60 -26q-39 0 -62 25.5t-23 64.5z" />
<glyph unicode="&#xe5;" horiz-adv-x="863" d="M63 209q0 81 27 133t70 74t95 32.5t104 16t95 17t70 43.5t27 88q0 71 -41.5 111.5t-129.5 40.5q-69 0 -127 -28l-18 -180q0 -17 -15 -17h-79q-6 0 -8.5 0.5t-4 4t-1.5 5v9.5v223q0 25 4 36t16 18q29 18 97 33t145 15q175 0 253.5 -82.5t78.5 -241.5v-309q0 -81 14 -108.5 t40 -27.5q37 0 37 45q0 12 1 17.5t6.5 10t16.5 4.5h26q17 0 21.5 -6.5t4.5 -25.5q0 -169 -153 -169q-137 0 -167 139q-75 -143 -276 -143q-116 0 -172.5 53t-56.5 169zM229 210q0 -111 101 -111q91 0 154.5 76.5t70.5 172.5l4 97q-20 -42 -62 -62.5t-86 -26t-86 -14.5 t-69 -40.5t-27 -91.5zM238 1162q0 58 44.5 96t149.5 38t149.5 -38t44.5 -96q0 -59 -44.5 -97.5t-149.5 -38.5t-149.5 38.5t-44.5 97.5zM357 1162q0 -27 17 -47t58 -20q38 0 56 20t18 47q0 25 -18 44t-56 19q-41 0 -58 -18.5t-17 -44.5z" />
<glyph unicode="&#xe6;" horiz-adv-x="1282" d="M63 203q0 44 8.5 80t21 60t34.5 43t41.5 30t50 19.5t51.5 12t54 8.5q41 6 63 10t53 14.5t47 25t28 40.5t12 61q0 73 -31.5 110t-123.5 37q-85 0 -132 -24l-13 -153q-1 -12 -5 -15t-13 -3h-75q-11 0 -14 4t-3 16v209q0 24 4 35t17 19q29 17 94 29.5t142 12.5 q196 0 270 -108q88 108 261 108q298 0 298 -270q0 -55 -13 -97.5t-33.5 -71.5t-55 -49.5t-68.5 -31.5t-83.5 -17.5t-89.5 -8t-97 -1.5h-39q16 -123 73.5 -173t153.5 -50q34 0 70.5 7.5t59.5 15t58.5 22t48.5 18.5q11 5 16.5 0.5t5.5 -21.5v-63q0 -21 -4 -29t-18 -17 q-45 -30 -117 -48t-142 -18q-242 0 -329 179q-33 -86 -107.5 -132.5t-187.5 -46.5q-123 0 -182.5 53.5t-59.5 168.5zM229 205q0 -106 93 -106q87 0 150.5 81.5t63.5 180.5v73q-20 -44 -59.5 -63t-98.5 -30q-25 -4 -33.5 -5.5t-29.5 -7t-29 -10.5t-22 -15.5t-19.5 -23 t-10.5 -31.5t-5 -43zM719 447q42 1 64.5 1.5t62 4t62.5 10t52 18.5t45 29t27 43.5t11 60.5q0 71 -37.5 107.5t-96.5 36.5q-187 0 -190 -311z" />
<glyph unicode="&#xe7;" horiz-adv-x="763" d="M65 421q0 227 96.5 345t272.5 118q70 0 130.5 -13.5t92.5 -30.5q14 -7 18.5 -17t4.5 -34v-255q0 -11 -3.5 -14.5t-13.5 -3.5h-77q-14 0 -16 16l-19 196q-43 24 -108 24q-210 0 -210 -328q0 -90 17.5 -151t51.5 -93.5t76.5 -45.5t101.5 -13q78 0 194 34q12 4 17 -3t5 -24 v-72q0 -14 -4.5 -19t-17.5 -11q-89 -32 -192 -35l-20 -65q121 -5 121 -129q0 -82 -49 -120t-123 -38q-63 0 -122 24q-22 7 -12 32l12 24q5 12 9.5 14.5t12.5 -1.5q33 -15 76 -15q71 0 71 78q0 65 -93 65q-3 0 -9 -0.5t-7.5 -0.5t-4.5 1.5t-3 4t1 7.5t4 13l39 108 q-157 13 -238.5 113t-81.5 315z" />
<glyph unicode="&#xe8;" horiz-adv-x="796" d="M67 428q0 456 354 456q298 0 298 -270q0 -55 -13 -97.5t-33.5 -71.5t-55 -49.5t-68.5 -31.5t-83.5 -17.5t-89.5 -8t-97 -1.5h-39q16 -123 73.5 -173t153.5 -50q34 0 70.5 7.5t59.5 15t58.5 22t48.5 18.5q11 5 16.5 0.5t5.5 -21.5v-63q0 -21 -4 -29t-18 -17 q-45 -30 -117 -48t-142 -18q-194 0 -286 110t-92 337zM199 1255q-7 7 -9 13.5t2 10.5t13 4h128q17 0 26 -6t19 -22l127 -196q18 -33 -12 -33h-67q-25 0 -54 32zM235 447q42 1 64.5 1.5t62 4t62.5 10t52 18.5t45 29t27 43.5t11 60.5q0 71 -38 107.5t-97 36.5 q-186 0 -189 -311z" />
<glyph unicode="&#xe9;" horiz-adv-x="796" d="M67 428q0 456 354 456q298 0 298 -270q0 -55 -13 -97.5t-33.5 -71.5t-55 -49.5t-68.5 -31.5t-83.5 -17.5t-89.5 -8t-97 -1.5h-39q16 -123 73.5 -173t153.5 -50q34 0 70.5 7.5t59.5 15t58.5 22t48.5 18.5q11 5 16.5 0.5t5.5 -21.5v-63q0 -21 -4 -29t-18 -17 q-45 -30 -117 -48t-142 -18q-194 0 -286 110t-92 337zM235 447q42 1 64.5 1.5t62 4t62.5 10t52 18.5t45 29t27 43.5t11 60.5q0 71 -38 107.5t-97 36.5q-186 0 -189 -311zM361 1072l110 172q17 29 45 29h134q9 0 13 -4t1.5 -11.5t-9.5 -15.5l-165 -181q-19 -22 -51 -22h-67 q-32 0 -11 33z" />
<glyph unicode="&#xea;" horiz-adv-x="796" d="M67 428q0 456 354 456q298 0 298 -270q0 -55 -13 -97.5t-33.5 -71.5t-55 -49.5t-68.5 -31.5t-83.5 -17.5t-89.5 -8t-97 -1.5h-39q16 -123 73.5 -173t153.5 -50q34 0 70.5 7.5t59.5 15t58.5 22t48.5 18.5q11 5 16.5 0.5t5.5 -21.5v-63q0 -21 -4 -29t-18 -17 q-45 -30 -117 -48t-142 -18q-194 0 -286 110t-92 337zM201 1043q-6 14 9 33l133 166q15 20 48 20h60q31 0 46 -20l134 -168q10 -12 10.5 -20.5t-6.5 -22.5q-7 -16 -26 -3l-190 123l-186 -123q-16 -6 -20.5 -3t-11.5 18zM235 447q42 1 64.5 1.5t62 4t62.5 10t52 18.5t45 29 t27 43.5t11 60.5q0 71 -38 107.5t-97 36.5q-186 0 -189 -311z" />
<glyph unicode="&#xeb;" horiz-adv-x="796" d="M67 428q0 456 354 456q298 0 298 -270q0 -55 -13 -97.5t-33.5 -71.5t-55 -49.5t-68.5 -31.5t-83.5 -17.5t-89.5 -8t-97 -1.5h-39q16 -123 73.5 -173t153.5 -50q34 0 70.5 7.5t59.5 15t58.5 22t48.5 18.5q11 5 16.5 0.5t5.5 -21.5v-63q0 -21 -4 -29t-18 -17 q-45 -30 -117 -48t-142 -18q-194 0 -286 110t-92 337zM195 1125q0 36 23.5 61.5t58.5 25.5q37 0 61.5 -25.5t24.5 -61.5q0 -38 -24.5 -64t-61.5 -26q-36 0 -59 26t-23 64zM235 447q42 1 64.5 1.5t62 4t62.5 10t52 18.5t45 29t27 43.5t11 60.5q0 71 -38 107.5t-97 36.5 q-186 0 -189 -311zM477 1125q0 36 23.5 61.5t61.5 25.5q36 0 60 -25.5t24 -61.5q0 -38 -24 -64t-60 -26q-39 0 -62 25.5t-23 64.5z" />
<glyph unicode="&#xec;" horiz-adv-x="500" d="M22 1255q-7 7 -9 13.5t2 10.5t13 4h128q17 0 26 -6t19 -22l127 -196q18 -33 -11 -33h-68q-25 0 -54 32zM39 763v58q0 17 4 22.5t15 5.5q114 17 164 17h67q33 0 33 -43v-572q0 -81 14 -108.5t40 -27.5q37 0 37 45q0 14 1 19.5t6.5 9t18.5 3.5h26q16 0 20.5 -5.5t4.5 -26.5 q0 -169 -153 -169q-175 0 -175 244v443q0 35 -8 45t-31 12l-71 4q-9 0 -11 4.5t-2 19.5z" />
<glyph unicode="&#xed;" horiz-adv-x="500" d="M39 763v58q0 17 4 22.5t15 5.5q114 17 164 17h67q33 0 33 -43v-572q0 -81 14 -108.5t40 -27.5q37 0 37 45q0 14 1 19.5t6.5 9t18.5 3.5h26q16 0 20.5 -5.5t4.5 -26.5q0 -169 -153 -169q-175 0 -175 244v443q0 35 -8 45t-31 12l-71 4q-9 0 -11 4.5t-2 19.5zM184 1072 l110 172q17 29 45 29h134q9 0 13 -4t1.5 -11.5t-9.5 -15.5l-165 -181q-19 -22 -50 -22h-68q-32 0 -11 33z" />
<glyph unicode="&#xee;" horiz-adv-x="500" d="M22 1043q-6 13 10 33l132 166q15 20 48 20h60q31 0 46 -20l134 -168q10 -13 10.5 -21t-6.5 -22q-7 -16 -26 -3l-190 123l-186 -123q-16 -6 -20.5 -3t-11.5 18zM39 763v58q0 9 1 14t3 8.5t5.5 4.5t9.5 1q114 17 164 17h67q33 0 33 -43v-572q0 -56 7.5 -87t18.5 -40t28 -9 q37 0 37 45q0 14 1 19.5t6.5 9t18.5 3.5h26q9 0 13.5 -1t7.5 -4.5t3.5 -9.5t0.5 -17q0 -169 -153 -169q-175 0 -175 244v443q0 35 -8 45t-31 12l-71 4q-9 0 -11 5t-2 19z" />
<glyph unicode="&#xef;" horiz-adv-x="500" d="M17 1125q0 36 23.5 61.5t58.5 25.5q37 0 61 -25.5t24 -61.5q0 -38 -24 -64t-61 -26q-36 0 -59 26t-23 64zM39 763v58q0 17 4 22.5t15 5.5q114 17 164 17h67q33 0 33 -43v-572q0 -81 14 -108.5t40 -27.5q37 0 37 45q0 14 1 19.5t6.5 9t18.5 3.5h26q16 0 20.5 -5.5 t4.5 -26.5q0 -169 -153 -169q-175 0 -175 244v443q0 35 -8 45t-31 12l-71 4q-9 0 -11 4.5t-2 19.5zM298 1125q0 36 24 61.5t62 25.5q35 0 59 -25.5t24 -61.5q0 -38 -23.5 -64t-59.5 -26q-39 0 -62.5 25.5t-23.5 64.5z" />
<glyph unicode="&#xf0;" horiz-adv-x="867" d="M67 408q0 64 9.5 121.5t32 111.5t57 92.5t87.5 62t119 23.5q127 0 214 -113q-43 286 -195 404l-58 -131q-7 -13 -18 -3l-79 46q-14 12 -7 24l54 119q-57 15 -108 15h-13q-24 0 -24 34v80q0 15 5 21.5t19 6.5h13q95 0 168 -22l61 134q4 9 9 10t15 -5l67 -41 q11 -10 13 -13.5t-2 -17.5l-50 -114q160 -91 241 -286.5t81 -458.5q0 -163 -35.5 -278.5t-116.5 -182t-203 -66.5q-171 0 -263.5 115t-92.5 312zM242 411q0 -144 48.5 -220t130.5 -76q180 0 180 371v7q-25 98 -69 146t-115 48q-88 0 -131.5 -75.5t-43.5 -200.5z" />
<glyph unicode="&#xf1;" horiz-adv-x="977" d="M50 22v60q0 24 15 26q80 5 100.5 20.5t20.5 70.5v479q0 59 -37 59l-71 4q-9 0 -12 4.5t-3 17.5v62q0 15 4 19.5t15 6.5q36 4 74.5 9t61 8t35.5 3h52q20 0 27 -10.5t7 -33.5v-129q37 94 107 140t152 46q105 0 156.5 -69.5t51.5 -222.5v-341q0 -80 13.5 -108t38.5 -28 q39 0 39 45q0 20 4 26t21 6h28q16 0 20 -5.5t4 -26.5q0 -169 -155 -169q-175 0 -175 244v340q0 97 -25.5 134.5t-76.5 37.5q-89 0 -142.5 -95t-53.5 -287v-162q0 -61 15 -74.5t88 -16.5q11 -1 15.5 -5t5.5 -9.5t1 -19.5v-52q0 -9 -0.5 -12.5t-2 -7.5t-5.5 -5t-11 -1h-383 q-13 0 -16 4t-3 18zM354 1102q20 49 52 81.5t71 32.5q38 0 84.5 -32t67.5 -32q25 0 41 41q6 17 17 12l48 -25q9 -4 10.5 -9.5t-2.5 -16.5q-47 -117 -121 -117q-31 0 -60.5 15.5t-52.5 31.5t-38 16q-14 0 -22.5 -9t-20.5 -33q-8 -13 -20 -8l-43 24q-19 9 -11 28z" />
<glyph unicode="&#xf2;" horiz-adv-x="854" d="M63 439q0 70 12 133t39.5 120.5t68.5 99.5t103.5 67t139.5 25q78 0 140.5 -25t103.5 -67t68 -99.5t39 -120.5t12 -133t-12 -133.5t-39.5 -122t-68.5 -101t-103.5 -68t-139.5 -25.5q-78 0 -140.5 25.5t-103.5 68t-68.5 101t-39 122t-11.5 133.5zM205 1255q-7 7 -9.5 13.5 t1.5 10.5t13 4h129q17 0 26 -6t19 -22l126 -196q18 -33 -11 -33h-67q-25 0 -54 32zM229 432q0 -87 18.5 -154.5t64.5 -112t114 -44.5t114.5 44.5t66 113t19.5 155.5t-19.5 156t-66 115.5t-114.5 46.5q-67 0 -113 -46.5t-65 -116t-19 -157.5z" />
<glyph unicode="&#xf3;" horiz-adv-x="854" d="M63 439q0 70 12 133t39.5 120.5t68.5 99.5t103.5 67t139.5 25q78 0 140.5 -25t103.5 -67t68 -99.5t39 -120.5t12 -133t-12 -133.5t-39.5 -122t-68.5 -101t-103.5 -68t-139.5 -25.5q-78 0 -140.5 25.5t-103.5 68t-68.5 101t-39 122t-11.5 133.5zM229 432 q0 -87 18.5 -154.5t64.5 -112t114 -44.5t114.5 44.5t66 113t19.5 155.5t-19.5 156t-66 115.5t-114.5 46.5q-67 0 -113 -46.5t-65 -116t-19 -157.5zM369 1072l109 172q17 29 45 29h134q14 0 15.5 -9t-9.5 -22l-166 -181q-19 -22 -50 -22h-67q-32 0 -11 33z" />
<glyph unicode="&#xf4;" horiz-adv-x="854" d="M63 439q0 70 12 133t39.5 120.5t68.5 99.5t103.5 67t139.5 25q78 0 140.5 -25t103.5 -67t68 -99.5t39 -120.5t12 -133t-12 -133.5t-39.5 -122t-68.5 -101t-103.5 -68t-139.5 -25.5q-78 0 -140.5 25.5t-103.5 68t-68.5 101t-39 122t-11.5 133.5zM209 1043q-6 14 9 33 l132 166q15 20 48 20h60q32 0 47 -20l134 -168q10 -12 10 -21t-7 -22q-4 -9 -10 -9.5t-16 6.5l-190 123l-186 -123q-15 -6 -20 -3t-11 18zM229 432q0 -64 11 -118t33.5 -98.5t61.5 -69.5t91 -25t91.5 25t62.5 69.5t34.5 99.5t11.5 119t-11.5 119.5t-34.5 100.5t-62.5 71.5 t-91.5 26.5q-51 0 -90 -26.5t-61.5 -72t-34 -101t-11.5 -120.5z" />
<glyph unicode="&#xf5;" horiz-adv-x="854" d="M63 439q0 70 12 133t39.5 120.5t68.5 99.5t103.5 67t139.5 25q78 0 140.5 -25t103.5 -67t68 -99.5t39 -120.5t12 -133t-12 -133.5t-39.5 -122t-68.5 -101t-103.5 -68t-139.5 -25.5q-78 0 -140.5 25.5t-103.5 68t-68.5 101t-39 122t-11.5 133.5zM229 432 q0 -87 18.5 -154.5t64.5 -112t114 -44.5t114.5 44.5t66 113t19.5 155.5t-19.5 156t-66 115.5t-114.5 46.5q-67 0 -113 -46.5t-65 -116t-19 -157.5zM249 1102q20 49 52 81.5t71 32.5q38 0 85 -32t68 -32q25 0 41 41q6 17 17 12l48 -25q9 -4 10.5 -9.5t-2.5 -16.5 q-47 -117 -121 -117q-31 0 -60.5 15.5t-52.5 31.5t-38 16q-14 0 -22.5 -9t-20.5 -33q-9 -14 -21 -8l-42 24q-20 9 -12 28z" />
<glyph unicode="&#xf6;" horiz-adv-x="854" d="M63 439q0 70 12 133t39.5 120.5t68.5 99.5t103.5 67t139.5 25q78 0 140.5 -25t103.5 -67t68 -99.5t39 -120.5t12 -133t-12 -133.5t-39.5 -122t-68.5 -101t-103.5 -68t-139.5 -25.5q-78 0 -140.5 25.5t-103.5 68t-68.5 101t-39 122t-11.5 133.5zM203 1125q0 36 23.5 61.5 t58.5 25.5q37 0 61.5 -25.5t24.5 -61.5q0 -38 -24.5 -64t-61.5 -26q-36 0 -59 26t-23 64zM229 432q0 -87 18.5 -154.5t64.5 -112t114 -44.5t114.5 44.5t66 113t19.5 155.5t-19.5 156t-66 115.5t-114.5 46.5q-67 0 -113 -46.5t-65 -116t-19 -157.5zM484 1125q0 36 24 61.5 t62 25.5q35 0 59 -25.5t24 -61.5q0 -38 -23.5 -64t-59.5 -26q-39 0 -62.5 25.5t-23.5 64.5z" />
<glyph unicode="&#xf7;" horiz-adv-x="983" d="M93 385v149h797v-149h-797zM371 138q0 41 31 69.5t80 28.5t80.5 -28.5t31.5 -69.5q0 -40 -31.5 -68.5t-80.5 -28.5t-80 28.5t-31 68.5zM371 784q0 42 32.5 70.5t78.5 28.5q47 0 79.5 -28.5t32.5 -70.5q0 -39 -32.5 -67t-79.5 -28q-46 0 -78.5 28t-32.5 67z" />
<glyph unicode="&#xf8;" horiz-adv-x="854" d="M63 439q0 70 12 133t39.5 120.5t68.5 99.5t103.5 67t139.5 25q45 0 101 -13l43 121q8 17 15 17h83q18 0 10 -20l-56 -159q86 -57 126.5 -161t40.5 -230q0 -70 -12 -133.5t-39.5 -122t-68.5 -101t-103.5 -68t-139.5 -25.5q-50 0 -89 9l-39 -112q-6 -13 -22 -13h-82 q-13 0 -6 15l50 149q-90 55 -132.5 162.5t-42.5 239.5zM229 432q0 -162 61 -244l192 555q-26 9 -56 9q-67 0 -113 -46.5t-65 -116t-19 -157.5zM382 127q20 -6 44 -6q68 0 114.5 44.5t66 113t19.5 155.5q0 147 -58 238z" />
<glyph unicode="&#xf9;" horiz-adv-x="955" d="M28 771v52q0 15 4 19.5t15 6.5q42 4 75.5 9t49 6.5t38.5 1.5h67q21 0 27.5 -12t6.5 -35v-519q0 -113 28 -153.5t89 -40.5q188 0 188 322v268q-5 43 -37 47l-73 4q-8 0 -9.5 4.5t-1.5 19.5v52q0 15 4 19.5t15 6.5q35 4 63.5 7.5t40.5 5.5t27 3t33 1h67q19 0 25 -12t6 -35 v-568q0 -81 14 -108.5t42 -27.5q36 0 36 45q0 14 1 19.5t6.5 9t18.5 3.5h26q17 0 20.5 -5t3.5 -27q0 -169 -153 -169q-135 0 -165 145q-38 -77 -95.5 -113t-146.5 -36q-121 0 -177 73.5t-56 242.5v386q0 50 -37 54l-75 4q-8 0 -9.5 4.5t-1.5 19.5zM220 1255q-7 7 -9.5 13.5 t1.5 10.5t13 4h129q16 0 25 -5.5t19 -22.5l127 -196q18 -33 -11 -33h-67q-25 0 -54 32z" />
<glyph unicode="&#xfa;" horiz-adv-x="955" d="M28 771v52q0 15 4 19.5t15 6.5q42 4 75.5 9t49 6.5t38.5 1.5h67q21 0 27.5 -12t6.5 -35v-519q0 -113 28 -153.5t89 -40.5q188 0 188 322v268q-5 43 -37 47l-73 4q-8 0 -9.5 4.5t-1.5 19.5v52q0 15 4 19.5t15 6.5q35 4 63.5 7.5t40.5 5.5t27 3t33 1h67q19 0 25 -12t6 -35 v-568q0 -81 14 -108.5t42 -27.5q36 0 36 45q0 14 1 19.5t6.5 9t18.5 3.5h26q17 0 20.5 -5t3.5 -27q0 -169 -153 -169q-135 0 -165 145q-38 -77 -95.5 -113t-146.5 -36q-121 0 -177 73.5t-56 242.5v386q0 50 -37 54l-75 4q-8 0 -9.5 4.5t-1.5 19.5zM382 1072l110 172 q10 17 19 23t25 6h134q14 0 15.5 -9t-9.5 -22l-166 -181q-19 -22 -50 -22h-67q-32 0 -11 33z" />
<glyph unicode="&#xfb;" horiz-adv-x="955" d="M28 771v52q0 15 4 19.5t15 6.5q42 4 75.5 9t49 6.5t38.5 1.5h67q21 0 27.5 -12t6.5 -35v-519q0 -113 28 -153.5t89 -40.5q188 0 188 322v268q-5 43 -37 47l-73 4q-8 0 -9.5 4.5t-1.5 19.5v52q0 15 4 19.5t15 6.5q35 4 63.5 7.5t40.5 5.5t27 3t33 1h67q19 0 25 -12t6 -35 v-568q0 -81 14 -108.5t42 -27.5q36 0 36 45q0 14 1 19.5t6.5 9t18.5 3.5h26q17 0 20.5 -5t3.5 -27q0 -169 -153 -169q-135 0 -165 145q-38 -77 -95.5 -113t-146.5 -36q-121 0 -177 73.5t-56 242.5v386q0 50 -37 54l-75 4q-8 0 -9.5 4.5t-1.5 19.5zM222 1043q-6 14 9 33 l132 166q15 20 48 20h60q32 0 47 -20l134 -168q10 -12 10 -21t-7 -22q-4 -9 -10 -9.5t-16 6.5l-190 123l-186 -123q-15 -6 -20 -3t-11 18z" />
<glyph unicode="&#xfc;" horiz-adv-x="955" d="M28 771v52q0 15 4 19.5t15 6.5q42 4 75.5 9t49 6.5t38.5 1.5h67q21 0 27.5 -12t6.5 -35v-519q0 -113 28 -153.5t89 -40.5q188 0 188 322v268q-5 43 -37 47l-73 4q-8 0 -9.5 4.5t-1.5 19.5v52q0 15 4 19.5t15 6.5q35 4 63.5 7.5t40.5 5.5t27 3t33 1h67q19 0 25 -12t6 -35 v-568q0 -81 14 -108.5t42 -27.5q36 0 36 45q0 14 1 19.5t6.5 9t18.5 3.5h26q17 0 20.5 -5t3.5 -27q0 -169 -153 -169q-135 0 -165 145q-38 -77 -95.5 -113t-146.5 -36q-121 0 -177 73.5t-56 242.5v386q0 50 -37 54l-75 4q-8 0 -9.5 4.5t-1.5 19.5zM216 1125q0 36 23.5 61.5 t58.5 25.5q37 0 61.5 -25.5t24.5 -61.5q0 -38 -24.5 -64t-61.5 -26q-36 0 -59 26t-23 64zM497 1125q0 36 24 61.5t62 25.5q36 0 60 -25.5t24 -61.5q0 -38 -24 -64t-60 -26q-39 0 -62.5 25.5t-23.5 64.5z" />
<glyph unicode="&#xfd;" horiz-adv-x="884" d="M37 773v78q0 9 3 12t10 3h339q13 0 13 -15v-76q0 -11 -2 -14.5t-13 -4.5q-53 -3 -67 -11t-11 -26q4 -109 51 -284t91 -284q75 213 163 562q7 24 -3 31.5t-65 11.5q-13 2 -18 5.5t-5 14.5v67q0 23 21 23h296q14 0 17 -4.5t3 -18.5v-63q0 -11 -3.5 -15t-13.5 -9 q-55 -5 -68.5 -13.5t-22.5 -40.5q-125 -521 -346 -1019q-20 -37 -43 -50t-63 -13h-127q-14 0 -16 2t-2 17v67q0 17 5 19q3 1 9 1q8 1 23 3q63 8 80.5 15.5t30.5 37.5q85 200 92 218h-15q-16 0 -26 15q-52 91 -128 322t-85 380q-2 18 -19.5 26t-73.5 15q-11 2 -11 15z M408 1072l110 172q10 17 19 23t25 6h134q14 0 15.5 -9t-9.5 -22l-166 -181q-19 -22 -50 -22h-67q-32 0 -11 33z" />
<glyph unicode="&#xfe;" horiz-adv-x="884" d="M-6 -272q0 15 2.5 20t12.5 6q74 5 92 18.5t18 65.5v408h2v869q0 56 -37 60l-73 4q-11 0 -11 22v61q0 16 3.5 20t13.5 6q38 4 76 9.5t60 8.5t35 3h54q20 0 27 -11t7 -34v-575q29 96 97.5 145.5t151.5 49.5q142 0 216 -124.5t74 -325.5q0 -131 -30 -230.5t-98 -161 t-169 -61.5q-48 0 -92 14t-84.5 49.5t-58.5 87.5v-283q0 -58 21 -73t96 -18q16 -1 19.5 -7.5t3.5 -26.5v-52q0 -16 -3.5 -21t-15.5 -5h-391q-12 0 -15.5 4t-3.5 19v59zM283 406q0 -137 46 -220.5t135 -83.5q94 0 139 88.5t45 233.5q0 143 -45 233t-136 90q-89 0 -136.5 -93 t-47.5 -248z" />
<glyph unicode="&#xff;" horiz-adv-x="884" d="M37 773v78q0 9 3 12t10 3h339q13 0 13 -15v-76q0 -11 -2 -14.5t-13 -4.5q-53 -3 -67 -11t-11 -26q4 -109 51 -284t91 -284q75 213 163 562q7 24 -3 31.5t-65 11.5q-13 2 -18 5.5t-5 14.5v67q0 23 21 23h296q14 0 17 -4.5t3 -18.5v-63q0 -11 -3.5 -15t-13.5 -9 q-55 -5 -68.5 -13.5t-22.5 -40.5q-125 -521 -346 -1019q-20 -37 -43 -50t-63 -13h-127q-14 0 -16 2t-2 17v67q0 17 5 19q3 1 9 1q8 1 23 3q63 8 80.5 15.5t30.5 37.5q85 200 92 218h-15q-16 0 -26 15q-52 91 -128 322t-85 380q-2 18 -19.5 26t-73.5 15q-11 2 -11 15z M240 1125q0 36 23.5 61.5t58.5 25.5q37 0 61.5 -25.5t24.5 -61.5q0 -38 -24.5 -64t-61.5 -26q-36 0 -59 26t-23 64zM521 1125q0 36 24 61.5t62 25.5q36 0 60 -25.5t24 -61.5q0 -38 -24 -64t-60 -26q-39 0 -62.5 25.5t-23.5 64.5z" />
<glyph unicode="&#x152;" horiz-adv-x="1750" d="M78 652q0 146 32.5 267.5t96 212t165 140.5t231.5 50q249 0 386 -179q67 179 335 179q171 0 296 -47q5 -2 9 -4t6.5 -3.5t4.5 -4.5t2.5 -5t1 -6.5t0.5 -6.5v-9v-11v-266q0 -16 -2.5 -19.5t-14.5 -3.5h-78q-9 0 -12.5 3.5t-6.5 15.5l-26 205q-68 22 -169 22 q-46 0 -80.5 -8.5t-64.5 -29.5t-46 -62.5t-16 -102.5q0 -127 59.5 -179t171.5 -52h99q20 0 20 -26v-85q0 -15 -4.5 -20.5t-15.5 -5.5h-99q-255 0 -255 -252q0 -124 64.5 -177.5t199.5 -53.5q66 0 136.5 10t120.5 21.5t56 11.5q9 3 12 -1t3 -17v-105q0 -12 -4 -16.5t-18 -9.5 q-145 -41 -361 -41q-263 0 -349 149q-135 -149 -361 -149q-173 0 -293 88t-176 236.5t-56 346.5zM261 655q0 -246 90.5 -387t251.5 -141t252 141t91 387q0 244 -90.5 382t-252.5 138q-161 0 -251.5 -138t-90.5 -382zM1128 670l19 6l-19 5v-11z" />
<glyph unicode="&#x153;" horiz-adv-x="1353" d="M63 439q0 70 12 133t39.5 120.5t68.5 99.5t103.5 67t139.5 25q181 0 276 -128q85 128 275 128q298 0 298 -270q0 -55 -13 -97.5t-33.5 -71.5t-55 -49.5t-68 -31.5t-83 -17.5t-89.5 -8t-97 -1.5h-39q16 -123 73.5 -173t153.5 -50q34 0 70.5 7.5t59 15.5t58 21.5t48.5 18.5 q11 5 17 0.5t6 -21.5v-63q0 -21 -4.5 -29t-18.5 -17q-45 -30 -116.5 -48t-141.5 -18q-216 0 -306 134q-96 -126 -270 -126q-78 0 -140.5 25.5t-103.5 68t-68.5 101t-39 122t-11.5 133.5zM229 432q0 -87 18.5 -154.5t64.5 -112t114 -44.5q92 0 141.5 75.5t56.5 194.5v78 q-6 123 -55.5 203t-142.5 80q-67 0 -113 -46.5t-65 -116t-19 -157.5zM791 447q42 1 64.5 1.5t62 4t62.5 10t52 18.5t45 29t27 43.5t11 60.5q0 71 -37.5 107.5t-96.5 36.5q-187 0 -190 -311z" />
<glyph unicode="&#x178;" horiz-adv-x="1035" d="M26 1216v67q0 12 3.5 16t13.5 4h376q11 0 14 -4t3 -16v-65q0 -14 -3.5 -19.5t-15.5 -6.5q-39 -1 -59.5 -4t-29 -9t-8.5 -17q0 -144 55 -272.5t150 -275.5q48 69 80.5 122.5t68 126t53.5 148t18 151.5q0 16 -20 22t-79 8q-11 1 -15 7t-4 19v65q0 12 3 16t14 4h350 q10 0 13.5 -4t3.5 -16v-67q0 -23 -15 -23q-64 -5 -86.5 -12.5t-26.5 -28.5q-23 -313 -280 -660v-263h2v-26q0 -61 14.5 -74.5t87.5 -16.5q16 -1 19.5 -7.5t3.5 -26.5v-52q0 -16 -3.5 -21t-15.5 -5h-391q-12 0 -15 3.5t-3 18.5v60q0 10 0.5 14t4 7.5t10.5 4.5q79 5 99 20 t20 71v270q-272 367 -283 683q-2 17 -26.5 26.5t-85.5 14.5q-7 1 -10.5 4t-4 6.5t-0.5 12.5zM311 1463q0 36 23.5 62t58.5 26q37 0 61 -26t24 -62q0 -38 -24 -63.5t-61 -25.5q-36 0 -59 25.5t-23 63.5zM592 1463q0 36 24 62t62 26q35 0 59 -26t24 -62q0 -38 -23.5 -63.5 t-59.5 -25.5q-40 0 -63 25t-23 64z" />
<glyph unicode="&#x2c6;" horiz-adv-x="545" d="M56 1381q-7 15 9 34l132 166q15 20 49 20h59q32 0 47 -20l134 -168q10 -12 10.5 -21t-6.5 -22q-7 -16 -26 -3l-190 122l-186 -122q-15 -6 -20.5 -3t-11.5 17z" />
<glyph unicode="&#x2dc;" horiz-adv-x="564" d="M91 1432q20 49 51.5 81t71.5 32q38 0 85 -31.5t68 -31.5q25 0 41 41q6 16 16 11l49 -24q9 -4 10 -9.5t-3 -16.5q-47 -117 -121 -117q-31 0 -60.5 15.5t-52 31.5t-37.5 16q-14 0 -22.5 -9t-20.5 -34q-8 -13 -21 -7l-43 24q-19 9 -11 28z" />
<glyph unicode="&#x2000;" horiz-adv-x="838" />
<glyph unicode="&#x2001;" horiz-adv-x="1676" />
<glyph unicode="&#x2002;" horiz-adv-x="838" />
<glyph unicode="&#x2003;" horiz-adv-x="1676" />
<glyph unicode="&#x2004;" horiz-adv-x="558" />
<glyph unicode="&#x2005;" horiz-adv-x="419" />
<glyph unicode="&#x2006;" horiz-adv-x="279" />
<glyph unicode="&#x2007;" horiz-adv-x="279" />
<glyph unicode="&#x2008;" horiz-adv-x="209" />
<glyph unicode="&#x2009;" horiz-adv-x="335" />
<glyph unicode="&#x200a;" horiz-adv-x="93" />
<glyph unicode="&#x2010;" horiz-adv-x="711" d="M101 492v87q0 22 18 22h477q17 0 17 -24v-76q0 -28 -21 -28h-475q-16 0 -16 19z" />
<glyph unicode="&#x2011;" horiz-adv-x="711" d="M101 492v87q0 22 18 22h477q17 0 17 -24v-76q0 -28 -21 -28h-475q-16 0 -16 19z" />
<glyph unicode="&#x2012;" horiz-adv-x="711" d="M101 492v87q0 22 18 22h477q17 0 17 -24v-76q0 -28 -21 -28h-475q-16 0 -16 19z" />
<glyph unicode="&#x2013;" horiz-adv-x="983" d="M101 484v99q0 18 16 18h749q9 0 12 -4t3 -16v-88q0 -15 -3 -20.5t-14 -5.5h-749q-14 0 -14 17z" />
<glyph unicode="&#x2014;" horiz-adv-x="1344" d="M101 484v99q0 18 16 18h1110q9 0 12 -4t3 -16v-88q0 -16 -2.5 -21t-14.5 -5h-1110q-14 0 -14 17z" />
<glyph unicode="&#x2018;" horiz-adv-x="389" d="M78 953l106 343q4 16 10 21t18 5h93q23 0 15 -28l-74 -352q-5 -23 -11.5 -30t-29.5 -7h-104q-23 0 -27.5 11.5t4.5 36.5z" />
<glyph unicode="&#x2019;" horiz-adv-x="387" d="M80 933l75 352q4 17 6.5 23t10 10t23.5 4h105q23 0 27 -12t-5 -37l-106 -342q-4 -16 -10 -21t-18 -5h-93q-23 0 -15 28z" />
<glyph unicode="&#x201a;" horiz-adv-x="368" d="M39 -186l75 352q5 23 11.5 30t29.5 7h104q23 0 27 -11.5t-5 -36.5l-106 -343q-4 -16 -10 -21t-18 -5h-93q-23 0 -15 28z" />
<glyph unicode="&#x201c;" horiz-adv-x="644" d="M78 953l106 343q4 16 10 21t18 5h93q23 0 15 -28l-74 -352q-5 -23 -11.5 -30t-29.5 -7h-104q-23 0 -27.5 11.5t4.5 36.5zM331 953l107 343q4 16 9.5 21t17.5 5h94q22 0 14 -28l-74 -352q-5 -23 -11.5 -30t-29.5 -7h-104q-23 0 -27.5 11.5t4.5 36.5z" />
<glyph unicode="&#x201d;" horiz-adv-x="642" d="M80 933l75 352q4 17 6.5 23t10 10t23.5 4h105q23 0 27 -12t-5 -37l-106 -342q-4 -16 -10 -21t-18 -5h-93q-23 0 -15 28zM335 933l75 352q5 23 11.5 30t29.5 7h104q23 0 27 -12t-5 -37l-106 -342q-4 -16 -10 -21t-18 -5h-93q-23 0 -15 28z" />
<glyph unicode="&#x201e;" horiz-adv-x="672" d="M39 -186l75 352q5 23 11.5 30t29.5 7h104q23 0 27 -11.5t-5 -36.5l-106 -343q-4 -16 -10 -21t-18 -5h-93q-23 0 -15 28zM341 -186l74 352q5 23 11.5 30t29.5 7h104q23 0 27.5 -11.5t-4.5 -36.5l-106 -343q-4 -16 -10 -21t-18 -5h-93q-23 0 -15 28z" />
<glyph unicode="&#x2022;" horiz-adv-x="523" d="M128 456q0 45 38 76.5t95 31.5q55 0 93.5 -31.5t38.5 -76.5q0 -44 -38.5 -75t-93.5 -31q-56 0 -94.5 31t-38.5 75z" />
<glyph unicode="&#x2026;" horiz-adv-x="1225" d="M88 74q0 35 27.5 58.5t66.5 23.5q40 0 68.5 -23.5t28.5 -58.5q0 -39 -28 -62t-69 -23q-40 0 -67 23t-27 62zM518 74q0 35 27 58.5t68 23.5q40 0 68 -23.5t28 -58.5q0 -38 -28 -61.5t-68 -23.5q-41 0 -68 23.5t-27 61.5zM948 73q0 36 27 59.5t66 23.5q40 0 68.5 -24 t28.5 -59q0 -38 -28.5 -61t-68.5 -23t-66.5 23t-26.5 61z" />
<glyph unicode="&#x202f;" horiz-adv-x="335" />
<glyph unicode="&#x2039;" horiz-adv-x="539" d="M58 493l301 399q8 11 11.5 13.5t11.5 -2.5l78 -60q7 -5 6.5 -9t-8.5 -17l-240 -340l238 -334q13 -16 13.5 -21t-7.5 -12l-77 -56q-11 -6 -15 -3.5t-13 14.5l-297 387q-12 15 -12.5 20.5t10.5 20.5z" />
<glyph unicode="&#x203a;" horiz-adv-x="539" d="M78 110q-7 7 -6 12t12 21l240 334l-240 340q-10 13 -10.5 17t6.5 9l78 60q8 5 11.5 2.5t11.5 -13.5l301 -399q11 -15 10.5 -20.5t-12.5 -20.5l-298 -387q-9 -13 -12.5 -14.5t-14.5 3.5z" />
<glyph unicode="&#x205f;" horiz-adv-x="419" />
<glyph unicode="&#x20ac;" horiz-adv-x="1208" d="M67 436l47 72q12 19 27 19h105q-4 48 -4 76h-166q-14 0 -15 4.5t6 14.5l47 72q11 21 27 21h101q14 303 146 455t370 152q94 0 178.5 -12t130.5 -29q16 -7 20 -16t4 -36v-320q0 -15 -3.5 -19t-13.5 -4h-95q-11 0 -14.5 3.5t-5.5 15.5l-26 255q-69 24 -170 24 q-146 0 -238 -117.5t-106 -351.5h465q17 0 19.5 -8t-6.5 -18l-57 -67q-13 -19 -36 -19h-387q0 -40 6 -76h340q16 0 19 -7t-6 -17l-55 -69q-19 -19 -38 -19h-242q70 -283 348 -283q115 0 308 43q11 3 16.5 -2t5.5 -20v-79q0 -20 -6 -29.5t-24 -14.5q-164 -45 -328 -45 q-214 0 -339 104t-163 326h-183q-14 0 -15 5t6 16z" />
<glyph unicode="&#x2122;" horiz-adv-x="1442" d="M110 1089v201q0 9 2.5 11t8.5 2h417q4 0 5.5 -0.5t2.5 -3.5t1 -9v-201q0 -15 -9 -15h-56q-8 0 -11 15l-4 84q-3 28 -20 28h-62v-531h2v-13q0 -36 7.5 -45.5t37.5 -10.5q8 -1 9.5 -4.5t1.5 -15.5v-45v-7t-1 -4.5t-3 -3t-5 -0.5h-216q-6 0 -7.5 2t-1.5 11v49q0 17 7 17 q31 3 43 10.5t13 29.5v561h-62q-15 0 -18 -28l-6 -86q0 -13 -9 -13h-56q-11 0 -11 15zM577 1242v48q0 13 8 13h219q5 0 9 -1.5t6 -3t4 -6t2.5 -7.5t2 -11.5t2.5 -13.5q16 -114 55.5 -305.5t71.5 -302.5h2q56 193 117 608q1 6 2.5 16t2.5 12.5t3.5 7.5t7 6t12.5 1h207 q6 0 7.5 -2t1.5 -11v-48q0 -17 -9 -17q-34 -5 -45 -13.5t-11 -32.5v-514q0 -64 32 -64q29 0 29 49v5q0 6 4 6h34q5 0 5 -6v-5q0 -140 -102 -140q-116 0 -116 160v443q-25 -155 -66 -331t-70 -248q-5 -13 -16 -13h-92q-11 0 -16 13q-36 85 -79.5 254t-69.5 325v-460 q0 -32 8 -41t36 -11q8 0 10 -4t2 -16v-45q0 -15 -10 -15h-186q-6 0 -7.5 2t-1.5 11v49q0 17 9 17q29 5 38 14t9 39v526q0 24 -10.5 32.5t-43.5 13.5q-8 0 -8 14v1.5v1.5z" />
<glyph unicode="&#xe000;" horiz-adv-x="865" d="M0 0v866h866v-866h-866z" />
</font>
</defs>
</svg>
